<svg xmlns="http://www.w3.org/2000/svg" viewBox="0 0 343.18 302.49"><defs><style>.cls-1{fill:#7f9ce5;}.cls-2{isolation:isolate;}.cls-3{fill:none;stroke:#707070;stroke-width:2px;}.cls-4{fill:#333;}</style></defs><g id="圖層_5" data-name="圖層 5"><circle class="cls-1" cx="336.85" cy="89.8" r="1.5"/><circle class="cls-1" cx="335.79" cy="81.01" r="1.5"/><circle class="cls-1" cx="336.85" cy="73.23" r="1.5"/><circle class="cls-1" cx="334.73" cy="65.44" r="1.5"/><circle class="cls-1" cx="334.73" cy="57.65" r="1.5"/><circle class="cls-1" cx="337.38" cy="50.15" r="1.5"/><circle class="cls-1" cx="336.85" cy="128.74" r="1.5"/><circle class="cls-1" cx="334.73" cy="119.95" r="1.5"/><circle class="cls-1" cx="336.32" cy="112.16" r="1.5"/><circle class="cls-1" cx="335.79" cy="104.38" r="1.5"/><circle class="cls-1" cx="334.73" cy="96.59" r="1.5"/><circle class="cls-1" cx="334.73" cy="26.5" r="1.5"/><circle class="cls-1" cx="335.52" cy="20.43" r="1.5"/><circle class="cls-1" cx="336.58" cy="34.86" r="1.5"/><circle class="cls-1" cx="336.85" cy="211.61" r="1.5"/><circle class="cls-1" cx="336.85" cy="204.82" r="1.5"/><circle class="cls-1" cx="336.32" cy="196.03" r="1.5"/><circle class="cls-1" cx="334.73" cy="267.9" r="1.5"/><circle class="cls-1" cx="336.58" cy="260.4" r="1.5"/><circle class="cls-1" cx="335.26" cy="253.33" r="1.5"/><circle class="cls-1" cx="336.85" cy="245.54" r="1.5"/><circle class="cls-1" cx="334.73" cy="188.25" r="1.5"/><circle class="cls-1" cx="337.05" cy="177.17" r="1.5"/><circle class="cls-1" cx="333.4" cy="169.17" r="1.5"/><circle class="cls-1" cx="336.32" cy="159.88" r="1.5"/><circle class="cls-1" cx="334.73" cy="151.1" r="1.5"/><circle class="cls-1" cx="334.73" cy="143.31" r="1.5"/><circle class="cls-1" cx="330.38" cy="82.8" r="1.5"/><circle class="cls-1" cx="330.91" cy="74.01" r="1.5"/><circle class="cls-1" cx="331.32" cy="64.44" r="1.5"/><circle class="cls-1" cx="331.05" cy="55.15" r="1.5"/><circle class="cls-1" cx="330.91" cy="114.95" r="1.5"/><circle class="cls-1" cx="330.91" cy="107.16" r="1.5"/><circle class="cls-1" cx="330.91" cy="99.37" r="1.5"/><circle class="cls-1" cx="331.97" cy="89.59" r="1.5"/><circle class="cls-1" cx="330.91" cy="29.29" r="1.5"/><circle class="cls-1" cx="330.91" cy="21.5" r="1.5"/><circle class="cls-1" cx="332.5" cy="206.89" r="1.5"/><circle class="cls-1" cx="330.91" cy="196.61" r="1.5"/><circle class="cls-1" cx="327.2" cy="193.82" r="1.5"/><circle class="cls-1" cx="330.91" cy="262.9" r="1.5"/><circle class="cls-1" cx="330.91" cy="255.12" r="1.5"/><circle class="cls-1" cx="330.91" cy="161.67" r="1.5"/><circle class="cls-1" cx="330.91" cy="153.88" r="1.5"/><circle class="cls-1" cx="327.38" cy="88.8" r="1.5"/><circle class="cls-1" cx="327.38" cy="65.44" r="1.5"/><circle class="cls-1" cx="327.38" cy="57.65" r="1.5"/><circle class="cls-1" cx="327.38" cy="112.16" r="1.5"/><circle class="cls-1" cx="327.38" cy="104.38" r="1.5"/><circle class="cls-1" cx="327.38" cy="96.59" r="1.5"/><circle class="cls-1" cx="327.38" cy="26.5" r="1.5"/><circle class="cls-1" cx="327.38" cy="206.61" r="1.5"/><circle class="cls-1" cx="327.38" cy="267.9" r="1.5"/><circle class="cls-1" cx="327.38" cy="260.12" r="1.5"/><circle class="cls-1" cx="327.38" cy="252.33" r="1.5"/><circle class="cls-1" cx="331.11" cy="248.47" r="1.5"/><circle class="cls-1" cx="324.58" cy="247.83" r="1.5"/><circle class="cls-1" cx="327.38" cy="166.67" r="1.5"/><circle class="cls-1" cx="327.38" cy="158.88" r="1.5"/><circle class="cls-1" cx="327.38" cy="151.1" r="1.5"/><circle class="cls-1" cx="323.7" cy="60.44" r="1.5"/><circle class="cls-1" cx="323.7" cy="52.65" r="1.5"/><circle class="cls-1" cx="323.7" cy="44.87" r="1.5"/><circle class="cls-1" cx="323.7" cy="107.16" r="1.5"/><circle class="cls-1" cx="327.04" cy="121.35" r="1.5"/><circle class="cls-1" cx="334.73" cy="136.02" r="1.5"/><circle class="cls-1" cx="323.36" cy="116.35" r="1.5"/><circle class="cls-1" cx="323.7" cy="99.37" r="1.5"/><circle class="cls-1" cx="323.7" cy="91.59" r="1.5"/><circle class="cls-1" cx="323.7" cy="37.08" r="1.5"/><circle class="cls-1" cx="323.7" cy="29.29" r="1.5"/><circle class="cls-1" cx="323.7" cy="255.12" r="1.5"/><circle class="cls-1" cx="324.59" cy="186.75" r="1.5"/><circle class="cls-1" cx="323.7" cy="169.46" r="1.5"/><circle class="cls-1" cx="323.09" cy="147.2" r="1.5"/><circle class="cls-1" cx="323.7" cy="153.88" r="1.5"/><circle class="cls-1" cx="320.17" cy="88.8" r="1.5"/><circle class="cls-1" cx="320.17" cy="65.44" r="1.5"/><circle class="cls-1" cx="320.17" cy="57.65" r="1.5"/><circle class="cls-1" cx="320.17" cy="49.87" r="1.5"/><circle class="cls-1" cx="320.17" cy="112.16" r="1.5"/><circle class="cls-1" cx="320.17" cy="104.38" r="1.5"/><circle class="cls-1" cx="320.17" cy="96.59" r="1.5"/><circle class="cls-1" cx="320.17" cy="42.08" r="1.5"/><circle class="cls-1" cx="320.17" cy="34.29" r="1.5"/><circle class="cls-1" cx="320.17" cy="26.5" r="1.5"/><circle class="cls-1" cx="320.17" cy="190.03" r="1.5"/><circle class="cls-1" cx="320.17" cy="267.9" r="1.5"/><circle class="cls-1" cx="320.17" cy="260.12" r="1.5"/><circle class="cls-1" cx="320.17" cy="252.33" r="1.5"/><circle class="cls-1" cx="320.17" cy="182.25" r="1.5"/><circle class="cls-1" cx="320.17" cy="174.46" r="1.5"/><circle class="cls-1" cx="320.17" cy="151.1" r="1.5"/><circle class="cls-1" cx="316.36" cy="83.8" r="1.5"/><circle class="cls-1" cx="316.36" cy="76.01" r="1.5"/><circle class="cls-1" cx="316.36" cy="68.23" r="1.5"/><circle class="cls-1" cx="316.36" cy="60.44" r="1.5"/><circle class="cls-1" cx="316.36" cy="52.65" r="1.5"/><circle class="cls-1" cx="316.36" cy="44.87" r="1.5"/><circle class="cls-1" cx="316.36" cy="130.52" r="1.5"/><circle class="cls-1" cx="316.36" cy="122.74" r="1.5"/><circle class="cls-1" cx="316.36" cy="114.95" r="1.5"/><circle class="cls-1" cx="316.36" cy="107.16" r="1.5"/><circle class="cls-1" cx="316.36" cy="99.37" r="1.5"/><circle class="cls-1" cx="316.36" cy="91.59" r="1.5"/><circle class="cls-1" cx="316.36" cy="37.08" r="1.5"/><circle class="cls-1" cx="316.36" cy="29.29" r="1.5"/><circle class="cls-1" cx="316.36" cy="210.39" r="1.5"/><circle class="cls-1" cx="315.36" cy="193.82" r="1.5"/><circle class="cls-1" cx="316.36" cy="185.03" r="1.5"/><circle class="cls-1" cx="316.36" cy="262.9" r="1.5"/><circle class="cls-1" cx="316.36" cy="247.33" r="1.5"/><circle class="cls-1" cx="316.36" cy="177.25" r="1.5"/><circle class="cls-1" cx="316.36" cy="146.1" r="1.5"/><circle class="cls-1" cx="316.36" cy="138.31" r="1.5"/><circle class="cls-1" cx="312.83" cy="88.8" r="1.5"/><circle class="cls-1" cx="312.83" cy="81.01" r="1.5"/><circle class="cls-1" cx="312.83" cy="73.23" r="1.5"/><circle class="cls-1" cx="311.5" cy="62.94" r="1.5"/><circle class="cls-1" cx="312.83" cy="135.52" r="1.5"/><circle class="cls-1" cx="312.83" cy="127.74" r="1.5"/><circle class="cls-1" cx="312.83" cy="96.59" r="1.5"/><circle class="cls-1" cx="310.71" cy="104.88" r="1.5"/><circle class="cls-1" cx="312.83" cy="42.08" r="1.5"/><circle class="cls-1" cx="312.83" cy="34.29" r="1.5"/><circle class="cls-1" cx="312.83" cy="228.97" r="1.5"/><circle class="cls-1" cx="322.52" cy="210.89" r="1.5"/><circle class="cls-1" cx="311.24" cy="214.39" r="1.5"/><circle class="cls-1" cx="312.83" cy="205.61" r="1.5"/><circle class="cls-1" cx="311.83" cy="197.82" r="1.5"/><circle class="cls-1" cx="310.24" cy="193.03" r="1.5"/><circle class="cls-1" cx="312.83" cy="267.9" r="1.5"/><circle class="cls-1" cx="312.83" cy="260.12" r="1.5"/><circle class="cls-1" cx="312.83" cy="252.33" r="1.5"/><circle class="cls-1" cx="312.83" cy="244.54" r="1.5"/><circle class="cls-1" cx="311.77" cy="236.76" r="1.5"/><circle class="cls-1" cx="312.83" cy="182.25" r="1.5"/><circle class="cls-1" cx="312.83" cy="174.46" r="1.5"/><circle class="cls-1" cx="312.83" cy="151.1" r="1.5"/><circle class="cls-1" cx="312.83" cy="143.31" r="1.5"/><circle class="cls-1" cx="308.98" cy="83.8" r="1.5"/><circle class="cls-1" cx="308.98" cy="76.01" r="1.5"/><circle class="cls-1" cx="308.98" cy="68.23" r="1.5"/><circle class="cls-1" cx="305.98" cy="42.08" r="1.5"/><circle class="cls-1" cx="308.98" cy="130.52" r="1.5"/><circle class="cls-1" cx="308.98" cy="91.59" r="1.5"/><circle class="cls-1" cx="308.98" cy="37.08" r="1.5"/><circle class="cls-1" cx="308.98" cy="220.97" r="1.5"/><circle class="cls-1" cx="308.98" cy="208.39" r="1.5"/><circle class="cls-1" cx="308.98" cy="185.03" r="1.5"/><circle class="cls-1" cx="308.98" cy="255.12" r="1.5"/><circle class="cls-1" cx="270.85" cy="251.12" r="1.5"/><circle class="cls-1" cx="303.97" cy="252.33" r="1.5"/><circle class="cls-1" cx="300.12" cy="255.12" r="1.5"/><circle class="cls-1" cx="308.98" cy="228.75" r="1.5"/><circle class="cls-1" cx="308.98" cy="177.25" r="1.5"/><circle class="cls-1" cx="308.98" cy="169.46" r="1.5"/><circle class="cls-1" cx="310.57" cy="161.67" r="1.5"/><circle class="cls-1" cx="295.39" cy="164.4" r="1.5"/><circle class="cls-1" cx="308.98" cy="146.1" r="1.5"/><circle class="cls-1" cx="308.98" cy="138.31" r="1.5"/><circle class="cls-1" cx="305.45" cy="87.8" r="1.5"/><circle class="cls-1" cx="304.92" cy="77.01" r="1.5"/><circle class="cls-1" cx="305.45" cy="60.44" r="1.5"/><circle class="cls-1" cx="304.39" cy="69.44" r="1.5"/><circle class="cls-1" cx="305.45" cy="127.74" r="1.5"/><circle class="cls-1" cx="305.98" cy="102.38" r="1.5"/><circle class="cls-1" cx="304.92" cy="95.59" r="1.5"/><circle class="cls-1" cx="305.45" cy="34.29" r="1.5"/><circle class="cls-1" cx="305.45" cy="220.18" r="1.5"/><circle class="cls-1" cx="305.45" cy="213.39" r="1.5"/><circle class="cls-1" cx="305.45" cy="205.61" r="1.5"/><circle class="cls-1" cx="307.04" cy="197.82" r="1.5"/><circle class="cls-1" cx="305.45" cy="190.03" r="1.5"/><circle class="cls-1" cx="305.45" cy="267.9" r="1.5"/><circle class="cls-1" cx="305.45" cy="260.12" r="1.5"/><circle class="cls-1" cx="305.45" cy="182.25" r="1.5"/><circle class="cls-1" cx="305.45" cy="174.46" r="1.5"/><circle class="cls-1" cx="305.45" cy="163.67" r="1.5"/><circle class="cls-1" cx="300.31" cy="70.73" r="1.5"/><circle class="cls-1" cx="301.64" cy="60.44" r="1.5"/><circle class="cls-1" cx="301.64" cy="52.65" r="1.5"/><circle class="cls-1" cx="301.64" cy="44.87" r="1.5"/><circle class="cls-1" cx="301.64" cy="122.74" r="1.5"/><circle class="cls-1" cx="301.64" cy="114.95" r="1.5"/><circle class="cls-1" cx="301.64" cy="107.16" r="1.5"/><circle class="cls-1" cx="301.64" cy="99.37" r="1.5"/><circle class="cls-1" cx="301.64" cy="37.08" r="1.5"/><circle class="cls-1" cx="302.7" cy="223.97" r="1.5"/><circle class="cls-1" cx="301.64" cy="212.18" r="1.5"/><circle class="cls-1" cx="301.64" cy="201.39" r="1.5"/><circle class="cls-1" cx="301.64" cy="192.82" r="1.5"/><circle class="cls-1" cx="301.64" cy="262.9" r="1.5"/><circle class="cls-1" cx="301.64" cy="177.25" r="1.5"/><circle class="cls-1" cx="301.64" cy="169.46" r="1.5"/><circle class="cls-1" cx="298.11" cy="65.44" r="1.5"/><circle class="cls-1" cx="298.11" cy="57.65" r="1.5"/><circle class="cls-1" cx="298.11" cy="49.87" r="1.5"/><circle class="cls-1" cx="298.11" cy="119.95" r="1.5"/><circle class="cls-1" cx="298.11" cy="112.16" r="1.5"/><circle class="cls-1" cx="298.11" cy="104.38" r="1.5"/><circle class="cls-1" cx="298.11" cy="96.59" r="1.5"/><circle class="cls-1" cx="298.11" cy="42.08" r="1.5"/><circle class="cls-1" cx="299.17" cy="221.18" r="1.5"/><circle class="cls-1" cx="298.11" cy="205.61" r="1.5"/><circle class="cls-1" cx="298.11" cy="197.82" r="1.5"/><circle class="cls-1" cx="298.11" cy="190.03" r="1.5"/><circle class="cls-1" cx="298.11" cy="267.9" r="1.5"/><circle class="cls-1" cx="298.11" cy="260.12" r="1.5"/><circle class="cls-1" cx="299.43" cy="183.64" r="1.5"/><circle class="cls-1" cx="297.58" cy="174.46" r="1.5"/><circle class="cls-1" cx="295.16" cy="71.98" r="1.5"/><circle class="cls-1" cx="294.43" cy="60.44" r="1.5"/><circle class="cls-1" cx="294.43" cy="52.65" r="1.5"/><circle class="cls-1" cx="294.43" cy="44.87" r="1.5"/><circle class="cls-1" cx="294.43" cy="122.74" r="1.5"/><circle class="cls-1" cx="294.43" cy="114.95" r="1.5"/><circle class="cls-1" cx="294.43" cy="107.16" r="1.5"/><circle class="cls-1" cx="294.43" cy="99.37" r="1.5"/><circle class="cls-1" cx="294.43" cy="200.61" r="1.5"/><circle class="cls-1" cx="294.43" cy="192.82" r="1.5"/><circle class="cls-1" cx="294.43" cy="185.03" r="1.5"/><circle class="cls-1" cx="294.43" cy="262.9" r="1.5"/><circle class="cls-1" cx="294.43" cy="255.12" r="1.5"/><circle class="cls-1" cx="294.43" cy="177.25" r="1.5"/><circle class="cls-1" cx="293.84" cy="91.3" r="1.5"/><circle class="cls-1" cx="290.9" cy="81.01" r="1.5"/><circle class="cls-1" cx="290.9" cy="73.23" r="1.5"/><circle class="cls-1" cx="290.9" cy="65.44" r="1.5"/><circle class="cls-1" cx="290.9" cy="57.65" r="1.5"/><circle class="cls-1" cx="290.9" cy="119.95" r="1.5"/><circle class="cls-1" cx="290.9" cy="112.16" r="1.5"/><circle class="cls-1" cx="290.9" cy="104.38" r="1.5"/><circle class="cls-1" cx="290.9" cy="96.59" r="1.5"/><circle class="cls-1" cx="290.9" cy="223.97" r="1.5"/><circle class="cls-1" cx="290.9" cy="205.61" r="1.5"/><circle class="cls-1" cx="290.9" cy="197.82" r="1.5"/><circle class="cls-1" cx="285.66" cy="182.25" r="1.5"/><circle class="cls-1" cx="290.9" cy="267.9" r="1.5"/><circle class="cls-1" cx="290.37" cy="259.12" r="1.5"/><circle class="cls-1" cx="290.9" cy="251.33" r="1.5"/><circle class="cls-1" cx="291.43" cy="242.54" r="1.5"/><circle class="cls-1" cx="298.7" cy="234.4" r="1.5"/><circle class="cls-1" cx="301.5" cy="228.11" r="1.5"/><circle class="cls-1" cx="295.93" cy="227.47" r="1.5"/><circle class="cls-1" cx="290.9" cy="182.25" r="1.5"/><circle class="cls-1" cx="290.9" cy="171.46" r="1.5"/><circle class="cls-1" cx="287.08" cy="83.8" r="1.5"/><circle class="cls-1" cx="287.08" cy="76.01" r="1.5"/><circle class="cls-1" cx="287.08" cy="68.23" r="1.5"/><circle class="cls-1" cx="287.08" cy="60.44" r="1.5"/><circle class="cls-1" cx="287.08" cy="124.52" r="1.5"/><circle class="cls-1" cx="329.61" cy="137.2" r="1.5"/><circle class="cls-1" cx="287.08" cy="107.16" r="1.5"/><circle class="cls-1" cx="287.08" cy="99.37" r="1.5"/><circle class="cls-1" cx="288.41" cy="91.09" r="1.5"/><circle class="cls-1" cx="287.08" cy="223.97" r="1.5"/><circle class="cls-1" cx="287.08" cy="216.18" r="1.5"/><circle class="cls-1" cx="287.08" cy="208.39" r="1.5"/><circle class="cls-1" cx="287.08" cy="200.61" r="1.5"/><circle class="cls-1" cx="287.08" cy="262.9" r="1.5"/><circle class="cls-1" cx="287.08" cy="247.33" r="1.5"/><circle class="cls-1" cx="287.08" cy="239.54" r="1.5"/><circle class="cls-1" cx="293.89" cy="233.4" r="1.5"/><circle class="cls-1" cx="290.9" cy="236.76" r="1.5"/><circle class="cls-1" cx="287.08" cy="177.25" r="1.5"/><circle class="cls-1" cx="287.08" cy="169.46" r="1.5"/><circle class="cls-1" cx="283.55" cy="88.8" r="1.5"/><circle class="cls-1" cx="283.55" cy="81.01" r="1.5"/><circle class="cls-1" cx="283.55" cy="65.44" r="1.5"/><circle class="cls-1" cx="316.36" cy="156.61" r="1.5"/><circle class="cls-1" cx="283.55" cy="127.74" r="1.5"/><circle class="cls-1" cx="326.08" cy="142.2" r="1.5"/><circle class="cls-1" cx="326.08" cy="134.42" r="1.5"/><circle class="cls-1" cx="283.55" cy="104.38" r="1.5"/><circle class="cls-1" cx="290.36" cy="230.61" r="1.5"/><circle class="cls-1" cx="283.55" cy="221.18" r="1.5"/><circle class="cls-1" cx="283.55" cy="213.39" r="1.5"/><circle class="cls-1" cx="283.55" cy="205.61" r="1.5"/><circle class="cls-1" cx="283.55" cy="267.9" r="1.5"/><circle class="cls-1" cx="283.55" cy="260.12" r="1.5"/><circle class="cls-1" cx="285.67" cy="254.33" r="1.5"/><circle class="cls-1" cx="305.57" cy="243.44" r="1.5"/><circle class="cls-1" cx="301.51" cy="247.44" r="1.5"/><circle class="cls-1" cx="302.04" cy="239.65" r="1.5"/><circle class="cls-1" cx="305.45" cy="235.4" r="1.5"/><circle class="cls-1" cx="294.7" cy="247.44" r="1.5"/><circle class="cls-1" cx="296.82" cy="241.65" r="1.5"/><circle class="cls-1" cx="283.55" cy="244.54" r="1.5"/><circle class="cls-1" cx="283.55" cy="236.76" r="1.5"/><circle class="cls-1" cx="283.55" cy="174.46" r="1.5"/><circle class="cls-1" cx="283.55" cy="166.67" r="1.5"/><circle class="cls-1" cx="283.55" cy="158.88" r="1.5"/><circle class="cls-1" cx="279.62" cy="83.8" r="1.5"/><circle class="cls-1" cx="279.62" cy="76.01" r="1.5"/><circle class="cls-1" cx="279.62" cy="68.23" r="1.5"/><circle class="cls-1" cx="279.62" cy="130.52" r="1.5"/><circle class="cls-1" cx="279.62" cy="122.74" r="1.5"/><circle class="cls-1" cx="322.15" cy="137.2" r="1.5"/><circle class="cls-1" cx="279.62" cy="99.37" r="1.5"/><circle class="cls-1" cx="279.62" cy="91.59" r="1.5"/><circle class="cls-1" cx="279.62" cy="216.18" r="1.5"/><circle class="cls-1" cx="279.62" cy="208.39" r="1.5"/><circle class="cls-1" cx="279.62" cy="200.61" r="1.5"/><circle class="cls-1" cx="279.62" cy="262.9" r="1.5"/><circle class="cls-1" cx="280.15" cy="251.12" r="1.5"/><circle class="cls-1" cx="279.62" cy="177.25" r="1.5"/><circle class="cls-1" cx="279.62" cy="169.46" r="1.5"/><circle class="cls-1" cx="279.62" cy="161.67" r="1.5"/><circle class="cls-1" cx="279.62" cy="153.88" r="1.5"/><circle class="cls-1" cx="288.98" cy="161.67" r="1.5"/><circle class="cls-1" cx="279.62" cy="138.31" r="1.5"/><circle class="cls-1" cx="276.09" cy="88.8" r="1.5"/><circle class="cls-1" cx="276.09" cy="81.01" r="1.5"/><circle class="cls-1" cx="276.09" cy="73.23" r="1.5"/><circle class="cls-1" cx="276.09" cy="135.52" r="1.5"/><circle class="cls-1" cx="276.09" cy="96.59" r="1.5"/><circle class="cls-1" cx="276.09" cy="205.61" r="1.5"/><circle class="cls-1" cx="276.09" cy="197.82" r="1.5"/><circle class="cls-1" cx="276.09" cy="190.03" r="1.5"/><circle class="cls-1" cx="276.09" cy="267.9" r="1.5"/><circle class="cls-1" cx="275.56" cy="258.12" r="1.5"/><circle class="cls-1" cx="278.3" cy="183.64" r="1.5"/><circle class="cls-1" cx="276.09" cy="174.46" r="1.5"/><circle class="cls-1" cx="276.09" cy="166.67" r="1.5"/><circle class="cls-1" cx="276.09" cy="158.88" r="1.5"/><circle class="cls-1" cx="276.09" cy="151.1" r="1.5"/><circle class="cls-1" cx="276.09" cy="143.31" r="1.5"/><circle class="cls-1" cx="272.28" cy="83.8" r="1.5"/><circle class="cls-1" cx="272.28" cy="76.01" r="1.5"/><circle class="cls-1" cx="272.28" cy="91.59" r="1.5"/><circle class="cls-1" cx="272.28" cy="208.39" r="1.5"/><circle class="cls-1" cx="272.28" cy="200.61" r="1.5"/><circle class="cls-1" cx="272.28" cy="192.82" r="1.5"/><circle class="cls-1" cx="272.28" cy="185.03" r="1.5"/><circle class="cls-1" cx="272.28" cy="262.9" r="1.5"/><circle class="cls-1" cx="272.28" cy="177.25" r="1.5"/><circle class="cls-1" cx="272.28" cy="169.46" r="1.5"/><circle class="cls-1" cx="272.28" cy="161.67" r="1.5"/><circle class="cls-1" cx="272.28" cy="153.88" r="1.5"/><circle class="cls-1" cx="272.28" cy="146.1" r="1.5"/><circle class="cls-1" cx="272.28" cy="138.31" r="1.5"/><circle class="cls-1" cx="268.75" cy="88.8" r="1.5"/><circle class="cls-1" cx="268.75" cy="81.01" r="1.5"/><circle class="cls-1" cx="268.75" cy="135.52" r="1.5"/><circle class="cls-1" cx="268.75" cy="205.61" r="1.5"/><circle class="cls-1" cx="268.75" cy="197.82" r="1.5"/><circle class="cls-1" cx="268.75" cy="190.03" r="1.5"/><circle class="cls-1" cx="268.75" cy="267.9" r="1.5"/><circle class="cls-1" cx="268.75" cy="260.12" r="1.5"/><circle class="cls-1" cx="268.75" cy="182.25" r="1.5"/><circle class="cls-1" cx="267.42" cy="174.46" r="1.5"/><circle class="cls-1" cx="268.75" cy="166.67" r="1.5"/><circle class="cls-1" cx="268.75" cy="158.88" r="1.5"/><circle class="cls-1" cx="268.75" cy="151.1" r="1.5"/><circle class="cls-1" cx="268.75" cy="143.31" r="1.5"/><circle class="cls-1" cx="265.07" cy="91.59" r="1.5"/><circle class="cls-1" cx="265.07" cy="210.39" r="1.5"/><circle class="cls-1" cx="265.07" cy="200.61" r="1.5"/><circle class="cls-1" cx="265.07" cy="192.82" r="1.5"/><circle class="cls-1" cx="265.07" cy="185.03" r="1.5"/><circle class="cls-1" cx="265.07" cy="262.9" r="1.5"/><circle class="cls-1" cx="265.07" cy="255.12" r="1.5"/><circle class="cls-1" cx="265.07" cy="146.1" r="1.5"/><circle class="cls-1" cx="265.07" cy="138.31" r="1.5"/><circle class="cls-1" cx="261.54" cy="135.52" r="1.5"/><circle class="cls-1" cx="260.48" cy="127.04" r="1.5"/><circle class="cls-1" cx="320.17" cy="127.52" r="1.5"/><circle class="cls-1" cx="261.54" cy="96.59" r="1.5"/><circle class="cls-1" cx="261.54" cy="216.18" r="1.5"/><circle class="cls-1" cx="261.27" cy="201.32" r="1.5"/><circle class="cls-1" cx="261.54" cy="190.03" r="1.5"/><circle class="cls-1" cx="261.54" cy="267.9" r="1.5"/><circle class="cls-1" cx="261.54" cy="260.12" r="1.5"/><circle class="cls-1" cx="261.54" cy="252.33" r="1.5"/><circle class="cls-1" cx="261.54" cy="182.25" r="1.5"/><circle class="cls-1" cx="261.54" cy="143.31" r="1.5"/><circle class="cls-1" cx="255.6" cy="127.52" r="1.5"/><circle class="cls-1" cx="257.72" cy="116.84" r="1.5"/><circle class="cls-1" cx="267.42" cy="96.87" r="1.5"/><circle class="cls-1" cx="325.2" cy="125.54" r="1.5"/><circle class="cls-1" cx="257.72" cy="99.37" r="1.5"/><circle class="cls-1" cx="263.2" cy="167.67" r="1.5"/><circle class="cls-1" cx="257.72" cy="216.18" r="1.5"/><circle class="cls-1" cx="257.72" cy="208.39" r="1.5"/><circle class="cls-1" cx="257.19" cy="200.61" r="1.5"/><circle class="cls-1" cx="257.72" cy="192.82" r="1.5"/><circle class="cls-1" cx="257.72" cy="185.03" r="1.5"/><circle class="cls-1" cx="257.72" cy="262.9" r="1.5"/><circle class="cls-1" cx="257.72" cy="255.12" r="1.5"/><circle class="cls-1" cx="257.72" cy="247.33" r="1.5"/><circle class="cls-1" cx="257.72" cy="138.31" r="1.5"/><circle class="cls-1" cx="254.19" cy="135.52" r="1.5"/><circle class="cls-1" cx="272.28" cy="212.29" r="1.5"/><circle class="cls-1" cx="330.91" cy="130.52" r="1.5"/><circle class="cls-1" cx="254.19" cy="104.38" r="1.5"/><circle class="cls-1" cx="254.19" cy="228.97" r="1.5"/><circle class="cls-1" cx="254.19" cy="221.18" r="1.5"/><circle class="cls-1" cx="254.19" cy="205.61" r="1.5"/><circle class="cls-1" cx="254.19" cy="190.03" r="1.5"/><circle class="cls-1" cx="254.19" cy="267.9" r="1.5"/><circle class="cls-1" cx="254.19" cy="260.12" r="1.5"/><circle class="cls-1" cx="254.19" cy="252.33" r="1.5"/><circle class="cls-1" cx="254.19" cy="244.54" r="1.5"/><circle class="cls-1" cx="254.19" cy="236.76" r="1.5"/><circle class="cls-1" cx="254.19" cy="182.25" r="1.5"/><circle class="cls-1" cx="254.19" cy="143.31" r="1.5"/><circle class="cls-1" cx="250.35" cy="130.52" r="1.5"/><circle class="cls-1" cx="250.35" cy="122.74" r="1.5"/><circle class="cls-1" cx="250.35" cy="114.95" r="1.5"/><circle class="cls-1" cx="250.35" cy="107.16" r="1.5"/><circle class="cls-1" cx="250.35" cy="223.97" r="1.5"/><circle class="cls-1" cx="250.35" cy="216.18" r="1.5"/><circle class="cls-1" cx="250.35" cy="208.39" r="1.5"/><circle class="cls-1" cx="250.35" cy="200.61" r="1.5"/><circle class="cls-1" cx="250.35" cy="192.82" r="1.5"/><circle class="cls-1" cx="250.35" cy="185.03" r="1.5"/><circle class="cls-1" cx="250.35" cy="262.9" r="1.5"/><circle class="cls-1" cx="250.35" cy="255.12" r="1.5"/><circle class="cls-1" cx="250.35" cy="247.33" r="1.5"/><circle class="cls-1" cx="250.35" cy="231.76" r="1.5"/><circle class="cls-1" cx="250.35" cy="146.1" r="1.5"/><circle class="cls-1" cx="246.82" cy="135.52" r="1.5"/><circle class="cls-1" cx="246.82" cy="127.74" r="1.5"/><circle class="cls-1" cx="245.76" cy="119.95" r="1.5"/><circle class="cls-1" cx="246.82" cy="112.16" r="1.5"/><circle class="cls-1" cx="246.82" cy="228.97" r="1.5"/><circle class="cls-1" cx="246.82" cy="221.18" r="1.5"/><circle class="cls-1" cx="246.82" cy="213.39" r="1.5"/><circle class="cls-1" cx="246.82" cy="205.61" r="1.5"/><circle class="cls-1" cx="246.82" cy="197.82" r="1.5"/><circle class="cls-1" cx="246.82" cy="190.03" r="1.5"/><circle class="cls-1" cx="246.82" cy="267.9" r="1.5"/><circle class="cls-1" cx="246.82" cy="260.12" r="1.5"/><circle class="cls-1" cx="246.82" cy="252.33" r="1.5"/><circle class="cls-1" cx="246.82" cy="244.54" r="1.5"/><circle class="cls-1" cx="246.82" cy="236.76" r="1.5"/><circle class="cls-1" cx="246.82" cy="182.25" r="1.5"/><circle class="cls-1" cx="249.02" cy="175.67" r="1.5"/><circle class="cls-1" cx="246.82" cy="166.67" r="1.5"/><circle class="cls-1" cx="246.82" cy="158.88" r="1.5"/><circle class="cls-1" cx="248.82" cy="151.1" r="1.5"/><circle class="cls-1" cx="247.35" cy="143.31" r="1.5"/><circle class="cls-1" cx="243" cy="130.52" r="1.5"/><circle class="cls-1" cx="243" cy="114.95" r="1.5"/><circle class="cls-1" cx="243" cy="208.39" r="1.5"/><circle class="cls-1" cx="243" cy="200.61" r="1.5"/><circle class="cls-1" cx="243" cy="192.82" r="1.5"/><circle class="cls-1" cx="243" cy="185.03" r="1.5"/><circle class="cls-1" cx="243" cy="262.9" r="1.5"/><circle class="cls-1" cx="243" cy="255.12" r="1.5"/><circle class="cls-1" cx="243" cy="247.33" r="1.5"/><circle class="cls-1" cx="243" cy="239.54" r="1.5"/><circle class="cls-1" cx="243" cy="177.25" r="1.5"/><circle class="cls-1" cx="243" cy="169.46" r="1.5"/><circle class="cls-1" cx="243" cy="161.67" r="1.5"/><circle class="cls-1" cx="244" cy="152.88" r="1.5"/><circle class="cls-1" cx="243" cy="146.1" r="1.5"/><circle class="cls-1" cx="243" cy="138.31" r="1.5"/><circle class="cls-1" cx="239.47" cy="135.52" r="1.5"/><circle class="cls-1" cx="239.47" cy="127.74" r="1.5"/><circle class="cls-1" cx="239.47" cy="119.95" r="1.5"/><circle class="cls-1" cx="239.47" cy="213.39" r="1.5"/><circle class="cls-1" cx="239.47" cy="205.61" r="1.5"/><circle class="cls-1" cx="239.47" cy="197.82" r="1.5"/><circle class="cls-1" cx="239.47" cy="190.03" r="1.5"/><circle class="cls-1" cx="239.47" cy="267.9" r="1.5"/><circle class="cls-1" cx="239.47" cy="260.12" r="1.5"/><circle class="cls-1" cx="239.47" cy="252.33" r="1.5"/><circle class="cls-1" cx="239.47" cy="244.54" r="1.5"/><circle class="cls-1" cx="239.94" cy="154.88" r="1.5"/><circle class="cls-1" cx="239.47" cy="143.31" r="1.5"/><circle class="cls-1" cx="235.79" cy="130.52" r="1.5"/><circle class="cls-1" cx="235.79" cy="122.74" r="1.5"/><circle class="cls-1" cx="235.79" cy="208.39" r="1.5"/><circle class="cls-1" cx="235.79" cy="200.61" r="1.5"/><circle class="cls-1" cx="235.79" cy="192.82" r="1.5"/><circle class="cls-1" cx="235.79" cy="262.9" r="1.5"/><circle class="cls-1" cx="235.79" cy="255.12" r="1.5"/><circle class="cls-1" cx="235.79" cy="247.33" r="1.5"/><circle class="cls-1" cx="237.12" cy="237.33" r="1.5"/><circle class="cls-1" cx="168.31" cy="197.53" r="1.5"/><circle class="cls-1" cx="236.26" cy="152.88" r="1.5"/><circle class="cls-1" cx="235.79" cy="146.1" r="1.5"/><circle class="cls-1" cx="232.26" cy="135.52" r="1.5"/><circle class="cls-1" cx="232.26" cy="127.74" r="1.5"/><circle class="cls-1" cx="232.26" cy="228.97" r="1.5"/><circle class="cls-1" cx="232.26" cy="221.18" r="1.5"/><circle class="cls-1" cx="232.26" cy="213.39" r="1.5"/><circle class="cls-1" cx="232.26" cy="205.61" r="1.5"/><circle class="cls-1" cx="232.26" cy="197.82" r="1.5"/><circle class="cls-1" cx="216.49" cy="158.11" r="1.5"/><circle class="cls-1" cx="232.26" cy="267.9" r="1.5"/><circle class="cls-1" cx="232.26" cy="260.12" r="1.5"/><circle class="cls-1" cx="232.26" cy="252.33" r="1.5"/><circle class="cls-1" cx="232.26" cy="244.54" r="1.5"/><circle class="cls-1" cx="232.26" cy="236.76" r="1.5"/><circle class="cls-1" cx="232.73" cy="157.88" r="1.5"/><circle class="cls-1" cx="232.26" cy="151.1" r="1.5"/><circle class="cls-1" cx="232.26" cy="143.31" r="1.5"/><circle class="cls-1" cx="228.45" cy="130.52" r="1.5"/><circle class="cls-1" cx="228.45" cy="223.97" r="1.5"/><circle class="cls-1" cx="228.45" cy="216.18" r="1.5"/><circle class="cls-1" cx="228.45" cy="208.39" r="1.5"/><circle class="cls-1" cx="228.45" cy="200.61" r="1.5"/><circle class="cls-1" cx="228.45" cy="192.82" r="1.5"/><circle class="cls-1" cx="228.45" cy="185.03" r="1.5"/><circle class="cls-1" cx="228.45" cy="262.9" r="1.5"/><circle class="cls-1" cx="228.45" cy="239.54" r="1.5"/><circle class="cls-1" cx="228.45" cy="231.76" r="1.5"/><circle class="cls-1" cx="227.92" cy="153.88" r="1.5"/><circle class="cls-1" cx="228.45" cy="146.1" r="1.5"/><circle class="cls-1" cx="228.45" cy="138.31" r="1.5"/><circle class="cls-1" cx="224.92" cy="135.52" r="1.5"/><circle class="cls-1" cx="224.92" cy="228.97" r="1.5"/><circle class="cls-1" cx="224.92" cy="221.18" r="1.5"/><circle class="cls-1" cx="224.92" cy="213.39" r="1.5"/><circle class="cls-1" cx="224.92" cy="205.61" r="1.5"/><circle class="cls-1" cx="224.92" cy="197.82" r="1.5"/><circle class="cls-1" cx="224.92" cy="267.9" r="1.5"/><circle class="cls-1" cx="224.92" cy="236.76" r="1.5"/><circle class="cls-1" cx="224.92" cy="151.1" r="1.5"/><circle class="cls-1" cx="221.52" cy="223.97" r="1.5"/><circle class="cls-1" cx="221.52" cy="216.18" r="1.5"/><circle class="cls-1" cx="221.52" cy="208.39" r="1.5"/><circle class="cls-1" cx="221.52" cy="200.61" r="1.5"/><circle class="cls-1" cx="221.52" cy="192.82" r="1.5"/><circle class="cls-1" cx="221.52" cy="185.03" r="1.5"/><circle class="cls-1" cx="221.52" cy="262.9" r="1.5"/><circle class="cls-1" cx="221.52" cy="239.54" r="1.5"/><circle class="cls-1" cx="221.52" cy="231.76" r="1.5"/><circle class="cls-1" cx="221.52" cy="155.88" r="1.5"/><circle class="cls-1" cx="221.52" cy="146.1" r="1.5"/><circle class="cls-1" cx="221.52" cy="138.31" r="1.5"/><circle class="cls-1" cx="217.99" cy="228.97" r="1.5"/><circle class="cls-1" cx="217.99" cy="221.18" r="1.5"/><circle class="cls-1" cx="217.99" cy="213.39" r="1.5"/><circle class="cls-1" cx="217.99" cy="205.61" r="1.5"/><circle class="cls-1" cx="217.99" cy="197.82" r="1.5"/><circle class="cls-1" cx="160.85" cy="196.61" r="1.5"/><circle class="cls-1" cx="217.99" cy="267.9" r="1.5"/><circle class="cls-1" cx="217.99" cy="260.12" r="1.5"/><circle class="cls-1" cx="217.99" cy="252.33" r="1.5"/><circle class="cls-1" cx="217.99" cy="244.54" r="1.5"/><circle class="cls-1" cx="217.99" cy="236.76" r="1.5"/><circle class="cls-1" cx="161.38" cy="202.82" r="1.5"/><circle class="cls-1" cx="216.93" cy="152.1" r="1.5"/><circle class="cls-1" cx="217.99" cy="143.31" r="1.5"/><circle class="cls-1" cx="214.17" cy="223.97" r="1.5"/><circle class="cls-1" cx="214.17" cy="216.18" r="1.5"/><circle class="cls-1" cx="214.17" cy="208.39" r="1.5"/><circle class="cls-1" cx="214.17" cy="200.61" r="1.5"/><circle class="cls-1" cx="214.17" cy="192.82" r="1.5"/><circle class="cls-1" cx="158.68" cy="216.89" r="1.5"/><circle class="cls-1" cx="214.17" cy="262.9" r="1.5"/><circle class="cls-1" cx="214.17" cy="255.12" r="1.5"/><circle class="cls-1" cx="214.17" cy="247.33" r="1.5"/><circle class="cls-1" cx="214.17" cy="239.54" r="1.5"/><circle class="cls-1" cx="214.17" cy="231.76" r="1.5"/><circle class="cls-1" cx="214.17" cy="177.25" r="1.5"/><circle class="cls-1" cx="214.17" cy="169.46" r="1.5"/><circle class="cls-1" cx="168.19" cy="203.71" r="1.5"/><circle class="cls-1" cx="214.17" cy="146.1" r="1.5"/><circle class="cls-1" cx="210.64" cy="221.18" r="1.5"/><circle class="cls-1" cx="210.64" cy="213.39" r="1.5"/><circle class="cls-1" cx="210.64" cy="205.61" r="1.5"/><circle class="cls-1" cx="210.64" cy="197.82" r="1.5"/><circle class="cls-1" cx="209.05" cy="190.03" r="1.5"/><circle class="cls-1" cx="210.64" cy="267.9" r="1.5"/><circle class="cls-1" cx="210.64" cy="260.12" r="1.5"/><circle class="cls-1" cx="210.64" cy="252.33" r="1.5"/><circle class="cls-1" cx="209.05" cy="182.25" r="1.5"/><circle class="cls-1" cx="157.04" cy="208.97" r="1.5"/><circle class="cls-1" cx="210.64" cy="166.67" r="1.5"/><circle class="cls-1" cx="210.64" cy="158.88" r="1.5"/><circle class="cls-1" cx="210.64" cy="151.1" r="1.5"/><circle class="cls-1" cx="206.96" cy="223.97" r="1.5"/><circle class="cls-1" cx="206.96" cy="216.18" r="1.5"/><circle class="cls-1" cx="206.96" cy="208.39" r="1.5"/><circle class="cls-1" cx="206.96" cy="200.61" r="1.5"/><circle class="cls-1" cx="206.96" cy="262.9" r="1.5"/><circle class="cls-1" cx="206.96" cy="255.12" r="1.5"/><circle class="cls-1" cx="206.96" cy="171.25" r="1.5"/><circle class="cls-1" cx="206.96" cy="161.67" r="1.5"/><circle class="cls-1" cx="206.96" cy="153.88" r="1.5"/><circle class="cls-1" cx="203.43" cy="221.18" r="1.5"/><circle class="cls-1" cx="203.43" cy="213.39" r="1.5"/><circle class="cls-1" cx="203.43" cy="205.61" r="1.5"/><circle class="cls-1" cx="203.43" cy="197.32" r="1.5"/><circle class="cls-1" cx="199.62" cy="201.32" r="1.5"/><circle class="cls-1" cx="203.96" cy="190.03" r="1.5"/><circle class="cls-1" cx="203.43" cy="267.9" r="1.5"/><circle class="cls-1" cx="203.43" cy="260.12" r="1.5"/><circle class="cls-1" cx="204.49" cy="182.25" r="1.5"/><circle class="cls-1" cx="204.43" cy="175.46" r="1.5"/><circle class="cls-1" cx="203.43" cy="166.67" r="1.5"/><circle class="cls-1" cx="203.43" cy="158.88" r="1.5"/><circle class="cls-1" cx="199.62" cy="216.18" r="1.5"/><circle class="cls-1" cx="199.62" cy="208.39" r="1.5"/><circle class="cls-1" cx="199.62" cy="192.82" r="1.5"/><circle class="cls-1" cx="199.62" cy="185.03" r="1.5"/><circle class="cls-1" cx="199.62" cy="262.9" r="1.5"/><circle class="cls-1" cx="199.62" cy="255.12" r="1.5"/><circle class="cls-1" cx="199.62" cy="177.25" r="1.5"/><circle class="cls-1" cx="199.62" cy="169.46" r="1.5"/><circle class="cls-1" cx="199.62" cy="161.67" r="1.5"/><circle class="cls-1" cx="195.88" cy="218.18" r="1.5"/><circle class="cls-1" cx="194.59" cy="209.11" r="1.5"/><circle class="cls-1" cx="193.74" cy="192.82" r="1.5"/><circle class="cls-1" cx="196.09" cy="267.9" r="1.5"/><circle class="cls-1" cx="196.09" cy="260.12" r="1.5"/><circle class="cls-1" cx="196.09" cy="182.25" r="1.5"/><circle class="cls-1" cx="196.09" cy="174.46" r="1.5"/><circle class="cls-1" cx="196.09" cy="166.67" r="1.5"/><circle class="cls-1" cx="192.24" cy="216.18" r="1.5"/><circle class="cls-1" cx="192.24" cy="185.03" r="1.5"/><circle class="cls-1" cx="192.24" cy="262.9" r="1.5"/><circle class="cls-1" cx="192.24" cy="255.12" r="1.5"/><circle class="cls-1" cx="192.24" cy="177.25" r="1.5"/><circle class="cls-1" cx="192.24" cy="169.46" r="1.5"/><circle class="cls-1" cx="192.24" cy="161.67" r="1.5"/><circle class="cls-1" cx="188.71" cy="221.18" r="1.5"/><circle class="cls-1" cx="188.71" cy="213.39" r="1.5"/><circle class="cls-1" cx="188.71" cy="190.03" r="1.5"/><circle class="cls-1" cx="188.71" cy="267.9" r="1.5"/><circle class="cls-1" cx="188.71" cy="260.12" r="1.5"/><circle class="cls-1" cx="188.71" cy="182.25" r="1.5"/><circle class="cls-1" cx="188.71" cy="174.46" r="1.5"/><circle class="cls-1" cx="188.71" cy="166.67" r="1.5"/><circle class="cls-1" cx="184.9" cy="223.97" r="1.5"/><circle class="cls-1" cx="184.9" cy="216.18" r="1.5"/><circle class="cls-1" cx="184.9" cy="208.39" r="1.5"/><circle class="cls-1" cx="184.9" cy="192.82" r="1.5"/><circle class="cls-1" cx="184.9" cy="185.03" r="1.5"/><circle class="cls-1" cx="184.9" cy="262.9" r="1.5"/><circle class="cls-1" cx="184.9" cy="255.12" r="1.5"/><circle class="cls-1" cx="143.48" cy="243.04" r="1.5"/><circle class="cls-1" cx="139.59" cy="256.9" r="1.5"/><circle class="cls-1" cx="139.59" cy="250.12" r="1.5"/><circle class="cls-1" cx="184.9" cy="177.25" r="1.5"/><circle class="cls-1" cx="184.9" cy="169.46" r="1.5"/><circle class="cls-1" cx="136.06" cy="246.33" r="1.5"/><circle class="cls-1" cx="181.37" cy="221.18" r="1.5"/><circle class="cls-1" cx="181.37" cy="213.39" r="1.5"/><circle class="cls-1" cx="181.37" cy="205.61" r="1.5"/><circle class="cls-1" cx="181.37" cy="197.82" r="1.5"/><circle class="cls-1" cx="181.37" cy="190.03" r="1.5"/><circle class="cls-1" cx="181.37" cy="267.9" r="1.5"/><circle class="cls-1" cx="181.37" cy="260.12" r="1.5"/><circle class="cls-1" cx="181.37" cy="252.33" r="1.5"/><circle class="cls-1" cx="181.37" cy="244.54" r="1.5"/><circle class="cls-1" cx="178.98" cy="238.15" r="1.5"/><circle class="cls-1" cx="181.37" cy="182.25" r="1.5"/><circle class="cls-1" cx="181.37" cy="174.46" r="1.5"/><circle class="cls-1" cx="181.37" cy="166.67" r="1.5"/><circle class="cls-1" cx="177.69" cy="223.97" r="1.5"/><circle class="cls-1" cx="177.69" cy="216.18" r="1.5"/><circle class="cls-1" cx="177.69" cy="208.39" r="1.5"/><circle class="cls-1" cx="177.69" cy="200.61" r="1.5"/><circle class="cls-1" cx="177.69" cy="192.82" r="1.5"/><circle class="cls-1" cx="177.69" cy="185.03" r="1.5"/><circle class="cls-1" cx="177.69" cy="262.9" r="1.5"/><circle class="cls-1" cx="177.69" cy="255.12" r="1.5"/><circle class="cls-1" cx="177.69" cy="231.76" r="1.5"/><circle class="cls-1" cx="177.69" cy="177.25" r="1.5"/><circle class="cls-1" cx="177.69" cy="169.46" r="1.5"/><circle class="cls-1" cx="173.04" cy="170.67" r="1.5"/><circle class="cls-1" cx="174.16" cy="228.97" r="1.5"/><circle class="cls-1" cx="174.16" cy="221.18" r="1.5"/><circle class="cls-1" cx="174.16" cy="213.39" r="1.5"/><circle class="cls-1" cx="174.16" cy="205.61" r="1.5"/><circle class="cls-1" cx="174.16" cy="197.82" r="1.5"/><circle class="cls-1" cx="174.16" cy="267.9" r="1.5"/><circle class="cls-1" cx="174.16" cy="260.12" r="1.5"/><circle class="cls-1" cx="170.34" cy="262.9" r="1.5"/><circle class="cls-1" cx="170.34" cy="255.12" r="1.5"/><circle class="cls-1" cx="170.34" cy="231.76" r="1.5"/><circle class="cls-1" cx="166.81" cy="228.97" r="1.5"/><circle class="cls-1" cx="166.81" cy="267.9" r="1.5"/><circle class="cls-1" cx="166.81" cy="260.12" r="1.5"/><circle class="cls-1" cx="166.81" cy="252.33" r="1.5"/><circle class="cls-1" cx="132.11" cy="252.62" r="1.5"/><circle class="cls-1" cx="166.81" cy="236.76" r="1.5"/><circle class="cls-1" cx="162.88" cy="185.03" r="1.5"/><circle class="cls-1" cx="164.85" cy="192.82" r="1.5"/><circle class="cls-1" cx="162.88" cy="262.9" r="1.5"/><circle class="cls-1" cx="162.88" cy="255.12" r="1.5"/><circle class="cls-1" cx="162.88" cy="239.54" r="1.5"/><circle class="cls-1" cx="162.88" cy="231.76" r="1.5"/><circle class="cls-1" cx="162.88" cy="177.25" r="1.5"/><circle class="cls-1" cx="167.69" cy="173.17" r="1.5"/><circle class="cls-1" cx="159.35" cy="228.97" r="1.5"/><circle class="cls-1" cx="159.35" cy="190.03" r="1.5"/><circle class="cls-1" cx="171.84" cy="175.96" r="1.5"/><circle class="cls-1" cx="159.35" cy="267.9" r="1.5"/><circle class="cls-1" cx="159.35" cy="260.12" r="1.5"/><circle class="cls-1" cx="159.35" cy="252.33" r="1.5"/><circle class="cls-1" cx="159.35" cy="244.54" r="1.5"/><circle class="cls-1" cx="159.35" cy="236.76" r="1.5"/><circle class="cls-1" cx="159.35" cy="182.25" r="1.5"/><circle class="cls-1" cx="159.35" cy="174.46" r="1.5"/><circle class="cls-1" cx="155.54" cy="223.97" r="1.5"/><circle class="cls-1" cx="155.54" cy="200.61" r="1.5"/><circle class="cls-1" cx="155.54" cy="192.82" r="1.5"/><circle class="cls-1" cx="155.54" cy="185.03" r="1.5"/><circle class="cls-1" cx="155.54" cy="262.9" r="1.5"/><circle class="cls-1" cx="155.54" cy="255.12" r="1.5"/><circle class="cls-1" cx="155.54" cy="247.33" r="1.5"/><circle class="cls-1" cx="155.54" cy="239.54" r="1.5"/><circle class="cls-1" cx="155.54" cy="231.76" r="1.5"/><circle class="cls-1" cx="155.54" cy="177.25" r="1.5"/><circle class="cls-1" cx="152.01" cy="228.97" r="1.5"/><circle class="cls-1" cx="153.01" cy="221.18" r="1.5"/><circle class="cls-1" cx="152.01" cy="213.39" r="1.5"/><circle class="cls-1" cx="152.01" cy="205.61" r="1.5"/><circle class="cls-1" cx="152.01" cy="197.82" r="1.5"/><circle class="cls-1" cx="152.01" cy="190.03" r="1.5"/><circle class="cls-1" cx="152.01" cy="267.9" r="1.5"/><circle class="cls-1" cx="152.01" cy="260.12" r="1.5"/><circle class="cls-1" cx="152.01" cy="252.33" r="1.5"/><circle class="cls-1" cx="152.01" cy="244.54" r="1.5"/><circle class="cls-1" cx="152.01" cy="236.76" r="1.5"/><circle class="cls-1" cx="152.01" cy="182.25" r="1.5"/><circle class="cls-1" cx="148.33" cy="223.97" r="1.5"/><circle class="cls-1" cx="148.33" cy="216.18" r="1.5"/><circle class="cls-1" cx="148.33" cy="208.39" r="1.5"/><circle class="cls-1" cx="148.33" cy="200.61" r="1.5"/><circle class="cls-1" cx="148.33" cy="192.82" r="1.5"/><circle class="cls-1" cx="148.33" cy="185.03" r="1.5"/><circle class="cls-1" cx="148.33" cy="262.9" r="1.5"/><circle class="cls-1" cx="148.33" cy="255.12" r="1.5"/><circle class="cls-1" cx="148.33" cy="247.33" r="1.5"/><circle class="cls-1" cx="148.33" cy="239.54" r="1.5"/><circle class="cls-1" cx="148.33" cy="231.76" r="1.5"/><circle class="cls-1" cx="143.8" cy="228.97" r="1.5"/><circle class="cls-1" cx="144.8" cy="221.18" r="1.5"/><circle class="cls-1" cx="144.8" cy="213.39" r="1.5"/><circle class="cls-1" cx="144.8" cy="205.61" r="1.5"/><circle class="cls-1" cx="144.8" cy="197.82" r="1.5"/><circle class="cls-1" cx="144.8" cy="190.03" r="1.5"/><circle class="cls-1" cx="144.8" cy="267.9" r="1.5"/><circle class="cls-1" cx="144.8" cy="260.12" r="1.5"/><circle class="cls-1" cx="144.8" cy="182.25" r="1.5"/><circle class="cls-1" cx="140.98" cy="216.18" r="1.5"/><circle class="cls-1" cx="140.98" cy="208.39" r="1.5"/><circle class="cls-1" cx="140.98" cy="200.61" r="1.5"/><circle class="cls-1" cx="140.98" cy="192.82" r="1.5"/><circle class="cls-1" cx="140.98" cy="185.03" r="1.5"/><circle class="cls-1" cx="140.98" cy="262.9" r="1.5"/><circle class="cls-1" cx="139.04" cy="222.18" r="1.5"/><circle class="cls-1" cx="137.45" cy="213.39" r="1.5"/><circle class="cls-1" cx="137.45" cy="205.61" r="1.5"/><circle class="cls-1" cx="137.45" cy="197.82" r="1.5"/><circle class="cls-1" cx="137.45" cy="190.03" r="1.5"/><circle class="cls-1" cx="137.45" cy="267.9" r="1.5"/><circle class="cls-1" cx="133.61" cy="223.97" r="1.5"/><circle class="cls-1" cx="133.61" cy="216.18" r="1.5"/><circle class="cls-1" cx="133.61" cy="208.39" r="1.5"/><circle class="cls-1" cx="133.61" cy="200.61" r="1.5"/><circle class="cls-1" cx="133.61" cy="192.82" r="1.5"/><circle class="cls-1" cx="133.61" cy="185.03" r="1.5"/><circle class="cls-1" cx="133.61" cy="262.9" r="1.5"/><circle class="cls-1" cx="130.08" cy="221.18" r="1.5"/><circle class="cls-1" cx="140.56" cy="238.54" r="1.5"/><circle class="cls-1" cx="139.57" cy="231.86" r="1.5"/><circle class="cls-1" cx="136.14" cy="236.65" r="1.5"/><circle class="cls-1" cx="134.14" cy="229.86" r="1.5"/><circle class="cls-1" cx="130.61" cy="234.86" r="1.5"/><circle class="cls-1" cx="130.08" cy="213.39" r="1.5"/><circle class="cls-1" cx="130.08" cy="205.61" r="1.5"/><circle class="cls-1" cx="130.08" cy="197.82" r="1.5"/><circle class="cls-1" cx="130.08" cy="190.03" r="1.5"/><circle class="cls-1" cx="130.08" cy="267.9" r="1.5"/><circle class="cls-1" cx="130.08" cy="260.12" r="1.5"/><circle class="cls-1" cx="126.26" cy="223.97" r="1.5"/><circle class="cls-1" cx="126.26" cy="216.18" r="1.5"/><circle class="cls-1" cx="126.26" cy="208.39" r="1.5"/><circle class="cls-1" cx="126.26" cy="200.61" r="1.5"/><circle class="cls-1" cx="126.26" cy="192.82" r="1.5"/><circle class="cls-1" cx="126.26" cy="262.9" r="1.5"/><circle class="cls-1" cx="126.26" cy="255.12" r="1.5"/><circle class="cls-1" cx="127.32" cy="247.33" r="1.5"/><circle class="cls-1" cx="126.26" cy="239.54" r="1.5"/><circle class="cls-1" cx="127.32" cy="231.76" r="1.5"/><circle class="cls-1" cx="122.73" cy="228.97" r="1.5"/><circle class="cls-1" cx="122.73" cy="197.82" r="1.5"/><circle class="cls-1" cx="120.89" cy="205.61" r="1.5"/><circle class="cls-1" cx="122.73" cy="190.03" r="1.5"/><circle class="cls-1" cx="122.73" cy="267.9" r="1.5"/><circle class="cls-1" cx="122.73" cy="260.12" r="1.5"/><circle class="cls-1" cx="122.73" cy="252.33" r="1.5"/><circle class="cls-1" cx="122.73" cy="244.54" r="1.5"/><circle class="cls-1" cx="122.73" cy="236.76" r="1.5"/><circle class="cls-1" cx="119.05" cy="200.61" r="1.5"/><circle class="cls-1" cx="119.05" cy="192.82" r="1.5"/><circle class="cls-1" cx="119.05" cy="262.9" r="1.5"/><circle class="cls-1" cx="119.05" cy="255.12" r="1.5"/><circle class="cls-1" cx="119.05" cy="247.33" r="1.5"/><circle class="cls-1" cx="119.05" cy="239.54" r="1.5"/><circle class="cls-1" cx="119.05" cy="231.76" r="1.5"/><circle class="cls-1" cx="105.79" cy="225.07" r="1.5"/><circle class="cls-1" cx="115.53" cy="205.61" r="1.5"/><circle class="cls-1" cx="115.53" cy="197.82" r="1.5"/><circle class="cls-1" cx="115.53" cy="267.9" r="1.5"/><circle class="cls-1" cx="115.53" cy="260.12" r="1.5"/><circle class="cls-1" cx="115.53" cy="252.33" r="1.5"/><circle class="cls-1" cx="115.53" cy="244.54" r="1.5"/><circle class="cls-1" cx="115.53" cy="236.76" r="1.5"/><circle class="cls-1" cx="111.71" cy="223.97" r="1.5"/><circle class="cls-1" cx="111.71" cy="216.18" r="1.5"/><circle class="cls-1" cx="111.71" cy="208.39" r="1.5"/><circle class="cls-1" cx="111.71" cy="200.61" r="1.5"/><circle class="cls-1" cx="119.78" cy="222.18" r="1.5"/><circle class="cls-1" cx="121.81" cy="212.29" r="1.5"/><circle class="cls-1" cx="118.28" cy="217.29" r="1.5"/><circle class="cls-1" cx="114.46" cy="220.07" r="1.5"/><circle class="cls-1" cx="114.46" cy="212.29" r="1.5"/><circle class="cls-1" cx="111.71" cy="262.9" r="1.5"/><circle class="cls-1" cx="111.71" cy="255.12" r="1.5"/><circle class="cls-1" cx="113.71" cy="229.76" r="1.5"/><circle class="cls-1" cx="109.18" cy="228.97" r="1.5"/><circle class="cls-1" cx="108.18" cy="221.18" r="1.5"/><circle class="cls-1" cx="108.18" cy="213.39" r="1.5"/><circle class="cls-1" cx="108.18" cy="205.61" r="1.5"/><circle class="cls-1" cx="108.18" cy="197.82" r="1.5"/><circle class="cls-1" cx="108.18" cy="267.9" r="1.5"/><circle class="cls-1" cx="108.18" cy="260.12" r="1.5"/><circle class="cls-1" cx="104.29" cy="216.18" r="1.5"/><circle class="cls-1" cx="104.29" cy="208.39" r="1.5"/><circle class="cls-1" cx="104.29" cy="200.61" r="1.5"/><circle class="cls-1" cx="104.29" cy="262.9" r="1.5"/><circle class="cls-1" cx="104.29" cy="255.12" r="1.5"/><circle class="cls-1" cx="104.29" cy="231.76" r="1.5"/><circle class="cls-1" cx="100.76" cy="228.97" r="1.5"/><circle class="cls-1" cx="100.76" cy="221.18" r="1.5"/><circle class="cls-1" cx="100.76" cy="213.39" r="1.5"/><circle class="cls-1" cx="100.76" cy="205.61" r="1.5"/><circle class="cls-1" cx="100.76" cy="267.9" r="1.5"/><circle class="cls-1" cx="100.76" cy="260.12" r="1.5"/><circle class="cls-1" cx="100.76" cy="252.33" r="1.5"/><circle class="cls-1" cx="132.11" cy="240.54" r="1.5"/><circle class="cls-1" cx="100.76" cy="236.76" r="1.5"/><circle class="cls-1" cx="97.08" cy="223.97" r="1.5"/><circle class="cls-1" cx="97.08" cy="216.18" r="1.5"/><circle class="cls-1" cx="97.08" cy="208.39" r="1.5"/><circle class="cls-1" cx="97.08" cy="200.61" r="1.5"/><circle class="cls-1" cx="97.08" cy="262.9" r="1.5"/><circle class="cls-1" cx="97.08" cy="255.12" r="1.5"/><circle class="cls-1" cx="97.08" cy="247.33" r="1.5"/><circle class="cls-1" cx="97.08" cy="239.54" r="1.5"/><circle class="cls-1" cx="97.08" cy="231.76" r="1.5"/><circle class="cls-1" cx="94.08" cy="228.97" r="1.5"/><circle class="cls-1" cx="92.49" cy="215.39" r="1.5"/><circle class="cls-1" cx="93.55" cy="205.61" r="1.5"/><circle class="cls-1" cx="93.55" cy="267.9" r="1.5"/><circle class="cls-1" cx="93.55" cy="260.12" r="1.5"/><circle class="cls-1" cx="93.55" cy="252.33" r="1.5"/><circle class="cls-1" cx="93.55" cy="244.54" r="1.5"/><circle class="cls-1" cx="93.55" cy="236.76" r="1.5"/><circle class="cls-1" cx="89.73" cy="208.39" r="1.5"/><circle class="cls-1" cx="89.73" cy="262.9" r="1.5"/><circle class="cls-1" cx="89.73" cy="255.12" r="1.5"/><circle class="cls-1" cx="89.73" cy="247.33" r="1.5"/><circle class="cls-1" cx="89.73" cy="239.54" r="1.5"/><circle class="cls-1" cx="86.2" cy="213.39" r="1.5"/><circle class="cls-1" cx="86.2" cy="205.61" r="1.5"/><circle class="cls-1" cx="86.2" cy="267.9" r="1.5"/><circle class="cls-1" cx="86.2" cy="260.12" r="1.5"/><circle class="cls-1" cx="86.2" cy="252.33" r="1.5"/><circle class="cls-1" cx="86.2" cy="244.54" r="1.5"/><circle class="cls-1" cx="86.2" cy="236.76" r="1.5"/><circle class="cls-1" cx="109.68" cy="235.26" r="1.5"/><circle class="cls-1" cx="82.27" cy="216.18" r="1.5"/><circle class="cls-1" cx="82.27" cy="208.39" r="1.5"/><circle class="cls-1" cx="82.27" cy="262.9" r="1.5"/><circle class="cls-1" cx="82.27" cy="255.12" r="1.5"/><circle class="cls-1" cx="82.27" cy="247.33" r="1.5"/><circle class="cls-1" cx="82.27" cy="239.54" r="1.5"/><circle class="cls-1" cx="82.27" cy="231.76" r="1.5"/><circle class="cls-1" cx="78.74" cy="228.97" r="1.5"/><circle class="cls-1" cx="78.74" cy="221.18" r="1.5"/><circle class="cls-1" cx="78.74" cy="213.39" r="1.5"/><circle class="cls-1" cx="78.74" cy="205.61" r="1.5"/><circle class="cls-1" cx="78.74" cy="267.9" r="1.5"/><circle class="cls-1" cx="78.74" cy="260.12" r="1.5"/><circle class="cls-1" cx="78.74" cy="252.33" r="1.5"/><circle class="cls-1" cx="78.74" cy="244.54" r="1.5"/><circle class="cls-1" cx="78.74" cy="236.76" r="1.5"/><circle class="cls-1" cx="74.93" cy="223.97" r="1.5"/><circle class="cls-1" cx="74.93" cy="216.18" r="1.5"/><circle class="cls-1" cx="74.93" cy="208.39" r="1.5"/><circle class="cls-1" cx="74.93" cy="262.9" r="1.5"/><circle class="cls-1" cx="74.93" cy="239.54" r="1.5"/><circle class="cls-1" cx="74.93" cy="231.76" r="1.5"/><circle class="cls-1" cx="71.4" cy="228.97" r="1.5"/><circle class="cls-1" cx="71.4" cy="221.18" r="1.5"/><circle class="cls-1" cx="71.4" cy="213.39" r="1.5"/><circle class="cls-1" cx="71.4" cy="267.9" r="1.5"/><circle class="cls-1" cx="71.4" cy="236.76" r="1.5"/><circle class="cls-1" cx="67.72" cy="223.97" r="1.5"/><circle class="cls-1" cx="67.72" cy="216.18" r="1.5"/><circle class="cls-1" cx="67.72" cy="262.9" r="1.5"/><circle class="cls-1" cx="67.72" cy="240.54" r="1.5"/><circle class="cls-1" cx="67.72" cy="231.76" r="1.5"/><circle class="cls-1" cx="64.19" cy="228.97" r="1.5"/><circle class="cls-1" cx="64.19" cy="221.18" r="1.5"/><circle class="cls-1" cx="64.19" cy="267.9" r="1.5"/><circle class="cls-1" cx="64.19" cy="260.12" r="1.5"/><circle class="cls-1" cx="65.25" cy="252.33" r="1.5"/><circle class="cls-1" cx="64.19" cy="244.54" r="1.5"/><circle class="cls-1" cx="64.19" cy="236.76" r="1.5"/><circle class="cls-1" cx="60.37" cy="223.97" r="1.5"/><circle class="cls-1" cx="60.37" cy="262.9" r="1.5"/><circle class="cls-1" cx="60.37" cy="255.12" r="1.5"/><circle class="cls-1" cx="60.37" cy="247.33" r="1.5"/><circle class="cls-1" cx="60.37" cy="239.54" r="1.5"/><circle class="cls-1" cx="60.37" cy="231.76" r="1.5"/><circle class="cls-1" cx="56.84" cy="228.97" r="1.5"/><circle class="cls-1" cx="56.84" cy="267.9" r="1.5"/><circle class="cls-1" cx="56.84" cy="260.12" r="1.5"/><circle class="cls-1" cx="56.84" cy="252.33" r="1.5"/><circle class="cls-1" cx="56.84" cy="244.54" r="1.5"/><circle class="cls-1" cx="56.84" cy="236.76" r="1.5"/><circle class="cls-1" cx="50.88" cy="253.12" r="1.5"/><circle class="cls-1" cx="53" cy="247.33" r="1.5"/><circle class="cls-1" cx="53" cy="239.54" r="1.5"/><circle class="cls-1" cx="53" cy="231.76" r="1.5"/><circle class="cls-1" cx="49.47" cy="267.9" r="1.5"/><circle class="cls-1" cx="52.12" cy="261.12" r="1.5"/><circle class="cls-1" cx="49.47" cy="244.54" r="1.5"/><circle class="cls-1" cx="49.47" cy="236.76" r="1.5"/><circle class="cls-1" cx="45.65" cy="260.69" r="1.5"/><circle class="cls-1" cx="45.65" cy="253.12" r="1.5"/><circle class="cls-1" cx="45.65" cy="246.33" r="1.5"/><circle class="cls-1" cx="45.65" cy="239.54" r="1.5"/><circle class="cls-1" cx="42.12" cy="265.9" r="1.5"/><circle class="cls-1" cx="38.41" cy="260.12" r="1.5"/><circle class="cls-1" cx="41.06" cy="252.33" r="1.5"/><circle class="cls-1" cx="42.12" cy="244.54" r="1.5"/><circle class="cls-1" cx="308.98" cy="116.45" r="5"/><circle class="cls-1" cx="240.35" cy="223.97" r="5"/><circle class="cls-1" cx="317.52" cy="164.17" r="5"/><circle class="cls-1" cx="299.43" cy="83.8" r="5"/><circle class="cls-1" cx="172.83" cy="244.54" r="5"/><circle class="cls-1" cx="107.82" cy="244.83" r="5"/><circle class="cls-1" cx="72.28" cy="249.83" r="5"/><circle class="cls-1" cx="88.41" cy="223.97" r="5"/><circle class="cls-1" cx="308.98" cy="50.15" r="5"/><circle class="cls-1" cx="190.04" cy="200.61" r="5"/><circle class="cls-1" cx="170.34" cy="185.03" r="5"/><circle class="cls-1" cx="224.92" cy="249.83" r="5"/><circle class="cls-1" cx="329.59" cy="179.75" r="5"/><circle class="cls-1" cx="322.38" cy="200.61" r="5"/><circle class="cls-1" cx="284.43" cy="190.32" r="5"/><circle class="cls-1" cx="293.98" cy="213.97" r="5"/><circle class="cls-1" cx="323.7" cy="76.01" r="5"/><circle class="cls-1" cx="330.91" cy="42.08" r="5"/><circle class="cls-1" cx="225.8" cy="174.75" r="15"/><circle class="cls-1" cx="269.63" cy="116.95" r="15"/><circle class="cls-1" cx="296.66" cy="143.6" r="15"/><circle class="cls-1" cx="326.35" cy="229.26" r="15"/><circle class="cls-1" cx="270.66" cy="233.47" r="15"/><circle class="cls-1" cx="197.38" cy="238.04" r="15"/><circle class="cls-1" cx="169.03" cy="221.89" r="1.5"/><circle class="cls-1" cx="169.03" cy="214.11" r="1.5"/><circle class="cls-1" cx="164.35" cy="224.68" r="1.5"/><circle class="cls-1" cx="164.35" cy="216.89" r="1.5"/><circle class="cls-1" cx="164.35" cy="209.11" r="1.5"/><circle class="cls-1" cx="257.65" cy="172.68" r="1.5"/><circle class="cls-1" cx="257.65" cy="165.9" r="1.5"/><circle class="cls-1" cx="255.65" cy="158.11" r="1.5"/><circle class="cls-1" cx="253.97" cy="176.47" r="1.5"/><circle class="cls-1" cx="253.97" cy="168.68" r="1.5"/><circle class="cls-1" cx="251.97" cy="160.9" r="1.5"/><circle class="cls-1" cx="260.48" cy="175.96" r="1.5"/><circle class="cls-1" cx="253.84" cy="151.87" r="1.5"/><circle class="cls-1" cx="263.67" cy="157.88" r="1.5"/><circle class="cls-1" cx="258.49" cy="147.6" r="1.5"/><circle class="cls-1" cx="259.99" cy="160.67" r="1.5"/><circle class="cls-1" cx="258.99" cy="152.88" r="1.5"/></g><g id="圖層_1" data-name="圖層 1"><g id="萬人" class="cls-2"><g class="cls-2"><path d="M7.26,5.14H4v-.6H7.26v-1h.66v1H9.79v.6H7.92v1H7.26Zm8.28,10.32c0,.4-.09.58-.39.69a7.66,7.66,0,0,1-1.91.11,2.1,2.1,0,0,0-.22-.57h1.61c.19,0,.25-.06.25-.23V12.12h-4.5v1.76l2.24-.1a9.74,9.74,0,0,0-.85-1l.52-.22A8.39,8.39,0,0,1,14,15l-.54.23a5,5,0,0,0-.46-.88c-2.39.13-4.87.26-6.54.33l0-.64c.87,0,2-.07,3.32-.12V12.12H5.35v4.16H4.7V12.12H4.12v-.59H4.7V11h.65v.58H9.74v-1H5.62V6.39h9v4.1H10.38v1h5.16ZM6.26,8.17H9.74V6.92H6.26ZM9.74,9.94V8.7H6.26V9.94Zm6.39-5.4v.6H12.81V6.19h-.66V5.14H10.34v-.6h1.81v-1h.66v1Zm-2.2,2.38H10.38V8.17h3.55Zm0,1.78H10.38V9.94h3.55Z"/><path d="M24.48,3.65c0,.45,0,1.13-.08,1.92.19,1.4,1,7.81,6.06,10a2.27,2.27,0,0,0-.49.54c-3.85-1.76-5.26-5.88-5.85-8.5-.55,3-2,6.63-5.79,8.55a2.42,2.42,0,0,0-.52-.49c5.9-2.89,5.93-10.06,6-12.07Z"/></g></g><line id="Line_48" data-name="Line 48" class="cls-3" x1="35.34" y1="269.69" x2="339.76" y2="269.69"/><g class="cls-2"><path class="cls-4" d="M5.38,26.3H6.47a2.38,2.38,0,0,0,1.61-.54,1.8,1.8,0,0,0,.59-1.41,1.77,1.77,0,0,0-2-2,2.09,2.09,0,0,0-1.49.53,1.85,1.85,0,0,0-.56,1.42H3.17a2.88,2.88,0,0,1,1-2.24,3.59,3.59,0,0,1,2.51-.9A3.55,3.55,0,0,1,9.2,22a3.08,3.08,0,0,1,.91,2.37,2.53,2.53,0,0,1-.48,1.44,3,3,0,0,1-1.31,1,2.71,2.71,0,0,1,1.45,1,2.75,2.75,0,0,1,.51,1.68,3.1,3.1,0,0,1-1,2.43,3.72,3.72,0,0,1-2.6.9A3.8,3.8,0,0,1,4.08,32a2.88,2.88,0,0,1-1-2.29H4.52a1.87,1.87,0,0,0,.59,1.44,2.22,2.22,0,0,0,1.57.54,2.16,2.16,0,0,0,1.6-.55,2.1,2.1,0,0,0,.56-1.57A1.92,1.92,0,0,0,8.23,28a2.63,2.63,0,0,0-1.76-.55H5.38Z"/><path class="cls-4" d="M19.17,24.29a2.71,2.71,0,0,1-.45,1.51,3.1,3.1,0,0,1-1.22,1A3.34,3.34,0,0,1,18.91,28a2.77,2.77,0,0,1,.52,1.66,2.94,2.94,0,0,1-1,2.35,3.78,3.78,0,0,1-2.62.88A3.8,3.8,0,0,1,13.18,32a3,3,0,0,1-1-2.35A2.85,2.85,0,0,1,12.7,28a3.17,3.17,0,0,1,1.39-1.13,2.94,2.94,0,0,1-1.19-1,2.67,2.67,0,0,1-.44-1.5A3,3,0,0,1,13.38,22a3.49,3.49,0,0,1,2.43-.84,3.49,3.49,0,0,1,2.43.84A3,3,0,0,1,19.17,24.29ZM18,29.59a2.09,2.09,0,0,0-2.19-2.16,2,2,0,0,0-2.16,2.16,2,2,0,0,0,.58,1.52,2.19,2.19,0,0,0,1.59.56,2.23,2.23,0,0,0,1.6-.56A2,2,0,0,0,18,29.59Zm-2.18-7.24a1.86,1.86,0,0,0-1.38.53,2.19,2.19,0,0,0,0,2.83,1.82,1.82,0,0,0,1.38.54,1.85,1.85,0,0,0,1.39-.54,1.91,1.91,0,0,0,.52-1.4,2,2,0,0,0-.54-1.42A1.85,1.85,0,0,0,15.81,22.35Z"/><path class="cls-4" d="M28.38,27.84a6.67,6.67,0,0,1-.86,3.77,3.08,3.08,0,0,1-2.71,1.24,3.09,3.09,0,0,1-2.7-1.21A6.28,6.28,0,0,1,21.2,28V26.11a6.44,6.44,0,0,1,.87-3.73,3.12,3.12,0,0,1,2.72-1.22,3.11,3.11,0,0,1,2.7,1.18A6.17,6.17,0,0,1,28.38,26Zm-1.44-2a5.21,5.21,0,0,0-.52-2.67,2,2,0,0,0-3.25,0,5.18,5.18,0,0,0-.52,2.57v2.32a5.46,5.46,0,0,0,.53,2.72,1.94,1.94,0,0,0,3.22.05,5.3,5.3,0,0,0,.54-2.61Z"/></g><g class="cls-2"><path class="cls-4" d="M5.38,106.3H6.47a2.38,2.38,0,0,0,1.61-.54,1.8,1.8,0,0,0,.59-1.41,1.77,1.77,0,0,0-2-2,2.09,2.09,0,0,0-1.49.53,1.85,1.85,0,0,0-.56,1.42H3.17a2.91,2.91,0,0,1,1-2.25,3.63,3.63,0,0,1,2.51-.89A3.55,3.55,0,0,1,9.2,102a3.08,3.08,0,0,1,.91,2.37,2.53,2.53,0,0,1-.48,1.44,2.86,2.86,0,0,1-1.31,1,2.78,2.78,0,0,1,1.45,1,2.75,2.75,0,0,1,.51,1.68,3.1,3.1,0,0,1-1,2.43,3.72,3.72,0,0,1-2.6.9,3.8,3.8,0,0,1-2.6-.87,2.88,2.88,0,0,1-1-2.29H4.52a1.87,1.87,0,0,0,.59,1.44,2.22,2.22,0,0,0,1.57.54,2.2,2.2,0,0,0,1.6-.55,2.1,2.1,0,0,0,.56-1.57A1.92,1.92,0,0,0,8.23,108a2.63,2.63,0,0,0-1.76-.55H5.38Z"/><path class="cls-4" d="M17.94,101.31v1.22h-.27a3.85,3.85,0,0,0-2.68,1,4.15,4.15,0,0,0-1.16,2.73,3.08,3.08,0,0,1,2.45-1,2.94,2.94,0,0,1,2.37,1,4.57,4.57,0,0,1-.07,5.51A3.27,3.27,0,0,1,16,112.85a3.23,3.23,0,0,1-2.65-1.26,4.94,4.94,0,0,1-1-3.23v-.55a7.48,7.48,0,0,1,1.34-4.8,4.9,4.9,0,0,1,4-1.7ZM16,106.43a2.29,2.29,0,0,0-1.37.45,2.35,2.35,0,0,0-.86,1.12v.53a3.74,3.74,0,0,0,.63,2.26,1.88,1.88,0,0,0,1.58.86,1.82,1.82,0,0,0,1.53-.72,3.43,3.43,0,0,0,0-3.77A1.78,1.78,0,0,0,16,106.43Z"/><path class="cls-4" d="M28.38,107.84a6.67,6.67,0,0,1-.86,3.77,3.08,3.08,0,0,1-2.71,1.24,3.12,3.12,0,0,1-2.7-1.21A6.29,6.29,0,0,1,21.2,108V106.1a6.42,6.42,0,0,1,.87-3.72,3.12,3.12,0,0,1,2.72-1.22,3.11,3.11,0,0,1,2.7,1.18,6.15,6.15,0,0,1,.89,3.62Zm-1.44-2a5.21,5.21,0,0,0-.52-2.67,2,2,0,0,0-3.25,0,5.18,5.18,0,0,0-.52,2.57v2.32a5.46,5.46,0,0,0,.53,2.72,1.8,1.8,0,0,0,1.63.88,1.76,1.76,0,0,0,1.59-.83,5.3,5.3,0,0,0,.54-2.61Z"/></g><g class="cls-2"><path class="cls-4" d="M5.38,187.1H6.47a2.38,2.38,0,0,0,1.61-.54,1.8,1.8,0,0,0,.59-1.41,1.77,1.77,0,0,0-2-2,2,2,0,0,0-1.49.53,1.85,1.85,0,0,0-.56,1.42H3.17a2.91,2.91,0,0,1,1-2.25A3.63,3.63,0,0,1,6.67,182a3.55,3.55,0,0,1,2.53.85,3.08,3.08,0,0,1,.91,2.37,2.48,2.48,0,0,1-.48,1.43,2.88,2.88,0,0,1-1.31,1,2.78,2.78,0,0,1,1.45,1,2.75,2.75,0,0,1,.51,1.68,3.1,3.1,0,0,1-1,2.43,3.72,3.72,0,0,1-2.6.9,3.8,3.8,0,0,1-2.6-.87,2.88,2.88,0,0,1-1-2.29H4.52a1.87,1.87,0,0,0,.59,1.44,2.22,2.22,0,0,0,1.57.54,2.2,2.2,0,0,0,1.6-.55,2.1,2.1,0,0,0,.56-1.57,1.92,1.92,0,0,0-.61-1.52,2.63,2.63,0,0,0-1.76-.55H5.38Z"/><path class="cls-4" d="M18.37,189.67H20v1.18H18.37v2.64H16.92v-2.64H11.74V190l5.09-7.89h1.54Zm-5,0h3.54v-5.58l-.18.31Z"/><path class="cls-4" d="M28.38,188.64a6.67,6.67,0,0,1-.86,3.77,3.11,3.11,0,0,1-2.71,1.24,3.12,3.12,0,0,1-2.7-1.21,6.32,6.32,0,0,1-.91-3.61V186.9a6.42,6.42,0,0,1,.87-3.72A3.1,3.1,0,0,1,24.79,182a3.13,3.13,0,0,1,2.7,1.17,6.21,6.21,0,0,1,.89,3.63Zm-1.44-2a5.21,5.21,0,0,0-.52-2.67,1.77,1.77,0,0,0-1.63-.84,1.75,1.75,0,0,0-1.62.83,5.18,5.18,0,0,0-.52,2.57v2.31a5.5,5.5,0,0,0,.53,2.73,1.8,1.8,0,0,0,1.63.88,1.76,1.76,0,0,0,1.59-.83,5.3,5.3,0,0,0,.54-2.61Z"/></g><g class="cls-2"><path class="cls-4" d="M5.38,269.3H6.47a2.38,2.38,0,0,0,1.61-.54,1.79,1.79,0,0,0,.59-1.41,1.77,1.77,0,0,0-2-2,2.05,2.05,0,0,0-1.49.54,1.82,1.82,0,0,0-.56,1.41H3.17a2.88,2.88,0,0,1,1-2.24,3.59,3.59,0,0,1,2.51-.9A3.6,3.6,0,0,1,9.2,265a3.08,3.08,0,0,1,.91,2.37,2.51,2.51,0,0,1-.48,1.44,3,3,0,0,1-1.31,1,2.62,2.62,0,0,1,2,2.66,3.1,3.1,0,0,1-1,2.43,3.72,3.72,0,0,1-2.6.9,3.8,3.8,0,0,1-2.6-.87,2.88,2.88,0,0,1-1-2.29H4.52a1.87,1.87,0,0,0,.59,1.44,2.22,2.22,0,0,0,1.57.54,2.16,2.16,0,0,0,1.6-.55,2.09,2.09,0,0,0,.56-1.57A1.92,1.92,0,0,0,8.23,271a2.68,2.68,0,0,0-1.76-.55H5.38Z"/><path class="cls-4" d="M19.72,275.69H12.27v-1l3.93-4.37a9.09,9.09,0,0,0,1.21-1.61,2.75,2.75,0,0,0,.33-1.29,2,2,0,0,0-.54-1.46,1.87,1.87,0,0,0-1.43-.57,2.24,2.24,0,0,0-1.68.61,2.34,2.34,0,0,0-.6,1.71H12.05a3.34,3.34,0,0,1,1-2.54,3.78,3.78,0,0,1,2.71-1,3.61,3.61,0,0,1,2.5.83,2.85,2.85,0,0,1,.93,2.22c0,1.12-.72,2.45-2.14,4l-3,3.3h5.71Z"/><path class="cls-4" d="M28.38,270.84a6.73,6.73,0,0,1-.86,3.78,3.1,3.1,0,0,1-2.71,1.23,3.09,3.09,0,0,1-2.7-1.21,6.26,6.26,0,0,1-.91-3.6v-1.93a6.46,6.46,0,0,1,.87-3.73,3.12,3.12,0,0,1,2.72-1.22,3.11,3.11,0,0,1,2.7,1.18,6.17,6.17,0,0,1,.89,3.63Zm-1.44-2a5.23,5.23,0,0,0-.52-2.68,2,2,0,0,0-3.25,0,5.12,5.12,0,0,0-.52,2.57v2.31a5.43,5.43,0,0,0,.53,2.72,1.94,1.94,0,0,0,3.22,0,5.3,5.3,0,0,0,.54-2.61Z"/></g><g class="cls-2"><path class="cls-4" d="M66.41,296.84H59v-1l3.94-4.38a9.45,9.45,0,0,0,1.2-1.61,2.58,2.58,0,0,0,.34-1.28,2.05,2.05,0,0,0-.54-1.47,1.89,1.89,0,0,0-1.44-.57,2.24,2.24,0,0,0-1.68.62,2.37,2.37,0,0,0-.59,1.7H58.74a3.35,3.35,0,0,1,1-2.53,3.75,3.75,0,0,1,2.71-1,3.59,3.59,0,0,1,2.51.83,2.84,2.84,0,0,1,.92,2.21c0,1.12-.71,2.46-2.14,4l-3,3.31h5.71Z"/><path class="cls-4" d="M75.08,292a6.58,6.58,0,0,1-.87,3.77A3.09,3.09,0,0,1,71.5,297a3.14,3.14,0,0,1-2.7-1.2,6.32,6.32,0,0,1-.9-3.61v-1.93a6.51,6.51,0,0,1,.86-3.72,3.1,3.1,0,0,1,2.72-1.22,3.15,3.15,0,0,1,2.71,1.17,6.37,6.37,0,0,1,.89,3.63Zm-1.45-2a5.37,5.37,0,0,0-.51-2.68,1.79,1.79,0,0,0-1.64-.84,1.73,1.73,0,0,0-1.61.84,5.14,5.14,0,0,0-.53,2.57v2.31a5.38,5.38,0,0,0,.54,2.73,1.95,1.95,0,0,0,3.21.05,5.24,5.24,0,0,0,.54-2.61Z"/><path class="cls-4" d="M81.68,296.84H80.23v-9.63l-2.92,1.07V287l4.14-1.55h.23Z"/><path class="cls-4" d="M93.37,296.84H85.91v-1l3.94-4.38a9.62,9.62,0,0,0,1.21-1.61,2.68,2.68,0,0,0,.33-1.28,2.05,2.05,0,0,0-.54-1.47,1.89,1.89,0,0,0-1.44-.57,2.22,2.22,0,0,0-1.67.62,2.34,2.34,0,0,0-.6,1.7H85.69a3.32,3.32,0,0,1,1-2.53,3.71,3.71,0,0,1,2.7-1,3.57,3.57,0,0,1,2.51.83,2.8,2.8,0,0,1,.92,2.21c0,1.12-.71,2.46-2.14,4l-3,3.31h5.71Z"/></g><g class="cls-2"><path class="cls-4" d="M313.13,296.84h-7.45v-1l3.94-4.38a9.45,9.45,0,0,0,1.2-1.61,2.68,2.68,0,0,0,.33-1.28,2.09,2.09,0,0,0-.53-1.47,1.89,1.89,0,0,0-1.44-.57,2.24,2.24,0,0,0-1.68.62,2.34,2.34,0,0,0-.6,1.7h-1.44a3.35,3.35,0,0,1,1-2.53,3.73,3.73,0,0,1,2.71-1,3.61,3.61,0,0,1,2.51.83,2.84,2.84,0,0,1,.92,2.21c0,1.12-.72,2.46-2.14,4l-3.05,3.31h5.71Z"/><path class="cls-4" d="M321.79,292a6.59,6.59,0,0,1-.86,3.77,3.62,3.62,0,0,1-5.41,0,6.32,6.32,0,0,1-.9-3.61v-1.93a6.43,6.43,0,0,1,.86-3.72,3.1,3.1,0,0,1,2.72-1.22,3.13,3.13,0,0,1,2.7,1.17,6.21,6.21,0,0,1,.89,3.63Zm-1.44-2a5.25,5.25,0,0,0-.52-2.68,2,2,0,0,0-3.25,0,5.26,5.26,0,0,0-.52,2.57v2.31a5.38,5.38,0,0,0,.54,2.73,1.95,1.95,0,0,0,3.21.05,5.35,5.35,0,0,0,.54-2.61Z"/><path class="cls-4" d="M331.1,296.84h-7.45v-1l3.93-4.38a9.09,9.09,0,0,0,1.21-1.61,2.68,2.68,0,0,0,.33-1.28,2.05,2.05,0,0,0-.54-1.47,1.87,1.87,0,0,0-1.43-.57,2.24,2.24,0,0,0-1.68.62,2.34,2.34,0,0,0-.6,1.7h-1.44a3.32,3.32,0,0,1,1-2.53,3.73,3.73,0,0,1,2.71-1,3.56,3.56,0,0,1,2.5.83,2.81,2.81,0,0,1,.93,2.21c0,1.12-.72,2.46-2.14,4l-3.05,3.31h5.71Z"/><path class="cls-4" d="M339.76,292a6.67,6.67,0,0,1-.86,3.77,3.62,3.62,0,0,1-5.41,0,6.32,6.32,0,0,1-.91-3.61v-1.93a6.42,6.42,0,0,1,.87-3.72,3.1,3.1,0,0,1,2.72-1.22,3.14,3.14,0,0,1,2.7,1.17,6.21,6.21,0,0,1,.89,3.63Zm-1.44-2a5.25,5.25,0,0,0-.52-2.68,2,2,0,0,0-3.25,0,5.15,5.15,0,0,0-.52,2.57v2.31a5.5,5.5,0,0,0,.53,2.73,1.79,1.79,0,0,0,1.63.87,1.75,1.75,0,0,0,1.59-.82,5.35,5.35,0,0,0,.54-2.61Z"/></g><g class="cls-2"><path class="cls-4" d="M195.54,296.84h-7.45v-1l3.93-4.38a9.09,9.09,0,0,0,1.21-1.61,2.68,2.68,0,0,0,.33-1.28,2.05,2.05,0,0,0-.54-1.47,1.88,1.88,0,0,0-1.43-.57,2.24,2.24,0,0,0-1.68.62,2.34,2.34,0,0,0-.6,1.7h-1.44a3.32,3.32,0,0,1,1-2.53,3.73,3.73,0,0,1,2.71-1,3.56,3.56,0,0,1,2.5.83,2.81,2.81,0,0,1,.93,2.21c0,1.12-.72,2.46-2.14,4l-3,3.31h5.71Z"/><path class="cls-4" d="M204.2,292a6.67,6.67,0,0,1-.86,3.77,3.62,3.62,0,0,1-5.41,0,6.32,6.32,0,0,1-.91-3.61v-1.93a6.42,6.42,0,0,1,.87-3.72,3.1,3.1,0,0,1,2.72-1.22,3.14,3.14,0,0,1,2.7,1.17,6.21,6.21,0,0,1,.89,3.63Zm-1.44-2a5.25,5.25,0,0,0-.52-2.68,2,2,0,0,0-3.25,0,5.15,5.15,0,0,0-.52,2.57v2.31a5.5,5.5,0,0,0,.53,2.73,1.78,1.78,0,0,0,1.62.87,1.73,1.73,0,0,0,1.59-.82,5.23,5.23,0,0,0,.55-2.61Z"/><path class="cls-4" d="M210.8,296.84h-1.45v-9.63l-2.91,1.07V287l4.14-1.55h.22Z"/><path class="cls-4" d="M220.71,285.46v1.22h-.26a3.81,3.81,0,0,0-2.69,1,4.2,4.2,0,0,0-1.16,2.73,3.08,3.08,0,0,1,2.45-1,3,3,0,0,1,2.38,1,4.62,4.62,0,0,1-.07,5.52,3.32,3.32,0,0,1-2.57,1.05,3.24,3.24,0,0,1-2.65-1.25,5,5,0,0,1-1-3.23V292a7.53,7.53,0,0,1,1.34-4.81,4.94,4.94,0,0,1,4-1.69Zm-1.9,5.12a2.26,2.26,0,0,0-1.36.45,2.24,2.24,0,0,0-.87,1.11v.53a3.75,3.75,0,0,0,.63,2.27,1.91,1.91,0,0,0,1.58.86,1.82,1.82,0,0,0,1.53-.72,2.94,2.94,0,0,0,.56-1.88,3,3,0,0,0-.56-1.9A1.83,1.83,0,0,0,218.81,290.58Z"/></g></g></svg>