<svg xmlns="http://www.w3.org/2000/svg" viewBox="0 0 624 305.41"><defs><style>.cls-1{fill:#7f9ce5;}.cls-2{isolation:isolate;}.cls-3{fill:none;stroke:#707070;stroke-width:2px;}.cls-4{fill:#333;}</style></defs><g id="圖層_5" data-name="圖層 5"><circle class="cls-1" cx="612.72" cy="92.9" r="2.5"/><circle class="cls-1" cx="610.72" cy="84.12" r="2.5"/><circle class="cls-1" cx="612.72" cy="76.33" r="2.5"/><circle class="cls-1" cx="608.72" cy="68.54" r="2.5"/><circle class="cls-1" cx="608.72" cy="60.76" r="2.5"/><circle class="cls-1" cx="613.72" cy="53.26" r="2.5"/><circle class="cls-1" cx="612.72" cy="131.84" r="2.5"/><circle class="cls-1" cx="608.72" cy="123.05" r="2.5"/><circle class="cls-1" cx="611.72" cy="115.27" r="2.5"/><circle class="cls-1" cx="610.72" cy="107.48" r="2.5"/><circle class="cls-1" cx="608.72" cy="99.69" r="2.5"/><circle class="cls-1" cx="608.72" cy="29.61" r="2.5"/><circle class="cls-1" cx="610.22" cy="23.54" r="2.5"/><circle class="cls-1" cx="612.22" cy="37.97" r="2.5"/><circle class="cls-1" cx="612.72" cy="214.71" r="2.5"/><circle class="cls-1" cx="612.72" cy="206.92" r="2.5"/><circle class="cls-1" cx="611.72" cy="199.14" r="2.5"/><circle class="cls-1" cx="608.72" cy="271.01" r="2.5"/><circle class="cls-1" cx="612.22" cy="263.51" r="2.5"/><circle class="cls-1" cx="609.72" cy="256.43" r="2.5"/><circle class="cls-1" cx="612.72" cy="248.65" r="2.5"/><circle class="cls-1" cx="608.72" cy="191.35" r="2.5"/><circle class="cls-1" cx="611.22" cy="181.28" r="2.5"/><circle class="cls-1" cx="606.22" cy="172.28" r="2.5"/><circle class="cls-1" cx="611.72" cy="162.99" r="2.5"/><circle class="cls-1" cx="608.72" cy="154.2" r="2.5"/><circle class="cls-1" cx="608.72" cy="146.41" r="2.5"/><circle class="cls-1" cx="600.52" cy="85.9" r="2.5"/><circle class="cls-1" cx="601.52" cy="77.12" r="2.5"/><circle class="cls-1" cx="602.29" cy="67.54" r="2.5"/><circle class="cls-1" cx="601.79" cy="58.26" r="2.5"/><circle class="cls-1" cx="601.52" cy="118.05" r="2.5"/><circle class="cls-1" cx="601.52" cy="110.27" r="2.5"/><circle class="cls-1" cx="601.52" cy="102.48" r="2.5"/><circle class="cls-1" cx="603.52" cy="92.69" r="2.5"/><circle class="cls-1" cx="601.52" cy="32.39" r="2.5"/><circle class="cls-1" cx="601.52" cy="24.61" r="2.5"/><circle class="cls-1" cx="604.52" cy="209" r="2.5"/><circle class="cls-1" cx="601.52" cy="199.71" r="2.5"/><circle class="cls-1" cx="594.52" cy="196.92" r="2.5"/><circle class="cls-1" cx="601.52" cy="266.01" r="2.5"/><circle class="cls-1" cx="601.52" cy="258.22" r="2.5"/><circle class="cls-1" cx="601.52" cy="164.78" r="2.5"/><circle class="cls-1" cx="601.52" cy="156.99" r="2.5"/><circle class="cls-1" cx="594.87" cy="91.9" r="2.5"/><circle class="cls-1" cx="594.87" cy="68.54" r="2.5"/><circle class="cls-1" cx="594.87" cy="60.76" r="2.5"/><circle class="cls-1" cx="594.87" cy="115.27" r="2.5"/><circle class="cls-1" cx="594.87" cy="107.48" r="2.5"/><circle class="cls-1" cx="594.87" cy="99.69" r="2.5"/><circle class="cls-1" cx="594.87" cy="29.61" r="2.5"/><circle class="cls-1" cx="594.87" cy="208.71" r="2.5"/><circle class="cls-1" cx="594.87" cy="271.01" r="2.5"/><circle class="cls-1" cx="594.87" cy="263.22" r="2.5"/><circle class="cls-1" cx="594.87" cy="255.43" r="2.5"/><circle class="cls-1" cx="594.87" cy="169.78" r="2.5"/><circle class="cls-1" cx="594.87" cy="161.99" r="2.5"/><circle class="cls-1" cx="594.87" cy="154.2" r="2.5"/><circle class="cls-1" cx="587.92" cy="63.54" r="2.5"/><circle class="cls-1" cx="587.92" cy="55.76" r="2.5"/><circle class="cls-1" cx="587.92" cy="47.97" r="2.5"/><circle class="cls-1" cx="587.92" cy="110.27" r="2.5"/><circle class="cls-1" cx="587.92" cy="102.48" r="2.5"/><circle class="cls-1" cx="587.92" cy="94.69" r="2.5"/><circle class="cls-1" cx="587.92" cy="40.18" r="2.5"/><circle class="cls-1" cx="587.92" cy="32.39" r="2.5"/><circle class="cls-1" cx="587.92" cy="258.22" r="2.5"/><circle class="cls-1" cx="587.92" cy="180.35" r="2.5"/><circle class="cls-1" cx="587.92" cy="172.56" r="2.5"/><circle class="cls-1" cx="587.92" cy="164.78" r="2.5"/><circle class="cls-1" cx="587.92" cy="156.99" r="2.5"/><circle class="cls-1" cx="581.27" cy="91.9" r="2.5"/><circle class="cls-1" cx="581.27" cy="68.54" r="2.5"/><circle class="cls-1" cx="581.27" cy="60.76" r="2.5"/><circle class="cls-1" cx="581.27" cy="52.97" r="2.5"/><circle class="cls-1" cx="581.27" cy="115.27" r="2.5"/><circle class="cls-1" cx="581.27" cy="107.48" r="2.5"/><circle class="cls-1" cx="581.27" cy="99.69" r="2.5"/><circle class="cls-1" cx="581.27" cy="45.18" r="2.5"/><circle class="cls-1" cx="581.27" cy="37.4" r="2.5"/><circle class="cls-1" cx="581.27" cy="29.61" r="2.5"/><circle class="cls-1" cx="581.27" cy="193.14" r="2.5"/><circle class="cls-1" cx="581.27" cy="271.01" r="2.5"/><circle class="cls-1" cx="581.27" cy="263.22" r="2.5"/><circle class="cls-1" cx="581.27" cy="255.43" r="2.5"/><circle class="cls-1" cx="581.27" cy="185.35" r="2.5"/><circle class="cls-1" cx="581.27" cy="177.56" r="2.5"/><circle class="cls-1" cx="581.27" cy="154.2" r="2.5"/><circle class="cls-1" cx="574.06" cy="86.9" r="2.5"/><circle class="cls-1" cx="574.06" cy="79.12" r="2.5"/><circle class="cls-1" cx="574.06" cy="71.33" r="2.5"/><circle class="cls-1" cx="574.06" cy="63.54" r="2.5"/><circle class="cls-1" cx="574.06" cy="55.76" r="2.5"/><circle class="cls-1" cx="574.06" cy="47.97" r="2.5"/><circle class="cls-1" cx="574.06" cy="133.63" r="2.5"/><circle class="cls-1" cx="574.06" cy="125.84" r="2.5"/><circle class="cls-1" cx="574.06" cy="118.05" r="2.5"/><circle class="cls-1" cx="574.06" cy="110.27" r="2.5"/><circle class="cls-1" cx="574.06" cy="102.48" r="2.5"/><circle class="cls-1" cx="574.06" cy="94.69" r="2.5"/><circle class="cls-1" cx="574.06" cy="40.18" r="2.5"/><circle class="cls-1" cx="574.06" cy="32.39" r="2.5"/><circle class="cls-1" cx="574.06" cy="213.5" r="2.5"/><circle class="cls-1" cx="574.06" cy="203.71" r="2.5"/><circle class="cls-1" cx="574.06" cy="188.14" r="2.5"/><circle class="cls-1" cx="574.06" cy="266.01" r="2.5"/><circle class="cls-1" cx="574.06" cy="250.43" r="2.5"/><circle class="cls-1" cx="574.06" cy="180.35" r="2.5"/><circle class="cls-1" cx="574.06" cy="149.2" r="2.5"/><circle class="cls-1" cx="574.06" cy="141.41" r="2.5"/><circle class="cls-1" cx="567.41" cy="91.9" r="2.5"/><circle class="cls-1" cx="567.41" cy="84.12" r="2.5"/><circle class="cls-1" cx="567.41" cy="76.33" r="2.5"/><circle class="cls-1" cx="564.91" cy="66.04" r="2.5"/><circle class="cls-1" cx="567.41" cy="138.63" r="2.5"/><circle class="cls-1" cx="567.41" cy="130.84" r="2.5"/><circle class="cls-1" cx="567.41" cy="99.69" r="2.5"/><circle class="cls-1" cx="563.41" cy="107.98" r="2.5"/><circle class="cls-1" cx="567.41" cy="45.18" r="2.5"/><circle class="cls-1" cx="567.41" cy="37.4" r="2.5"/><circle class="cls-1" cx="567.41" cy="232.07" r="2.5"/><circle class="cls-1" cx="569.41" cy="224.29" r="2.5"/><circle class="cls-1" cx="564.41" cy="217.5" r="2.5"/><circle class="cls-1" cx="567.41" cy="208.71" r="2.5"/><circle class="cls-1" cx="567.41" cy="200.92" r="2.5"/><circle class="cls-1" cx="564.41" cy="196.14" r="2.5"/><circle class="cls-1" cx="567.41" cy="271.01" r="2.5"/><circle class="cls-1" cx="567.41" cy="263.22" r="2.5"/><circle class="cls-1" cx="567.41" cy="255.43" r="2.5"/><circle class="cls-1" cx="567.41" cy="247.65" r="2.5"/><circle class="cls-1" cx="565.41" cy="239.86" r="2.5"/><circle class="cls-1" cx="567.41" cy="185.35" r="2.5"/><circle class="cls-1" cx="567.41" cy="177.56" r="2.5"/><circle class="cls-1" cx="567.41" cy="154.2" r="2.5"/><circle class="cls-1" cx="567.41" cy="146.41" r="2.5"/><circle class="cls-1" cx="560.15" cy="86.9" r="2.5"/><circle class="cls-1" cx="560.15" cy="79.12" r="2.5"/><circle class="cls-1" cx="560.15" cy="71.33" r="2.5"/><circle class="cls-1" cx="560.15" cy="47.97" r="2.5"/><circle class="cls-1" cx="560.15" cy="133.63" r="2.5"/><circle class="cls-1" cx="560.15" cy="94.69" r="2.5"/><circle class="cls-1" cx="560.15" cy="40.18" r="2.5"/><circle class="cls-1" cx="560.15" cy="224.07" r="2.5"/><circle class="cls-1" cx="560.15" cy="211.5" r="2.5"/><circle class="cls-1" cx="560.15" cy="188.14" r="2.5"/><circle class="cls-1" cx="560.15" cy="258.22" r="2.5"/><circle class="cls-1" cx="560.15" cy="231.86" r="2.5"/><circle class="cls-1" cx="560.15" cy="180.35" r="2.5"/><circle class="cls-1" cx="560.15" cy="172.56" r="2.5"/><circle class="cls-1" cx="563.15" cy="164.78" r="2.5"/><circle class="cls-1" cx="560.15" cy="156.99" r="2.5"/><circle class="cls-1" cx="560.15" cy="149.2" r="2.5"/><circle class="cls-1" cx="560.15" cy="141.41" r="2.5"/><circle class="cls-1" cx="553.49" cy="90.9" r="2.5"/><circle class="cls-1" cx="552.49" cy="80.12" r="2.5"/><circle class="cls-1" cx="553.49" cy="63.54" r="2.5"/><circle class="cls-1" cx="551.49" cy="72.54" r="2.5"/><circle class="cls-1" cx="553.49" cy="130.84" r="2.5"/><circle class="cls-1" cx="554.49" cy="105.48" r="2.5"/><circle class="cls-1" cx="552.49" cy="98.69" r="2.5"/><circle class="cls-1" cx="553.49" cy="37.4" r="2.5"/><circle class="cls-1" cx="553.49" cy="223.28" r="2.5"/><circle class="cls-1" cx="553.49" cy="216.5" r="2.5"/><circle class="cls-1" cx="553.49" cy="208.71" r="2.5"/><circle class="cls-1" cx="556.49" cy="200.92" r="2.5"/><circle class="cls-1" cx="553.49" cy="193.14" r="2.5"/><circle class="cls-1" cx="553.49" cy="271.01" r="2.5"/><circle class="cls-1" cx="553.49" cy="263.22" r="2.5"/><circle class="cls-1" cx="553.49" cy="185.35" r="2.5"/><circle class="cls-1" cx="553.49" cy="177.56" r="2.5"/><circle class="cls-1" cx="553.49" cy="166.78" r="2.5"/><circle class="cls-1" cx="543.79" cy="73.83" r="2.5"/><circle class="cls-1" cx="546.29" cy="63.54" r="2.5"/><circle class="cls-1" cx="546.29" cy="55.76" r="2.5"/><circle class="cls-1" cx="546.29" cy="47.97" r="2.5"/><circle class="cls-1" cx="546.29" cy="125.84" r="2.5"/><circle class="cls-1" cx="546.29" cy="118.05" r="2.5"/><circle class="cls-1" cx="546.29" cy="110.27" r="2.5"/><circle class="cls-1" cx="546.29" cy="102.48" r="2.5"/><circle class="cls-1" cx="546.29" cy="40.18" r="2.5"/><circle class="cls-1" cx="548.29" cy="227.07" r="2.5"/><circle class="cls-1" cx="546.29" cy="215.28" r="2.5"/><circle class="cls-1" cx="546.29" cy="204.5" r="2.5"/><circle class="cls-1" cx="546.29" cy="195.92" r="2.5"/><circle class="cls-1" cx="546.29" cy="266.01" r="2.5"/><circle class="cls-1" cx="546.29" cy="180.35" r="2.5"/><circle class="cls-1" cx="546.29" cy="172.56" r="2.5"/><circle class="cls-1" cx="539.64" cy="68.54" r="2.5"/><circle class="cls-1" cx="539.64" cy="60.76" r="2.5"/><circle class="cls-1" cx="539.64" cy="52.97" r="2.5"/><circle class="cls-1" cx="539.64" cy="123.05" r="2.5"/><circle class="cls-1" cx="539.64" cy="115.27" r="2.5"/><circle class="cls-1" cx="539.64" cy="107.48" r="2.5"/><circle class="cls-1" cx="539.64" cy="99.69" r="2.5"/><circle class="cls-1" cx="539.64" cy="45.18" r="2.5"/><circle class="cls-1" cx="541.64" cy="224.29" r="2.5"/><circle class="cls-1" cx="539.64" cy="208.71" r="2.5"/><circle class="cls-1" cx="539.64" cy="200.92" r="2.5"/><circle class="cls-1" cx="539.64" cy="193.14" r="2.5"/><circle class="cls-1" cx="539.64" cy="271.01" r="2.5"/><circle class="cls-1" cx="539.64" cy="263.22" r="2.5"/><circle class="cls-1" cx="542.14" cy="186.74" r="2.5"/><circle class="cls-1" cx="538.64" cy="177.56" r="2.5"/><circle class="cls-1" cx="534.09" cy="75.08" r="2.5"/><circle class="cls-1" cx="532.69" cy="63.54" r="2.5"/><circle class="cls-1" cx="532.69" cy="55.76" r="2.5"/><circle class="cls-1" cx="532.69" cy="47.97" r="2.5"/><circle class="cls-1" cx="532.69" cy="125.84" r="2.5"/><circle class="cls-1" cx="532.69" cy="118.05" r="2.5"/><circle class="cls-1" cx="532.69" cy="110.27" r="2.5"/><circle class="cls-1" cx="532.69" cy="102.48" r="2.5"/><circle class="cls-1" cx="532.69" cy="203.71" r="2.5"/><circle class="cls-1" cx="532.69" cy="195.92" r="2.5"/><circle class="cls-1" cx="532.69" cy="188.14" r="2.5"/><circle class="cls-1" cx="532.69" cy="266.01" r="2.5"/><circle class="cls-1" cx="532.69" cy="258.22" r="2.5"/><circle class="cls-1" cx="532.69" cy="180.35" r="2.5"/><circle class="cls-1" cx="531.59" cy="94.4" r="2.5"/><circle class="cls-1" cx="526.04" cy="84.12" r="2.5"/><circle class="cls-1" cx="526.04" cy="76.33" r="2.5"/><circle class="cls-1" cx="526.04" cy="68.54" r="2.5"/><circle class="cls-1" cx="526.04" cy="60.76" r="2.5"/><circle class="cls-1" cx="526.04" cy="123.05" r="2.5"/><circle class="cls-1" cx="526.04" cy="115.27" r="2.5"/><circle class="cls-1" cx="526.04" cy="107.48" r="2.5"/><circle class="cls-1" cx="526.04" cy="99.69" r="2.5"/><circle class="cls-1" cx="526.04" cy="227.07" r="2.5"/><circle class="cls-1" cx="526.04" cy="208.71" r="2.5"/><circle class="cls-1" cx="526.04" cy="200.92" r="2.5"/><circle class="cls-1" cx="526.04" cy="193.14" r="2.5"/><circle class="cls-1" cx="526.04" cy="271.01" r="2.5"/><circle class="cls-1" cx="525.04" cy="262.22" r="2.5"/><circle class="cls-1" cx="526.04" cy="254.43" r="2.5"/><circle class="cls-1" cx="527.04" cy="245.65" r="2.5"/><circle class="cls-1" cx="526.04" cy="235.86" r="2.5"/><circle class="cls-1" cx="533.19" cy="229.57" r="2.5"/><circle class="cls-1" cx="526.04" cy="185.35" r="2.5"/><circle class="cls-1" cx="526.04" cy="174.56" r="2.5"/><circle class="cls-1" cx="518.83" cy="86.9" r="2.5"/><circle class="cls-1" cx="518.83" cy="79.12" r="2.5"/><circle class="cls-1" cx="518.83" cy="71.33" r="2.5"/><circle class="cls-1" cx="518.83" cy="63.54" r="2.5"/><circle class="cls-1" cx="518.83" cy="127.63" r="2.5"/><circle class="cls-1" cx="518.83" cy="118.05" r="2.5"/><circle class="cls-1" cx="518.83" cy="110.27" r="2.5"/><circle class="cls-1" cx="518.83" cy="102.48" r="2.5"/><circle class="cls-1" cx="521.33" cy="94.19" r="2.5"/><circle class="cls-1" cx="518.83" cy="227.07" r="2.5"/><circle class="cls-1" cx="518.83" cy="219.28" r="2.5"/><circle class="cls-1" cx="518.83" cy="211.5" r="2.5"/><circle class="cls-1" cx="518.83" cy="203.71" r="2.5"/><circle class="cls-1" cx="518.83" cy="266.01" r="2.5"/><circle class="cls-1" cx="518.83" cy="250.43" r="2.5"/><circle class="cls-1" cx="518.83" cy="242.65" r="2.5"/><circle class="cls-1" cx="518.83" cy="234.86" r="2.5"/><circle class="cls-1" cx="518.83" cy="180.35" r="2.5"/><circle class="cls-1" cx="518.83" cy="172.56" r="2.5"/><circle class="cls-1" cx="512.18" cy="91.9" r="2.5"/><circle class="cls-1" cx="512.18" cy="84.12" r="2.5"/><circle class="cls-1" cx="512.18" cy="68.54" r="2.5"/><circle class="cls-1" cx="512.18" cy="138.63" r="2.5"/><circle class="cls-1" cx="512.18" cy="130.84" r="2.5"/><circle class="cls-1" cx="512.18" cy="123.05" r="2.5"/><circle class="cls-1" cx="512.18" cy="115.27" r="2.5"/><circle class="cls-1" cx="512.18" cy="107.48" r="2.5"/><circle class="cls-1" cx="512.18" cy="232.07" r="2.5"/><circle class="cls-1" cx="512.18" cy="224.29" r="2.5"/><circle class="cls-1" cx="512.18" cy="216.5" r="2.5"/><circle class="cls-1" cx="512.18" cy="208.71" r="2.5"/><circle class="cls-1" cx="512.18" cy="271.01" r="2.5"/><circle class="cls-1" cx="512.18" cy="263.22" r="2.5"/><circle class="cls-1" cx="516.18" cy="257.43" r="2.5"/><circle class="cls-1" cx="512.18" cy="247.65" r="2.5"/><circle class="cls-1" cx="512.18" cy="239.86" r="2.5"/><circle class="cls-1" cx="512.18" cy="177.56" r="2.5"/><circle class="cls-1" cx="512.18" cy="169.78" r="2.5"/><circle class="cls-1" cx="512.18" cy="161.99" r="2.5"/><circle class="cls-1" cx="504.76" cy="86.9" r="2.5"/><circle class="cls-1" cx="504.76" cy="79.12" r="2.5"/><circle class="cls-1" cx="504.76" cy="71.33" r="2.5"/><circle class="cls-1" cx="504.76" cy="133.63" r="2.5"/><circle class="cls-1" cx="504.76" cy="125.84" r="2.5"/><circle class="cls-1" cx="504.76" cy="118.05" r="2.5"/><circle class="cls-1" cx="504.76" cy="110.27" r="2.5"/><circle class="cls-1" cx="504.76" cy="102.48" r="2.5"/><circle class="cls-1" cx="504.76" cy="94.69" r="2.5"/><circle class="cls-1" cx="504.76" cy="219.28" r="2.5"/><circle class="cls-1" cx="504.76" cy="211.5" r="2.5"/><circle class="cls-1" cx="504.76" cy="203.71" r="2.5"/><circle class="cls-1" cx="504.76" cy="266.01" r="2.5"/><circle class="cls-1" cx="505.76" cy="254.22" r="2.5"/><circle class="cls-1" cx="504.76" cy="180.35" r="2.5"/><circle class="cls-1" cx="504.76" cy="172.56" r="2.5"/><circle class="cls-1" cx="504.76" cy="164.78" r="2.5"/><circle class="cls-1" cx="504.76" cy="156.99" r="2.5"/><circle class="cls-1" cx="508.76" cy="149.2" r="2.5"/><circle class="cls-1" cx="504.76" cy="141.41" r="2.5"/><circle class="cls-1" cx="498.11" cy="91.9" r="2.5"/><circle class="cls-1" cx="498.11" cy="84.12" r="2.5"/><circle class="cls-1" cx="498.11" cy="76.33" r="2.5"/><circle class="cls-1" cx="498.11" cy="138.63" r="2.5"/><circle class="cls-1" cx="498.11" cy="99.69" r="2.5"/><circle class="cls-1" cx="498.11" cy="208.71" r="2.5"/><circle class="cls-1" cx="498.11" cy="200.92" r="2.5"/><circle class="cls-1" cx="498.11" cy="193.14" r="2.5"/><circle class="cls-1" cx="498.11" cy="271.01" r="2.5"/><circle class="cls-1" cx="497.11" cy="261.22" r="2.5"/><circle class="cls-1" cx="502.26" cy="186.74" r="2.5"/><circle class="cls-1" cx="498.11" cy="177.56" r="2.5"/><circle class="cls-1" cx="498.11" cy="169.78" r="2.5"/><circle class="cls-1" cx="498.11" cy="161.99" r="2.5"/><circle class="cls-1" cx="498.11" cy="154.2" r="2.5"/><circle class="cls-1" cx="498.11" cy="146.41" r="2.5"/><circle class="cls-1" cx="490.9" cy="86.9" r="2.5"/><circle class="cls-1" cx="490.9" cy="79.12" r="2.5"/><circle class="cls-1" cx="490.9" cy="94.69" r="2.5"/><circle class="cls-1" cx="490.9" cy="211.5" r="2.5"/><circle class="cls-1" cx="490.9" cy="203.71" r="2.5"/><circle class="cls-1" cx="490.9" cy="195.92" r="2.5"/><circle class="cls-1" cx="490.9" cy="188.14" r="2.5"/><circle class="cls-1" cx="490.9" cy="266.01" r="2.5"/><circle class="cls-1" cx="490.9" cy="180.35" r="2.5"/><circle class="cls-1" cx="490.9" cy="172.56" r="2.5"/><circle class="cls-1" cx="490.9" cy="164.78" r="2.5"/><circle class="cls-1" cx="490.9" cy="156.99" r="2.5"/><circle class="cls-1" cx="490.9" cy="149.2" r="2.5"/><circle class="cls-1" cx="490.9" cy="141.41" r="2.5"/><circle class="cls-1" cx="484.25" cy="91.9" r="2.5"/><circle class="cls-1" cx="484.25" cy="84.12" r="2.5"/><circle class="cls-1" cx="484.25" cy="138.63" r="2.5"/><circle class="cls-1" cx="484.25" cy="208.71" r="2.5"/><circle class="cls-1" cx="484.25" cy="200.92" r="2.5"/><circle class="cls-1" cx="484.25" cy="193.14" r="2.5"/><circle class="cls-1" cx="484.25" cy="271.01" r="2.5"/><circle class="cls-1" cx="484.25" cy="263.22" r="2.5"/><circle class="cls-1" cx="484.25" cy="185.35" r="2.5"/><circle class="cls-1" cx="481.75" cy="177.56" r="2.5"/><circle class="cls-1" cx="484.25" cy="169.78" r="2.5"/><circle class="cls-1" cx="484.25" cy="161.99" r="2.5"/><circle class="cls-1" cx="484.25" cy="154.2" r="2.5"/><circle class="cls-1" cx="484.25" cy="146.41" r="2.5"/><circle class="cls-1" cx="477.3" cy="94.69" r="2.5"/><circle class="cls-1" cx="477.3" cy="213.5" r="2.5"/><circle class="cls-1" cx="477.3" cy="203.71" r="2.5"/><circle class="cls-1" cx="477.3" cy="195.92" r="2.5"/><circle class="cls-1" cx="477.3" cy="188.14" r="2.5"/><circle class="cls-1" cx="477.3" cy="266.01" r="2.5"/><circle class="cls-1" cx="477.3" cy="258.22" r="2.5"/><circle class="cls-1" cx="477.3" cy="149.2" r="2.5"/><circle class="cls-1" cx="477.3" cy="141.41" r="2.5"/><circle class="cls-1" cx="470.65" cy="138.63" r="2.5"/><circle class="cls-1" cx="468.65" cy="130.14" r="2.5"/><circle class="cls-1" cx="472.65" cy="105.48" r="2.5"/><circle class="cls-1" cx="470.65" cy="99.69" r="2.5"/><circle class="cls-1" cx="470.65" cy="219.28" r="2.5"/><circle class="cls-1" cx="470.15" cy="204.42" r="2.5"/><circle class="cls-1" cx="470.65" cy="193.14" r="2.5"/><circle class="cls-1" cx="470.65" cy="271.01" r="2.5"/><circle class="cls-1" cx="470.65" cy="263.22" r="2.5"/><circle class="cls-1" cx="470.65" cy="255.43" r="2.5"/><circle class="cls-1" cx="470.65" cy="185.35" r="2.5"/><circle class="cls-1" cx="470.65" cy="146.41" r="2.5"/><circle class="cls-1" cx="459.45" cy="130.63" r="2.5"/><circle class="cls-1" cx="463.45" cy="119.94" r="2.5"/><circle class="cls-1" cx="481.75" cy="99.98" r="2.5"/><circle class="cls-1" cx="463.45" cy="110.27" r="2.5"/><circle class="cls-1" cx="463.45" cy="102.48" r="2.5"/><circle class="cls-1" cx="463.45" cy="227.07" r="2.5"/><circle class="cls-1" cx="463.45" cy="219.28" r="2.5"/><circle class="cls-1" cx="463.45" cy="211.5" r="2.5"/><circle class="cls-1" cx="462.45" cy="203.71" r="2.5"/><circle class="cls-1" cx="463.45" cy="195.92" r="2.5"/><circle class="cls-1" cx="463.45" cy="188.14" r="2.5"/><circle class="cls-1" cx="463.45" cy="266.01" r="2.5"/><circle class="cls-1" cx="463.45" cy="258.22" r="2.5"/><circle class="cls-1" cx="463.45" cy="250.43" r="2.5"/><circle class="cls-1" cx="464.45" cy="242.65" r="2.5"/><circle class="cls-1" cx="463.45" cy="141.41" r="2.5"/><circle class="cls-1" cx="456.79" cy="138.63" r="2.5"/><circle class="cls-1" cx="456.79" cy="123.05" r="2.5"/><circle class="cls-1" cx="456.79" cy="115.27" r="2.5"/><circle class="cls-1" cx="456.79" cy="107.48" r="2.5"/><circle class="cls-1" cx="456.79" cy="232.07" r="2.5"/><circle class="cls-1" cx="456.79" cy="224.29" r="2.5"/><circle class="cls-1" cx="456.79" cy="208.71" r="2.5"/><circle class="cls-1" cx="456.79" cy="193.14" r="2.5"/><circle class="cls-1" cx="456.79" cy="271.01" r="2.5"/><circle class="cls-1" cx="456.79" cy="263.22" r="2.5"/><circle class="cls-1" cx="456.79" cy="255.43" r="2.5"/><circle class="cls-1" cx="456.79" cy="247.65" r="2.5"/><circle class="cls-1" cx="456.79" cy="239.86" r="2.5"/><circle class="cls-1" cx="456.79" cy="185.35" r="2.5"/><circle class="cls-1" cx="456.79" cy="146.41" r="2.5"/><circle class="cls-1" cx="449.53" cy="133.63" r="2.5"/><circle class="cls-1" cx="449.53" cy="125.84" r="2.5"/><circle class="cls-1" cx="449.53" cy="118.05" r="2.5"/><circle class="cls-1" cx="449.53" cy="110.27" r="2.5"/><circle class="cls-1" cx="449.53" cy="227.07" r="2.5"/><circle class="cls-1" cx="449.53" cy="219.28" r="2.5"/><circle class="cls-1" cx="449.53" cy="211.5" r="2.5"/><circle class="cls-1" cx="449.53" cy="203.71" r="2.5"/><circle class="cls-1" cx="449.53" cy="195.92" r="2.5"/><circle class="cls-1" cx="449.53" cy="188.14" r="2.5"/><circle class="cls-1" cx="449.53" cy="266.01" r="2.5"/><circle class="cls-1" cx="449.53" cy="258.22" r="2.5"/><circle class="cls-1" cx="449.53" cy="250.43" r="2.5"/><circle class="cls-1" cx="449.53" cy="234.86" r="2.5"/><circle class="cls-1" cx="449.53" cy="149.2" r="2.5"/><circle class="cls-1" cx="442.88" cy="138.63" r="2.5"/><circle class="cls-1" cx="442.88" cy="130.84" r="2.5"/><circle class="cls-1" cx="440.88" cy="123.05" r="2.5"/><circle class="cls-1" cx="442.88" cy="115.27" r="2.5"/><circle class="cls-1" cx="442.88" cy="232.07" r="2.5"/><circle class="cls-1" cx="442.88" cy="224.29" r="2.5"/><circle class="cls-1" cx="442.88" cy="216.5" r="2.5"/><circle class="cls-1" cx="442.88" cy="208.71" r="2.5"/><circle class="cls-1" cx="442.88" cy="200.92" r="2.5"/><circle class="cls-1" cx="442.88" cy="193.14" r="2.5"/><circle class="cls-1" cx="442.88" cy="271.01" r="2.5"/><circle class="cls-1" cx="442.88" cy="263.22" r="2.5"/><circle class="cls-1" cx="442.88" cy="255.43" r="2.5"/><circle class="cls-1" cx="442.88" cy="247.65" r="2.5"/><circle class="cls-1" cx="442.88" cy="239.86" r="2.5"/><circle class="cls-1" cx="442.88" cy="185.35" r="2.5"/><circle class="cls-1" cx="447.03" cy="178.78" r="2.5"/><circle class="cls-1" cx="442.88" cy="169.78" r="2.5"/><circle class="cls-1" cx="442.88" cy="161.99" r="2.5"/><circle class="cls-1" cx="442.88" cy="154.2" r="2.5"/><circle class="cls-1" cx="443.88" cy="146.41" r="2.5"/><circle class="cls-1" cx="435.68" cy="131.63" r="2.5"/><circle class="cls-1" cx="435.68" cy="118.05" r="2.5"/><circle class="cls-1" cx="435.68" cy="211.5" r="2.5"/><circle class="cls-1" cx="435.68" cy="203.71" r="2.5"/><circle class="cls-1" cx="435.68" cy="195.92" r="2.5"/><circle class="cls-1" cx="435.68" cy="188.14" r="2.5"/><circle class="cls-1" cx="435.68" cy="266.01" r="2.5"/><circle class="cls-1" cx="435.68" cy="258.22" r="2.5"/><circle class="cls-1" cx="435.68" cy="250.43" r="2.5"/><circle class="cls-1" cx="435.68" cy="242.65" r="2.5"/><circle class="cls-1" cx="435.68" cy="180.35" r="2.5"/><circle class="cls-1" cx="435.68" cy="172.56" r="2.5"/><circle class="cls-1" cx="435.68" cy="164.78" r="2.5"/><circle class="cls-1" cx="435.68" cy="156.99" r="2.5"/><circle class="cls-1" cx="435.68" cy="149.2" r="2.5"/><circle class="cls-1" cx="435.68" cy="141.41" r="2.5"/><circle class="cls-1" cx="429.02" cy="138.63" r="2.5"/><circle class="cls-1" cx="429.02" cy="130.84" r="2.5"/><circle class="cls-1" cx="429.02" cy="123.05" r="2.5"/><circle class="cls-1" cx="429.02" cy="216.5" r="2.5"/><circle class="cls-1" cx="429.02" cy="208.71" r="2.5"/><circle class="cls-1" cx="429.02" cy="200.92" r="2.5"/><circle class="cls-1" cx="429.02" cy="193.14" r="2.5"/><circle class="cls-1" cx="429.02" cy="271.01" r="2.5"/><circle class="cls-1" cx="429.02" cy="263.22" r="2.5"/><circle class="cls-1" cx="429.02" cy="255.43" r="2.5"/><circle class="cls-1" cx="429.02" cy="247.65" r="2.5"/><circle class="cls-1" cx="429.02" cy="185.35" r="2.5"/><circle class="cls-1" cx="429.02" cy="177.56" r="2.5"/><circle class="cls-1" cx="429.02" cy="169.78" r="2.5"/><circle class="cls-1" cx="428.02" cy="158.99" r="2.5"/><circle class="cls-1" cx="429.02" cy="146.41" r="2.5"/><circle class="cls-1" cx="422.08" cy="133.63" r="2.5"/><circle class="cls-1" cx="422.08" cy="125.84" r="2.5"/><circle class="cls-1" cx="422.08" cy="211.5" r="2.5"/><circle class="cls-1" cx="422.08" cy="203.71" r="2.5"/><circle class="cls-1" cx="422.08" cy="195.92" r="2.5"/><circle class="cls-1" cx="422.08" cy="188.14" r="2.5"/><circle class="cls-1" cx="422.08" cy="266.01" r="2.5"/><circle class="cls-1" cx="422.08" cy="258.22" r="2.5"/><circle class="cls-1" cx="422.08" cy="250.43" r="2.5"/><circle class="cls-1" cx="424.58" cy="240.43" r="2.5"/><circle class="cls-1" cx="422.08" cy="180.35" r="2.5"/><circle class="cls-1" cx="422.08" cy="172.56" r="2.5"/><circle class="cls-1" cx="422.08" cy="164.78" r="2.5"/><circle class="cls-1" cx="421.08" cy="156.99" r="2.5"/><circle class="cls-1" cx="422.08" cy="149.2" r="2.5"/><circle class="cls-1" cx="415.42" cy="138.63" r="2.5"/><circle class="cls-1" cx="415.42" cy="130.84" r="2.5"/><circle class="cls-1" cx="415.42" cy="232.07" r="2.5"/><circle class="cls-1" cx="415.42" cy="224.29" r="2.5"/><circle class="cls-1" cx="415.42" cy="216.5" r="2.5"/><circle class="cls-1" cx="415.42" cy="208.71" r="2.5"/><circle class="cls-1" cx="415.42" cy="200.92" r="2.5"/><circle class="cls-1" cx="415.42" cy="193.14" r="2.5"/><circle class="cls-1" cx="415.42" cy="271.01" r="2.5"/><circle class="cls-1" cx="415.42" cy="263.22" r="2.5"/><circle class="cls-1" cx="415.42" cy="255.43" r="2.5"/><circle class="cls-1" cx="415.42" cy="247.65" r="2.5"/><circle class="cls-1" cx="415.42" cy="239.86" r="2.5"/><circle class="cls-1" cx="414.42" cy="161.99" r="2.5"/><circle class="cls-1" cx="415.42" cy="154.2" r="2.5"/><circle class="cls-1" cx="415.42" cy="146.41" r="2.5"/><circle class="cls-1" cx="408.22" cy="133.63" r="2.5"/><circle class="cls-1" cx="408.22" cy="227.07" r="2.5"/><circle class="cls-1" cx="408.22" cy="219.28" r="2.5"/><circle class="cls-1" cx="408.22" cy="211.5" r="2.5"/><circle class="cls-1" cx="408.22" cy="203.71" r="2.5"/><circle class="cls-1" cx="408.22" cy="195.92" r="2.5"/><circle class="cls-1" cx="408.22" cy="188.14" r="2.5"/><circle class="cls-1" cx="408.22" cy="266.01" r="2.5"/><circle class="cls-1" cx="408.22" cy="242.65" r="2.5"/><circle class="cls-1" cx="408.22" cy="234.86" r="2.5"/><circle class="cls-1" cx="407.22" cy="156.99" r="2.5"/><circle class="cls-1" cx="408.22" cy="149.2" r="2.5"/><circle class="cls-1" cx="408.22" cy="141.41" r="2.5"/><circle class="cls-1" cx="401.56" cy="138.63" r="2.5"/><circle class="cls-1" cx="401.56" cy="232.07" r="2.5"/><circle class="cls-1" cx="401.56" cy="224.29" r="2.5"/><circle class="cls-1" cx="401.56" cy="216.5" r="2.5"/><circle class="cls-1" cx="401.56" cy="208.71" r="2.5"/><circle class="cls-1" cx="401.56" cy="200.92" r="2.5"/><circle class="cls-1" cx="401.56" cy="271.01" r="2.5"/><circle class="cls-1" cx="401.56" cy="239.86" r="2.5"/><circle class="cls-1" cx="401.56" cy="154.2" r="2.5"/><circle class="cls-1" cx="395.15" cy="227.07" r="2.5"/><circle class="cls-1" cx="395.15" cy="219.28" r="2.5"/><circle class="cls-1" cx="395.15" cy="211.5" r="2.5"/><circle class="cls-1" cx="395.15" cy="203.71" r="2.5"/><circle class="cls-1" cx="395.15" cy="195.92" r="2.5"/><circle class="cls-1" cx="395.15" cy="188.14" r="2.5"/><circle class="cls-1" cx="395.15" cy="266.01" r="2.5"/><circle class="cls-1" cx="395.15" cy="242.65" r="2.5"/><circle class="cls-1" cx="395.15" cy="234.86" r="2.5"/><circle class="cls-1" cx="395.15" cy="158.99" r="2.5"/><circle class="cls-1" cx="395.15" cy="149.2" r="2.5"/><circle class="cls-1" cx="395.15" cy="141.41" r="2.5"/><circle class="cls-1" cx="388.49" cy="232.07" r="2.5"/><circle class="cls-1" cx="388.49" cy="224.29" r="2.5"/><circle class="cls-1" cx="388.49" cy="216.5" r="2.5"/><circle class="cls-1" cx="388.49" cy="208.71" r="2.5"/><circle class="cls-1" cx="388.49" cy="200.92" r="2.5"/><circle class="cls-1" cx="388.49" cy="193.14" r="2.5"/><circle class="cls-1" cx="388.49" cy="271.01" r="2.5"/><circle class="cls-1" cx="388.49" cy="263.22" r="2.5"/><circle class="cls-1" cx="388.49" cy="255.43" r="2.5"/><circle class="cls-1" cx="388.49" cy="247.65" r="2.5"/><circle class="cls-1" cx="388.49" cy="239.86" r="2.5"/><circle class="cls-1" cx="388.49" cy="163.99" r="2.5"/><circle class="cls-1" cx="386.49" cy="155.2" r="2.5"/><circle class="cls-1" cx="388.49" cy="146.41" r="2.5"/><circle class="cls-1" cx="381.29" cy="227.07" r="2.5"/><circle class="cls-1" cx="381.29" cy="219.28" r="2.5"/><circle class="cls-1" cx="381.29" cy="211.5" r="2.5"/><circle class="cls-1" cx="381.29" cy="203.71" r="2.5"/><circle class="cls-1" cx="381.29" cy="195.92" r="2.5"/><circle class="cls-1" cx="381.29" cy="188.14" r="2.5"/><circle class="cls-1" cx="381.29" cy="266.01" r="2.5"/><circle class="cls-1" cx="381.29" cy="258.22" r="2.5"/><circle class="cls-1" cx="381.29" cy="250.43" r="2.5"/><circle class="cls-1" cx="381.29" cy="242.65" r="2.5"/><circle class="cls-1" cx="381.29" cy="234.86" r="2.5"/><circle class="cls-1" cx="381.29" cy="180.35" r="2.5"/><circle class="cls-1" cx="381.29" cy="172.56" r="2.5"/><circle class="cls-1" cx="381.56" cy="162.88" r="2.5"/><circle class="cls-1" cx="381.29" cy="149.2" r="2.5"/><circle class="cls-1" cx="374.63" cy="224.29" r="2.5"/><circle class="cls-1" cx="374.63" cy="216.5" r="2.5"/><circle class="cls-1" cx="374.63" cy="208.71" r="2.5"/><circle class="cls-1" cx="374.63" cy="200.92" r="2.5"/><circle class="cls-1" cx="371.63" cy="193.14" r="2.5"/><circle class="cls-1" cx="374.63" cy="271.01" r="2.5"/><circle class="cls-1" cx="374.63" cy="263.22" r="2.5"/><circle class="cls-1" cx="374.63" cy="255.43" r="2.5"/><circle class="cls-1" cx="374.63" cy="247.65" r="2.5"/><circle class="cls-1" cx="374.63" cy="239.86" r="2.5"/><circle class="cls-1" cx="371.63" cy="185.35" r="2.5"/><circle class="cls-1" cx="374.63" cy="178.56" r="2.5"/><circle class="cls-1" cx="374.63" cy="169.78" r="2.5"/><circle class="cls-1" cx="374.63" cy="161.99" r="2.5"/><circle class="cls-1" cx="374.63" cy="154.2" r="2.5"/><circle class="cls-1" cx="367.69" cy="227.07" r="2.5"/><circle class="cls-1" cx="367.69" cy="219.28" r="2.5"/><circle class="cls-1" cx="367.69" cy="211.5" r="2.5"/><circle class="cls-1" cx="367.69" cy="203.71" r="2.5"/><circle class="cls-1" cx="367.69" cy="266.01" r="2.5"/><circle class="cls-1" cx="367.69" cy="258.22" r="2.5"/><circle class="cls-1" cx="367.69" cy="250.43" r="2.5"/><circle class="cls-1" cx="367.69" cy="242.65" r="2.5"/><circle class="cls-1" cx="367.69" cy="234.86" r="2.5"/><circle class="cls-1" cx="367.69" cy="174.35" r="2.5"/><circle class="cls-1" cx="367.69" cy="164.78" r="2.5"/><circle class="cls-1" cx="367.69" cy="156.99" r="2.5"/><circle class="cls-1" cx="361.03" cy="224.29" r="2.5"/><circle class="cls-1" cx="361.03" cy="216.5" r="2.5"/><circle class="cls-1" cx="361.03" cy="208.71" r="2.5"/><circle class="cls-1" cx="361.03" cy="200.42" r="2.5"/><circle class="cls-1" cx="362.03" cy="193.14" r="2.5"/><circle class="cls-1" cx="361.03" cy="271.01" r="2.5"/><circle class="cls-1" cx="361.03" cy="263.22" r="2.5"/><circle class="cls-1" cx="363.03" cy="185.35" r="2.5"/><circle class="cls-1" cx="361.03" cy="177.56" r="2.5"/><circle class="cls-1" cx="361.03" cy="169.78" r="2.5"/><circle class="cls-1" cx="361.03" cy="161.99" r="2.5"/><circle class="cls-1" cx="353.83" cy="219.28" r="2.5"/><circle class="cls-1" cx="353.83" cy="211.5" r="2.5"/><circle class="cls-1" cx="353.83" cy="195.92" r="2.5"/><circle class="cls-1" cx="353.83" cy="188.14" r="2.5"/><circle class="cls-1" cx="353.83" cy="266.01" r="2.5"/><circle class="cls-1" cx="353.83" cy="258.22" r="2.5"/><circle class="cls-1" cx="353.83" cy="180.35" r="2.5"/><circle class="cls-1" cx="353.83" cy="172.56" r="2.5"/><circle class="cls-1" cx="353.83" cy="164.78" r="2.5"/><circle class="cls-1" cx="346.77" cy="221.28" r="2.5"/><circle class="cls-1" cx="347.17" cy="208.71" r="2.5"/><circle class="cls-1" cx="347.17" cy="200.92" r="2.5"/><circle class="cls-1" cx="347.17" cy="271.01" r="2.5"/><circle class="cls-1" cx="347.17" cy="263.22" r="2.5"/><circle class="cls-1" cx="347.17" cy="185.35" r="2.5"/><circle class="cls-1" cx="347.17" cy="177.56" r="2.5"/><circle class="cls-1" cx="347.17" cy="169.78" r="2.5"/><circle class="cls-1" cx="339.92" cy="219.28" r="2.5"/><circle class="cls-1" cx="339.92" cy="188.14" r="2.5"/><circle class="cls-1" cx="339.92" cy="266.01" r="2.5"/><circle class="cls-1" cx="339.92" cy="258.22" r="2.5"/><circle class="cls-1" cx="339.92" cy="180.35" r="2.5"/><circle class="cls-1" cx="339.92" cy="172.56" r="2.5"/><circle class="cls-1" cx="339.92" cy="164.78" r="2.5"/><circle class="cls-1" cx="333.26" cy="224.29" r="2.5"/><circle class="cls-1" cx="333.26" cy="216.5" r="2.5"/><circle class="cls-1" cx="333.26" cy="193.14" r="2.5"/><circle class="cls-1" cx="333.26" cy="271.01" r="2.5"/><circle class="cls-1" cx="333.26" cy="263.22" r="2.5"/><circle class="cls-1" cx="333.26" cy="185.35" r="2.5"/><circle class="cls-1" cx="333.26" cy="177.56" r="2.5"/><circle class="cls-1" cx="333.26" cy="169.78" r="2.5"/><circle class="cls-1" cx="326.06" cy="227.07" r="2.5"/><circle class="cls-1" cx="326.06" cy="219.28" r="2.5"/><circle class="cls-1" cx="326.06" cy="211.5" r="2.5"/><circle class="cls-1" cx="326.06" cy="195.92" r="2.5"/><circle class="cls-1" cx="326.06" cy="188.14" r="2.5"/><circle class="cls-1" cx="326.06" cy="266.01" r="2.5"/><circle class="cls-1" cx="326.06" cy="258.22" r="2.5"/><circle class="cls-1" cx="328.56" cy="251.57" r="2.5"/><circle class="cls-1" cx="326.06" cy="242.65" r="2.5"/><circle class="cls-1" cx="326.06" cy="234.86" r="2.5"/><circle class="cls-1" cx="326.06" cy="180.35" r="2.5"/><circle class="cls-1" cx="326.06" cy="172.56" r="2.5"/><circle class="cls-1" cx="319.4" cy="232.07" r="2.5"/><circle class="cls-1" cx="319.4" cy="224.29" r="2.5"/><circle class="cls-1" cx="319.4" cy="216.5" r="2.5"/><circle class="cls-1" cx="319.4" cy="208.71" r="2.5"/><circle class="cls-1" cx="319.4" cy="200.92" r="2.5"/><circle class="cls-1" cx="319.4" cy="193.14" r="2.5"/><circle class="cls-1" cx="319.4" cy="271.01" r="2.5"/><circle class="cls-1" cx="319.4" cy="263.22" r="2.5"/><circle class="cls-1" cx="319.4" cy="255.43" r="2.5"/><circle class="cls-1" cx="319.4" cy="247.65" r="2.5"/><circle class="cls-1" cx="314.9" cy="241.25" r="2.5"/><circle class="cls-1" cx="319.4" cy="185.35" r="2.5"/><circle class="cls-1" cx="319.4" cy="177.56" r="2.5"/><circle class="cls-1" cx="319.4" cy="169.78" r="2.5"/><circle class="cls-1" cx="312.46" cy="227.07" r="2.5"/><circle class="cls-1" cx="312.46" cy="219.28" r="2.5"/><circle class="cls-1" cx="312.46" cy="211.5" r="2.5"/><circle class="cls-1" cx="312.46" cy="203.71" r="2.5"/><circle class="cls-1" cx="312.46" cy="195.92" r="2.5"/><circle class="cls-1" cx="312.46" cy="188.14" r="2.5"/><circle class="cls-1" cx="312.46" cy="266.01" r="2.5"/><circle class="cls-1" cx="312.46" cy="258.22" r="2.5"/><circle class="cls-1" cx="312.46" cy="234.86" r="2.5"/><circle class="cls-1" cx="312.46" cy="180.35" r="2.5"/><circle class="cls-1" cx="312.46" cy="172.56" r="2.5"/><circle class="cls-1" cx="303.68" cy="173.78" r="2.5"/><circle class="cls-1" cx="305.8" cy="232.07" r="2.5"/><circle class="cls-1" cx="305.8" cy="224.29" r="2.5"/><circle class="cls-1" cx="305.8" cy="216.5" r="2.5"/><circle class="cls-1" cx="305.8" cy="208.71" r="2.5"/><circle class="cls-1" cx="305.8" cy="200.92" r="2.5"/><circle class="cls-1" cx="305.8" cy="271.01" r="2.5"/><circle class="cls-1" cx="305.8" cy="263.22" r="2.5"/><circle class="cls-1" cx="298.6" cy="266.01" r="2.5"/><circle class="cls-1" cx="298.6" cy="258.22" r="2.5"/><circle class="cls-1" cx="298.6" cy="234.86" r="2.5"/><circle class="cls-1" cx="291.94" cy="232.07" r="2.5"/><circle class="cls-1" cx="291.94" cy="271.01" r="2.5"/><circle class="cls-1" cx="291.94" cy="263.22" r="2.5"/><circle class="cls-1" cx="291.94" cy="255.43" r="2.5"/><circle class="cls-1" cx="291.94" cy="247.65" r="2.5"/><circle class="cls-1" cx="291.94" cy="239.86" r="2.5"/><circle class="cls-1" cx="284.53" cy="188.14" r="2.5"/><circle class="cls-1" cx="288.23" cy="195.92" r="2.5"/><circle class="cls-1" cx="284.53" cy="266.01" r="2.5"/><circle class="cls-1" cx="284.53" cy="258.22" r="2.5"/><circle class="cls-1" cx="284.53" cy="242.65" r="2.5"/><circle class="cls-1" cx="284.53" cy="234.86" r="2.5"/><circle class="cls-1" cx="284.53" cy="180.35" r="2.5"/><circle class="cls-1" cx="293.6" cy="176.28" r="2.5"/><circle class="cls-1" cx="277.87" cy="232.07" r="2.5"/><circle class="cls-1" cx="277.87" cy="193.14" r="2.5"/><circle class="cls-1" cx="277.87" cy="271.01" r="2.5"/><circle class="cls-1" cx="277.87" cy="263.22" r="2.5"/><circle class="cls-1" cx="277.87" cy="255.43" r="2.5"/><circle class="cls-1" cx="277.87" cy="247.65" r="2.5"/><circle class="cls-1" cx="277.87" cy="239.86" r="2.5"/><circle class="cls-1" cx="277.87" cy="185.35" r="2.5"/><circle class="cls-1" cx="277.87" cy="177.56" r="2.5"/><circle class="cls-1" cx="270.67" cy="227.07" r="2.5"/><circle class="cls-1" cx="270.67" cy="203.71" r="2.5"/><circle class="cls-1" cx="270.67" cy="195.92" r="2.5"/><circle class="cls-1" cx="270.67" cy="188.14" r="2.5"/><circle class="cls-1" cx="270.67" cy="266.01" r="2.5"/><circle class="cls-1" cx="270.67" cy="258.22" r="2.5"/><circle class="cls-1" cx="270.67" cy="250.43" r="2.5"/><circle class="cls-1" cx="270.67" cy="242.65" r="2.5"/><circle class="cls-1" cx="270.67" cy="234.86" r="2.5"/><circle class="cls-1" cx="270.67" cy="180.35" r="2.5"/><circle class="cls-1" cx="264.01" cy="232.07" r="2.5"/><circle class="cls-1" cx="264.01" cy="224.29" r="2.5"/><circle class="cls-1" cx="264.01" cy="216.5" r="2.5"/><circle class="cls-1" cx="264.01" cy="208.71" r="2.5"/><circle class="cls-1" cx="264.01" cy="200.92" r="2.5"/><circle class="cls-1" cx="264.01" cy="193.14" r="2.5"/><circle class="cls-1" cx="264.01" cy="271.01" r="2.5"/><circle class="cls-1" cx="264.01" cy="263.22" r="2.5"/><circle class="cls-1" cx="264.01" cy="255.43" r="2.5"/><circle class="cls-1" cx="264.01" cy="247.65" r="2.5"/><circle class="cls-1" cx="264.01" cy="239.86" r="2.5"/><circle class="cls-1" cx="264.01" cy="185.35" r="2.5"/><circle class="cls-1" cx="257.07" cy="227.07" r="2.5"/><circle class="cls-1" cx="257.07" cy="219.28" r="2.5"/><circle class="cls-1" cx="257.07" cy="211.5" r="2.5"/><circle class="cls-1" cx="257.07" cy="203.71" r="2.5"/><circle class="cls-1" cx="257.07" cy="195.92" r="2.5"/><circle class="cls-1" cx="257.07" cy="188.14" r="2.5"/><circle class="cls-1" cx="257.07" cy="266.01" r="2.5"/><circle class="cls-1" cx="257.07" cy="258.22" r="2.5"/><circle class="cls-1" cx="257.07" cy="250.43" r="2.5"/><circle class="cls-1" cx="257.07" cy="242.65" r="2.5"/><circle class="cls-1" cx="257.07" cy="234.86" r="2.5"/><circle class="cls-1" cx="250.41" cy="232.07" r="2.5"/><circle class="cls-1" cx="250.41" cy="224.29" r="2.5"/><circle class="cls-1" cx="250.41" cy="216.5" r="2.5"/><circle class="cls-1" cx="250.41" cy="208.71" r="2.5"/><circle class="cls-1" cx="250.41" cy="200.92" r="2.5"/><circle class="cls-1" cx="250.41" cy="193.14" r="2.5"/><circle class="cls-1" cx="250.41" cy="271.01" r="2.5"/><circle class="cls-1" cx="250.41" cy="263.22" r="2.5"/><circle class="cls-1" cx="250.41" cy="185.35" r="2.5"/><circle class="cls-1" cx="243.21" cy="219.28" r="2.5"/><circle class="cls-1" cx="243.21" cy="211.5" r="2.5"/><circle class="cls-1" cx="243.21" cy="203.71" r="2.5"/><circle class="cls-1" cx="243.21" cy="195.92" r="2.5"/><circle class="cls-1" cx="243.21" cy="188.14" r="2.5"/><circle class="cls-1" cx="243.21" cy="266.01" r="2.5"/><circle class="cls-1" cx="239.55" cy="225.29" r="2.5"/><circle class="cls-1" cx="236.55" cy="216.5" r="2.5"/><circle class="cls-1" cx="236.55" cy="208.71" r="2.5"/><circle class="cls-1" cx="236.55" cy="200.92" r="2.5"/><circle class="cls-1" cx="236.55" cy="193.14" r="2.5"/><circle class="cls-1" cx="236.55" cy="271.01" r="2.5"/><circle class="cls-1" cx="229.3" cy="227.07" r="2.5"/><circle class="cls-1" cx="229.3" cy="219.28" r="2.5"/><circle class="cls-1" cx="229.3" cy="211.5" r="2.5"/><circle class="cls-1" cx="229.3" cy="203.71" r="2.5"/><circle class="cls-1" cx="229.3" cy="195.92" r="2.5"/><circle class="cls-1" cx="229.3" cy="188.14" r="2.5"/><circle class="cls-1" cx="229.3" cy="266.01" r="2.5"/><circle class="cls-1" cx="222.64" cy="224.29" r="2.5"/><circle class="cls-1" cx="222.64" cy="216.5" r="2.5"/><circle class="cls-1" cx="222.64" cy="208.71" r="2.5"/><circle class="cls-1" cx="222.64" cy="200.92" r="2.5"/><circle class="cls-1" cx="222.64" cy="193.14" r="2.5"/><circle class="cls-1" cx="222.64" cy="271.01" r="2.5"/><circle class="cls-1" cx="222.64" cy="263.22" r="2.5"/><circle class="cls-1" cx="215.44" cy="227.07" r="2.5"/><circle class="cls-1" cx="215.44" cy="219.28" r="2.5"/><circle class="cls-1" cx="215.44" cy="211.5" r="2.5"/><circle class="cls-1" cx="215.44" cy="203.71" r="2.5"/><circle class="cls-1" cx="215.44" cy="195.92" r="2.5"/><circle class="cls-1" cx="215.44" cy="266.01" r="2.5"/><circle class="cls-1" cx="215.44" cy="258.22" r="2.5"/><circle class="cls-1" cx="217.44" cy="250.43" r="2.5"/><circle class="cls-1" cx="215.44" cy="242.65" r="2.5"/><circle class="cls-1" cx="217.44" cy="234.86" r="2.5"/><circle class="cls-1" cx="208.78" cy="232.07" r="2.5"/><circle class="cls-1" cx="208.78" cy="200.92" r="2.5"/><circle class="cls-1" cx="205.31" cy="208.71" r="2.5"/><circle class="cls-1" cx="208.78" cy="193.14" r="2.5"/><circle class="cls-1" cx="208.78" cy="271.01" r="2.5"/><circle class="cls-1" cx="208.78" cy="263.22" r="2.5"/><circle class="cls-1" cx="208.78" cy="255.43" r="2.5"/><circle class="cls-1" cx="208.78" cy="247.65" r="2.5"/><circle class="cls-1" cx="208.78" cy="239.86" r="2.5"/><circle class="cls-1" cx="201.84" cy="203.71" r="2.5"/><circle class="cls-1" cx="201.84" cy="195.92" r="2.5"/><circle class="cls-1" cx="201.84" cy="266.01" r="2.5"/><circle class="cls-1" cx="201.84" cy="258.22" r="2.5"/><circle class="cls-1" cx="201.84" cy="250.43" r="2.5"/><circle class="cls-1" cx="201.84" cy="242.65" r="2.5"/><circle class="cls-1" cx="201.84" cy="234.86" r="2.5"/><circle class="cls-1" cx="195.18" cy="232.07" r="2.5"/><circle class="cls-1" cx="195.18" cy="208.71" r="2.5"/><circle class="cls-1" cx="195.18" cy="200.92" r="2.5"/><circle class="cls-1" cx="195.18" cy="271.01" r="2.5"/><circle class="cls-1" cx="195.18" cy="263.22" r="2.5"/><circle class="cls-1" cx="195.18" cy="255.43" r="2.5"/><circle class="cls-1" cx="195.18" cy="247.65" r="2.5"/><circle class="cls-1" cx="195.18" cy="239.86" r="2.5"/><circle class="cls-1" cx="187.98" cy="227.07" r="2.5"/><circle class="cls-1" cx="187.98" cy="219.28" r="2.5"/><circle class="cls-1" cx="187.98" cy="211.5" r="2.5"/><circle class="cls-1" cx="187.98" cy="203.71" r="2.5"/><circle class="cls-1" cx="187.98" cy="266.01" r="2.5"/><circle class="cls-1" cx="187.98" cy="258.22" r="2.5"/><circle class="cls-1" cx="187.98" cy="232.86" r="2.5"/><circle class="cls-1" cx="181.32" cy="232.07" r="2.5"/><circle class="cls-1" cx="181.32" cy="224.29" r="2.5"/><circle class="cls-1" cx="181.32" cy="216.5" r="2.5"/><circle class="cls-1" cx="181.32" cy="208.71" r="2.5"/><circle class="cls-1" cx="181.32" cy="200.92" r="2.5"/><circle class="cls-1" cx="181.32" cy="271.01" r="2.5"/><circle class="cls-1" cx="181.32" cy="263.22" r="2.5"/><circle class="cls-1" cx="173.98" cy="219.28" r="2.5"/><circle class="cls-1" cx="173.98" cy="211.5" r="2.5"/><circle class="cls-1" cx="173.98" cy="203.71" r="2.5"/><circle class="cls-1" cx="173.98" cy="266.01" r="2.5"/><circle class="cls-1" cx="173.98" cy="258.22" r="2.5"/><circle class="cls-1" cx="173.98" cy="234.86" r="2.5"/><circle class="cls-1" cx="167.32" cy="232.07" r="2.5"/><circle class="cls-1" cx="167.32" cy="224.29" r="2.5"/><circle class="cls-1" cx="167.32" cy="216.5" r="2.5"/><circle class="cls-1" cx="167.32" cy="208.71" r="2.5"/><circle class="cls-1" cx="167.32" cy="271.01" r="2.5"/><circle class="cls-1" cx="167.32" cy="263.22" r="2.5"/><circle class="cls-1" cx="167.32" cy="255.43" r="2.5"/><circle class="cls-1" cx="167.32" cy="247.65" r="2.5"/><circle class="cls-1" cx="167.32" cy="239.86" r="2.5"/><circle class="cls-1" cx="160.38" cy="227.07" r="2.5"/><circle class="cls-1" cx="160.38" cy="219.28" r="2.5"/><circle class="cls-1" cx="160.38" cy="211.5" r="2.5"/><circle class="cls-1" cx="160.38" cy="203.71" r="2.5"/><circle class="cls-1" cx="160.38" cy="266.01" r="2.5"/><circle class="cls-1" cx="160.38" cy="258.22" r="2.5"/><circle class="cls-1" cx="160.38" cy="250.43" r="2.5"/><circle class="cls-1" cx="160.38" cy="242.65" r="2.5"/><circle class="cls-1" cx="160.38" cy="234.86" r="2.5"/><circle class="cls-1" cx="154.72" cy="232.07" r="2.5"/><circle class="cls-1" cx="151.72" cy="218.5" r="2.5"/><circle class="cls-1" cx="153.72" cy="208.71" r="2.5"/><circle class="cls-1" cx="153.72" cy="271.01" r="2.5"/><circle class="cls-1" cx="153.72" cy="263.22" r="2.5"/><circle class="cls-1" cx="153.72" cy="255.43" r="2.5"/><circle class="cls-1" cx="153.72" cy="247.65" r="2.5"/><circle class="cls-1" cx="153.72" cy="239.86" r="2.5"/><circle class="cls-1" cx="146.52" cy="211.5" r="2.5"/><circle class="cls-1" cx="146.52" cy="266.01" r="2.5"/><circle class="cls-1" cx="146.52" cy="258.22" r="2.5"/><circle class="cls-1" cx="146.52" cy="250.43" r="2.5"/><circle class="cls-1" cx="146.52" cy="242.65" r="2.5"/><circle class="cls-1" cx="139.86" cy="216.5" r="2.5"/><circle class="cls-1" cx="139.86" cy="208.71" r="2.5"/><circle class="cls-1" cx="139.86" cy="271.01" r="2.5"/><circle class="cls-1" cx="139.86" cy="263.22" r="2.5"/><circle class="cls-1" cx="139.86" cy="255.43" r="2.5"/><circle class="cls-1" cx="139.86" cy="247.65" r="2.5"/><circle class="cls-1" cx="139.86" cy="239.86" r="2.5"/><circle class="cls-1" cx="132.45" cy="227.07" r="2.5"/><circle class="cls-1" cx="132.45" cy="219.28" r="2.5"/><circle class="cls-1" cx="132.45" cy="211.5" r="2.5"/><circle class="cls-1" cx="132.45" cy="266.01" r="2.5"/><circle class="cls-1" cx="132.45" cy="258.22" r="2.5"/><circle class="cls-1" cx="132.45" cy="250.43" r="2.5"/><circle class="cls-1" cx="132.45" cy="242.65" r="2.5"/><circle class="cls-1" cx="132.45" cy="234.86" r="2.5"/><circle class="cls-1" cx="125.79" cy="232.07" r="2.5"/><circle class="cls-1" cx="125.79" cy="224.29" r="2.5"/><circle class="cls-1" cx="125.79" cy="216.5" r="2.5"/><circle class="cls-1" cx="125.79" cy="208.71" r="2.5"/><circle class="cls-1" cx="125.79" cy="271.01" r="2.5"/><circle class="cls-1" cx="125.79" cy="263.22" r="2.5"/><circle class="cls-1" cx="125.79" cy="255.43" r="2.5"/><circle class="cls-1" cx="125.79" cy="247.65" r="2.5"/><circle class="cls-1" cx="125.79" cy="239.86" r="2.5"/><circle class="cls-1" cx="118.59" cy="227.07" r="2.5"/><circle class="cls-1" cx="118.59" cy="219.28" r="2.5"/><circle class="cls-1" cx="118.59" cy="211.5" r="2.5"/><circle class="cls-1" cx="118.59" cy="266.01" r="2.5"/><circle class="cls-1" cx="118.59" cy="242.65" r="2.5"/><circle class="cls-1" cx="118.59" cy="234.86" r="2.5"/><circle class="cls-1" cx="111.93" cy="232.07" r="2.5"/><circle class="cls-1" cx="111.93" cy="224.29" r="2.5"/><circle class="cls-1" cx="111.93" cy="216.5" r="2.5"/><circle class="cls-1" cx="111.93" cy="271.01" r="2.5"/><circle class="cls-1" cx="111.93" cy="239.86" r="2.5"/><circle class="cls-1" cx="104.99" cy="227.07" r="2.5"/><circle class="cls-1" cx="104.99" cy="219.28" r="2.5"/><circle class="cls-1" cx="104.99" cy="266.01" r="2.5"/><circle class="cls-1" cx="104.99" cy="243.65" r="2.5"/><circle class="cls-1" cx="104.99" cy="234.86" r="2.5"/><circle class="cls-1" cx="98.33" cy="232.07" r="2.5"/><circle class="cls-1" cx="98.33" cy="224.29" r="2.5"/><circle class="cls-1" cx="98.33" cy="271.01" r="2.5"/><circle class="cls-1" cx="98.33" cy="263.22" r="2.5"/><circle class="cls-1" cx="100.33" cy="255.43" r="2.5"/><circle class="cls-1" cx="98.33" cy="247.65" r="2.5"/><circle class="cls-1" cx="98.33" cy="239.86" r="2.5"/><circle class="cls-1" cx="91.13" cy="227.07" r="2.5"/><circle class="cls-1" cx="91.13" cy="266.01" r="2.5"/><circle class="cls-1" cx="91.13" cy="258.22" r="2.5"/><circle class="cls-1" cx="91.13" cy="250.43" r="2.5"/><circle class="cls-1" cx="91.13" cy="242.65" r="2.5"/><circle class="cls-1" cx="91.13" cy="234.86" r="2.5"/><circle class="cls-1" cx="84.47" cy="232.07" r="2.5"/><circle class="cls-1" cx="84.47" cy="271.01" r="2.5"/><circle class="cls-1" cx="84.47" cy="263.22" r="2.5"/><circle class="cls-1" cx="84.47" cy="255.43" r="2.5"/><circle class="cls-1" cx="84.47" cy="247.65" r="2.5"/><circle class="cls-1" cx="84.47" cy="239.86" r="2.5"/><circle class="cls-1" cx="73.22" cy="256.22" r="2.5"/><circle class="cls-1" cx="77.22" cy="250.43" r="2.5"/><circle class="cls-1" cx="77.22" cy="242.65" r="2.5"/><circle class="cls-1" cx="77.22" cy="234.86" r="2.5"/><circle class="cls-1" cx="70.56" cy="271.01" r="2.5"/><circle class="cls-1" cx="75.56" cy="264.22" r="2.5"/><circle class="cls-1" cx="70.56" cy="247.65" r="2.5"/><circle class="cls-1" cx="70.56" cy="239.86" r="2.5"/><circle class="cls-1" cx="63.36" cy="263.79" r="2.5"/><circle class="cls-1" cx="63.36" cy="256.22" r="2.5"/><circle class="cls-1" cx="63.36" cy="249.43" r="2.5"/><circle class="cls-1" cx="63.36" cy="242.65" r="2.5"/><circle class="cls-1" cx="56.7" cy="269.01" r="2.5"/><circle class="cls-1" cx="49.7" cy="263.22" r="2.5"/><circle class="cls-1" cx="54.7" cy="255.43" r="2.5"/><circle class="cls-1" cx="56.7" cy="247.65" r="2.5"/><circle class="cls-1" cx="560.15" cy="119.55" r="7.5"/><circle class="cls-1" cx="430.68" cy="227.07" r="7.5"/><circle class="cls-1" cx="576.27" cy="167.28" r="7.5"/><circle class="cls-1" cx="542.14" cy="86.9" r="7.5"/><circle class="cls-1" cx="303.3" cy="247.65" r="7.5"/><circle class="cls-1" cx="180.64" cy="247.93" r="7.5"/><circle class="cls-1" cx="113.59" cy="252.93" r="7.5"/><circle class="cls-1" cx="201.84" cy="221.78" r="7.5"/><circle class="cls-1" cx="144.02" cy="227.07" r="7.5"/><circle class="cls-1" cx="560.15" cy="53.26" r="7.5"/><circle class="cls-1" cx="335.76" cy="203.71" r="7.5"/><circle class="cls-1" cx="298.6" cy="188.14" r="7.5"/><circle class="cls-1" cx="401.56" cy="252.93" r="7.5"/><circle class="cls-1" cx="599.02" cy="182.85" r="7.5"/><circle class="cls-1" cx="585.42" cy="203.71" r="7.5"/><circle class="cls-1" cx="513.83" cy="193.42" r="7.5"/><circle class="cls-1" cx="531.85" cy="217.07" r="7.5"/><circle class="cls-1" cx="587.92" cy="79.12" r="7.5"/><circle class="cls-1" cx="601.52" cy="45.18" r="7.5"/><circle class="cls-1" cx="534.14" cy="150.41" r="20"/><circle class="cls-1" cx="403.22" cy="177.85" r="15"/><circle class="cls-1" cx="485.9" cy="120.05" r="15"/><circle class="cls-1" cx="286.18" cy="214.28" r="15"/><circle class="cls-1" cx="545.69" cy="245.65" r="15"/><circle class="cls-1" cx="592.37" cy="135.13" r="15"/><circle class="cls-1" cx="463.99" cy="166.28" r="15"/><circle class="cls-1" cx="592.92" cy="232.36" r="20"/><circle class="cls-1" cx="487.85" cy="236.57" r="20"/><circle class="cls-1" cx="346.87" cy="241.15" r="15"/><circle class="cls-1" cx="236.55" cy="245.15" r="15"/></g><g id="圖層_1" data-name="圖層 1"><g id="萬人" class="cls-2"><g class="cls-2"><path d="M5.19,3.71H1.92v-.6H5.19V2.16h.66v.95H7.72v.6H5.85v1H5.19ZM13.47,14c0,.4-.09.58-.4.69a7.51,7.51,0,0,1-1.9.11,2.1,2.1,0,0,0-.22-.57h1.61c.19,0,.25-.06.25-.23V10.69H8.31v1.76l2.24-.1a9.74,9.74,0,0,0-.85-1l.52-.22a8.39,8.39,0,0,1,1.71,2.48l-.54.24a4.75,4.75,0,0,0-.46-.89c-2.39.13-4.87.26-6.54.33l0-.63,3.32-.13V10.69H3.28v4.16H2.62V10.69H2.05V10.1h.57V9.52h.66v.58H7.67v-1H3.55V5h9v4.1H8.31v1h5.16ZM4.19,6.74H7.67V5.49H4.19ZM7.67,8.52V7.27H4.19V8.52Zm6.39-5.41v.6H10.74v1h-.66v-1H8.27v-.6h1.81V2.16h.66v.95Zm-2.2,2.38H8.31V6.74h3.55Zm0,1.78H8.31V8.52h3.55Z"/><path d="M22.41,2.23c0,.44,0,1.12-.08,1.92.19,1.4,1,7.8,6.06,10a2.27,2.27,0,0,0-.49.54c-3.85-1.76-5.27-5.88-5.85-8.5-.55,3-2,6.63-5.79,8.55a2.68,2.68,0,0,0-.52-.49c5.9-2.89,5.93-10.06,6-12.06Z"/></g></g><line id="Line_48" data-name="Line 48" class="cls-3" x1="34" y1="272.8" x2="624" y2="272.8"/><g class="cls-2"><path class="cls-4" d="M110.92,300.8H103v-1.11l4.18-4.64a9.88,9.88,0,0,0,1.28-1.72,2.78,2.78,0,0,0,.35-1.36,2.19,2.19,0,0,0-.57-1.56,2,2,0,0,0-1.53-.6,2.36,2.36,0,0,0-1.78.65,2.49,2.49,0,0,0-.63,1.81h-1.54a3.57,3.57,0,0,1,1.08-2.7,4,4,0,0,1,2.87-1,3.82,3.82,0,0,1,2.67.88,3,3,0,0,1,1,2.35q0,1.79-2.28,4.25l-3.23,3.51h6.06Z"/><path class="cls-4" d="M120.13,295.64a7,7,0,0,1-.92,4,3.84,3.84,0,0,1-5.75,0,6.71,6.71,0,0,1-1-3.83V293.8a6.89,6.89,0,0,1,.92-4,3.91,3.91,0,0,1,5.76,0,6.63,6.63,0,0,1,.95,3.86Zm-1.54-2.1a5.67,5.67,0,0,0-.54-2.84,1.91,1.91,0,0,0-1.74-.89,1.86,1.86,0,0,0-1.72.89,5.47,5.47,0,0,0-.55,2.73v2.45a5.74,5.74,0,0,0,.57,2.9,1.88,1.88,0,0,0,1.72.93,1.85,1.85,0,0,0,1.69-.88,5.43,5.43,0,0,0,.57-2.77Z"/><path class="cls-4" d="M127.14,300.8H125.6V290.56l-3.1,1.14v-1.39l4.4-1.66h.24Z"/><path class="cls-4" d="M139.56,300.8h-7.92v-1.11l4.19-4.64a10.44,10.44,0,0,0,1.28-1.72,2.9,2.9,0,0,0,.35-1.36,2.19,2.19,0,0,0-.57-1.56,2,2,0,0,0-1.53-.6,2.36,2.36,0,0,0-1.78.65,2.49,2.49,0,0,0-.63,1.81h-1.54a3.57,3.57,0,0,1,1.08-2.7,4,4,0,0,1,2.87-1,3.84,3.84,0,0,1,2.67.88,3,3,0,0,1,1,2.35q0,1.79-2.28,4.25l-3.24,3.51h6.07Z"/></g><g class="cls-2"><path class="cls-4" d="M231.92,300.8H224v-1.11l4.18-4.64a9.88,9.88,0,0,0,1.28-1.72,2.78,2.78,0,0,0,.35-1.36,2.19,2.19,0,0,0-.57-1.56,2,2,0,0,0-1.53-.6,2.36,2.36,0,0,0-1.78.65,2.49,2.49,0,0,0-.63,1.81h-1.54a3.57,3.57,0,0,1,1.08-2.7,4,4,0,0,1,2.87-1,3.82,3.82,0,0,1,2.67.88,3,3,0,0,1,1,2.35q0,1.79-2.28,4.25l-3.23,3.51h6.06Z"/><path class="cls-4" d="M241.13,295.64a7,7,0,0,1-.92,4,3.84,3.84,0,0,1-5.75,0,6.63,6.63,0,0,1-1-3.83V293.8a6.89,6.89,0,0,1,.92-4,3.91,3.91,0,0,1,5.76,0,6.63,6.63,0,0,1,.95,3.86Zm-1.54-2.1a5.67,5.67,0,0,0-.54-2.84,1.91,1.91,0,0,0-1.74-.89,1.86,1.86,0,0,0-1.72.89,5.47,5.47,0,0,0-.55,2.73v2.45a5.74,5.74,0,0,0,.57,2.9,1.87,1.87,0,0,0,1.72.93,1.85,1.85,0,0,0,1.69-.88,5.43,5.43,0,0,0,.57-2.77Z"/><path class="cls-4" d="M248.14,300.8H246.6V290.56l-3.1,1.14v-1.39l4.4-1.66h.24Z"/><path class="cls-4" d="M259.13,296.74h1.67V298h-1.67v2.81h-1.55V298h-5.5v-.9l5.41-8.38h1.64Zm-5.31,0h3.76v-5.93l-.18.33Z"/></g><g class="cls-2"><path class="cls-4" d="M353.92,300.8H346v-1.11l4.19-4.64a9.88,9.88,0,0,0,1.28-1.72,2.78,2.78,0,0,0,.35-1.36,2.19,2.19,0,0,0-.57-1.56,2,2,0,0,0-1.53-.6,2.36,2.36,0,0,0-1.78.65,2.49,2.49,0,0,0-.63,1.81h-1.54a3.57,3.57,0,0,1,1.08-2.7,4,4,0,0,1,2.87-1,3.82,3.82,0,0,1,2.67.88,3,3,0,0,1,1,2.35q0,1.79-2.28,4.25l-3.23,3.51h6.06Z"/><path class="cls-4" d="M363.13,295.64a7,7,0,0,1-.92,4,3.84,3.84,0,0,1-5.75,0,6.63,6.63,0,0,1-1-3.83V293.8a6.89,6.89,0,0,1,.92-4,3.91,3.91,0,0,1,5.76,0,6.63,6.63,0,0,1,.95,3.86Zm-1.54-2.1a5.67,5.67,0,0,0-.54-2.84,1.91,1.91,0,0,0-1.74-.89,1.86,1.86,0,0,0-1.72.89,5.47,5.47,0,0,0-.55,2.73v2.45a5.74,5.74,0,0,0,.57,2.9,1.87,1.87,0,0,0,1.72.93,1.85,1.85,0,0,0,1.69-.88,5.54,5.54,0,0,0,.57-2.77Z"/><path class="cls-4" d="M370.14,300.8H368.6V290.56l-3.1,1.14v-1.39l4.4-1.66h.24Z"/><path class="cls-4" d="M380.67,288.7V290h-.28a4,4,0,0,0-2.86,1.06,4.42,4.42,0,0,0-1.23,2.9,3.27,3.27,0,0,1,2.61-1.1,3.14,3.14,0,0,1,2.52,1.11,4.87,4.87,0,0,1-.08,5.86,3.75,3.75,0,0,1-5.54-.21,5.27,5.27,0,0,1-1.08-3.43v-.59a8,8,0,0,1,1.43-5.1,5.23,5.23,0,0,1,4.24-1.81Zm-2,5.45a2.57,2.57,0,0,0-2.37,1.66v.56a4,4,0,0,0,.67,2.41,2,2,0,0,0,1.68.91,2,2,0,0,0,1.63-.76,3.21,3.21,0,0,0,.59-2,3.16,3.16,0,0,0-.6-2A1.9,1.9,0,0,0,378.65,294.15Z"/></g><g class="cls-2"><path class="cls-4" d="M475.92,300.8H468v-1.11l4.19-4.64a9.88,9.88,0,0,0,1.28-1.72,2.78,2.78,0,0,0,.35-1.36,2.19,2.19,0,0,0-.57-1.56,2,2,0,0,0-1.53-.6,2.36,2.36,0,0,0-1.78.65,2.49,2.49,0,0,0-.63,1.81h-1.54a3.57,3.57,0,0,1,1.08-2.7,4,4,0,0,1,2.87-1,3.82,3.82,0,0,1,2.67.88,3,3,0,0,1,1,2.35q0,1.79-2.28,4.25l-3.23,3.51h6.06Z"/><path class="cls-4" d="M485.13,295.64a7,7,0,0,1-.92,4,3.84,3.84,0,0,1-5.75,0,6.63,6.63,0,0,1-1-3.83V293.8a6.89,6.89,0,0,1,.92-4,3.91,3.91,0,0,1,5.76,0,6.63,6.63,0,0,1,.95,3.86Zm-1.54-2.1a5.67,5.67,0,0,0-.54-2.84,1.91,1.91,0,0,0-1.74-.89,1.86,1.86,0,0,0-1.72.89,5.47,5.47,0,0,0-.55,2.73v2.45a5.87,5.87,0,0,0,.56,2.9,1.9,1.9,0,0,0,1.73.93,1.85,1.85,0,0,0,1.69-.88,5.54,5.54,0,0,0,.57-2.77Z"/><path class="cls-4" d="M492.14,300.8H490.6V290.56l-3.1,1.14v-1.39l4.4-1.66h.24Z"/><path class="cls-4" d="M504,291.87a2.8,2.8,0,0,1-.48,1.61,3.17,3.17,0,0,1-1.29,1.1,3.48,3.48,0,0,1,1.5,1.19,3,3,0,0,1,.55,1.77A3.16,3.16,0,0,1,503.2,300a4.65,4.65,0,0,1-5.58,0,3.16,3.16,0,0,1-1.05-2.49,3.1,3.1,0,0,1,.53-1.77,3.32,3.32,0,0,1,1.48-1.2,3.16,3.16,0,0,1-1.27-1.1,2.85,2.85,0,0,1-.46-1.6,3.15,3.15,0,0,1,1-2.43,4.18,4.18,0,0,1,5.16,0A3.15,3.15,0,0,1,504,291.87Zm-1.25,5.63a2.2,2.2,0,0,0-2.33-2.29,2.16,2.16,0,0,0-2.29,2.29,2.16,2.16,0,0,0,.61,1.62,2.37,2.37,0,0,0,1.7.59,2.35,2.35,0,0,0,1.69-.59A2.16,2.16,0,0,0,502.72,297.5Zm-2.31-7.69a1.94,1.94,0,0,0-1.46.56,2,2,0,0,0-.56,1.52,2,2,0,0,0,.55,1.49,2,2,0,0,0,1.47.57,1.93,1.93,0,0,0,1.47-.57,2.05,2.05,0,0,0,.56-1.49,2,2,0,0,0-.58-1.5A1.93,1.93,0,0,0,500.41,289.81Z"/></g><g class="cls-2"><path class="cls-4" d="M594.92,300.8H587v-1.11l4.19-4.64a9.88,9.88,0,0,0,1.28-1.72,2.78,2.78,0,0,0,.35-1.36,2.19,2.19,0,0,0-.57-1.56,2,2,0,0,0-1.53-.6,2.36,2.36,0,0,0-1.78.65,2.49,2.49,0,0,0-.63,1.81h-1.54a3.57,3.57,0,0,1,1.08-2.7,4,4,0,0,1,2.87-1,3.84,3.84,0,0,1,2.67.88,3,3,0,0,1,1,2.35q0,1.79-2.28,4.25l-3.23,3.51h6.06Z"/><path class="cls-4" d="M604.13,295.64a7,7,0,0,1-.92,4,3.84,3.84,0,0,1-5.75,0,6.63,6.63,0,0,1-1-3.83V293.8a6.89,6.89,0,0,1,.92-4,3.91,3.91,0,0,1,5.76,0,6.63,6.63,0,0,1,1,3.86Zm-1.54-2.1a5.55,5.55,0,0,0-.55-2.84,1.88,1.88,0,0,0-1.73-.89,1.86,1.86,0,0,0-1.72.89,5.47,5.47,0,0,0-.55,2.73v2.45a5.87,5.87,0,0,0,.56,2.9,1.9,1.9,0,0,0,1.73.93,1.85,1.85,0,0,0,1.69-.88,5.54,5.54,0,0,0,.57-2.77Z"/><path class="cls-4" d="M614,300.8H606.1v-1.11l4.18-4.64a9.88,9.88,0,0,0,1.28-1.72,2.8,2.8,0,0,0,.36-1.36,2.2,2.2,0,0,0-.58-1.56,2,2,0,0,0-1.53-.6,2.36,2.36,0,0,0-1.78.65,2.49,2.49,0,0,0-.63,1.81h-1.54a3.57,3.57,0,0,1,1.08-2.7,4,4,0,0,1,2.87-1,3.82,3.82,0,0,1,2.67.88,3,3,0,0,1,1,2.35q0,1.79-2.28,4.25L608,299.54H614Z"/><path class="cls-4" d="M623.22,295.64a7,7,0,0,1-.92,4,3.26,3.26,0,0,1-2.88,1.31,3.3,3.3,0,0,1-2.87-1.28,6.71,6.71,0,0,1-1-3.83V293.8a6.89,6.89,0,0,1,.92-4,3.91,3.91,0,0,1,5.76,0,6.63,6.63,0,0,1,1,3.86Zm-1.53-2.1a5.66,5.66,0,0,0-.55-2.84,1.91,1.91,0,0,0-1.74-.89,1.86,1.86,0,0,0-1.72.89,5.47,5.47,0,0,0-.55,2.73v2.45a5.74,5.74,0,0,0,.57,2.9,1.88,1.88,0,0,0,1.72.93,1.85,1.85,0,0,0,1.69-.88,5.52,5.52,0,0,0,.58-2.77Z"/></g><g class="cls-2"><path class="cls-4" d="M4.24,29H5.39a2.57,2.57,0,0,0,1.71-.58,1.89,1.89,0,0,0,.62-1.5,1.87,1.87,0,0,0-2.11-2.12A2.18,2.18,0,0,0,4,25.37a2,2,0,0,0-.6,1.51H1.89a3.1,3.1,0,0,1,1.05-2.39,3.84,3.84,0,0,1,2.67-.95,3.8,3.8,0,0,1,2.68.91,3.25,3.25,0,0,1,1,2.51,2.65,2.65,0,0,1-.51,1.53,3.1,3.1,0,0,1-1.39,1.1A3,3,0,0,1,8.9,30.64a2.93,2.93,0,0,1,.54,1.79A3.3,3.3,0,0,1,8.38,35a4,4,0,0,1-2.76,1A4.1,4.1,0,0,1,2.85,35a3.06,3.06,0,0,1-1.07-2.43H3.32A2,2,0,0,0,4,34.14a2.37,2.37,0,0,0,1.67.57,2.36,2.36,0,0,0,1.7-.58,2.27,2.27,0,0,0,.59-1.67,2.05,2.05,0,0,0-.65-1.62,2.81,2.81,0,0,0-1.87-.58H4.24Z"/><path class="cls-4" d="M18.88,26.86a2.78,2.78,0,0,1-.48,1.61,3.33,3.33,0,0,1-1.29,1.11,3.41,3.41,0,0,1,1.5,1.19,2.94,2.94,0,0,1,.55,1.76A3.14,3.14,0,0,1,18.1,35a4,4,0,0,1-2.78.93A4.05,4.05,0,0,1,12.53,35a3.2,3.2,0,0,1-1-2.5A3,3,0,0,1,12,30.77a3.32,3.32,0,0,1,1.48-1.2,3.24,3.24,0,0,1-1.27-1.1,2.86,2.86,0,0,1-.46-1.61,3.11,3.11,0,0,1,1-2.42,3.65,3.65,0,0,1,2.58-.9,3.69,3.69,0,0,1,2.58.9A3.14,3.14,0,0,1,18.88,26.86ZM17.63,32.5A2.21,2.21,0,0,0,17,30.85a2.27,2.27,0,0,0-1.68-.64A2.16,2.16,0,0,0,13,32.5a2.13,2.13,0,0,0,.61,1.62,2.36,2.36,0,0,0,1.7.59,2.31,2.31,0,0,0,1.69-.6A2.12,2.12,0,0,0,17.63,32.5Zm-2.31-7.69a2,2,0,0,0-1.47.56,2.3,2.3,0,0,0,0,3,1.93,1.93,0,0,0,1.47.57,2,2,0,0,0,1.47-.57,2.28,2.28,0,0,0,0-3A1.93,1.93,0,0,0,15.32,24.81Z"/><path class="cls-4" d="M28.67,30.64a7,7,0,0,1-.92,4A3.28,3.28,0,0,1,24.87,36,3.3,3.3,0,0,1,22,34.68a6.66,6.66,0,0,1-1-3.83V28.8a6.81,6.81,0,0,1,.92-4,3.3,3.3,0,0,1,2.89-1.3,3.34,3.34,0,0,1,2.87,1.25,6.64,6.64,0,0,1,.94,3.86Zm-1.53-2.1a5.55,5.55,0,0,0-.55-2.84,1.86,1.86,0,0,0-1.73-.89,1.86,1.86,0,0,0-1.72.88,5.51,5.51,0,0,0-.56,2.73v2.46a5.68,5.68,0,0,0,.57,2.89,2.05,2.05,0,0,0,3.41.06,5.52,5.52,0,0,0,.58-2.77Z"/></g><g class="cls-2"><path class="cls-4" d="M4.24,109H5.39a2.52,2.52,0,0,0,1.71-.57,2.13,2.13,0,0,0-1.49-3.63,2.18,2.18,0,0,0-1.59.57,2,2,0,0,0-.6,1.51H1.89a3.1,3.1,0,0,1,1.05-2.39,3.84,3.84,0,0,1,2.67-.95,3.75,3.75,0,0,1,2.68.91,3.25,3.25,0,0,1,1,2.51,2.65,2.65,0,0,1-.51,1.53,3.1,3.1,0,0,1-1.39,1.1,3,3,0,0,1,1.54,1,2.92,2.92,0,0,1,.54,1.78A3.31,3.31,0,0,1,8.38,115a4,4,0,0,1-2.76.95A4.1,4.1,0,0,1,2.85,115a3.06,3.06,0,0,1-1.07-2.43H3.32A2,2,0,0,0,4,114.13a2.33,2.33,0,0,0,1.67.58,2.36,2.36,0,0,0,1.7-.58,2.27,2.27,0,0,0,.59-1.67,2,2,0,0,0-.65-1.62,2.81,2.81,0,0,0-1.87-.58H4.24Z"/><path class="cls-4" d="M17.58,103.7V105h-.29a4.06,4.06,0,0,0-2.85,1.07A4.39,4.39,0,0,0,13.21,109a3.29,3.29,0,0,1,2.61-1.09A3.14,3.14,0,0,1,18.34,109a4.33,4.33,0,0,1,.94,2.87,4.27,4.27,0,0,1-1,3A3.5,3.5,0,0,1,15.53,116a3.44,3.44,0,0,1-2.81-1.33,5.27,5.27,0,0,1-1.08-3.43v-.59a7.93,7.93,0,0,1,1.43-5.1,5.21,5.21,0,0,1,4.23-1.81Zm-2,5.45a2.57,2.57,0,0,0-2.37,1.66v.56a4,4,0,0,0,.67,2.41,2,2,0,0,0,1.67.91,2,2,0,0,0,1.64-.76,3.69,3.69,0,0,0,0-4A1.93,1.93,0,0,0,15.56,109.15Z"/><path class="cls-4" d="M28.67,110.64a7,7,0,0,1-.92,4A3.28,3.28,0,0,1,24.87,116,3.3,3.3,0,0,1,22,114.68a6.66,6.66,0,0,1-1-3.83v-2a6.81,6.81,0,0,1,.92-4,3.28,3.28,0,0,1,2.89-1.3,3.34,3.34,0,0,1,2.87,1.25,6.62,6.62,0,0,1,.94,3.86Zm-1.53-2.1a5.55,5.55,0,0,0-.55-2.84,1.87,1.87,0,0,0-1.73-.9,1.87,1.87,0,0,0-1.72.89,5.46,5.46,0,0,0-.56,2.73v2.46a5.68,5.68,0,0,0,.57,2.89,2.05,2.05,0,0,0,3.41.06,5.54,5.54,0,0,0,.58-2.78Z"/></g><g class="cls-2"><path class="cls-4" d="M4.24,189.8H5.39a2.52,2.52,0,0,0,1.71-.57,2.13,2.13,0,0,0-1.49-3.63,2.18,2.18,0,0,0-1.59.57,2,2,0,0,0-.6,1.51H1.89a3.1,3.1,0,0,1,1.05-2.39,3.84,3.84,0,0,1,2.67-.95,3.75,3.75,0,0,1,2.68.91,3.25,3.25,0,0,1,1,2.51,2.65,2.65,0,0,1-.51,1.53,3.1,3.1,0,0,1-1.39,1.1,3,3,0,0,1,1.54,1.05,2.92,2.92,0,0,1,.54,1.78,3.27,3.27,0,0,1-1.06,2.58,4,4,0,0,1-2.76,1,4.1,4.1,0,0,1-2.77-.92,3.08,3.08,0,0,1-1.07-2.43H3.32A2,2,0,0,0,4,194.93a2.37,2.37,0,0,0,1.67.58,2.36,2.36,0,0,0,1.7-.58,2.27,2.27,0,0,0,.59-1.67,2,2,0,0,0-.65-1.62,2.81,2.81,0,0,0-1.87-.58H4.24Z"/><path class="cls-4" d="M18,192.53h1.68v1.26H18v2.8H16.49v-2.8H11v-.91l5.41-8.37H18Zm-5.3,0h3.76v-5.92l-.18.33Z"/><path class="cls-4" d="M28.67,191.44a7,7,0,0,1-.92,4,3.28,3.28,0,0,1-2.88,1.31A3.3,3.3,0,0,1,22,195.48a6.66,6.66,0,0,1-1-3.83V189.6a6.81,6.81,0,0,1,.92-4,3.28,3.28,0,0,1,2.89-1.3,3.34,3.34,0,0,1,2.87,1.25,6.62,6.62,0,0,1,.94,3.86Zm-1.53-2.1a5.55,5.55,0,0,0-.55-2.84,1.87,1.87,0,0,0-1.73-.9,1.87,1.87,0,0,0-1.72.89,5.46,5.46,0,0,0-.56,2.73v2.46a5.7,5.7,0,0,0,.57,2.89,2.05,2.05,0,0,0,3.41.06,5.57,5.57,0,0,0,.58-2.78Z"/></g><g class="cls-2"><path class="cls-4" d="M4.24,272H5.39a2.47,2.47,0,0,0,1.71-.58,1.89,1.89,0,0,0,.62-1.5,1.87,1.87,0,0,0-2.11-2.12,2.18,2.18,0,0,0-1.59.57,2,2,0,0,0-.6,1.5H1.89a3.08,3.08,0,0,1,1.05-2.38,3.8,3.8,0,0,1,2.67-.95,3.79,3.79,0,0,1,2.68.9,3.26,3.26,0,0,1,1,2.52,2.64,2.64,0,0,1-.51,1.52,3.19,3.19,0,0,1-1.39,1.11,3,3,0,0,1,1.54,1,2.93,2.93,0,0,1,.54,1.79A3.3,3.3,0,0,1,8.38,278a4,4,0,0,1-2.76.95A4,4,0,0,1,2.85,278a3,3,0,0,1-1.07-2.43H3.32A2,2,0,0,0,4,277.14a2.37,2.37,0,0,0,1.67.57,2.32,2.32,0,0,0,1.7-.58,2.25,2.25,0,0,0,.59-1.67,2.05,2.05,0,0,0-.65-1.62,2.86,2.86,0,0,0-1.87-.58H4.24Z"/><path class="cls-4" d="M19.47,278.8H11.55v-1.11l4.18-4.64A10.62,10.62,0,0,0,17,271.33a2.9,2.9,0,0,0,.35-1.36,2.19,2.19,0,0,0-.57-1.56,2,2,0,0,0-1.53-.6,2.35,2.35,0,0,0-1.78.65,2.5,2.5,0,0,0-.64,1.81H11.32a3.6,3.6,0,0,1,1.07-2.7,4,4,0,0,1,2.88-1,3.81,3.81,0,0,1,2.66.88,3,3,0,0,1,1,2.35q0,1.79-2.27,4.25l-3.24,3.51h6.07Z"/><path class="cls-4" d="M28.67,273.64a7,7,0,0,1-.92,4A3.25,3.25,0,0,1,24.87,279,3.28,3.28,0,0,1,22,277.68a6.63,6.63,0,0,1-1-3.83V271.8a6.81,6.81,0,0,1,.92-4,3.29,3.29,0,0,1,2.89-1.29,3.34,3.34,0,0,1,2.87,1.24,6.64,6.64,0,0,1,.94,3.86Zm-1.53-2.1a5.55,5.55,0,0,0-.55-2.84,1.88,1.88,0,0,0-1.73-.89,1.85,1.85,0,0,0-1.72.89,5.46,5.46,0,0,0-.56,2.73v2.45a5.74,5.74,0,0,0,.57,2.9,1.88,1.88,0,0,0,1.72.93,1.85,1.85,0,0,0,1.69-.88,5.52,5.52,0,0,0,.58-2.77Z"/></g></g></svg>