<svg xmlns="http://www.w3.org/2000/svg" viewBox="0 0 624 365.93"><defs><style>.cls-1{fill:#f9f55f;}.cls-2{isolation:isolate;}.cls-3{fill:none;stroke:#707070;stroke-width:2px;}.cls-4{fill:#333;}</style></defs><g id="圖層_5" data-name="圖層 5"><circle class="cls-1" cx="615.3" cy="146.43" r="2.5"/><circle class="cls-1" cx="615.3" cy="138.65" r="2.5"/><circle class="cls-1" cx="618.3" cy="123.07" r="2.5"/><circle class="cls-1" cx="615.3" cy="115.29" r="2.5"/><circle class="cls-1" cx="615.3" cy="107.5" r="2.5"/><circle class="cls-1" cx="617.3" cy="193.16" r="2.5"/><circle class="cls-1" cx="615.3" cy="182.87" r="2.5"/><circle class="cls-1" cx="615.3" cy="172.58" r="2.5"/><circle class="cls-1" cx="618.3" cy="154.22" r="2.5"/><circle class="cls-1" cx="615.3" cy="99.71" r="2.5"/><circle class="cls-1" cx="617.3" cy="91.92" r="2.5"/><circle class="cls-1" cx="615.3" cy="84.14" r="2.5"/><circle class="cls-1" cx="611.3" cy="76.35" r="2.5"/><circle class="cls-1" cx="615.3" cy="68.56" r="2.5"/><circle class="cls-1" cx="615.3" cy="60.78" r="2.5"/><circle class="cls-1" cx="615.3" cy="52.99" r="2.5"/><circle class="cls-1" cx="615.3" cy="45.49" r="2.5"/><circle class="cls-1" cx="611.3" cy="286.6" r="2.5"/><circle class="cls-1" cx="615.3" cy="278.81" r="2.5"/><circle class="cls-1" cx="617.3" cy="271.03" r="2.5"/><circle class="cls-1" cx="615.3" cy="263.24" r="2.5"/><circle class="cls-1" cx="616.3" cy="251.45" r="2.5"/><circle class="cls-1" cx="617.3" cy="325.54" r="2.5"/><circle class="cls-1" cx="615.3" cy="317.75" r="2.5"/><circle class="cls-1" cx="616.3" cy="308.96" r="2.5"/><circle class="cls-1" cx="619.3" cy="301.18" r="2.5"/><circle class="cls-1" cx="616.3" cy="293.39" r="2.5"/><circle class="cls-1" cx="615.3" cy="239.88" r="2.5"/><circle class="cls-1" cx="615.3" cy="232.09" r="2.5"/><circle class="cls-1" cx="617.3" cy="224.3" r="2.5"/><circle class="cls-1" cx="615.3" cy="216.52" r="2.5"/><circle class="cls-1" cx="615.3" cy="208.73" r="2.5"/><circle class="cls-1" cx="613.3" cy="200.94" r="2.5"/><circle class="cls-1" cx="608.1" cy="141.43" r="2.5"/><circle class="cls-1" cx="608.1" cy="133.65" r="2.5"/><circle class="cls-1" cx="608.1" cy="125.86" r="2.5"/><circle class="cls-1" cx="608.1" cy="118.07" r="2.5"/><circle class="cls-1" cx="608.1" cy="102.5" r="2.5"/><circle class="cls-1" cx="608.1" cy="188.16" r="2.5"/><circle class="cls-1" cx="608.1" cy="180.37" r="2.5"/><circle class="cls-1" cx="608.1" cy="172.58" r="2.5"/><circle class="cls-1" cx="610.1" cy="163.79" r="2.5"/><circle class="cls-1" cx="608.1" cy="157.01" r="2.5"/><circle class="cls-1" cx="608.1" cy="94.71" r="2.5"/><circle class="cls-1" cx="608.1" cy="86.92" r="2.5"/><circle class="cls-1" cx="608.1" cy="55.78" r="2.5"/><circle class="cls-1" cx="608.1" cy="47.99" r="2.5"/><circle class="cls-1" cx="607.1" cy="273.81" r="2.5"/><circle class="cls-1" cx="608.1" cy="266.03" r="2.5"/><circle class="cls-1" cx="608.1" cy="258.24" r="2.5"/><circle class="cls-1" cx="608.1" cy="250.45" r="2.5"/><circle class="cls-1" cx="608.1" cy="242.67" r="2.5"/><circle class="cls-1" cx="608.1" cy="328.32" r="2.5"/><circle class="cls-1" cx="608.1" cy="320.54" r="2.5"/><circle class="cls-1" cx="608.1" cy="312.75" r="2.5"/><circle class="cls-1" cx="608.1" cy="304.96" r="2.5"/><circle class="cls-1" cx="608.1" cy="234.88" r="2.5"/><circle class="cls-1" cx="608.1" cy="227.09" r="2.5"/><circle class="cls-1" cx="608.1" cy="219.3" r="2.5"/><circle class="cls-1" cx="608.1" cy="211.52" r="2.5"/><circle class="cls-1" cx="606.1" cy="202.73" r="2.5"/><circle class="cls-1" cx="601.44" cy="130.86" r="2.5"/><circle class="cls-1" cx="601.44" cy="123.07" r="2.5"/><circle class="cls-1" cx="601.44" cy="115.29" r="2.5"/><circle class="cls-1" cx="601.44" cy="107.5" r="2.5"/><circle class="cls-1" cx="601.44" cy="185.37" r="2.5"/><circle class="cls-1" cx="601.44" cy="177.58" r="2.5"/><circle class="cls-1" cx="601.44" cy="169.8" r="2.5"/><circle class="cls-1" cx="601.44" cy="162.01" r="2.5"/><circle class="cls-1" cx="601.44" cy="154.22" r="2.5"/><circle class="cls-1" cx="601.44" cy="99.71" r="2.5"/><circle class="cls-1" cx="601.44" cy="91.92" r="2.5"/><circle class="cls-1" cx="601.44" cy="84.14" r="2.5"/><circle class="cls-1" cx="601.44" cy="76.35" r="2.5"/><circle class="cls-1" cx="601.44" cy="60.78" r="2.5"/><circle class="cls-1" cx="601.44" cy="52.99" r="2.5"/><circle class="cls-1" cx="601.44" cy="263.24" r="2.5"/><circle class="cls-1" cx="601.44" cy="255.45" r="2.5"/><circle class="cls-1" cx="601.44" cy="247.67" r="2.5"/><circle class="cls-1" cx="601.44" cy="324.54" r="2.5"/><circle class="cls-1" cx="601.44" cy="313.75" r="2.5"/><circle class="cls-1" cx="601.44" cy="302.18" r="2.5"/><circle class="cls-1" cx="601.44" cy="239.88" r="2.5"/><circle class="cls-1" cx="601.44" cy="232.09" r="2.5"/><circle class="cls-1" cx="601.44" cy="224.3" r="2.5"/><circle class="cls-1" cx="601.44" cy="216.52" r="2.5"/><circle class="cls-1" cx="594.5" cy="125.86" r="2.5"/><circle class="cls-1" cx="594.5" cy="118.07" r="2.5"/><circle class="cls-1" cx="594.5" cy="110.29" r="2.5"/><circle class="cls-1" cx="591.5" cy="102.5" r="2.5"/><circle class="cls-1" cx="594.5" cy="172.58" r="2.5"/><circle class="cls-1" cx="594.5" cy="164.8" r="2.5"/><circle class="cls-1" cx="594.5" cy="157.01" r="2.5"/><circle class="cls-1" cx="594.5" cy="94.71" r="2.5"/><circle class="cls-1" cx="594.5" cy="86.92" r="2.5"/><circle class="cls-1" cx="595.5" cy="55.78" r="2.5"/><circle class="cls-1" cx="594.5" cy="266.03" r="2.5"/><circle class="cls-1" cx="594.5" cy="250.45" r="2.5"/><circle class="cls-1" cx="594.5" cy="242.67" r="2.5"/><circle class="cls-1" cx="594.5" cy="328.32" r="2.5"/><circle class="cls-1" cx="594.5" cy="319.54" r="2.5"/><circle class="cls-1" cx="594.5" cy="234.88" r="2.5"/><circle class="cls-1" cx="594.5" cy="227.09" r="2.5"/><circle class="cls-1" cx="587.84" cy="130.86" r="2.5"/><circle class="cls-1" cx="587.84" cy="123.07" r="2.5"/><circle class="cls-1" cx="587.84" cy="115.29" r="2.5"/><circle class="cls-1" cx="587.84" cy="177.58" r="2.5"/><circle class="cls-1" cx="587.84" cy="169.8" r="2.5"/><circle class="cls-1" cx="587.84" cy="162.01" r="2.5"/><circle class="cls-1" cx="587.84" cy="154.22" r="2.5"/><circle class="cls-1" cx="587.84" cy="91.92" r="2.5"/><circle class="cls-1" cx="587.84" cy="84.14" r="2.5"/><circle class="cls-1" cx="587.84" cy="76.35" r="2.5"/><circle class="cls-1" cx="587.84" cy="68.56" r="2.5"/><circle class="cls-1" cx="589.84" cy="61.78" r="2.5"/><circle class="cls-1" cx="587.84" cy="263.24" r="2.5"/><circle class="cls-1" cx="587.84" cy="255.45" r="2.5"/><circle class="cls-1" cx="587.84" cy="247.67" r="2.5"/><circle class="cls-1" cx="587.84" cy="324.54" r="2.5"/><circle class="cls-1" cx="587.84" cy="315.75" r="2.5"/><circle class="cls-1" cx="587.84" cy="232.09" r="2.5"/><circle class="cls-1" cx="587.84" cy="224.3" r="2.5"/><circle class="cls-1" cx="580.64" cy="141.43" r="2.5"/><circle class="cls-1" cx="580.64" cy="133.65" r="2.5"/><circle class="cls-1" cx="580.64" cy="122.86" r="2.5"/><circle class="cls-1" cx="580.64" cy="172.58" r="2.5"/><circle class="cls-1" cx="580.64" cy="164.8" r="2.5"/><circle class="cls-1" cx="580.64" cy="157.01" r="2.5"/><circle class="cls-1" cx="580.64" cy="149.22" r="2.5"/><circle class="cls-1" cx="580.64" cy="94.71" r="2.5"/><circle class="cls-1" cx="580.64" cy="86.92" r="2.5"/><circle class="cls-1" cx="580.64" cy="79.14" r="2.5"/><circle class="cls-1" cx="580.64" cy="71.35" r="2.5"/><circle class="cls-1" cx="580.64" cy="266.03" r="2.5"/><circle class="cls-1" cx="580.64" cy="258.24" r="2.5"/><circle class="cls-1" cx="580.64" cy="328.32" r="2.5"/><circle class="cls-1" cx="580.64" cy="320.54" r="2.5"/><circle class="cls-1" cx="580.64" cy="227.09" r="2.5"/><circle class="cls-1" cx="573.98" cy="146.43" r="2.5"/><circle class="cls-1" cx="573.98" cy="138.65" r="2.5"/><circle class="cls-1" cx="573.98" cy="130.86" r="2.5"/><circle class="cls-1" cx="573.98" cy="117.07" r="2.5"/><circle class="cls-1" cx="573.98" cy="177.58" r="2.5"/><circle class="cls-1" cx="573.98" cy="169.8" r="2.5"/><circle class="cls-1" cx="573.98" cy="162.01" r="2.5"/><circle class="cls-1" cx="573.98" cy="154.22" r="2.5"/><circle class="cls-1" cx="573.98" cy="91.92" r="2.5"/><circle class="cls-1" cx="573.98" cy="84.14" r="2.5"/><circle class="cls-1" cx="573.98" cy="76.35" r="2.5"/><circle class="cls-1" cx="573.98" cy="286.6" r="2.5"/><circle class="cls-1" cx="573.98" cy="271.03" r="2.5"/><circle class="cls-1" cx="573.98" cy="263.24" r="2.5"/><circle class="cls-1" cx="573.98" cy="255.45" r="2.5"/><circle class="cls-1" cx="573.98" cy="325.54" r="2.5"/><circle class="cls-1" cx="574.98" cy="312.75" r="2.5"/><circle class="cls-1" cx="573.98" cy="302.18" r="2.5"/><circle class="cls-1" cx="573.98" cy="224.3" r="2.5"/><circle class="cls-1" cx="567.73" cy="139.43" r="2.5"/><circle class="cls-1" cx="564.73" cy="131.65" r="2.5"/><circle class="cls-1" cx="566.73" cy="125.86" r="2.5"/><circle class="cls-1" cx="566.73" cy="118.07" r="2.5"/><circle class="cls-1" cx="566.73" cy="110.29" r="2.5"/><circle class="cls-1" cx="568.73" cy="101.5" r="2.5"/><circle class="cls-1" cx="566.73" cy="172.58" r="2.5"/><circle class="cls-1" cx="566.73" cy="164.8" r="2.5"/><circle class="cls-1" cx="566.73" cy="157.01" r="2.5"/><circle class="cls-1" cx="566.73" cy="149.22" r="2.5"/><circle class="cls-1" cx="566.73" cy="94.71" r="2.5"/><circle class="cls-1" cx="566.73" cy="86.92" r="2.5"/><circle class="cls-1" cx="566.73" cy="79.14" r="2.5"/><circle class="cls-1" cx="566.73" cy="281.6" r="2.5"/><circle class="cls-1" cx="566.73" cy="273.81" r="2.5"/><circle class="cls-1" cx="566.73" cy="266.03" r="2.5"/><circle class="cls-1" cx="566.73" cy="258.24" r="2.5"/><circle class="cls-1" cx="566.73" cy="250.45" r="2.5"/><circle class="cls-1" cx="566.73" cy="328.32" r="2.5"/><circle class="cls-1" cx="566.73" cy="320.54" r="2.5"/><circle class="cls-1" cx="566.73" cy="312.75" r="2.5"/><circle class="cls-1" cx="566.73" cy="304.96" r="2.5"/><circle class="cls-1" cx="566.73" cy="227.09" r="2.5"/><circle class="cls-1" cx="560.07" cy="146.43" r="2.5"/><circle class="cls-1" cx="560.07" cy="138.65" r="2.5"/><circle class="cls-1" cx="560.07" cy="107.5" r="2.5"/><circle class="cls-1" cx="560.07" cy="185.37" r="2.5"/><circle class="cls-1" cx="560.07" cy="177.58" r="2.5"/><circle class="cls-1" cx="560.07" cy="169.8" r="2.5"/><circle class="cls-1" cx="560.07" cy="162.01" r="2.5"/><circle class="cls-1" cx="560.07" cy="154.22" r="2.5"/><circle class="cls-1" cx="560.07" cy="99.71" r="2.5"/><circle class="cls-1" cx="560.07" cy="91.92" r="2.5"/><circle class="cls-1" cx="560.07" cy="84.14" r="2.5"/><circle class="cls-1" cx="560.07" cy="286.6" r="2.5"/><circle class="cls-1" cx="560.07" cy="278.81" r="2.5"/><circle class="cls-1" cx="560.07" cy="271.03" r="2.5"/><circle class="cls-1" cx="560.07" cy="263.24" r="2.5"/><circle class="cls-1" cx="560.07" cy="255.45" r="2.5"/><circle class="cls-1" cx="560.07" cy="247.67" r="2.5"/><circle class="cls-1" cx="560.07" cy="325.54" r="2.5"/><circle class="cls-1" cx="560.07" cy="317.75" r="2.5"/><circle class="cls-1" cx="560.07" cy="309.96" r="2.5"/><circle class="cls-1" cx="560.07" cy="302.18" r="2.5"/><circle class="cls-1" cx="562.07" cy="294.39" r="2.5"/><circle class="cls-1" cx="560.07" cy="239.88" r="2.5"/><circle class="cls-1" cx="560.07" cy="232.09" r="2.5"/><circle class="cls-1" cx="560.07" cy="224.3" r="2.5"/><circle class="cls-1" cx="560.07" cy="216.52" r="2.5"/><circle class="cls-1" cx="552.87" cy="102.5" r="2.5"/><circle class="cls-1" cx="552.87" cy="188.16" r="2.5"/><circle class="cls-1" cx="552.87" cy="180.37" r="2.5"/><circle class="cls-1" cx="552.87" cy="172.58" r="2.5"/><circle class="cls-1" cx="552.87" cy="164.8" r="2.5"/><circle class="cls-1" cx="552.87" cy="157.01" r="2.5"/><circle class="cls-1" cx="552.87" cy="149.22" r="2.5"/><circle class="cls-1" cx="552.87" cy="94.71" r="2.5"/><circle class="cls-1" cx="552.87" cy="86.92" r="2.5"/><circle class="cls-1" cx="552.87" cy="281.6" r="2.5"/><circle class="cls-1" cx="552.87" cy="273.81" r="2.5"/><circle class="cls-1" cx="552.87" cy="266.03" r="2.5"/><circle class="cls-1" cx="552.87" cy="258.24" r="2.5"/><circle class="cls-1" cx="552.87" cy="250.45" r="2.5"/><circle class="cls-1" cx="552.87" cy="242.67" r="2.5"/><circle class="cls-1" cx="552.87" cy="328.32" r="2.5"/><circle class="cls-1" cx="552.87" cy="297.18" r="2.5"/><circle class="cls-1" cx="552.87" cy="289.39" r="2.5"/><circle class="cls-1" cx="552.87" cy="234.88" r="2.5"/><circle class="cls-1" cx="552.87" cy="227.09" r="2.5"/><circle class="cls-1" cx="552.87" cy="219.3" r="2.5"/><circle class="cls-1" cx="552.87" cy="211.52" r="2.5"/><circle class="cls-1" cx="552.87" cy="203.73" r="2.5"/><circle class="cls-1" cx="552.87" cy="195.94" r="2.5"/><circle class="cls-1" cx="546.21" cy="146.43" r="2.5"/><circle class="cls-1" cx="546.21" cy="107.5" r="2.5"/><circle class="cls-1" cx="546.21" cy="193.16" r="2.5"/><circle class="cls-1" cx="546.21" cy="185.37" r="2.5"/><circle class="cls-1" cx="546.21" cy="177.58" r="2.5"/><circle class="cls-1" cx="546.21" cy="169.8" r="2.5"/><circle class="cls-1" cx="546.21" cy="162.01" r="2.5"/><circle class="cls-1" cx="546.21" cy="154.22" r="2.5"/><circle class="cls-1" cx="546.21" cy="99.71" r="2.5"/><circle class="cls-1" cx="539.27" cy="98.27" r="2.5"/><circle class="cls-1" cx="516.43" cy="117.74" r="2.5"/><circle class="cls-1" cx="546.21" cy="91.92" r="2.5"/><circle class="cls-1" cx="546.21" cy="286.6" r="2.5"/><circle class="cls-1" cx="546.21" cy="278.81" r="2.5"/><circle class="cls-1" cx="546.21" cy="271.03" r="2.5"/><circle class="cls-1" cx="546.21" cy="263.24" r="2.5"/><circle class="cls-1" cx="546.21" cy="255.45" r="2.5"/><circle class="cls-1" cx="546.21" cy="247.67" r="2.5"/><circle class="cls-1" cx="546.21" cy="325.54" r="2.5"/><circle class="cls-1" cx="546.21" cy="294.39" r="2.5"/><circle class="cls-1" cx="546.21" cy="239.88" r="2.5"/><circle class="cls-1" cx="546.21" cy="232.09" r="2.5"/><circle class="cls-1" cx="546.21" cy="224.3" r="2.5"/><circle class="cls-1" cx="546.21" cy="216.52" r="2.5"/><circle class="cls-1" cx="546.21" cy="208.73" r="2.5"/><circle class="cls-1" cx="546.21" cy="200.94" r="2.5"/><circle class="cls-1" cx="539.27" cy="110.29" r="2.5"/><circle class="cls-1" cx="539.27" cy="188.16" r="2.5"/><circle class="cls-1" cx="539.27" cy="180.37" r="2.5"/><circle class="cls-1" cx="539.27" cy="172.58" r="2.5"/><circle class="cls-1" cx="539.27" cy="164.8" r="2.5"/><circle class="cls-1" cx="539.27" cy="157.01" r="2.5"/><circle class="cls-1" cx="539.27" cy="149.22" r="2.5"/><circle class="cls-1" cx="539.27" cy="272.81" r="2.5"/><circle class="cls-1" cx="539.27" cy="261.03" r="2.5"/><circle class="cls-1" cx="539.27" cy="251.24" r="2.5"/><circle class="cls-1" cx="539.27" cy="242.67" r="2.5"/><circle class="cls-1" cx="539.27" cy="328.32" r="2.5"/><circle class="cls-1" cx="539.27" cy="297.18" r="2.5"/><circle class="cls-1" cx="539.27" cy="289.39" r="2.5"/><circle class="cls-1" cx="539.27" cy="234.88" r="2.5"/><circle class="cls-1" cx="539.27" cy="227.09" r="2.5"/><circle class="cls-1" cx="539.27" cy="219.3" r="2.5"/><circle class="cls-1" cx="539.27" cy="211.52" r="2.5"/><circle class="cls-1" cx="539.27" cy="203.73" r="2.5"/><circle class="cls-1" cx="539.27" cy="195.94" r="2.5"/><circle class="cls-1" cx="532.61" cy="146.43" r="2.5"/><circle class="cls-1" cx="532.61" cy="107.5" r="2.5"/><circle class="cls-1" cx="532.61" cy="193.16" r="2.5"/><circle class="cls-1" cx="532.61" cy="185.37" r="2.5"/><circle class="cls-1" cx="532.61" cy="177.58" r="2.5"/><circle class="cls-1" cx="532.61" cy="169.8" r="2.5"/><circle class="cls-1" cx="532.61" cy="162.01" r="2.5"/><circle class="cls-1" cx="532.61" cy="154.22" r="2.5"/><circle class="cls-1" cx="532.61" cy="286.6" r="2.5"/><circle class="cls-1" cx="534.61" cy="279.81" r="2.5"/><circle class="cls-1" cx="532.61" cy="271.03" r="2.5"/><circle class="cls-1" cx="530.61" cy="263.24" r="2.5"/><circle class="cls-1" cx="532.61" cy="255.45" r="2.5"/><circle class="cls-1" cx="532.61" cy="247.67" r="2.5"/><circle class="cls-1" cx="532.61" cy="325.54" r="2.5"/><circle class="cls-1" cx="532.61" cy="302.18" r="2.5"/><circle class="cls-1" cx="532.61" cy="294.39" r="2.5"/><circle class="cls-1" cx="532.61" cy="208.73" r="2.5"/><circle class="cls-1" cx="532.61" cy="200.94" r="2.5"/><circle class="cls-1" cx="525.41" cy="141.43" r="2.5"/><circle class="cls-1" cx="525.41" cy="188.16" r="2.5"/><circle class="cls-1" cx="525.41" cy="180.37" r="2.5"/><circle class="cls-1" cx="525.41" cy="172.58" r="2.5"/><circle class="cls-1" cx="525.41" cy="164.8" r="2.5"/><circle class="cls-1" cx="525.41" cy="157.01" r="2.5"/><circle class="cls-1" cx="525.41" cy="149.22" r="2.5"/><circle class="cls-1" cx="525.41" cy="281.6" r="2.5"/><circle class="cls-1" cx="525.41" cy="273.81" r="2.5"/><circle class="cls-1" cx="525.41" cy="266.03" r="2.5"/><circle class="cls-1" cx="525.41" cy="258.24" r="2.5"/><circle class="cls-1" cx="525.41" cy="250.45" r="2.5"/><circle class="cls-1" cx="525.41" cy="328.32" r="2.5"/><circle class="cls-1" cx="525.41" cy="320.54" r="2.5"/><circle class="cls-1" cx="525.41" cy="312.75" r="2.5"/><circle class="cls-1" cx="525.41" cy="304.96" r="2.5"/><circle class="cls-1" cx="525.41" cy="297.18" r="2.5"/><circle class="cls-1" cx="525.41" cy="289.39" r="2.5"/><circle class="cls-1" cx="525.41" cy="203.73" r="2.5"/><circle class="cls-1" cx="525.41" cy="195.94" r="2.5"/><circle class="cls-1" cx="518.76" cy="146.43" r="2.5"/><circle class="cls-1" cx="518.76" cy="138.65" r="2.5"/><circle class="cls-1" cx="518.76" cy="193.16" r="2.5"/><circle class="cls-1" cx="518.76" cy="185.37" r="2.5"/><circle class="cls-1" cx="518.76" cy="177.58" r="2.5"/><circle class="cls-1" cx="518.76" cy="169.8" r="2.5"/><circle class="cls-1" cx="518.76" cy="162.01" r="2.5"/><circle class="cls-1" cx="518.76" cy="154.22" r="2.5"/><circle class="cls-1" cx="518.76" cy="271.03" r="2.5"/><circle class="cls-1" cx="518.76" cy="263.24" r="2.5"/><circle class="cls-1" cx="518.76" cy="255.45" r="2.5"/><circle class="cls-1" cx="518.76" cy="325.54" r="2.5"/><circle class="cls-1" cx="518.76" cy="317.75" r="2.5"/><circle class="cls-1" cx="518.76" cy="309.96" r="2.5"/><circle class="cls-1" cx="518.76" cy="200.94" r="2.5"/><circle class="cls-1" cx="511.34" cy="141.43" r="2.5"/><circle class="cls-1" cx="513.84" cy="132.25" r="2.5"/><circle class="cls-1" cx="511.34" cy="125.86" r="2.5"/><circle class="cls-1" cx="511.34" cy="188.16" r="2.5"/><circle class="cls-1" cx="511.34" cy="180.37" r="2.5"/><circle class="cls-1" cx="511.34" cy="172.58" r="2.5"/><circle class="cls-1" cx="511.34" cy="164.8" r="2.5"/><circle class="cls-1" cx="511.34" cy="157.01" r="2.5"/><circle class="cls-1" cx="511.34" cy="149.22" r="2.5"/><circle class="cls-1" cx="511.34" cy="258.24" r="2.5"/><circle class="cls-1" cx="511.34" cy="250.45" r="2.5"/><circle class="cls-1" cx="511.34" cy="242.67" r="2.5"/><circle class="cls-1" cx="511.34" cy="328.32" r="2.5"/><circle class="cls-1" cx="511.34" cy="320.54" r="2.5"/><circle class="cls-1" cx="511.34" cy="312.75" r="2.5"/><circle class="cls-1" cx="511.34" cy="203.73" r="2.5"/><circle class="cls-1" cx="511.34" cy="195.94" r="2.5"/><circle class="cls-1" cx="504.68" cy="146.43" r="2.5"/><circle class="cls-1" cx="504.68" cy="138.65" r="2.5"/><circle class="cls-1" cx="504.68" cy="130.86" r="2.5"/><circle class="cls-1" cx="504.68" cy="193.16" r="2.5"/><circle class="cls-1" cx="504.68" cy="185.37" r="2.5"/><circle class="cls-1" cx="504.68" cy="162.01" r="2.5"/><circle class="cls-1" cx="504.68" cy="154.22" r="2.5"/><circle class="cls-1" cx="511.34" cy="266.53" r="2.5"/><circle class="cls-1" cx="504.68" cy="255.45" r="2.5"/><circle class="cls-1" cx="504.68" cy="247.67" r="2.5"/><circle class="cls-1" cx="504.68" cy="325.54" r="2.5"/><circle class="cls-1" cx="504.68" cy="317.75" r="2.5"/><circle class="cls-1" cx="504.68" cy="200.94" r="2.5"/><circle class="cls-1" cx="497.48" cy="141.43" r="2.5"/><circle class="cls-1" cx="497.48" cy="133.65" r="2.5"/><circle class="cls-1" cx="497.48" cy="188.16" r="2.5"/><circle class="cls-1" cx="497.48" cy="157.01" r="2.5"/><circle class="cls-1" cx="497.48" cy="149.22" r="2.5"/><circle class="cls-1" cx="497.48" cy="273.81" r="2.5"/><circle class="cls-1" cx="502.48" cy="264.03" r="2.5"/><circle class="cls-1" cx="497.48" cy="258.24" r="2.5"/><circle class="cls-1" cx="497.48" cy="250.45" r="2.5"/><circle class="cls-1" cx="497.48" cy="242.67" r="2.5"/><circle class="cls-1" cx="497.48" cy="328.32" r="2.5"/><circle class="cls-1" cx="497.48" cy="320.54" r="2.5"/><circle class="cls-1" cx="497.48" cy="312.75" r="2.5"/><circle class="cls-1" cx="497.48" cy="211.52" r="2.5"/><circle class="cls-1" cx="497.48" cy="203.73" r="2.5"/><circle class="cls-1" cx="497.48" cy="195.94" r="2.5"/><circle class="cls-1" cx="490.83" cy="146.43" r="2.5"/><circle class="cls-1" cx="490.83" cy="138.65" r="2.5"/><circle class="cls-1" cx="490.83" cy="193.16" r="2.5"/><circle class="cls-1" cx="490.83" cy="185.37" r="2.5"/><circle class="cls-1" cx="490.83" cy="154.22" r="2.5"/><circle class="cls-1" cx="490.83" cy="263.24" r="2.5"/><circle class="cls-1" cx="490.83" cy="255.45" r="2.5"/><circle class="cls-1" cx="490.83" cy="247.67" r="2.5"/><circle class="cls-1" cx="490.83" cy="325.54" r="2.5"/><circle class="cls-1" cx="490.83" cy="315.75" r="2.5"/><circle class="cls-1" cx="490.83" cy="239.88" r="2.5"/><circle class="cls-1" cx="490.83" cy="232.09" r="2.5"/><circle class="cls-1" cx="490.83" cy="224.3" r="2.5"/><circle class="cls-1" cx="490.83" cy="216.52" r="2.5"/><circle class="cls-1" cx="490.83" cy="208.73" r="2.5"/><circle class="cls-1" cx="490.83" cy="200.94" r="2.5"/><circle class="cls-1" cx="483.88" cy="141.43" r="2.5"/><circle class="cls-1" cx="483.88" cy="188.16" r="2.5"/><circle class="cls-1" cx="483.88" cy="180.37" r="2.5"/><circle class="cls-1" cx="483.88" cy="172.58" r="2.5"/><circle class="cls-1" cx="483.88" cy="164.8" r="2.5"/><circle class="cls-1" cx="483.88" cy="157.01" r="2.5"/><circle class="cls-1" cx="483.88" cy="149.22" r="2.5"/><circle class="cls-1" cx="484.88" cy="269.03" r="2.5"/><circle class="cls-1" cx="483.88" cy="258.24" r="2.5"/><circle class="cls-1" cx="483.88" cy="250.45" r="2.5"/><circle class="cls-1" cx="483.88" cy="242.67" r="2.5"/><circle class="cls-1" cx="483.88" cy="328.32" r="2.5"/><circle class="cls-1" cx="483.88" cy="319.54" r="2.5"/><circle class="cls-1" cx="484.88" cy="307.75" r="2.5"/><circle class="cls-1" cx="483.88" cy="234.88" r="2.5"/><circle class="cls-1" cx="483.88" cy="227.09" r="2.5"/><circle class="cls-1" cx="483.88" cy="219.3" r="2.5"/><circle class="cls-1" cx="483.88" cy="211.52" r="2.5"/><circle class="cls-1" cx="483.88" cy="203.73" r="2.5"/><circle class="cls-1" cx="483.88" cy="195.94" r="2.5"/><circle class="cls-1" cx="477.22" cy="146.43" r="2.5"/><circle class="cls-1" cx="477.22" cy="193.16" r="2.5"/><circle class="cls-1" cx="477.22" cy="185.37" r="2.5"/><circle class="cls-1" cx="477.22" cy="177.58" r="2.5"/><circle class="cls-1" cx="477.22" cy="169.8" r="2.5"/><circle class="cls-1" cx="477.22" cy="162.01" r="2.5"/><circle class="cls-1" cx="477.22" cy="154.22" r="2.5"/><circle class="cls-1" cx="476.22" cy="286.6" r="2.5"/><circle class="cls-1" cx="477.22" cy="278.81" r="2.5"/><circle class="cls-1" cx="477.22" cy="271.03" r="2.5"/><circle class="cls-1" cx="477.22" cy="263.24" r="2.5"/><circle class="cls-1" cx="477.22" cy="255.45" r="2.5"/><circle class="cls-1" cx="477.22" cy="247.67" r="2.5"/><circle class="cls-1" cx="477.22" cy="325.54" r="2.5"/><circle class="cls-1" cx="477.22" cy="317.75" r="2.5"/><circle class="cls-1" cx="477.22" cy="309.96" r="2.5"/><circle class="cls-1" cx="477.22" cy="302.18" r="2.5"/><circle class="cls-1" cx="477.22" cy="239.88" r="2.5"/><circle class="cls-1" cx="477.22" cy="232.09" r="2.5"/><circle class="cls-1" cx="477.22" cy="224.3" r="2.5"/><circle class="cls-1" cx="477.22" cy="216.52" r="2.5"/><circle class="cls-1" cx="477.22" cy="208.73" r="2.5"/><circle class="cls-1" cx="477.22" cy="200.94" r="2.5"/><circle class="cls-1" cx="470.02" cy="188.16" r="2.5"/><circle class="cls-1" cx="470.02" cy="180.37" r="2.5"/><circle class="cls-1" cx="470.02" cy="172.58" r="2.5"/><circle class="cls-1" cx="470.02" cy="164.8" r="2.5"/><circle class="cls-1" cx="470.02" cy="157.01" r="2.5"/><circle class="cls-1" cx="470.02" cy="149.22" r="2.5"/><circle class="cls-1" cx="470.02" cy="281.6" r="2.5"/><circle class="cls-1" cx="470.02" cy="273.81" r="2.5"/><circle class="cls-1" cx="470.02" cy="266.03" r="2.5"/><circle class="cls-1" cx="470.02" cy="258.24" r="2.5"/><circle class="cls-1" cx="470.02" cy="250.45" r="2.5"/><circle class="cls-1" cx="470.02" cy="242.67" r="2.5"/><circle class="cls-1" cx="470.02" cy="328.32" r="2.5"/><circle class="cls-1" cx="470.02" cy="320.54" r="2.5"/><circle class="cls-1" cx="470.02" cy="312.75" r="2.5"/><circle class="cls-1" cx="470.02" cy="304.96" r="2.5"/><circle class="cls-1" cx="470.02" cy="297.18" r="2.5"/><circle class="cls-1" cx="470.02" cy="289.39" r="2.5"/><circle class="cls-1" cx="470.02" cy="234.88" r="2.5"/><circle class="cls-1" cx="470.02" cy="227.09" r="2.5"/><circle class="cls-1" cx="470.02" cy="219.3" r="2.5"/><circle class="cls-1" cx="470.02" cy="211.52" r="2.5"/><circle class="cls-1" cx="470.02" cy="203.73" r="2.5"/><circle class="cls-1" cx="470.02" cy="195.94" r="2.5"/><circle class="cls-1" cx="463.37" cy="193.16" r="2.5"/><circle class="cls-1" cx="463.37" cy="185.37" r="2.5"/><circle class="cls-1" cx="463.37" cy="177.58" r="2.5"/><circle class="cls-1" cx="463.37" cy="169.8" r="2.5"/><circle class="cls-1" cx="463.37" cy="162.01" r="2.5"/><circle class="cls-1" cx="463.37" cy="154.22" r="2.5"/><circle class="cls-1" cx="463.37" cy="286.6" r="2.5"/><circle class="cls-1" cx="463.37" cy="278.81" r="2.5"/><circle class="cls-1" cx="463.37" cy="271.03" r="2.5"/><circle class="cls-1" cx="463.37" cy="263.24" r="2.5"/><circle class="cls-1" cx="463.37" cy="255.45" r="2.5"/><circle class="cls-1" cx="463.37" cy="247.67" r="2.5"/><circle class="cls-1" cx="463.37" cy="325.54" r="2.5"/><circle class="cls-1" cx="463.37" cy="317.75" r="2.5"/><circle class="cls-1" cx="463.37" cy="309.96" r="2.5"/><circle class="cls-1" cx="463.37" cy="302.18" r="2.5"/><circle class="cls-1" cx="463.37" cy="294.39" r="2.5"/><circle class="cls-1" cx="463.37" cy="239.88" r="2.5"/><circle class="cls-1" cx="463.37" cy="232.09" r="2.5"/><circle class="cls-1" cx="463.37" cy="224.3" r="2.5"/><circle class="cls-1" cx="463.37" cy="200.94" r="2.5"/><circle class="cls-1" cx="456.11" cy="188.16" r="2.5"/><circle class="cls-1" cx="456.11" cy="180.37" r="2.5"/><circle class="cls-1" cx="456.11" cy="172.58" r="2.5"/><circle class="cls-1" cx="456.11" cy="164.8" r="2.5"/><circle class="cls-1" cx="456.11" cy="281.6" r="2.5"/><circle class="cls-1" cx="456.11" cy="273.81" r="2.5"/><circle class="cls-1" cx="456.11" cy="266.03" r="2.5"/><circle class="cls-1" cx="456.11" cy="258.24" r="2.5"/><circle class="cls-1" cx="456.11" cy="250.45" r="2.5"/><circle class="cls-1" cx="456.11" cy="242.67" r="2.5"/><circle class="cls-1" cx="456.11" cy="328.32" r="2.5"/><circle class="cls-1" cx="456.11" cy="320.54" r="2.5"/><circle class="cls-1" cx="456.11" cy="289.39" r="2.5"/><circle class="cls-1" cx="456.11" cy="234.88" r="2.5"/><circle class="cls-1" cx="456.11" cy="227.09" r="2.5"/><circle class="cls-1" cx="456.11" cy="195.94" r="2.5"/><circle class="cls-1" cx="449.45" cy="193.16" r="2.5"/><circle class="cls-1" cx="449.45" cy="185.37" r="2.5"/><circle class="cls-1" cx="449.45" cy="177.58" r="2.5"/><circle class="cls-1" cx="449.45" cy="169.8" r="2.5"/><circle class="cls-1" cx="449.45" cy="286.6" r="2.5"/><circle class="cls-1" cx="449.45" cy="278.81" r="2.5"/><circle class="cls-1" cx="449.45" cy="271.03" r="2.5"/><circle class="cls-1" cx="449.45" cy="263.24" r="2.5"/><circle class="cls-1" cx="449.45" cy="255.45" r="2.5"/><circle class="cls-1" cx="449.45" cy="247.67" r="2.5"/><circle class="cls-1" cx="449.45" cy="325.54" r="2.5"/><circle class="cls-1" cx="449.45" cy="317.75" r="2.5"/><circle class="cls-1" cx="449.45" cy="309.96" r="2.5"/><circle class="cls-1" cx="449.45" cy="239.88" r="2.5"/><circle class="cls-1" cx="449.45" cy="232.09" r="2.5"/><circle class="cls-1" cx="449.45" cy="224.3" r="2.5"/><circle class="cls-1" cx="449.45" cy="200.94" r="2.5"/><circle class="cls-1" cx="442.25" cy="188.16" r="2.5"/><circle class="cls-1" cx="442.25" cy="180.37" r="2.5"/><circle class="cls-1" cx="442.25" cy="172.58" r="2.5"/><circle class="cls-1" cx="442.25" cy="281.6" r="2.5"/><circle class="cls-1" cx="442.25" cy="273.81" r="2.5"/><circle class="cls-1" cx="442.25" cy="266.03" r="2.5"/><circle class="cls-1" cx="442.25" cy="258.24" r="2.5"/><circle class="cls-1" cx="442.25" cy="250.45" r="2.5"/><circle class="cls-1" cx="442.25" cy="242.67" r="2.5"/><circle class="cls-1" cx="442.25" cy="328.32" r="2.5"/><circle class="cls-1" cx="442.25" cy="320.54" r="2.5"/><circle class="cls-1" cx="442.25" cy="289.39" r="2.5"/><circle class="cls-1" cx="442.25" cy="234.88" r="2.5"/><circle class="cls-1" cx="442.25" cy="227.09" r="2.5"/><circle class="cls-1" cx="442.25" cy="219.3" r="2.5"/><circle class="cls-1" cx="442.25" cy="211.52" r="2.5"/><circle class="cls-1" cx="442.25" cy="203.73" r="2.5"/><circle class="cls-1" cx="442.25" cy="195.94" r="2.5"/><circle class="cls-1" cx="435.6" cy="193.16" r="2.5"/><circle class="cls-1" cx="435.6" cy="185.37" r="2.5"/><circle class="cls-1" cx="435.6" cy="177.58" r="2.5"/><circle class="cls-1" cx="435.6" cy="286.6" r="2.5"/><circle class="cls-1" cx="435.6" cy="278.81" r="2.5"/><circle class="cls-1" cx="435.6" cy="271.03" r="2.5"/><circle class="cls-1" cx="435.6" cy="263.24" r="2.5"/><circle class="cls-1" cx="429.6" cy="255.45" r="2.5"/><circle class="cls-1" cx="435.6" cy="249.67" r="2.5"/><circle class="cls-1" cx="435.6" cy="325.54" r="2.5"/><circle class="cls-1" cx="435.6" cy="317.75" r="2.5"/><circle class="cls-1" cx="435.6" cy="309.96" r="2.5"/><circle class="cls-1" cx="435.6" cy="302.18" r="2.5"/><circle class="cls-1" cx="435.6" cy="294.39" r="2.5"/><circle class="cls-1" cx="435.6" cy="239.88" r="2.5"/><circle class="cls-1" cx="435.6" cy="232.09" r="2.5"/><circle class="cls-1" cx="435.6" cy="224.3" r="2.5"/><circle class="cls-1" cx="435.6" cy="216.52" r="2.5"/><circle class="cls-1" cx="435.6" cy="208.73" r="2.5"/><circle class="cls-1" cx="435.6" cy="200.94" r="2.5"/><circle class="cls-1" cx="428.65" cy="188.16" r="2.5"/><circle class="cls-1" cx="428.65" cy="180.37" r="2.5"/><circle class="cls-1" cx="429.65" cy="244.67" r="2.5"/><circle class="cls-1" cx="428.65" cy="328.32" r="2.5"/><circle class="cls-1" cx="428.65" cy="320.54" r="2.5"/><circle class="cls-1" cx="428.65" cy="312.75" r="2.5"/><circle class="cls-1" cx="428.65" cy="304.96" r="2.5"/><circle class="cls-1" cx="428.65" cy="297.18" r="2.5"/><circle class="cls-1" cx="428.65" cy="234.88" r="2.5"/><circle class="cls-1" cx="428.65" cy="227.09" r="2.5"/><circle class="cls-1" cx="428.65" cy="219.3" r="2.5"/><circle class="cls-1" cx="428.65" cy="211.52" r="2.5"/><circle class="cls-1" cx="428.65" cy="203.73" r="2.5"/><circle class="cls-1" cx="428.65" cy="195.94" r="2.5"/><circle class="cls-1" cx="422" cy="193.16" r="2.5"/><circle class="cls-1" cx="422" cy="185.37" r="2.5"/><circle class="cls-1" cx="422" cy="247.67" r="2.5"/><circle class="cls-1" cx="422" cy="325.54" r="2.5"/><circle class="cls-1" cx="422" cy="317.75" r="2.5"/><circle class="cls-1" cx="422" cy="309.96" r="2.5"/><circle class="cls-1" cx="422" cy="302.18" r="2.5"/><circle class="cls-1" cx="423" cy="291.39" r="2.5"/><circle class="cls-1" cx="422" cy="239.88" r="2.5"/><circle class="cls-1" cx="422" cy="232.09" r="2.5"/><circle class="cls-1" cx="422" cy="224.3" r="2.5"/><circle class="cls-1" cx="422" cy="216.52" r="2.5"/><circle class="cls-1" cx="422" cy="208.73" r="2.5"/><circle class="cls-1" cx="422" cy="200.94" r="2.5"/><circle class="cls-1" cx="414.79" cy="188.16" r="2.5"/><circle class="cls-1" cx="411.79" cy="245.67" r="2.5"/><circle class="cls-1" cx="414.79" cy="328.32" r="2.5"/><circle class="cls-1" cx="414.79" cy="320.54" r="2.5"/><circle class="cls-1" cx="414.79" cy="312.75" r="2.5"/><circle class="cls-1" cx="414.79" cy="304.96" r="2.5"/><circle class="cls-1" cx="414.79" cy="297.18" r="2.5"/><circle class="cls-1" cx="414.79" cy="234.88" r="2.5"/><circle class="cls-1" cx="414.79" cy="227.09" r="2.5"/><circle class="cls-1" cx="414.79" cy="219.3" r="2.5"/><circle class="cls-1" cx="414.79" cy="211.52" r="2.5"/><circle class="cls-1" cx="414.79" cy="203.73" r="2.5"/><circle class="cls-1" cx="414.79" cy="195.94" r="2.5"/><circle class="cls-1" cx="408.14" cy="193.16" r="2.5"/><circle class="cls-1" cx="408.14" cy="325.54" r="2.5"/><circle class="cls-1" cx="408.14" cy="317.75" r="2.5"/><circle class="cls-1" cx="408.14" cy="309.96" r="2.5"/><circle class="cls-1" cx="408.14" cy="302.18" r="2.5"/><circle class="cls-1" cx="408.14" cy="239.88" r="2.5"/><circle class="cls-1" cx="408.14" cy="232.09" r="2.5"/><circle class="cls-1" cx="408.14" cy="224.3" r="2.5"/><circle class="cls-1" cx="408.14" cy="216.52" r="2.5"/><circle class="cls-1" cx="408.14" cy="208.73" r="2.5"/><circle class="cls-1" cx="408.14" cy="200.94" r="2.5"/><circle class="cls-1" cx="402.72" cy="247.67" r="2.5"/><circle class="cls-1" cx="401.72" cy="328.32" r="2.5"/><circle class="cls-1" cx="401.72" cy="320.54" r="2.5"/><circle class="cls-1" cx="401.72" cy="312.75" r="2.5"/><circle class="cls-1" cx="400.72" cy="304.96" r="2.5"/><circle class="cls-1" cx="403.72" cy="295.18" r="2.5"/><circle class="cls-1" cx="401.72" cy="227.09" r="2.5"/><circle class="cls-1" cx="401.72" cy="219.3" r="2.5"/><circle class="cls-1" cx="401.72" cy="211.52" r="2.5"/><circle class="cls-1" cx="401.72" cy="203.73" r="2.5"/><circle class="cls-1" cx="401.72" cy="195.94" r="2.5"/><circle class="cls-1" cx="395.07" cy="278.81" r="2.5"/><circle class="cls-1" cx="395.07" cy="271.03" r="2.5"/><circle class="cls-1" cx="395.07" cy="250.67" r="2.5"/><circle class="cls-1" cx="395.07" cy="325.54" r="2.5"/><circle class="cls-1" cx="395.07" cy="317.75" r="2.5"/><circle class="cls-1" cx="395.07" cy="309.96" r="2.5"/><circle class="cls-1" cx="396.07" cy="298.18" r="2.5"/><circle class="cls-1" cx="395.07" cy="290.39" r="2.5"/><circle class="cls-1" cx="400.07" cy="237.88" r="2.5"/><circle class="cls-1" cx="395.07" cy="232.09" r="2.5"/><circle class="cls-1" cx="395.07" cy="224.3" r="2.5"/><circle class="cls-1" cx="395.07" cy="216.52" r="2.5"/><circle class="cls-1" cx="395.07" cy="208.73" r="2.5"/><circle class="cls-1" cx="395.07" cy="200.94" r="2.5"/><circle class="cls-1" cx="387.86" cy="273.81" r="2.5"/><circle class="cls-1" cx="387.86" cy="266.03" r="2.5"/><circle class="cls-1" cx="387.86" cy="258.24" r="2.5"/><circle class="cls-1" cx="387.86" cy="250.45" r="2.5"/><circle class="cls-1" cx="390.87" cy="241.67" r="2.5"/><circle class="cls-1" cx="387.86" cy="328.32" r="2.5"/><circle class="cls-1" cx="387.86" cy="320.54" r="2.5"/><circle class="cls-1" cx="387.86" cy="312.75" r="2.5"/><circle class="cls-1" cx="387.86" cy="304.96" r="2.5"/><circle class="cls-1" cx="387.86" cy="297.18" r="2.5"/><circle class="cls-1" cx="388.86" cy="287.39" r="2.5"/><circle class="cls-1" cx="387.86" cy="234.88" r="2.5"/><circle class="cls-1" cx="387.86" cy="227.09" r="2.5"/><circle class="cls-1" cx="387.86" cy="219.3" r="2.5"/><circle class="cls-1" cx="387.86" cy="211.52" r="2.5"/><circle class="cls-1" cx="387.86" cy="203.73" r="2.5"/><circle class="cls-1" cx="381.21" cy="286.6" r="2.5"/><circle class="cls-1" cx="381.21" cy="278.81" r="2.5"/><circle class="cls-1" cx="381.21" cy="271.03" r="2.5"/><circle class="cls-1" cx="381.21" cy="263.24" r="2.5"/><circle class="cls-1" cx="381.21" cy="248.45" r="2.5"/><circle class="cls-1" cx="383.21" cy="240.67" r="2.5"/><circle class="cls-1" cx="381.21" cy="325.54" r="2.5"/><circle class="cls-1" cx="381.21" cy="317.75" r="2.5"/><circle class="cls-1" cx="381.21" cy="309.96" r="2.5"/><circle class="cls-1" cx="381.21" cy="302.18" r="2.5"/><circle class="cls-1" cx="381.21" cy="294.39" r="2.5"/><circle class="cls-1" cx="381.21" cy="232.09" r="2.5"/><circle class="cls-1" cx="381.21" cy="224.3" r="2.5"/><circle class="cls-1" cx="381.21" cy="216.52" r="2.5"/><circle class="cls-1" cx="381.21" cy="208.73" r="2.5"/><circle class="cls-1" cx="374.26" cy="281.6" r="2.5"/><circle class="cls-1" cx="374.26" cy="273.81" r="2.5"/><circle class="cls-1" cx="374.26" cy="266.03" r="2.5"/><circle class="cls-1" cx="374.26" cy="258.24" r="2.5"/><circle class="cls-1" cx="374.26" cy="250.45" r="2.5"/><circle class="cls-1" cx="374.26" cy="242.67" r="2.5"/><circle class="cls-1" cx="374.26" cy="328.32" r="2.5"/><circle class="cls-1" cx="374.26" cy="320.54" r="2.5"/><circle class="cls-1" cx="374.26" cy="312.75" r="2.5"/><circle class="cls-1" cx="374.26" cy="304.96" r="2.5"/><circle class="cls-1" cx="371.26" cy="295.18" r="2.5"/><circle class="cls-1" cx="375.26" cy="289.39" r="2.5"/><circle class="cls-1" cx="374.26" cy="234.88" r="2.5"/><circle class="cls-1" cx="374.26" cy="227.09" r="2.5"/><circle class="cls-1" cx="374.26" cy="219.3" r="2.5"/><circle class="cls-1" cx="374.26" cy="211.52" r="2.5"/><circle class="cls-1" cx="367.61" cy="286.6" r="2.5"/><circle class="cls-1" cx="367.61" cy="278.81" r="2.5"/><circle class="cls-1" cx="367.61" cy="271.03" r="2.5"/><circle class="cls-1" cx="367.61" cy="263.24" r="2.5"/><circle class="cls-1" cx="367.61" cy="252.45" r="2.5"/><circle class="cls-1" cx="367.61" cy="325.54" r="2.5"/><circle class="cls-1" cx="367.61" cy="317.75" r="2.5"/><circle class="cls-1" cx="367.61" cy="309.96" r="2.5"/><circle class="cls-1" cx="367.61" cy="302.18" r="2.5"/><circle class="cls-1" cx="367.61" cy="239.88" r="2.5"/><circle class="cls-1" cx="367.61" cy="232.09" r="2.5"/><circle class="cls-1" cx="367.61" cy="224.3" r="2.5"/><circle class="cls-1" cx="360.41" cy="281.6" r="2.5"/><circle class="cls-1" cx="360.41" cy="273.81" r="2.5"/><circle class="cls-1" cx="360.41" cy="266.03" r="2.5"/><circle class="cls-1" cx="360.41" cy="258.24" r="2.5"/><circle class="cls-1" cx="360.41" cy="242.67" r="2.5"/><circle class="cls-1" cx="360.41" cy="328.32" r="2.5"/><circle class="cls-1" cx="360.41" cy="320.54" r="2.5"/><circle class="cls-1" cx="357.41" cy="312.75" r="2.5"/><circle class="cls-1" cx="360.41" cy="304.96" r="2.5"/><circle class="cls-1" cx="360.41" cy="297.18" r="2.5"/><circle class="cls-1" cx="360.41" cy="289.39" r="2.5"/><circle class="cls-1" cx="360.41" cy="234.88" r="2.5"/><circle class="cls-1" cx="360.41" cy="227.09" r="2.5"/><circle class="cls-1" cx="353.75" cy="286.6" r="2.5"/><circle class="cls-1" cx="353.75" cy="278.81" r="2.5"/><circle class="cls-1" cx="353.75" cy="271.03" r="2.5"/><circle class="cls-1" cx="353.75" cy="263.24" r="2.5"/><circle class="cls-1" cx="353.75" cy="255.45" r="2.5"/><circle class="cls-1" cx="353.75" cy="247.67" r="2.5"/><circle class="cls-1" cx="359.68" cy="250.17" r="2.5"/><circle class="cls-1" cx="353.75" cy="325.54" r="2.5"/><circle class="cls-1" cx="353.75" cy="302.18" r="2.5"/><circle class="cls-1" cx="353.75" cy="294.39" r="2.5"/><circle class="cls-1" cx="353.75" cy="239.88" r="2.5"/><circle class="cls-1" cx="353.75" cy="232.09" r="2.5"/><circle class="cls-1" cx="346.49" cy="281.6" r="2.5"/><circle class="cls-1" cx="346.49" cy="273.81" r="2.5"/><circle class="cls-1" cx="346.49" cy="266.03" r="2.5"/><circle class="cls-1" cx="346.49" cy="258.24" r="2.5"/><circle class="cls-1" cx="346.49" cy="250.45" r="2.5"/><circle class="cls-1" cx="346.49" cy="242.67" r="2.5"/><circle class="cls-1" cx="346.49" cy="328.32" r="2.5"/><circle class="cls-1" cx="346.49" cy="297.18" r="2.5"/><circle class="cls-1" cx="346.49" cy="289.39" r="2.5"/><circle class="cls-1" cx="346.49" cy="234.88" r="2.5"/><circle class="cls-1" cx="346.49" cy="227.09" r="2.5"/><circle class="cls-1" cx="339.84" cy="286.6" r="2.5"/><circle class="cls-1" cx="339.84" cy="278.81" r="2.5"/><circle class="cls-1" cx="339.84" cy="271.03" r="2.5"/><circle class="cls-1" cx="339.84" cy="263.24" r="2.5"/><circle class="cls-1" cx="339.84" cy="255.45" r="2.5"/><circle class="cls-1" cx="339.84" cy="247.67" r="2.5"/><circle class="cls-1" cx="339.84" cy="325.54" r="2.5"/><circle class="cls-1" cx="339.84" cy="302.18" r="2.5"/><circle class="cls-1" cx="339.84" cy="294.39" r="2.5"/><circle class="cls-1" cx="339.84" cy="239.88" r="2.5"/><circle class="cls-1" cx="339.84" cy="232.09" r="2.5"/><circle class="cls-1" cx="339.84" cy="224.3" r="2.5"/><circle class="cls-1" cx="332.64" cy="273.81" r="2.5"/><circle class="cls-1" cx="332.64" cy="266.03" r="2.5"/><circle class="cls-1" cx="332.64" cy="258.24" r="2.5"/><circle class="cls-1" cx="332.64" cy="250.45" r="2.5"/><circle class="cls-1" cx="332.64" cy="242.67" r="2.5"/><circle class="cls-1" cx="332.64" cy="328.32" r="2.5"/><circle class="cls-1" cx="332.64" cy="320.54" r="2.5"/><circle class="cls-1" cx="332.64" cy="312.75" r="2.5"/><circle class="cls-1" cx="332.64" cy="304.96" r="2.5"/><circle class="cls-1" cx="332.64" cy="297.18" r="2.5"/><circle class="cls-1" cx="332.64" cy="289.39" r="2.5"/><circle class="cls-1" cx="332.64" cy="234.88" r="2.5"/><circle class="cls-1" cx="332.64" cy="227.09" r="2.5"/><circle class="cls-1" cx="332.64" cy="219.3" r="2.5"/><circle class="cls-1" cx="325.98" cy="286.6" r="2.5"/><circle class="cls-1" cx="325.98" cy="278.81" r="2.5"/><circle class="cls-1" cx="325.98" cy="271.03" r="2.5"/><circle class="cls-1" cx="325.98" cy="263.24" r="2.5"/><circle class="cls-1" cx="325.98" cy="255.45" r="2.5"/><circle class="cls-1" cx="325.98" cy="247.67" r="2.5"/><circle class="cls-1" cx="325.98" cy="325.54" r="2.5"/><circle class="cls-1" cx="325.98" cy="317.75" r="2.5"/><circle class="cls-1" cx="325.98" cy="309.96" r="2.5"/><circle class="cls-1" cx="325.98" cy="302.18" r="2.5"/><circle class="cls-1" cx="325.98" cy="294.39" r="2.5"/><circle class="cls-1" cx="325.98" cy="232.09" r="2.5"/><circle class="cls-1" cx="325.98" cy="224.3" r="2.5"/><circle class="cls-1" cx="325.98" cy="216.52" r="2.5"/><circle class="cls-1" cx="319.04" cy="281.6" r="2.5"/><circle class="cls-1" cx="319.04" cy="273.81" r="2.5"/><circle class="cls-1" cx="319.04" cy="266.03" r="2.5"/><circle class="cls-1" cx="319.04" cy="258.24" r="2.5"/><circle class="cls-1" cx="319.04" cy="250.45" r="2.5"/><circle class="cls-1" cx="323.04" cy="241.67" r="2.5"/><circle class="cls-1" cx="319.04" cy="331.32" r="2.5"/><circle class="cls-1" cx="319.04" cy="320.54" r="2.5"/><circle class="cls-1" cx="319.04" cy="312.75" r="2.5"/><circle class="cls-1" cx="319.04" cy="302.96" r="2.5"/><circle class="cls-1" cx="316.03" cy="294.18" r="2.5"/><circle class="cls-1" cx="319.04" cy="234.88" r="2.5"/><circle class="cls-1" cx="319.04" cy="227.09" r="2.5"/><circle class="cls-1" cx="319.04" cy="219.3" r="2.5"/><circle class="cls-1" cx="319.04" cy="211.52" r="2.5"/><circle class="cls-1" cx="315.38" cy="286.6" r="2.5"/><circle class="cls-1" cx="312.38" cy="278.81" r="2.5"/><circle class="cls-1" cx="312.38" cy="271.03" r="2.5"/><circle class="cls-1" cx="312.38" cy="263.24" r="2.5"/><circle class="cls-1" cx="312.38" cy="255.45" r="2.5"/><circle class="cls-1" cx="312.38" cy="247.67" r="2.5"/><circle class="cls-1" cx="312.38" cy="325.54" r="2.5"/><circle class="cls-1" cx="312.38" cy="317.75" r="2.5"/><circle class="cls-1" cx="312.38" cy="309.96" r="2.5"/><circle class="cls-1" cx="312.38" cy="302.18" r="2.5"/><circle class="cls-1" cx="306.38" cy="289.39" r="2.5"/><circle class="cls-1" cx="312.38" cy="239.88" r="2.5"/><circle class="cls-1" cx="312.38" cy="232.09" r="2.5"/><circle class="cls-1" cx="312.38" cy="224.3" r="2.5"/><circle class="cls-1" cx="312.38" cy="216.52" r="2.5"/><circle class="cls-1" cx="312.38" cy="208.73" r="2.5"/><circle class="cls-1" cx="305.18" cy="281.6" r="2.5"/><circle class="cls-1" cx="305.18" cy="273.81" r="2.5"/><circle class="cls-1" cx="305.18" cy="266.03" r="2.5"/><circle class="cls-1" cx="305.18" cy="258.24" r="2.5"/><circle class="cls-1" cx="305.18" cy="242.67" r="2.5"/><circle class="cls-1" cx="305.18" cy="328.32" r="2.5"/><circle class="cls-1" cx="305.18" cy="320.54" r="2.5"/><circle class="cls-1" cx="305.18" cy="312.75" r="2.5"/><circle class="cls-1" cx="305.18" cy="304.96" r="2.5"/><circle class="cls-1" cx="305.18" cy="297.18" r="2.5"/><circle class="cls-1" cx="305.18" cy="234.88" r="2.5"/><circle class="cls-1" cx="305.18" cy="227.09" r="2.5"/><circle class="cls-1" cx="305.18" cy="219.3" r="2.5"/><circle class="cls-1" cx="304.18" cy="209.52" r="2.5"/><circle class="cls-1" cx="298.52" cy="286.6" r="2.5"/><circle class="cls-1" cx="298.52" cy="278.81" r="2.5"/><circle class="cls-1" cx="298.52" cy="271.03" r="2.5"/><circle class="cls-1" cx="298.52" cy="263.24" r="2.5"/><circle class="cls-1" cx="298.52" cy="255.45" r="2.5"/><circle class="cls-1" cx="302.52" cy="249.67" r="2.5"/><circle class="cls-1" cx="298.52" cy="325.54" r="2.5"/><circle class="cls-1" cx="298.52" cy="317.75" r="2.5"/><circle class="cls-1" cx="298.52" cy="309.96" r="2.5"/><circle class="cls-1" cx="298.52" cy="302.18" r="2.5"/><circle class="cls-1" cx="298.52" cy="294.39" r="2.5"/><circle class="cls-1" cx="298.52" cy="239.88" r="2.5"/><circle class="cls-1" cx="298.52" cy="232.09" r="2.5"/><circle class="cls-1" cx="298.52" cy="224.3" r="2.5"/><circle class="cls-1" cx="298.52" cy="216.52" r="2.5"/><circle class="cls-1" cx="298.52" cy="200.94" r="2.5"/><circle class="cls-1" cx="291.11" cy="281.6" r="2.5"/><circle class="cls-1" cx="291.11" cy="273.81" r="2.5"/><circle class="cls-1" cx="291.11" cy="266.03" r="2.5"/><circle class="cls-1" cx="291.11" cy="258.24" r="2.5"/><circle class="cls-1" cx="291.11" cy="250.45" r="2.5"/><circle class="cls-1" cx="291.11" cy="242.67" r="2.5"/><circle class="cls-1" cx="291.11" cy="328.32" r="2.5"/><circle class="cls-1" cx="291.11" cy="320.54" r="2.5"/><circle class="cls-1" cx="291.11" cy="312.75" r="2.5"/><circle class="cls-1" cx="291.11" cy="304.96" r="2.5"/><circle class="cls-1" cx="291.11" cy="297.18" r="2.5"/><circle class="cls-1" cx="291.11" cy="289.39" r="2.5"/><circle class="cls-1" cx="291.11" cy="234.88" r="2.5"/><circle class="cls-1" cx="291.11" cy="225.09" r="2.5"/><circle class="cls-1" cx="284.45" cy="286.6" r="2.5"/><circle class="cls-1" cx="284.45" cy="278.81" r="2.5"/><circle class="cls-1" cx="284.45" cy="271.03" r="2.5"/><circle class="cls-1" cx="284.45" cy="263.24" r="2.5"/><circle class="cls-1" cx="284.45" cy="255.45" r="2.5"/><circle class="cls-1" cx="284.45" cy="247.67" r="2.5"/><circle class="cls-1" cx="284.45" cy="325.54" r="2.5"/><circle class="cls-1" cx="284.45" cy="317.75" r="2.5"/><circle class="cls-1" cx="284.45" cy="309.96" r="2.5"/><circle class="cls-1" cx="284.45" cy="302.18" r="2.5"/><circle class="cls-1" cx="284.45" cy="294.39" r="2.5"/><circle class="cls-1" cx="284.45" cy="239.88" r="2.5"/><circle class="cls-1" cx="284.45" cy="232.09" r="2.5"/><circle class="cls-1" cx="284.45" cy="223.3" r="2.5"/><circle class="cls-1" cx="277.25" cy="271.81" r="2.5"/><circle class="cls-1" cx="277.25" cy="266.03" r="2.5"/><circle class="cls-1" cx="277.25" cy="258.24" r="2.5"/><circle class="cls-1" cx="277.25" cy="250.45" r="2.5"/><circle class="cls-1" cx="277.25" cy="242.67" r="2.5"/><circle class="cls-1" cx="277.25" cy="328.32" r="2.5"/><circle class="cls-1" cx="277.25" cy="320.54" r="2.5"/><circle class="cls-1" cx="277.25" cy="312.75" r="2.5"/><circle class="cls-1" cx="277.25" cy="304.96" r="2.5"/><circle class="cls-1" cx="277.25" cy="234.88" r="2.5"/><circle class="cls-1" cx="277.25" cy="227.09" r="2.5"/><circle class="cls-1" cx="277.25" cy="219.3" r="2.5"/><circle class="cls-1" cx="270.59" cy="268.03" r="2.5"/><circle class="cls-1" cx="270.59" cy="255.45" r="2.5"/><circle class="cls-1" cx="270.59" cy="247.67" r="2.5"/><circle class="cls-1" cx="270.59" cy="325.54" r="2.5"/><circle class="cls-1" cx="270.59" cy="317.75" r="2.5"/><circle class="cls-1" cx="270.59" cy="309.96" r="2.5"/><circle class="cls-1" cx="270.59" cy="302.18" r="2.5"/><circle class="cls-1" cx="270.59" cy="239.88" r="2.5"/><circle class="cls-1" cx="270.59" cy="232.09" r="2.5"/><circle class="cls-1" cx="270.59" cy="224.3" r="2.5"/><circle class="cls-1" cx="270.59" cy="216.52" r="2.5"/><circle class="cls-1" cx="270.59" cy="208.73" r="2.5"/><circle class="cls-1" cx="263.65" cy="273.81" r="2.5"/><circle class="cls-1" cx="263.65" cy="266.03" r="2.5"/><circle class="cls-1" cx="263.65" cy="258.24" r="2.5"/><circle class="cls-1" cx="263.65" cy="250.45" r="2.5"/><circle class="cls-1" cx="263.65" cy="242.67" r="2.5"/><circle class="cls-1" cx="263.65" cy="328.32" r="2.5"/><circle class="cls-1" cx="263.65" cy="314.54" r="2.5"/><circle class="cls-1" cx="263.65" cy="304.75" r="2.5"/><circle class="cls-1" cx="263.65" cy="234.88" r="2.5"/><circle class="cls-1" cx="263.65" cy="227.09" r="2.5"/><circle class="cls-1" cx="263.65" cy="219.3" r="2.5"/><circle class="cls-1" cx="263.65" cy="211.52" r="2.5"/><circle class="cls-1" cx="256.99" cy="286.6" r="2.5"/><circle class="cls-1" cx="256.99" cy="278.81" r="2.5"/><circle class="cls-1" cx="256.99" cy="271.03" r="2.5"/><circle class="cls-1" cx="256.99" cy="263.24" r="2.5"/><circle class="cls-1" cx="256.99" cy="255.45" r="2.5"/><circle class="cls-1" cx="256.99" cy="247.67" r="2.5"/><circle class="cls-1" cx="256.99" cy="323.54" r="2.5"/><circle class="cls-1" cx="256.99" cy="317.75" r="2.5"/><circle class="cls-1" cx="256.99" cy="309.96" r="2.5"/><circle class="cls-1" cx="255.99" cy="302.18" r="2.5"/><circle class="cls-1" cx="258.99" cy="294.39" r="2.5"/><circle class="cls-1" cx="256.99" cy="239.88" r="2.5"/><circle class="cls-1" cx="256.99" cy="232.09" r="2.5"/><circle class="cls-1" cx="256.99" cy="224.3" r="2.5"/><circle class="cls-1" cx="256.99" cy="216.52" r="2.5"/><circle class="cls-1" cx="249.79" cy="281.6" r="2.5"/><circle class="cls-1" cx="249.79" cy="273.81" r="2.5"/><circle class="cls-1" cx="249.79" cy="264.03" r="2.5"/><circle class="cls-1" cx="249.79" cy="250.45" r="2.5"/><circle class="cls-1" cx="249.79" cy="242.67" r="2.5"/><circle class="cls-1" cx="249.79" cy="328.32" r="2.5"/><circle class="cls-1" cx="249.79" cy="320.54" r="2.5"/><circle class="cls-1" cx="249.79" cy="312.75" r="2.5"/><circle class="cls-1" cx="249.79" cy="304.96" r="2.5"/><circle class="cls-1" cx="249.79" cy="297.18" r="2.5"/><circle class="cls-1" cx="249.79" cy="289.39" r="2.5"/><circle class="cls-1" cx="249.79" cy="234.88" r="2.5"/><circle class="cls-1" cx="249.79" cy="227.09" r="2.5"/><circle class="cls-1" cx="249.79" cy="219.3" r="2.5"/><circle class="cls-1" cx="243.13" cy="286.6" r="2.5"/><circle class="cls-1" cx="243.13" cy="278.81" r="2.5"/><circle class="cls-1" cx="243.13" cy="271.03" r="2.5"/><circle class="cls-1" cx="243.13" cy="263.24" r="2.5"/><circle class="cls-1" cx="245.13" cy="256.45" r="2.5"/><circle class="cls-1" cx="243.13" cy="247.67" r="2.5"/><circle class="cls-1" cx="243.13" cy="325.54" r="2.5"/><circle class="cls-1" cx="243.13" cy="317.75" r="2.5"/><circle class="cls-1" cx="243.13" cy="309.96" r="2.5"/><circle class="cls-1" cx="243.13" cy="302.18" r="2.5"/><circle class="cls-1" cx="243.13" cy="294.39" r="2.5"/><circle class="cls-1" cx="243.13" cy="239.88" r="2.5"/><circle class="cls-1" cx="243.13" cy="232.09" r="2.5"/><circle class="cls-1" cx="243.13" cy="224.3" r="2.5"/><circle class="cls-1" cx="235.88" cy="281.6" r="2.5"/><circle class="cls-1" cx="235.88" cy="273.81" r="2.5"/><circle class="cls-1" cx="235.88" cy="266.03" r="2.5"/><circle class="cls-1" cx="237.88" cy="258.24" r="2.5"/><circle class="cls-1" cx="235.88" cy="250.45" r="2.5"/><circle class="cls-1" cx="235.88" cy="242.67" r="2.5"/><circle class="cls-1" cx="235.88" cy="328.32" r="2.5"/><circle class="cls-1" cx="235.88" cy="320.54" r="2.5"/><circle class="cls-1" cx="235.88" cy="312.75" r="2.5"/><circle class="cls-1" cx="235.88" cy="304.96" r="2.5"/><circle class="cls-1" cx="235.88" cy="297.18" r="2.5"/><circle class="cls-1" cx="235.88" cy="289.39" r="2.5"/><circle class="cls-1" cx="235.88" cy="234.88" r="2.5"/><circle class="cls-1" cx="235.88" cy="227.09" r="2.5"/><circle class="cls-1" cx="229.22" cy="286.6" r="2.5"/><circle class="cls-1" cx="229.22" cy="278.81" r="2.5"/><circle class="cls-1" cx="229.22" cy="271.03" r="2.5"/><circle class="cls-1" cx="229.22" cy="263.24" r="2.5"/><circle class="cls-1" cx="229.22" cy="255.45" r="2.5"/><circle class="cls-1" cx="229.22" cy="325.54" r="2.5"/><circle class="cls-1" cx="229.22" cy="317.75" r="2.5"/><circle class="cls-1" cx="229.22" cy="309.96" r="2.5"/><circle class="cls-1" cx="229.22" cy="302.18" r="2.5"/><circle class="cls-1" cx="229.22" cy="294.39" r="2.5"/><circle class="cls-1" cx="229.22" cy="239.88" r="2.5"/><circle class="cls-1" cx="229.22" cy="232.09" r="2.5"/><circle class="cls-1" cx="222.02" cy="281.6" r="2.5"/><circle class="cls-1" cx="222.02" cy="273.81" r="2.5"/><circle class="cls-1" cx="222.02" cy="267.03" r="2.5"/><circle class="cls-1" cx="222.02" cy="258.24" r="2.5"/><circle class="cls-1" cx="226.02" cy="247.45" r="2.5"/><circle class="cls-1" cx="222.02" cy="242.67" r="2.5"/><circle class="cls-1" cx="222.02" cy="328.32" r="2.5"/><circle class="cls-1" cx="222.02" cy="320.54" r="2.5"/><circle class="cls-1" cx="222.02" cy="312.75" r="2.5"/><circle class="cls-1" cx="222.02" cy="304.96" r="2.5"/><circle class="cls-1" cx="222.02" cy="297.18" r="2.5"/><circle class="cls-1" cx="222.02" cy="289.39" r="2.5"/><circle class="cls-1" cx="222.02" cy="234.88" r="2.5"/><circle class="cls-1" cx="215.36" cy="286.6" r="2.5"/><circle class="cls-1" cx="215.36" cy="278.81" r="2.5"/><circle class="cls-1" cx="211.36" cy="273.03" r="2.5"/><circle class="cls-1" cx="215.36" cy="264.24" r="2.5"/><circle class="cls-1" cx="215.36" cy="255.45" r="2.5"/><circle class="cls-1" cx="215.36" cy="247.67" r="2.5"/><circle class="cls-1" cx="215.36" cy="325.54" r="2.5"/><circle class="cls-1" cx="215.36" cy="317.75" r="2.5"/><circle class="cls-1" cx="215.36" cy="309.96" r="2.5"/><circle class="cls-1" cx="215.36" cy="302.18" r="2.5"/><circle class="cls-1" cx="215.36" cy="294.39" r="2.5"/><circle class="cls-1" cx="215.36" cy="239.88" r="2.5"/><circle class="cls-1" cx="208.42" cy="266.03" r="2.5"/><circle class="cls-1" cx="208.42" cy="258.24" r="2.5"/><circle class="cls-1" cx="208.42" cy="250.45" r="2.5"/><circle class="cls-1" cx="208.42" cy="242.67" r="2.5"/><circle class="cls-1" cx="208.42" cy="328.32" r="2.5"/><circle class="cls-1" cx="208.42" cy="320.54" r="2.5"/><circle class="cls-1" cx="208.42" cy="312.75" r="2.5"/><circle class="cls-1" cx="208.42" cy="304.96" r="2.5"/><circle class="cls-1" cx="208.42" cy="297.18" r="2.5"/><circle class="cls-1" cx="208.42" cy="287.39" r="2.5"/><circle class="cls-1" cx="201.76" cy="263.24" r="2.5"/><circle class="cls-1" cx="201.76" cy="255.45" r="2.5"/><circle class="cls-1" cx="201.76" cy="247.67" r="2.5"/><circle class="cls-1" cx="201.76" cy="325.54" r="2.5"/><circle class="cls-1" cx="201.76" cy="317.75" r="2.5"/><circle class="cls-1" cx="201.76" cy="309.96" r="2.5"/><circle class="cls-1" cx="201.76" cy="302.18" r="2.5"/><circle class="cls-1" cx="201.76" cy="294.39" r="2.5"/><circle class="cls-1" cx="194.56" cy="266.03" r="2.5"/><circle class="cls-1" cx="194.56" cy="258.24" r="2.5"/><circle class="cls-1" cx="194.56" cy="250.45" r="2.5"/><circle class="cls-1" cx="194.56" cy="328.32" r="2.5"/><circle class="cls-1" cx="194.56" cy="320.54" r="2.5"/><circle class="cls-1" cx="194.56" cy="312.75" r="2.5"/><circle class="cls-1" cx="194.56" cy="304.96" r="2.5"/><circle class="cls-1" cx="194.56" cy="297.18" r="2.5"/><circle class="cls-1" cx="194.56" cy="289.39" r="2.5"/><circle class="cls-1" cx="187.9" cy="286.6" r="2.5"/><circle class="cls-1" cx="187.9" cy="271.03" r="2.5"/><circle class="cls-1" cx="187.9" cy="263.24" r="2.5"/><circle class="cls-1" cx="187.9" cy="255.45" r="2.5"/><circle class="cls-1" cx="187.9" cy="247.67" r="2.5"/><circle class="cls-1" cx="187.9" cy="325.54" r="2.5"/><circle class="cls-1" cx="187.9" cy="317.75" r="2.5"/><circle class="cls-1" cx="187.9" cy="309.96" r="2.5"/><circle class="cls-1" cx="187.9" cy="302.18" r="2.5"/><circle class="cls-1" cx="187.9" cy="294.39" r="2.5"/><circle class="cls-1" cx="180.56" cy="281.6" r="2.5"/><circle class="cls-1" cx="180.56" cy="273.81" r="2.5"/><circle class="cls-1" cx="180.56" cy="266.03" r="2.5"/><circle class="cls-1" cx="180.56" cy="258.24" r="2.5"/><circle class="cls-1" cx="180.56" cy="250.45" r="2.5"/><circle class="cls-1" cx="180.56" cy="328.32" r="2.5"/><circle class="cls-1" cx="180.56" cy="320.54" r="2.5"/><circle class="cls-1" cx="180.56" cy="312.75" r="2.5"/><circle class="cls-1" cx="180.56" cy="304.96" r="2.5"/><circle class="cls-1" cx="180.56" cy="297.18" r="2.5"/><circle class="cls-1" cx="180.56" cy="289.39" r="2.5"/><circle class="cls-1" cx="173.9" cy="286.6" r="2.5"/><circle class="cls-1" cx="173.9" cy="278.81" r="2.5"/><circle class="cls-1" cx="173.9" cy="271.03" r="2.5"/><circle class="cls-1" cx="173.9" cy="263.24" r="2.5"/><circle class="cls-1" cx="173.9" cy="255.45" r="2.5"/><circle class="cls-1" cx="173.9" cy="325.54" r="2.5"/><circle class="cls-1" cx="173.9" cy="302.18" r="2.5"/><circle class="cls-1" cx="173.9" cy="294.39" r="2.5"/><circle class="cls-1" cx="166.96" cy="281.6" r="2.5"/><circle class="cls-1" cx="166.96" cy="273.81" r="2.5"/><circle class="cls-1" cx="165.96" cy="268.03" r="2.5"/><circle class="cls-1" cx="166.96" cy="258.24" r="2.5"/><circle class="cls-1" cx="166.96" cy="328.32" r="2.5"/><circle class="cls-1" cx="166.96" cy="297.18" r="2.5"/><circle class="cls-1" cx="166.96" cy="289.39" r="2.5"/><circle class="cls-1" cx="160.3" cy="285.6" r="2.5"/><circle class="cls-1" cx="160.3" cy="274.03" r="2.5"/><circle class="cls-1" cx="160.3" cy="263.24" r="2.5"/><circle class="cls-1" cx="160.3" cy="325.54" r="2.5"/><circle class="cls-1" cx="160.3" cy="302.18" r="2.5"/><circle class="cls-1" cx="160.3" cy="294.39" r="2.5"/><circle class="cls-1" cx="155.1" cy="280.6" r="2.5"/><circle class="cls-1" cx="153.1" cy="273.81" r="2.5"/><circle class="cls-1" cx="153.1" cy="266.03" r="2.5"/><circle class="cls-1" cx="153.1" cy="328.32" r="2.5"/><circle class="cls-1" cx="153.1" cy="320.54" r="2.5"/><circle class="cls-1" cx="156.1" cy="312.75" r="2.5"/><circle class="cls-1" cx="153.1" cy="304.96" r="2.5"/><circle class="cls-1" cx="153.1" cy="297.18" r="2.5"/><circle class="cls-1" cx="153.1" cy="289.39" r="2.5"/><circle class="cls-1" cx="146.44" cy="286.6" r="2.5"/><circle class="cls-1" cx="146.44" cy="278.81" r="2.5"/><circle class="cls-1" cx="146.44" cy="271.03" r="2.5"/><circle class="cls-1" cx="146.44" cy="325.54" r="2.5"/><circle class="cls-1" cx="146.44" cy="317.75" r="2.5"/><circle class="cls-1" cx="146.44" cy="309.96" r="2.5"/><circle class="cls-1" cx="146.44" cy="294.39" r="2.5"/><circle class="cls-1" cx="139.03" cy="281.6" r="2.5"/><circle class="cls-1" cx="139.03" cy="273.81" r="2.5"/><circle class="cls-1" cx="139.03" cy="328.32" r="2.5"/><circle class="cls-1" cx="139.03" cy="320.54" r="2.5"/><circle class="cls-1" cx="139.03" cy="312.75" r="2.5"/><circle class="cls-1" cx="139.03" cy="304.96" r="2.5"/><circle class="cls-1" cx="139.03" cy="297.18" r="2.5"/><circle class="cls-1" cx="139.03" cy="289.39" r="2.5"/><circle class="cls-1" cx="132.37" cy="286.6" r="2.5"/><circle class="cls-1" cx="132.37" cy="278.81" r="2.5"/><circle class="cls-1" cx="132.37" cy="325.54" r="2.5"/><circle class="cls-1" cx="132.37" cy="317.75" r="2.5"/><circle class="cls-1" cx="132.37" cy="309.96" r="2.5"/><circle class="cls-1" cx="132.37" cy="295.18" r="2.5"/><circle class="cls-1" cx="125.17" cy="281.6" r="2.5"/><circle class="cls-1" cx="125.17" cy="328.32" r="2.5"/><circle class="cls-1" cx="125.17" cy="318.54" r="2.5"/><circle class="cls-1" cx="125.17" cy="308.75" r="2.5"/><circle class="cls-1" cx="128.17" cy="300.96" r="2.5"/><circle class="cls-1" cx="125.17" cy="289.39" r="2.5"/><circle class="cls-1" cx="118.51" cy="286.6" r="2.5"/><circle class="cls-1" cx="118.51" cy="325.54" r="2.5"/><circle class="cls-1" cx="118.51" cy="317.75" r="2.5"/><circle class="cls-1" cx="118.51" cy="309.96" r="2.5"/><circle class="cls-1" cx="118.51" cy="302.18" r="2.5"/><circle class="cls-1" cx="120.51" cy="294.39" r="2.5"/><circle class="cls-1" cx="111.57" cy="328.32" r="2.5"/><circle class="cls-1" cx="111.57" cy="318.54" r="2.5"/><circle class="cls-1" cx="111.57" cy="309.75" r="2.5"/><circle class="cls-1" cx="111.57" cy="297.18" r="2.5"/><circle class="cls-1" cx="111.57" cy="289.39" r="2.5"/><circle class="cls-1" cx="104.91" cy="325.54" r="2.5"/><circle class="cls-1" cx="104.91" cy="317.75" r="2.5"/><circle class="cls-1" cx="103.91" cy="309.96" r="2.5"/><circle class="cls-1" cx="104.91" cy="302.18" r="2.5"/><circle class="cls-1" cx="104.91" cy="294.39" r="2.5"/><circle class="cls-1" cx="97.71" cy="328.32" r="2.5"/><circle class="cls-1" cx="97.71" cy="312.75" r="2.5"/><circle class="cls-1" cx="97.71" cy="304.96" r="2.5"/><circle class="cls-1" cx="97.71" cy="297.18" r="2.5"/><circle class="cls-1" cx="91.05" cy="325.54" r="2.5"/><circle class="cls-1" cx="91.05" cy="317.75" r="2.5"/><circle class="cls-1" cx="91.05" cy="309.96" r="2.5"/><circle class="cls-1" cx="91.05" cy="302.18" r="2.5"/><circle class="cls-1" cx="83.8" cy="328.32" r="2.5"/><circle class="cls-1" cx="83.8" cy="320.54" r="2.5"/><circle class="cls-1" cx="83.8" cy="303.96" r="2.5"/><circle class="cls-1" cx="77.14" cy="325.54" r="2.5"/><circle class="cls-1" cx="77.14" cy="317.75" r="2.5"/><circle class="cls-1" cx="77.14" cy="309.96" r="2.5"/><circle class="cls-1" cx="69.94" cy="328.32" r="2.5"/><circle class="cls-1" cx="69.94" cy="320.54" r="2.5"/><circle class="cls-1" cx="68.94" cy="309.75" r="2.5"/><circle class="cls-1" cx="63.28" cy="325.54" r="2.5"/><circle class="cls-1" cx="64.28" cy="317.75" r="2.5"/><circle class="cls-1" cx="56.34" cy="328.32" r="2.5"/><circle class="cls-1" cx="58.34" cy="312.75" r="2.5"/><circle class="cls-1" cx="49.68" cy="325.54" r="2.5"/><circle class="cls-1" cx="49.68" cy="317.75" r="2.5"/><circle class="cls-1" cx="42.48" cy="328.32" r="2.5"/><circle class="cls-1" cx="42.48" cy="320.54" r="2.5"/><circle class="cls-1" cx="35.82" cy="325.54" r="2.5"/><circle class="cls-1" cx="456.95" cy="214.02" r="7.5"/><circle class="cls-1" cx="346.25" cy="312.75" r="7.5"/><circle class="cls-1" cx="596.44" cy="143.93" r="7.5"/><circle class="cls-1" cx="580.34" cy="107.5" r="7.5"/><circle class="cls-1" cx="600.6" cy="71.35" r="7.5"/><circle class="cls-1" cx="199.06" cy="278.17" r="7.5"/><circle class="cls-1" cx="168.1" cy="312.75" r="7.5"/><circle class="cls-1" cx="449.45" cy="302.18" r="10"/><circle class="cls-1" cx="270.68" cy="286.45" r="10"/><circle class="cls-1" cx="286.95" cy="208.73" r="10"/><circle class="cls-1" cx="497.48" cy="172.58" r="10"/><circle class="cls-1" cx="574.84" cy="239.88" r="10"/><circle class="cls-1" cx="542.91" cy="312.46" r="10"/><circle class="cls-1" cx="587.84" cy="291.89" r="20"/><circle class="cls-1" cx="581.4" cy="200.86" r="20"/><circle class="cls-1" cx="410.58" cy="270.95" r="20"/><circle class="cls-1" cx="515.43" cy="227.01" r="20"/><circle class="cls-1" cx="540.39" cy="122.99" r="20"/><circle class="cls-1" cx="499.98" cy="289.39" r="20"/></g><g id="圖層_1" data-name="圖層 1"><g id="萬人" class="cls-2"><g class="cls-2"><path d="M6.19,3.21H2.92V2.6H6.19v-1h.66v1H8.72v.61H6.85v1H6.19Zm8.28,10.32c0,.39-.09.57-.4.69a7.51,7.51,0,0,1-1.9.11,2.16,2.16,0,0,0-.22-.58c.81,0,1.42,0,1.61,0s.25-.05.25-.22V10.18H9.31V12l2.24-.1a9.74,9.74,0,0,0-.85-1l.52-.22a8.35,8.35,0,0,1,1.71,2.47l-.54.24a4.7,4.7,0,0,0-.46-.88c-2.39.13-4.87.25-6.54.32l0-.63L8.67,12v-1.8H4.28v4.16H3.62V10.18H3.05V9.59h.57V9h.66v.57H8.67v-1H4.55V4.45h9V8.56H9.31v1h5.16ZM5.19,6.23H8.67V5H5.19ZM8.67,8V6.76H5.19V8ZM15.06,2.6v.61H11.74v1h-.66v-1H9.27V2.6h1.81v-1h.66v1ZM12.86,5H9.31V6.23h3.55Zm0,1.77H9.31V8h3.55Z"/><path d="M23.41,1.72c0,.45,0,1.12-.08,1.92.19,1.4,1,7.8,6.06,10a2.31,2.31,0,0,0-.49.55c-3.85-1.76-5.27-5.88-5.85-8.5-.55,3-2,6.62-5.79,8.54a3,3,0,0,0-.52-.49c5.9-2.88,5.93-10,6-12.06Z"/></g></g><line id="Line_48" data-name="Line 48" class="cls-3" x1="34" y1="333.32" x2="624" y2="333.32"/><g class="cls-2"><path class="cls-4" d="M89.92,361.32H82v-1.1l4.19-4.65a9.52,9.52,0,0,0,1.28-1.72,2.78,2.78,0,0,0,.35-1.36,2.16,2.16,0,0,0-.57-1.55,2,2,0,0,0-1.53-.61,2.4,2.4,0,0,0-1.78.65,2.51,2.51,0,0,0-.63,1.81H81.77a3.53,3.53,0,0,1,1.08-2.69,3.94,3.94,0,0,1,2.87-1,3.84,3.84,0,0,1,2.67.88,3,3,0,0,1,1,2.36c0,1.19-.76,2.6-2.28,4.25l-3.23,3.51h6.06Z"/><path class="cls-4" d="M99.13,356.17a7,7,0,0,1-.92,4,3.82,3.82,0,0,1-5.75,0,6.63,6.63,0,0,1-1-3.83v-2.05a6.93,6.93,0,0,1,.92-4,3.9,3.9,0,0,1,5.76,0,6.6,6.6,0,0,1,.95,3.85Zm-1.54-2.1a5.71,5.71,0,0,0-.54-2.85,1.91,1.91,0,0,0-1.74-.89,1.87,1.87,0,0,0-1.72.89A5.47,5.47,0,0,0,93,354v2.46a5.82,5.82,0,0,0,.56,2.89,1.9,1.9,0,0,0,1.73.93,1.85,1.85,0,0,0,1.69-.88,5.51,5.51,0,0,0,.57-2.77Z"/><path class="cls-4" d="M106.14,361.32H104.6V351.09l-3.1,1.13v-1.39l4.4-1.65h.24Z"/><path class="cls-4" d="M118.56,361.32h-7.92v-1.1l4.19-4.65a10,10,0,0,0,1.28-1.72,2.9,2.9,0,0,0,.35-1.36,2.16,2.16,0,0,0-.57-1.55,2,2,0,0,0-1.53-.61,2.39,2.39,0,0,0-1.78.65,2.51,2.51,0,0,0-.63,1.81h-1.54a3.56,3.56,0,0,1,1.07-2.69,4,4,0,0,1,2.88-1A3.86,3.86,0,0,1,117,350a3,3,0,0,1,1,2.36c0,1.19-.75,2.6-2.27,4.25l-3.24,3.51h6.07Z"/></g><g class="cls-2"><path class="cls-4" d="M214.92,361.32H207v-1.1l4.19-4.65a9.52,9.52,0,0,0,1.28-1.72,2.78,2.78,0,0,0,.35-1.36,2.16,2.16,0,0,0-.57-1.55,2,2,0,0,0-1.53-.61,2.4,2.4,0,0,0-1.78.65,2.51,2.51,0,0,0-.63,1.81h-1.54a3.53,3.53,0,0,1,1.08-2.69,3.94,3.94,0,0,1,2.87-1,3.84,3.84,0,0,1,2.67.88,3,3,0,0,1,1,2.36c0,1.19-.76,2.6-2.28,4.25l-3.23,3.51h6.06Z"/><path class="cls-4" d="M224.13,356.17a7,7,0,0,1-.92,4,3.82,3.82,0,0,1-5.75,0,6.63,6.63,0,0,1-1-3.83v-2.05a6.93,6.93,0,0,1,.92-4,3.9,3.9,0,0,1,5.76,0,6.6,6.6,0,0,1,.95,3.85Zm-1.54-2.1a5.71,5.71,0,0,0-.54-2.85,1.91,1.91,0,0,0-1.74-.89,1.87,1.87,0,0,0-1.72.89A5.47,5.47,0,0,0,218,354v2.46a5.82,5.82,0,0,0,.56,2.89,1.9,1.9,0,0,0,1.73.93,1.85,1.85,0,0,0,1.69-.88,5.51,5.51,0,0,0,.57-2.77Z"/><path class="cls-4" d="M231.14,361.32H229.6V351.09l-3.1,1.13v-1.39l4.4-1.65h.24Z"/><path class="cls-4" d="M242.12,357.26h1.68v1.25h-1.68v2.81h-1.54v-2.81h-5.5v-.9l5.41-8.38h1.63Zm-5.3,0h3.76v-5.93l-.18.34Z"/></g><g class="cls-2"><path class="cls-4" d="M344.92,361.32H337v-1.1l4.19-4.65a9.52,9.52,0,0,0,1.28-1.72,2.78,2.78,0,0,0,.35-1.36,2.16,2.16,0,0,0-.57-1.55,2,2,0,0,0-1.53-.61,2.4,2.4,0,0,0-1.78.65,2.51,2.51,0,0,0-.63,1.81h-1.54a3.53,3.53,0,0,1,1.08-2.69,3.94,3.94,0,0,1,2.87-1,3.84,3.84,0,0,1,2.67.88,3,3,0,0,1,1,2.36c0,1.19-.76,2.6-2.28,4.25l-3.23,3.51h6.06Z"/><path class="cls-4" d="M354.13,356.17a7,7,0,0,1-.92,4,3.82,3.82,0,0,1-5.75,0,6.63,6.63,0,0,1-1-3.83v-2.05a6.93,6.93,0,0,1,.92-4,3.9,3.9,0,0,1,5.76,0,6.6,6.6,0,0,1,.95,3.85Zm-1.54-2.1a5.59,5.59,0,0,0-.55-2.85,2.12,2.12,0,0,0-3.45,0A5.47,5.47,0,0,0,348,354v2.46a5.82,5.82,0,0,0,.56,2.89,1.9,1.9,0,0,0,1.73.93,1.85,1.85,0,0,0,1.69-.88,5.51,5.51,0,0,0,.57-2.77Z"/><path class="cls-4" d="M361.14,361.32H359.6V351.09l-3.1,1.13v-1.39l4.4-1.65h.24Z"/><path class="cls-4" d="M371.67,349.23v1.3h-.28a4.07,4.07,0,0,0-2.86,1.06,4.42,4.42,0,0,0-1.23,2.9,3.3,3.3,0,0,1,2.61-1.1,3.12,3.12,0,0,1,2.52,1.12,4.87,4.87,0,0,1-.08,5.86,3.5,3.5,0,0,1-2.72,1.12,3.46,3.46,0,0,1-2.82-1.34,5.26,5.26,0,0,1-1.08-3.43v-.59a8,8,0,0,1,1.43-5.1,5.21,5.21,0,0,1,4.23-1.8Zm-2,5.44a2.46,2.46,0,0,0-1.45.47,2.53,2.53,0,0,0-.92,1.19v.57a3.94,3.94,0,0,0,.67,2.4,2,2,0,0,0,1.68.92,2,2,0,0,0,1.63-.77,3.68,3.68,0,0,0,0-4A1.93,1.93,0,0,0,369.65,354.67Z"/></g><g class="cls-2"><path class="cls-4" d="M469.92,361.32H462v-1.1l4.19-4.65a9.52,9.52,0,0,0,1.28-1.72,2.78,2.78,0,0,0,.35-1.36,2.16,2.16,0,0,0-.57-1.55,2,2,0,0,0-1.53-.61,2.4,2.4,0,0,0-1.78.65,2.51,2.51,0,0,0-.63,1.81h-1.54a3.53,3.53,0,0,1,1.08-2.69,3.94,3.94,0,0,1,2.87-1,3.84,3.84,0,0,1,2.67.88,3,3,0,0,1,1,2.36c0,1.19-.76,2.6-2.28,4.25l-3.23,3.51h6.06Z"/><path class="cls-4" d="M479.13,356.17a7,7,0,0,1-.92,4,3.82,3.82,0,0,1-5.75,0,6.63,6.63,0,0,1-1-3.83v-2.05a6.93,6.93,0,0,1,.92-4,3.9,3.9,0,0,1,5.76,0,6.6,6.6,0,0,1,.95,3.85Zm-1.54-2.1a5.59,5.59,0,0,0-.55-2.85,2.12,2.12,0,0,0-3.45,0A5.47,5.47,0,0,0,473,354v2.46a5.82,5.82,0,0,0,.56,2.89,1.9,1.9,0,0,0,1.73.93,1.85,1.85,0,0,0,1.69-.88,5.51,5.51,0,0,0,.57-2.77Z"/><path class="cls-4" d="M486.14,361.32H484.6V351.09l-3.1,1.13v-1.39l4.4-1.65h.24Z"/><path class="cls-4" d="M498,352.39a2.8,2.8,0,0,1-.48,1.61,3.09,3.09,0,0,1-1.29,1.1,3.48,3.48,0,0,1,1.5,1.19,3,3,0,0,1,.55,1.77,3.18,3.18,0,0,1-1.05,2.5,4.63,4.63,0,0,1-5.58,0,3.37,3.37,0,0,1-.52-4.26,3.39,3.39,0,0,1,1.48-1.2,3.16,3.16,0,0,1-1.27-1.1,2.83,2.83,0,0,1-.46-1.6,3.15,3.15,0,0,1,1-2.43,4.18,4.18,0,0,1,5.16,0A3.15,3.15,0,0,1,498,352.39ZM496.72,358a2.28,2.28,0,0,0-.64-1.66,2.32,2.32,0,0,0-1.69-.64,2.21,2.21,0,0,0-1.66.64,2.24,2.24,0,0,0-.63,1.66,2.16,2.16,0,0,0,.61,1.61,2.33,2.33,0,0,0,1.7.59,2.31,2.31,0,0,0,1.69-.59A2.14,2.14,0,0,0,496.72,358Zm-2.31-7.7a2,2,0,0,0-1.46.56,2.29,2.29,0,0,0,0,3,2.18,2.18,0,0,0,2.94,0,2.25,2.25,0,0,0,0-3A1.93,1.93,0,0,0,494.41,350.33Z"/></g><g class="cls-2"><path class="cls-4" d="M594.92,361.32H587v-1.1l4.19-4.65a9.52,9.52,0,0,0,1.28-1.72,2.78,2.78,0,0,0,.35-1.36,2.16,2.16,0,0,0-.57-1.55,2,2,0,0,0-1.53-.61,2.4,2.4,0,0,0-1.78.65,2.51,2.51,0,0,0-.63,1.81h-1.54a3.53,3.53,0,0,1,1.08-2.69,3.94,3.94,0,0,1,2.87-1,3.84,3.84,0,0,1,2.67.88,3,3,0,0,1,1,2.36c0,1.19-.76,2.6-2.28,4.25l-3.23,3.51h6.06Z"/><path class="cls-4" d="M604.13,356.17a7,7,0,0,1-.92,4,3.82,3.82,0,0,1-5.75,0,6.63,6.63,0,0,1-1-3.83v-2.05a6.93,6.93,0,0,1,.92-4,3.9,3.9,0,0,1,5.76,0,6.6,6.6,0,0,1,1,3.85Zm-1.54-2.1a5.59,5.59,0,0,0-.55-2.85,2.12,2.12,0,0,0-3.45,0A5.47,5.47,0,0,0,598,354v2.46a5.82,5.82,0,0,0,.56,2.89,1.9,1.9,0,0,0,1.73.93,1.85,1.85,0,0,0,1.69-.88,5.51,5.51,0,0,0,.57-2.77Z"/><path class="cls-4" d="M614,361.32H606.1v-1.1l4.18-4.65a9.52,9.52,0,0,0,1.28-1.72,2.8,2.8,0,0,0,.36-1.36,2.17,2.17,0,0,0-.58-1.55,2,2,0,0,0-1.53-.61A2.4,2.4,0,0,0,608,351a2.51,2.51,0,0,0-.63,1.81h-1.54a3.53,3.53,0,0,1,1.08-2.69,4,4,0,0,1,2.87-1,3.82,3.82,0,0,1,2.67.88,3,3,0,0,1,1,2.36c0,1.19-.76,2.6-2.28,4.25L608,360.07H614Z"/><path class="cls-4" d="M623.22,356.17a7,7,0,0,1-.92,4,3.27,3.27,0,0,1-2.88,1.32,3.3,3.3,0,0,1-2.87-1.29,6.71,6.71,0,0,1-1-3.83v-2.05a6.93,6.93,0,0,1,.92-4,3.9,3.9,0,0,1,5.76,0,6.6,6.6,0,0,1,1,3.85Zm-1.53-2.1a5.7,5.7,0,0,0-.55-2.85,1.91,1.91,0,0,0-1.74-.89,1.88,1.88,0,0,0-1.72.89,5.47,5.47,0,0,0-.55,2.73v2.46a5.7,5.7,0,0,0,.57,2.89,1.88,1.88,0,0,0,1.72.93,1.85,1.85,0,0,0,1.69-.88,5.5,5.5,0,0,0,.58-2.77Z"/></g><g class="cls-2"><path class="cls-4" d="M9.92,31.32H2v-1.1l4.19-4.65a9.52,9.52,0,0,0,1.28-1.72,2.78,2.78,0,0,0,.35-1.36,2.16,2.16,0,0,0-.57-1.55,2,2,0,0,0-1.53-.61A2.4,2.4,0,0,0,3.94,21a2.51,2.51,0,0,0-.63,1.81H1.77A3.53,3.53,0,0,1,2.85,20.1a3.94,3.94,0,0,1,2.87-1A3.84,3.84,0,0,1,8.39,20a3,3,0,0,1,1,2.36c0,1.19-.76,2.6-2.28,4.25L3.86,30.07H9.92Z"/><path class="cls-4" d="M16.6,31.32H15.05V21.09L12,22.22V20.83l4.4-1.65h.24Z"/><path class="cls-4" d="M28.67,26.17a7,7,0,0,1-.92,4,3.26,3.26,0,0,1-2.88,1.32A3.29,3.29,0,0,1,22,30.2a6.63,6.63,0,0,1-1-3.83V24.32a6.85,6.85,0,0,1,.92-4,3.29,3.29,0,0,1,2.89-1.29,3.32,3.32,0,0,1,2.87,1.25,6.6,6.6,0,0,1,.94,3.85Zm-1.53-2.1a5.59,5.59,0,0,0-.55-2.85,1.88,1.88,0,0,0-1.73-.89,1.87,1.87,0,0,0-1.72.89A5.46,5.46,0,0,0,22.58,24v2.46a5.7,5.7,0,0,0,.57,2.89,1.88,1.88,0,0,0,1.72.93,1.85,1.85,0,0,0,1.69-.88,5.5,5.5,0,0,0,.58-2.77Z"/></g><g class="cls-2"><path class="cls-4" d="M7.05,133.32H5.51V123.09l-3.1,1.13v-1.39l4.4-1.65h.24Z"/><path class="cls-4" d="M17.44,128a3.92,3.92,0,0,1-1.15.92,3.36,3.36,0,0,1-3.29-.17,3.26,3.26,0,0,1-1.2-1.45,5.33,5.33,0,0,1,0-4.24,3.39,3.39,0,0,1,1.3-1.49,3.79,3.79,0,0,1,2-.51A3.4,3.4,0,0,1,18,122.41a5.9,5.9,0,0,1,1,3.66v.44c0,2.36-.47,4.07-1.4,5.15a5.32,5.32,0,0,1-4.2,1.67h-.3V132h.32a4.29,4.29,0,0,0,2.92-1A4.3,4.3,0,0,0,17.44,128Zm-2.37,0a2.39,2.39,0,0,0,1.42-.47,2.77,2.77,0,0,0,1-1.18v-.61a4.21,4.21,0,0,0-.65-2.46,2,2,0,0,0-1.66-.94,2,2,0,0,0-1.63.77,3.21,3.21,0,0,0-.61,2,3.33,3.33,0,0,0,.59,2A1.9,1.9,0,0,0,15.07,128Z"/><path class="cls-4" d="M28.67,128.17a7,7,0,0,1-.92,4,3.26,3.26,0,0,1-2.88,1.32A3.29,3.29,0,0,1,22,132.2a6.63,6.63,0,0,1-1-3.83v-2.05a6.85,6.85,0,0,1,.92-4,3.29,3.29,0,0,1,2.89-1.29,3.32,3.32,0,0,1,2.87,1.25,6.6,6.6,0,0,1,.94,3.85Zm-1.53-2.1a5.59,5.59,0,0,0-.55-2.85,1.88,1.88,0,0,0-1.73-.89,1.87,1.87,0,0,0-1.72.89,5.46,5.46,0,0,0-.56,2.73v2.46a5.7,5.7,0,0,0,.57,2.89,1.88,1.88,0,0,0,1.72.93,1.85,1.85,0,0,0,1.69-.88,5.5,5.5,0,0,0,.58-2.77Z"/></g><g class="cls-2"><path class="cls-4" d="M7.05,235.32H5.51V225.09l-3.1,1.13v-1.39l4.4-1.65h.24Z"/><path class="cls-4" d="M19.35,224.1l-5,11.22H12.74l5-10.82H11.19v-1.27h8.16Z"/><path class="cls-4" d="M28.67,230.17a7,7,0,0,1-.92,4,3.26,3.26,0,0,1-2.88,1.32A3.29,3.29,0,0,1,22,234.2a6.63,6.63,0,0,1-1-3.83v-2.05a6.85,6.85,0,0,1,.92-4,3.29,3.29,0,0,1,2.89-1.29,3.32,3.32,0,0,1,2.87,1.25,6.6,6.6,0,0,1,.94,3.85Zm-1.53-2.1a5.59,5.59,0,0,0-.55-2.85,1.88,1.88,0,0,0-1.73-.89,1.87,1.87,0,0,0-1.72.89,5.46,5.46,0,0,0-.56,2.73v2.46a5.7,5.7,0,0,0,.57,2.89,1.88,1.88,0,0,0,1.72.93,1.85,1.85,0,0,0,1.69-.88,5.5,5.5,0,0,0,.58-2.77Z"/></g><g class="cls-2"><path class="cls-4" d="M7.05,339.32H5.51V329.09l-3.1,1.13v-1.39l4.4-1.65h.24Z"/><path class="cls-4" d="M12.26,333.26l.61-6h6.19v1.42H14.17l-.36,3.3a3.87,3.87,0,0,1,2-.52,3.32,3.32,0,0,1,2.62,1.09,4.27,4.27,0,0,1,1,3,4.15,4.15,0,0,1-1,2.94,3.66,3.66,0,0,1-2.82,1.08A3.81,3.81,0,0,1,13,338.6a3.55,3.55,0,0,1-1.16-2.46h1.46a2.45,2.45,0,0,0,.74,1.57,2.27,2.27,0,0,0,1.57.52,2,2,0,0,0,1.68-.73,3,3,0,0,0,.61-2,2.81,2.81,0,0,0-.66-1.95,2.24,2.24,0,0,0-1.75-.74,2.56,2.56,0,0,0-1.58.44l-.41.34Z"/><path class="cls-4" d="M28.67,334.17a7,7,0,0,1-.92,4,3.26,3.26,0,0,1-2.88,1.32A3.29,3.29,0,0,1,22,338.2a6.63,6.63,0,0,1-1-3.83v-2.05a6.85,6.85,0,0,1,.92-4,3.29,3.29,0,0,1,2.89-1.29,3.32,3.32,0,0,1,2.87,1.25,6.6,6.6,0,0,1,.94,3.85Zm-1.53-2.1a5.59,5.59,0,0,0-.55-2.85,1.88,1.88,0,0,0-1.73-.89,1.87,1.87,0,0,0-1.72.89,5.46,5.46,0,0,0-.56,2.73v2.46a5.7,5.7,0,0,0,.57,2.89,1.88,1.88,0,0,0,1.72.93,1.85,1.85,0,0,0,1.69-.88,5.5,5.5,0,0,0,.58-2.77Z"/></g></g></svg>