<?xml version="1.0" encoding="utf-8"?>
<!-- Generator: Adobe Illustrator 25.2.1, SVG Export Plug-In . SVG Version: 6.00 Build 0)  -->
<svg version="1.1" id="圖層_1" xmlns="http://www.w3.org/2000/svg" xmlns:xlink="http://www.w3.org/1999/xlink" x="0px" y="0px"
	 viewBox="0 0 293 89.8" style="enable-background:new 0 0 293 89.8;" xml:space="preserve">
<style type="text/css">
	.st0{enable-background:new    ;}
	.st1{fill:#FFFFFF;}
</style>
<g class="st0">
	<path class="st1" d="M6.1,7.1c0.5-0.2,1.1-0.5,1.9-0.7C8.9,6.2,9.4,6,9.6,5.8C9.8,5.6,9.9,5.3,10,4.9c0.1-0.4,0.3-0.7,0.5-0.9
		c0.2-0.2,0.4-0.3,0.8-0.3c0.2,0,0.4,0.1,0.6,0.3s0.3,0.4,0.5,0.7s0.3,0.5,0.4,0.5c0.4,0,0.8,0,1.2-0.1c0.5-0.1,0.9-0.1,1.2-0.1
		c0.3,0,0.6,0.1,0.8,0.4c0.2,0.3,0.3,0.6,0.3,0.9c0,0.4-0.2,0.7-0.6,0.9c-0.4,0.2-1,0.5-1.8,0.8c-0.7,0.3-1.2,0.5-1.4,0.6
		c-0.2,0.1-0.3,0.6-0.3,1.2S12,10.9,12,11.1c-0.1,0.2-0.1,0.4-0.2,0.7c-0.1,0.2-0.1,0.5-0.2,0.6l0.2,0.1c0.3,0,0.8-0.1,1.5-0.4
		c0.6-0.3,1.2-0.5,1.6-0.5c0.6,0,0.9,0.3,0.9,0.8c0,0.5-0.1,0.9-0.4,1.1c-0.2,0.3-0.6,0.5-1.1,0.8c-0.6,0.3-1,0.7-1.2,0.9
		c-0.1,0.2-0.2,0.9-0.3,2.3c-0.1,1.3-0.1,2.4-0.1,3.1c0,0.2,0,0.3,0,0.4l0.2,0c0.3,0,0.7-0.1,1.1-0.3c0.4-0.2,1-0.5,1.7-0.8
		c0.5-0.3,1-0.5,1.5-0.7c0.5-0.2,0.9-0.3,1.1-0.3c0.3,0,0.6,0.1,0.7,0.4c0.2,0.3,0.3,0.6,0.3,0.9c0,0.2-0.1,0.5-0.3,0.8
		c-0.1,0.1-1.2,0.7-3.2,1.7c-2,1-3.3,1.6-3.7,1.7c-0.1,0.2-0.3,0.7-0.5,1.7c-0.3,1-0.4,1.5-0.4,1.7c0,0.1,0.1,0.2,0.3,0.3
		c0.2,0.1,0.4,0.1,0.5,0.2c1.2,0.3,2.4,0.6,3.5,1.1c1.1,0.5,2.6,1.1,4.4,2c2.2,1.1,3.9,1.8,5.1,2.3c0.2,0.1,0.9,0.3,2,0.7
		c1.2,0.4,1.9,0.9,2.2,1.3c0.1,0.1,0.1,0.3,0.1,0.5c0,0.3-0.1,0.7-0.3,0.9c-0.2,0.3-0.5,0.4-0.9,0.4c-0.3,0-0.8-0.1-1.4-0.3
		c-0.6-0.2-1-0.3-1.1-0.3l-5.9-2.1c-4.2-1.5-7.6-2.7-10-3.6c-2.4-0.8-3.9-1.2-4.3-1.2c-0.1,0-0.2,0.1-0.3,0.2
		C5.1,30.4,5,30.5,5,30.6c0,0.1,0,0.2,0,0.2c-0.1,0.5-0.3,1.2-0.7,2.1s-0.9,1.7-1.4,2.4c-0.5,0.7-1.1,1-1.6,1
		c-0.5,0-0.9-0.2-1.2-0.6l0-0.3c0-0.3,0.1-0.9,0.3-1.5s0.5-1.4,0.7-2c0.3-0.8,0.5-1.4,0.6-1.8c-0.1-0.1-0.2-0.3-0.3-0.5
		c-0.1-0.2-0.2-0.4-0.2-0.6c0-0.2,0.1-0.4,0.2-0.6C1.4,28.2,1.7,28,2,27.6c0.5-0.5,0.7-0.8,0.8-1.1c0.3-0.6,0.5-1.4,0.7-2.3
		c0.3-1,0.6-1.9,0.8-2.6C4.6,21,5,20.4,5.5,19.8c0.5-0.5,0.8-0.7,0.9-0.7c0.2,0,0.3,0.1,0.4,0.2C7,19.5,7,19.7,7,19.9
		c0,0.1,0,0.2-0.1,0.5C6.3,23,6,25.1,6,26.7c0,0.2,0.3,0.3,0.8,0.5c0.5,0.1,1,0.2,1.2,0.2c0.8-1.9,1.4-4.2,1.7-6.7
		c0.1-0.5,0.1-0.9,0.3-1.4c0.2-0.9,0.3-1.6,0.3-2.1c0-0.2-0.1-0.3-0.4-0.3c-0.3,0-0.6,0.1-1,0.2c-0.4,0.1-0.7,0.2-1,0.3
		c-0.9,0.3-1.5,0.5-2,0.5c-0.5,0-0.8-0.1-1.1-0.2c-0.2-0.1-0.3-0.4-0.3-0.9c0-0.3,0.1-0.5,0.3-0.8s0.5-0.4,0.7-0.4
		c0.8,0,1.6-0.4,2.2-1.1C8.3,13.9,8.8,13,9.1,12c0.3-1,0.5-1.9,0.5-2.7c-0.2,0-0.6,0-1,0.1c-0.3,0.1-0.7,0.1-1,0.1
		C6.8,9.5,6.3,9.4,6,9.3C5.6,9.1,5.5,8.7,5.5,8.1C5.5,7.7,5.7,7.4,6.1,7.1z"/>
	<path class="st1" d="M41.5,13.4c0.8-0.3,1.3-0.5,1.5-0.7c0.1-0.1,0.3-0.4,0.3-0.9c0.1-0.4,0.1-0.9,0.2-1.4C43.6,9.1,43.7,8,44,7.3
		c0.2-0.8,0.7-1.1,1.4-1.1c0.3,0,0.7,0.1,0.9,0.3c0.3,0.2,0.4,0.5,0.4,0.9c0,0.2-0.1,0.4-0.3,0.7c-0.2,0.3-0.3,0.6-0.3,1
		c0.1,0.2,0.1,0.6,0.1,1v0.6c0,0.2,0,0.4,0,0.6l0.2,0.2c0.7-0.1,1.3-0.3,1.9-0.8c0.1-0.3,0.1-0.7,0.2-1.3c0.1-0.6,0.2-1.1,0.5-1.4
		c0.2-0.4,0.6-0.6,1.1-0.6c0.8,0,1.3,0.5,1.6,1.6c0.3,1.1,0.4,2.2,0.4,3.5c0,0.7-0.1,1.2-0.3,1.7s-0.6,0.6-1.2,0.6
		c-0.1,0-0.4-0.2-0.8-0.5c-0.4-0.3-0.7-0.5-0.9-0.5c-0.1,0-0.6,0.3-1.4,0.8c-0.8,0.5-1.2,0.9-1.3,1c-0.1,1-0.1,2.7-0.2,4.9
		C46.1,22.8,46,24.7,46,26v0.8l1.5,0c1,0,2.2-0.2,3.5-0.5c1.3-0.3,2.4-0.8,3.3-1.2c-0.1-0.5-0.6-1.3-1.5-2.4
		c-0.4-0.5-0.7-0.9-0.9-1.2c-0.2-0.3-0.3-0.6-0.3-0.8c0-0.3,0.2-0.7,0.5-0.9c0.3-0.3,0.7-0.4,1-0.4c0.8,0,1.7,0.9,2.7,2.7
		c1,1.8,2.1,3.8,3.1,6l0.9,1.8c0.3,0.5,0.6,1.1,0.9,1.7s0.5,1.2,0.7,1.7c0.5,1.5,0.7,2.9,0.7,4c0,0.3-0.2,0.6-0.6,0.9
		c-0.4,0.3-0.7,0.5-1,0.5c-0.3,0-0.6-0.1-0.9-0.4c-1.1-2.1-1.9-4-2.3-5.5c-0.1-0.5-0.2-1.2-0.3-1.8c0-0.1-0.1-0.4-0.2-1
		c-0.1-0.5-0.2-1-0.4-1.5c0,0-0.1-0.2-0.2-0.4s-0.2-0.3-0.3-0.3c-0.1,0-0.4,0.2-0.8,0.6c-1.1,1-2.5,1.7-4.4,2.1
		c-1.9,0.4-3.9,0.6-6,0.6c-1.3,0-2.3,0.1-3,0.2c-0.7,0.2-1.3,0.3-1.7,0.3c-0.5,0-0.9,0.1-1.4,0.2c-0.4,0.1-1,0.3-1.7,0.5
		c-1.2,0.5-2.3,0.7-3.1,0.7c-0.6,0-1.2-0.2-1.6-0.5c-0.4-0.3-0.6-0.8-0.6-1.4c0-0.4,0.4-1.2,1.2-2.4c0.8-1.1,1.6-2.2,2.6-3.2
		c0.9-1,1.6-1.5,1.9-1.5c0.1,0,0.3,0.1,0.6,0.3c0.1,0.2,0.1,0.3,0.1,0.5c0,0.5-0.2,1.1-0.5,1.8c0,0.1-0.1,0.3-0.2,0.6
		c-0.1,0.3-0.2,0.5-0.2,0.8c0,0.2,0.1,0.3,0.3,0.3c0.3,0,0.5,0,0.9-0.1c0.3-0.1,0.5-0.1,0.6-0.2c0.1,0,0.3-0.1,0.4-0.1
		c0.2-0.1,0.4-0.1,0.6-0.1c0.5-0.1,1.1-0.1,1.9-0.2c0.8-0.1,1.3-0.2,1.3-0.2l0-0.1c0.2-0.9,0.3-2.3,0.3-4.3l0-3.2
		c0-1.7-0.1-2.6-0.4-2.6c-0.1,0-0.2,0-0.3,0.1c-0.5,0.2-1,0.3-1.5,0.3c-0.5,0-1.2,0.1-2,0.1c-0.7,0-1.4-0.2-2.1-0.7
		c-0.6-0.5-0.9-1.1-0.9-1.8c0-0.3,0.2-0.9,0.5-1.9c0.4-1,0.8-1.9,1.2-2.8c0.4-0.9,0.7-1.4,0.9-1.5c0.1-0.1,0.3-0.1,0.6-0.1
		c0.3,0,0.6,0.1,0.8,0.3s0.3,0.5,0.3,0.8c0,0.4-0.1,1-0.4,1.8c-0.3,0.8-0.5,1.4-0.5,1.9c0,0.2,0.1,0.3,0.3,0.3
		C40.1,13.8,40.7,13.7,41.5,13.4z"/>
	<path class="st1" d="M73,33.4c-0.2-0.3-0.3-0.6-0.3-0.9c0-0.7,0.1-1.5,0.2-2.2s0.3-1.6,0.6-2.7c0.3-1.2,0.4-2.1,0.6-2.8
		c0.1-0.7,0.2-1.4,0.2-2.1c0-0.5,0.1-1.2,0.2-2c0.1-0.9,0.2-1.6,0.2-2c0-0.5-0.1-0.8-0.3-1c-0.3,0.2-0.5,0.5-0.8,0.9
		c-0.2,0.4-0.5,1-0.9,1.7c-0.5,1.1-1,1.9-1.4,2.5c-0.4,0.6-1,0.9-1.7,0.9c-0.3,0-0.6-0.2-1-0.5c-0.4-0.3-0.6-0.6-0.6-0.9
		c0-0.5,0.5-1.5,1.4-3.1s2.3-3.8,4.2-6.7c1.3-2,2-3.2,2.2-3.5c0-0.1,0.1-0.2,0.2-0.4C75.9,8.3,76,8.2,76.1,8
		c0.1-0.1,0.3-0.2,0.4-0.2c0.7,0,1.3,0.2,1.6,0.5c0.3,0.3,0.5,0.9,0.5,1.7c0,0.4-0.1,0.7-0.2,0.9c-0.1,0.2-0.4,0.4-0.8,0.7
		c-0.4,0.3-0.7,0.6-1,1c-0.3,0.4-0.6,0.9-0.9,1.5c-0.1,0.1-0.1,0.3-0.2,0.5c-0.1,0.2-0.2,0.4-0.4,0.7c0.6,0.9,0.9,2,1.1,3.1
		c0.2,1.1,0.3,2.4,0.3,3.9c0,0.7-0.1,2-0.4,3.9c-0.3,1.9-0.6,3.6-1,5.2c-0.4,1.5-0.9,2.3-1.4,2.3C73.4,33.9,73.2,33.7,73,33.4z
		 M102,34.5c-1.7-0.9-3.1-2.1-4.1-3.7s-1.8-3.3-2.3-4.9c-0.5-1.6-0.9-3.5-1.2-5.6c-0.2-0.9-0.3-1.7-0.5-2.2s-0.3-0.8-0.5-1
		c-0.3,0-0.6,0.1-1.1,0.3c-0.5,0.2-0.9,0.4-1.3,0.6c-0.3,0.2-0.6,0.3-0.7,0.4c-1.1,0.7-2.1,1.1-2.8,1.5c-0.7,0.3-1.3,0.5-1.8,0.5
		c-0.1,0-0.3,0-0.5-0.2c-0.2-0.1-0.3-0.2-0.4-0.2c-0.2,0-0.4,0.4-0.5,1.1c-0.1,0.7-0.2,1.2-0.2,1.6c0,0.2,0,0.4,0.1,0.5
		c0.2-0.2,0.4-0.5,0.6-0.8c0.3-0.3,0.5-0.6,0.8-0.8c0.2-0.2,0.5-0.3,0.8-0.3c0.4,0,0.7,0.1,0.9,0.3c0.2,0.2,0.2,0.5,0.2,0.9
		c0,0.8-0.2,1.7-0.7,2.9c-0.5,1.2-1.1,2.2-1.9,3.1c-0.8,0.9-1.5,1.3-2.3,1.3c-0.8,0-1.4-0.2-1.7-0.6c-0.3-0.4-0.4-1-0.4-1.9
		c0-1.3,0.2-2.8,0.5-4.2c0.4-1.5,0.9-3.3,1.6-5.4c0.6-1.8,1-3.1,1.2-4c0.1-0.4,0.2-0.7,0.2-1c0-0.1,0-0.4-0.1-0.6
		c-0.1-0.3-0.1-0.5-0.1-0.6c0-0.4,0.5-0.9,1.4-1.4c0.9-0.5,2-0.9,3.2-1.2c1.2-0.3,2-0.5,2.4-0.5c0.7,0,1,0.3,1,0.8
		c0,0.5-0.3,0.9-1,1.3c-0.6,0.4-1.5,0.8-2.5,1.3c-0.9,0.4-1.5,0.7-1.6,0.9c-0.3,0.3-0.6,1.1-0.9,2.1c-0.3,1.1-0.5,1.8-0.5,2.3
		c0,0.1,0,0.2,0.1,0.3l0.3,0c0.5,0,2.6-1,6.4-3.1l0.8-0.4c0.2-0.2,0.3-0.7,0.3-1.3c0.1-0.8,0.2-1.4,0.4-1.7c0.2-0.4,0.8-0.6,1.6-0.6
		c0.3,0,0.5,0.1,0.7,0.2s0.2,0.4,0.2,0.7c0,0.2-0.1,0.4-0.2,0.6c-0.1,0.2-0.2,0.3-0.2,0.3v0c0.4-0.1,1-0.4,1.9-0.9
		c0.4-0.2,0.8-0.4,1.1-0.6c0.4-0.2,0.7-0.3,1-0.3c0.3,0,0.5,0.1,0.8,0.3s0.3,0.5,0.3,0.8c0,0.5-0.2,0.9-0.7,1.4
		c-0.5,0.4-1.2,0.9-2,1.5c-0.1,0.1-0.3,0.2-0.6,0.4c-0.3,0.2-0.5,0.4-0.6,0.5s-0.2,0.2-0.2,0.3c0,0.3,0.1,0.7,0.2,1.1
		c0.2,0.4,0.3,0.7,0.3,0.8c0.3,0.7,0.5,1.5,0.7,2.4c0.2,0.9,0.3,1.4,0.3,1.5c0.3,1.4,0.6,2.6,1,3.7s0.9,2.2,1.6,3.3
		c0.2,0.4,0.5,0.8,0.8,1.2c0.3,0.4,0.6,0.6,0.7,0.6c0.1,0,0.2-0.1,0.3-0.4c0.1-0.3,0.1-0.4,0.1-0.5c0.1-0.2,0.2-0.8,0.4-1.7
		c0.2-0.9,0.5-1.7,0.8-2.4c0.4-0.7,0.8-1,1.3-1c0.4,0,0.7,0.2,0.9,0.5c0.2,0.3,0.3,0.7,0.3,1.1c0,1.9-0.2,3.9-0.6,5.8
		c-0.4,2-1.2,2.9-2.4,2.9C102.7,34.8,102.4,34.7,102,34.5z M85.5,33.2C85.2,32.8,85,32.4,85,32s0.5-0.9,1.5-1.4
		c1-0.5,2.1-0.9,3.3-1.3c1.2-0.4,2.1-0.5,2.5-0.5c0.5,0,0.9,0.1,1.2,0.4c0.4,0.2,0.6,0.6,0.6,1c0,0.5-0.2,1-0.7,1.3
		c-0.4,0.3-1,0.5-1.7,0.7c-0.6,0.2-1.3,0.4-2,0.7c-0.8,0.3-1.4,0.5-1.8,0.7c-0.4,0.1-0.9,0.2-1.3,0.2C86.2,33.8,85.9,33.6,85.5,33.2
		z"/>
	<path class="st1" d="M114.5,24c1.4-1.8,2.8-3.5,4.4-5.3c1.6-1.8,2.6-2.8,3-3c0.4-0.2,0.7-0.3,0.9-0.3c0.2,0,0.4,0.1,0.4,0.2
		c0.1,0.1,0.1,0.3,0.1,0.6c0,0.4-0.2,1-0.5,1.6L123,18c3.3,1,6.4,2.1,9.4,3.3c2.9,1.2,4.4,2.3,4.4,3.5c0,0.3-0.1,0.6-0.4,0.9
		s-0.5,0.4-0.9,0.4c-1.1,0-3.2-0.7-6-2.1c-2.9-1.4-5.2-2.6-6.9-3.7c-0.3-0.2-0.6-0.3-0.8-0.3l-1.2,1.2c-1.7,1.8-3.2,3.4-4.6,4.7
		c-1.4,1.3-2.4,2-3.1,2c-0.3,0-0.4-0.2-0.4-0.5S113.1,25.8,114.5,24z M114.1,15.6c0.7-1.2,1.4-2.2,2.3-3.1c0.9-0.9,1.6-1.4,2.1-1.4
		c0.4,0,0.7,0.3,1,0.9c0.3,0.6,0.4,1.1,0.4,1.5c0,0.2-0.1,0.3-0.2,0.4c-0.1,0.1-0.3,0.1-0.6,0.2c-0.3,0.1-0.5,0.2-0.6,0.2
		c-0.3,0.2-0.5,0.5-0.6,0.8s-0.4,0.8-0.6,1.4c-0.4,1-0.8,1.7-1.2,2.2s-1,0.7-1.7,0.7c-0.1,0-0.4-0.2-0.7-0.5
		c-0.3-0.3-0.5-0.5-0.5-0.7C113.1,17.6,113.4,16.8,114.1,15.6z M119.5,30.1c0.2-1.2,0.3-2.2,0.5-3c0.2-0.8,0.4-1.3,0.6-1.5
		c0.6-0.4,1.1-0.8,1.5-1c0.4-0.2,0.9-0.3,1.5-0.3c0.9,0,1.5,0.4,1.8,1.1c0.4,0.7,0.5,1.6,0.5,2.5l0,2.5c0.6,0.1,1.1,0.3,1.4,0.6
		c0.4,0.2,0.5,0.6,0.5,1.1c0,0.8-0.5,1.3-1.4,1.6c-0.9,0.3-1.9,0.5-2.9,0.5c-0.6,0-1.1,0-1.3-0.2c-0.2-0.1-0.4-0.2-0.5-0.5
		c-0.1-0.2-0.3-0.3-0.4-0.4c-0.1,0-0.3,0-0.5,0.1c-0.2,0.1-0.4,0.1-0.5,0.1c-0.4,0-0.6-0.1-0.8-0.4c-0.1-0.3-0.2-0.6-0.3-0.9
		c-0.1-0.3-0.1-0.6-0.1-0.7L119.5,30.1z M121.2,8.5c0.2-0.3,0.4-0.5,0.8-0.5c0.7,0,1.6,0.4,2.9,1.3c1.3,0.9,2.4,1.9,3.4,3
		c1,1.1,1.5,2,1.5,2.6c0,0.3-0.1,0.5-0.2,0.6c-0.2,0.1-0.4,0.2-0.6,0.2c-0.4,0-1.2-0.4-2.4-1.2c-1.2-0.8-2.3-1.7-3.5-2.7
		c-1.1-1-1.8-1.7-2.1-2.1C121,9.2,121,8.8,121.2,8.5z M123.7,27c-0.1-0.3-0.2-0.5-0.4-0.5c-0.5,0-0.9,0.2-1.2,0.5
		c-0.3,0.3-0.4,0.7-0.4,1.2c0,1.8,0,2.8,0.1,2.9c0.2,0,0.4-0.1,0.7-0.3c0.4-0.3,0.7-0.5,0.8-0.8c0.1-0.2,0.2-0.6,0.3-1
		c0.1-0.5,0.1-0.8,0.2-0.9c0.1-0.2,0.1-0.3,0.1-0.4C123.9,27.6,123.8,27.3,123.7,27z"/>
	<path class="st1" d="M147,18.7c0.2-0.2,0.5-0.4,0.7-0.4c0.4,0,0.9,0.2,1.4,0.5c0.5,0.3,1,0.6,1.4,0.9c0.4,0.3,0.7,0.5,0.8,0.6
		c0.4,0.3,0.7,0.6,0.9,0.7c1.3,0.9,2.3,1.7,3,2.4c0.8,0.7,1.1,1.4,1.1,2.1c0,0.4-0.1,0.7-0.4,1c-0.3,0.3-0.6,0.5-1,0.5
		c-0.6,0-1.3-0.4-2.2-1.3c-0.9-0.9-2-2.1-3.2-3.5c-0.7-0.9-1.2-1.4-1.4-1.5c-0.1-0.1-0.4-0.3-0.7-0.6c-0.4-0.3-0.6-0.5-0.6-0.6
		C146.7,19.2,146.8,19,147,18.7z"/>
	<path class="st1" d="M177.2,22c0.4-0.2,0.9-0.4,1.4-0.4c0.9,0,1.8,0.2,2.5,0.6s1.2,1,1.2,1.8c0,0.4-0.1,1-0.3,1.7
		c-0.2,0.7-0.3,1.2-0.3,1.7c0,0.2,0.1,0.5,0.2,0.8c0.1,0.3,0.3,0.5,0.5,0.5l1.1-0.5c2.5-1.2,4.5-2.1,6.2-2.7
		c1.7-0.6,3.6-0.9,5.6-0.9c2.2,0,3.3,0.4,3.3,1.2c0,0.4-0.2,0.6-0.5,0.8c-0.3,0.2-0.7,0.2-1.1,0.2c-0.7,0-1.7,0.2-2.9,0.6
		c-1.3,0.4-3,1-5.2,1.8l-2.8,0.9c-0.2,0.1-0.7,0.2-1.7,0.5c-0.9,0.3-1.6,0.6-1.8,0.9c0,0.1,0,0.3,0,0.6v1.8c0,1.7-0.2,3.2-0.7,4.3
		c-0.4,1.1-1.4,1.7-2.7,1.7c-0.6,0-1.2-0.2-1.9-0.5c-0.7-0.4-1.1-0.8-1.1-1.2c0-0.2,0.1-0.3,0.3-0.3c0.2,0,0.5,0.1,0.9,0.3
		c0.4,0.3,0.7,0.4,0.9,0.4c0.6,0,1.1-0.5,1.4-1.4c0.3-0.9,0.5-1.8,0.5-2.6c0-1.3-0.1-1.9-0.3-1.9c-0.5,0-1.5,0.4-3.2,1.2
		c-1.1,0.6-2.3,1-3.4,1.2c-1.1,0.2-2.3,0.3-3.7,0.3c-1.1,0-1.6-0.2-1.6-0.7c0-0.2,0.1-0.4,0.3-0.6c0.2-0.1,0.8-0.4,1.9-0.7
		c1.1-0.3,1.7-0.5,1.8-0.5c2.4-0.7,4.9-1.7,7.3-2.8c0.5-0.2,0.7-0.4,0.7-0.6c0-0.1-0.1-0.2-0.3-0.3c-0.2-0.1-0.4-0.1-0.6-0.2
		c-0.4-0.1-0.8-0.2-1-0.3c-0.2-0.1-0.3-0.3-0.3-0.5c0-0.4,0.2-0.8,0.6-1.3c0.3-0.3,0.5-0.6,0.6-0.9c0.2-0.3,0.2-0.7,0.2-1.1
		c0-0.4-0.3-0.6-0.9-0.6l-0.8,0c-0.2,0-0.3,0-0.4,0c-0.2-0.2-0.4-0.4-0.6-0.7c-0.2-0.3-0.3-0.5-0.3-0.8
		C176.6,22.6,176.8,22.2,177.2,22z M178.8,0.5c0.3-0.3,0.7-0.5,1.1-0.5c0.4,0,0.8,0.3,1.2,0.8c0.4,0.5,0.6,1,0.6,1.4
		c0,0.4,0,0.8,0,1.1c0,0.3-0.1,0.6-0.1,0.8c-0.1,0.8-0.2,1.4-0.2,1.8c0,0.3,0.1,0.5,0.3,0.6c0.1,0,0.2,0,0.4-0.1
		c0.9-0.3,2.2-0.4,3.9-0.4l1.4,0c0.6,0,1.1,0.1,1.5,0.3c0.4,0.2,0.6,0.6,0.6,1.1c0,0.5-0.3,0.8-0.8,0.9c-0.5,0.1-1.1,0.2-1.7,0.2
		s-1,0-1.3,0c-1.5,0.2-3.7,0.7-6.4,1.6c-2.8,0.9-5,1.7-6.6,2.4c-0.2,0.1-0.3,0.1-0.5,0.1c-0.3,0-0.6-0.1-0.8-0.3s-0.4-0.5-0.4-0.7
		c0-0.9,0.7-1.7,2.2-2.4c1.5-0.7,3.3-1.3,5.3-1.9l0.9-0.3c0-0.5-0.1-1.1-0.2-1.7c-0.1-0.6-0.2-0.9-0.3-1.1c-0.3-1.1-0.5-1.9-0.5-2.6
		C178.3,1.2,178.5,0.8,178.8,0.5z M176.2,16.3c0.1-0.7,0.2-1.1,0.3-1.4c0.1-0.2,0.2-0.4,0.4-0.6c0.2-0.2,0.3-0.3,0.4-0.4l0.9-1
		c0.6-0.7,1.1-1.3,1.5-1.6c0.4-0.4,0.9-0.5,1.5-0.5c0.1,0,0.3,0.1,0.5,0.2c0.6,0.3,1.1,0.7,1.3,1.2c0.2,0.5,0.3,1.1,0.3,1.8l0,1.4
		c0,0.7-0.1,1.1-0.3,1.5c-0.2,0.3-0.5,0.7-1.1,1.2c-0.5,0.4-1.2,0.9-2.2,1.5c-1,0.6-1.8,0.9-2.2,0.9c-0.6,0-1-0.2-1.2-0.6
		s-0.3-1-0.3-1.7C176.1,17.5,176.1,16.9,176.2,16.3z M179.9,14.9c-0.2,0-0.4,0.1-0.7,0.4c-0.3,0.3-0.4,0.5-0.4,0.6
		c0,0.1,0,0.3,0.1,0.5c0.1,0.2,0.2,0.3,0.3,0.3c0.2,0,0.4-0.2,0.6-0.6c0.2-0.4,0.3-0.7,0.3-0.9C180.1,15,180,14.9,179.9,14.9z"/>
	<path class="st1" d="M216.7,13c0.3-0.7,0.6-1.5,1.2-2.6l0.4-0.9c0.1-0.3,0.2-0.4,0.3-0.5c0.1-0.1,0.2-0.2,0.5-0.2
		c0.4,0,0.6,0.3,0.6,0.9c0,1-0.1,1.9-0.4,2.6c-0.3,0.8-0.8,1.9-1.4,3.3c0,0.1,0.1,0.2,0.3,0.2c0.2,0,0.4,0.1,0.6,0.1
		c0.2,0,0.3,0,0.3,0c1,0.1,1.7,0.2,2.3,0.5c0.5,0.2,0.8,0.8,0.8,1.6c0,0.3-0.1,0.8-0.4,1.3c-0.3,0.6-0.6,1-1,1.5
		c-0.4,0.4-0.7,0.6-1.1,0.6c-0.2,0-0.4-0.1-0.6-0.3c-0.2-0.2-0.3-0.4-0.3-0.5c0-0.2,0.1-0.5,0.4-0.8c0.2-0.3,0.4-0.6,0.4-0.8
		c0-0.1-0.2-0.2-0.6-0.2s-0.8-0.1-1-0.1c-0.7,0-1.7,0.1-3.1,0.3l-1,0.1c-2.2,0.3-3.8,0.5-4.7,0.8c-0.9,0.3-1.7,0.9-2.3,1.8
		c-0.6,0.9-1.3,2.4-2,4.6c-0.1,0.4-0.3,0.7-0.6,0.9s-0.6,0.4-0.9,0.4c-0.3,0-0.6-0.1-0.8-0.4s-0.4-0.5-0.4-0.8c0-0.5,0.3-1.5,1-3
		s1.4-2.8,2.2-4c0.8-1.2,1.5-1.8,2-1.8c0.2,0,0.4,0.1,0.6,0.3c0.2,0.2,0.4,0.3,0.5,0.3c0.5-0.3,1.6-0.7,3.5-1.2s3.1-0.8,3.7-0.8
		l0.6,0c0.3,0,0.6-0.1,0.7-0.3c0-0.1-0.2-0.3-0.4-0.5c-0.2-0.2-0.3-0.5-0.3-0.8C216.3,14.3,216.4,13.7,216.7,13z M203.8,12.2
		c0.8-0.6,1.2-0.9,1.3-1.1c0.1-0.3,0.3-0.5,0.4-0.6c0.1-0.1,0.3-0.2,0.6-0.2s0.7-0.2,1.2-0.5c0.5-0.3,1.3-0.9,2.3-1.6
		c2.4-1.8,4.1-2.8,5-3.1c0.6-0.1,1.1-0.2,1.4-0.2c0.6,0,0.9,0.2,0.9,0.5c0,0.1,0,0.3-0.1,0.4c-0.1,0.1-0.2,0.2-0.3,0.2
		c-0.2,0.1-0.5,0.3-0.7,0.5c-0.4,0.4-1.1,0.8-2.1,1.4c-0.2,0.1-0.4,0.2-0.5,0.3c-0.2,0.1-0.3,0.2-0.4,0.2c0.7,0.7,1.2,1.4,1.6,2.2
		s0.6,1.7,0.6,2.6c0,0.3-0.1,0.6-0.2,0.8c-0.1,0.2-0.3,0.3-0.6,0.3c-0.8,0-1.4-0.4-1.7-1.1s-0.6-1.7-0.8-2.8c-0.1-0.7-0.3-1-0.3-1.1
		c-0.4,0.3-0.7,0.6-0.9,0.7c-0.5,0.3-0.9,0.6-1.4,1.1c-0.4,0.4-0.7,0.7-0.8,0.7c0.1,0.1,0.4,0.6,0.9,1.4c1,1.4,1.5,2.3,1.5,2.8
		c0,0.3-0.2,0.6-0.5,0.9s-0.7,0.4-1,0.4c-0.3,0-0.6-0.2-0.9-0.5c-0.3-0.4-0.6-0.9-1-1.6c-0.3-0.6-0.6-1-0.8-1.3
		c-0.2-0.3-0.4-0.4-0.6-0.4c-0.1,0-0.4,0.1-0.9,0.3c-0.6,0.4-1.2,0.6-1.6,0.6c-0.3,0-0.5-0.1-0.6-0.2c-0.2-0.2-0.3-0.4-0.5-0.6
		C202.3,13.3,202.8,12.9,203.8,12.2z M210.5,25.5c0.7-0.8,1.5-1.4,2.4-2c0.9-0.6,1.7-0.8,2.3-0.8c0.7,0,1.4,0.3,2,0.8s0.8,1.2,0.8,2
		c0,0.7-0.2,1.4-0.6,2.2c-0.4,0.8-0.9,1.7-1.5,2.7c-0.4,0.7-0.6,1-0.6,1.1c0,0.4,0.7,0.9,2.2,1.5c1.4,0.6,3.5,1.4,6.2,2.4
		c1.9,0.7,3.5,1.3,4.5,1.7c1.1,0.4,1.8,0.8,2.1,1.1c0.3,0.2,0.5,0.5,0.5,0.8c0,0.5-0.2,0.9-0.5,1.2c-0.4,0.3-0.8,0.4-1.3,0.4
		c-1.2,0-2.9-0.4-5.2-1.3c-2.3-0.9-4.2-1.7-5.7-2.5c-0.8-0.5-1.9-1-3.2-1.8c-1.3-0.7-2.1-1.1-2.5-1.1c-0.2,0.1-0.7,0.3-1.3,0.6
		s-1.2,0.6-1.8,0.8c-0.6,0.2-1,0.3-1.4,0.3c-0.6,0-0.9-0.2-0.9-0.7c0-0.2,0.1-0.4,0.3-0.6c0.2-0.2,0.6-0.5,1-0.8
		c0.3-0.2,0.6-0.5,0.9-0.7c0.3-0.2,0.4-0.5,0.4-0.6c0-0.3-0.2-0.5-0.6-0.7c-0.4-0.2-1-0.4-1.9-0.7c-0.7-0.2-1.1-0.3-1.1-0.4
		c0-0.3,0.2-0.6,0.5-0.8c0.4-0.2,0.7-0.3,1.1-0.3c0.4,0,0.8,0.1,1.2,0.2c0.4,0.1,0.8,0.3,1.4,0.5l1.1,0.4c0.4-0.3,0.9-0.9,1.5-1.5
		c0.5-0.7,0.8-1.2,0.9-1.6l-0.1-0.1c-0.5,0-0.9,0.1-1.3,0.4c-0.4,0.3-0.8,0.6-1.1,1c-0.3,0.4-0.5,0.6-0.6,0.6
		c-0.3,0-0.5-0.1-0.7-0.4c-0.2-0.2-0.3-0.5-0.3-0.8C209.5,27,209.8,26.3,210.5,25.5z"/>
	<path class="st1" d="M235.1,13.8c-0.2-0.3-0.2-0.7-0.2-1.1c0-0.8,0.6-1.7,1.8-2.7s2.6-1.8,4.1-2.4c1.6-0.7,2.8-1,3.6-1
		c0.6,0,1.2,0.2,1.7,0.5c0.5,0.3,0.7,0.8,0.7,1.4c0,0.5-0.5,0.9-1.5,1.4c-1,0.4-2.3,0.9-4.1,1.4c-1.8,0.6-2.9,1-3.3,1.2
		c-0.1,0.1-0.3,0.3-0.7,0.7c-0.3,0.3-0.5,0.6-0.7,0.8c-0.2,0.2-0.4,0.3-0.7,0.3C235.5,14.3,235.2,14.1,235.1,13.8z M249.3,28.9
		c-0.1,1.2-0.3,2-0.5,2.6c-0.3,0.7-0.4,1.2-0.5,1.5c-0.1,0.4-0.2,0.8-0.2,1.2c0,0.5-0.1,0.8-0.3,1c-0.2,0.2-0.6,0.4-1,0.6
		c-1.7,0.6-3.6,0.9-5.6,0.9c-1,0-2.1-0.2-3.5-0.5s-2-0.8-2-1.4c0-0.4,0.1-0.7,0.4-0.8c0.3-0.2,0.6-0.3,1-0.4s0.7-0.2,0.9-0.3
		c0-1.7,0-3.2,0-4.4c0-1.2-0.1-2.3-0.1-3.2l-0.1-2.6c-0.3-0.3-0.6-0.5-0.8-0.8c-0.2-0.2-0.3-0.5-0.3-0.8c0-0.2,0.1-0.4,0.2-0.6
		c0.1-0.2,0.3-0.5,0.5-0.8c0.3-0.5,0.6-0.8,0.7-1.1c0.1-0.3,0.2-0.7,0.3-1.3c0.2-1.1,0.4-1.9,0.7-2.5c0.3-0.6,0.9-0.9,1.6-0.9
		c0.4,0,0.9-0.1,1.7-0.3c0.9-0.1,1.4-0.2,1.6-0.2c1.9,0,3.2,0.6,3.9,1.9s1.1,2.9,1.2,5c0,0.5,0,1,0,1.3c0,0.4,0.1,0.7,0.1,0.9
		c0.1,1.2,0.2,2.1,0.2,2.7C249.4,26.7,249.4,27.8,249.3,28.9z M243.5,33c1.4-0.1,2.1-0.3,2.3-0.4c0.1-0.1,0.2-1.1,0.2-3
		c0-0.1,0-0.4,0-0.9c0-0.5-0.1-0.9-0.2-1.2c-0.2-0.3-0.4-0.5-0.8-0.5c-0.2,0-0.6,0.1-1,0.2c-0.5,0.1-0.8,0.2-1,0.2h-1
		c-0.5,0-0.8,0.1-0.9,0.4c-0.1,0.3-0.2,0.7-0.2,1.2c0,0.4-0.1,1-0.2,1.8c-0.1,0.8-0.2,1.4-0.2,1.8c0,0.2,0,0.3,0.1,0.4
		C241.2,33.2,242.1,33.2,243.5,33z M242.2,24.6l1.1,0c0.3,0,0.5,0,0.7,0c0.2,0,0.4,0.1,0.5,0.1c0.5,0.1,0.8,0.2,1.1,0.2
		c0.3,0,0.4-0.4,0.4-1.3l0-0.9c0-0.3-0.1-0.6-0.2-0.7s-0.4-0.3-0.7-0.3c-0.3,0-0.8,0.1-1.3,0.2c-0.6,0.1-1,0.2-1.3,0.2
		c-0.5,0-0.9,0-1.2,0.1c-0.2,0.1-0.4,0.2-0.5,0.5c-0.1,0.2-0.2,0.6-0.2,1.2c0,0.6,0.1,0.9,0.4,0.9C241.3,24.7,241.7,24.6,242.2,24.6
		z M241.8,16.8c-0.3,0.2-0.6,0.4-0.7,0.8c-0.1,0.3-0.2,0.8-0.3,1.5c1.1,0,2.7,0,4.9,0c-0.1-0.8-0.2-1.5-0.5-2
		c-0.3-0.5-0.8-0.8-1.5-0.8C243.2,16.3,242.6,16.5,241.8,16.8z"/>
	<path class="st1" d="M266.7,3.2c0.3-0.4,0.6-0.6,1-0.6c0.3,0,0.6,0.1,0.8,0.3c0.3,0.2,0.4,0.4,0.4,0.7l0,0.6l0.3,0.2
		c0.5,0,1.1-0.2,1.9-0.6c0.1,0,0.3-0.1,0.6-0.3c0.3-0.1,0.7-0.2,1-0.3h0c0.2-0.1,0.4-0.1,0.6-0.1c0.4,0,0.7,0.1,1,0.4
		s0.4,0.6,0.4,0.9c0,0.3-0.3,0.6-0.8,0.8c-0.5,0.2-1.3,0.4-2.2,0.6c-0.7,0.1-1.2,0.3-1.6,0.4c-0.4,0.1-0.6,0.2-0.7,0.4
		c-0.1,0.3-0.2,0.7-0.2,1.2s0.1,0.8,0.3,0.8c0.3,0,0.7-0.1,1.1-0.3c0.5-0.2,0.8-0.3,0.9-0.4c1.5-0.7,2.6-1.1,3.5-1.1
		c0.5,0,1,0.2,1.3,0.5c0.3,0.4,0.5,0.8,0.5,1.4c0,0.5-0.1,1-0.3,1.4c-0.2,0.4-0.4,0.9-0.8,1.4c-0.1,0.1-0.2,0.3-0.3,0.6
		c-0.2,0.3-0.3,0.6-0.3,0.9c0,0.5-0.1,0.9-0.4,1.2c-0.3,0.3-0.7,0.6-1.2,0.9c-0.4,0.3-0.7,0.5-0.9,0.7c-0.2,0.2-0.3,0.4-0.3,0.7
		c0,0.2,0.1,0.3,0.4,0.3c0.3,0,0.7-0.1,1.1-0.2c0.4-0.1,0.6-0.2,0.7-0.2c0.7-0.3,1.3-0.4,1.8-0.4c0.3,0,0.6,0.1,0.8,0.4
		c0.2,0.3,0.3,0.6,0.3,0.9c0,0.4-0.3,0.9-0.9,1.4c-0.6,0.5-1.3,1-2.1,1.3c-0.8,0.4-1.4,0.5-1.8,0.5c-0.5,0-1,0.6-1.6,1.8
		c-0.5,1.2-0.9,2.2-1.2,3.1c0.8,0.5,1.2,1.3,1.2,2.4c0,0.3-0.1,0.7-0.2,1.1c-0.1,0.4-0.2,0.6-0.2,0.7c0,0.1-0.1,0.3-0.2,0.6
		c-0.1,0.3-0.2,0.6-0.2,0.9c0.2,0.2,0.7,0.4,1.3,0.7c0.6,0.2,1.2,0.4,1.7,0.6c0.5,0.2,0.9,0.3,1.1,0.4c2,0.6,3.5,1.2,4.6,1.7
		s1.6,1,1.6,1.6c0,0.2-0.1,0.5-0.4,0.8c-0.3,0.4-0.5,0.5-0.7,0.5c-0.8,0-1.7-0.2-2.6-0.5c-0.9-0.3-1.9-0.8-3.2-1.4
		c-1.1-0.6-2.1-1-2.8-1.3c-0.7-0.3-1.4-0.4-2.1-0.4c0,0-0.1,0.1-0.3,0.3c-0.1,0.2-0.3,0.3-0.4,0.4c-0.6,0.8-1.2,1.4-1.7,1.8
		c-0.5,0.5-0.9,0.7-1.3,0.7c-0.2,0-0.4-0.1-0.7-0.4S264,36,264,35.8c0-0.3,0.1-0.5,0.3-0.9c0.2-0.3,0.4-0.7,0.7-1.2
		c0-0.1,0.1-0.2,0.3-0.5c0.2-0.3,0.3-0.5,0.3-0.6c0-0.2-0.1-0.4-0.3-0.5c-0.2-0.1-0.5-0.2-0.9-0.3c-0.5-0.2-0.9-0.3-1.2-0.5
		c-0.3-0.2-0.4-0.4-0.4-0.7c0-0.3,0.1-0.4,0.2-0.5c0.2-0.1,0.4-0.2,0.7-0.3c0.3-0.1,0.5-0.2,0.6-0.3c0.4-0.3,0.9-0.9,1.5-1.8
		c0.6-0.9,1.4-2.3,2.4-4.1c0.3-0.5,0.5-1,0.8-1.5c0.1-0.1,0.3-0.5,0.7-1c0.4-0.5,0.5-0.8,0.5-0.9c0-0.2-0.1-0.3-0.2-0.5
		c-0.1-0.2-0.2-0.2-0.2-0.3c-0.3-0.4-0.5-0.8-0.5-1.3c0-0.1,0-0.2,0-0.3c0-0.2-0.1-0.3-0.1-0.5l-0.9,0.3c-0.8,0.2-1.4,0.4-1.9,0.6
		c-0.5,0.2-0.9,0.5-1.3,0.8c-0.2,0.2-0.4,0.3-0.5,0.3c-0.1,0-0.3,0.1-0.4,0.2c-0.1,0.1-0.2,0.7-0.3,1.5c-0.1,0.9-0.2,1.4-0.3,1.5
		c-0.4,2.3-1,4.9-1.9,7.8c-0.9,3-1.7,4.7-2.6,5.2c-0.5,0.3-0.9,0.4-1.2,0.4c-0.3,0-0.6-0.2-0.8-0.5c-0.2-0.3-0.3-0.6-0.3-1
		c0-1,0.8-4.2,2.4-9.6s2.8-9.1,3.7-11.2c0.2-0.5,0.3-0.9,0.3-1.1c0-0.7,0.2-1.1,0.5-1.4c0.3-0.2,0.8-0.5,1.4-0.7
		c0.4-0.1,0.7-0.2,1-0.3c0.2-0.1,0.4-0.3,0.6-0.5c0.2-0.3,0.2-0.7,0.2-1.5c0-0.7,0-1.1,0-1.2c0-0.1,0-0.4,0-0.9c0-0.5,0-0.9-0.1-1.1
		c0-0.1-0.1-0.1-0.1-0.2c-0.1-0.1-0.1-0.2-0.1-0.4C266.3,4,266.4,3.6,266.7,3.2z M264.7,17.1c0.7-0.5,1.8-1.1,3.3-1.7
		c0.2-0.1,0.5-0.2,0.8-0.3c0.3-0.1,0.7-0.3,1.1-0.6c0.3-0.1,0.6-0.4,0.8-0.6c0.2-0.3,0.4-0.7,0.7-1.2c0.3-0.5,0.5-0.9,0.7-1.1
		c0.2-0.3,0.5-0.5,0.8-0.6c0,0,0.1-0.1,0.3-0.1c0.2,0,0.2-0.1,0.2-0.3l-0.2-0.1c-0.4,0-0.9,0.1-1.4,0.3c-0.6,0.2-1.3,0.6-2.3,1.1
		c-1.1,0.5-1.9,0.9-2.5,1.2s-1.1,0.4-1.6,0.4c-0.4,0-0.7,0.4-0.9,1.3c-0.2,0.9-0.2,1.7-0.2,2.5C264.4,17.4,264.5,17.3,264.7,17.1z
		 M267.7,29c-0.3,0.7-0.5,1.1-0.6,1.3c0.2,0,0.5-0.3,0.9-0.9c0.4-0.6,0.6-1,0.6-1.2l-0.1-0.2C268.3,28,268,28.4,267.7,29z M274.7,29
		c0.3-1.7,0.5-3.5,0.5-5.2c0-0.6,0.1-1.1,0.2-1.5c0.1-0.4,0.4-0.6,0.8-0.6c0.1,0,0.2,0.1,0.4,0.4c0.1,0.2,0.2,0.4,0.3,0.5
		c0,0.1,0.4,0.3,1.2,0.6c0.7,0.3,1.3,0.7,1.6,1.2c0.3,0.3,0.4,0.7,0.5,1.1s0.1,0.8,0.1,1.4c0,0.7,0.1,1.2,0.3,1.5
		c0.2,0.3,0.5,0.5,1.1,0.5c3.2,0,6.1-0.3,8.6-1c0.6-0.2,1.1-0.3,1.5-0.3c0.8,0,1.2,0.3,1.2,0.9c0,1.3-1.2,2.3-3.6,2.8
		c-2.4,0.5-4.6,0.8-6.7,0.8c-1.5,0-2.8-0.2-3.7-0.5s-1.4-1.1-1.4-2.4c0-0.1,0-0.4,0-0.7c0-0.3,0-0.8,0-1.3c0-1.1-0.2-1.7-0.5-1.7
		c-0.1,0.2-0.2,0.5-0.3,1c-0.1,0.5-0.1,0.7-0.1,0.9c-0.1,0.9-0.2,1.7-0.3,2.2s-0.5,0.8-1.1,0.8c-0.2,0-0.4-0.1-0.6-0.3
		c-0.1-0.2-0.2-0.4-0.2-0.7L274.7,29z"/>
</g>
<g class="st0">
	<path class="st1" d="M1.1,78.8c-0.2-0.2-0.3-0.4-0.3-0.7c0-0.4,0.4-1,1.1-2c0.7-0.9,1.5-1.8,2.3-2.6c0.8-0.8,1.4-1.2,1.8-1.2
		c0.4,0,0.7,0.1,0.9,0.3v0.4c-0.3,0.2-0.9,1-1.7,2.4c-0.7,1.1-1.3,2-1.8,2.7c-0.5,0.6-1,0.9-1.4,0.9C1.5,79.1,1.3,79,1.1,78.8z
		 M3.4,69.9c-0.3-0.5-0.4-1-0.4-1.7c0-0.4,0.1-1.2,0.3-2.4c0.2-1.2,0.5-2.3,0.8-3.4c0.3-1,0.6-1.6,0.8-1.8c0.2-0.1,0.4-0.2,0.6-0.2
		c0.4,0,1.1-0.2,2-0.6c0.7-0.3,1.2-0.5,1.7-0.6c0.4-0.1,0.9-0.2,1.4-0.2c1,0,1.9,0.3,2.6,0.9s1.1,1.4,1.1,2.4c0,0.4-0.1,1-0.4,1.8
		c-0.1,0.5-0.3,0.9-0.3,1.2c-0.2,1.1-0.6,1.7-1.2,1.7c-0.1,0.1-0.4,0.2-0.9,0.3c-0.5,0.1-1,0.3-1.6,0.4c-1.8,0.5-2.9,0.8-3.3,1.1
		c-0.2,0.1-0.4,0.4-0.6,0.8c-0.2,0.3-0.4,0.5-0.5,0.7c-0.2,0.1-0.4,0.2-0.6,0.2C4.1,70.6,3.7,70.3,3.4,69.9z M8.1,65.1
		c0.1,0,0.4-0.2,0.9-0.5c0.5-0.3,0.9-0.4,1.3-0.4c0.3,0,0.6-0.2,0.8-0.7c0.2-0.5,0.3-0.9,0.3-1.2c0-0.5-0.7-0.7-2.1-0.7
		c-0.2,0-0.4,0-0.6,0c-0.2,0-0.3,0.1-0.4,0.1c-0.4,0.1-0.7,0.2-1,0.2c-0.4,0-0.7,0.2-0.8,0.5c-0.2,0.3-0.2,0.7-0.2,1.1
		c0,0.9,0.2,1.7,0.5,2.3C6.9,65.8,7.4,65.6,8.1,65.1z M15,78.6c-1.8-1.3-3.5-2.7-5-4.2c-1.5-1.5-2.3-2.6-2.3-3.3
		c0-0.2,0.1-0.4,0.2-0.4c0.2-0.1,0.4-0.1,0.6-0.1c0.4,0,1.7,0.6,3.8,1.9c2.1,1.2,3.6,2.2,4.4,2.7l0.8,0.5c0.8,0.5,1.4,1,1.9,1.4
		s0.8,0.9,1,1.4c0.1,0.2,0.1,0.4,0.1,0.6c0,0.4-0.2,0.8-0.6,1.1c-0.4,0.3-0.8,0.4-1.2,0.4C18,80.5,16.8,79.9,15,78.6z"/>
	<path class="st1" d="M24.4,73.4c-0.2-0.2-0.4-0.5-0.4-0.8c0-1.3,0.4-2.6,1.1-4c0.7-1.4,1.8-3.1,3.3-5.2c0.9-1.2,1.5-2.2,2-2.9
		c-0.1-0.3-0.6-0.4-1.6-0.5c-0.9-0.1-1.7-0.2-2.2-0.5c-0.5-0.2-0.8-0.7-0.8-1.3c0-0.5,0.3-0.8,1-0.9c0.6-0.1,1.2-0.2,1.8-0.2
		c0.5,0,0.9,0,1,0c0.5,0,1.2-0.2,2.2-0.4c1-0.2,1.6-0.5,2-0.7c0.3-0.2,0.6-0.4,0.8-0.7c0.2-0.3,0.4-0.6,0.7-1.1
		c0.4-0.7,0.8-1.3,1.2-1.7c0.4-0.4,1.1-0.5,2-0.5c0.3,0,0.4,0.1,0.5,0.3c-0.4,0.5-0.8,1-1.1,1.5c-0.3,0.5-0.5,1-0.5,1.4
		c0,0.1,0.1,0.2,0.4,0.2c0.1,0,0.3,0,0.5-0.1c1.8-0.4,3.6-0.6,5.4-0.6c0.5,0,0.9,0.1,1.2,0.4c0.4,0.2,0.5,0.6,0.5,1
		c0,0.3-0.3,0.7-0.8,1.2c-0.7,0.7-1.5,1.2-2.4,1.4c-0.9,0.2-2,0.4-3.4,0.5c-1,0.1-1.7,0.2-2.2,0.3c-0.5,0.1-1,0.2-1.4,0.5
		c-0.2,0.1-0.3,0.2-0.4,0.3c-0.1,0.1-0.2,0.3-0.2,0.4c0,0.1-0.1,0.2-0.1,0.3c-0.1,0.3-0.4,0.8-0.8,1.5c-0.3,0.4-0.5,0.8-0.7,1.2
		c-1.6,3.1-3.3,5.7-5.2,7.8c-0.4,0.5-0.7,0.8-0.9,1.1c-0.1,0.1-0.2,0.3-0.3,0.5c-0.1,0.2-0.3,0.4-0.5,0.6c-0.2,0.1-0.4,0.2-0.6,0.2
		C25,73.7,24.7,73.6,24.4,73.4z M42.3,87.7c-0.2-0.3-0.3-2-0.3-5.1l0-2.8c0-1.8-0.1-2.9-0.3-3.4c-0.5,0.1-1.5,0.6-3,1.4
		c-1.5,0.8-2.4,1.4-2.5,1.7c-0.1,0.3-0.2,0.8-0.3,1.4c0,0.7,0,1.1,0,1.2c0,1.4-0.1,2.5-0.3,3.3c-0.2,0.8-0.5,1.2-1.1,1.2
		c-0.5,0-0.8-0.2-1-0.6c-0.1-0.4-0.2-0.9-0.2-1.6c0-1,0.1-2.4,0.2-4.3c0.1-1.9,0.2-3.3,0.2-4.3c0-0.4-0.1-0.8-0.2-1.1
		c-0.1-0.3-0.3-0.5-0.5-0.8c-0.3-0.4-0.4-0.7-0.4-1c0-0.2,0.1-0.4,0.2-0.6C32.9,72.1,33,72,33,72c0.2-0.2,0.3-0.4,0.4-0.6
		c0.1-0.2,0.1-0.4,0.1-0.7c0-0.3,0-0.6-0.1-1c-0.1-0.4-0.1-0.6-0.1-0.8c-0.2-0.7-0.3-1.3-0.3-1.7c0-0.3,0.2-0.5,0.5-0.8
		c0.3-0.2,0.5-0.4,0.5-0.4c1-0.9,2-1.4,2.9-1.7s2.1-0.5,3.5-0.5c1,0,1.8,0.3,2.4,0.9s0.9,1.3,1.1,2.1c0.2,0.8,0.4,1.9,0.5,3.1
		l0.2,1.2c0.1,0.3,0.3,1.9,0.6,4.9c0.3,3,0.5,4.8,0.5,5.4l0,3.6c0,0.8-0.2,1.6-0.5,2.3s-0.8,1-1.5,1C43.2,88.4,42.7,88.1,42.3,87.7z
		 M39.1,67.2c-0.3,0.1-0.6,0.2-0.8,0.2c-0.8,0.1-1.4,0.2-1.8,0.4c-0.4,0.2-0.6,0.6-0.6,1.2c0,0.6,0.1,0.9,0.3,0.9
		c0.4,0,1.2-0.2,2.5-0.7c1.3-0.5,2-0.8,2.1-1c-0.1-0.4-0.1-0.7-0.2-0.9C40.4,67.1,40.2,67,40,67C39.8,67,39.5,67,39.1,67.2z
		 M38.1,74.5c1.1-0.7,1.9-1.3,2.5-1.7c0.1-0.1,0.3-0.2,0.5-0.3c0.2-0.1,0.3-0.3,0.3-0.3c0-0.1-0.1-0.2-0.3-0.2
		c-0.3,0-1.2,0.2-2.6,0.6c-1.4,0.4-2.1,0.7-2.2,0.8c-0.1,0.2-0.2,0.6-0.2,1.2c0,0.3,0,0.7,0.1,1C36.4,75.6,37,75.2,38.1,74.5z"/>
	<path class="st1" d="M54.2,61.8c-0.2-0.3-0.2-0.7-0.2-1.1c0-0.8,0.6-1.7,1.8-2.7s2.6-1.8,4.1-2.4c1.6-0.7,2.8-1,3.6-1
		c0.6,0,1.2,0.2,1.7,0.5c0.5,0.3,0.7,0.8,0.7,1.4c0,0.5-0.5,0.9-1.5,1.4c-1,0.4-2.3,0.9-4.1,1.4c-1.8,0.6-2.9,1-3.3,1.2
		c-0.1,0.1-0.3,0.3-0.7,0.7c-0.3,0.3-0.5,0.6-0.7,0.8c-0.2,0.2-0.4,0.3-0.7,0.3C54.6,62.3,54.3,62.1,54.2,61.8z M68.4,76.9
		c-0.1,1.2-0.3,2-0.5,2.6c-0.3,0.7-0.4,1.2-0.5,1.5c-0.1,0.4-0.2,0.8-0.2,1.2c0,0.5-0.1,0.8-0.3,1c-0.2,0.2-0.6,0.4-1,0.6
		c-1.7,0.6-3.6,0.9-5.6,0.9c-1,0-2.1-0.2-3.5-0.5s-2-0.8-2-1.4c0-0.4,0.1-0.7,0.4-0.8c0.3-0.2,0.6-0.3,1-0.4s0.7-0.2,0.9-0.3
		c0-1.7,0-3.2,0-4.4c0-1.2-0.1-2.3-0.1-3.2l-0.1-2.6c-0.3-0.3-0.6-0.5-0.8-0.8c-0.2-0.2-0.3-0.5-0.3-0.8c0-0.2,0.1-0.4,0.2-0.6
		c0.1-0.2,0.3-0.5,0.5-0.8c0.3-0.5,0.6-0.8,0.7-1.1c0.1-0.3,0.2-0.7,0.3-1.3c0.2-1.1,0.4-1.9,0.7-2.5c0.3-0.6,0.9-0.9,1.6-0.9
		c0.4,0,0.9-0.1,1.7-0.3c0.9-0.1,1.4-0.2,1.6-0.2c1.9,0,3.2,0.6,3.9,1.9s1.1,2.9,1.2,5c0,0.5,0,1,0,1.3c0,0.4,0.1,0.7,0.1,0.9
		c0.1,1.2,0.2,2.1,0.2,2.7C68.5,74.7,68.5,75.8,68.4,76.9z M62.6,81c1.4-0.1,2.1-0.3,2.3-0.4c0.1-0.1,0.2-1.1,0.2-3
		c0-0.1,0-0.4,0-0.9c0-0.5-0.1-0.9-0.2-1.2c-0.2-0.3-0.4-0.5-0.8-0.5c-0.2,0-0.6,0.1-1,0.2c-0.5,0.1-0.8,0.2-1,0.2h-1
		c-0.5,0-0.8,0.1-0.9,0.4c-0.1,0.3-0.2,0.7-0.2,1.2c0,0.4-0.1,1-0.2,1.8c-0.1,0.8-0.2,1.4-0.2,1.8c0,0.2,0,0.3,0.1,0.4
		C60.3,81.2,61.2,81.2,62.6,81z M61.3,72.6l1.1,0c0.3,0,0.5,0,0.7,0c0.2,0,0.4,0.1,0.5,0.1c0.5,0.1,0.8,0.2,1.1,0.2
		c0.3,0,0.4-0.4,0.4-1.3l0-0.9c0-0.3-0.1-0.6-0.2-0.7s-0.4-0.3-0.7-0.3c-0.3,0-0.8,0.1-1.3,0.2c-0.6,0.1-1,0.2-1.3,0.2
		c-0.5,0-0.9,0-1.2,0.1c-0.2,0.1-0.4,0.2-0.5,0.5c-0.1,0.2-0.2,0.6-0.2,1.2c0,0.6,0.1,0.9,0.4,0.9C60.4,72.7,60.8,72.6,61.3,72.6z
		 M60.9,64.8c-0.3,0.2-0.6,0.4-0.7,0.8c-0.1,0.3-0.2,0.8-0.3,1.5c1.1,0,2.7,0,4.9,0c-0.1-0.8-0.2-1.5-0.5-2
		c-0.3-0.5-0.8-0.8-1.5-0.8C62.3,64.3,61.7,64.5,60.9,64.8z"/>
	<path class="st1" d="M80.4,57.4c0.7-0.3,1.5-0.5,2.4-0.5c1.3,0,2.5,0.1,3.5,0.3c1.1,0.2,1.7,0.6,2.1,1.2c0.2,0.4,0.3,1.2,0.3,2.4
		c0,0.5-0.2,1.1-0.5,1.7c-0.3,0.6-0.7,1.3-1.2,2c-0.3,0.4-0.4,0.7-0.4,0.8c0,0.1,0.2,0.1,0.5,0.2c0.3,0.1,0.6,0.2,0.8,0.4
		c0.2,0.2,0.3,0.4,0.3,0.7c0,0.5-0.4,1-1.2,1.3s-1.9,0.7-3.4,1.1c-1.3,0.3-2,0.6-2.4,0.8c-0.3,0.6-0.6,1.6-0.8,3.1
		c-0.1,0.6-0.1,1.1-0.2,1.3c-0.1,0.3-0.1,0.6-0.3,1c-0.1,0.4-0.2,0.8-0.2,1.1c0,0.1,0,0.3,0.1,0.4c0.1,0.1,1.6,0.5,4.6,1
		s4.7,0.8,5.2,0.8c1,0,1.9-0.1,2.5-0.2c0.6-0.1,1.2-0.5,1.7-1.1c1.7-2,2.9-7.1,3.4-15.4c0-0.6,0.1-1,0.2-1.3
		c0.1-0.3,0.3-0.5,0.7-0.5c0.4,0,0.7,0.2,0.8,0.6c0.1,0.4,0.2,0.9,0.2,1.5c0,1,0.1,2.1,0.2,3.3c0.1,1.4,0.2,2.5,0.2,3.3
		c0,1.3-0.1,2.5-0.2,3.6c-0.1,1.1-0.4,2.1-0.8,3.1c-0.8,2.1-1.7,3.7-2.8,4.6c-1.1,1-2.7,1.5-4.8,1.5c-1.5,0-3.9-0.1-7-0.4
		c-3.2-0.3-5.1-0.6-5.8-1c-0.6-0.3-1.1-0.7-1.4-1.2c-0.3-0.4-0.4-1-0.4-1.7c0-1.1,0.2-2.5,0.6-4.3s1-3.3,1.7-4.7
		c0.8-1.3,1.7-2,2.7-2c0.1,0,0.3,0,0.5,0.1c0.2,0,0.4,0,0.5-0.1c0.4-0.2,0.9-0.7,1.4-1.4c0.6-0.7,1-1.5,1.5-2.3
		c0.4-0.8,0.6-1.4,0.6-1.9c0-0.2-0.4-0.4-1.3-0.5c-0.9-0.1-1.6-0.2-2.2-0.2c-0.3,0-0.5,0.1-0.8,0.3c-0.3,0.2-0.6,0.3-1,0.3
		c-0.4,0-0.7-0.2-0.9-0.6c-0.3-0.4-0.4-0.7-0.4-1.1C79.3,58.2,79.6,57.7,80.4,57.4z"/>
	<path class="st1" d="M114.7,63.7c-0.5-0.4-1.1-0.9-1.8-1.6l-0.2,0l-0.9,0.5c-0.9,0.5-1.6,0.8-2.2,0.9c-0.6,0.2-1.3,0.3-2.2,0.3
		c-0.6,0-1.2-0.1-1.6-0.4c-0.5-0.3-0.7-0.7-0.7-1.3c0-0.4,0.1-0.7,0.3-1c0.2-0.3,0.4-0.6,0.8-0.9c0.2-0.1,0.7-0.7,1.5-1.7
		c0.8-0.9,1.4-1.6,1.8-2.1s0.7-0.6,0.9-0.6c0.3,0,0.6,0.1,0.7,0.2c0.1,0.1,0.2,0.3,0.2,0.6c0,0.6-0.2,1.4-0.7,2.3
		c0,0.1-0.1,0.3-0.3,0.6c-0.1,0.3-0.2,0.6-0.2,0.8l0.2,0.2c0.1,0,0.3-0.1,0.5-0.1c0.2,0,0.3-0.1,0.5-0.1c0.2-0.1,0.4-0.2,0.5-0.4
		c0.1-0.2,0.3-0.4,0.4-0.6c0.1-0.2,0.4-0.2,0.7-0.2c0.9,0.7,1.9,1.5,3,2.5c1.1,1,1.7,1.6,1.7,2c-0.1,0.2-0.3,0.4-0.5,0.5
		c-0.2,0.2-0.5,0.2-0.7,0.2C115.7,64.2,115.2,64,114.7,63.7z M111.4,83.1c-0.4-0.2-0.5-0.5-0.5-0.9c0-0.3,0.1-0.5,0.2-0.6
		c0.1-0.1,0.3-0.3,0.6-0.5c0.1,0,0.2-0.1,0.3-0.2c0.2-0.1,0.3-0.3,0.4-0.4c0.1-0.2,0.2-0.3,0.3-0.5c0.1-0.5,0.2-1,0.2-1.6
		c0-0.6,0-0.9,0-1V77c0-1.1-0.1-1.6-0.2-1.6c-0.2,0-0.7,0.2-1.5,0.6c-0.8,0.4-1.3,0.6-1.3,0.8c-0.1,0.3-0.2,0.8-0.2,1.3
		c0,0.2,0,0.5,0,0.8c0,0.3,0,0.7,0,1.1c0,1.5-0.5,2.3-1.4,2.3c-0.8,0-1.2-0.9-1.2-2.7V78c0-2.5,0.1-4,0.2-4.3
		c0.1-0.3,0.2-0.7,0.2-1.1c0-0.9,0-1.7,0.2-2.3c0.1-0.6,0.3-1.2,0.7-1.8c0.3-0.5,1-1.1,2-1.7c1-0.7,1.8-1,2.3-1c0.5,0,1,0.1,1.2,0.2
		c0.3,0.1,0.6,0.4,1,0.8c0.3,1.1,0.5,3.7,0.5,7.8v3.4c0,1-0.1,1.9-0.2,2.5c-0.1,0.7-0.5,1.3-1,1.8c-0.3,0.3-0.5,0.5-0.8,0.7
		s-0.5,0.2-0.8,0.2C112.1,83.4,111.7,83.3,111.4,83.1z M110,73.4c0.1,0.1,0.1,0.2,0.2,0.2c0.1,0,0.6-0.2,1.3-0.7
		c0.7-0.5,1.1-0.8,1.1-0.8c0-0.1-0.1-0.2-0.2-0.2c-0.1,0-0.2-0.1-0.3-0.1c-0.4,0-0.9,0.1-1.4,0.4c-0.5,0.2-0.8,0.6-0.8,0.9
		C109.9,73.1,109.9,73.2,110,73.4z M111.7,70.1c0.4-0.1,0.6-0.3,0.6-0.6c0-0.1,0-0.2-0.1-0.3s-0.2-0.1-0.3-0.1
		c-0.1,0-0.4,0.1-0.8,0.4c-0.4,0.3-0.6,0.5-0.6,0.6c0,0.2,0.1,0.3,0.3,0.3C111,70.3,111.3,70.3,111.7,70.1z M120.4,63.9
		c-0.1-0.2-0.2-0.6-0.5-1.1c-0.2-0.5-0.3-1-0.3-1.5c0-0.4,0-0.8,0.2-1.1c0.1-0.4,0.2-0.7,0.4-1.1c0.2-0.4,0.3-0.7,0.4-1
		c0.1-0.1,0.1-0.5,0.2-0.9c0.1-0.5,0.2-0.8,0.3-1c0.2-0.2,0.5-0.3,0.9-0.3c0.3,0,0.4,0.1,0.5,0.3c0.1,0.2,0.2,0.5,0.2,0.9
		c0.1,0.4,0.2,0.6,0.4,0.6c1.8-0.9,3.2-1.4,4.2-1.4c0.8,0,1.2,0.2,1.2,0.6c0,0.3-0.3,0.6-0.9,1c-0.6,0.4-1.5,0.9-2.6,1.5
		c-1,0.5-1.7,1-2.1,1.2c-0.4,0.3-0.7,0.5-0.7,0.7c0,0.5,0.6,0.8,1.8,0.8c0.5,0,1.3-0.2,2.3-0.5c0.1,0,0.4-0.1,0.8-0.3
		c0.5-0.1,0.9-0.2,1.4-0.2c0.5,0,0.8,0.1,1,0.4c0.2,0.3,0.3,0.6,0.3,1.1c0,0.2-0.1,0.4-0.2,0.6c-0.1,0.2-0.3,0.4-0.5,0.6
		c-0.7,0.6-1.3,0.9-1.9,1.1s-1.4,0.3-2.4,0.3C122.7,65,121.3,64.6,120.4,63.9z M126.3,81.7c-2-0.5-3.5-1.2-4.6-2.1
		c-0.7-0.6-1.2-1.2-1.5-1.9c-0.2-0.7-0.4-1.5-0.4-2.6c0-1.3,0.1-2.7,0.4-4.2c0.3-1.5,0.7-2.3,1.4-2.3c0.3,0,0.5,0.1,0.6,0.3
		c0.1,0.2,0.3,0.5,0.4,0.9s0.2,0.6,0.3,0.6c0.2,0,0.5-0.1,0.8-0.3c0.4-0.2,0.7-0.4,1.1-0.6c0.9-0.5,1.6-0.8,2.1-1
		c0.5-0.2,1-0.3,1.6-0.3c0.1,0,0.3,0.1,0.5,0.3c0.2,0.2,0.3,0.4,0.3,0.6c0,0.6-0.5,1.2-1.6,1.9s-2.1,1.2-3,1.6
		c-0.9,0.4-1.5,0.7-1.7,0.8c-0.3,0.1-0.5,0.3-0.6,0.5c-0.1,0.2-0.1,0.4-0.1,0.8c0,0.5,0.1,1.2,0.4,2c0.2,0.6,0.8,1.2,1.8,1.7
		c0.9,0.5,2,0.9,3.1,1.2c1.1,0.3,2.1,0.4,2.8,0.4h0.9c1.3,0,2.3-0.3,3-0.9c0.7-0.6,1.2-1.3,1.5-2.2c0.3-0.8,0.6-1.9,0.8-3.2
		c0.2-1,0.4-1.8,0.6-2.3c0.2-0.5,0.5-0.7,0.9-0.7c0.3,0,0.6,0.2,0.9,0.5c0.2,0.3,0.4,0.6,0.4,1c0,0.7-0.1,1.5-0.3,2.2
		c-0.2,0.7-0.4,1.5-0.7,2.5c-0.4,1.1-0.7,2-1.1,2.6c-0.3,0.6-0.8,1.2-1.4,1.6c-0.6,0.4-1.4,0.8-2.4,1.1c-0.9,0.2-1.4,0.3-1.8,0.3
		C130.2,82.5,128.3,82.2,126.3,81.7z"/>
	<path class="st1" d="M142.7,65.4c0.3-2.7,0.7-4.7,1.2-6c0.2-0.4,0.5-0.9,1-1.3s0.9-0.6,1.4-0.6l0.2,0.1l0.1,0.2
		c0,0.1-0.2,0.3-0.6,0.7c-0.4,0.4-0.7,0.9-0.8,1.4c-0.3,1.3-0.5,3.2-0.5,5.6c0,0.8,0,1.9-0.1,3.5c-0.1,1.5-0.1,2.7-0.1,3.5
		c0,0.9,0.1,2.3,0.3,4.1c0.2,1.8,0.3,3.2,0.3,4.1c0,0.3,0,0.5-0.1,0.7c-0.1,0.2-0.2,0.2-0.5,0.2c-0.8,0-1.3-1.1-1.6-3.2
		c-0.3-2.2-0.5-4.1-0.5-5.7C142.2,70.6,142.4,68.2,142.7,65.4z M151.3,69.9c0.2-1.8,0.6-2.7,1.2-2.7c0.2,0,0.4-0.1,0.6-0.2
		c0.2-0.1,0.4-0.3,0.6-0.6c0.4-0.5,0.8-0.9,1.3-1.2c0.5-0.3,1.1-0.5,2-0.5c0.4,0,0.7,0.2,0.9,0.5c0.2,0.3,0.5,0.8,0.9,1.4v3.3
		c0,2.1-0.1,3.3-0.3,3.8c-0.1,0.4-0.2,0.8-0.3,1.2c-0.1,0.7-0.2,1.1-0.4,1.4c-0.2,0.3-0.5,0.5-0.8,0.7c-0.3,0.2-0.5,0.4-0.5,0.7
		l0,0.2c0.3,0.3,0.7,0.5,1.2,0.7c0.4,0.2,0.7,0.3,0.8,0.4c0.7,0.3,1.2,0.5,1.5,0.7c0.2,0.1,0.5,0.3,1,0.5c0.5,0.2,0.9,0.4,1.1,0.6
		c0.2,0.2,0.3,0.6,0.3,1.2c0,0.6-0.4,1-1.1,1.2c-0.8,0.2-1.5,0.3-2.3,0.3c-3.5,0-6.6,0.2-9.1,0.6c-0.2,0-0.7,0.1-1.4,0.2
		c-0.7,0.1-1.4,0.2-2.1,0.2c-0.8,0-1.2-0.2-1.2-0.6c0-0.4,0.3-0.8,1-1.2c0.7-0.4,1.4-0.7,2.3-1.1c0.4-0.2,1.1-0.7,2-1.6
		c0.9-0.9,1.4-1.6,1.6-2c-0.1-0.1-0.3-0.1-0.4-0.1c-0.3,0-0.5-0.3-0.6-0.9c-0.1-0.6-0.2-1.2-0.2-1.7C151,73.4,151.1,71.6,151.3,69.9
		z M148.7,57.6c0.5-0.7,1.1-1.3,1.7-1.9c1-1,2.1-1.7,3.3-2.2c1.2-0.5,2.5-0.8,3.9-1c0.6-0.1,1.1-0.1,1.4-0.2
		c0.1-0.1,0.4-0.1,0.7-0.1c1.1,0,2.1,0.2,2.8,0.5c0.7,0.4,1.4,1,1.8,2c0.5,1,1,3.2,1.4,6.4c0.1,0.3,0.2,0.9,0.3,1.8l0.3,1.3l0.3,1.8
		c0.4,2.2,0.7,4,0.9,5.5s0.4,3,0.4,4.5c0,0.5,0,1.3,0,2.4c0,1.2-0.1,2.6-0.3,4.4c-0.2,1.7-0.6,3.3-1.1,4.8c-0.6,1.4-1.3,2.1-2.3,2.1
		c-0.4,0-0.9-0.3-1.4-0.8c-0.5-0.5-0.7-1-0.7-1.4c0-0.2,0.2-0.4,0.5-0.7c0.5,0.3,0.9,0.5,1,0.5h0.1c0.3-0.5,0.5-1.6,0.5-3.4
		c0-1.3-0.1-3.3-0.3-5.9c-0.1-1.7-0.2-2.9-0.2-3.7c-0.1-0.3-0.2-1.2-0.2-2.5c0-1.3-0.1-2.1-0.1-2.2c0-0.3,0-0.6,0-0.9
		c-0.1-1.7-0.3-4.4-0.7-8c-0.4-3.7-0.7-5.6-0.9-5.8c-0.3-0.2-0.6-0.4-1.1-0.6c-0.4-0.2-0.8-0.2-1.2-0.2c-2.1,0-4.2,0.4-6.3,1.3
		c-2.1,0.9-3.6,2.1-4.7,3.7c0,0.1-0.1,0.2-0.3,0.5c-0.2,0.3-0.3,0.4-0.5,0.4c-0.1,0-0.2-0.1-0.2-0.4C148,59,148.2,58.3,148.7,57.6z
		 M151.3,59.6c0.1-1.2,0.4-1.9,0.7-2.2c0.2-0.1,0.4-0.3,0.8-0.4c0.4-0.1,0.6-0.3,0.8-0.4c0.8-0.5,1.5-0.8,2.1-0.8l0.1,0
		c0.7,0.2,1.2,0.6,1.4,1.2c0.2,0.6,0.4,1.3,0.4,2.2c0,1-0.2,1.8-0.5,2.4c-0.3,0.6-0.7,1.1-1.2,1.5s-1.2,0.9-2.3,1.6
		c-0.1,0.1-0.3,0.2-0.5,0.3c-0.3,0.2-0.6,0.3-0.8,0.3c-0.7,0-1.1-0.8-1.1-2.5C151.1,61.8,151.1,60.7,151.3,59.6z M154.8,80.7
		c0.6-0.3,0.9-0.6,0.9-0.9c0-0.2-0.1-0.3-0.3-0.4c-0.2-0.1-0.4-0.2-0.6-0.2c-0.3,0-0.7,0.1-1.2,0.4c-0.5,0.3-0.7,0.6-0.7,0.9
		c0,0.5,0.2,0.7,0.5,0.7C153.8,81.2,154.2,81,154.8,80.7z M156.5,74.6c0-0.4-0.1-0.7-0.2-0.9c-0.1-0.2-0.3-0.3-0.7-0.3
		c-0.2,0-0.7,0.1-1.4,0.2c-0.7,0.2-1,0.3-1,0.4c0.1,0.1,0.2,0.3,0.2,0.5l0,0.3c0,0.1,0.1,0.2,0.3,0.2c0.1,0,0.4,0,1,0
		c0.6,0,1,0.1,1.2,0.3c0.2,0.2,0.4,0.3,0.5,0.3l0.1,0v-0.2C156.5,75.3,156.5,75,156.5,74.6z M155.4,58c-0.1-0.3-0.2-0.5-0.3-0.5
		c-0.3,0-0.5,0.1-0.6,0.2c-0.1,0.1-0.2,0.3-0.3,0.6c-0.1,0.3-0.2,0.5-0.4,0.6c-0.3,0.3-0.4,0.5-0.4,0.7v1c0,1.1,0.1,1.6,0.3,1.6
		c0.3,0,0.5-0.2,0.8-0.7c0.3-0.5,0.5-1,0.7-1.6c0.2-0.6,0.3-1,0.3-1.3C155.5,58.5,155.5,58.3,155.4,58z M156.6,71.3
		c0.1-0.2,0.2-0.5,0.2-0.8c0-0.2,0-0.4-0.1-0.5c-0.1-0.1-0.2-0.1-0.4-0.1c-0.3,0-0.7,0.1-1.2,0.2c-0.5,0.1-0.9,0.2-1.1,0.4l-0.1,0.2
		c0,0.3,0.2,0.6,0.7,0.7c0.5,0.1,1,0.2,1.5,0.2C156.3,71.7,156.5,71.6,156.6,71.3z M156,67.1c-0.2,0-0.5,0.1-0.8,0.4
		s-0.5,0.5-0.5,0.7c0,0.2,0.2,0.3,0.6,0.3c0.3,0,0.6,0,0.8-0.1c0.2-0.1,0.3-0.3,0.3-0.5C156.5,67.3,156.3,67.1,156,67.1z"/>
	<path class="st1" d="M174.8,77.1c0.8-0.8,1.7-1.6,2.7-2.4c0.9-0.8,1.5-1.1,1.7-1.1c0.2,0,0.4,0.1,0.6,0.4s0.3,0.5,0.3,0.6
		c0,0.3-0.4,0.8-1.2,1.7c-0.8,0.8-1.6,1.6-2.4,2.4s-1.4,1.1-1.7,1.1c-0.3,0-0.6-0.1-0.8-0.3c-0.3-0.2-0.4-0.5-0.4-0.7
		C173.5,78.4,173.9,77.9,174.8,77.1z M174.9,69.9c0.6-0.3,1.1-0.4,1.4-0.4c0.4,0,0.9,0.1,1.5,0.3c0.5,0.2,0.8,0.5,0.8,0.8
		c0,0.6-0.4,1-1.1,1.3c-0.7,0.2-1.5,0.4-2.2,0.4c-0.4,0-0.7-0.1-0.9-0.4c-0.2-0.3-0.3-0.6-0.3-1.1C174.1,70.4,174.4,70.1,174.9,69.9
		z M175.7,62c0.3-0.2,0.6-0.3,0.9-0.3c0.6,0,1.2,0.3,1.8,0.9c0.6,0.6,0.9,1.2,0.9,1.8c0,0.6-0.3,0.9-1,0.9c-0.7,0-1.3-0.2-2-0.7
		s-1-1-1-1.7C175.3,62.5,175.4,62.2,175.7,62z M184.9,58c0.6-0.4,1.1-0.6,1.7-0.6c0.3,0,0.6,0,0.7-0.1c0.1-0.1,0.2-0.3,0.3-0.6
		c0.3-1.3,0.7-1.9,1.2-1.9c0.3,0,0.5,0.1,0.6,0.3c0.1,0.2,0.2,0.5,0.2,0.8c0.1,0.3,0.1,0.5,0.2,0.6c0.1,0.1,0.2,0.2,0.3,0.2l2.1-0.6
		c0.2-0.1,0.4-0.2,0.5-0.4c0.2-0.2,0.3-0.4,0.4-0.5c0.1-0.1,0.3-0.2,0.5-0.2c0.3,0,0.9,0.2,1.9,0.6c1,0.4,1.5,0.7,1.5,0.9
		c0,0.3-0.1,0.6-0.3,0.7c-0.2,0.2-0.6,0.4-1.1,0.6c-0.5,0.2-0.8,0.4-1,0.5c-0.2,0.2-0.3,0.4-0.3,0.6v0.1c0.1,0.1,0.2,0.2,0.4,0.3
		c0.2,0.1,0.3,0.3,0.5,0.4s0.2,0.3,0.2,0.5c0,0.6-0.3,1.1-0.8,1.4s-1.2,0.7-2.1,1c-0.6,0.2-1,0.4-1.2,0.5c-0.2,0.1-0.3,0.3-0.3,0.5
		c0,1,0.1,1.9,0.3,2.7c0.5-0.1,1.5-0.4,2.8-0.8c0.9-0.3,1.6-0.6,2.2-0.7c0.6-0.2,1.2-0.2,1.8-0.2c2.2,0,3.3,1.3,3.3,3.8
		c0,5-0.2,9.1-0.7,12.4c-0.3,1.9-1.1,2.8-2.6,2.8c-0.5,0-1.1-0.3-1.7-0.9c-0.6-0.6-0.9-1.1-0.9-1.7c0-0.1,0.1-0.3,0.3-0.5
		c0.2-0.2,0.4-0.3,0.5-0.3c0.2,0,0.4,0.1,0.7,0.3c0.3,0.2,0.5,0.3,0.6,0.3c0.1,0,0.2-0.2,0.3-0.5c0.1-0.3,0.1-0.6,0.1-0.8l0.2-1.5
		c0.2-1.1,0.3-1.9,0.3-2.5v-1.5c-0.2,0-0.4-0.1-0.7-0.2c-0.3-0.1-0.5-0.1-0.7-0.1c-0.1,0-0.6,0.5-1.2,1.5l-0.8,1.2
		c-0.6,1-1.1,1.8-1.5,2.2c-0.1,0.1-0.3,0.3-0.5,0.4c-0.2,0.1-0.3,0.2-0.3,0.3c-0.2,0.1-0.4,0.2-0.5,0.4c-0.2,0.1-0.4,0.4-0.5,0.6
		c-0.2,0.3-0.3,0.5-0.4,0.6c-0.2,0.1-0.4,0.1-0.6,0.1c-0.6,0-1.1-0.3-1.3-0.8s-0.4-1.4-0.5-2.5c-0.1-0.6-0.1-1.1-0.2-1.5
		c-0.1-0.4-0.2-0.6-0.3-0.8c-0.3,0-0.5,0.2-0.8,0.5c-0.2,0.3-0.6,0.8-1.1,1.6c-0.6,1-1.2,1.7-1.7,2.3c-0.5,0.5-1,0.8-1.6,0.8
		c-0.4,0-0.7-0.2-0.9-0.5c-0.2-0.3-0.3-0.7-0.3-1.2c0-0.7,0.2-1.9,0.5-3.4c0.3-1.5,0.7-2.9,1.3-4.1c0.5-1.2,1.1-2,1.7-2.2
		c0.2,0,0.6-0.3,1.4-0.7c0.8-0.4,1.2-0.7,1.2-0.8c0.1-0.1,0.2-0.7,0.3-1.6c0.1-0.9,0.2-1.5,0.2-1.8c0-0.2-0.1-0.5-0.3-1
		c-0.4-0.9-0.6-1.6-0.6-2.2c0-0.1,0-0.4,0-0.8c0-0.4-0.1-0.7-0.3-0.9c-0.2-0.2-0.5-0.3-0.9-0.3c0,0-0.3,0-0.9,0.1
		c-0.4,0.1-0.7,0.2-0.9,0.2c-0.2,0-0.3,0-0.5-0.1s-0.2-0.2-0.2-0.4C184,58.9,184.3,58.4,184.9,58z M184.6,73.7
		c0,0.1-0.1,0.4-0.3,1.1c-0.2,0.6-0.2,1.2-0.2,1.8c0,0.5,0.1,0.7,0.2,0.7c0.1,0,0.5-0.4,1.1-1.1c0.6-0.7,1-1.1,1.2-1.3l0-0.1
		C185.8,74.3,185.1,73.9,184.6,73.7z M188.1,71c-0.1-0.2-0.3-0.3-0.5-0.3c-0.3,0-0.7,0.1-1.4,0.4c-0.7,0.3-1,0.5-1,0.6
		c0.7,0.1,1.4,0.2,2.3,0.2c0.3,0,0.5,0,0.6-0.1l0.1-0.2C188.3,71.4,188.3,71.2,188.1,71z M190.8,59.3c-0.1,0-0.2-0.1-0.3-0.1
		c-0.3,0-0.5,0.1-0.6,0.2c-0.1,0.1-0.2,0.3-0.2,0.6c0,0.1,0,0.3,0.1,0.4c0.1,0.2,0.1,0.3,0.2,0.3c0.2,0,0.4-0.2,0.6-0.5
		c0.2-0.3,0.4-0.6,0.4-0.8C191,59.4,190.9,59.3,190.8,59.3z M198.4,68.8c0-0.4-0.1-0.7-0.4-0.8c-0.2-0.1-0.5-0.1-0.9-0.1
		c-0.3,0-0.6,0-0.7,0c-0.4,0-1.3,0.2-2.7,0.6c-1.4,0.4-2.1,0.7-2.2,0.9c0,0.1,0,0.3,0,0.5l0,2.5c0,1.5,0.1,2.8,0.4,3.8l0.1,0.2
		c0.1,0,0.6-0.5,1.3-1.3c0.7-0.9,1.1-1.4,1.1-1.5c0-0.3-0.3-0.5-0.9-0.6c-0.4-0.2-0.6-0.3-0.8-0.4c-0.2-0.1-0.2-0.2-0.2-0.4
		c0-0.4,0.5-0.6,1.6-0.6c1.4,0,2.7,0.2,3.7,0.5l0.3,0.1c0.3,0,0.4-0.6,0.4-1.8L198.4,68.8z"/>
	<path class="st1" d="M209.4,61.8c-0.2-0.3-0.2-0.7-0.2-1.1c0-0.8,0.6-1.7,1.8-2.7s2.6-1.8,4.1-2.4c1.6-0.7,2.8-1,3.6-1
		c0.6,0,1.2,0.2,1.7,0.5c0.5,0.3,0.7,0.8,0.7,1.4c0,0.5-0.5,0.9-1.5,1.4c-1,0.4-2.3,0.9-4.1,1.4c-1.8,0.6-2.9,1-3.3,1.2
		c-0.1,0.1-0.3,0.3-0.7,0.7c-0.3,0.3-0.5,0.6-0.7,0.8c-0.2,0.2-0.4,0.3-0.7,0.3C209.8,62.3,209.5,62.1,209.4,61.8z M223.6,76.9
		c-0.1,1.2-0.3,2-0.5,2.6c-0.3,0.7-0.4,1.2-0.5,1.5c-0.1,0.4-0.2,0.8-0.2,1.2c0,0.5-0.1,0.8-0.3,1c-0.2,0.2-0.6,0.4-1,0.6
		c-1.7,0.6-3.6,0.9-5.6,0.9c-1,0-2.1-0.2-3.5-0.5s-2-0.8-2-1.4c0-0.4,0.1-0.7,0.4-0.8c0.3-0.2,0.6-0.3,1-0.4s0.7-0.2,0.9-0.3
		c0-1.7,0-3.2,0-4.4c0-1.2-0.1-2.3-0.1-3.2l-0.1-2.6c-0.3-0.3-0.6-0.5-0.8-0.8c-0.2-0.2-0.3-0.5-0.3-0.8c0-0.2,0.1-0.4,0.2-0.6
		c0.1-0.2,0.3-0.5,0.5-0.8c0.3-0.5,0.6-0.8,0.7-1.1c0.1-0.3,0.2-0.7,0.3-1.3c0.2-1.1,0.4-1.9,0.7-2.5c0.3-0.6,0.9-0.9,1.6-0.9
		c0.4,0,0.9-0.1,1.7-0.3c0.9-0.1,1.4-0.2,1.6-0.2c1.9,0,3.2,0.6,3.9,1.9s1.1,2.9,1.2,5c0,0.5,0,1,0,1.3c0,0.4,0.1,0.7,0.1,0.9
		c0.1,1.2,0.2,2.1,0.2,2.7C223.7,74.7,223.7,75.8,223.6,76.9z M217.8,81c1.4-0.1,2.1-0.3,2.3-0.4c0.1-0.1,0.2-1.1,0.2-3
		c0-0.1,0-0.4,0-0.9c0-0.5-0.1-0.9-0.2-1.2c-0.2-0.3-0.4-0.5-0.8-0.5c-0.2,0-0.6,0.1-1,0.2c-0.5,0.1-0.8,0.2-1,0.2h-1
		c-0.5,0-0.8,0.1-0.9,0.4c-0.1,0.3-0.2,0.7-0.2,1.2c0,0.4-0.1,1-0.2,1.8c-0.1,0.8-0.2,1.4-0.2,1.8c0,0.2,0,0.3,0.1,0.4
		C215.5,81.2,216.4,81.2,217.8,81z M216.5,72.6l1.1,0c0.3,0,0.5,0,0.7,0c0.2,0,0.4,0.1,0.5,0.1c0.5,0.1,0.8,0.2,1.1,0.2
		c0.3,0,0.4-0.4,0.4-1.3l0-0.9c0-0.3-0.1-0.6-0.2-0.7s-0.4-0.3-0.7-0.3c-0.3,0-0.8,0.1-1.3,0.2c-0.6,0.1-1,0.2-1.3,0.2
		c-0.5,0-0.9,0-1.2,0.1c-0.2,0.1-0.4,0.2-0.5,0.5c-0.1,0.2-0.2,0.6-0.2,1.2c0,0.6,0.1,0.9,0.4,0.9C215.6,72.7,216,72.6,216.5,72.6z
		 M216.1,64.8c-0.3,0.2-0.6,0.4-0.7,0.8c-0.1,0.3-0.2,0.8-0.3,1.5c1.1,0,2.7,0,4.9,0c-0.1-0.8-0.2-1.5-0.5-2
		c-0.3-0.5-0.8-0.8-1.5-0.8C217.6,64.3,216.9,64.5,216.1,64.8z"/>
	<path class="st1" d="M235.6,57.4c0.7-0.3,1.5-0.5,2.4-0.5c1.3,0,2.5,0.1,3.5,0.3c1.1,0.2,1.7,0.6,2.1,1.2c0.2,0.4,0.3,1.2,0.3,2.4
		c0,0.5-0.2,1.1-0.5,1.7c-0.3,0.6-0.7,1.3-1.2,2c-0.3,0.4-0.4,0.7-0.4,0.8c0,0.1,0.2,0.1,0.5,0.2c0.3,0.1,0.6,0.2,0.8,0.4
		c0.2,0.2,0.3,0.4,0.3,0.7c0,0.5-0.4,1-1.2,1.3s-1.9,0.7-3.4,1.1c-1.3,0.3-2,0.6-2.4,0.8c-0.3,0.6-0.6,1.6-0.8,3.1
		c-0.1,0.6-0.1,1.1-0.2,1.3c-0.1,0.3-0.1,0.6-0.3,1c-0.1,0.4-0.2,0.8-0.2,1.1c0,0.1,0,0.3,0.1,0.4c0.1,0.1,1.6,0.5,4.6,1
		s4.7,0.8,5.2,0.8c1,0,1.9-0.1,2.5-0.2c0.6-0.1,1.2-0.5,1.7-1.1c1.7-2,2.8-7.1,3.4-15.4c0-0.6,0.1-1,0.2-1.3
		c0.1-0.3,0.3-0.5,0.7-0.5c0.4,0,0.7,0.2,0.8,0.6c0.1,0.4,0.2,0.9,0.2,1.5c0,1,0.1,2.1,0.2,3.3c0.1,1.4,0.2,2.5,0.2,3.3
		c0,1.3-0.1,2.5-0.2,3.6c-0.1,1.1-0.4,2.1-0.8,3.1c-0.8,2.1-1.7,3.7-2.8,4.6c-1.1,1-2.7,1.5-4.8,1.5c-1.5,0-3.9-0.1-7-0.4
		c-3.2-0.3-5.1-0.6-5.8-1c-0.6-0.3-1.1-0.7-1.4-1.2c-0.3-0.4-0.4-1-0.4-1.7c0-1.1,0.2-2.5,0.6-4.3s1-3.3,1.7-4.7
		c0.8-1.3,1.7-2,2.7-2c0.1,0,0.3,0,0.5,0.1c0.2,0,0.4,0,0.5-0.1c0.4-0.2,0.9-0.7,1.4-1.4c0.6-0.7,1-1.5,1.5-2.3
		c0.4-0.8,0.6-1.4,0.6-1.9c0-0.2-0.4-0.4-1.3-0.5c-0.9-0.1-1.6-0.2-2.2-0.2c-0.3,0-0.5,0.1-0.8,0.3c-0.3,0.2-0.6,0.3-1,0.3
		c-0.4,0-0.7-0.2-0.9-0.6c-0.3-0.4-0.4-0.7-0.4-1.1C234.5,58.2,234.9,57.7,235.6,57.4z"/>
</g>
</svg>
