<?xml version="1.0" encoding="utf-8"?>
<!-- Generator: Adobe Illustrator 25.2.1, SVG Export Plug-In . SVG Version: 6.00 Build 0)  -->
<svg version="1.1" id="圖層_1" xmlns="http://www.w3.org/2000/svg" xmlns:xlink="http://www.w3.org/1999/xlink" x="0px" y="0px"
	 viewBox="0 0 360 39.8" style="enable-background:new 0 0 360 39.8;" xml:space="preserve">
<style type="text/css">
	.st0{fill:#FFFFFF;}
</style>
<g>
	<path class="st0" d="M8.3,20c0.1-1.3,0.3-2.1,0.5-2.4c0.2-0.4,1-0.8,2.3-1.3s2.2-0.7,2.8-0.7c2.2,0,3.3,1.3,3.3,4
		c0,1.1-0.1,2-0.3,2.6c-0.2,0.7-0.4,1.1-0.7,1.4c-0.3,0.3-0.7,0.6-1.1,0.9c-0.4,0.3-0.8,0.6-1,0.8c-0.2,0.3-0.3,0.7-0.3,1.3
		c0,0.2,0.1,0.3,0.2,0.4c0.1,0.1,0.2,0.2,0.4,0.2c0.1,0.1,0.2,0.1,0.3,0.1c0.4,0.1,0.8,0.3,1,0.4c0.2,0.2,0.3,0.5,0.3,0.9
		c0,0.4-0.1,0.6-0.4,0.8c-0.3,0.2-0.6,0.3-1.1,0.5c-0.4,0.1-0.7,0.2-0.9,0.3c-0.2,0.1-0.3,0.3-0.3,0.5c0,0.2,0.3,0.3,0.9,0.3l4.6,0
		c5.5,0,8.6,0.4,9.4,1.1c0.3,0.3,0.5,0.7,0.5,1c0,0.5-0.2,0.9-0.5,1.1c-0.4,0.2-0.8,0.4-1.4,0.4c-1.1,0-2.4-0.1-3.9-0.2
		c-0.3,0-0.9-0.1-1.7-0.1c-0.8-0.1-1.5-0.1-2.2-0.1c-3.5,0-6.3,0.2-8.4,0.6c-0.9,0.1-2.1,0.5-3.7,1c-1.2,0.4-2.2,0.7-3,0.8
		c-0.8,0.2-1.6,0.3-2.3,0.3c-0.4,0-0.8-0.1-1.1-0.4c-0.3-0.3-0.5-0.6-0.5-1c0-0.9,1-1.6,3.1-2.2c2.1-0.6,4.4-1.2,7-1.7
		c0.3-0.1,0.5-0.1,0.6-0.2c0.1-0.1,0.2-0.3,0.2-0.5c0-0.2-0.3-0.3-0.8-0.3c-0.2,0-0.6,0-1.1,0.1c-0.5,0.1-0.9,0.1-1.1,0.1
		c-0.4,0-0.7-0.1-0.9-0.3c-0.2-0.2-0.3-0.5-0.3-0.9c0-0.4,0.2-0.7,0.6-0.9c0.4-0.2,1-0.4,1.7-0.6c0.6-0.2,1.1-0.3,1.4-0.5
		c0.3-0.1,0.5-0.3,0.5-0.6c0-0.2-0.1-0.3-0.3-0.4c-0.2-0.1-0.5-0.2-0.8-0.3c-0.4-0.1-0.6-0.2-0.7-0.2c-0.4-0.2-0.6-0.6-0.7-1.2
		c-0.1-0.6-0.2-1.2-0.2-1.9C8.1,22.3,8.2,21.3,8.3,20z M2.1,13.6c0.2-0.3,1.5-0.7,3.9-1.1c2.4-0.4,4.9-0.9,7.7-1.2
		c2.8-0.4,4.5-0.6,5.3-0.6c0.8,0,1.5,0.1,2,0.4c0.5,0.2,0.8,0.7,0.8,1.4c0,0.3-0.1,0.7-0.3,0.9c-0.4,0.5-1.9,0.7-4.6,0.7
		c-0.4,0-0.9,0-1.6,0.1c-0.5,0.1-1.1,0.1-1.6,0.1c-1.3,0-2.7,0.1-4,0.3c-1.4,0.2-2.9,0.5-4.6,0.9c-0.4,0.1-0.7,0.1-0.8,0.1
		c-0.6,0-1.2-0.1-1.6-0.3c-0.4-0.2-0.7-0.5-0.7-1C1.8,14.2,1.9,13.9,2.1,13.6z M9.5,2.3C10.2,0.8,11.7,0,13.9,0c1.1,0,2,0.5,2.6,1.4
		c0.6,0.9,1,2,1,3.1c0,0.8-0.2,1.8-0.6,3.1c-0.4,1.2-0.9,2-1.5,2.4c-0.3,0.2-0.6,0.3-0.9,0.3c-0.3,0-0.5,0-0.6,0
		c-0.3,0-0.7,0.1-1.2,0.2c-0.6,0.2-1.1,0.3-1.5,0.3c-0.8,0-1.3,0-1.7-0.1C9,10.6,8.8,10.4,8.6,10S8.3,9.1,8.3,8.4
		C8.3,5.9,8.7,3.9,9.5,2.3z M10.7,22.3c-0.3,0-0.5,0.1-0.6,0.3c-0.2,0.2-0.2,0.5-0.2,0.8c0,0.5,0.2,0.8,0.5,0.8
		c0.2,0,0.4-0.1,0.6-0.4c0.2-0.3,0.2-0.5,0.2-0.8C11.1,22.6,11,22.3,10.7,22.3z M10.7,18.9c-0.2,0-0.4,0.2-0.5,0.5
		C10,19.7,10,19.9,10,20.2c0,0.1,0,0.2,0,0.3c0,0.1,0.1,0.1,0.1,0.2h0.3c0.2-0.1,0.4-0.3,0.5-0.6c0.1-0.3,0.2-0.5,0.2-0.7
		C11.1,19,11,18.9,10.7,18.9z M14,3.1c-0.1-0.2-0.3-0.3-0.5-0.4C11.8,3.2,11,3.6,11,4c0,0.2,0.1,0.4,0.3,0.6
		c0.2,0.2,0.4,0.2,0.6,0.2c0.4,0,0.9-0.1,1.5-0.3c0.6-0.2,0.9-0.5,0.9-0.9C14.2,3.5,14.2,3.3,14,3.1z M13.4,6.7
		c-0.1,0-0.5,0.1-1.2,0.3c-0.7,0.2-1.1,0.5-1.1,0.8l0,0.2c0.2,0.1,0.4,0.2,0.6,0.2c0.3,0,0.7,0,1.1-0.1c0.4-0.1,0.7-0.2,0.8-0.3
		l0-0.3C13.8,7.2,13.6,6.9,13.4,6.7z M14.5,18.5c-0.2-0.4-0.4-0.5-0.7-0.5c-0.2,0-0.4,0.1-0.5,0.2c-0.1,0.1-0.2,0.3-0.2,0.5
		c0,0.9,0.3,1.4,1,1.4c0.5,0,0.7-0.2,0.7-0.6C14.8,19.2,14.7,18.8,14.5,18.5z M14.3,21.7c-0.1-0.1-0.2-0.2-0.4-0.2
		c-0.3,0-0.4,0.2-0.4,0.6c0,0.3,0,0.5,0.1,0.8c0.1,0.3,0.2,0.4,0.3,0.4c0.1,0,0.3-0.2,0.4-0.5c0.1-0.3,0.2-0.6,0.2-0.7
		C14.4,21.9,14.4,21.8,14.3,21.7z"/>
	<path class="st0" d="M41.3,20c0.1-1.3,0.3-2.1,0.5-2.4c0.2-0.4,1-0.8,2.3-1.3s2.2-0.7,2.8-0.7c2.2,0,3.3,1.3,3.3,4
		c0,1.1-0.1,2-0.3,2.6c-0.2,0.7-0.4,1.1-0.7,1.4c-0.3,0.3-0.7,0.6-1.1,0.9c-0.4,0.3-0.8,0.6-1,0.8c-0.2,0.3-0.3,0.7-0.3,1.3
		c0,0.2,0.1,0.3,0.2,0.4c0.1,0.1,0.2,0.2,0.4,0.2c0.1,0.1,0.2,0.1,0.3,0.1c0.4,0.1,0.8,0.3,1,0.4c0.2,0.2,0.3,0.5,0.3,0.9
		c0,0.4-0.1,0.6-0.4,0.8c-0.3,0.2-0.6,0.3-1.1,0.5c-0.4,0.1-0.7,0.2-0.9,0.3c-0.2,0.1-0.3,0.3-0.3,0.5c0,0.2,0.3,0.3,0.9,0.3l4.6,0
		c5.5,0,8.6,0.4,9.4,1.1c0.3,0.3,0.5,0.7,0.5,1c0,0.5-0.2,0.9-0.5,1.1c-0.4,0.2-0.8,0.4-1.4,0.4c-1.1,0-2.4-0.1-3.9-0.2
		c-0.3,0-0.9-0.1-1.7-0.1c-0.8-0.1-1.5-0.1-2.2-0.1c-3.5,0-6.3,0.2-8.4,0.6c-0.9,0.1-2.1,0.5-3.7,1c-1.2,0.4-2.2,0.7-3,0.8
		c-0.8,0.2-1.6,0.3-2.3,0.3c-0.4,0-0.8-0.1-1.1-0.4c-0.3-0.3-0.5-0.6-0.5-1c0-0.9,1-1.6,3.1-2.2c2.1-0.6,4.4-1.2,7-1.7
		c0.3-0.1,0.5-0.1,0.6-0.2c0.1-0.1,0.2-0.3,0.2-0.5c0-0.2-0.3-0.3-0.8-0.3c-0.2,0-0.6,0-1.1,0.1c-0.5,0.1-0.9,0.1-1.1,0.1
		c-0.4,0-0.7-0.1-0.9-0.3c-0.2-0.2-0.3-0.5-0.3-0.9c0-0.4,0.2-0.7,0.6-0.9c0.4-0.2,1-0.4,1.7-0.6c0.6-0.2,1.1-0.3,1.4-0.5
		c0.3-0.1,0.5-0.3,0.5-0.6c0-0.2-0.1-0.3-0.3-0.4c-0.2-0.1-0.5-0.2-0.8-0.3c-0.4-0.1-0.6-0.2-0.7-0.2c-0.4-0.2-0.6-0.6-0.7-1.2
		c-0.1-0.6-0.2-1.2-0.2-1.9C41.1,22.3,41.1,21.3,41.3,20z M35,13.6c0.2-0.3,1.5-0.7,3.9-1.1c2.4-0.4,4.9-0.9,7.7-1.2
		c2.8-0.4,4.5-0.6,5.3-0.6c0.8,0,1.5,0.1,2,0.4c0.5,0.2,0.8,0.7,0.8,1.4c0,0.3-0.1,0.7-0.3,0.9c-0.4,0.5-1.9,0.7-4.6,0.7
		c-0.4,0-0.9,0-1.6,0.1c-0.5,0.1-1.1,0.1-1.6,0.1c-1.3,0-2.7,0.1-4,0.3c-1.4,0.2-2.9,0.5-4.6,0.9c-0.4,0.1-0.7,0.1-0.8,0.1
		c-0.6,0-1.2-0.1-1.6-0.3c-0.4-0.2-0.7-0.5-0.7-1C34.8,14.2,34.8,13.9,35,13.6z M42.4,2.3C43.2,0.8,44.7,0,46.9,0
		c1.1,0,2,0.5,2.6,1.4c0.6,0.9,1,2,1,3.1c0,0.8-0.2,1.8-0.6,3.1c-0.4,1.2-0.9,2-1.5,2.4c-0.3,0.2-0.6,0.3-0.9,0.3
		c-0.3,0-0.5,0-0.6,0c-0.3,0-0.7,0.1-1.2,0.2c-0.6,0.2-1.1,0.3-1.5,0.3c-0.8,0-1.3,0-1.7-0.1c-0.4-0.1-0.6-0.3-0.8-0.6
		s-0.3-0.9-0.3-1.6C41.3,5.9,41.7,3.9,42.4,2.3z M43.7,22.3c-0.3,0-0.5,0.1-0.6,0.3c-0.2,0.2-0.2,0.5-0.2,0.8c0,0.5,0.2,0.8,0.5,0.8
		c0.2,0,0.4-0.1,0.6-0.4c0.2-0.3,0.2-0.5,0.2-0.8C44.1,22.6,43.9,22.3,43.7,22.3z M43.7,18.9c-0.2,0-0.4,0.2-0.5,0.5
		c-0.2,0.3-0.2,0.6-0.2,0.8c0,0.1,0,0.2,0,0.3c0,0.1,0.1,0.1,0.1,0.2h0.3c0.2-0.1,0.4-0.3,0.5-0.6c0.1-0.3,0.2-0.5,0.2-0.7
		C44.1,19,44,18.9,43.7,18.9z M47,3.1c-0.1-0.2-0.3-0.3-0.5-0.4C44.8,3.2,44,3.6,44,4c0,0.2,0.1,0.4,0.3,0.6
		c0.2,0.2,0.4,0.2,0.6,0.2c0.4,0,0.9-0.1,1.5-0.3c0.6-0.2,0.9-0.5,0.9-0.9C47.2,3.5,47.1,3.3,47,3.1z M46.4,6.7
		c-0.1,0-0.5,0.1-1.2,0.3c-0.7,0.2-1.1,0.5-1.1,0.8l0,0.2c0.2,0.1,0.4,0.2,0.6,0.2c0.3,0,0.7,0,1.1-0.1c0.4-0.1,0.7-0.2,0.8-0.3
		l0-0.3C46.7,7.2,46.6,6.9,46.4,6.7z M47.4,18.5c-0.2-0.4-0.4-0.5-0.7-0.5c-0.2,0-0.4,0.1-0.5,0.2c-0.1,0.1-0.2,0.3-0.2,0.5
		c0,0.9,0.3,1.4,1,1.4c0.5,0,0.7-0.2,0.7-0.6C47.7,19.2,47.6,18.8,47.4,18.5z M47.2,21.7c-0.1-0.1-0.2-0.2-0.4-0.2
		c-0.3,0-0.4,0.2-0.4,0.6c0,0.3,0,0.5,0.1,0.8c0.1,0.3,0.2,0.4,0.3,0.4c0.1,0,0.3-0.2,0.4-0.5c0.1-0.3,0.2-0.6,0.2-0.7
		C47.4,21.9,47.3,21.8,47.2,21.7z"/>
	<path class="st0" d="M74.7,1.9c0.4-0.2,0.8-0.4,1.3-0.4c0.4,0,0.9,0.1,1.4,0.2c0.1,0,0.3,0.1,0.6,0.1c0.3,0,0.5,0,0.7,0
		c1,0,1.9,0.1,2.6,0.3c0.7,0.2,1,0.5,1,1c0,0.4-0.1,0.6-0.3,0.8c-0.2,0.1-0.5,0.2-0.9,0.3c-0.5,0.1-0.8,0.2-1.1,0.4
		c-0.3,0.2-0.4,0.6-0.4,1.2c0,0.2,0.1,0.3,0.2,0.3s0.4,0.1,0.7,0.1c0.5,0,0.8,0.1,1.1,0.3C81.9,6.7,82,7,82,7.5
		c0,0.3-0.1,0.5-0.4,0.6c-0.2,0.1-0.6,0.3-1.1,0.5c-0.8,0.2-1.4,0.5-1.8,0.8c-0.5,0.3-0.7,0.8-0.7,1.5c0,0.3,0.1,0.5,0.4,0.5
		s0.6-0.1,1.1-0.3c0.5-0.2,0.9-0.5,1.4-0.7c1.3-0.7,2.2-1.1,2.7-1.1c0.3,0,0.4,0.1,0.5,0.2c0.1,0.1,0.2,0.3,0.2,0.6
		c0,0.4-0.5,0.9-1.5,1.7c-1,0.8-1.9,1.3-2.5,1.7c-0.3,0.2-0.9,0.4-1.8,0.7c-0.8,0.3-1.4,0.5-1.8,0.7c-0.2,0.1-0.3,0.2-0.4,0.3
		c-0.1,0.1-0.2,0.2-0.2,0.4c-0.8,1.7-2,3.8-3.5,6.3c-1.5,2.5-3,4.8-4.5,7c-1.5,2.1-2.8,3.5-3.8,4c-0.6,0-0.9-0.2-0.9-0.7
		c0-0.6,0.2-1.3,0.6-2.1c0.4-0.8,0.8-1.5,1.2-2.1c0.4-0.6,0.7-1,0.8-1.2c0.5-0.8,1.3-2.3,2.5-4.5l0,0c2.5-4.2,3.7-6.3,3.7-6.5
		c0-0.2-0.2-0.3-0.5-0.4c-0.3-0.1-0.6-0.2-0.8-0.3c-0.2-0.1-0.3-0.3-0.3-0.7c0-0.3,0.2-0.6,0.6-0.8c0.4-0.2,1-0.4,1.7-0.5l1-0.3
		c0.2-0.1,0.5-0.5,0.9-1.1s0.6-1,0.6-1.2v0c-0.2,0-0.4,0.1-0.6,0.1c-0.2,0.1-0.4,0.1-0.6,0.1c-0.5,0.2-1,0.3-1.5,0.3
		c-0.2,0-0.3-0.1-0.5-0.3c-0.2-0.2-0.2-0.4-0.2-0.5c0-0.3,0.2-0.6,0.6-0.9c0.4-0.3,1.1-0.6,1.9-1c1.2-0.6,2.1-1.1,2.8-1.6s1-1,1-1.7
		c0-0.3-0.1-0.6-0.3-0.8c-0.2-0.2-0.5-0.2-0.9-0.2c-0.1,0-0.3,0.2-0.6,0.5C76.2,4.8,75.9,5,75.7,5c-0.4,0-0.8-0.2-1.1-0.7
		c-0.3-0.5-0.5-0.9-0.5-1.4C74.1,2.5,74.3,2.1,74.7,1.9z M76.1,30.5c0.2-1.4,0.4-3.2,0.7-5.4l0.6-4.1c0-0.2,0-0.6,0.1-1.1
		c0-0.5,0.1-0.9,0.3-1.2c0.6-1.2,2-1.8,4.1-1.8c1.5,0,2.6,0.7,3,2c0.5,1.3,0.7,3,0.7,4.9l0,2.8c0,0.5-0.1,1.2-0.2,2.3
		c-0.1,0.8-0.2,1.6-0.2,2.3c0,0.1,0.1,0.3,0.2,0.4c0.1,0.1,0.2,0.3,0.4,0.4c0.6,0.3,0.9,0.8,0.9,1.3c0,0.1,0,0.2,0,0.3
		c-0.1,0.4-0.3,0.7-0.6,0.9c-0.3,0.2-0.8,0.4-1.3,0.6c-0.5,0.2-1.3,0.5-2.4,0.9c-1.3,0.6-2.5,1-3.5,1.3c-1,0.3-1.9,0.5-2.9,0.5
		c-0.3,0-0.7-0.1-1.1-0.4s-0.6-0.5-0.6-0.9c0-0.3,0.1-0.5,0.3-0.6c0.2-0.2,0.4-0.3,0.8-0.5c0.3-0.2,0.6-0.3,0.7-0.5
		C75.9,33.4,76,31.9,76.1,30.5z M79.2,33.7c0.2-0.1,0.4-0.2,0.5-0.2c0.2-0.1,0.6-0.2,1.2-0.5c0.6-0.2,1-0.5,1.2-0.9
		c0.2-0.4,0.3-0.9,0.3-1.7c-0.3,0-0.6,0-1.2,0c-1.1,0-1.8,0-2.1,0.1c-0.3,0.1-0.5,0.3-0.6,0.7c-0.1,0.4-0.1,1.1-0.1,2.2
		c0,0.3,0.1,0.5,0.3,0.5C78.8,33.8,79,33.8,79.2,33.7z M82.7,24.9c-0.2-0.2-0.5-0.2-0.9-0.2c-0.4,0-0.9,0-1.4,0.1
		c-0.6,0.1-1,0.1-1.1,0.3c-0.1,0.1-0.2,0.5-0.2,1.2v0.5c0,0.4,0,0.6-0.1,0.7c0.1,0.2,0.6,0.3,1.4,0.3c0.1,0,0.5,0,1.2,0
		s1-0.2,1.2-0.5c0.2-0.3,0.2-0.8,0.2-1.5C83,25.3,82.9,25,82.7,24.9z M82.4,19.9c-0.3-0.3-0.7-0.5-1.2-0.5c-0.6,0-1,0.1-1.2,0.4
		c-0.2,0.2-0.4,0.7-0.4,1.2c0,0.5,0,0.8,0.1,1c0.1,0,0.2,0,0.4,0c0.3,0,0.7,0,1-0.1c0.4-0.1,0.7-0.1,0.9-0.1h0.3
		c0.2,0,0.3,0,0.3-0.1c0-0.1,0.1-0.2,0.1-0.5C82.8,20.6,82.7,20.2,82.4,19.9z"/>
	<path class="st0" d="M102.8,24.2c-0.2-0.1-0.4-0.4-0.4-0.8c0-0.3,0.1-0.7,0.4-1.2c0.3-0.5,0.5-0.9,0.5-1.3c0-0.2-0.1-0.4-0.2-0.5
		c-0.1-0.1-0.3-0.2-0.5-0.4c-0.3-0.2-0.6-0.4-0.8-0.7c-0.2-0.3-0.3-0.6-0.3-1.2c0-1,0.3-1.8,0.9-2.5c0.6-0.7,1.3-1,2.3-1
		c1.3,0,2,0.6,2,1.9c0,1.7-0.2,3.4-0.6,5.1c-0.4,1.7-1.2,2.6-2.4,2.6C103.3,24.4,103,24.3,102.8,24.2z"/>
	<path class="st0" d="M122.4,16.6c1.3-1.6,2.6-3.1,4-4.6c1.4-1.4,2.3-2.1,2.7-2.1c0.2,0,0.4,0.1,0.5,0.3c0.1,0.2,0.2,0.4,0.2,0.6
		c0,0.5-0.2,1-0.6,1.5s-0.9,1.2-1.5,1.9c-0.6,0.7-0.9,1.1-0.9,1.2c0,0.3,0.1,0.6,0.3,1c0.3,0.5,0.4,1.4,0.5,2.5
		C127.9,20,128,21,128,22c0,1.9-0.1,3.8-0.4,5.8c-0.3,1.9-0.9,2.9-1.9,2.9c-0.2,0-0.4-0.1-0.6-0.2c-0.2-0.1-0.4-0.3-0.6-0.6
		c0-1.2,0.1-2.6,0.2-4.1c0.1-1.8,0.2-3.1,0.2-4c0-2.1-0.1-3.3-0.3-3.7c-0.3,0.4-0.8,0.9-1.6,1.5s-1.3,0.8-1.7,0.8
		c-0.2,0-0.4-0.1-0.5-0.2c-0.2-0.1-0.2-0.3-0.2-0.5C120.5,19.2,121.2,18.2,122.4,16.6z M132.8,24.9c1.6-2.4,2.5-3.7,2.7-4
		c0.3-0.3,0.6-0.4,0.9-0.4c0.2,0,0.4,0,0.5,0.1s0.2,0.2,0.2,0.4c0,0.6-0.3,1.7-1,3.3c-0.7,1.5-1.4,2.9-2.3,4.2
		c-0.8,1.2-1.6,1.9-2.2,1.9c-0.3,0-0.6-0.2-0.9-0.5c-0.3-0.3-0.4-0.6-0.4-1C130.5,28.6,131.3,27.3,132.8,24.9z M132.7,13.5
		c0.2-0.5,0.4-1,0.6-1.4c0.2-0.4,0.4-0.7,0.5-0.9c0.7-1.3,1.1-2.2,1.2-2.5c0.1-0.2,0.2-0.6,0.3-1.1c0.1-0.5,0.3-0.9,0.5-1.1
		c0.1-0.1,0.3-0.2,0.5-0.2c0.4,0,0.6,0.1,0.8,0.3c0.1,0.2,0.3,0.5,0.3,0.9c0.1,0.4,0.2,0.6,0.5,0.6c0.2,0,0.5,0,0.8-0.1
		c0.3-0.1,0.5-0.1,0.5-0.2c2.3-0.7,4.2-1.1,5.6-1.1c0.5,0,1,0.2,1.4,0.6c0.4,0.4,0.7,0.9,0.7,1.4c0,0.3-0.1,0.8-0.4,1.4
		s-0.6,1.2-0.9,1.7c-0.4,0.5-0.7,0.8-1.1,0.8c-0.4,0-0.6-0.3-0.6-0.9c0-0.2,0-0.4,0-0.6c0-0.2,0-0.4,0-0.6c0-0.2,0-0.3,0-0.4
		c-0.9,0.1-2.2,0.4-3.8,0.7c-1.6,0.3-2.6,0.6-3,0.8c-0.2,0.1-0.4,0.4-0.6,0.6c-0.2,0.3-0.4,0.7-0.6,1.2c-0.3,0.7-0.7,1.3-1,1.7
		c-0.3,0.4-0.8,0.6-1.3,0.6c-0.3,0-0.6-0.1-0.8-0.2c-0.2-0.2-0.3-0.4-0.3-0.7C132.4,14.4,132.5,14,132.7,13.5z M139.6,23.5
		c0-0.5,0-1.1,0-2c0-3.7,0.5-5.5,1.5-5.5c0.3,0,0.5,0.1,0.6,0.2c0.1,0.1,0.4,1.8,0.8,5.2c0.4,3.3,0.6,5.4,0.6,6.1
		c0,1.6-0.2,3-0.5,4.2c-0.3,1.2-1,1.8-2.2,1.8c-1.1,0-1.9-0.7-2.4-2.2c-0.5-1.5-0.8-2.9-0.8-4.3c0-1.2,0.4-1.8,1.2-1.8
		c0.3,0,0.5,0.1,0.6,0.2c0.1,0.1,0.2,0.2,0.3,0.2c0.1,0,0.2-0.1,0.2-0.2L139.6,23.5z M143.2,20.3c0.2,0,0.4,0.1,0.5,0.2
		c0.2,0.2,0.4,0.3,0.5,0.5c0.6,0.5,1.4,1.1,2.6,1.6c1.1,0.6,2.8,1.4,4.9,2.4c0.3,0.1,1,0.5,2.2,1c1.1,0.5,2,1,2.6,1.4
		c0.6,0.4,1,0.7,1.1,0.9c0.2,0.3,0.3,0.6,0.3,0.9c0,0.5-0.2,1-0.5,1.2c-0.3,0.3-0.8,0.4-1.3,0.4c-0.6,0-1.2-0.2-2-0.6l-2-1
		c-1.2-0.6-2.3-1.2-3.1-1.7c-0.8-0.5-1.6-1.1-2.4-1.7c-0.1-0.1-0.6-0.5-1.3-1.1c-0.7-0.6-1.3-1.3-1.8-2c-0.5-0.7-0.7-1.3-0.7-1.7
		C142.8,20.5,142.9,20.3,143.2,20.3z"/>
	<path class="st0" d="M160.9,13.2c-0.2-0.3-0.3-0.6-0.3-1c0-0.7,0.4-1.6,1.2-2.5c0.8-1,1.8-1.8,2.9-2.5c1.1-0.7,2-1.1,2.7-1.1
		c0.4,0,0.7,0.1,0.9,0.3c0.2,0.2,0.3,0.5,0.3,0.9c0,0.3-0.1,0.5-0.2,0.6c-0.2,0.2-0.3,0.3-0.5,0.4c-0.2,0.1-0.3,0.1-0.4,0.2
		c-1,0.5-2.1,1.3-3.2,2.2c-1.1,0.9-1.8,1.7-2,2.4c0,0,0,0.1,0,0.2c0,0.1-0.1,0.2-0.1,0.3c-0.1,0-0.2,0-0.4,0
		C161.3,13.6,161.1,13.5,160.9,13.2z M162,28.9c-0.2-0.5-0.3-1.2-0.3-2c0-0.4,0.1-1,0.2-1.8c0.1-0.8,0.2-1.4,0.2-1.8
		c0-0.1,0-0.2-0.1-0.3c0-0.1-0.1-0.2-0.1-0.3c0-0.7,0.2-1.9,0.7-3.7c0.5-1.7,0.9-3,1.2-3.8s0.9-1.4,1.6-1.9c0.7-0.5,1.5-0.7,2.3-0.7
		c1.5,0,2.6,0.7,3,2.2c0.5,1.5,0.7,3.2,0.7,5.2c0,1.5-0.1,2.9-0.2,4c-0.1,1.2-0.4,2.1-0.8,2.9c-0.2,0.4-0.5,0.8-1,1.2
		c-0.5,0.4-0.9,0.6-1.4,0.6c-0.2,0-0.4,0-0.5-0.2c-0.1-0.1-0.3-0.2-0.4-0.5c-0.2-0.2-0.3-0.3-0.4-0.3c-0.1,0-0.4,0.1-0.9,0.3
		c-0.5,0.2-0.9,0.3-1.2,0.3c-0.3,0-0.5,0.2-0.8,0.6c0,0.1-0.1,0.2-0.3,0.4c-0.2,0.2-0.3,0.3-0.5,0.3C162.6,29.7,162.2,29.4,162,28.9
		z M168.3,24c0.8-0.6,1.2-1.4,1.2-2.4c0-0.2,0-0.3-0.1-0.4c0-0.1-0.2-0.1-0.3-0.1c-0.5,0-1.3,0.2-2.4,0.5c-1.1,0.3-1.7,0.7-1.9,1
		c-0.1,0.3-0.2,1-0.2,1.9c0,0.7,0.2,1.1,0.5,1.1C166.4,25.1,167.5,24.6,168.3,24z M165.2,18.9c0.2,0,0.5-0.1,0.9-0.3
		c0.1,0,0.2-0.1,0.4-0.2c0.2-0.1,0.4-0.1,0.5-0.2c0.1,0,0.4,0,0.8,0c0.4,0,0.7,0,0.9-0.1s0.4-0.2,0.4-0.5c0-0.5-0.2-1-0.5-1.7
		c-0.3-0.6-0.7-0.9-1.2-0.9c-0.7,0-1.3,0.4-1.7,1.2c-0.4,0.8-0.7,1.6-0.7,2.4C165,18.8,165,18.9,165.2,18.9z M184.1,8.7
		c1.5,0.4,2.6,1.4,3.1,3.1c0.5,1.6,0.8,3.6,0.8,5.9l0,3.1c0,3.5-0.3,6.8-0.8,10c-0.5,3.2-1.7,4.8-3.5,4.8c-0.6,0-0.9-0.3-0.9-0.9
		c0-0.4,0.1-0.8,0.3-1.2c0.2-0.4,0.4-0.7,0.5-0.9c0.5-1.1,0.8-2.4,1.1-4c0.2-1.5,0.4-3,0.4-4.4v-1.1c-1.5-1.1-2.8-1.9-3.8-2.4
		c-0.2-0.1-0.7-0.4-1.7-0.8c-0.9-0.5-1.5-0.8-1.6-1.1c-0.1-0.3-0.2-0.7-0.2-1.1c0-0.1,0-0.2,0.1-0.3c0-0.1,0.1-0.2,0.1-0.3
		c0-0.1-0.1-0.3-0.4-0.4s-0.5-0.4-0.6-0.6c-0.2-0.2-0.2-0.5-0.2-1c0-0.8,0.3-2.1,1-3.8c0.7-1.7,1.4-3.3,2.4-4.6c0.9-1.3,1.8-2,2.7-2
		c0.2,0,0.3,0.1,0.3,0.2c-0.7,0.9-1.2,1.8-1.6,2.6c-0.4,0.8-0.6,1.6-0.6,2.4c0.2-0.1,0.5-0.3,0.8-0.6c0.3-0.2,0.6-0.4,0.9-0.5
		c0.3-0.1,0.7-0.2,1.1-0.2C183.6,8.6,183.8,8.7,184.1,8.7z M184.7,18.1c0.1-0.2,0.1-0.5,0.1-0.8c0-1.3-0.2-2.7-0.5-4
		c-0.3-1.3-1-2-1.9-2c-0.4,0-0.7,0.2-1.1,0.5c-0.2,0.1-0.6,0.9-1.3,2.2c-0.7,1.3-1,2.1-1,2.3c0,0.2,0.8,0.6,2.4,1.2
		c1.6,0.6,2.6,0.9,3,0.9C184.4,18.4,184.6,18.3,184.7,18.1z"/>
	<path class="st0" d="M193.4,21.3c0.4-1.4,1-2.7,1.7-3.9c0.7-1.2,1.4-2,2.2-2.4c0.2-0.1,0.4-0.2,0.6-0.2c0.2,0,0.5,0,0.7,0
		c0.1,0,0.4,0,0.7,0.1l0.2,0.3c0,0.2-0.1,0.3-0.4,0.3c-0.7,0.2-1.3,1-1.8,2.2c-0.5,1.2-0.9,2.6-1.2,4.1c-0.3,1.5-0.4,2.7-0.4,3.6
		c0,0.6-0.1,1-0.2,1.3c-0.1,0.3-0.4,0.5-0.9,0.5c-0.6,0-1.1-0.2-1.4-0.6c-0.3-0.4-0.5-0.9-0.5-1.5C192.7,23.8,192.9,22.7,193.4,21.3
		z M201.3,16.1c0.2-0.6,0.5-0.9,1-0.9c0.4,0,0.6,0.4,0.6,1.2c0,0.9,0.2,2,0.7,3.4c0.4,1.3,1,2.5,1.8,3.5c0.7,1,1.6,1.5,2.5,1.5
		c0.4,0,0.9-0.1,1.4-0.4c0.5-0.2,1-0.6,1.7-1c0.1-0.1,0.3-0.2,0.7-0.5c0.4-0.2,0.7-0.4,0.9-0.4c0.2,0,0.4,0.1,0.5,0.3
		c0.1,0.2,0.2,0.4,0.2,0.6c0,0.7-0.3,1.3-0.9,2s-1.3,1.2-2.2,1.6c-0.8,0.4-1.6,0.6-2.2,0.6c-1.4,0-2.7-0.5-3.7-1.5
		c-1-1-1.8-2.3-2.4-3.8c-0.5-1.5-0.8-3-0.8-4.3C201,17.4,201.1,16.8,201.3,16.1z M209.9,12.8c0.1,0.1,0.1,0.2,0.1,0.4
		c0,0.1-0.1,0.4-0.3,0.9c-0.2,0.4-0.3,0.9-0.3,1.3c0,0.7,0.1,1.4,0.2,2.1c0.2,0.8,0.4,1.4,0.7,2c0,0.1,0.1,0.2,0.3,0.5
		c0.1,0.3,0.2,0.6,0.2,0.9c0,0.3-0.1,0.4-0.3,0.6c-0.2,0.1-0.5,0.2-0.8,0.2c-0.9,0-1.4-0.6-1.7-1.7c-0.3-1.1-0.4-2.3-0.4-3.6
		c0-0.8,0.2-1.6,0.5-2.4c0.3-0.8,0.9-1.2,1.5-1.2C209.7,12.6,209.8,12.7,209.9,12.8z M214.2,14.4c0-1,0.2-1.5,0.6-1.5
		c0.2,0,0.4,0,0.6,0.1c0.3,0.2,0.6,1,0.9,2.5c0.1,0.6,0.4,1.5,0.9,2.7c0.3,0.9,0.6,1.6,0.7,2.2c0.2,0.6,0.2,1.2,0.2,1.8
		c0,0.2-0.1,0.4-0.4,0.5c-0.3,0.2-0.5,0.2-0.8,0.2C215,22.9,214.2,20.1,214.2,14.4z"/>
	<path class="st0" d="M228.1,10.6c0.3-0.6,0.6-0.8,1-0.8c0.7,0,1.1,0.5,1.3,1.6c0.2,1,0.3,2.1,0.3,3.2c0,0.5,0,0.9,0,1.1l0,1.2
		c0.2,0.1,0.7,0.2,1.4,0.4c0.7,0.2,1.4,0.5,1.8,0.9c0.5,0.4,0.7,0.9,0.7,1.4c0,0.1,0,0.2-0.1,0.3c-0.1,0.2-0.2,0.4-0.5,0.5
		c-0.3,0.1-0.5,0.2-0.8,0.2c-0.3,0-0.8-0.1-1.5-0.4c-0.4-0.2-0.7-0.3-1-0.3c-0.2,0-0.4,0.2-0.4,0.5c0,0.4-0.1,0.6-0.1,0.6l-0.6,5.2
		c-0.1,1.3-0.3,2.3-0.6,3.2c-0.3,0.9-0.7,1.3-1.4,1.3c-1,0-1.5-1.4-1.5-4.3c0-2.4,0.2-4.2,0.5-5.6c0.1-0.3,0.1-0.9,0.1-1.5
		c0-0.1,0-0.2-0.1-0.2c-0.1,0-0.3,0.3-0.6,0.9c-0.3,0.7-0.6,1.2-0.8,1.5c-0.2,0.4-0.6,0.6-0.9,0.6c-0.3,0-0.6-0.2-0.7-0.5
		c-0.2-0.3-0.2-0.7-0.2-1c0-0.4,0-0.9,0.2-1.4c0.1-0.5,0.2-1,0.4-1.4c0-0.1,0.1-0.5,0.3-1.1c0.1-0.6,0.2-1.2,0.2-1.7
		c0-0.6,0.1-1,0.3-1.3c0.2-0.3,0.6-0.4,1.2-0.4c0.4,0,0.7,0.1,0.9,0.4s0.3,0.6,0.4,1s0.2,0.6,0.3,0.7c0.3-0.1,0.5-0.7,0.5-1.8
		c0-0.2-0.1-0.4-0.2-0.7c-0.1-0.3-0.2-0.5-0.2-0.6C227.6,11.6,227.8,11.2,228.1,10.6z M238.2,4c0.3-0.2,0.7-0.3,1.3-0.4
		c0.4-0.1,0.7-0.1,0.9-0.2c0.2-0.1,0.4-0.2,0.5-0.4c0.6-0.7,1.2-1,1.7-1c0.3,0,0.5,0.1,0.7,0.2c0.2,0.2,0.4,0.4,0.6,0.7
		c0.2,0.4,0.5,0.6,0.7,0.8c0.6,0.4,0.9,0.8,0.9,1.2c0,0.3-0.1,0.5-0.3,0.7c-0.2,0.1-0.4,0.3-0.8,0.4c-0.3,0.1-0.5,0.2-0.6,0.3
		s-0.2,0.2-0.2,0.4c0,0.2,0,0.3,0.1,0.4c0.1,0.1,0.2,0.1,0.4,0.1l0.8,0c0.3,0,0.6,0.1,0.8,0.2c0.2,0.1,0.2,0.4,0.2,0.9
		c0,0.5-0.1,0.9-0.4,1.1c-0.3,0.3-0.7,0.5-1.3,0.8c-0.5,0.2-0.8,0.4-1,0.6c-0.2,0.2-0.3,0.5-0.3,0.8c0,0.8,0.2,1.2,0.6,1.2
		c0.5,0,1.1-0.1,2.1-0.3c0.9-0.2,1.6-0.3,2.1-0.3c0.8,0,1.5,0.1,2.1,0.2c0.6,0.2,0.9,0.5,0.9,1.1c0,0.5-0.7,0.9-2.1,1.2
		s-3.4,0.5-6,0.8c-1.7,0.1-2.8,0.3-3.3,0.4c-0.3,0.1-0.7,0.1-1.2,0.1c-0.1,0-0.3,0-0.8,0c-0.4,0-0.8,0-1.1-0.2s-0.5-0.3-0.5-0.6
		c0-0.3,0.3-0.6,0.8-0.8c0.5-0.2,1-0.4,1.5-0.6c0.5-0.1,0.7-0.2,0.9-0.2c0.4-0.1,0.7-0.4,0.8-0.8c0.1-0.4,0.2-0.8,0.2-1.4
		c0-0.3-0.1-0.4-0.2-0.5c-0.1-0.1-0.4-0.2-0.7-0.3c-0.3-0.1-0.6-0.2-0.7-0.3S238,9.9,238,9.6c0-0.2,0.1-0.5,0.2-0.7
		c0.1-0.2,0.3-0.4,0.5-0.4c0.1,0,0.2,0,0.4,0.1c0.2,0.1,0.3,0.1,0.4,0.1c0.5,0,0.8-0.1,0.9-0.4c0.1-0.2,0.2-0.6,0.2-1.1
		c0-0.8-0.2-1.2-0.5-1.2c-0.1,0-0.3,0-0.5,0.1c-0.2,0.1-0.4,0.1-0.5,0.1c-0.8,0-1.2-0.4-1.2-1.1C237.8,4.6,238,4.2,238.2,4z
		 M236.4,29.5c0.2-2.4,0.5-4.6,0.8-6.7s0.9-3.4,1.4-4c0.2-0.2,1-0.6,2.4-1.1c1.4-0.5,2.3-0.8,2.6-0.8c0.6,0,1.1,0.4,1.4,1.1
		c0.3,0.7,0.4,1.5,0.5,2.2c0.1,1.4,0.2,3.5,0.5,6.1c0.1,1.5,0.3,3,0.4,4.6s0.2,3,0.2,4.3c0,0.4-0.1,1-0.2,1.9
		c-0.1,0.9-0.2,1.4-0.3,1.7c-0.3,0.7-0.9,1-1.9,1c-0.6,0-1.1-0.3-1.5-0.9c-0.4-0.6-0.6-1.2-0.6-1.8c0-0.3,0-0.4,0.2-0.5
		c0.1-0.1,0.2-0.1,0.5-0.2c0.3-0.1,0.5-0.2,0.7-0.3c0.2-0.2,0.2-0.5,0.2-1c0-0.7,0-1.8-0.1-3.3s-0.2-2.2-0.3-2.3
		c-0.2-0.1-1.1-0.2-2.8-0.2h-0.8c-0.1,0.4-0.3,1.7-0.4,3.9c0,0.1,0,0.5,0,1c0,0.6-0.1,1-0.3,1.3c-0.1,0.2-0.2,0.4-0.2,0.5
		c0,0.4-0.1,0.9-0.3,1.4c-0.2,0.5-0.4,0.7-0.8,0.7c-1,0-1.5-1-1.5-3.1C236.2,33.7,236.2,31.9,236.4,29.5z M242.9,25.9
		c-0.1-0.2-0.2-0.3-0.4-0.3c-0.1,0.1-0.5,0.2-1.1,0.2c-0.6,0.1-1,0.1-1.4,0.3c-0.3,0.1-0.6,0.3-0.7,0.6c0.2,0.5,0.7,0.7,1.5,0.7
		c0.1,0,0.3,0,0.8,0c0.4,0,0.7-0.1,1-0.2c0.2-0.2,0.4-0.4,0.4-0.8C243.1,26.3,243,26.1,242.9,25.9z M242.5,20.9
		c-0.1-0.3-0.2-0.5-0.4-0.5c-0.4,0-1,0.3-1.6,0.8c-0.7,0.6-1,1.1-1,1.5l0.1,0.3l0.2,0.1c0.2,0,0.5-0.1,0.9-0.2
		c0.4-0.1,0.6-0.2,0.8-0.2c0.3,0,0.6-0.1,0.8-0.2c0.2-0.1,0.3-0.3,0.3-0.6C242.6,21.6,242.6,21.2,242.5,20.9z"/>
	<path class="st0" d="M257.9,27.8c0.9-1,1.8-2,2.8-2.9c1-0.9,1.6-1.4,1.8-1.4c0.2,0,0.4,0.1,0.6,0.3s0.3,0.4,0.3,0.6
		c0,0.2-0.4,0.8-1.3,1.8c-0.9,1-1.8,1.9-2.8,2.8s-1.6,1.4-1.8,1.4c-0.2,0-0.4-0.1-0.6-0.2c-0.2-0.2-0.2-0.3-0.2-0.5
		C256.6,29.4,257,28.8,257.9,27.8z M258.2,20.3c0.4-0.3,0.9-0.6,1.5-0.8c0.5-0.2,1-0.3,1.3-0.3c1,0,1.5,0.5,1.5,1.4
		c0,0.2-0.1,0.4-0.2,0.5c-0.3,0.2-0.9,0.4-1.7,0.7c-0.8,0.3-1.4,0.5-1.9,0.7c-0.3-0.1-0.5-0.3-0.8-0.6c-0.3-0.2-0.4-0.4-0.4-0.6
		C257.5,21,257.7,20.6,258.2,20.3z M258.8,11.6c0.5-0.3,1-0.6,1.6-0.8c0.6-0.2,1.1-0.3,1.5-0.3c0.3,0,0.7,0.1,1,0.2
		c0.3,0.2,0.5,0.4,0.5,0.7c0,0.4-0.2,0.8-0.5,1c-0.4,0.2-0.9,0.4-1.5,0.6c-0.5,0.2-0.9,0.3-1,0.4c-0.1,0-0.2,0.1-0.5,0.3
		c-0.2,0.2-0.5,0.2-0.7,0.2c-0.2,0-0.5-0.2-0.7-0.5c-0.2-0.3-0.3-0.6-0.3-0.9C258.1,12.3,258.3,11.9,258.8,11.6z M272.2,21.4
		c1.1-0.6,2.2-1.1,3.3-1.5c1.1-0.4,2-0.6,2.6-0.6c1.4,0,2.3,0.4,2.7,1.1c0.4,0.7,0.6,1.8,0.6,3.2c0,0.9-0.1,1.8-0.2,2.4
		c0,0.1-0.1,0.4-0.3,0.9c-0.3,0.5-0.4,0.9-0.4,1.2c0,0.2,0.4,0.3,1.1,0.3c1.3,0,3,0.1,5.1,0.4c2.1,0.3,4.1,0.7,5.8,1.4
		c1.7,0.6,2.6,1.5,2.6,2.5c0,1.2-0.5,1.8-1.5,1.8c-0.5,0-1-0.1-1.5-0.3c-1.7-0.6-3.2-1-4.6-1.3s-2.8-0.5-4.1-0.5
		c-5.6,0-10.7,0.5-15.1,1.4c-0.4,0.1-0.9,0.2-1.6,0.4c-0.1,0-0.5,0.1-1.1,0.3s-1.3,0.3-1.8,0.3c-0.3,0-0.5-0.1-0.8-0.3
		c-0.2-0.2-0.3-0.5-0.3-0.8c0-0.2,0.1-0.5,0.4-0.8c0.5-0.6,0.9-1,1.2-1.1c0.4-0.2,0.9-0.3,1.5-0.5l1.3-0.3c0.9-0.3,1.9-0.6,3.2-1
		l1.9-0.6l0.1-0.3c0-0.1,0-0.2-0.1-0.2c0-0.1-0.1-0.1-0.1-0.2c-0.1-0.3-0.2-1.1-0.2-2.4v-0.9c0-0.5,0-1-0.1-1.2
		c-0.3,0-0.6,0.2-1,0.5c-0.5,0.4-0.9,0.7-1,0.9s-0.2,0.7-0.2,1.4c0,1.6-0.3,2.4-1,2.4c-0.5,0-0.9-0.3-1.1-0.9
		c-0.2-0.6-0.3-1.2-0.3-1.8c0-0.5,0.1-1.4,0.4-2.7c0.2-1.3,0.5-2,0.7-2.3c0.1-0.1,0.2-0.2,0.3-0.2c0.1,0,0.2-0.1,0.4-0.1
		c0.3,0,0.5,0.1,0.6,0.2c0.1,0.2,0.2,0.4,0.2,0.8s0.2,0.5,0.3,0.5C270.4,22.5,271.1,22,272.2,21.4z M274.1,4c0.1,0,0.4-0.1,0.8-0.3
		s0.9-0.3,1.4-0.3c0.3,0,0.7,0.1,1.2,0.3c0.7,0.3,1.2,0.7,1.4,1.2s0.3,1.2,0.3,2.1c0,0.7-0.1,1.4-0.3,2.1c-0.2,0.7-0.6,1.6-1,2.7
		c-0.1,0.3-0.2,0.6-0.4,0.9s-0.3,0.7-0.4,1.1c-0.1,0.4-0.7,0.8-1.7,1.3c-1,0.5-2.1,0.9-3.2,1.3c-1.1,0.4-1.9,0.6-2.4,0.6
		c-0.7,0-1.2-0.5-1.6-1.5c-0.4-1-0.6-1.9-0.6-2.7c0-0.6,0.1-1.3,0.2-2c0.1-0.7,0.2-1.1,0.2-1.3c0.3-1.2,0.4-2.3,0.4-3.2
		c0-0.8,0-1.4,0.1-1.8c0.1-0.3,0.2-0.6,0.6-0.8c0.3-0.2,0.9-0.3,1.6-0.3c0.3,0,0.5,0.1,0.7,0.4c0.2,0.3,0.4,0.4,0.6,0.4
		C272.6,4.5,273.3,4.3,274.1,4z M272.9,7.4c-0.1,0-0.2-0.1-0.4-0.1c-0.5,0-1,0.3-1.6,0.8c-0.6,0.5-0.8,1.1-0.8,1.5
		c0,0.2,0.1,0.4,0.3,0.5c0.2,0.2,0.4,0.2,0.6,0.2c0.3,0,0.8-0.4,1.3-1.1c0.6-0.8,0.8-1.3,0.8-1.7C273.1,7.5,273,7.5,272.9,7.4z
		 M275.7,10.2c-0.6-0.1-1-0.1-1.4-0.1c-0.1,0-0.2,0-0.4,0.1l-2.7,3.9v0.1l0.2,0.1c0.2,0,0.4,0,0.6-0.2c0.2-0.1,0.3-0.2,0.4-0.2
		c0.4-0.2,0.7-0.3,1-0.3s0.5-0.1,0.6-0.1c0.5-0.1,0.9-0.2,1.2-0.4c0.3-0.2,0.6-0.7,0.9-1.4c0.1-0.1,0.2-0.3,0.3-0.6s0.2-0.5,0.2-0.7
		C276.6,10.4,276.3,10.3,275.7,10.2z M274.7,24.3c0.3-0.9,0.5-1.6,0.5-2.2c-0.7,0-1.2,0.3-1.4,0.9c-0.2,0.5-0.3,1.3-0.3,2.2v0.3
		c0,0.3,0,0.4,0.1,0.5C274,25.8,274.3,25.2,274.7,24.3z M279.4,21.7c-0.2-0.5-0.5-0.8-0.9-0.8c-0.3,0-0.5,0.1-0.8,0.3
		s-0.3,0.4-0.3,0.6c0,1.5-0.5,3-1.5,4.6c-1,1.5-1.6,2.3-1.6,2.4c0,0.1,0.2,0.2,0.6,0.2c1.7,0,2.9-0.5,3.7-1.6c0.8-1,1.2-2.4,1.2-4.1
		C279.7,22.8,279.6,22.3,279.4,21.7z M276.3,6.2c-0.1,0-0.5,0.1-1,0.2c-0.5,0.1-0.8,0.3-0.8,0.3c0,0.2,0.3,0.7,0.9,1.4
		c0.6,0.7,1,1.1,1.2,1.1c0.2,0,0.3-0.4,0.3-1.2C277,6.8,276.8,6.2,276.3,6.2z"/>
	<path class="st0" d="M307.5,15.5c-0.5,0-1.3,0.4-2.7,1.1c-1.3,0.7-2.1,1.3-2.3,1.7c-0.3,0.7-0.6,1.7-0.9,2.8l-0.4,1.4
		c-1.1,3.7-1.9,6.4-2.6,8.2c-0.2,0.5-0.4,1.2-0.8,2.1c-0.4,0.9-0.6,1.4-0.7,1.4h-1.4c0-2.4,0.2-4.4,0.6-5.8c0.9-3.3,2.1-7.9,3.5-14
		l0.3-1c0.1-0.5,0.3-1.1,0.4-1.7c0.1-0.6,0.2-1.1,0.2-1.6l-1.1,0c-0.5,0-0.8-0.1-1.1-0.2c-0.3-0.1-0.4-0.4-0.4-0.8
		c0-0.3,0.2-0.6,0.5-0.9c0.4-0.3,0.7-0.5,1-0.5c0.3,0,1.4-0.4,3.4-1.1c2-0.7,3-1.2,3.2-1.4c0.1-0.1,0.2-0.2,0.2-0.3
		c0.1-0.1,0.1-0.2,0.1-0.4c0-0.3-0.1-0.8-0.3-1.4c-0.3-0.6-0.4-1-0.4-1.4c0-0.3,0.1-0.6,0.2-0.9c0.2-0.3,0.4-0.5,0.6-0.5
		c0.4,0,0.8,0.2,1,0.6c0.2,0.4,0.4,0.9,0.6,1.6c0.2,0.7,0.4,1.2,0.6,1.5c0.6-0.1,1.6-0.3,2.9-0.5c1.3-0.3,2.1-0.4,2.3-0.5
		c0.1,0,0.2-0.1,0.3-0.1c0.1-0.1,0.2-0.1,0.4-0.1c0.2,0,0.4,0.1,0.6,0.3c0.2,0.2,0.3,0.4,0.3,0.6c0,0.6-0.9,1.4-2.8,2.2
		s-4.2,1.8-7.1,2.9c-1.7,0.6-2.7,1-2.8,1.1c0,1,0,2.5,0,4.5c0,0.3,0,0.5,0.1,0.6c0.5-0.1,1.2-0.6,2.2-1.4c0.4-0.3,0.8-0.6,1.2-0.9
		c0.4-0.3,0.8-0.5,1.1-0.5c0-0.7,0.3-1.4,0.8-2.1c0.5-0.7,1.1-1.1,1.8-1.1c0.3,0,0.5,0.1,0.6,0.2c0.1,0.2,0.2,0.4,0.2,0.6l0,0.6
		c0,0.2,0,0.3,0.1,0.3c0.2,0,0.7-0.2,1.4-0.6c0.7-0.4,1.2-0.7,1.5-0.9c0,0-0.1-0.2-0.3-0.4c-0.2-0.2-0.3-0.4-0.3-0.6
		c0-0.3,0.1-0.6,0.3-0.8c0.2-0.2,0.4-0.4,0.7-0.5c0.4,0.1,0.7,0.2,0.9,0.3s0.4,0.4,0.6,0.7c0.3,0.4,0.5,0.6,0.8,0.6
		c0.3,0,0.6,0.1,1,0.4c0.4,0.2,0.6,0.5,0.6,0.8c0,0.2-0.1,0.4-0.3,0.6c-0.2,0.2-0.4,0.4-0.6,0.7c-0.4,0.4-0.7,0.7-0.9,1
		c-0.2,0.3-0.3,0.6-0.3,0.9c0,0.3,0.1,0.5,0.2,0.7c0.2,0.2,0.4,0.3,0.7,0.5c0.3,0.1,0.5,0.2,0.7,0.4c0.2,0.1,0.2,0.3,0.2,0.6
		c0,0.3-0.3,0.7-0.8,1.1c-0.5,0.4-0.9,0.7-0.9,0.7c-0.2,0.1-0.7,0.6-1.6,1.5c-0.9,0.9-1.7,1.6-2.3,2c-0.6,0.5-1.2,0.7-1.8,0.7
		c-1.7,0-2.6-1.1-2.6-3.4v-0.8C307.7,16.2,307.6,15.9,307.5,15.5L307.5,15.5z M330,35.1c1,0.4,1.8,0.9,2.4,1.3
		c0.6,0.4,0.9,1,0.9,1.8c0,0.5-0.1,0.8-0.3,1.1s-0.6,0.5-1,0.5c-0.8,0-2-0.4-3.7-1.2c-1.7-0.8-3.9-2-6.7-3.5c-2.3-1.3-4-2.2-5.3-2.8
		c-1.2-0.6-2.1-0.9-2.6-0.9c-0.2,0-0.3,0-0.4,0.1l0.1,0c-0.2,0.3-1.1,1.2-2.6,2.7s-2.4,2.3-2.6,2.4l0.1-0.1
		c-0.1,0.1-0.2,0.2-0.3,0.2c-0.2,0-0.4-0.1-0.6-0.3c-0.2-0.2-0.3-0.4-0.4-0.6c0.1-0.1,0.5-0.6,1.2-1.5c0.8-0.9,1.4-1.7,1.9-2.3
		c0.5-0.6,0.7-1.1,0.7-1.5c0-0.2-0.5-0.4-1.4-0.7c-0.9-0.3-1.6-0.4-1.9-0.4c-0.1,0-0.2,0-0.4,0.1c-0.2,0.1-0.4,0.1-0.5,0.1
		c-0.3,0-0.6-0.1-0.9-0.3c-0.2-0.2-0.3-0.5-0.3-0.9c0-0.9,0.4-1.5,1.1-1.7c0.7-0.2,1.6-0.4,2.7-0.4c0.2-0.1,0.7-0.6,1.7-1.5
		c0.9-0.8,1.8-1.6,2.7-2.2c0.9-0.6,1.5-1,1.9-1c0.6,0,1.1,0.2,1.4,0.6s0.5,1,0.5,1.6c0,0.5-0.1,1-0.3,1.4s-0.4,1-0.8,1.7
		c-0.4,0.7-0.7,1.3-0.8,1.7c0.1,0.2,4.1,2,11.9,5.4l1.9,0.9L330,35.1z M310.9,14.4c0,0.3-0.1,0.5-0.1,0.8s0,0.4,0,0.5V16
		c0,0.3,0,0.5,0.1,0.6c0.5,0,1.1-0.3,1.7-1c0.6-0.7,0.9-1.3,0.9-1.8c0-0.5-0.1-0.8-0.3-0.8c-0.2,0.1-0.6,0.2-1,0.4
		c-0.4,0.2-0.8,0.4-1,0.5C311.1,13.9,310.9,14.1,310.9,14.4z M312.9,26.7c0.2-0.2,0.3-0.4,0.4-0.6c0-0.1-0.1-0.2-0.2-0.2
		c-0.3,0-0.5,0.1-0.6,0.3c-0.2,0.2-0.2,0.5-0.2,0.7l0.2,0.1C312.5,27,312.7,26.9,312.9,26.7z"/>
	<path class="st0" d="M335.5,24.5c0.9-1.3,1.4-2,1.6-2c0.2,0,0.4,0.1,0.5,0.2c0.2,0.1,0.2,0.3,0.2,0.5c0,0.1,0,0.4-0.1,0.7
		s-0.1,0.5-0.1,0.7c0.1,0,0.3,0,0.6,0c1,0,1.8,0.3,2.5,0.8c0.6,0.5,1,1.2,1,2.2c0,0.5-0.2,1.1-0.5,1.8c-0.3,0.7-0.7,1.2-1.1,1.4
		c-0.2,0.1-0.6,0.3-1.3,0.7s-1.3,0.6-1.8,0.9c-0.6,0.2-1.1,0.4-1.4,0.4c-0.4,0-0.7-0.1-0.9-0.3c-0.2-0.2-0.3-0.6-0.3-1
		c0-0.4,0.1-0.9,0.3-1.7c0-0.1,0.1-0.4,0.1-0.7c0.1-0.3,0.1-0.7,0.1-0.9c0-0.2-0.1-0.4-0.3-0.6c-0.2-0.2-0.3-0.4-0.3-0.6
		C334.2,26.6,334.6,25.8,335.5,24.5z M334.6,15c0.2-0.2,0.4-0.3,0.6-0.3c0.7,0,1.7-0.2,2.9-0.7c0.7-0.3,1.2-0.4,1.7-0.6
		c0.4-0.1,0.9-0.2,1.3-0.2c0.7,0,1.1,0.4,1.1,1.1c0,0.3-0.1,0.6-0.3,0.8c-0.3,0.3-1.3,0.6-2.8,0.9c-1.5,0.2-2.8,0.3-3.7,0.3
		c-0.4,0-0.7,0-0.8-0.2c-0.2-0.1-0.3-0.3-0.3-0.7C334.3,15.4,334.4,15.2,334.6,15z M335,18.5c0.3-0.3,0.6-0.4,1-0.4
		c0.6,0,1.6,0.1,3.1,0.2c1.4,0.1,2.2,0.2,2.4,0.4c0.3,0.2,0.4,0.5,0.4,0.9c0,1-1.3,1.5-3.8,1.5c-0.1,0-0.5,0-1.2,0
		c-0.7,0-1.2-0.1-1.6-0.3c-0.4-0.2-0.6-0.6-0.6-1.1C334.5,19.1,334.7,18.8,335,18.5z M338.5,3.7c0.1-0.3,0.3-0.6,0.6-0.7
		c0.3-0.2,0.6-0.3,0.9-0.3c0.4,0,0.8,0.1,1.1,0.4c0.3,0.3,0.5,0.6,0.5,1.1c0,0.3,0,0.6,0,0.9c0,0.3-0.1,0.5-0.1,0.6
		c-0.1,0.7-0.2,1.2-0.2,1.5v1.4c0.1,0.1,0.3,0.2,0.7,0.5s0.6,0.5,0.6,0.8c0,1.1-0.7,1.6-2,1.6c-0.5,0-1.2,0-2.3-0.1l-2.3,0
		c-0.4,0-0.7-0.1-0.9-0.2c-0.2-0.1-0.3-0.4-0.3-0.8c0-0.5,0.2-0.8,0.5-1c0.3-0.1,0.8-0.2,1.5-0.3c0.4,0,0.8-0.1,1-0.1
		c0.2-0.1,0.4-0.2,0.5-0.3C338.3,5.9,338.4,4.2,338.5,3.7z M338.4,26.9c-0.2-0.1-0.5-0.2-0.8-0.2c-0.3,0-0.5,0.2-0.6,0.5
		c-0.1,0.3-0.2,0.6-0.2,1c0,0.3,0,0.6-0.1,0.7l0,0.2l0.2,0.1c0.2,0,0.6-0.2,1-0.6c0.4-0.4,0.7-0.7,0.7-0.9
		C338.7,27.3,338.6,27,338.4,26.9z M345.3,15c0.7-0.2,1.6-0.3,2.8-0.4c0.8-0.1,1.5-0.1,1.9-0.2c0.4-0.1,0.8-0.2,1-0.4
		c0.1-0.1,0.2-1,0.2-2.8c0-1.6,0.1-2.9,0.2-4s0.2-1.6,0.5-1.8c0.2-0.2,0.6-0.3,1-0.3c0.5,0,0.9,0.1,1.1,0.4c0.2,0.3,0.3,0.7,0.3,1.3
		c0,0.5,0,0.9,0,1.3l0,3.7c0,1,0,1.6,0.1,1.6c0.1,0.1,0.7,0.2,1.6,0.2c0.4,0,0.9,0,1.6-0.1c0.7-0.1,1.2-0.1,1.6-0.1
		c0.3,0,0.5,0.1,0.7,0.3c0.2,0.2,0.3,0.5,0.3,0.8c0,0.3-0.1,0.5-0.4,0.9c-0.3,0.3-0.5,0.5-0.8,0.5c-0.4,0-1.9,0.4-4.5,1.2
		c-0.2,0.3-0.4,2.1-0.7,5.5c-0.3,3.3-0.5,5.3-0.5,6l-0.3,3.1c-0.4,3.2-0.6,5-0.8,5.2c-0.3,0.5-0.6,0.7-0.9,0.7
		c-0.7,0-1.1-1.3-1.1-3.9c0-2.4,0.1-5.3,0.3-8.7l0.1-1.8c0.1-0.8,0.1-1.4,0.2-1.8c0.1-1.2,0.2-2.1,0.2-2.7c0-0.4,0-0.7-0.1-0.9
		c-0.1-0.2-0.3-0.4-0.5-0.4c-0.5,0-1.1,0.1-1.7,0.2c-0.1,0-0.4,0.1-0.7,0.1c-0.3,0.1-0.7,0.1-1,0.1c-0.6,0-1.2-0.1-1.6-0.4
		c-0.5-0.3-0.7-0.7-0.7-1.3C344.4,15.6,344.7,15.2,345.3,15z"/>
</g>
</svg>
