<?xml version="1.0" encoding="utf-8"?>
<!-- Generator: Adobe Illustrator 25.2.1, SVG Export Plug-In . SVG Version: 6.00 Build 0)  -->
<svg version="1.1" id="圖層_1" xmlns="http://www.w3.org/2000/svg" xmlns:xlink="http://www.w3.org/1999/xlink" x="0px" y="0px"
	 viewBox="0 0 267 115.9" style="enable-background:new 0 0 267 115.9;" xml:space="preserve">
<style type="text/css">
	.st0{enable-background:new    ;}
</style>
<g id="Group_209" transform="translate(-926 -296)">
	<g class="st0">
		<path d="M967.9,303.9c0.4-0.4,0.9-0.7,1.5-0.7c0.8,0,1.4,0.2,1.7,0.6c0.3,0.4,0.6,1,0.9,1.9c0.2,0.7,0.4,1.3,0.7,1.8
			c0.4,0,0.8-0.1,1.2-0.2c0.5-0.1,0.9-0.1,1.2-0.1c0.9,0,1.3,0.4,1.3,1.1c0,0.4-0.1,0.7-0.4,1.1c-0.3,0.4-0.4,0.7-0.4,0.8
			c0,0.1,0,0.4,0.1,0.6c0.1,0.3,0.1,0.5,0.1,0.7c0,0.4-0.1,1.1-0.4,1.9c-0.3,0.9-0.4,1.5-0.4,1.8c0,0.2,0.2,0.3,0.6,0.4
			c0.4,0.1,0.7,0.2,0.9,0.4c0.2,0.1,0.3,0.4,0.3,0.8c0,0.3-0.2,0.5-0.5,0.7c-0.3,0.2-0.8,0.3-1.3,0.5c-0.7,0.2-1.1,0.4-1.1,0.4
			c-0.2,0.4-0.3,0.9-0.3,1.4c0,0.5-0.1,0.8-0.1,0.9c0,0.6,0,1.1-0.1,1.5c0.5,0,1-0.1,1.5-0.2c0.6-0.1,1.1-0.1,1.5-0.1
			c0.3,0,0.6,0.1,0.9,0.3c0.3,0.2,0.4,0.5,0.4,0.8c0,0.6-0.2,1-0.6,1.3c-0.4,0.3-1,0.6-1.7,0.9c-1,0.4-1.6,0.7-1.9,1.1
			c-0.3,0.3-0.5,0.7-0.5,1.2c-0.1,0.5-0.1,1-0.1,1.4s0,0.7,0,0.8c0,0.9,0.2,1.3,0.6,1.3c0.2,0,0.6-0.1,1-0.2s0.8-0.2,1-0.2
			c1,0,1.6,0.3,1.6,1c0,0.5-0.2,0.9-0.7,1c-0.5,0.2-1.1,0.3-1.9,0.3c-0.9,0.1-1.5,0.2-1.7,0.4c-0.1,0.1-0.3,0.7-0.4,1.7
			c-0.1,1-0.2,1.7-0.3,2c-0.3,2.4-0.6,4.2-0.9,5.5c-0.3,1.3-0.7,2-1.2,2c-1,0-1.5-1.3-1.5-3.8l0.1-3.3c0-0.7,0.1-1.8,0.1-3.3
			c-0.5,0-1,0.1-1.7,0.4c-0.1,0-0.3,0.1-0.7,0.2c-0.3,0.1-0.7,0.2-1,0.2c-0.2,0-0.4-0.1-0.6-0.2c-0.2-0.1-0.3-0.3-0.3-0.5
			c0-0.5,0.9-1.8,2.8-3.9c0.2-0.2,0.5-0.6,1-1.2c0.5-0.6,0.8-1,1-1.3c0.2-0.3,0.3-0.6,0.3-0.7l-0.3-0.2c-0.7,0-1.5,0.2-2.6,0.5
			c-0.1,0-0.5,0.1-1,0.3c-0.6,0.1-1.1,0.2-1.6,0.2c-0.4,0-0.8-0.1-1.2-0.4c-0.4-0.3-0.5-0.6-0.5-1c0-0.2,0.4-0.5,1.3-0.9
			c0.9-0.4,2.1-0.8,3.6-1.4c1.7-0.6,2.6-1,2.8-1.1c0.5-0.3,0.9-0.9,1.2-1.9c0.3-1,0.5-1.8,0.5-2.6l-0.3-0.1c-0.7,0-1.6,0.2-2.6,0.7
			c-1.1,0.4-1.9,0.6-2.5,0.6c-0.3,0-0.5-0.1-0.9-0.3c-0.3-0.2-0.5-0.4-0.5-0.6c0-0.3,0.2-0.7,0.5-1c0.3-0.4,0.5-0.7,0.5-1
			c0-0.2,0-0.5,0-0.9c0-0.4,0-0.8,0.1-1.2c0.1-0.4,0.2-0.7,0.3-1.1c0-0.1,0.1-0.3,0.3-0.6c0.1-0.3,0.2-0.6,0.2-0.8v-0.1
			c-0.2-0.1-0.4-0.1-0.5-0.1c-0.3,0-0.5,0-0.8,0.1c-0.3,0-0.5,0.1-0.8,0.1c-0.9,0-1.3-0.4-1.3-1.2c0-0.6,0.4-1,1.1-1.4
			c0.7-0.3,1.8-0.7,3.1-1c0.2,0,0.6-0.1,1.1-0.3c0.6-0.2,0.9-0.4,1-0.5l-0.1-0.4c-0.1-0.2-0.4-0.3-0.6-0.3c-0.3-0.1-0.5-0.1-0.5-0.1
			c-0.5-0.1-0.9-0.3-1.2-0.5c-0.3-0.2-0.4-0.7-0.4-1.3C967.3,304.9,967.5,304.4,967.9,303.9z M974,310.6c-0.1,0-0.6,0.2-1.4,0.5
			c-0.8,0.3-1.4,0.5-1.7,0.7c-0.2,0.3-0.3,0.5-0.3,0.8c0,0.3-0.2,0.7-0.5,1.5c-0.3,0.5-0.5,0.9-0.6,1.2c-0.1,0.3-0.2,0.7-0.2,1
			l0.1,0.4c0.1,0,0.2,0.1,0.4,0.1c0.6,0,1.3-0.1,2-0.4c0.6-0.2,1.1-1,1.7-2.1c0.6-1.2,0.8-2.1,0.8-2.8
			C974.3,310.9,974.2,310.6,974,310.6z M982.4,329.2c0.3-0.6,0.5-1.1,0.5-1.3c0.2-1.1,0.4-2.7,0.5-4.8c0.1-2.3,0.3-4,0.6-5.1
			c0.1-0.7,0.3-1.9,0.5-3.5c0.2-2.1,0.4-3.2,0.5-3.5c0.2-0.4,0.5-0.7,1-1c0.4-0.3,0.9-0.5,1.3-0.5c0.4,0,0.7,0.1,0.9,0.3
			c0.2,0.2,0.4,0.4,0.5,0.8c0.2,0.3,0.3,0.5,0.5,0.7c0.1,0.1,0.4,0.2,0.7,0.2c1.7,0,2.8,0.7,3.3,2c0.5,1.3,0.7,3.1,0.7,5.2
			c0,2.3-0.3,4.4-0.8,6.3c-0.6,1.9-1.4,4.1-2.7,6.6c0.2,0.3,0.6,0.8,1.2,1.8c1.1,1.6,2.2,2.9,3,3.7c0.9,0.8,2,1.3,3.2,1.3
			c1.1,0,2-0.2,2.5-0.6c0.9-0.7,1.8-2.4,2.5-5.2s1.4-5.8,1.8-9c0.5-3.2,0.7-5.5,0.7-7.1c0-0.2,0-0.4-0.1-0.8c0-0.3-0.1-0.7-0.1-1
			c0-1.1,0.3-1.6,1-1.6c0.4,0,0.7,0.1,0.8,0.4c0.1,0.3,0.2,0.6,0.2,1.1c0.1,0.5,0.1,0.9,0.1,1.2c0.5,3.9,0.7,7.1,0.7,9.5
			c0,2.5-0.3,5-0.8,7.7c-0.5,2.6-1.3,4.8-2.4,6.4c-0.8,1.1-1.7,1.9-2.7,2.3c-1.1,0.4-2.3,0.7-3.8,0.7c-4.1,0-7.1-2.1-9.2-6.3
			c-0.3-0.7-0.6-1-0.9-1c-0.1,0-0.3,0.2-0.7,0.7c-0.4,0.5-0.8,1-1.2,1.6c-1.2,1.6-2.2,3-3.1,4c-0.9,1-1.6,1.5-2.3,1.5
			c-0.2,0-0.5-0.2-0.8-0.6c-0.3-0.4-0.5-0.7-0.5-0.9c0-1.1,0.4-2.2,1.3-3.4c0.9-1.2,2.1-2.7,3.8-4.5c1.4-1.5,2.3-2.6,2.8-3.3
			l-0.3-0.2c-0.6,0-1.4,0.2-2.4,0.5c-1,0.4-1.8,0.6-2.4,0.6c-0.5,0-0.8-0.1-0.8-0.4C982,330.3,982.1,329.9,982.4,329.2z
			 M990.6,323.8l-0.4-0.2c-0.4,0-0.8,0.1-1.3,0.2c-0.4,0.1-0.7,0.2-0.9,0.2c-1,0.3-1.7,0.6-2,1c-0.3,0.4-0.5,1.1-0.5,2.2l0.1,0.3
			c0.1,0,0.4-0.1,0.8-0.2c0.3-0.2,0.9-0.3,1.7-0.5c0.9-0.2,1.6-0.4,2-0.8s0.6-0.9,0.6-1.9L990.6,323.8z M989.9,318.1
			c-0.3,0-0.5,0.1-0.7,0.2c-0.3,0.1-0.7,0.3-1.2,0.3c-0.4,0.1-0.7,0.3-0.8,0.5c-0.1,0.2-0.2,0.7-0.2,1.5c0,0.8,0.1,1.1,0.4,1.1h0.1
			c0.2-0.1,0.6-0.2,1.4-0.2c0.7-0.1,1.3-0.1,1.7-0.1c0.1-0.8,0.1-1.4,0.1-1.7C990.8,318.6,990.5,318.1,989.9,318.1z M989.3,313.7
			c-1,0-1.5,0.7-1.5,2.1c0.1,0.1,0.4,0.2,1,0.1c0.5,0,0.8,0,0.9,0c0.7,0,1-0.2,1-0.6C990.7,314.2,990.3,313.7,989.3,313.7z"/>
		<path d="M1030.2,314.3c-2.7,0.3-5.3,0.7-7.7,1.2c-2.4,0.5-3.9,1-4.5,1.6c-0.2,0.3-0.4,0.7-0.6,1.2c-0.2,0.6-0.4,1.1-0.6,1.7
			c-0.4,1.4-0.9,2.5-1.3,3.2c-0.4,0.8-1,1.2-1.6,1.2c-0.5,0-0.9-0.2-1.2-0.5c-0.4-0.4-0.5-0.8-0.5-1.2c0-0.2,0.2-0.8,0.7-1.5
			c0.5-0.8,0.8-1.2,0.9-1.4c1.4-2.2,2.1-3.6,2.3-4.4c0.8-1.3,1.5-1.9,2.3-1.9c0.2,0,0.4,0.2,0.5,0.5c0.1,0.3,0.2,0.5,0.4,0.5
			c0.1,0,0.4-0.1,0.9-0.3c2.3-1,5.2-1.9,8.5-2.9c3.4-0.9,5.9-1.4,7.7-1.4c1.3,0,2.5,0.3,3.4,0.9c0.9,0.6,1.4,1.6,1.4,2.9
			c0,1.5-0.5,2.3-1.6,2.3c-0.3,0-0.6-0.1-0.7-0.2c-0.2-0.1-0.3-0.4-0.5-0.7c-0.2-0.4-0.4-0.6-0.7-0.8c-0.2-0.2-0.6-0.3-1.1-0.3
			C1035,313.9,1033,314,1030.2,314.3z M1024.6,311.6c-0.3,0.4-0.7,0.6-1,0.6c-1.1,0-2-0.4-2.7-1.3c-0.7-0.8-1.3-2-2-3.5
			c0-0.1-0.2-0.4-0.4-0.9c-0.2-0.5-0.4-0.8-0.6-0.9c-0.3,0.1-0.6,0.1-1,0.1c-0.7,0-1.3-0.1-1.8-0.3c-0.5-0.2-0.8-0.5-0.8-0.9
			c0-0.9,1.5-1.9,4.4-2.9c0.4-0.1,1.4-0.5,3.2-1.3c2.2-0.9,3.9-1.6,5.1-2c1.2-0.4,2-0.6,2.6-0.6c0.6,0,1.2,0.2,1.8,0.5
			c0.6,0.3,0.9,0.8,0.9,1.3c0,0.7-0.2,1.2-0.6,1.5c-0.4,0.3-1.1,0.5-1.9,0.7c-0.6,0.1-1.1,0.3-1.4,0.4c-0.3,0.1-0.5,0.3-0.6,0.7
			c0,0.1,0.2,0.3,0.4,0.4c0.6,0.4,1,1.1,1.4,2c0.3,1,0.5,1.9,0.5,2.7c0,0.5-0.2,0.9-0.6,1.2c-0.4,0.3-0.9,0.4-1.4,0.4
			c-0.6,0-1.2-0.4-1.8-1.1c-0.6-0.7-0.9-1.4-0.9-2c0-0.4,0-0.7,0.1-1c0.1-0.3,0.1-0.7,0.1-1v-0.4c-0.3,0-1,0.2-1.9,0.5
			c-0.9,0.3-1.4,0.6-1.4,0.8c0,0,0.2,0.4,0.7,1.1c1.5,2,2.3,3.4,2.3,4.2C1025.1,310.8,1024.9,311.2,1024.6,311.6z M1042.7,350.9
			c-1.8-0.5-3.3-1.2-4.7-2c-1.3-0.9-3.1-2.2-5.4-4l-1.9-1.6c-0.2-0.1-0.5-0.4-0.9-0.6c-0.4-0.3-0.7-0.6-0.9-0.8
			c-0.5,0-1.9,0.9-4,2.6c-1.5,1.1-2.7,2-3.7,2.6c-0.9,0.6-1.7,0.9-2.2,0.9c-0.3,0-0.5-0.1-0.8-0.2c-0.2-0.2-0.3-0.4-0.3-0.7
			c0-0.7,2-2.6,6.1-5.6c0.5-0.3,1-0.7,1.5-1.1l1.4-1.4c-0.1-0.1-0.4-0.6-0.8-1.3c-0.4-0.7-0.8-1.1-1-1.1c-0.1,0-0.3,0.2-0.7,0.7
			c-0.4,0.5-0.6,0.8-0.8,0.9c-1.2,1.4-2.2,2.5-3,3.3c-0.8,0.8-1.4,1.2-1.9,1.2c-0.4,0-0.7-0.1-1-0.2c-0.3-0.2-0.4-0.4-0.4-0.7
			c0-0.6,0.5-1.6,1.6-3c1.1-1.4,2.6-3.2,4.5-5.4c0.2-0.3,0.9-1,1.8-2.1c1-1.1,1.5-1.8,1.6-2.2c-1-0.4-1.8-1-2.4-1.9
			c-0.5-0.9-0.8-1.9-0.8-3.1c0-0.4,0.1-0.9,0.3-1.6c0.1-0.6,0.2-1.1,0.2-1.5l-0.1-0.1c-0.3,0-0.6,0.3-1,0.9
			c-0.3,0.6-0.8,1.6-1.3,2.9c-0.7,1.7-1.3,3-1.9,4c-0.6,1-1.2,1.5-1.8,1.5c-1.1,0-1.7-0.7-1.7-2.1c0-0.9,0.4-2,1.2-3.4
			c0.8-1.4,1.8-2.6,2.9-3.6c1.1-1,2.1-1.5,3-1.5c0.2,0,0.4,0.1,0.6,0.3c0.2,0.2,0.3,0.3,0.4,0.4c0.2,0,0.4-0.3,0.5-0.7
			c0.2-0.4,0.4-0.7,0.5-1c0.2-0.2,0.4-0.4,0.8-0.4c0.4,0,0.7,0.2,0.8,0.6c0.1,0.4,0.2,0.9,0.2,1.6c0,0.1,0,0.6-0.1,1.3
			c0,0.8,0,1.4,0.2,2c0.2,0.6,0.5,0.9,0.9,0.9c0.4,0,0.9-0.2,1.6-0.5c0.7-0.4,1-0.7,1.1-1c0,0-0.3-0.3-0.9-1c-0.6-0.6-1-1.1-1.3-1.6
			c-0.3-0.4-0.4-1-0.4-1.6c0-0.4,0.1-0.9,0.4-1.3c0.3-0.5,0.6-0.7,1-0.7c0.3,0,0.6,0.2,1,0.5s0.5,0.5,0.6,0.6c0.3,0.3,1.1,1,2.5,2.1
			c0.8,0.6,1.3,1,1.8,1.4c0,0.8-0.1,1.3-0.2,1.6c-0.1,0.3-0.5,0.6-1.2,0.9c-0.3,0.1-0.6,0.3-0.9,0.6c-0.3,0.3-0.5,0.6-0.7,0.9
			c-0.2,0.3-0.4,0.5-0.4,0.6c-0.4,0.7-0.9,1.2-1.3,1.7c-0.4,0.4-0.9,0.8-1.5,0.9c-0.3,0.1-0.5,0.2-0.6,0.3l-0.1,0.3
			c0,0.3,0.1,0.6,0.2,0.9c0.1,0.3,0.3,0.5,0.6,0.5c0.2,0,0.4-0.1,0.8-0.2c0.3-0.1,0.6-0.2,0.8-0.2c0.9,0,1.6,0.2,2.3,0.7
			c0.6,0.5,1,1.1,1,1.9c0,0.8-0.6,2.1-1.7,3.8c-0.5,0.8-0.9,1.5-1.1,1.9l1.5,1.5c1.3,1.3,2.1,2.1,2.4,2.4c2.1,1.8,4.5,3.2,7.1,4.3
			c2.6,1.1,5.4,1.7,8.2,1.9c0.5,0.6,0.8,1.2,0.8,1.7c0,0.5-0.3,0.9-0.8,1c-0.5,0.2-1.1,0.2-1.8,0.2
			C1046.8,351.7,1044.5,351.4,1042.7,350.9z M1030.2,334.7l-0.2-0.1c-0.3,0-0.6,0.1-1,0.2c-0.4,0.1-0.6,0.3-0.6,0.6
			c0,0.2,0.1,0.3,0.3,0.5c0.2,0.1,0.4,0.2,0.6,0.2C1029.6,335.7,1029.9,335.3,1030.2,334.7z M1032.7,308.1c-0.3-0.4-0.5-0.8-0.5-1.2
			c0-0.4,0.2-0.9,0.5-1.7c0.3-0.8,0.7-1.5,1.1-2.1c0.4-0.6,0.8-0.9,1.2-0.9c0.7,0,1.2,0.2,1.5,0.7c0.3,0.4,0.5,1,0.5,1.7
			c0,0.5-0.2,1-0.5,1.7c-0.3,0.7-0.8,1.3-1.3,1.7c-0.5,0.5-1,0.7-1.5,0.7C1033.4,308.7,1033.1,308.5,1032.7,308.1z M1040.6,324.3
			c-0.9-0.4-1.7-0.8-2.4-1.4s-1-1-1-1.5c0-0.6,0.4-0.9,1.3-0.9c1.1,0,2.2,0.2,3.5,0.7c1.3,0.5,1.9,1.2,1.9,2c0,0.4-0.1,0.7-0.4,1
			c-0.3,0.3-0.6,0.5-1,0.5C1042.1,324.9,1041.4,324.7,1040.6,324.3z"/>
		<path d="M1056.1,315.3c-0.2-0.4-0.3-0.8-0.3-1.2c0-0.9,0.5-2,1.5-3.2c1-1.2,2.2-2.3,3.6-3.1c1.4-0.9,2.5-1.3,3.4-1.3
			c0.5,0,0.9,0.1,1.2,0.3c0.2,0.2,0.3,0.6,0.3,1.2c0,0.3-0.1,0.6-0.3,0.8c-0.2,0.2-0.4,0.3-0.7,0.5c-0.3,0.1-0.4,0.2-0.5,0.2
			c-1.3,0.7-2.6,1.6-4.1,2.7c-1.4,1.1-2.2,2.1-2.4,3c0,0,0,0.1-0.1,0.3c0,0.1-0.1,0.3-0.2,0.4c-0.1,0-0.3,0.1-0.5,0.1
			C1056.6,315.9,1056.3,315.7,1056.1,315.3z M1057.5,335c-0.2-0.6-0.3-1.4-0.3-2.4c0-0.5,0.1-1.3,0.2-2.3c0.1-1,0.2-1.8,0.2-2.3
			c0-0.1,0-0.3-0.1-0.4c-0.1-0.1-0.1-0.3-0.1-0.4c0-0.9,0.3-2.4,0.9-4.6c0.6-2.2,1.1-3.7,1.5-4.7s1.1-1.8,2-2.4
			c0.9-0.6,1.9-0.9,2.9-0.9c1.9,0,3.2,0.9,3.8,2.8c0.6,1.8,0.9,4,0.9,6.5c0,1.9-0.1,3.6-0.2,5c-0.1,1.5-0.4,2.7-0.9,3.7
			c-0.3,0.5-0.7,1-1.3,1.5c-0.6,0.5-1.2,0.7-1.7,0.7c-0.3,0-0.4-0.1-0.6-0.2c-0.1-0.1-0.3-0.3-0.5-0.6c-0.2-0.2-0.4-0.4-0.5-0.4
			c-0.1,0-0.5,0.1-1.1,0.4c-0.6,0.3-1.1,0.4-1.5,0.4c-0.3,0-0.7,0.2-1,0.7c0,0.1-0.2,0.2-0.3,0.5c-0.2,0.2-0.4,0.3-0.7,0.3
			C1058.2,336,1057.7,335.7,1057.5,335z M1065.3,328.9c1-0.7,1.5-1.7,1.5-3.1c0-0.2,0-0.4-0.1-0.5c-0.1-0.1-0.2-0.1-0.4-0.1
			c-0.6,0-1.6,0.2-3,0.6s-2.2,0.8-2.3,1.2c-0.2,0.4-0.3,1.2-0.3,2.4c0,0.9,0.2,1.4,0.6,1.4C1063,330.3,1064.3,329.6,1065.3,328.9z
			 M1061.4,322.5c0.2,0,0.6-0.1,1.1-0.4c0.1,0,0.3-0.1,0.5-0.2s0.4-0.2,0.6-0.2c0.2,0,0.5-0.1,0.9-0.1c0.4,0,0.8-0.1,1.2-0.2
			s0.5-0.3,0.5-0.6c0-0.6-0.2-1.3-0.6-2.1c-0.4-0.8-0.9-1.2-1.5-1.2c-0.9,0-1.6,0.5-2.2,1.6c-0.6,1-0.8,2-0.8,3
			C1061.2,322.4,1061.2,322.5,1061.4,322.5z M1085.1,309.8c1.9,0.5,3.2,1.8,3.9,3.8c0.7,2,1,4.5,1,7.4l-0.1,3.9
			c0,4.4-0.3,8.5-1,12.5s-2.1,6-4.4,6c-0.8,0-1.2-0.4-1.2-1.2c0-0.5,0.1-1,0.4-1.5c0.3-0.5,0.5-0.9,0.6-1.1c0.6-1.4,1-3,1.3-4.9
			c0.3-1.9,0.5-3.8,0.5-5.5v-1.3c-1.9-1.4-3.5-2.4-4.7-3c-0.2-0.1-0.9-0.4-2.1-1c-1.2-0.6-1.9-1-2-1.4c-0.2-0.4-0.3-0.8-0.3-1.4
			c0-0.1,0-0.3,0.1-0.4c0.1-0.1,0.1-0.3,0.1-0.4c0-0.1-0.2-0.3-0.5-0.5s-0.6-0.5-0.8-0.7c-0.2-0.3-0.3-0.7-0.3-1.2
			c0-1,0.4-2.6,1.2-4.8c0.8-2.1,1.8-4.1,3-5.7c1.1-1.7,2.3-2.5,3.3-2.5c0.2,0,0.3,0.1,0.3,0.3c-0.8,1.2-1.5,2.3-2,3.2
			c-0.5,1-0.7,2-0.7,3c0.3-0.2,0.6-0.4,1-0.7c0.4-0.3,0.8-0.5,1.2-0.7c0.4-0.1,0.8-0.2,1.3-0.2
			C1084.5,309.7,1084.8,309.7,1085.1,309.8z M1085.8,321.5c0.1-0.3,0.1-0.6,0.1-1c0-1.7-0.2-3.3-0.6-5c-0.4-1.6-1.2-2.4-2.4-2.4
			c-0.5,0-0.9,0.2-1.4,0.6c-0.2,0.2-0.8,1.1-1.6,2.7c-0.9,1.6-1.3,2.6-1.3,2.8c0,0.3,1,0.8,3,1.5c2,0.8,3.2,1.2,3.7,1.2
			C1085.5,321.9,1085.7,321.8,1085.8,321.5z"/>
		<path d="M1098.6,314.1c-0.2-0.4-0.3-0.8-0.3-1.3c0-1,0.8-2.1,2.3-3.3s3.2-2.2,5.2-3c2-0.8,3.4-1.3,4.5-1.3c0.8,0,1.5,0.2,2.1,0.6
			c0.6,0.4,0.9,1,0.9,1.7c0,0.6-0.6,1.2-1.8,1.7c-1.2,0.5-2.9,1.1-5.1,1.8c-2.3,0.7-3.6,1.2-4.1,1.6c-0.1,0.1-0.4,0.4-0.9,0.9
			c-0.3,0.4-0.6,0.8-0.9,1c-0.3,0.2-0.5,0.3-0.9,0.3C1099.1,314.7,1098.8,314.5,1098.6,314.1z M1116.3,333c-0.1,1.5-0.3,2.6-0.6,3.2
			c-0.3,0.8-0.5,1.5-0.7,1.9c-0.1,0.4-0.2,0.9-0.2,1.5c0,0.6-0.1,1-0.4,1.3c-0.3,0.3-0.7,0.5-1.3,0.7c-2.1,0.7-4.5,1.1-7,1.1
			c-1.2,0-2.7-0.2-4.3-0.6c-1.7-0.4-2.5-0.9-2.5-1.7c0-0.5,0.2-0.9,0.5-1c0.4-0.2,0.8-0.3,1.3-0.5c0.5-0.1,0.8-0.2,1.1-0.3
			c0-2.1,0-3.9-0.1-5.5c0-1.6-0.1-2.9-0.1-3.9l-0.1-3.2c-0.4-0.4-0.7-0.7-0.9-1c-0.2-0.3-0.3-0.6-0.3-1c0-0.2,0.1-0.5,0.3-0.8
			c0.2-0.3,0.4-0.6,0.6-0.9c0.4-0.6,0.7-1,0.9-1.4c0.1-0.3,0.2-0.9,0.4-1.7c0.2-1.3,0.5-2.4,0.9-3.1c0.4-0.7,1.1-1.1,2-1.1
			c0.5,0,1.2-0.1,2.1-0.3c1.1-0.2,1.8-0.3,2-0.3c2.4,0,4,0.8,4.8,2.3c0.9,1.6,1.3,3.7,1.5,6.3c0,0.6,0,1.2,0.1,1.7
			c0,0.5,0.1,0.8,0.1,1.1c0.1,1.5,0.2,2.6,0.2,3.3C1116.5,330.3,1116.5,331.6,1116.3,333z M1109.1,338.1c1.7-0.2,2.7-0.3,2.8-0.5
			c0.1-0.2,0.2-1.4,0.2-3.7c0-0.1,0-0.5,0-1.1c0-0.6-0.1-1.1-0.3-1.5c-0.2-0.4-0.5-0.6-0.9-0.6c-0.3,0-0.7,0.1-1.3,0.2
			c-0.6,0.1-1,0.2-1.3,0.2h-1.3c-0.6,0-0.9,0.2-1.1,0.5c-0.2,0.4-0.2,0.9-0.2,1.5c0,0.5-0.1,1.3-0.2,2.3c-0.1,1-0.2,1.8-0.2,2.3
			c0,0.3,0,0.4,0.1,0.5C1106.2,338.4,1107.4,338.3,1109.1,338.1z M1107.5,327.6l1.4-0.1c0.3,0,0.6,0,0.8,0.1c0.2,0,0.4,0.1,0.6,0.1
			c0.6,0.1,1,0.2,1.4,0.2c0.3,0,0.5-0.5,0.5-1.6l0.1-1.1c0-0.4-0.1-0.7-0.2-0.9c-0.2-0.2-0.5-0.3-0.9-0.3c-0.4,0-0.9,0.1-1.7,0.2
			c-0.7,0.1-1.3,0.2-1.7,0.2c-0.7,0-1.2,0-1.5,0.1c-0.3,0.1-0.5,0.3-0.6,0.6c-0.1,0.3-0.2,0.8-0.2,1.5c0,0.8,0.2,1.1,0.5,1.1
			C1106.4,327.7,1106.9,327.7,1107.5,327.6z M1107,317.9c-0.4,0.2-0.7,0.5-0.9,1c-0.1,0.4-0.3,1-0.3,1.8c1.4,0,3.4-0.1,6.2-0.1
			c-0.1-1-0.3-1.9-0.6-2.5c-0.3-0.6-1-0.9-1.9-0.9C1108.8,317.2,1108,317.5,1107,317.9z"/>
		<path d="M1131.4,308.6c0.9-0.4,1.9-0.6,3-0.6c1.6,0,3.1,0.1,4.4,0.3c1.3,0.2,2.2,0.7,2.6,1.5c0.2,0.5,0.4,1.5,0.4,3
			c0,0.6-0.2,1.4-0.6,2.1c-0.4,0.8-0.9,1.6-1.5,2.5c-0.4,0.5-0.5,0.9-0.5,1c0,0.1,0.2,0.2,0.6,0.3c0.4,0.1,0.7,0.3,1,0.5
			c0.3,0.2,0.4,0.5,0.4,0.8c0,0.7-0.5,1.2-1.5,1.7s-2.4,0.9-4.2,1.4c-1.6,0.4-2.6,0.8-3,1c-0.4,0.7-0.8,2-1,3.9
			c-0.1,0.8-0.1,1.3-0.2,1.7c-0.1,0.3-0.2,0.7-0.3,1.3c-0.1,0.5-0.2,1-0.2,1.4c0,0.2,0.1,0.4,0.2,0.5c0.1,0.1,2,0.6,5.7,1.3
			c3.7,0.7,5.9,1,6.5,1c1.3,0,2.3-0.1,3.1-0.3c0.8-0.2,1.5-0.6,2.1-1.3c2.1-2.5,3.6-8.9,4.2-19.3c0-0.7,0.1-1.3,0.2-1.7
			c0.1-0.4,0.4-0.6,0.9-0.6c0.5,0,0.8,0.3,1,0.8c0.1,0.5,0.2,1.1,0.2,1.9c0,1.2,0.1,2.6,0.3,4.1c0.1,1.8,0.2,3.2,0.2,4.1
			c0,1.6-0.1,3.1-0.3,4.5c-0.2,1.3-0.5,2.6-1,3.9c-1,2.7-2.1,4.6-3.5,5.8c-1.4,1.2-3.4,1.8-6,1.8c-1.9,0-4.8-0.2-8.8-0.5
			c-4-0.4-6.4-0.8-7.2-1.2c-0.8-0.4-1.4-0.9-1.7-1.5c-0.3-0.6-0.5-1.3-0.5-2.2c0-1.4,0.2-3.1,0.7-5.3c0.5-2.2,1.2-4.1,2.1-5.8
			c0.9-1.7,2.1-2.5,3.4-2.5c0.1,0,0.3,0,0.6,0.1c0.2,0.1,0.4,0,0.6-0.1c0.5-0.3,1.1-0.9,1.8-1.8c0.7-0.9,1.3-1.8,1.8-2.8
			c0.5-1,0.8-1.8,0.8-2.4c0-0.3-0.5-0.5-1.6-0.6c-1.1-0.1-2-0.2-2.7-0.2c-0.3,0-0.7,0.1-1,0.4c-0.4,0.3-0.8,0.4-1.3,0.4
			c-0.5,0-0.9-0.2-1.2-0.7c-0.3-0.5-0.5-0.9-0.5-1.4C1130,309.6,1130.4,309,1131.4,308.6z"/>
	</g>
	<g class="st0">
		<path d="M932.4,381.8c1.7-2.2,3.6-4.3,5.5-6.2c1.9-2,3.2-2.9,3.7-2.9c0.3,0,0.6,0.1,0.7,0.4c0.2,0.3,0.3,0.6,0.3,0.9
			c0,0.6-0.3,1.3-0.8,2.1s-1.2,1.6-2.1,2.5c-0.8,0.9-1.2,1.5-1.2,1.6c0,0.4,0.1,0.8,0.4,1.3c0.4,0.7,0.6,1.9,0.7,3.4
			c0.1,1.5,0.2,2.9,0.2,4.2c0,2.6-0.2,5.2-0.6,7.9c-0.4,2.6-1.3,4-2.6,4c-0.3,0-0.6-0.1-0.8-0.3c-0.2-0.2-0.5-0.4-0.8-0.8
			c0-1.6,0.1-3.5,0.3-5.6c0.2-2.4,0.2-4.3,0.2-5.5c0-2.9-0.1-4.5-0.4-5c-0.4,0.6-1.1,1.3-2.1,2s-1.8,1.1-2.3,1.1
			c-0.3,0-0.5-0.1-0.7-0.3c-0.2-0.2-0.3-0.4-0.3-0.7C929.8,385.4,930.7,384,932.4,381.8z M946.6,393c2.1-3.3,3.4-5.1,3.7-5.4
			c0.5-0.4,0.9-0.6,1.2-0.6c0.3,0,0.6,0,0.7,0.1s0.3,0.2,0.3,0.5c0,0.9-0.5,2.3-1.4,4.5c-0.9,2.1-2,4-3.1,5.7
			c-1.2,1.7-2.1,2.5-3,2.5c-0.4,0-0.8-0.2-1.2-0.6c-0.4-0.4-0.5-0.9-0.5-1.3C943.4,398.1,944.5,396.3,946.6,393z M946.4,377.5
			c0.3-0.7,0.6-1.4,0.9-1.9c0.3-0.5,0.5-1,0.6-1.3c0.9-1.8,1.5-2.9,1.6-3.5c0.1-0.3,0.2-0.8,0.4-1.6c0.2-0.7,0.4-1.2,0.7-1.5
			c0.2-0.2,0.4-0.2,0.6-0.2c0.5,0,0.9,0.1,1.1,0.4c0.2,0.3,0.3,0.7,0.4,1.2c0.1,0.5,0.3,0.8,0.6,0.8c0.3,0,0.7-0.1,1-0.2
			c0.4-0.1,0.6-0.2,0.7-0.2c3.2-1,5.7-1.5,7.6-1.5c0.7,0,1.4,0.3,2,0.8c0.6,0.6,0.9,1.2,0.9,1.9c0,0.4-0.2,1.1-0.5,2
			s-0.8,1.7-1.3,2.3c-0.5,0.7-1,1-1.5,1c-0.6,0-0.9-0.4-0.9-1.2c0-0.3,0-0.6,0.1-0.9c0-0.3,0.1-0.5,0.1-0.8c0-0.3,0-0.5-0.1-0.6
			c-1.2,0.2-2.9,0.5-5.2,1c-2.2,0.5-3.6,0.8-4.1,1.1c-0.3,0.2-0.6,0.5-0.8,0.9c-0.2,0.4-0.5,0.9-0.8,1.6c-0.5,1-0.9,1.8-1.4,2.3
			c-0.4,0.5-1,0.8-1.8,0.8c-0.4,0-0.8-0.1-1.1-0.3c-0.3-0.2-0.4-0.5-0.4-1C946,378.8,946.1,378.3,946.4,377.5z M955.8,391.2
			c0-0.6-0.1-1.5-0.1-2.7c0-5,0.7-7.5,2.1-7.5c0.4,0,0.6,0.1,0.8,0.3c0.2,0.2,0.5,2.5,1.1,7.1c0.6,4.6,0.8,7.3,0.8,8.3
			c0,2.1-0.2,4-0.6,5.7c-0.4,1.6-1.4,2.5-3,2.5c-1.5,0-2.6-1-3.3-3c-0.7-2-1-3.9-1-5.8c0-1.6,0.6-2.4,1.7-2.4c0.4,0,0.7,0.1,0.8,0.3
			c0.1,0.2,0.3,0.3,0.4,0.3c0.2,0,0.3-0.1,0.3-0.2L955.8,391.2z M960.7,386.8c0.2,0,0.5,0.1,0.7,0.3c0.3,0.2,0.5,0.4,0.7,0.6
			c0.8,0.7,1.9,1.4,3.5,2.2c1.5,0.8,3.8,1.9,6.7,3.2c0.4,0.2,1.4,0.7,3,1.4c1.6,0.7,2.8,1.4,3.6,1.9c0.8,0.5,1.4,0.9,1.6,1.2
			c0.2,0.4,0.4,0.8,0.4,1.2c0,0.7-0.2,1.3-0.7,1.7c-0.4,0.4-1,0.6-1.8,0.6c-0.8,0-1.7-0.3-2.7-0.9l-2.7-1.4
			c-1.7-0.8-3.1-1.6-4.2-2.3c-1.2-0.7-2.2-1.5-3.3-2.4c-0.2-0.2-0.8-0.7-1.8-1.6c-1-0.9-1.8-1.8-2.5-2.7c-0.7-0.9-1-1.7-1-2.4
			C960.2,387.1,960.4,386.8,960.7,386.8z"/>
		<path d="M991.9,392.1c-0.3-0.2-0.5-0.5-0.5-1c0-0.4,0.2-0.9,0.6-1.6c0.4-0.7,0.6-1.3,0.6-1.8c0-0.3-0.1-0.5-0.2-0.6
			c-0.1-0.1-0.4-0.3-0.7-0.5c-0.4-0.3-0.8-0.6-1-0.9c-0.3-0.4-0.4-0.9-0.4-1.6c0-1.3,0.4-2.5,1.2-3.4c0.8-0.9,1.8-1.4,3.2-1.4
			c1.8,0,2.7,0.9,2.7,2.6c0,2.3-0.3,4.6-0.9,7c-0.6,2.4-1.7,3.5-3.2,3.5C992.7,392.3,992.2,392.3,991.9,392.1z"/>
	</g>
	<g class="st0">
		<path d="M1055.3,410.2c-0.8-0.1-1.4-0.1-1.7-0.2l-1.5-0.2c-4.7-0.5-8.2-0.7-10.6-0.7c-19.3,0-29.4-0.3-30.4-0.8
			c-0.3-0.2-0.5-0.4-0.7-0.6c-0.2-0.3-0.3-0.6-0.3-0.9c0-0.8,0.6-1.4,1.8-1.6c1.2-0.3,2.8-0.4,4.7-0.4c0.7,0,1.2,0,1.4-0.1l0.1-0.2
			c0-0.4-0.2-0.8-0.5-1.3c-0.3-0.5-0.9-1.2-1.6-2.1c-1-1.2-1.7-2.2-2.2-3c-0.5-0.8-0.8-1.6-0.8-2.2c0-1.2,0.5-2.2,1.4-3.1
			c0.9-0.9,2-1.3,3.1-1.3c0.7,0,1.1,0.2,1.1,0.5c0,0.3-0.1,0.6-0.4,0.8c-0.3,0.3-0.7,0.5-1.2,0.8c-0.5,0.3-0.8,0.5-1.1,0.7
			c-0.3,0.2-0.4,0.4-0.4,0.6c0,0.3,1.4,2.1,4.3,5.6l0.9,1.1c0.2,0.2,0.5,0.8,1,1.8s0.9,1.4,1.2,1.4c0.5,0,0.9-0.3,1.2-0.8l1.6-2.6
			c3.4-5.7,5.1-8.8,5.2-9.1c-0.1-0.3-0.2-0.7-0.2-1.2c0-1.7,0-3,0.1-3.8c0-0.5,0.2-1.2,0.5-2.1c0.3-1,0.5-1.8,0.5-2.4
			c0.1-0.9,0.2-1.5,0.4-1.8c0.2-0.4,0.5-0.8,1.1-1.4c0.5-0.5,0.9-0.7,1.2-0.7c0.2,0,0.3,0,0.4,0.1c0.1,0.1,0.1,0.2,0.1,0.4
			c0,0.4-0.2,0.7-0.5,1.2c-0.3,0.5-0.5,0.8-0.5,1.1c0,0.5,0.2,0.8,0.7,0.8c0.2,0,0.6-0.1,1.1-0.2s0.8-0.2,1.1-0.2
			c1.3,0,2.2,0.3,2.5,0.9c0.4,0.6,0.5,1.6,0.5,3c0,1-0.3,1.7-0.8,2.2c-0.5,0.5-1.3,0.9-2.3,1.4c-1.1,0.4-1.9,0.9-2.4,1.4
			c-0.3,0.3-0.7,1.1-1.2,2.5c-0.5,1.3-0.8,2.2-0.9,2.4l-0.7,1.9c-1,2.3-2,4.1-3,5.3c-0.4,0.5-0.7,0.9-0.7,1.2l0.5,0.3
			c0.8,0,1.6-0.1,2.4-0.2c0.8-0.1,1.4-0.1,1.8-0.1c0.4-0.7,0.7-1.6,1.2-2.8c0.4-1.1,0.6-1.7,0.8-2c-0.9-0.9-1.4-1.7-1.4-2.4
			c0-0.7,0.3-1.3,0.8-1.7c0.5-0.4,1.1-0.6,1.8-0.6c0.2,0,0.4,0,0.6,0.1c0.3,0.1,0.5,0,0.7-0.1c0.4-0.2,0.7-0.5,1.1-1
			c0.4-0.4,0.9-1.1,1.5-1.9c0.8-1.1,1.4-1.8,1.9-2.4c0.5-0.5,1-0.8,1.5-0.8c0.3,0,0.5,0.1,0.7,0.2c0.2,0.2,0.3,0.4,0.3,0.6
			c0,0.3-0.6,1.4-1.7,3.2c-0.9,1.5-1.5,2.6-1.8,3.2c0.1,0.2,0.5,0.5,1.1,0.8c0.7,0.4,1.2,0.6,1.5,0.8c2,1,3.6,2,4.8,2.8
			c1.2,0.9,1.8,1.7,1.8,2.6c0,0.4-0.1,0.7-0.4,0.9s-0.7,0.3-1.1,0.3c-0.7,0-1.6-0.4-2.9-1.1c-1.3-0.7-3-1.7-5.3-3.1
			c-1.6-1-2.4-1.5-2.6-1.5c-0.2,0-0.3,0.1-0.5,0.3l-0.4,1.4c-0.1,0.4-0.3,1-0.5,1.9s-0.4,1.4-0.4,1.7c0,0.4,0.5,0.7,1.4,0.8
			c0.9,0.1,1.4,0.1,1.5,0.1c1.7,0.2,3.6,0.4,5.7,0.8c0.6,0.2,2.2,0.3,4.9,0.5c3.1,0.3,5.4,0.6,7,0.8c1.6,0.2,2.5,0.5,2.8,0.7
			c0.3,0.3,0.5,0.7,0.5,1.1c0,1.1-0.7,1.6-2.1,1.6C1056.8,410.3,1056.1,410.3,1055.3,410.2z M1026.6,388.3c-0.3,0.3-0.7,0.5-1.2,0.5
			c-0.5,0-1.1-0.3-1.6-1c-0.5-0.7-1.2-1.6-1.9-2.6c-0.2-0.3-0.4-0.6-0.8-0.9c-0.4-0.3-0.6-0.5-0.7-0.6c-0.1-0.1-0.3-0.3-0.7-0.7
			c-0.4-0.4-0.7-0.7-0.9-1.1c-0.2-0.3-0.3-0.6-0.3-0.9c0-0.7,0.2-1.2,0.7-1.6c0.4-0.4,1-0.6,1.7-0.6c1.1,0,2.1,0.4,3.1,1.3
			c1,0.9,1.7,2,2.3,3.3c0.6,1.3,0.8,2.5,0.8,3.5C1027.1,387.6,1026.9,388,1026.6,388.3z M1040.6,369.7c-1.8,0.5-4.2,1-7.3,1.6
			c-1.6,0.2-2.6,0.4-2.8,0.5c-0.2,0.1-0.4,0.4-0.5,0.7c-0.1,0.4-0.2,0.6-0.3,0.8c-0.1,0.2-0.4,0.3-0.7,0.3c-0.6,0-0.9-0.3-0.9-0.9
			c0-0.9-0.1-2.2-0.2-3.8c-0.2-1.4-0.3-2.7-0.3-3.8c0-3,0.5-4.5,1.6-4.5c0.4,0,0.8,0.1,1.1,0.4c0.4,0.2,0.6,0.4,0.7,0.4
			c0.2,0,0.6-0.2,1.3-0.5c1.2-0.5,2.3-0.9,3.4-1.3c1.1-0.3,2.1-0.5,3.1-0.5c1.6,0,2.9,0.2,3.9,0.7c1,0.5,1.5,1.4,1.5,2.8
			c0,0.7-0.2,1.5-0.6,2.3c-0.4,0.8-0.6,1.3-0.7,1.4c0,0.2,0.1,0.4,0.2,0.7c0.1,0.3,0.2,0.5,0.2,0.7
			C1043.3,368.5,1042.4,369.2,1040.6,369.7z M1042.9,374.6c-0.4,0.2-0.9,0.3-1.4,0.4c-0.5,0.1-0.8,0.1-0.9,0.2
			c-2.1,0.5-4.1,1.3-6,2.1c-0.5,0.2-1.1,0.4-1.8,0.6c-1.3,0.4-2.2,0.8-2.8,1.2c-0.1,0.1-0.4,0.3-0.8,0.8c-0.4,0.4-0.7,0.7-1,0.7
			c-0.3,0-0.5-0.1-0.6-0.4c-0.1-0.2-0.2-0.5-0.2-0.8c0-0.9,0.6-1.8,1.8-2.8s2.7-1.7,4.3-2.4c1.6-0.7,2.9-1,3.8-1.1
			c1.3-0.1,2.6-0.2,3.9-0.2c1.6,0,2.3,0.3,2.3,0.9C1043.6,374.1,1043.4,374.4,1042.9,374.6z M1031.8,368.8c0.4-0.2,0.7-0.4,0.9-0.6
			c0-0.4-0.2-1.1-0.5-1.9c0-0.1-0.1-0.4-0.2-0.7c-0.1-0.4-0.2-0.7-0.2-1.1c0-0.2,0-0.4-0.1-0.8c0-0.3-0.1-0.5-0.2-0.5
			c-0.4,0-0.6,0.6-0.8,1.9s-0.2,2.5-0.2,3.5c0,0.2,0,0.4,0.1,0.5C1031,369,1031.4,368.9,1031.8,368.8z M1036,386.6
			c0.4-0.5,0.6-0.9,0.6-1.2c0-0.2-0.1-0.4-0.4-0.5c-0.3-0.1-0.5-0.2-0.8-0.2c-0.4,0-0.6,0.1-0.7,0.4s-0.2,0.6-0.2,1
			c0,0.9,0.1,1.3,0.4,1.3C1035.2,387.4,1035.6,387.1,1036,386.6z M1037.2,364.6l-0.1-1.9l-0.2-0.5c-0.2,0-0.4-0.1-0.7-0.1
			c-0.4,0-0.7,0.1-0.8,0.3s-0.3,0.5-0.3,0.8c0,2.9,0.3,4.3,0.9,4.3C1036.8,367.6,1037.2,366.6,1037.2,364.6z M1041.1,365.1
			c0.4-0.6,0.6-1.3,0.6-2c0-0.4-0.2-0.7-0.5-0.9s-0.7-0.4-1.2-0.4h-0.7v2.3c0,1.6,0.1,2.4,0.4,2.5
			C1040.2,366.2,1040.7,365.7,1041.1,365.1z"/>
		<path d="M1067.8,397.7c-0.4-0.2-0.5-0.4-0.5-0.6c0-0.2,0.2-0.5,0.7-0.9c0.5-0.4,0.7-0.6,0.8-0.7c0.4-0.4,0.8-0.7,1.2-1.1
			c0.4-0.4,0.6-0.7,0.6-1c0-0.5-0.1-1.4-0.4-2.5c-0.3-1-0.4-1.8-0.4-2.5l0.1-1.1c0-0.7-0.3-1-0.8-1c-2.1,0-3.2,0.4-3.2,1.2
			c0,0.1,0,0.3,0.1,0.5c0,0.2,0.1,0.4,0.1,0.6c0,0.5-0.2,0.8-0.6,0.8c-0.3,0-0.7-0.5-1.2-1.5c-0.5-1-0.7-1.7-0.7-2.1
			c0-0.7,0.4-1.3,1.2-1.9c0.8-0.6,1.8-1.1,2.8-1.6s1.9-0.6,2.5-0.6c0.5,0,0.8-0.2,1-0.5c0.2-0.3,0.3-0.8,0.4-1.4l0.5-2.1
			c0.6-2.6,1-4.6,1.2-6.1c0.1-1.9,0.5-2.9,1.2-3.2c0.1,0,0.3-0.1,0.6-0.1c1,0,1.5,0.8,1.5,2.5c0,0.8-0.1,2.1-0.2,3.8
			c0,0.4-0.1,0.8-0.2,1.3s-0.2,0.8-0.2,1c-0.3,1.3-0.5,2.2-0.5,2.9c0,0.4,0.3,0.5,0.8,0.5c0.4,0,1.1-0.2,2.1-0.5
			c0.1,0,0.4-0.1,0.8-0.2s0.8-0.2,1.2-0.2c0.5,0,1,0.2,1.4,0.5c0.4,0.3,0.6,0.8,0.6,1.3c0,0.4-0.1,0.7-0.4,0.9s-0.6,0.5-1.1,0.8
			c-0.6,0.4-1,0.7-1.3,0.9c-0.3,0.3-0.5,0.6-0.6,1.1c-0.7,2.7-1.8,5-3.2,6.9c-0.1,0.1-0.3,0.3-0.5,0.7c-0.3,0.4-0.4,0.7-0.4,1
			c0,0.2,0.6,0.6,1.9,1.2c1,0.4,1.8,0.8,2.4,1.2c0.6,0.4,0.9,0.8,0.9,1.1c0,0.5-0.4,0.8-1.3,0.8c-0.5,0-1.3-0.2-2.2-0.5
			c-0.9-0.3-1.8-0.6-2.7-1c-0.2-0.1-0.5-0.2-0.7-0.3c-0.2-0.1-0.5-0.2-0.7-0.3c-1.7,1.4-2.8,2.1-3.5,2.1
			C1068.4,398,1068.1,397.9,1067.8,397.7z M1072.9,390.1c0.2,0,0.6-0.7,1.3-2.1c0.7-1.4,1.1-2.3,1.1-2.7l-0.2-0.2
			c-0.7,0-1.3,0.5-1.8,1.5s-0.8,1.9-0.8,2.7C1072.5,389.8,1072.6,390.1,1072.9,390.1z M1086.9,410.1c-0.6-0.4-1-0.8-1-1.2
			s0.3-1.1,0.9-1.8c0.6-0.7,1.2-1.4,1.7-2s0.9-1,1.1-1.2c1.5-1.7,2.7-3.8,3.6-6.4c0.9-2.6,1.3-5,1.3-7.3c0-1.4-0.2-2.2-0.5-2.2
			c-0.7,0-2.2,0.2-4.7,0.7c-2.5,0.5-4,0.9-4.7,1.1c-0.2,0.1-0.5,0.2-0.7,0.2s-0.5-0.1-0.8-0.3c-0.3-0.2-0.4-0.4-0.4-0.7
			c0-0.7,0.6-1.3,1.9-1.9s3-1.3,5.3-2.1c1.4-0.5,2.5-0.8,3.1-1.1s1.1-0.6,1.2-0.8c0-0.9-0.2-1.6-0.6-2.2c-0.4-0.6-0.9-1.2-1.6-1.8
			c-0.4-0.4-0.7-0.8-0.9-1s-0.3-0.5-0.3-0.8c0-0.7,0.1-1.3,0.4-2.1s0.7-1.5,1.3-2.5c0.5-0.9,0.9-1.6,1.1-2.1
			c0.2-0.5,0.3-0.9,0.3-1.4c0-0.3-0.2-0.5-0.7-0.8c-0.5-0.3-0.9-0.4-1.2-0.4c-0.2,0-0.5,0.1-0.8,0.3c-0.4,0.2-0.7,0.3-0.9,0.3
			c-0.3,0-0.6-0.2-0.9-0.5c-0.3-0.3-0.5-0.6-0.5-0.9c0-0.5,0.4-0.9,1.2-1.3c0.8-0.4,1.4-0.6,1.9-0.6c1.6,0,2.9,0.2,3.9,0.6
			s1.5,1.3,1.5,2.7c0,0.9-0.2,1.7-0.5,2.3c-0.3,0.7-0.7,1.4-1.3,2.2c-0.4,0.6-0.7,1.1-0.9,1.5c-0.2,0.4-0.3,0.8-0.3,1.2
			c0,0.2,0.3,0.6,0.8,1.1s0.9,0.8,1.1,1c0.2,0.3,0.5,0.9,0.9,1.9c0.3,0.7,0.5,1.2,0.7,1.5c0.2,0.3,0.4,0.5,0.6,0.5
			c0.4,0,0.8-0.1,1.3-0.4c2.4-0.9,4.8-1.4,7.3-1.4c1.1,0,1.9,0.1,2.5,0.4c0.6,0.3,0.8,0.9,0.8,1.8c0,0.9-0.4,1.5-1.3,1.8
			c-0.9,0.3-2.1,0.6-3.7,0.7c-0.9,0.1-1.5,0.2-1.8,0.2c-0.1,0-0.2,0.1-0.4,0.1c-0.2,0-0.5,0.1-0.8,0.2c-2.6,0.5-4,0.8-4.1,1
			l-0.4,3.4c-0.2,2.7-0.4,4.3-0.5,4.9c-0.9,3.8-2,7.3-3.5,10.6s-3.3,5-5.5,5C1088.1,410.6,1087.5,410.4,1086.9,410.1z"/>
		<path d="M1115.7,384.4c0.2-0.8,0.2-1.4,0.2-1.8c0-0.9,0.2-1.8,0.6-2.9c0.4-1.1,0.9-1.6,1.6-1.6c0.3,0,0.5,0.1,0.6,0.2
			c0.1,0.1,0.3,0.3,0.4,0.6c0.2,0.3,0.3,0.4,0.4,0.4s0.2,0,0.4-0.1c0.1,0,0.3-0.1,0.4-0.1c1.2,0,2,0.5,2.5,1.6s0.8,2.2,0.8,3.5
			c0,1-0.2,2.1-0.6,3.4s-1,2.3-1.8,3.1c-0.8,0.9-1.7,1.3-2.8,1.3c-0.2,0-0.5,0-0.8-0.1c-0.4-0.1-0.6-0.1-0.8-0.1
			c-1,0-1.5-1.9-1.5-5.6C1115.5,385.8,1115.6,385.2,1115.7,384.4z M1119.4,383.6c-0.3,0-0.5,0-0.6,0.1c-0.1,0.7-0.2,1.5-0.2,2.3
			c0,0.9,0.1,1.3,0.4,1.3c0.2,0,0.4-0.1,0.5-0.2c0.2-0.2,0.2-0.3,0.2-0.5c0-0.3,0.1-0.7,0.4-1.2c0.2-0.5,0.4-0.9,0.4-1.2
			C1120.4,383.8,1120.1,383.6,1119.4,383.6z M1123.8,397.4c0.4-2.8,0.8-4.3,1.1-4.6c0.2-0.2,0.4-0.3,0.6-0.3c1,0,1.5,1.2,1.5,3.6
			c0,2.5-0.1,4.7-0.4,6.5s-0.9,2.7-2.1,2.7c-0.9,0-1.3-0.8-1.3-2.5C1123.1,402,1123.3,400.2,1123.8,397.4z M1129.5,368.3
			c1.2-1,2.6-2,4.2-2.8s2.6-1.2,3.2-1.2s1.1,0.2,1.5,0.5s0.6,0.8,0.6,1.5c0,0.5-0.2,0.9-0.6,1.3s-1.1,0.8-2,1.3
			c-0.9,0.5-1.6,1-2.1,1.3c-0.4,0.4-0.7,0.9-0.7,1.5v0.3c0,0.6,0.1,1,0.4,1.1l1.1-0.8c1.3-1,2.4-1.7,3.3-2.3
			c0.8-0.6,1.5-0.8,1.9-0.8s0.8,0.1,1.2,0.4s0.6,0.6,0.6,1c0,0.3-0.1,0.5-0.3,0.6c-0.2,0.2-0.4,0.3-0.7,0.6
			c-0.3,0.2-0.5,0.4-0.6,0.5c-0.2,0.2-0.3,0.6-0.4,1.2c-0.1,0.6-0.1,1.1-0.1,1.6l0.1,0.1c0.2,0,0.7-0.3,1.4-0.9
			c0.2-0.1,0.4-0.2,0.8-0.5c0.4-0.3,0.7-0.4,0.9-0.4l0.1,0.1l0.1,0.4c0,1.3-0.2,2.2-0.6,2.7s-0.9,1-1.6,1.3
			c-0.5,0.3-0.8,0.5-1.1,0.7c-0.2,0.2-0.4,0.5-0.5,1c-0.5,1.9-0.8,3.8-0.8,5.7l0.1,0.1c0.4,0,0.8-0.2,1.3-0.4
			c0.5-0.3,0.9-0.4,1.1-0.5c0.7-0.4,1.3-0.7,1.8-0.9c0.5-0.2,1.1-0.3,1.6-0.3c1,0,1.7,0.3,2.2,0.8c0.4,0.5,0.7,1.1,0.8,1.8
			c0.1,0.7,0.1,1.6,0.1,2.8c0,1.2,0.2,1.9,0.6,2.2c0.8,0.4,1.9,0.7,3.3,0.9c0.9,0.1,1.7,0.3,2.4,0.5c2.3,0.7,4.4,1.8,6.3,3.2
			s3.3,3,4,4.9c0.2,0.4,0.2,0.7,0.2,0.9c0,0.4-0.2,0.7-0.5,0.9c-0.3,0.2-0.7,0.3-1.1,0.3c-0.4,0-0.7-0.1-0.9-0.2
			c-0.4-0.2-1-0.7-1.8-1.6c-0.4-0.5-0.8-0.9-1.2-1.2c-0.9-0.8-2.9-2-6-3.6c-3.1-1.6-5-2.4-5.9-2.4c-0.2,0-0.4,0.2-0.7,0.6
			s-0.6,0.9-0.9,1.4c-1.1,1.8-2.2,3.3-3.3,4.5c-1.1,1.2-2.3,1.8-3.8,1.8c-0.4,0-0.7-0.1-0.8-0.2c-0.2-0.2-0.2-0.4-0.2-0.8
			c0-0.7,0.6-1.4,1.8-2c0.1,0,0.3-0.2,0.6-0.4c0.3-0.2,0.4-0.4,0.4-0.6c0-0.2-0.2-0.5-0.7-0.9c-0.5-0.4-1-0.8-1.6-1.2
			c-2-1.4-3-2.4-3-3c0-0.9,0.4-1.3,1.3-1.3c0.8,0,1.6,0.2,2.3,0.6c0.7,0.4,1.6,0.9,2.6,1.6c0.6,0.5,1.1,0.8,1.4,1
			c0.2-0.3,0.4-0.6,0.7-1.1c0.3-0.4,0.4-0.7,0.4-0.9c0-0.3-0.2-0.6-0.6-1c-0.4-0.4-0.6-0.7-0.6-1.1c0-0.2,0.1-0.4,0.2-0.6
			c0.3-0.1,0.6-0.2,1.1-0.2c0.4,0,0.8,0,1-0.1c0-0.2,0-0.4,0.1-0.6s0.1-0.4,0.1-0.6c0-0.9-0.3-1.3-0.9-1.3c-0.5,0-1.2,0.2-2.1,0.6
			c-0.9,0.4-2,1.1-3.5,1.9c-0.9,0.5-1.7,1-2.5,1.3c-0.8,0.4-1.3,0.6-1.6,0.6s-0.7-0.2-1.1-0.6c-0.4-0.4-0.6-0.7-0.6-1
			c0-0.4,0.1-0.9,0.4-1.6s0.6-1.4,0.9-2.1c0.5-1.2,0.9-2.2,1.2-3c0.3-0.7,0.4-1.4,0.4-2l-0.1-0.1c-0.5,0.1-1.3,0.4-2.4,1.1
			c0,0.2-0.1,0.4-0.1,0.6c0,0.2,0,0.4-0.1,0.6c0,1.3-0.2,2.3-0.4,3.1c-0.2,0.8-0.7,1.2-1.5,1.2s-1.2-0.3-1.4-0.8
			c-0.2-0.5-0.3-1.2-0.3-2.1c0-1.5,0.3-3.5,0.8-5.9c0.5-2.4,1.1-4.5,1.8-6.3c0.1-0.3,0.2-0.6,0.2-0.8s0-0.4-0.1-0.5l-0.2-0.1
			c-0.3,0-0.7,0.2-1.3,0.5c-0.6,0.4-1.2,0.6-1.6,0.6c-0.4,0-0.7-0.2-0.9-0.5s-0.4-0.7-0.4-1.1
			C1127.6,370.2,1128.3,369.4,1129.5,368.3z M1130.1,392.2c0.2-0.3,0.4-0.4,0.7-0.4c0.2,0,0.5,0.2,0.9,0.7c1.1,1,1.9,2.3,2.5,3.8
			s0.9,3,0.9,4.6c0,0.5-0.2,1-0.6,1.3c-0.4,0.4-0.8,0.6-1.3,0.6c-0.7,0-1.2-0.6-1.6-1.7c-0.4-1.1-0.6-2.6-0.8-4.4
			c-0.2-1.4-0.4-2.1-0.4-2.2c-0.1-0.2-0.2-0.5-0.4-0.8s-0.3-0.6-0.3-0.7C1129.7,392.7,1129.8,392.4,1130.1,392.2z M1137.2,373.8
			c-0.7,0.1-1.6,0.6-2.4,1.5s-1.3,1.8-1.3,2.5c0,0.6,0.1,0.9,0.2,0.9s0.5-0.2,1-0.6s0.8-0.6,0.8-0.7c1.2-1.1,1.9-2.2,1.9-3.4v-0.2
			L1137.2,373.8z"/>
		<path d="M1173.2,392.6c-0.3-0.7-0.4-1.4-0.4-2c0-1.1,0.5-2.8,1.6-5s2.1-3.8,3-4.8c0.9-1,1.6-2,2.1-2.8c0.5-0.9,0.8-1.8,0.8-2.8
			c0-0.5-0.1-1-0.2-1.3s-0.4-0.5-0.9-0.5c-1,0-2.1,0.4-3.1,1.1c-1.1,0.7-1.7,1.6-2,2.5c0,0.1-0.1,0.3-0.1,0.6
			c-0.1,0.3-0.2,0.5-0.3,0.7s-0.4,0.3-0.6,0.3c-0.7,0-1.1-0.2-1.3-0.5c-0.2-0.3-0.2-0.7-0.2-1.1c0-0.4,0-0.7,0-0.9
			c0-1.1,0.1-2,0.3-2.5c0.4-1,1-1.9,2-2.7c1-0.8,2.1-1.5,3.3-2.1s2.4-0.8,3.4-0.8c0.7,0,1.4,0.2,1.9,0.5c1.4,0.9,2.3,1.9,2.8,2.9
			s0.7,2.5,0.7,4.3c0,1.6-0.2,2.9-0.7,4s-1,2-1.7,2.8c-0.7,0.7-1.5,1.6-2.6,2.5c-1.4,1.2-2.4,2.2-3.2,3.1c-0.8,0.9-1.4,2.1-1.8,3.5
			c-0.5,1.4-0.9,2.1-1.4,2.1C1173.9,393.7,1173.5,393.3,1173.2,392.6z M1173.5,403.9c-0.3-0.4-0.5-1-0.5-1.9c0-0.6,0.2-1.2,0.5-2
			c0.3-0.7,0.7-1.4,1.3-1.9c0.5-0.5,1.1-0.8,1.7-0.8c0.7,0,1.3,0.3,1.7,0.8c0.4,0.6,0.6,1.2,0.6,2c0,1-0.1,1.7-0.2,2.1
			c-0.2,0.5-0.6,1.1-1.3,1.6s-1.3,0.8-1.9,0.8C1174.4,404.5,1173.8,404.3,1173.5,403.9z"/>
	</g>
</g>
</svg>
