<?xml version="1.0" encoding="utf-8"?>
<!-- Generator: Adobe Illustrator 25.2.1, SVG Export Plug-In . SVG Version: 6.00 Build 0)  -->
<svg version="1.1" id="圖層_1" xmlns="http://www.w3.org/2000/svg" xmlns:xlink="http://www.w3.org/1999/xlink" x="0px" y="0px"
	 viewBox="0 0 437.8 117.2" style="enable-background:new 0 0 437.8 117.2;" xml:space="preserve">
<style type="text/css">
	.st0{enable-background:new    ;}
</style>
<g id="Group_217" transform="translate(-185 -167)">
	<g class="st0">
		<path d="M189.3,194.5c2.5-3.1,5.1-6,7.8-8.8c2.7-2.8,4.5-4.2,5.3-4.2c0.4,0,0.8,0.2,1,0.6c0.2,0.4,0.4,0.8,0.4,1.2
			c0,0.9-0.4,1.9-1.1,2.9c-0.7,1.1-1.7,2.3-2.9,3.6c-1.1,1.3-1.7,2.1-1.7,2.2c0,0.5,0.2,1.1,0.6,1.9c0.5,1.1,0.8,2.6,1,4.8
			c0.2,2.1,0.3,4.1,0.3,6c0,3.7-0.3,7.4-0.8,11.2c-0.6,3.7-1.8,5.6-3.7,5.6c-0.4,0-0.8-0.1-1.1-0.4c-0.3-0.2-0.7-0.6-1.1-1.1
			c0-2.3,0.1-5,0.4-7.9c0.2-3.4,0.3-6,0.3-7.8c0-4-0.2-6.4-0.6-7.1c-0.6,0.8-1.6,1.8-3,2.9c-1.4,1.1-2.5,1.6-3.3,1.6
			c-0.4,0-0.7-0.1-1-0.4c-0.3-0.3-0.5-0.6-0.5-1C185.6,199.5,186.9,197.6,189.3,194.5z M209.4,210.4c3-4.6,4.8-7.2,5.3-7.6
			c0.7-0.6,1.2-0.8,1.7-0.8c0.4,0,0.8,0,1,0.1c0.2,0.1,0.4,0.3,0.4,0.7c0,1.2-0.7,3.3-2,6.3c-1.3,3-2.8,5.7-4.4,8.1
			c-1.6,2.4-3,3.6-4.2,3.6c-0.6,0-1.2-0.3-1.7-0.9c-0.5-0.6-0.7-1.2-0.7-1.9C204.9,217.6,206.4,215.1,209.4,210.4z M209.2,188.5
			c0.4-1,0.9-1.9,1.2-2.7c0.4-0.8,0.7-1.4,0.9-1.8c1.3-2.5,2.1-4.2,2.3-4.9c0.1-0.4,0.3-1.2,0.5-2.2c0.2-1,0.6-1.7,1-2.1
			c0.2-0.2,0.5-0.3,0.9-0.3c0.7,0,1.2,0.2,1.5,0.5c0.3,0.4,0.5,0.9,0.6,1.7c0.1,0.8,0.4,1.2,0.9,1.2c0.4,0,0.9-0.1,1.5-0.2
			c0.5-0.2,0.9-0.3,1-0.3c4.5-1.4,8.1-2.2,10.8-2.2c1,0,1.9,0.4,2.8,1.2c0.9,0.8,1.3,1.7,1.3,2.7c0,0.6-0.2,1.5-0.7,2.8
			c-0.5,1.2-1.1,2.4-1.8,3.3c-0.7,1-1.4,1.5-2.1,1.5c-0.8,0-1.2-0.6-1.2-1.7c0-0.4,0-0.9,0.1-1.2c0.1-0.4,0.1-0.8,0.1-1.2
			c0-0.4,0-0.7-0.1-0.8c-1.7,0.3-4.2,0.7-7.3,1.4c-3.2,0.7-5.1,1.2-5.8,1.6c-0.4,0.3-0.8,0.7-1.2,1.2c-0.3,0.6-0.7,1.3-1.2,2.2
			c-0.7,1.4-1.3,2.5-2,3.3c-0.6,0.8-1.5,1.2-2.5,1.2c-0.6,0-1.1-0.2-1.5-0.5c-0.4-0.3-0.6-0.8-0.6-1.4
			C208.5,190.2,208.8,189.5,209.2,188.5z M222.4,207.8c-0.1-0.9-0.1-2.2-0.1-3.8c0-7.1,1-10.6,3-10.6c0.5,0,0.9,0.1,1.2,0.4
			c0.2,0.2,0.7,3.6,1.5,10c0.8,6.4,1.2,10.4,1.2,11.7c0,3-0.3,5.7-0.9,8.1c-0.6,2.3-2,3.5-4.2,3.5c-2.1,0-3.6-1.4-4.6-4.2
			c-1-2.8-1.5-5.6-1.5-8.2c0-2.3,0.8-3.4,2.4-3.4c0.6,0,0.9,0.1,1.1,0.4c0.2,0.3,0.4,0.4,0.5,0.4c0.3,0,0.4-0.1,0.4-0.3L222.4,207.8
			z M229.4,201.5c0.3,0,0.7,0.2,1,0.5c0.4,0.3,0.7,0.6,1,0.9c1.1,1,2.8,2,4.9,3.2c2.2,1.1,5.4,2.6,9.5,4.6c0.6,0.3,2,0.9,4.2,2
			c2.2,1.1,3.9,1.9,5.1,2.7c1.2,0.7,1.9,1.3,2.2,1.7c0.3,0.5,0.5,1.1,0.5,1.7c0,1.1-0.3,1.9-1,2.4c-0.6,0.6-1.5,0.8-2.5,0.8
			c-1.1,0-2.4-0.4-3.8-1.2l-3.8-2c-2.4-1.2-4.4-2.2-6-3.2c-1.6-1-3.2-2.1-4.6-3.4c-0.3-0.2-1.1-1-2.5-2.2c-1.4-1.2-2.5-2.5-3.5-3.8
			c-0.9-1.3-1.4-2.4-1.4-3.4C228.7,201.9,228.9,201.5,229.4,201.5z"/>
		<path d="M273.5,209c-0.5-0.2-0.7-0.7-0.7-1.5c0-0.6,0.3-1.3,0.8-2.3c0.6-1,0.9-1.8,0.9-2.5c0-0.4-0.1-0.7-0.3-0.9
			c-0.2-0.2-0.5-0.4-1-0.7c-0.6-0.4-1.1-0.8-1.5-1.3c-0.4-0.5-0.5-1.2-0.5-2.2c0-1.9,0.6-3.5,1.7-4.8c1.1-1.3,2.6-2,4.5-2
			c2.5,0,3.8,1.2,3.8,3.7c0,3.3-0.4,6.6-1.2,9.9c-0.8,3.3-2.4,5-4.6,5C274.7,209.4,274,209.3,273.5,209z"/>
		<path d="M337.9,203c-1,0.8-2.3,1.3-4.1,1.6c-2.4,0.4-4.8,0.7-7.3,0.8c-2.5,0.1-5.4,0.2-8.7,0.2h-6.4c-3.2,0-6.2-0.3-9.2-1
			c-3-0.7-4.4-2-4.4-4.1c0-0.7,0.4-1.3,1.1-1.9c0.6-0.6,3.4-1.1,8.3-1.6c5-0.5,10.3-1,16.1-1.3c5.8-0.4,9.7-0.5,11.6-0.5
			c1.6,0,2.7,0.3,3.4,0.9c0.7,0.6,1,1.7,1,3.3C339.4,201,338.9,202.3,337.9,203z"/>
		<path d="M342.9,235.4c-0.2-0.4-0.3-0.8-0.3-1.5c0-8.7,0.6-14.1,1.9-16.4c0.4-0.7,1.1-1.4,2.2-2.3c1.1-0.9,1.9-1.3,2.6-1.3
			c0.2,0,0.5,0.1,0.8,0.3c0.3,0.2,0.5,0.5,0.6,0.7c-1.1,1.6-1.7,2.7-2,3.2c-0.3,0.7-0.5,2.7-0.7,5.9c-0.2,3.7-0.6,6.6-1.1,8.7
			c-0.5,2.1-1.4,3.1-2.8,3.1C343.5,236,343.1,235.8,342.9,235.4z M347.8,211.5c-0.3-0.4-0.5-0.9-0.5-1.4c0-0.6,0.3-1.2,1-1.8
			c0.6-0.6,1.6-1.3,2.9-2.2c1.5-1,2.6-1.9,3.4-2.6c0.8-0.7,1.2-1.6,1.2-2.5c0-0.1,0-0.3-0.1-0.5c-0.1-0.2-0.1-0.3-0.2-0.3
			c-0.3,0-0.8,0.1-1.5,0.2c-0.7,0.1-1.2,0.2-1.6,0.2c-0.6,0-0.9-0.1-1-0.3c-0.1-0.2-0.2-0.6-0.2-1.2c0-0.6,0.2-1.1,0.5-1.4
			c0.4-0.3,0.9-0.7,1.6-1.1c0.9-0.6,1.5-1.1,2-1.5c0.4-0.4,0.7-1.1,0.7-2c0-0.3-0.1-0.6-0.2-0.9c-0.1-0.3-0.3-0.5-0.6-0.5
			c-0.1,0-0.4,0.2-0.8,0.5c-0.4,0.3-0.9,0.5-1.2,0.5c-0.3,0-0.7-0.2-1.1-0.7c-0.4-0.4-0.6-0.8-0.6-1.2c0-0.6,0.2-1,0.6-1.4
			c0.4-0.4,1-0.8,1.9-1.2c0.7-0.4,1.2-0.8,1.5-1c0.3-0.2,0.5-0.5,0.5-0.9c-1.8-1.4-2.9-2.3-3.1-2.8c-0.1-0.3-0.3-0.9-0.5-2
			c-0.2-1.1-0.4-1.6-0.7-1.6c-0.2,0-0.3,0.4-0.4,1.1c-0.1,0.7-0.2,1.3-0.2,1.7c-0.1,2.3-0.3,4.2-0.6,5.7c-0.3,1.5-0.9,2.3-2,2.3
			c-1.2,0-2-0.8-2.4-2.3c-0.4-1.5-0.6-3.1-0.6-4.7c0-2.3,0.3-4.5,0.8-6.6c0.6-2,1.7-3.1,3.4-3.1l1.9,0.1c2.3-2.5,4.3-4.3,6.2-5.4
			c1.9-1.1,4.2-1.7,7.1-1.7c1.6,0,2.8,0.1,3.6,0.2c0.8,0.1,1.5,0.5,2.1,1c0.6,0.6,1.2,1.5,1.7,2.7c0.4,0.9,0.6,2,0.6,3.2
			c0,1-0.1,2.1-0.4,3.4c-0.3,1.3-0.7,1.9-1.4,1.9c-0.2,0-0.4-0.1-0.7-0.2c-0.1-0.5-0.2-1.4-0.3-2.6c-0.1-1.4-0.3-2.6-0.5-3.5
			c-0.2-0.9-0.7-1.6-1.3-2c-0.2,0.2-0.4,0.5-0.5,1c-0.3,1.3-1.5,4-3.7,8.1c-1.3,2.8-2,4.2-2,4.4l0.1,0.2l0.5,0.2
			c0.9,0,2.1-0.5,3.7-1.4c0.2-0.1,0.5-0.3,1-0.6c0.5-0.3,0.9-0.4,1.3-0.4c0.3,0,0.5,0.1,0.7,0.4c0.2,0.2,0.2,0.5,0.2,0.8
			c0,1-0.6,1.9-1.7,2.6c-1.1,0.7-2.6,1.5-4.5,2.2c-1.7,0.7-2.6,1.2-2.7,1.5c-0.1,0.3-0.2,0.9-0.2,1.6c0,0.4,0.2,0.8,0.5,1.2
			s0.7,0.5,1.2,0.5l1.9-0.1c0.9,0,1.5,0.2,1.9,0.6l0.2,0.4c0,0.4-0.2,0.8-0.7,1.2c-0.4,0.4-1.1,0.9-1.9,1.4
			c-0.9,0.6-1.6,1.1-2.1,1.5c-0.5,0.5-0.8,1-0.8,1.5c0,0.3,0.2,0.5,0.6,0.5c2.9-1.4,5.4-2.1,7.6-2.1c0.9,0,1.8,0.2,2.5,0.6
			c0.7,0.4,1.1,1.1,1.1,2c0,1.1-1.4,2.2-4.2,3.6l-2.3,1.1c-8.8,4.3-14.4,6.4-16.7,6.4C348.5,212.2,348.1,211.9,347.8,211.5z
			 M351.4,224.1c0-2.2,0.1-4.2,0.4-5.8c0.3-1.7,1-2.5,2.2-2.5c1.2,0,2,0.9,2.4,2.7c0.4,1.8,0.6,3.7,0.6,5.6c0,1.7-0.2,3.3-0.7,4.9
			c-0.4,1.6-1.2,2.4-2.4,2.4C352.2,231.4,351.4,229,351.4,224.1z M354.7,179.6l1.1,2.6l0.2,0.2c0.6,0,0.8-1.1,0.8-3.4
			c0-0.8-0.1-1.9-0.2-3.2c-0.1-1.3-0.3-2.2-0.5-2.7L356,173c-0.3,0.1-0.8,0.5-1.7,1.2c-0.8,0.7-1.2,1.1-1.2,1.4
			C353.1,175.8,353.6,177.2,354.7,179.6z M359.5,225.1c-0.5-1.6-0.8-3.2-0.8-4.7c0-0.8,0-2,0.1-3.5s0.2-2.4,0.5-2.6
			c0.2-0.3,0.6-0.4,1.2-0.4c0.6,0,1,0.1,1.2,0.4c0.4,0.4,0.8,2.1,1,5c0.2,3,0.3,5.4,0.3,7.2c0,0.4-0.1,0.7-0.2,0.8
			c-0.1,0.1-0.4,0.2-0.8,0.2C360.9,227.5,360.1,226.7,359.5,225.1z M362.3,171.1c-1.3,0.4-2,0.8-2.2,1.2c-0.2,0.2-0.3,1.2-0.3,3.1
			c-0.1,1.8-0.1,3.2-0.1,4.2c0,0.9,0.1,1.3,0.4,1.3c0.4,0,1-0.7,1.9-2.1c0.9-1.4,1.7-2.9,2.4-4.6s1.1-2.7,1.1-3.2
			c0-0.3-0.2-0.5-0.5-0.5C364.5,170.4,363.6,170.6,362.3,171.1z M373.4,220.1c-0.3,0.2-0.7,0.4-1.3,0.4c-0.2,0-0.7-0.5-1.7-1.4
			c-1.1-1.1-2.8-2.4-5.1-4.1c-0.3-0.2-0.5-0.4-0.5-0.7c0-1.2,0.7-1.8,2.2-1.8c0.9,0,1.9,0.3,2.9,1s2,1.5,2.7,2.5s1.1,1.9,1.1,2.8
			C373.8,219.4,373.6,219.8,373.4,220.1z M379.7,227c-0.6-0.7-0.9-1.9-0.9-3.7c0-10.1,1.4-16.2,4.1-18.4c0.6-0.5,1.6-0.9,2.9-1.2
			c1.4-0.3,2.5-0.5,3.5-0.5c1.8,0,3.1,0.8,3.9,2.3c0.8,1.5,1.2,3.3,1.2,5.2c0,1-0.3,2.4-1,4.2c-0.6,1.4-0.9,2.6-0.9,3.6
			c0,0.3,0.2,0.5,0.6,0.5c0.9,0,2-0.2,3.3-0.6c1.4-0.3,2.5-0.5,3.3-0.5c1.6,0,2.9,0.2,3.9,0.5c1,0.3,1.5,1.1,1.5,2.4
			c0,1.4-0.8,2.3-2.4,2.7l-2.9,0.7c-0.3,0.1-1.1,0.2-2.4,0.5c-1.4,0.3-2.6,0.7-3.9,1.2c-3.6,1.4-7.1,2.2-10.4,2.2
			C381.4,228.1,380.3,227.7,379.7,227z M380.2,196c0-2.2,0.2-5.1,0.6-8.8c0.4-3.7,1.1-7,2-10c1-3,2.3-4.5,3.9-4.5
			c0.7,0,1.2,0.2,1.6,0.5c0.4,0.4,0.6,0.9,0.6,1.5c0,0.5-0.1,1-0.2,1.5c-0.3,1.1-0.5,2.1-0.5,3.3c-0.1,1.1-0.1,2.5-0.1,4.2l0.1,0.6
			l0.7,0.1c0.3,0,0.7,0,1-0.1c0.4-0.1,0.7-0.1,1-0.1c1.5,0,2.7,0.2,3.5,0.6c0.9,0.4,1.3,1.2,1.3,2.6c0,1.3-0.9,2-2.7,2.2
			c-1.4,0.2-2.5,0.5-3.5,0.8c-0.9,0.3-1.9,0.8-2.8,1.5c-0.1,0.4-0.3,1.5-0.7,3.2s-0.8,3.1-1.5,4.2c-0.6,1.2-1.4,1.7-2.4,1.7
			C380.9,201,380.2,199.3,380.2,196z M385.9,216.2c1.1-2.3,1.7-3.7,1.7-4.2c0-0.6,0.2-1.2,0.6-1.9c0.2-0.4,0.3-0.8,0.3-1
			c0-0.3-0.1-0.5-0.3-0.7c-0.2-0.2-0.4-0.3-0.7-0.3c-0.5,0-1.1,0.2-1.7,0.7c-1.1,0.7-1.8,1.5-2.2,2.4c-0.4,0.9-0.5,2.1-0.5,3.5
			c0,0.7,0.1,1.7,0.2,3c0.1,1.3,0.3,1.9,0.6,1.9C384.1,219.6,384.8,218.5,385.9,216.2z"/>
		<path d="M443.8,220.8c-4.8,0-9.1-0.3-12.8-0.9c-3.7-0.6-7.1-1.9-10.1-3.9c-3-2-5.1-5.1-6.2-9c-0.2-0.8-0.4-1.2-0.8-1.2
			c-0.4,0-1.9,0.8-4.4,2.5c-2.5,1.7-3.7,2.7-3.7,2.9c0,0.3,0.3,0.4,0.8,0.5c0.5,0.1,1,0.1,1.3,0.2c0.3,0.1,0.5,0.2,0.5,0.5
			c0,0.3-0.2,0.6-0.5,0.9c-0.4,0.2-0.7,0.4-1.1,0.4c-1.1,0-2.1-0.3-3.1-0.8c-1-0.5-1.5-1.3-1.5-2.3c0-1.2,0.6-2.5,1.7-3.9
			c1.1-1.4,2.9-3.1,5.2-5.4c1.7-1.5,2.9-2.8,3.8-3.7c0.9-0.9,1.3-1.7,1.3-2.4c0-0.9,0.3-2.4,0.8-4.6c0.5-2.2,1.2-4.1,2-5.9
			c0.8-1.7,1.6-2.6,2.4-2.6c0.2,0,0.3,0.1,0.5,0.2c0.1,0.1,0.2,0.3,0.2,0.5l-0.1,3.5c0,2.1,0.1,3.4,0.4,3.9h0.3
			c0.3,0,0.8-0.2,1.3-0.5c1.8-1.1,3.3-2.2,4.6-3.2c1.3-1,2-2,2.2-3c0.1-0.4,0.1-1.1,0.2-2.2c0.1-1.1,0.3-1.9,0.7-2.6s0.9-1,1.7-1
			c0.7,0,1.1,0.2,1.4,0.6c0.3,0.4,0.5,1,0.7,1.8c0.2,0.7,0.3,1.1,0.5,1.5c0.2,0.3,0.5,0.5,0.9,0.5c0.6,0,1.2-0.1,1.9-0.3
			c0.7-0.2,1.1-0.4,1.3-0.4c1.2-0.5,2.3-0.7,3.2-0.7c1.8,0,2.9,0.4,3.5,1.1c0.6,0.7,0.8,2.1,0.8,3.9c0,1.3-0.2,3.3-0.5,6
			c-0.4,2.7-0.9,5.1-1.6,7.3c-0.7,2.2-1.6,3.2-2.7,3.2c-0.8,0-1.4-0.6-1.6-1.9c-0.2-1.2-0.3-3-0.3-5.4c0-1.6,0-2.8-0.1-3.6
			c-0.1-0.8-0.3-1.3-0.6-1.5c-0.7,0.2-1.2,0.8-1.5,2c-0.3,1.2-0.5,3-0.7,5.5c-0.2,2.5-0.4,4.5-0.7,6.1c-0.3,1.6-0.8,2.8-1.6,3.7
			c-1.2,1.3-2.2,1.9-3.2,1.9s-1.5-0.7-1.5-2.1c0-1.2,0-2.2,0.1-3c0.1-0.9,0.1-1.6,0.2-2.2c0.2-1.7,0.2-3.4,0.2-5.1
			c0-1.1-0.2-1.7-0.5-1.7c-0.4,0-1.6,0.8-3.7,2.3c-2.1,1.5-3.5,2.6-4.2,3.3c0.1,2,0.3,3.7,0.6,4.9c0.3,1.2,0.9,2.4,1.9,3.4
			c1.8,1.7,4.1,2.8,7,3.3c2.9,0.5,6.3,0.7,10.2,0.7l4.3-0.1c1.9-0.1,3.3-0.2,4.4-0.2c2.1,0,3.8,0.2,5.2,0.7c1.4,0.4,2,1.5,2,3.2
			C456.5,219.3,452.3,220.8,443.8,220.8z"/>
		<path d="M473.8,229.8c0-1.1,0.1-2.1,0.2-3.1c0.9-5.9,1.3-13.7,1.3-23.4c0-4.4-1-6.6-2.9-6.6c-0.8,0-1.7,0.7-2.7,2.2
			c-1,1.5-2.2,3.6-3.7,6.4c-1.7,3.2-3.1,5.5-4.2,7c-1.1,1.5-2,2.3-3,2.3c-0.7,0-1.2-0.2-1.6-0.7c-0.4-0.5-0.6-1.1-0.6-1.8
			c0-2.6,1.1-5.5,3.2-8.8c2.1-3.3,5-7.2,8.5-11.7c1.7-2.2,2.9-3.7,3.7-4.8c0.7-1,1.1-1.8,1.2-2.3l-0.1-0.2c-0.2-0.1-0.6-0.2-1-0.2
			c-0.4,0-1,0.1-1.5,0.2c-0.6,0.1-1,0.2-1.2,0.2c-1.2,0.3-2.1,0.5-2.7,0.5c-0.4,0-0.8-0.2-1.1-0.6c-0.3-0.4-0.5-0.8-0.5-1.2
			c0-1.1,1.2-2.3,3.5-3.6c2.4-1.3,5-2.4,8-3.4c3-0.9,5-1.4,6.2-1.4c0.9,0,1.9,0.1,2.9,0.4c1,0.3,1.5,0.8,1.5,1.5
			c0,0.9-0.6,1.7-1.7,2.5c-1.2,0.8-2.2,1.4-3.2,1.8c-1,0.4-1.6,0.7-1.8,0.8c-0.9,0.4-1.5,0.9-1.9,1.5c-0.4,0.6-0.8,1.4-1.2,2.4
			c-0.4,1-0.7,1.7-0.9,2c-0.6,1-0.8,1.8-0.8,2.4c0,0.1,0.1,0.2,0.3,0.3c0.2,0.1,0.4,0.2,0.4,0.2c1.2,0.5,2.8,0.9,4.6,1.2l2.1,0.4
			l2.3,0.4c0.5,0.1,1.2,0.2,2.2,0.4l3.2,0.7c0.3,0.1,1.2,0.3,2.9,0.7c1.7,0.4,3.3,0.6,4.9,0.6c0.8,0,1.9,0.3,3.1,0.8
			c1.2,0.5,2.3,1.2,3.2,2c0.9,0.8,1.4,1.6,1.4,2.5c0,1.1-0.4,1.8-1.2,2.3c-0.8,0.5-1.7,0.7-2.8,0.7c-1.7,0-4.1-0.4-7.2-1.1
			c-3.2-0.7-5.8-1.5-7.8-2.3c-0.3-0.1-1.2-0.4-2.7-1c-1.5-0.6-2.7-0.8-3.4-0.8l-0.3,0.1l-0.1,0.4c0,0.9,0.1,1.9,0.2,2.9
			c0.2,1.1,0.3,1.7,0.3,2.1c0.3,1.7,0.5,2.9,0.6,3.6c0.2,2.4,0.3,4.3,0.3,5.6c0,2-0.3,4.9-0.8,8.8c-0.1,0.7-0.2,1.4-0.2,2.1
			c-0.3,3.1-0.7,5.6-1.2,7.4s-1.5,2.7-3,2.7C474.9,233.7,473.8,232.4,473.8,229.8z"/>
		<path d="M516.4,178.1c1-0.7,2-1.1,3.1-1.1c1.7,0,2.9,0.7,3.6,2.2s1,3.2,1,5.1c0,1.8-0.2,3.2-0.6,4.2c-0.4,1-1.2,2.3-2.3,3.9
			c-0.5,0.7-0.9,1.2-1.1,1.5c0.2,0.8,0.6,1.2,1.2,1.2c0.2,0,0.7-0.2,1.4-0.5c0.7-0.4,1.3-0.5,1.9-0.5c0.8,0,1.4,0.2,2,0.5
			c0.5,0.3,0.8,0.9,0.8,1.6c0,0.9-0.3,1.6-0.8,2.2c-0.5,0.6-1.3,1.2-2.3,1.8c-1.2,0.7-1.8,1.3-1.8,1.8s0,1,0.1,1.5
			c0.1,0.5,0.1,1,0.1,1.5c0,4.1-0.6,8.1-1.7,12.2c-1.1,4-3.2,6-6.1,6c-0.3,0-0.7-0.1-1-0.3c-0.4-0.2-0.5-0.4-0.5-0.7
			c0-0.4,0.1-1,0.4-1.5c0.3-0.6,0.5-1,0.6-1.1c0.8-1.6,1.5-3.8,2.2-6.7c0.7-2.8,1-5.1,1-6.8c0-0.6-0.1-1.2-0.2-1.7l-0.3-0.2
			c-0.8,0.1-1.6,0.3-2.4,0.7c-0.8,0.4-1.7,1.1-2.8,2c-1.1,0.8-2,1.5-2.7,1.9c-0.7,0.4-1.5,0.7-2.2,0.7c-0.6,0-1-0.3-1.4-1
			c-0.4-0.7-0.6-1.3-0.6-1.9c0-1.1,0.7-2.1,2.1-3.1c1.4-1,3.4-2.1,5.9-3.4c2.4-1.2,3.7-1.9,3.7-2.3c0-0.4-0.3-1-0.8-1.7
			c-0.7-0.9-1.1-1.7-1.1-2.3c0-0.2,0.2-0.6,0.5-1.1c0.3-0.5,0.5-0.9,0.6-1c0.9-1.4,1.6-2.8,2.2-4.1c0.6-1.3,0.9-2.6,0.9-3.9
			c0-0.9-0.2-1.5-0.7-2l-0.2-0.1c-0.2,0-0.4,0.2-0.7,0.6c-0.2,0.4-0.5,0.6-0.9,0.6c-0.4,0-0.7-0.1-0.9-0.2c-0.1-0.7-0.2-1.2-0.2-1.5
			C514.9,179.7,515.4,178.8,516.4,178.1z M531.5,202.3c0.4-1.3,1.3-3.6,2.8-6.9c1.5-3.3,3-6.2,4.6-8.8c1.6-2.6,2.9-3.9,3.9-3.9
			c0.3,0,0.5,0.1,0.7,0.3c0.2,0.2,0.3,0.4,0.3,0.7c0,0.3-0.1,0.6-0.4,1c-1.7,2.4-3.1,5.3-4.2,8.7c-1.1,3.4-2.4,7.5-3.7,12.4
			c-0.1,0.3-0.3,1.1-0.5,2.4c-0.2,1.2-0.6,2.3-1,3.2c-0.4,0.9-0.9,1.3-1.5,1.3c-0.6,0-1,0-1.2-0.1l-0.4-0.3
			c-0.3-0.8-0.5-1.5-0.5-2.3C530.3,207.7,530.7,205.2,531.5,202.3z M536.7,177c1.9-1.3,4.1-2.4,6.6-3.3c2.4-0.9,4.2-1.4,5.3-1.4
			c0.9,0,1.8,0.2,2.5,0.7c0.7,0.5,1.1,1.2,1.1,2.2c0,0.7-0.5,1.4-1.6,2.2c-1.1,0.7-2,1.1-2.7,1.1c-1,0-2,0.1-2.9,0.4
			c-0.9,0.3-2.1,0.7-3.5,1.2c-1.3,0.6-2.4,1-3.4,1.3c-1,0.3-2,0.5-3,0.5c-0.4,0-0.7-0.1-0.9-0.3c-0.2-0.2-0.3-0.5-0.3-0.9
			C533.8,179.4,534.8,178.2,536.7,177z M539.5,204.9c1.4-3.1,2.8-6,4.4-8.6c1.5-2.7,2.7-4,3.4-4c0.5,0,0.9,0.2,1.2,0.7
			c0.3,0.4,0.4,0.9,0.4,1.4c0,0.6-0.7,2.4-2,5.4c-1.9,4.1-2.9,6.9-3,8.5c0.6,0,1.8-0.8,3.6-2.5c1.8-1.7,3.1-2.6,3.7-2.6
			c1.2,0,1.8,1.2,1.8,3.6c0,0.8,0.1,1.7,0.3,2.6c0.2,0.9,0.4,1.5,0.4,1.7c0.5,1.7,0.7,3.1,0.7,4.2c0,0.9-0.4,1.4-1.2,1.4
			c-0.9,0-1.8-0.5-2.5-1.6c-0.7-1.1-1.1-2-1.1-3c0-0.7-0.2-1.1-0.5-1.1c-0.2,0-0.8,0.4-2,1.2c-2.2,1.7-3.7,2.5-4.6,2.5
			c-0.9,0-2-0.4-3.2-1.3c-1.2-0.9-1.9-1.8-1.9-2.7C537.5,210,538.1,208,539.5,204.9z M571.2,228.3c-1.8-2.4-3.5-5.2-5.1-8.3
			c-1.6-3.2-3.5-7.2-5.7-12.2c-2.3-5.3-3.8-8.5-4.6-9.6L550,189c0.1-0.6,0.2-1.2,0.5-1.9c0.3-0.7,0.7-1,1.2-1
			c3.3,0,7.9,6.1,13.7,18.2c0.7,1.3,1.1,2.3,1.4,3c1.5,3.2,2.8,5.7,3.8,7.6c1,1.9,2.1,3.8,3.3,5.6l1.2,1.7c2.5,3.4,3.8,5.9,3.8,7.3
			c0,0.7-0.3,1.2-0.8,1.7c-0.5,0.5-1.1,0.7-1.8,0.7C574.7,231.9,573,230.7,571.2,228.3z"/>
		<path d="M620.4,216.5c-1.9,0.4-3.7,0.7-5.4,1c-7.9,1.4-12,2.3-12.4,2.7c-0.5,0.4-0.8,1.3-0.9,2.7c-0.1,1.3-0.1,3-0.1,5.1l0.1,4.6
			c0,8.1-1.2,12.1-3.7,12.1c-1,0-1.6-0.5-1.9-1.4c-0.3-0.9-0.4-2-0.4-3.4c0-1.4,0.1-3,0.2-4.8c0.1-1.8,0.2-3.1,0.2-3.8
			c0.3-3.2,0.4-6.1,0.4-8.6c0-1-0.4-1.5-1.1-1.5c-1.1,0-2.2,0.1-3.5,0.2c-1.3,0.1-2.2,0.2-2.7,0.2c-2.8,0.3-4.8,0.5-6.2,0.5
			c-1.3,0-2.5-0.2-3.4-0.5c-1-0.3-1.5-1-1.5-2c0-0.9,0.4-1.6,1.2-2.2c0.6-0.4,3.6-1.1,9-1.8c3.5-0.5,5.7-0.9,6.5-1.2
			c0.7-0.2,1.2-0.5,1.6-0.8s0.5-0.9,0.5-1.6c0-0.5-0.1-0.8-0.4-1c-0.2-0.2-0.7-0.3-1.2-0.3c-2.8,0-4.7-0.8-5.8-2.4
			c-1.1-1.6-1.7-3.8-1.7-6.7c0-4.3,0.7-7.7,2.2-10c1.5-2.4,4.2-3.6,8.3-3.6c3.7,0,6.9,0.6,9.5,1.9c2.6,1.3,3.9,3.6,3.9,7
			c0,1.9-0.6,4-1.7,6.4c-1.2,2.4-2.5,4.1-3.9,5.4c-0.2,0.2-0.6,0.4-1.3,0.8c-0.7,0.4-1.2,0.7-1.7,1c-0.4,0.3-0.6,0.6-0.6,1
			c0,0.3,0.1,0.5,0.3,0.7c0.2,0.2,0.5,0.3,0.7,0.3c0.3,0,0.5,0,0.7-0.1c0.2-0.1,0.4-0.1,0.5-0.2c3.7-0.9,7.6-1.3,11.5-1.3
			c1.8,0,3.4,0.2,4.7,0.6c1.3,0.4,2,1.3,2,2.7C622.8,215.2,622,216,620.4,216.5z M580.5,181.2c0-0.4-0.1-1.1-0.2-2
			c-0.2-0.7-0.2-1.3-0.2-2c0-1.8,0.2-3.5,0.5-5.2c0.3-1.7,1-2.6,2-2.6c0.4,0,0.8,0.1,1.1,0.4c0.3,0.2,0.6,0.6,0.8,1.1
			c0.3,0.5,0.6,0.7,0.8,0.7c0.6,0,1.2-0.1,1.9-0.2c0.8-0.1,1.4-0.2,1.8-0.2c1.1,0,1.9,0.4,2.5,1.1c0.6,0.7,0.8,1.7,0.8,2.9
			c0,4-2.4,7.5-7.1,10.5c-0.8,0.5-1.5,0.7-2.1,0.7C581.4,186.4,580.5,184.7,580.5,181.2z M587.4,178.2c0.3-0.6,0.5-1.2,0.5-1.6
			c0-0.4-0.1-0.7-0.2-0.9s-0.5-0.2-0.9-0.2c-0.4,0-0.7,0.2-0.8,0.5c-0.1,0.3-0.2,0.8-0.2,1.3c0,0.3,0,0.7,0.1,1.2
			c0.1,0.5,0.3,0.7,0.5,0.7C586.7,179.2,587.1,178.9,587.4,178.2z M594.6,197c0.6-0.6,0.9-1.2,0.9-1.7c0-0.2-0.1-0.4-0.2-0.7
			c-0.1-0.2-0.3-0.3-0.5-0.3c-0.2,0-0.6,0.1-1,0.3c-0.4,0.2-0.8,0.4-1,0.6c-0.1,0.2-0.1,0.4-0.1,0.8c0,0.8,0.1,1.4,0.2,1.7l0.2,0.1
			C593.5,198,594,197.7,594.6,197z M595.8,204.6c0.9-0.3,1.4-0.7,1.4-1.2c0-0.7-0.6-1.1-1.7-1.1c-1.1,0-2,0.8-2.8,2.3
			c0,0.3,0.2,0.5,0.7,0.5C594.1,205.1,594.9,204.9,595.8,204.6z M601.3,182.1c-0.5-1.5-0.7-3.1-0.7-4.9c0-0.8,0.3-2.2,0.8-4
			s1.1-2.7,1.7-2.7c0.2,0,0.3,0,0.5,0.1c0.2,0.1,0.4,0.1,0.5,0.1c0.6-0.1,1.4-0.4,2.7-0.9c0.4-0.2,0.9-0.4,1.5-0.6
			c0.6-0.2,1.1-0.3,1.6-0.3c1.3,0,2.3,0.5,2.9,1.5c0.7,1,1,2.2,1,3.5c0,0.8-0.3,2-0.9,3.6c-0.6,1.5-1.4,2.9-2.3,4.1
			c-0.9,1.2-1.8,1.7-2.7,1.7c-0.3,0-0.5-0.1-0.7-0.2c-0.4,0-0.9,0.2-1.6,0.7c-0.7,0.4-1.2,0.7-1.7,0.7
			C602.7,184.3,601.8,183.6,601.3,182.1z M601.5,196.8c0.2,0.4,0.5,0.6,0.9,0.6c0.8,0,1.4-0.3,2-1c0.5-0.7,0.8-1.4,0.8-2.2
			c0-0.2-0.1-0.3-0.3-0.4c-0.2-0.1-0.4-0.2-0.5-0.2c-0.7,0-1.4,0.2-2.1,0.6c-0.7,0.4-1.1,0.9-1.1,1.5
			C601.2,196,601.3,196.4,601.5,196.8z M604,203.7c0.7-0.4,1-0.7,1-1.1c0-0.3-0.1-0.5-0.3-0.7c-0.2-0.2-0.5-0.3-0.7-0.3
			c-0.4,0-0.9,0.3-1.3,0.8c-0.4,0.5-0.7,1-0.7,1.5c0,0.3,0.2,0.5,0.5,0.5C602.8,204.3,603.3,204.1,604,203.7z M606.4,177.7
			c0.4,0,0.9-0.4,1.3-1.1c0.4-0.7,0.6-1.3,0.6-1.7c0-0.2-0.1-0.4-0.4-0.6c-0.3-0.2-0.6-0.3-0.8-0.3c-0.7,0-1.1,0.8-1.1,2.5
			C606,177.3,606.1,177.7,606.4,177.7z"/>
	</g>
	<g class="st0">
		<path d="M185.1,269.4c0.1-0.2,0.7-0.5,1.7-0.8c1-0.3,1.7-0.5,2-0.5c0.4,0,0.5,0.2,0.5,0.5c0,0.3-0.1,0.6-0.3,0.7
			c-0.2,0.2-0.7,0.5-1.5,0.9c-0.8,0.4-1.3,0.6-1.6,0.6c-0.7,0-1-0.3-1-0.9C185,269.7,185,269.5,185.1,269.4z M187.4,265.5
			c0.5,0,1.1,0.1,1.6,0.2c0.5,0.1,0.7,0.4,0.7,0.8c0,0.3-0.1,0.4-0.2,0.5s-0.4,0.1-0.8,0.2c-0.4,0.1-0.7,0.1-0.9,0.2
			c-0.2,0.1-0.5,0.2-0.6,0.5c-0.2,0.3-0.4,0.4-0.6,0.4c-0.4,0-0.6-0.1-0.7-0.3c-0.1-0.2-0.1-0.5-0.1-0.9
			C185.7,266.1,186.2,265.5,187.4,265.5z M196,250c0.2-0.3,0.5-0.4,0.9-0.4c0.6,0,1,0.2,1.2,0.7c0.2,0.5,0.3,1.1,0.3,1.9
			c0,0.5,0.1,0.9,0.1,1.1c0.1,0.2,0.2,0.4,0.3,0.5c0.2,0,0.5-0.1,1-0.2c0.6-0.2,1-0.2,1.3-0.2c0.4,0,0.8,0.1,1.2,0.2
			s0.5,0.4,0.5,0.8c0,0.2,0,0.3-0.1,0.5c-0.1,0.1-0.2,0.3-0.4,0.5c-0.2,0.2-0.3,0.3-0.4,0.5c0,0.1,0,0.2,0.1,0.4
			c0.1,0.2,0.1,0.3,0.1,0.4c0,0.2-0.1,0.4-0.2,0.6c-0.1,0.3-0.2,0.5-0.2,0.6s0.1,0.3,0.4,0.5s0.4,0.3,0.6,0.5s0.2,0.4,0.2,0.6
			c0,0.2-0.1,0.4-0.4,0.7c-0.3,0.2-0.6,0.5-1.1,0.8c-0.3,0.2-0.6,0.4-0.8,0.6c-0.2,0.2-0.4,0.4-0.4,0.5c0,0.2,0.2,0.3,0.7,0.3
			c0.2,0,1.2,0.4,3,1.2c0.2-0.8,0.5-1.5,0.9-2.2s0.8-1.1,1.4-1.1c0.2,0,0.3,0.1,0.4,0.2s0.2,0.3,0.2,0.5c0,0.2-0.4,0.8-1.1,1.8
			c-0.5,0.8-0.8,1.2-0.8,1.2c0,0.1,0.4,0.4,1.1,0.9c1.3,0.8,1.9,1.4,1.9,1.7c0,0.7-0.2,1-0.7,1c-0.4,0-0.9-0.2-1.5-0.5
			c-0.6-0.3-1.3-0.8-2.4-1.5c-0.8-0.6-1.5-1-2-1.3c-0.5-0.3-1-0.4-1.3-0.4c-0.2,0-0.4,0.1-0.6,0.4c-0.2,0.2-0.4,0.6-0.7,1.1
			c-0.3,0.6-0.6,1-0.8,1.2c-0.2,0.2-0.5,0.4-0.7,0.4c-0.1,0-0.2-0.1-0.4-0.2c-0.2-0.1-0.3-0.2-0.4-0.2c-0.1,0-0.3,0-0.6,0.1
			c-0.2,0.1-0.4,0.1-0.6,0.1c-0.2,0-0.5-0.1-0.8-0.2c-0.3-0.1-0.5-0.2-0.7-0.3l-0.1,0c-0.1,0.4-0.2,0.9-0.3,1.5
			c-0.1,0.5-0.1,0.9-0.1,1.1c-0.4,3.3-1.1,6.9-2,10.8c-0.1,0.3-0.2,0.5-0.3,0.7c-0.1,0.2-0.3,0.3-0.6,0.3c-0.4,0-0.6-0.2-0.7-0.6
			c-0.1-0.4-0.2-0.9-0.2-1.4c0-3.3,0.3-6.7,1-10.2l0.2-1.5c0.2-1.2,0.3-2,0.4-2.3c0.1-0.3,0.1-0.6,0.2-0.9c0-0.3,0.1-0.6,0.1-0.7
			c0.1-0.7,0.1-1.2,0.2-1.4l0.2-0.9c0.3-1,0.4-1.8,0.4-2.4c0-0.1-0.1-0.3-0.3-0.6c-0.2-0.3-0.3-0.6-0.3-0.9c0-0.3,0.1-0.6,0.3-0.8
			c0.2-0.2,0.5-0.3,0.9-0.5l3.5-1.4c0.1-0.1,0.2-0.3,0.2-0.5c0-0.3-0.1-0.5-0.2-0.8c-0.1-0.3-0.2-0.4-0.2-0.5
			c-0.3-0.6-0.4-1-0.4-1.3C195.7,250.6,195.8,250.3,196,250z M198.4,267.6c1-0.7,2.2-1,3.7-1c1.6,0,2.4,0.9,2.4,2.6
			c0,0.3-0.1,0.6-0.2,1c-0.1,0.5-0.2,0.8-0.2,1.1c0,0.1,0.1,0.3,0.2,0.6c0.1,0.3,0.2,0.5,0.2,0.6c0,0.2-0.1,0.4-0.2,0.5
			c-0.2,0.1-0.4,0.2-0.7,0.3c-0.4,0.2-0.8,0.3-1,0.5c-0.2,0.2-0.3,0.5-0.3,1c0,0.2,0,0.3,0,0.4c0,0.1,0.1,0.2,0.2,0.3
			c0.1,0.2,0.5,0.4,1.1,0.6c0.6,0.2,1.5,0.5,2.7,0.8c2.3,0.7,4.1,1.3,5.4,1.8s1.9,1.1,1.9,1.7c0,0.4-0.1,0.8-0.3,1.1
			c-0.2,0.3-0.5,0.5-0.9,0.5c-0.5,0-1.5-0.3-3-1c-1.5-0.7-2.7-1.2-3.4-1.7c-0.5-0.4-0.9-0.6-1.1-0.8c-0.1-0.1-0.5-0.4-1.2-0.8
			c-0.6-0.5-1.1-0.7-1.3-0.7h-0.1c-0.2,0.3-0.3,1-0.4,2.1c-0.1,1.1-0.2,2-0.4,2.6c-0.2,0.6-0.5,0.9-1,0.9c-0.6,0-0.9-0.8-0.9-2.5
			c0-1.1,0.1-2,0.3-2.7c0.1-0.3,0.1-0.5,0.1-0.5c0-0.1,0-0.1-0.1-0.2c-0.1-0.1-0.1-0.1-0.2-0.1c-0.3,0.2-0.7,0.6-1.1,1.1
			c-0.5,0.5-0.7,0.9-0.9,1c-0.8,1-1.4,1.7-2,2.3c-0.6,0.5-1,0.8-1.5,0.8c-0.2,0-0.4-0.1-0.6-0.3c-0.2-0.2-0.3-0.4-0.3-0.6
			c0-0.2,0.4-0.8,1.1-1.7c0.7-0.9,1.5-1.8,2.3-2.7c0.8-0.9,1.4-1.3,1.6-1.4c-0.1-0.1-0.2-0.2-0.4-0.4c-0.2-0.1-0.4-0.3-0.5-0.4
			c-0.2-0.3-0.3-0.8-0.4-1.7c-0.1-0.8-0.2-1.6-0.2-2.1C197,269.3,197.4,268.3,198.4,267.6z M196,260.3c0.5-0.3,1.2-0.7,2.1-1.1
			c0.3-0.1,0.6-0.3,0.8-0.6c0.2-0.2,0.4-0.6,0.6-1c0.1-0.1,0.2-0.3,0.4-0.5c0.2-0.2,0.3-0.4,0.4-0.5c0.2-0.2,0.3-0.3,0.4-0.4l-0.1,0
			c-0.5,0-1,0.1-1.6,0.3c-0.6,0.2-1.2,0.4-1.7,0.6c-1.2,0.4-2,0.7-2.5,0.8c-0.2,0.1-0.4,0.1-0.6,0.3c-0.2,0.2-0.3,0.7-0.4,1.7
			c-0.1,1-0.2,1.8-0.2,2.4c0,0.4,0,0.9,0.1,1.6c0.1,0.5,0.1,0.9,0.1,1.1c0.1,0,0.2-0.1,0.4-0.1c0.1,0,0.3,0,0.5,0
			c0.3,0,0.6,0.1,0.9,0.4c0.3,0.2,0.6,0.4,0.7,0.4c0.1,0,0.2-0.1,0.2-0.2c0.1-0.4,0.2-0.8,0.4-1.3c0.2-0.4,0.4-0.8,0.4-1.2
			c-0.2-0.1-0.4-0.1-0.9-0.1c-0.4,0-0.7-0.1-0.9-0.3c-0.2-0.1-0.3-0.4-0.3-0.8C195.3,261,195.5,260.6,196,260.3z M202.5,268.3
			c-0.1-0.1-0.3-0.1-0.5-0.1c-0.5,0-1.2,0.1-1.9,0.3c-0.7,0.2-1.2,0.4-1.4,0.8c-0.1,0.2-0.2,0.6-0.2,1.1c0,0.3,0.1,0.5,0.2,0.5
			c0.1,0,0.3-0.1,0.4-0.2c0.1-0.1,0.2-0.2,0.2-0.2c0.8-0.6,1.9-1,3.2-1.3c0.1-0.1,0.2-0.2,0.2-0.4
			C202.7,268.5,202.7,268.3,202.5,268.3z M202.1,270.8c-0.2,0-0.6,0.1-1.2,0.4s-1.1,0.6-1.6,0.9c-0.5,0.3-0.7,0.6-0.7,0.8l0.1,0.2
			c0.3,0,1-0.2,2.1-0.7c1.1-0.5,1.6-0.9,1.6-1.1C202.3,271.1,202.3,271,202.1,270.8z"/>
		<path d="M227.2,250.4c0.2-0.1,0.4-0.2,0.6-0.2c0.4,0,0.8,0.1,1,0.3c0.2,0.2,0.4,0.5,0.5,0.9c0.1,0.3,0.2,0.5,0.4,0.6
			c0.1,0.1,0.2,0.2,0.4,0.2c0.2,0,0.5,0,0.9-0.1c0.4-0.1,0.7-0.1,0.9-0.1c0.3,0,0.6,0.1,0.9,0.3c0.3,0.2,0.4,0.5,0.4,0.8
			c0,0.4-0.2,0.7-0.6,0.9c-0.4,0.2-0.8,0.4-1.3,0.4c-0.1,0-0.3,0-0.6,0.1c-0.2,0.1-0.4,0.1-0.4,0.2c0,0.2,0.3,0.3,1,0.5
			c0.7,0.1,1,0.2,1.1,0.2c0.2,0,0.7,0.1,1.5,0.3s1.6,0.5,2.2,0.9c0.6,0.4,0.9,0.9,0.9,1.4c0,0.2-0.1,0.4-0.3,0.7
			c-0.2,0.3-0.4,0.4-0.6,0.4c-0.3,0-0.6-0.1-1-0.2c-0.4-0.2-0.8-0.3-1.3-0.5c-0.8-0.3-1.4-0.6-2-0.8c-0.5-0.2-1.1-0.3-1.6-0.3
			c-0.4,0-0.8,0.2-1.2,0.4c-0.4,0.3-0.8,0.7-1.3,1.3c-0.4,0.4-0.7,0.8-1,1c-0.2,0.2-0.5,0.3-0.7,0.3c-0.2,0-0.4-0.1-0.5-0.3
			c-0.1-0.2-0.2-0.4-0.2-0.6c0-0.7,0.4-1.5,1.2-2.4c0.8-0.9,1.6-1.7,2.5-2.4c-0.1,0-0.3,0-0.4,0c-0.1,0-0.3,0-0.4,0
			c-1.5,0.2-2.6,0.3-3.4,0.4c-0.8,0.1-1.3,0.2-1.5,0.4c-0.3,0.2-0.5,0.9-0.6,2c-0.1,1.1-0.2,2.3-0.3,3.7c-0.1,0.8-0.2,2.5-0.5,5.3
			c-0.3,2.7-0.6,5.2-1,7.5c-0.3,2.3-0.6,3.5-0.8,3.7c-0.1,0.1-0.3,0.2-0.6,0.2c-0.3,0-0.5-0.1-0.6-0.2c-0.1-0.3-0.1-0.7-0.1-1.2
			c0-2.9,0.1-5.3,0.4-7c0.1-0.7,0.2-1.3,0.2-1.6c0-0.2,0-0.4-0.1-0.5c-0.3,0.1-0.7,0.4-1.2,0.7c-0.9,0.6-1.5,0.9-2,0.9
			c-0.5,0-0.7-0.2-0.7-0.7c0-0.4,0.2-0.8,0.5-1.1c0.4-0.3,0.9-0.6,1.5-0.9c0.1,0,0.2-0.1,0.4-0.2s0.4-0.2,0.5-0.3
			c0.1-0.1,0.2-0.2,0.2-0.3l-0.8-0.5c-0.6-0.3-1-0.6-1.3-0.9c-0.3-0.3-0.4-0.6-0.4-1.1c0-0.3,0.1-0.5,0.3-0.7
			c0.2-0.2,0.5-0.3,0.7-0.3c0.3,0,0.8,0.1,1.3,0.3s1,0.4,1.3,0.6c0.3-0.2,0.6-0.9,1-2.2c0.3-1.3,0.7-2.9,1.1-4.8l0.2-1
			c0.1-0.5,0.3-1,0.6-1.3c0.3-0.3,0.6-0.5,1-0.6s0.9-0.2,1.5-0.4c0.7-0.1,1.3-0.2,1.8-0.4l0.1-0.2c0-0.2-0.1-0.4-0.2-0.7
			c-0.1-0.3-0.2-0.5-0.2-0.7C226.9,250.7,227,250.5,227.2,250.4z M224.5,277.9c0.4-1,0.9-1.5,1.6-1.5c0.2,0,0.3,0.1,0.5,0.3
			c0.1,0.2,0.2,0.3,0.2,0.5c0,0.2-0.2,0.9-0.7,2.3c-0.5,1.4-0.8,2.1-0.8,2.1c-0.1,0.1-0.2,0.1-0.4,0.1c-0.3,0-0.5-0.1-0.7-0.2
			c-0.1-0.1-0.2-0.4-0.2-0.7C223.9,279.9,224.1,278.9,224.5,277.9z M225.6,271.7c-0.1-0.4-0.1-1-0.1-1.8c0-1.8,0.1-3.6,0.3-5.4
			c0.2-1.8,0.7-2.6,1.5-2.6c0.2,0,0.3,0.1,0.5,0.3c0.2,0.2,0.3,0.3,0.4,0.4c0.1,0,0.3-0.1,0.5-0.1c0.2,0,0.3-0.1,0.5-0.1
			c0.9,0,1.4,1.2,1.4,3.7v1.5c0,1.1,0,2.2-0.1,3.3c-0.1,1.1-0.3,1.7-0.6,1.7c-0.3,0-0.5-0.1-0.6-0.4c-0.1-0.2-0.2-0.6-0.2-1
			c-0.1-0.4-0.1-0.7-0.2-0.9c-0.1-0.2-0.2-0.3-0.4-0.3c-0.6,0-1,0.1-1.2,0.4c-0.2,0.2-0.3,0.6-0.4,1c-0.1,0.3-0.1,0.5-0.2,0.7
			c-0.1,0.2-0.3,0.2-0.6,0.2C225.8,272.4,225.6,272.2,225.6,271.7z M227.7,267.5c-0.2,0.1-0.3,0.3-0.3,0.4c0,0.2,0.1,0.4,0.4,0.4
			s0.5-0.1,0.8-0.2c0.3-0.1,0.4-0.3,0.4-0.5c0-0.1-0.1-0.2-0.2-0.2s-0.3-0.1-0.4-0.1C228.2,267.4,228,267.4,227.7,267.5z
			 M228.9,265.1c-0.1-0.4-0.2-0.6-0.4-0.6c-0.2,0-0.4,0.2-0.7,0.5c-0.3,0.4-0.4,0.7-0.4,0.9c0,0.3,0.5,0.5,1.5,0.5
			c0.1,0,0.1-0.1,0.1-0.2C229.1,265.9,229,265.6,228.9,265.1z M234.3,274.4c0.1,0.4,0.2,0.8,0.4,1.2c0.2,0.8,0.4,1.4,0.5,1.9
			c0.2,0.4,0.4,0.7,0.8,0.7c0.2,0,0.4,0,0.6,0c0.2,0,0.4,0,0.6,0c0.6,0,0.9,0.3,0.9,0.9c0,0.6-0.4,1.1-1.2,1.5
			c-0.8,0.4-1.5,0.5-2.2,0.5c-2.7,0-4.4-0.7-5.1-2.2c-0.1-0.3-0.2-1.2-0.2-2.7c0-0.9,0.2-1.4,0.6-1.4c0.3,0,0.5,0.1,0.6,0.3
			c0.1,0.2,0.2,0.6,0.3,1.1c0.1,0.7,0.3,1.2,0.5,1.5c0.2,0.4,0.6,0.5,1.2,0.5l0.2,0l0-0.1c0-0.3-0.1-0.6-0.2-1
			c-0.2-0.4-0.3-0.8-0.3-1c0-0.3,0.1-0.7,0.2-1.2c0.1-0.2,0.1-0.5,0.2-0.8l1.3-0.1C234.1,273.8,234.2,274,234.3,274.4z M230.1,259.2
			c0.4-0.2,0.9-0.3,1.4-0.3c0.6,0,1.1,0.2,1.7,0.5c0.6,0.3,0.9,0.7,0.9,1.2c0,0.2-0.1,0.4-0.4,0.5s-0.5,0.2-0.8,0.2
			c-0.2,0-0.4,0-0.6,0c-0.2,0-0.3-0.1-0.4-0.1c-0.4-0.1-0.7-0.1-1.1-0.1c-0.9,0-1.3-0.3-1.3-1C229.4,259.7,229.7,259.4,230.1,259.2z
			 M233.8,265.8c0.2-0.8,0.5-1.2,0.8-1.2c0.7,0,1.1,0.4,1.1,1.1c0,0.6-0.1,1.3-0.3,1.9c-0.2,0.7-0.5,1-0.9,1c-0.3,0-0.5-0.1-0.7-0.3
			c-0.2-0.2-0.3-0.4-0.3-0.7C233.5,267.3,233.6,266.6,233.8,265.8z M236.7,268.2c0-1.2,0-2.2,0.1-3.1c0.1-0.9,0.2-1.7,0.4-2.4
			c0.2-0.5,0.5-0.8,1.1-0.8c0.5,0,0.8,0.2,0.9,0.7c0.1,0.5,0.2,1,0.2,1.7c0,0.9-0.1,2.2-0.3,3.9c-0.2,1.7-0.4,2.6-0.6,2.9
			c-0.2,0.2-0.5,0.4-0.7,0.4c-0.3,0-0.5-0.1-0.8-0.4c-0.2-0.3-0.3-0.6-0.3-0.8V268.2z M237.9,273.6c0.2-0.2,0.3-0.2,0.4-0.2
			c0.4,0,1.1,0.6,2.1,1.8c1,1.2,1.8,2.5,2.6,3.9c0.8,1.4,1.2,2.3,1.2,2.8c0,0.4-0.1,0.6-0.4,0.8c-0.3,0.2-0.6,0.3-1,0.3
			c-0.3,0-0.5-0.1-0.7-0.2c-0.2-0.1-0.4-0.3-0.5-0.6c-0.9-1.3-1.7-2.8-2.6-4.5c-0.9-1.7-1.3-2.9-1.3-3.6
			C237.7,273.9,237.8,273.7,237.9,273.6z"/>
		<path d="M247.7,261c-0.2-0.3-0.3-0.6-0.3-0.9c0-0.7,0.4-1.4,1.1-2.3c0.7-0.9,1.6-1.6,2.6-2.3c1-0.6,1.8-1,2.5-1
			c0.4,0,0.7,0.1,0.8,0.3c0.2,0.2,0.3,0.4,0.3,0.8c0,0.2-0.1,0.4-0.2,0.6c-0.1,0.1-0.3,0.3-0.5,0.3c-0.2,0.1-0.3,0.1-0.4,0.2
			c-0.9,0.5-1.9,1.2-2.9,2c-1,0.8-1.6,1.6-1.8,2.2c0,0,0,0.1,0,0.2c0,0.1-0.1,0.2-0.1,0.3c-0.1,0-0.2,0-0.4,0
			C248.1,261.4,247.8,261.3,247.7,261z M248.7,275.3c-0.2-0.5-0.2-1-0.2-1.8c0-0.4,0.1-1,0.2-1.7c0.1-0.7,0.2-1.3,0.2-1.6
			c0-0.1,0-0.2-0.1-0.3c0-0.1-0.1-0.2-0.1-0.3c0-0.7,0.2-1.8,0.6-3.3c0.4-1.6,0.8-2.7,1.1-3.4s0.8-1.3,1.4-1.7
			c0.7-0.4,1.4-0.7,2.1-0.7c1.4,0,2.3,0.7,2.8,2c0.4,1.3,0.6,2.9,0.6,4.7c0,1.4,0,2.6-0.1,3.7c-0.1,1.1-0.3,2-0.7,2.7
			c-0.2,0.4-0.5,0.8-0.9,1.1c-0.4,0.3-0.9,0.5-1.2,0.5c-0.2,0-0.3,0-0.4-0.1c-0.1-0.1-0.2-0.2-0.4-0.4c-0.1-0.2-0.3-0.3-0.4-0.3
			c-0.1,0-0.3,0.1-0.8,0.3c-0.4,0.2-0.8,0.3-1.1,0.3c-0.2,0-0.5,0.2-0.7,0.5c0,0.1-0.1,0.2-0.3,0.3c-0.1,0.2-0.3,0.3-0.5,0.3
			C249.2,276,248.9,275.8,248.7,275.3z M254.4,270.8c0.7-0.5,1.1-1.3,1.1-2.2c0-0.2,0-0.3-0.1-0.3c0-0.1-0.1-0.1-0.3-0.1
			c-0.4,0-1.2,0.2-2.2,0.5c-1,0.3-1.6,0.6-1.7,0.9c-0.1,0.3-0.2,0.9-0.2,1.8c0,0.7,0.2,1,0.5,1C252.7,271.9,253.7,271.4,254.4,270.8
			z M251.5,266.2c0.2,0,0.5-0.1,0.8-0.3c0.1,0,0.2-0.1,0.4-0.2c0.2-0.1,0.3-0.1,0.4-0.2c0.1,0,0.4,0,0.7,0c0.3,0,0.6,0,0.8-0.1
			s0.4-0.2,0.4-0.4c0-0.4-0.2-0.9-0.4-1.5c-0.3-0.6-0.7-0.8-1.1-0.8c-0.7,0-1.2,0.4-1.6,1.1c-0.4,0.8-0.6,1.5-0.6,2.2
			C251.4,266.1,251.4,266.2,251.5,266.2z M268.8,256.9c1.4,0.4,2.3,1.3,2.8,2.8c0.5,1.5,0.7,3.3,0.7,5.4l0,2.9
			c0,3.2-0.2,6.2-0.7,9.1c-0.5,2.9-1.6,4.3-3.2,4.3c-0.6,0-0.9-0.3-0.9-0.9c0-0.3,0.1-0.7,0.3-1.1c0.2-0.4,0.4-0.6,0.4-0.8
			c0.4-1,0.7-2.2,1-3.6c0.2-1.4,0.3-2.7,0.3-4v-1c-1.4-1-2.6-1.7-3.4-2.1c-0.2-0.1-0.7-0.3-1.5-0.7c-0.9-0.4-1.4-0.8-1.5-1
			c-0.1-0.3-0.2-0.6-0.2-1c0-0.1,0-0.2,0.1-0.3c0-0.1,0.1-0.2,0.1-0.3c0-0.1-0.1-0.2-0.4-0.4s-0.4-0.3-0.6-0.5
			c-0.1-0.2-0.2-0.5-0.2-0.9c0-0.8,0.3-1.9,0.9-3.5c0.6-1.6,1.3-3,2.1-4.2c0.8-1.2,1.6-1.8,2.4-1.8c0.2,0,0.2,0.1,0.2,0.2
			c-0.6,0.9-1.1,1.6-1.4,2.4c-0.4,0.7-0.5,1.5-0.5,2.2c0.2-0.1,0.5-0.3,0.8-0.5c0.3-0.2,0.6-0.4,0.9-0.5c0.3-0.1,0.6-0.2,1-0.2
			C268.3,256.9,268.5,256.9,268.8,256.9z M269.3,265.5c0.1-0.2,0.1-0.4,0.1-0.7c0-1.2-0.2-2.4-0.5-3.6c-0.3-1.2-0.9-1.8-1.8-1.8
			c-0.3,0-0.7,0.1-1,0.4c-0.2,0.1-0.5,0.8-1.2,2c-0.6,1.2-0.9,1.9-0.9,2.1c0,0.2,0.7,0.6,2.1,1.1c1.4,0.6,2.3,0.8,2.7,0.8
			C269.1,265.8,269.2,265.7,269.3,265.5z"/>
		<path d="M275.1,277.2c-0.1-0.1-0.2-0.3-0.2-0.6c0-0.3,0-0.6,0.1-0.9c0.1-0.2,0.2-0.5,0.3-0.8c0.1-0.2,0.2-0.5,0.3-1
			c0.1-0.5,0.2-1.1,0.2-1.9c0.1-1.2,0.3-2.2,0.4-2.8s0.4-0.9,0.8-0.9c0.5,0,0.8,0.2,1,0.6c0.1,0.4,0.2,1,0.3,1.8
			c0.1,1.1,0.2,1.8,0.5,2.1h0.3c0.2,0,0.4,0,0.5-0.1c0.1-0.7,0.2-1.8,0.2-3.2c0-0.9,0-1.7,0.1-2.4c0.1-0.6,0.2-1.3,0.4-1.9l0.1-0.2
			c0-0.1,0-0.1-0.1-0.2c-0.1,0-0.1-0.1-0.2-0.1c-0.1,0-0.2,0.1-0.4,0.3c-0.2,0.2-0.4,0.3-0.5,0.3c-0.4,0-0.6-0.3-0.8-0.9
			c-0.2-0.6-0.3-1.1-0.3-1.6c0-0.7,0.1-1.5,0.3-2.5c0.2-1,0.5-1.5,0.9-1.5c0.1,0,0.3,0,0.5,0.1c0.2,0.1,0.4,0.1,0.5,0.1
			c0.1,0,0.4-0.1,0.8-0.2c0.4-0.2,0.7-0.2,1-0.2c1.2,0,1.8,0.5,1.8,1.5c0,0.9-0.1,1.6-0.4,2.1c-0.3,0.6-0.6,1.1-1,1.6
			c-0.1,0.1-0.1,0.2-0.3,0.4c-0.1,0.2-0.2,0.3-0.2,0.4c0,0.2,0.1,0.7,0.3,1.4c0.2,0.7,0.3,1.2,0.4,1.5l0.2,0c0.2,0,0.4,0,0.7-0.1
			c0.3-0.1,0.5-0.1,0.7-0.1c0.1,0,0.3,0,0.5,0.1c0.2,0.1,0.3,0.1,0.4,0.1l0.7-0.7c2.5-2.4,3.8-3.7,3.9-4.1l-0.1,0
			c-0.2,0-0.4,0.2-0.6,0.5c-0.5,0.5-0.9,0.7-1.2,0.7c-0.3,0-0.6-0.1-0.8-0.3c-0.2-0.2-0.3-0.4-0.3-0.8c0-0.4,0.4-1.3,1.2-2.7
			s1.7-2.7,2.6-3.9c0.9-1.2,1.6-1.8,1.9-1.8c0.4,0,0.7,0.2,1.1,0.5c0.3,0.4,0.5,0.7,0.5,1.1c0,0.1,0,0.2,0,0.3c0,0.1,0,0.2,0,0.3
			c0.1,0,0.2,0,0.4,0c0.8,0,1.5,0.2,2,0.7c0.5,0.5,0.8,1.1,0.8,1.9c0,0.4-0.1,0.8-0.3,1.2c-0.2,0.4-0.6,0.8-1,1.4
			c-0.1,0.1-0.2,0.2-0.4,0.5c-0.2,0.2-0.3,0.4-0.3,0.6c0,0.2,0.3,0.4,0.9,0.8c0.6,0.3,1.6,0.9,3,1.6c2.3,1.2,4.1,2.2,5.5,3
			c1.3,0.8,2,1.6,2,2.2c0,0.3-0.1,0.5-0.3,0.6c-0.2,0.2-0.4,0.2-0.7,0.2c-0.5,0-1.6-0.5-3.5-1.6c-1.9-1.1-4.1-2.4-6.7-4l-2.2-1.3
			c-0.4,0.4-1.2,1.2-2.4,2.3c-1.2,1.1-2.4,2.1-3.6,2.9c-1.2,0.9-1.9,1.3-2.4,1.3c-0.3,0-0.5-0.1-0.8-0.3c-0.3-0.2-0.5-0.3-0.6-0.3
			c-0.5,0-0.9,0.2-1.2,0.6c-0.3,0.4-0.5,0.8-0.5,1.3c0,0.3,0.3,0.5,0.9,0.6c0.4,0.1,0.8,0.3,1,0.5c0.2,0.2,0.4,0.5,0.4,0.9
			c0,0.6-0.2,1-0.5,1.3c-0.4,0.3-0.8,0.4-1.2,0.5s-1.1,0.1-2,0.1c-0.9,0-1.5,0.1-1.9,0.2c-0.1,0.1-0.2,0.2-0.3,0.4
			c-0.1,0.2-0.2,0.3-0.3,0.4c-0.1,0.1-0.3,0.1-0.5,0.1c-0.2,0-0.5,0.1-0.8,0.2c-0.3,0.1-0.6,0.2-0.7,0.2
			C275.4,277.4,275.2,277.3,275.1,277.2z M281.6,262.3c0.4-0.4,0.5-0.8,0.5-1.2c0-0.2-0.1-0.3-0.2-0.4c-0.1-0.1-0.3-0.2-0.4-0.2
			c-0.5,0-0.9,0.1-1,0.4c-0.1,0.3-0.2,0.7-0.2,1.2c0,0.3,0,0.5,0.1,0.7C280.8,262.8,281.2,262.6,281.6,262.3z M290.9,278
			c-0.3-0.5-0.5-1.1-0.5-1.7l0-3.8c0-1,0.4-1.8,1.2-2.5c0.8-0.7,1.7-1,2.7-1c0.8,0,1.5,0.3,2,0.9c0.5,0.6,0.8,1.4,0.8,2.2
			c0,0.4-0.1,1-0.4,1.6c-0.2,0.7-0.3,1.3-0.3,1.6c0,0.2,0,0.3,0,0.4c0,0.1,0,0.2,0,0.4c0,0.2-0.1,0.4-0.2,0.6
			c-0.2,0.4-0.9,0.8-1.9,1.2s-1.8,0.7-2.3,0.7C291.6,278.8,291.2,278.6,290.9,278z M291.4,261.3c0.1,0,0.4-0.3,0.8-0.7
			c0.5-0.4,0.8-0.7,0.9-0.8l0,0c0-0.1-0.1-0.2-0.3-0.2c-0.3,0-0.6,0.2-1,0.5c-0.4,0.3-0.6,0.7-0.6,0.9
			C291.2,261.1,291.3,261.2,291.4,261.3z M294.3,273.3c0.2-0.5,0.3-0.9,0.3-1.1c0-0.1-0.1-0.3-0.3-0.4c-0.2-0.2-0.4-0.3-0.5-0.3
			c-0.1,0-0.2,0.1-0.3,0.2c0,0.1,0,0.2,0,0.4c0,0.5,0,0.8,0,1.1c0,0.2,0,0.4,0.1,0.8c0.1,0.3,0.1,0.5,0.2,0.5
			C294,274.3,294.1,273.9,294.3,273.3z"/>
		<path d="M306.7,276.4c-0.3-0.2-0.5-0.6-0.5-1.1c0-0.7,0.3-1.2,0.9-1.6c0.6-0.4,1.5-0.7,2.7-1.1c1.4-0.4,2.4-0.8,3.1-1.3
			c0.7-0.4,1-1.1,1.1-2l0.1-2.7c-0.4-0.3-0.6-0.6-0.8-0.9c-0.2-0.2-0.3-0.5-0.3-0.8c0-0.3,0.1-0.5,0.2-0.7c0.1-0.2,0.3-0.4,0.5-0.5
			c0.2-0.1,0.3-0.2,0.3-0.3c0.2-0.2,0.4-0.5,0.4-1.1c0.1-0.5,0.1-1.2,0.2-2c0.1-1.1,0.1-2,0.3-2.6c0.1-0.6,0.4-0.9,0.9-0.9
			c0.4,0,0.6,0.3,0.8,0.8c0.1,0.5,0.3,1.3,0.4,2.3c0.1,0.8,0.2,1.4,0.3,1.8c0.1,0.4,0.2,0.6,0.4,0.6c0.7,0,1.7-0.2,3-0.5
			c1.3-0.4,2.4-0.6,3.2-0.6c0.5,0,1.1,0.1,1.5,0.3c0.5,0.2,0.7,0.6,0.7,1.1c0,0.5-0.5,0.9-1.4,1.2c-1,0.3-2.4,0.7-4.3,1.3
			c-1.9,0.6-2.8,0.9-2.9,1c-0.1,0.1-0.2,1-0.3,2.7l-0.1,1.7c0.1,0,0.4-0.1,0.9-0.1c0.5-0.1,0.9-0.2,1.4-0.4c0.2-0.1,0.6-0.3,1.2-0.5
			c0.6-0.3,1.2-0.5,1.7-0.6c0.5-0.1,0.9-0.2,1.2-0.3c1.1-0.2,2-0.4,2.6-0.5c0.6-0.1,1.3-0.2,2-0.2c1.2,0,2.3,0.2,3.3,0.6
			c1,0.4,1.5,1.1,1.5,2.1c0,0.6-0.5,1-1.5,1.2c-1,0.2-2.3,0.3-3.9,0.4l-1.5,0.1c-0.9,0.1-1.7,0.4-2.6,0.7c-0.9,0.3-1.4,0.5-1.6,0.5
			c-1.2,0.4-2.1,0.7-2.4,0.8c-5.2,1.5-8.9,2.2-11.2,2.2C307.4,276.7,307,276.6,306.7,276.4z"/>
		<path d="M343.1,271c-0.2-0.1-0.3-0.3-0.3-0.7c0-0.3,0.1-0.6,0.4-1.1c0.3-0.5,0.4-0.9,0.4-1.2c0-0.2,0-0.3-0.1-0.4
			c-0.1-0.1-0.2-0.2-0.4-0.3c-0.3-0.2-0.5-0.4-0.7-0.6c-0.2-0.2-0.3-0.6-0.3-1.1c0-0.9,0.3-1.6,0.8-2.3c0.5-0.6,1.2-0.9,2.1-0.9
			c1.2,0,1.8,0.6,1.8,1.7c0,1.5-0.2,3.1-0.6,4.7c-0.4,1.6-1.1,2.4-2.1,2.4C343.7,271.2,343.4,271.1,343.1,271z"/>
		<path d="M383.9,281.5c-0.2,0.2-0.4,0.3-0.6,0.3c-1.1,0-2.1-0.6-3.1-1.9c-1-1.2-1.9-2.6-2.6-4.1c-0.7-1.4-1.1-2.1-1.3-2.1
			c-0.2,0-0.6,0.5-1.3,1.4c-0.6,0.9-1.2,1.5-1.7,2c-0.5,0.5-0.9,0.7-1.3,0.7c-0.3,0-0.6-0.1-0.9-0.3c-0.3-0.2-0.4-0.4-0.4-0.8
			c0-0.7,0.2-1.5,0.7-2.4c0.5-0.9,1.1-1.9,2-3c0.7-1,1.1-1.7,1.1-1.9c0-0.3-0.4-1.2-1.2-2.8c-0.8-1.5-1.3-2.3-1.5-2.3
			c-0.2,0-1.1,0.2-2.8,0.6c-1.7,0.4-2.5,0.7-2.7,0.7c-0.2,0.1-0.4,0.3-0.4,0.5c-0.1,0.2-0.1,0.5-0.1,0.9v1c0,0.6,0.1,0.9,0.2,0.9
			c0.2,0,0.9-0.3,1.9-1c0.1-0.1,0.4-0.2,0.8-0.5c0.4-0.2,0.8-0.4,1.1-0.6c0.3-0.1,0.5-0.2,0.7-0.2c0.1,0,0.3,0.1,0.5,0.3
			c0.2,0.2,0.3,0.4,0.4,0.6c0,0.3-0.3,0.6-0.7,0.9c-0.4,0.4-1.2,0.9-2.2,1.5c-1.2,0.7-1.9,1.2-2.1,1.5c-0.3,0.3-0.4,0.7-0.4,1.1
			c0,0.7-0.2,1.7-0.6,3c-0.4,1.3-0.9,2.5-1.5,3.5c-0.6,1-1.2,1.5-1.9,1.5c-0.7,0-1.2-0.4-1.5-1.2c-0.3-0.8-0.4-1.7-0.4-2.6
			c0-0.7,0.1-1.2,0.3-1.6c0.2-0.4,0.5-1,1-1.6c0.3-0.4,0.6-0.8,0.8-1.2c0.2-0.4,0.4-0.8,0.4-1.3c0.1-0.7,0.2-1.5,0.2-2.3v-0.5
			c0-0.4,0-0.8-0.1-0.9l-0.2-0.1c-0.5,0-1,0.1-1.6,0.4c-0.1,0-0.3,0.1-0.6,0.2c-0.4,0.1-0.7,0.2-1.1,0.2c-0.4,0-0.7-0.1-1-0.4
			s-0.5-0.6-0.5-1c0-0.5,0.3-0.9,1-1.2c0.7-0.3,1.6-0.7,2.8-1.1c1-0.3,1.6-0.6,1.7-0.7c0.2-0.3,0.4-0.7,0.4-1c0-0.1,0-0.3-0.1-0.6
			c-0.2,0.2-0.4,0.4-0.6,0.7c-0.2,0.3-0.5,0.6-0.7,0.8c-0.2,0.2-0.5,0.3-0.8,0.3c-0.3,0-0.6-0.2-0.7-0.5c-0.2-0.3-0.3-0.6-0.3-0.9
			c0-0.5,0.1-1,0.4-1.4c0.3-0.5,1-1.1,1.9-1.9c0.9-0.8,1.8-1.5,2.8-2.1c0.9-0.6,1.7-0.9,2.2-0.9c0.4,0,0.9,0.1,1.5,0.4
			c0.5,0.3,0.8,0.6,0.8,1.1c0,0.1,0,0.2-0.1,0.3c-0.1,0.1-0.2,0.1-0.3,0.1c-0.1,0-0.2,0-0.4-0.1c-0.2-0.1-0.3-0.1-0.4-0.1
			c-0.4,0-0.8,0.2-1.2,0.5c-0.4,0.4-0.8,0.7-1.2,1.1c-0.4,0.4-0.6,0.7-0.8,0.8c0.2,0.6,0.4,1.1,0.5,1.5c0.1,0.4,0.2,0.8,0.2,1.3
			c0.1,0.1,0.2,0.1,0.4,0.1c0.5,0,1.4-0.1,2.7-0.4c1.4-0.3,2-0.6,2-0.8c0-0.2,0-0.4-0.1-0.6c-0.1-0.2-0.1-0.3-0.1-0.4
			c-0.2-0.4-0.2-0.7-0.2-0.9c0-0.2,0.2-0.4,0.6-0.7c0.4-0.2,0.7-0.4,0.9-0.4c0.2,0,0.4,0.1,0.6,0.2c0.2,0.1,0.4,0.3,0.4,0.4
			c0,0.1,0,0.3,0,0.5c0,0.2,0,0.4,0,0.7c0,0.5,0.1,0.8,0.3,0.9c0.3,0,0.8-0.1,1.4-0.3c0.6-0.2,1.1-0.4,1.4-0.4c1,0,1.5,0.4,1.5,1.1
			c0,0.4-0.2,0.8-0.6,1c-0.4,0.2-0.9,0.3-1.4,0.4c-0.5,0.1-0.9,0.2-1.1,0.2l-0.1,0.1c0.2,0.2,0.3,0.4,0.4,0.6
			c0.1,0.2,0.2,0.3,0.2,0.4c0.5,0.8,0.8,1.4,1.1,1.8c0.3-0.2,0.5-0.5,0.9-1s0.5-0.7,0.6-0.8c0.6-0.9,1.1-1.5,1.5-2
			c0.4-0.4,0.8-0.7,1.3-0.7c0.4,0,0.8,0.2,1.1,0.5s0.5,0.7,0.5,1.1c0,0.3-0.1,0.5-0.2,0.7c-0.1,0.2-0.3,0.4-0.6,0.6
			c-0.3,0.3-1,1.2-1.8,2.7c-0.9,1.5-1.3,2.5-1.3,2.9c0,0.2,0.1,0.5,0.3,0.9c0.2,0.4,0.4,0.7,0.4,0.8c0.3,0.8,0.9,1.8,1.7,2.9
			c0.8,1.1,1.5,2,2.2,2.8c1.1,1.2,1.7,2.1,1.7,2.7C384.2,281.1,384.1,281.3,383.9,281.5z M362.2,277.9c0.1-0.6,0.2-1,0.2-1.3
			c0-0.7-0.1-1.1-0.2-1.2c-0.3,0.1-0.6,0.3-0.7,0.7c-0.2,0.4-0.3,0.7-0.3,1.1c0,0.2,0,0.6,0.1,1c0.1,0.4,0.2,0.6,0.4,0.6
			C361.9,278.8,362,278.5,362.2,277.9z M376.5,259.7c-1.3-0.8-2.1-1.3-2.5-1.6c-0.2-0.2-0.3-0.3-0.4-0.4c-0.1-0.1-0.1-0.3-0.1-0.6
			c0-0.2,0.1-0.4,0.3-0.4c0.3,0,0.9,0.2,1.9,0.6c1,0.4,1.8,0.8,2.6,1.3c0.8,0.5,1.2,0.8,1.2,1.1v0.5c0,0.2-0.1,0.4-0.3,0.5
			c-0.2,0.1-0.4,0.2-0.6,0.2C378.6,260.8,377.8,260.4,376.5,259.7z"/>
		<path d="M388.9,279.3c-0.2-0.3-0.3-0.7-0.3-1.2c0-1.1,0.1-2.1,0.2-3.2c0.1-1.1,0.3-2.4,0.5-4c0-0.3,0.1-1.2,0.3-2.7
			c0.2-1.5,0.3-3,0.3-4.5l-0.1-0.2c-0.1,0-0.3,0.1-0.5,0.3s-0.5,0.4-0.7,0.6c-0.5,0.5-0.9,0.9-1.3,1.2c-0.4,0.3-0.7,0.4-1.1,0.4
			c-0.4,0-0.7-0.1-0.9-0.3c-0.2-0.2-0.4-0.4-0.4-0.8c0-0.4,0-0.7,0.1-0.9c0.1-0.2,0.2-0.5,0.3-0.7c0.4-0.6,0.9-1.2,1.3-1.7
			c0.5-0.5,1.1-1.2,2-2.1c0.9-0.9,1.6-1.6,2.1-2.1c0.5-0.5,1-1.2,1.4-1.8c0.1-0.1,0.1-0.3,0.3-0.5c0.1-0.2,0.3-0.4,0.4-0.5
			c0.1-0.1,0.3-0.3,0.5-0.3c0.1,0,0.2,0,0.3,0c0.4,0,0.7,0.1,0.9,0.4c0.2,0.2,0.4,0.6,0.4,0.9c0,0.4-0.2,1-0.5,1.5
			c-0.3,0.6-0.8,1.3-1.4,2.2c-0.3,0.4-0.6,0.8-0.8,1.2s-0.4,0.7-0.4,0.9l0,0.3c0.2,1.4,0.3,2.8,0.3,4.4c0,2.9-0.1,5.8-0.3,8.6
			c-0.2,2.8-0.6,4.4-1.1,4.8c-0.2,0.2-0.5,0.2-0.7,0.2C389.4,279.7,389,279.6,388.9,279.3z M400.6,267.2c-0.3,0-0.6,0.1-0.9,0.3
			c-0.1,0-0.2,0.1-0.4,0.2c-0.2,0.1-0.4,0.1-0.5,0.1c-0.5,0-0.8,0.4-0.8,1.1c0,1.3-0.2,3.3-0.5,6l-0.2,1.8c0,0.2-0.1,0.5-0.1,1.1
			s-0.1,1-0.3,1.5c-0.1,0.4-0.4,0.8-0.6,1.1c-0.2,0.2-0.3,0.2-0.4,0.2c-0.5,0-0.8-0.7-1-2c-0.1-1.3-0.2-2.6-0.2-3.9
			c0-2.6,0.1-5.5,0.4-8.7c0.3-3.2,0.7-5.3,1.3-6.5c0.3-0.5,0.8-0.9,1.7-1.4c0.9-0.5,1.6-0.7,2.2-0.7c0.9,0,1.5,0.2,1.9,0.7
			c0.4,0.5,0.6,1,0.7,1.6c0.1,0.6,0.1,1.4,0.1,2.5c0,3.4-0.5,5.1-1.5,5.1L400.6,267.2z M398.3,266c0.3,0,0.9-0.3,1.7-0.8
			c0-0.3,0-0.5,0-0.7c0-0.2,0-0.5,0-0.7c0-0.1,0-0.2,0-0.3l-0.3-0.1c-0.6,0-1.1,0.2-1.3,0.6c-0.3,0.4-0.4,1-0.4,1.6
			C398,265.9,398.1,266,398.3,266z M399,261.8c0.4-0.1,0.7-0.1,0.9-0.2c0.1-0.2,0.2-0.5,0.2-0.9c0-0.4-0.2-0.7-0.6-0.7
			s-0.7,0.1-1,0.3c-0.3,0.2-0.4,0.5-0.4,0.9c0,0.3,0,0.6,0.1,0.7h0C398.4,261.9,398.7,261.9,399,261.8z M411.5,284
			c-0.2-0.2-0.3-0.4-0.3-0.7c0-0.3,0.1-0.7,0.2-1.2s0.3-1,0.5-1.5c0.4-1.2,0.7-2,0.7-2.5c0.1-0.9,0.2-2.2,0.4-3.9l0.1-1.3l0.1-1.2
			c0.1-0.9,0.2-1.6,0.2-2c0-0.9,0-1.7-0.1-2.5c0-0.3-0.1-0.6-0.1-1c0-0.4,0-0.9,0-1.5c0-0.1,0-0.2,0-0.3c0-0.1,0-0.2,0-0.4
			c-0.1-0.1-0.2-0.2-0.3-0.2c-0.2,0-0.8,0.3-1.8,1c-1,0.6-1.6,1-1.7,1.2c-0.1,0.1-0.1,0.2-0.2,0.4c-0.1,0.2-0.2,0.3-0.4,0.4
			c-0.1,0.1-0.3,0.1-0.4,0.1c-0.8,0-1.1-0.8-1.1-2.5l0-1.4l0-2.9c0-1.1,0.1-2,0.2-2.7c0.1-0.1,0.2-0.3,0.3-0.6
			c0.1-0.3,0.2-0.4,0.3-0.5c0.8-1.3,2.7-2,5.7-2c0.3,0,0.7,0.1,1.1,0.4c0.4,0.2,0.6,0.5,0.6,0.8c0,0.2,0,0.5-0.1,0.9
			c-0.1,0.3-0.1,0.5-0.1,0.9v4.1c0,0.4,0,0.8,0.1,1.3c0.1,0.6,0.2,1.3,0.2,2c0,0.7,0,1.2,0,1.3c0,1,0.1,2.4,0.4,4.4
			c0,0.3,0.1,1,0.2,2.2c0.1,1.2,0.2,2.2,0.2,3.3c0,1.1-0.1,2.2-0.4,3.2c-0.3,1.2-0.8,2.3-1.4,3.5c-0.7,1.2-1.4,1.8-2.2,1.8
			C411.9,284.2,411.7,284.2,411.5,284z M413.2,256.9c0-0.4-0.2-0.7-0.7-0.7c-0.5,0-1.1,0.1-1.7,0.3c-0.6,0.2-1.2,0.5-1.6,0.8
			c0,0.3,0,0.6,0,1c0,0.3,0.1,0.6,0.2,0.8l3.5-0.9C413.1,257.8,413.2,257.4,413.2,256.9z M411,262.5c0.6-0.4,1-0.7,1.2-0.7
			c0.3,0,0.5-0.1,0.7-0.4c0.2-0.3,0.2-0.6,0.2-0.9s-0.2-0.5-0.7-0.5c-0.4,0-0.7,0.1-1,0.2c-0.1,0.1-0.4,0.2-0.7,0.3
			c-0.3,0.1-0.6,0.2-0.7,0.3c-0.1,0.1-0.2,0.2-0.2,0.5c0,0.2-0.1,0.6-0.1,1.2c0,0.4,0.1,0.5,0.2,0.5
			C410.1,263.1,410.4,262.9,411,262.5z"/>
		<path d="M421.8,258.5c0.3-0.1,0.7-0.2,1.2-0.2c0.7,0,1.3,0,1.7,0.1c0.4,0.1,0.8,0.2,1.1,0.5c0.3,0.3,0.4,0.8,0.4,1.4
			c0,0.4-0.1,0.9-0.4,1.5c-0.2,0.4-0.3,0.7-0.3,0.9c0,0.1,0.1,0.2,0.4,0.5c0.3,0.3,0.5,0.5,0.7,0.9c0.2,0.3,0.3,0.7,0.3,1.1
			c0,0.4-0.1,0.9-0.4,1.4c-0.3,0.5-0.7,1-1.1,1.3c-0.4,0.4-0.9,0.5-1.3,0.5c-0.1,0-0.3,0-0.6-0.1c-0.2-0.1-0.4-0.1-0.6-0.1
			c-0.2,0-0.2,0.1-0.2,0.2c0,0.2,0,0.4,0,0.6c0,0.2,0.1,0.3,0.1,0.4c0.1,0.5,0.2,0.8,0.2,1.1c0,2.2-0.2,4.6-0.5,7.1
			s-0.9,3.8-1.9,3.8c-0.4,0-0.7-0.3-0.8-0.8c-0.1-0.5-0.2-1.1-0.2-1.6c0-1,0.1-2.2,0.4-3.7c0.2-1.2,0.3-2.6,0.4-4.3
			c0,0,0-0.8,0.1-2.3c0-0.4,0-1.6,0.1-3.7c0.1-2.1,0.2-3.2,0.3-3.3c0.1-0.1,0.3-0.2,0.5-0.2c0.2,0,0.4,0.1,0.5,0.3
			c0.1,0.2,0.2,0.5,0.3,0.8c0.1,0.3,0.2,0.5,0.2,0.7s0.2,0.2,0.3,0.2c0.2,0,0.5-0.3,0.8-1c0.3-0.7,0.5-1.2,0.5-1.5
			c0-0.2-0.1-0.3-0.3-0.4c-0.2-0.1-0.4-0.1-0.8-0.2c-0.5-0.1-1-0.1-1.3-0.3c-0.3-0.1-0.4-0.4-0.4-0.9
			C421.3,258.9,421.5,258.6,421.8,258.5z M424.9,264.5c-0.2,0-0.5,0.1-0.9,0.2c-0.4,0.1-0.6,0.3-0.7,0.4l-0.1,0.3
			c0,0.2,0.1,0.5,0.3,0.8c0.2,0.4,0.3,0.6,0.5,0.6c0.2,0,0.5-0.3,0.9-0.8s0.5-0.9,0.5-1.2C425.3,264.7,425.1,264.5,424.9,264.5z
			 M429.7,259.2c0.4-0.2,1-0.5,1.8-0.8c0.7-0.2,1.2-0.4,1.4-0.6c0.2-0.2,0.3-0.3,0.4-0.6c0.1-0.2,0.1-0.6,0.2-1
			c0.1-0.5,0.1-0.9,0.3-1.2c0.1-0.2,0.4-0.4,0.8-0.4c0.4,0,0.7,0.1,0.8,0.4c0.1,0.3,0.2,0.6,0.3,0.9c0.1,0.3,0.1,0.6,0.1,0.7
			c0.4,0,0.8,0,1.2,0c0.3,0,0.6-0.1,0.8-0.1c0.6-0.1,1.3-0.1,2-0.1c0.3,0,0.6,0.1,0.8,0.3c0.2,0.2,0.3,0.5,0.3,0.8
			c0,0.4-0.1,0.7-0.3,0.8c-0.2,0.1-0.5,0.3-1,0.3c-0.4,0.1-0.7,0.2-0.9,0.3c-0.2,0.1-0.3,0.4-0.3,0.8c0,1.2-0.2,2.1-0.7,2.9
			c0,0-0.1,0.1-0.1,0.1c-0.1,0.1-0.1,0.1-0.1,0.2l0,0.1l0.2,0.1c0.9-0.3,2.1-0.5,3.6-0.5c0.4,0,0.8,0.1,1.2,0.4s0.5,0.6,0.5,1
			c0,0.3-0.1,0.5-0.4,0.7c-0.2,0.2-0.5,0.3-0.8,0.4c-1.2,0.3-3,0.6-5.4,0.9c-0.4,0.1-1.2,0.2-2.3,0.3c-0.6,0.1-1.2,0.2-1.8,0.4
			c-1.6,0.3-2.8,0.5-3.7,0.5c-0.4,0-0.7-0.1-1-0.2c-0.2-0.1-0.4-0.3-0.4-0.7c0-0.3,0.3-0.6,0.8-0.8c0.5-0.2,1.2-0.4,2.1-0.6
			c0.7-0.1,1-0.2,1.1-0.3c0.2-0.2,0.2-0.9,0.3-2c0-1.2,0-1.8,0-2.1c-0.5,0.1-1.1,0.1-1.7,0.1c-0.3,0-0.5-0.1-0.7-0.3
			c-0.1-0.2-0.1-0.3-0.1-0.4C429,259.8,429.2,259.5,429.7,259.2z M434.7,262.8c0.5-0.6,1-1.2,1.5-1.8c0.4-0.7,0.7-1.1,0.7-1.3
			c0-0.2-0.1-0.3-0.3-0.3c-0.4,0-1.1,0.1-2.1,0.4c-0.9,0.3-1.4,0.6-1.4,0.9c0,2,0.2,2.9,0.5,2.9
			C433.8,263.7,434.1,263.4,434.7,262.8z M434.1,271c0.3-0.4,0.7-0.7,1.2-0.9c0.5-0.2,1-0.3,1.5-0.3c1.2,0,2.1,0.3,2.7,0.8
			s0.9,1.4,0.9,2.6c0,0.9-0.1,1.6-0.2,2.1c-0.1,0.3-0.2,0.5-0.2,0.6c0,0.2,0.1,0.2,0.3,0.2c0.4,0,1-0.1,1.9-0.2
			c0.2,0,0.5-0.1,0.8-0.1c0.3,0,0.7,0,1.1,0c0.7,0,1.3,0.1,1.8,0.3c0.6,0.2,0.8,0.6,0.8,1.1c0,0.5-0.2,0.9-0.6,1.2
			c-0.2,0.1-1.1,0.2-2.7,0.4c-1.6,0.1-3.1,0.3-4.5,0.4l-1.6,0.1c-1,0.1-1.6,0.2-2,0.5c0,0-0.1,0.1-0.2,0.2c-0.1,0.1-0.3,0.1-0.4,0.1
			c-0.7,0-1.1-1-1.1-3C433.6,273.6,433.8,271.6,434.1,271z M438,272.6c-0.2-0.4-0.5-0.6-1-0.6c-0.5,0-0.9,0.2-1.1,0.5
			c-0.2,0.3-0.3,0.8-0.3,1.4l0,1.3c0,1,0.2,1.5,0.5,1.7c0.3,0,0.6-0.2,0.9-0.5c0.3-0.4,0.6-0.8,0.8-1.2c0.2-0.5,0.3-0.8,0.3-1.1
			C438.3,273.5,438.2,273,438,272.6z"/>
		<path d="M450.3,264.1c1.2-1.5,2.4-2.8,3.7-4.1c1.3-1.3,2.1-2,2.5-2c0.2,0,0.4,0.1,0.5,0.3c0.1,0.2,0.2,0.4,0.2,0.6
			c0,0.4-0.2,0.9-0.5,1.4s-0.8,1.1-1.4,1.7c-0.5,0.6-0.8,1-0.8,1.1c0,0.2,0.1,0.5,0.3,0.9c0.2,0.5,0.4,1.2,0.5,2.2
			c0.1,1,0.1,1.9,0.1,2.8c0,1.7-0.1,3.5-0.4,5.3c-0.3,1.8-0.8,2.6-1.7,2.6c-0.2,0-0.4-0.1-0.5-0.2c-0.1-0.1-0.3-0.3-0.5-0.5
			c0-1.1,0.1-2.3,0.2-3.7c0.1-1.6,0.2-2.8,0.2-3.7c0-1.9-0.1-3-0.3-3.4c-0.3,0.4-0.8,0.8-1.4,1.3s-1.2,0.8-1.5,0.8
			c-0.2,0-0.3-0.1-0.5-0.2c-0.1-0.1-0.2-0.3-0.2-0.5C448.6,266.5,449.2,265.6,450.3,264.1z M459.8,271.6c1.4-2.2,2.2-3.4,2.5-3.6
			c0.3-0.3,0.6-0.4,0.8-0.4c0.2,0,0.4,0,0.5,0.1s0.2,0.2,0.2,0.3c0,0.6-0.3,1.6-0.9,3c-0.6,1.4-1.3,2.7-2.1,3.8
			c-0.8,1.1-1.4,1.7-2,1.7c-0.3,0-0.5-0.1-0.8-0.4c-0.2-0.3-0.4-0.6-0.4-0.9C457.7,275,458.4,273.8,459.8,271.6z M459.7,261.3
			c0.2-0.5,0.4-0.9,0.6-1.3c0.2-0.4,0.3-0.7,0.4-0.9c0.6-1.2,1-2,1.1-2.3c0.1-0.2,0.1-0.6,0.3-1c0.1-0.5,0.3-0.8,0.4-1
			c0.1-0.1,0.2-0.2,0.4-0.2c0.3,0,0.6,0.1,0.7,0.3c0.1,0.2,0.2,0.4,0.3,0.8c0.1,0.4,0.2,0.5,0.4,0.5c0.2,0,0.4,0,0.7-0.1
			c0.2-0.1,0.4-0.1,0.5-0.2c2.1-0.7,3.8-1,5.1-1c0.5,0,0.9,0.2,1.3,0.6c0.4,0.4,0.6,0.8,0.6,1.3c0,0.3-0.1,0.7-0.4,1.3
			s-0.5,1.1-0.9,1.6c-0.3,0.5-0.7,0.7-1,0.7c-0.4,0-0.6-0.3-0.6-0.8c0-0.2,0-0.4,0-0.6c0-0.2,0-0.4,0-0.5c0-0.2,0-0.3,0-0.4
			c-0.8,0.1-2,0.4-3.5,0.7c-1.5,0.3-2.4,0.6-2.7,0.7c-0.2,0.1-0.4,0.3-0.5,0.6c-0.2,0.3-0.3,0.6-0.5,1.1c-0.3,0.7-0.6,1.2-0.9,1.6
			c-0.3,0.4-0.7,0.5-1.2,0.5c-0.3,0-0.5-0.1-0.7-0.2c-0.2-0.1-0.3-0.4-0.3-0.6C459.4,262.1,459.5,261.8,459.7,261.3z M465.9,270.4
			c0-0.4,0-1,0-1.8c0-3.3,0.5-5,1.4-5c0.2,0,0.4,0.1,0.5,0.2c0.1,0.1,0.3,1.7,0.7,4.7c0.4,3,0.6,4.9,0.6,5.5c0,1.4-0.1,2.7-0.4,3.8
			c-0.3,1.1-1,1.6-2,1.6c-1,0-1.7-0.7-2.2-2c-0.5-1.3-0.7-2.6-0.7-3.9c0-1.1,0.4-1.6,1.1-1.6c0.3,0,0.4,0.1,0.5,0.2
			c0.1,0.1,0.2,0.2,0.3,0.2c0.1,0,0.2-0.1,0.2-0.2L465.9,270.4z M469.2,267.5c0.2,0,0.3,0.1,0.5,0.2c0.2,0.1,0.3,0.3,0.4,0.4
			c0.5,0.5,1.3,1,2.3,1.5c1,0.5,2.5,1.2,4.5,2.1c0.3,0.1,1,0.4,2,0.9c1,0.5,1.8,0.9,2.4,1.2c0.6,0.3,0.9,0.6,1,0.8
			c0.2,0.2,0.2,0.5,0.2,0.8c0,0.5-0.2,0.9-0.4,1.1c-0.3,0.3-0.7,0.4-1.2,0.4c-0.5,0-1.1-0.2-1.8-0.6l-1.8-0.9
			c-1.1-0.5-2.1-1-2.8-1.5c-0.8-0.5-1.5-1-2.2-1.6c-0.1-0.1-0.5-0.4-1.2-1c-0.7-0.6-1.2-1.2-1.6-1.8c-0.4-0.6-0.7-1.1-0.7-1.6
			C468.9,267.6,469,267.5,469.2,267.5z"/>
		<path d="M488.9,254c0.4-0.2,1-0.4,1.8-0.6c0.8-0.2,1.2-0.4,1.4-0.5c0.2-0.2,0.3-0.5,0.4-0.9c0.1-0.4,0.3-0.6,0.4-0.8
			c0.1-0.2,0.4-0.3,0.7-0.3c0.2,0,0.4,0.1,0.5,0.2s0.3,0.4,0.5,0.6s0.3,0.4,0.4,0.4c0.4,0,0.7,0,1.1-0.1c0.5-0.1,0.8-0.1,1.1-0.1
			c0.3,0,0.5,0.1,0.7,0.4c0.2,0.2,0.3,0.5,0.3,0.8c0,0.3-0.2,0.6-0.5,0.8c-0.4,0.2-0.9,0.4-1.6,0.7c-0.7,0.2-1.1,0.4-1.3,0.6
			c-0.2,0.1-0.3,0.5-0.3,1.1s-0.1,1-0.1,1.2c-0.1,0.2-0.1,0.4-0.2,0.6c-0.1,0.2-0.1,0.4-0.2,0.6l0.2,0.1c0.3,0,0.8-0.1,1.3-0.4
			c0.6-0.3,1.1-0.4,1.4-0.4c0.5,0,0.8,0.2,0.8,0.7c0,0.4-0.1,0.8-0.3,1c-0.2,0.2-0.5,0.5-1,0.7c-0.5,0.3-0.9,0.6-1.1,0.9
			c-0.1,0.2-0.2,0.8-0.2,2.1c-0.1,1.2-0.1,2.2-0.1,2.8c0,0.2,0,0.3,0,0.4l0.2,0c0.3,0,0.6-0.1,1-0.3c0.4-0.2,0.9-0.4,1.6-0.8
			c0.5-0.2,0.9-0.4,1.4-0.6c0.5-0.2,0.8-0.3,1-0.3c0.3,0,0.5,0.1,0.7,0.4c0.2,0.3,0.2,0.5,0.2,0.9c0,0.2-0.1,0.4-0.3,0.7
			c-0.1,0.1-1.1,0.7-2.9,1.6c-1.9,0.9-3,1.5-3.4,1.6c-0.1,0.2-0.2,0.7-0.5,1.6c-0.2,0.9-0.4,1.4-0.4,1.6c0,0.1,0.1,0.2,0.3,0.3
			c0.2,0.1,0.3,0.1,0.5,0.1c1.1,0.2,2.2,0.6,3.2,1c1,0.4,2.3,1,4,1.8c2,1,3.6,1.7,4.6,2.1c0.2,0.1,0.8,0.3,1.9,0.7
			c1.1,0.4,1.7,0.8,2,1.2c0.1,0.1,0.1,0.3,0.1,0.4c0,0.3-0.1,0.6-0.3,0.8c-0.2,0.2-0.5,0.4-0.8,0.4c-0.3,0-0.7-0.1-1.3-0.3
			c-0.6-0.2-0.9-0.3-1-0.3l-5.4-1.9c-3.9-1.4-6.9-2.5-9.1-3.2c-2.2-0.8-3.5-1.1-3.9-1.1c-0.1,0-0.2,0-0.3,0.1
			c-0.1,0.1-0.1,0.2-0.1,0.3c0,0.1,0,0.2,0,0.2c-0.1,0.5-0.3,1.1-0.6,1.9s-0.8,1.5-1.3,2.2c-0.5,0.6-1,0.9-1.4,0.9
			c-0.4,0-0.8-0.2-1.1-0.6l0-0.3c0-0.3,0.1-0.8,0.3-1.4s0.4-1.2,0.6-1.8c0.3-0.7,0.4-1.3,0.5-1.6c-0.1-0.1-0.1-0.2-0.3-0.4
			c-0.1-0.2-0.2-0.3-0.2-0.5c0-0.2,0.1-0.4,0.2-0.6c0.1-0.2,0.3-0.4,0.6-0.7c0.4-0.4,0.7-0.8,0.7-1c0.2-0.6,0.4-1.3,0.6-2.1
			c0.3-0.9,0.5-1.7,0.8-2.3c0.2-0.6,0.6-1.2,1.1-1.7c0.4-0.4,0.7-0.7,0.9-0.7c0.2,0,0.3,0.1,0.4,0.2c0.1,0.1,0.1,0.3,0.1,0.5
			c0,0.1,0,0.2-0.1,0.4c-0.6,2.4-0.9,4.3-0.9,5.8c0,0.2,0.2,0.3,0.7,0.4c0.5,0.1,0.9,0.2,1.1,0.2c0.7-1.8,1.2-3.8,1.6-6.1
			c0.1-0.4,0.1-0.9,0.2-1.2c0.2-0.8,0.2-1.5,0.2-1.9c0-0.2-0.1-0.2-0.4-0.2c-0.3,0-0.6,0-0.9,0.1c-0.3,0.1-0.7,0.2-0.9,0.3
			c-0.8,0.3-1.4,0.5-1.8,0.5c-0.4,0-0.8-0.1-1-0.2c-0.2-0.1-0.3-0.4-0.3-0.8c0-0.2,0.1-0.5,0.3-0.7s0.4-0.4,0.6-0.4
			c0.8,0,1.4-0.3,2-1c0.6-0.7,1-1.4,1.3-2.4c0.3-0.9,0.5-1.8,0.5-2.5c-0.2,0-0.5,0-0.9,0.1c-0.3,0.1-0.6,0.1-0.9,0.1
			c-0.7,0-1.1-0.1-1.4-0.2c-0.3-0.1-0.5-0.5-0.5-1C488.3,254.6,488.5,254.3,488.9,254z"/>
		<path d="M535.2,280.8l-2,0c-0.3,0-0.8,0.1-1.5,0.2c-0.2,0-0.4,0.1-0.7,0.1c-0.3,0-0.6,0-0.8,0c-2.2,0-4,0.1-5.6,0.2
			c-1.5,0.1-3,0.4-4.5,0.9c-2.6,0.8-5.1,1.2-7.4,1.2c-0.8,0-1.5-0.1-2.1-0.2s-0.9-0.5-0.9-1.1c0-0.6,0.3-1,0.9-1.2
			c0.6-0.2,1.5-0.4,2.6-0.6c0.8-0.1,1.5-0.3,2-0.4c0.5-0.1,0.9-0.3,1.1-0.6c-0.2-0.6-0.4-1.3-0.7-2c-0.2-0.6-0.4-1.2-0.6-1.8
			c-0.2-0.6-0.3-1.1-0.3-1.4c0-0.4,0.2-0.9,0.6-1.6c0.4-0.7,0.8-1,1.1-1c0.2,0,0.3,0,0.4,0.1c0.1,0.1,0.2,0.2,0.2,0.3
			c0,0.1-0.1,0.3-0.3,0.6c-0.2,0.3-0.3,0.5-0.3,0.7c0,0.3,0,0.5,0.1,0.7c0.1,0.2,0.1,0.4,0.3,0.6c0.7,1.2,1.3,2.6,1.8,4.1
			c0.1,0.2,0.1,0.3,0.2,0.4c0.1,0.1,0.1,0.2,0.3,0.2c0.1,0.1,0.2,0.1,0.4,0.1c1.1,0,2.7-0.1,4.9-0.4c4.5-0.6,7.9-1,10.2-1.1
			c0.4,0,1.2-0.1,2.2-0.2c0.9-0.1,1.6-0.2,2.1-0.2c2-0.1,3.4-0.3,4.4-0.5c0.4-0.1,1-0.2,1.6-0.2c0.6,0,1.1,0.2,1.5,0.5
			c0.4,0.3,0.6,0.8,0.6,1.4c0,0.3-0.2,0.6-0.4,1c-0.3,0.4-0.6,0.6-0.8,0.8c-0.4,0.2-1.5,0.3-3.4,0.4c-1.8,0.1-3.6,0.1-5.1,0.1
			C536.2,280.9,535.6,280.9,535.2,280.8z M516.8,267.8c-0.8-0.9-1.7-2.3-2.5-4.2c-0.8-1.9-1.2-3.4-1.2-4.6c0-0.6,0.1-1.1,0.4-1.5
			c0.2-0.4,0.6-0.6,1.2-0.6c0.3,0,0.7,0.1,1.2,0.3c0.5,0.2,0.7,0.4,0.7,0.7c0,0.1-0.1,0.1-0.3,0.2c-0.2,0-0.4,0.1-0.5,0.2
			c-0.1,0.1-0.2,0.2-0.2,0.5c0,0.4,0.1,0.7,0.3,1.2c0.2,0.4,0.3,0.7,0.4,0.8c0.2,0.3,0.3,0.5,0.4,0.7l0.1,0.1l-0.1-0.1
			c0.5,0.7,1,1.7,1.7,3.2c0.7,1.5,1,2.5,1,3.1c0,0.3-0.1,0.5-0.4,0.7c-0.3,0.2-0.5,0.3-0.9,0.3C517.6,268.7,517.3,268.4,516.8,267.8
			z M520.7,272.9c0-1.9,0.2-3.7,0.5-5.3c0.1-0.3,0.2-0.8,0.4-1.4c0.2-0.8,0.4-1.3,0.4-1.6c0.1-0.4,0.2-0.8,0.3-0.9
			c0.1-0.2,0.3-0.4,0.7-0.8c0.4-0.4,0.6-0.5,0.8-0.5c0.2,0,0.3,0.1,0.3,0.4c0,0.2-0.1,0.4-0.4,0.6c0.6-0.3,1.3-0.7,2.1-1.2
			c0.8-0.5,1.2-0.9,1.2-1.2c0-0.4,0-0.9-0.1-1.5c-0.1-0.5-0.2-0.9-0.3-1.2c-0.1-0.1-0.1-0.2-0.2-0.4c0-0.1-0.1-0.2-0.1-0.4
			c0-0.5,0.2-0.9,0.7-1c0.5-0.1,1.2-0.2,2-0.2c0.6,0,1-0.1,1.2-0.1s0.4-0.1,0.4-0.3c0-0.8-0.1-1.5-0.4-2.1c-0.2-0.5-0.7-0.8-1.4-0.8
			c-0.3,0-0.7,0-1.1,0.1c-0.4,0.1-0.8,0.2-0.9,0.3c-0.6,0.4-1,1-1.2,1.8c-0.2,0.8-0.4,1.8-0.5,3.2c-0.1,1.1-0.2,1.8-0.4,2.3
			c-0.1,0.5-0.4,0.7-0.8,0.7c-0.5,0-0.8-0.2-0.9-0.6c-0.1-0.4-0.2-0.9-0.2-1.4c0-1.5,0.2-3.2,0.5-5.1c0.3-1.9,0.9-2.9,1.7-2.9
			c0.3,0,0.5,0.1,0.5,0.2c0.1,0.1,0.1,0.3,0.1,0.6c0,0.3,0.1,0.4,0.2,0.5c0.2-0.1,0.6-0.3,1.2-0.6c0.3-0.2,0.7-0.4,0.9-0.5
			c0.3-0.1,0.7-0.2,1.1-0.2c1.2,0,2.2,0.5,2.7,1.5c0.6,1,0.9,2.2,0.9,3.5c0,1.6-0.1,2.7-0.2,3.1c-0.1,0.3-0.2,0.4-0.2,0.5
			c0,0.2,0.4,0.3,1.1,0.3l1.8,0c0.6,0,1,0,1.2,0.1c1.1,0.4,1.8,1.3,2.1,2.9s0.5,3.5,0.5,5.8v1l0,0.9c0,0.4,0,1.1,0.1,1.8
			c0,0.2,0.1,0.4,0.1,0.7s0.1,0.5,0.1,0.7c0,1-0.3,1.5-1,1.5c-1,0-1.6-0.4-1.9-1.2c-0.3-0.8-0.4-2-0.4-3.4v-1.5
			c0-0.5-0.1-1.3-0.2-2.4c-0.1-0.6-0.2-1.2-0.2-1.9c0-0.1,0-0.4,0-0.7c0-0.3-0.1-0.6-0.2-0.8c-0.1-0.2-0.3-0.4-0.5-0.6
			c-2.1,0-4.4,0.2-6.8,0.7c-2.5,0.4-4.1,1.1-5,2c-0.1,0.1-0.2,0.7-0.3,1.6c0,0.9-0.1,2.2-0.1,3.9c-0.1,2.6-0.1,3.9-0.2,4
			c-0.1,0.1-0.2,0.1-0.3,0.2c-0.1,0-0.2,0-0.3,0C521.2,275.5,520.7,274.7,520.7,272.9z M527.2,276.1c-0.2-0.1-0.5-0.5-1.1-1.2
			c-0.6-0.7-0.9-1.1-0.9-1.3c-0.2-0.7-0.3-1.6-0.3-2.7c0-0.3,0-0.5,0.1-0.6c0.1-0.2,0.2-0.2,0.4-0.2c0.1,0,0.3,0,0.4,0
			c0.2,0,0.3,0,0.4,0c0.2-0.3,0.3-0.7,0.4-1c0.1-0.3,0.1-0.5,0.1-0.5c0.1-0.4,0.2-0.8,0.3-1.1c0.2-0.3,0.5-0.7,1.1-1.1
			c0.4-0.3,0.8-0.4,1.1-0.4c1,0,1.7,0.5,2.1,1.4c0.4,1,0.6,2,0.6,3.2c0,1-0.1,1.7-0.4,2.1c-0.3,0.5-0.6,0.9-1.1,1.3
			c-0.3,0.3-0.6,0.5-0.7,0.7c-0.2,0.2-0.3,0.4-0.4,0.7c-0.3,0.7-0.6,1-1,1C527.9,276.5,527.5,276.3,527.2,276.1z M528.7,271
			c0.2,0,0.3-0.3,0.4-0.8c0.1-0.5,0.1-0.9,0.1-1.2c0-0.2-0.1-0.3-0.2-0.4c-0.2,0-0.3,0.2-0.4,0.6c-0.1,0.4-0.2,0.7-0.2,1
			C528.4,270.7,528.5,270.9,528.7,271z M530.1,260c0.4-0.4,0.5-0.7,0.5-1c0-0.3-0.1-0.6-0.4-0.8c-0.3-0.2-0.6-0.3-0.9-0.3
			c-0.2,0-0.4,0-0.4,0.1c-0.1,0.3-0.1,0.4-0.1,0.5c0,0.3,0,0.7,0.1,1.1c0.1,0.5,0.1,0.7,0.2,0.9l0.2,0.1
			C529.4,260.7,529.7,260.4,530.1,260z"/>
	</g>
</g>
</svg>
