<?xml version="1.0" encoding="utf-8"?>
<!-- Generator: Adobe Illustrator 25.2.1, SVG Export Plug-In . SVG Version: 6.00 Build 0)  -->
<svg version="1.1" id="圖層_1" xmlns="http://www.w3.org/2000/svg" xmlns:xlink="http://www.w3.org/1999/xlink" x="0px" y="0px"
	 viewBox="0 0 125 19.5" style="enable-background:new 0 0 125 19.5;" xml:space="preserve">
<style type="text/css">
	.st0{enable-background:new    ;}
</style>
<g class="st0">
	<path d="M1.1,7.1c0.8-0.9,1.5-1.8,2.4-2.7s1.4-1.3,1.6-1.3c0.1,0,0.2,0.1,0.3,0.2s0.1,0.2,0.1,0.4c0,0.3-0.1,0.6-0.3,0.9
		S4.7,5.3,4.3,5.7C4,6.1,3.8,6.3,3.8,6.3c0,0.2,0.1,0.3,0.2,0.6c0.2,0.3,0.3,0.8,0.3,1.5C4.4,9,4.4,9.7,4.4,10.2
		c0,1.1-0.1,2.3-0.3,3.4C4,14.8,3.6,15.4,3,15.4c-0.1,0-0.2,0-0.3-0.1c-0.1-0.1-0.2-0.2-0.3-0.3c0-0.7,0-1.5,0.1-2.4
		c0.1-1,0.1-1.8,0.1-2.4c0-1.2-0.1-2-0.2-2.2C2.2,8.2,1.9,8.5,1.5,8.8s-0.8,0.5-1,0.5c-0.1,0-0.2,0-0.3-0.1C0,9.1,0,9,0,8.9
		C0,8.6,0.4,8,1.1,7.1z M7.3,11.9c0.9-1.4,1.5-2.2,1.6-2.3c0.2-0.2,0.4-0.3,0.5-0.3c0.1,0,0.2,0,0.3,0s0.1,0.1,0.1,0.2
		c0,0.4-0.2,1-0.6,1.9c-0.4,0.9-0.8,1.7-1.3,2.5c-0.5,0.7-0.9,1.1-1.3,1.1c-0.2,0-0.4-0.1-0.5-0.3s-0.2-0.4-0.2-0.6
		C5.9,14.1,6.4,13.4,7.3,11.9z M7.2,5.2c0.1-0.3,0.3-0.6,0.4-0.8C7.7,4.2,7.8,4,7.9,3.8c0.4-0.8,0.6-1.3,0.7-1.5
		c0-0.1,0.1-0.4,0.2-0.7S8.9,1.1,9,1c0.1-0.1,0.2-0.1,0.3-0.1c0.2,0,0.4,0.1,0.5,0.2C9.9,1.2,9.9,1.4,10,1.6C10,1.8,10.1,2,10.2,2
		c0.1,0,0.3,0,0.4-0.1c0.2-0.1,0.3-0.1,0.3-0.1c1.4-0.4,2.5-0.7,3.3-0.7c0.3,0,0.6,0.1,0.9,0.4c0.3,0.2,0.4,0.5,0.4,0.8
		c0,0.2-0.1,0.5-0.2,0.9s-0.3,0.7-0.6,1c-0.2,0.3-0.4,0.4-0.6,0.4c-0.3,0-0.4-0.2-0.4-0.5c0-0.1,0-0.3,0-0.4c0-0.1,0-0.2,0-0.4
		s0-0.2,0-0.3c-0.5,0.1-1.3,0.2-2.2,0.4C10.5,3.7,10,3.9,9.8,4C9.6,4.1,9.5,4.2,9.4,4.4S9.2,4.8,9,5.1c-0.2,0.4-0.4,0.8-0.6,1
		C8.2,6.3,8,6.4,7.7,6.4c-0.2,0-0.3,0-0.5-0.1S7,6.1,7,5.9C7,5.8,7.1,5.5,7.2,5.2z M11.2,11.1c0-0.3,0-0.7,0-1.2
		c0-2.2,0.3-3.2,0.9-3.2c0.2,0,0.3,0,0.4,0.1c0.1,0.1,0.2,1.1,0.5,3.1c0.2,2,0.4,3.2,0.4,3.6c0,0.9-0.1,1.8-0.3,2.5
		c-0.2,0.7-0.6,1.1-1.3,1.1c-0.6,0-1.1-0.4-1.4-1.3c-0.3-0.9-0.4-1.7-0.4-2.5c0-0.7,0.2-1,0.7-1c0.2,0,0.3,0,0.3,0.1
		c0.1,0.1,0.1,0.1,0.2,0.1c0.1,0,0.1,0,0.1-0.1L11.2,11.1z M13.4,9.2c0.1,0,0.2,0,0.3,0.1c0.1,0.1,0.2,0.2,0.3,0.3
		c0.3,0.3,0.8,0.6,1.5,1c0.7,0.3,1.6,0.8,2.9,1.4c0.2,0.1,0.6,0.3,1.3,0.6c0.7,0.3,1.2,0.6,1.6,0.8c0.4,0.2,0.6,0.4,0.7,0.5
		c0.1,0.2,0.2,0.3,0.2,0.5c0,0.3-0.1,0.6-0.3,0.7c-0.2,0.2-0.5,0.3-0.8,0.3c-0.3,0-0.7-0.1-1.2-0.4l-1.2-0.6c-0.7-0.4-1.3-0.7-1.8-1
		c-0.5-0.3-1-0.6-1.4-1c-0.1-0.1-0.3-0.3-0.8-0.7c-0.4-0.4-0.8-0.8-1.1-1.2c-0.3-0.4-0.4-0.7-0.4-1C13.2,9.3,13.2,9.2,13.4,9.2z"/>
	<path d="M23.9,5c-0.1-0.2-0.2-0.4-0.2-0.6c0-0.4,0.2-0.9,0.7-1.5s1-1.1,1.7-1.5c0.6-0.4,1.2-0.6,1.6-0.6c0.3,0,0.4,0.1,0.5,0.2
		c0.1,0.1,0.2,0.3,0.2,0.5c0,0.2,0,0.3-0.1,0.4C28.2,2,28.1,2.1,28,2.1c-0.1,0.1-0.2,0.1-0.2,0.1c-0.6,0.3-1.2,0.8-1.9,1.3
		c-0.7,0.5-1.1,1-1.2,1.4c0,0,0,0.1,0,0.1c0,0.1,0,0.1-0.1,0.2c-0.1,0-0.1,0-0.2,0C24.1,5.3,24,5.2,23.9,5z M24.5,14.3
		c-0.1-0.3-0.2-0.7-0.2-1.2c0-0.3,0-0.6,0.1-1.1c0.1-0.5,0.1-0.8,0.1-1.1c0-0.1,0-0.1,0-0.2s0-0.1,0-0.2c0-0.4,0.1-1.1,0.4-2.2
		s0.5-1.8,0.7-2.2s0.5-0.8,0.9-1.1C27,4.8,27.5,4.7,28,4.7c0.9,0,1.5,0.4,1.8,1.3s0.4,1.9,0.4,3.1c0,0.9,0,1.7-0.1,2.4
		c-0.1,0.7-0.2,1.3-0.4,1.7c-0.1,0.3-0.3,0.5-0.6,0.7c-0.3,0.2-0.6,0.3-0.8,0.3c-0.1,0-0.2,0-0.3-0.1c-0.1-0.1-0.1-0.1-0.2-0.3
		c-0.1-0.1-0.2-0.2-0.2-0.2c-0.1,0-0.2,0.1-0.5,0.2c-0.3,0.1-0.5,0.2-0.7,0.2c-0.2,0-0.3,0.1-0.5,0.3c0,0-0.1,0.1-0.2,0.2
		c-0.1,0.1-0.2,0.2-0.3,0.2C24.9,14.8,24.6,14.6,24.5,14.3z M28.2,11.4c0.5-0.3,0.7-0.8,0.7-1.4c0-0.1,0-0.2,0-0.2s-0.1-0.1-0.2-0.1
		c-0.3,0-0.8,0.1-1.4,0.3c-0.7,0.2-1,0.4-1.1,0.6c-0.1,0.2-0.1,0.6-0.1,1.1c0,0.4,0.1,0.7,0.3,0.7C27.1,12.1,27.8,11.8,28.2,11.4z
		 M26.4,8.4c0.1,0,0.3-0.1,0.5-0.2c0.1,0,0.1-0.1,0.2-0.1C27.3,8.1,27.4,8,27.4,8c0.1,0,0.2,0,0.4,0c0.2,0,0.4,0,0.5-0.1
		s0.2-0.1,0.2-0.3c0-0.3-0.1-0.6-0.3-1c-0.2-0.4-0.4-0.5-0.7-0.5c-0.4,0-0.8,0.2-1,0.7c-0.3,0.5-0.4,1-0.4,1.4
		C26.3,8.4,26.3,8.4,26.4,8.4z M37.6,2.4c0.9,0.3,1.5,0.9,1.8,1.8c0.3,0.9,0.5,2.1,0.5,3.5l0,1.9c0,2.1-0.2,4-0.5,5.9
		c-0.3,1.9-1,2.8-2.1,2.8c-0.4,0-0.6-0.2-0.6-0.6c0-0.2,0.1-0.5,0.2-0.7c0.1-0.2,0.2-0.4,0.3-0.5c0.3-0.6,0.5-1.4,0.6-2.3
		c0.1-0.9,0.2-1.8,0.2-2.6v-0.6c-0.9-0.7-1.7-1.1-2.2-1.4c-0.1-0.1-0.4-0.2-1-0.5s-0.9-0.5-1-0.7c-0.1-0.2-0.1-0.4-0.1-0.7
		c0-0.1,0-0.1,0-0.2s0-0.1,0-0.2s-0.1-0.2-0.2-0.3s-0.3-0.2-0.4-0.3c-0.1-0.1-0.1-0.3-0.1-0.6c0-0.5,0.2-1.2,0.6-2.3
		c0.4-1,0.9-1.9,1.4-2.7C35.6,0.4,36.1,0,36.6,0c0.1,0,0.2,0,0.2,0.1c-0.4,0.6-0.7,1.1-0.9,1.5s-0.3,0.9-0.3,1.4
		C35.7,3,35.8,2.9,36,2.8c0.2-0.1,0.4-0.2,0.6-0.3s0.4-0.1,0.6-0.1C37.3,2.3,37.4,2.4,37.6,2.4z M37.9,7.9c0-0.1,0.1-0.3,0.1-0.5
		c0-0.8-0.1-1.6-0.3-2.3S37.1,4,36.5,4c-0.2,0-0.4,0.1-0.7,0.3c-0.1,0.1-0.4,0.5-0.8,1.3s-0.6,1.2-0.6,1.3s0.5,0.4,1.4,0.7
		c0.9,0.4,1.5,0.5,1.8,0.5C37.8,8.1,37.9,8.1,37.9,7.9z"/>
	<path d="M45.1,2.1C45.2,2,45.4,2,45.6,2c0.3,0,0.4,0,0.5,0.1c0.1,0.1,0.2,0.2,0.3,0.5c0.1,0.2,0.2,0.4,0.3,0.5
		c0.1,0.1,0.3,0.2,0.5,0.3c0.2,0.1,0.4,0.2,0.5,0.3s0.2,0.3,0.2,0.5c0,0.3-0.2,0.5-0.7,0.8c-0.5,0.3-1,0.5-1.6,0.6s-1.1,0.2-1.3,0.2
		c-0.7,0-1-0.2-1-0.7c0-0.2,0.1-0.4,0.4-0.6c0.3-0.2,0.6-0.3,1.1-0.5c0.1,0,0.2-0.1,0.5-0.2c0.3-0.1,0.5-0.2,0.6-0.3
		c-0.1-0.1-0.2-0.2-0.3-0.2C45.1,3.2,45,3.1,45,3c-0.1-0.1-0.1-0.2-0.1-0.4C44.9,2.4,45,2.3,45.1,2.1z M43.7,9.7
		c0.1-0.2,0.2-0.2,0.4-0.2c0.1,0,0.2-0.1,0.4-0.2c0.2-0.1,0.4-0.3,0.6-0.4c0.5-0.3,0.9-0.6,1.2-0.8s0.6-0.3,0.8-0.3
		c0.2,0,0.3,0,0.4,0.1c0.1,0.1,0.1,0.2,0.1,0.4c0,0.2,0,0.4-0.1,0.5C47.4,9,47.3,9.1,47,9.2c-0.3,0.2-0.5,0.3-0.6,0.5
		c-0.1,0.2-0.2,0.6-0.2,1.1l0.1,0.1c0.1,0,0.3,0,0.5-0.1c0.1,0,0.1,0,0.2-0.1s0.2,0,0.3,0c0.3,0,0.6,0.2,0.7,0.5s0.3,0.6,0.3,1
		S48.2,13,48,13.6c-0.2,0.6-0.5,1.1-0.9,1.5c-0.4,0.4-0.7,0.6-1.1,0.6c-0.5,0-0.8-0.1-1-0.2s-0.3-0.4-0.3-0.9c0-0.6,0.1-1.3,0.2-2
		s0.3-1.3,0.5-1.8c0.1-0.2,0.2-0.4,0.2-0.5l-0.1-0.1c-0.1,0-0.2,0.1-0.5,0.2c-0.2,0.1-0.4,0.2-0.6,0.2c-0.2,0-0.4-0.1-0.5-0.2
		s-0.3-0.2-0.3-0.4C43.5,10,43.6,9.8,43.7,9.7z M44.8,6.7C45.1,6.5,45.5,6.2,46,6c0.4-0.2,0.8-0.3,0.9-0.3c0.2,0,0.4,0,0.4,0.1
		c0.1,0.1,0.1,0.2,0.1,0.4c0,0.2-0.2,0.4-0.6,0.7c-0.4,0.3-0.8,0.5-1.2,0.8s-0.8,0.3-0.9,0.3c-0.1,0-0.2-0.1-0.3-0.2
		c-0.1-0.1-0.2-0.2-0.2-0.3C44.3,7.2,44.4,7,44.8,6.7z M46.7,12c-0.2,0-0.4,0.1-0.6,0.3c0,0.2-0.1,0.4-0.1,0.6s0,0.4,0,0.5
		c0,0.2,0,0.3,0,0.3l0.1,0c0.1-0.1,0.2-0.3,0.4-0.7c0.2-0.4,0.3-0.7,0.3-0.8C46.8,12.1,46.8,12,46.7,12z M51.3,2.3
		c0.1-0.1,0.6-0.4,1.5-0.7c0.9-0.3,1.5-0.5,1.8-0.5c0.3,0,0.6,0.1,0.9,0.3s0.4,0.4,0.4,0.7c0,0.2-0.1,0.3-0.2,0.5s-0.2,0.2-0.2,0.3
		c-0.2,0.2-0.3,0.4-0.3,0.5c0,0.1,0,0.3,0.1,0.7s0.1,0.6,0.2,0.8c0.2-0.1,0.3-0.2,0.5-0.4s0.3-0.3,0.4-0.5c0,0,0-0.1,0.1-0.2
		c0-0.1,0.1-0.1,0.2-0.1c0.2,0,0.4,0,0.4,0.1c0.1,0.1,0.1,0.2,0.1,0.4c0,0.3-0.1,0.6-0.3,0.9s-0.5,0.8-0.9,1.3
		c-0.4,0.5-0.6,0.8-0.6,0.9c0,0.1,0.1,0.2,0.3,0.2c0.3,0,0.5,0,0.8-0.1s0.6-0.2,0.9-0.3c0.3-0.1,0.6-0.2,0.9-0.3s0.6-0.1,0.8-0.1
		c0.2,0,0.4,0.1,0.5,0.3c0.1,0.2,0.2,0.4,0.2,0.7c0,0.4-0.2,0.7-0.6,0.9s-1,0.3-1.8,0.5c-0.7,0.1-1.2,0.3-1.6,0.4
		c-0.3,0.1-0.6,0.3-0.6,0.6c-0.1,0.2-0.1,0.5-0.1,1c0,0.3,0,0.5,0,0.8l0,2.1c0,1.6-0.1,2.9-0.2,4c-0.2,1.1-0.4,1.6-0.9,1.6
		s-0.7-0.2-0.8-0.6c-0.1-0.4-0.2-0.9-0.2-1.5c0-0.9,0.1-2,0.2-3.4c0.1-1.5,0.2-2.6,0.2-3.4c0-0.2,0-0.4-0.1-0.5
		c0-0.1-0.1-0.2-0.3-0.2c-0.2,0-0.5,0.1-0.8,0.2s-0.6,0.2-0.7,0.2c-0.6,0.2-1.2,0.2-2,0.2c-0.4,0-0.8-0.1-1.1-0.2
		c-0.3-0.1-0.4-0.4-0.4-0.7c0-0.4,0.2-0.6,0.5-0.8s0.8-0.3,1.4-0.4c0.5-0.1,0.9-0.2,1.2-0.3c0.3-0.1,0.5-0.3,0.7-0.5
		c0-0.2-0.1-0.5-0.3-0.8c-0.2-0.4-0.3-0.8-0.3-1.1s0.1-0.8,0.4-1.4c0-0.1,0-0.2,0.1-0.3c0-0.1,0.1-0.2,0.1-0.2
		c0-0.1-0.1-0.2-0.3-0.2c-0.2-0.1-0.3-0.2-0.5-0.3c-0.1-0.1-0.2-0.3-0.2-0.5C51.1,2.6,51.2,2.4,51.3,2.3z M53.5,3.4
		c-0.4,0-0.6,0.1-0.7,0.2c-0.1,0.1-0.1,0.3-0.1,0.7c0,0.3,0.1,0.7,0.3,1.3c0.2,0.6,0.4,1,0.5,1c0.2,0,0.4-0.3,0.4-0.9
		s0.1-1.2,0.1-1.8V3.5L53.5,3.4z"/>
	<path d="M65.8,7.3C65.9,7.6,66,7.9,66,8.5l0.1,0.7c0.1,0.5,0.1,0.9,0.1,1.1c0,0.6,0,1.4-0.1,2.5c-0.1,1.1-0.2,1.7-0.3,2
		c-0.2,0.4-0.4,0.5-0.8,0.5c-0.4,0-0.6-0.2-0.8-0.5s-0.3-0.7-0.3-1.2c0-0.1,0-0.2,0-0.3l0,0.2c0-0.3,0-0.6,0.1-1
		c0-0.4,0.1-0.6,0.1-0.8c0-0.2,0-0.5,0.1-0.9c0-0.4,0.1-0.8,0.1-1.2V9.3V8.8c0-0.4,0-0.6-0.1-0.7c-0.2,0.2-0.4,0.5-0.7,1
		c-0.3,0.6-0.6,1-0.9,1.3c-0.2,0.3-0.5,0.5-0.7,0.5c-0.4,0-0.5-0.1-0.5-0.4c0-0.4,0.3-1.2,0.8-2.5c0.5-1.3,1.1-2.4,1.7-3.5
		C64.4,3.6,64.9,3,65.3,3c0.3,0,0.5,0.1,0.6,0.2s0.2,0.3,0.2,0.6c0,0.2-0.1,0.3-0.2,0.6c-0.1,0.2-0.2,0.5-0.4,0.7
		c-0.3,0.5-0.5,0.8-0.5,1.1C65.4,6.6,65.7,7,65.8,7.3z M70.3,5.5c-0.5,0-0.9,0-1.2,0c-0.2,0-0.4,0-0.7,0c-0.3,0-0.6,0-1,0
		c-0.6,0-0.9-0.1-0.9-0.2c0-0.3,0.2-0.5,0.7-0.6c0.5-0.2,1.2-0.3,2.1-0.5c0.2,0,0.4-0.1,0.8-0.2s0.7-0.2,0.8-0.2
		c0.1-0.1,0.2-0.2,0.2-0.3c0-0.2,0.1-0.4,0.1-0.7c0.1-0.4,0.1-0.7,0.2-0.9c0.1-0.2,0.3-0.3,0.5-0.3c0.2,0,0.3,0.1,0.3,0.3l0,0.5
		c0,0.2-0.1,0.4-0.1,0.5c0,0.2,0,0.4,0.1,0.5c0.1,0.1,0.3,0.2,0.5,0.2c0.2,0,0.5,0,0.8,0c0.3,0,0.6,0,0.7-0.1c0.5-0.1,1-0.1,1.5-0.1
		c0.8,0,1.1,0.2,1.1,0.7c0,0.3-0.3,0.6-1,0.7s-1.5,0.2-2.5,0.3c-0.7,0-1.1,0.1-1.1,0.1c-0.1,0.1-0.1,0.3-0.2,0.5
		c0,0.3-0.1,0.6-0.1,1.1c-0.1,0.8-0.1,1.4-0.2,1.8s-0.3,0.6-0.6,0.6c-0.1,0-0.2,0-0.3-0.1C71.1,9.1,71,9,71,8.9c0-0.1,0-0.3,0.1-0.6
		l0-0.6c0-1.4,0-2.1-0.1-2.3C70.7,5.5,70.4,5.5,70.3,5.5z M74,14c0.3,0,0.6,0,1,0c1.8,0,2.7,0.4,2.7,1.1c0,0.2-0.1,0.4-0.2,0.6
		c-0.2,0.2-0.9,0.4-2.2,0.4c-1.3,0.1-2.5,0.1-3.6,0.1c-0.9,0-1.4-0.1-1.6-0.2c-0.5-0.3-0.7-1.9-0.7-4.8c0-0.5,0-0.9,0.1-1.2l0.4-0.4
		c0.2-0.1,0.4-0.1,0.5-0.1c0.1,0,0.2,0.1,0.2,0.2c0.1,0.1,0.1,0.3,0.2,0.4c0.1,0.2,0.1,0.3,0.1,0.4c0.1,0,0.3-0.1,0.6-0.1
		s0.5-0.1,0.7-0.1c0.5,0,0.9,0.2,1.2,0.5c0.3,0.3,0.5,0.7,0.5,1.2c0,0.4-0.2,0.9-0.5,1.4C73.1,13.7,73,13.9,73,14
		c0.1,0,0.2,0.1,0.3,0.1C73.5,14.1,73.7,14.1,74,14z M71.8,12.9c0.3-0.5,0.5-0.9,0.5-1c0-0.2-0.1-0.4-0.4-0.4c-0.4,0-0.7,0.1-1,0.2
		l0,0.9c0,0.2,0,0.4,0.1,0.7c0,0.3,0.1,0.4,0.2,0.4C71.3,13.8,71.5,13.5,71.8,12.9z"/>
	<path d="M81.6,14.4c0.2-0.8,0.5-1.6,0.8-2.3s0.6-1,0.8-1c0.2,0,0.4,0.1,0.4,0.3c0,0.3-0.1,0.8-0.3,1.7c-0.2,0.9-0.4,1.7-0.6,2.5
		c-0.2,0.8-0.4,1.2-0.6,1.2c-0.1,0-0.2,0-0.3,0c-0.2,0-0.3-0.1-0.4-0.2c-0.1-0.2-0.1-0.4-0.1-0.6C81.3,15.8,81.4,15.3,81.6,14.4z
		 M83.6,3.4c0.3-0.5,0.6-0.9,0.9-1.3c0.3-0.4,0.6-0.6,0.7-0.6c0.2,0,0.3,0.1,0.4,0.3c0.1,0.2,0.2,0.4,0.2,0.6c0,0.2-0.1,0.4-0.2,0.6
		c-0.1,0.1-0.2,0.2-0.2,0.3l0,0.1c0.1,0,0.2-0.1,0.6-0.2C86.4,3,86.6,3,86.8,3s0.3,0.1,0.4,0.2s0.2,0.3,0.2,0.5
		c0,0.3-0.1,0.6-0.2,0.8c-0.1,0.2-0.3,0.5-0.5,0.8c-0.2,0.3-0.4,0.5-0.4,0.6l0,0.1c0.1,0,0.3,0,0.5-0.1c0.2-0.1,0.4-0.1,0.5-0.1
		c0.3,0,0.5,0.1,0.7,0.3c0.2,0.2,0.3,0.5,0.3,0.8c0,0.2-0.1,0.5-0.4,1c-0.2,0.5-0.5,0.9-0.8,1.3c-0.3,0.4-0.5,0.6-0.7,0.6
		c-0.2,0-0.3-0.1-0.3-0.2l0-0.1c0-0.2,0.1-0.5,0.2-0.8c0-0.1,0.1-0.2,0.1-0.3s0.1-0.3,0.1-0.5c0-0.1,0-0.2-0.1-0.2
		c-0.2,0-0.6,0.1-1,0.3c-0.2,0.1-0.4,0.2-0.7,0.3c-0.2,0.1-0.4,0.1-0.6,0.1c-0.3,0-0.5-0.1-0.6-0.2c-0.1-0.1-0.2-0.3-0.2-0.6
		c0-0.2,0.1-0.3,0.3-0.5c0.2-0.2,0.4-0.5,0.8-0.9c0.3-0.3,0.6-0.6,0.7-0.8c0.2-0.2,0.2-0.3,0.2-0.5c0,0,0,0-0.1-0.1c0,0-0.1,0-0.1,0
		c-0.2,0-0.4,0-0.7,0.1c-0.1,0-0.2,0-0.3,0.1c-0.1,0-0.3,0-0.4,0c-0.2,0-0.3-0.1-0.4-0.2c-0.1-0.1-0.1-0.3-0.1-0.4
		S83.3,3.9,83.6,3.4z M83.9,14.3l0.1-0.8c0.1-0.8,0.1-1.5,0.3-1.9s0.4-0.7,0.7-0.7c0.2,0,0.4,0.1,0.5,0.3s0.2,0.5,0.2,0.7
		c0,0.2,0,0.4,0,0.5l0,0.6c0,0.1,0,0.4,0,0.8c0,0.5-0.1,0.9-0.3,1.2s-0.4,0.5-0.8,0.5c-0.2,0-0.4-0.1-0.5-0.3s-0.2-0.4-0.2-0.6
		C83.8,14.5,83.8,14.4,83.9,14.3z M86.5,12c0.1-0.1,0.3-0.1,0.5-0.1c0.2,0,0.4,0.1,0.8,0.4s0.7,0.6,1,0.9s0.5,0.6,0.5,0.8
		c0,0.3-0.1,0.4-0.2,0.5c-0.1,0.1-0.4,0.1-0.7,0.1c-0.2,0-0.5-0.1-0.8-0.4c-0.3-0.3-0.7-0.6-0.9-1c-0.3-0.4-0.4-0.6-0.4-0.9
		C86.3,12.2,86.3,12.1,86.5,12z M91,2.7c0.4-0.2,0.9-0.4,1.5-0.5c0.2,0,0.4-0.1,0.6-0.1c0.1,0,0.2-0.1,0.3-0.3
		c0.1-0.2,0.2-0.3,0.3-0.5c0.2-0.4,0.4-0.7,0.6-0.9S94.7,0,95,0c0.1,0,0.2,0.1,0.4,0.2s0.2,0.2,0.2,0.3c0,0.1-0.1,0.2-0.3,0.4
		C95.1,1.2,95,1.4,95,1.5c0,0.1,0.3,0.2,0.9,0.2h0.5c0.1,0,0.2,0.1,0.3,0.3c0.1,0.1,0.1,0.3,0.1,0.4c0,0.3-0.1,0.5-0.3,0.6
		s-0.6,0.3-1,0.4c-0.1,0-0.2,0.1-0.4,0.1c-0.2,0.1-0.4,0.2-0.5,0.3c-0.1,0.1-0.3,0.4-0.5,1c-0.2,0.5-0.4,0.9-0.4,1
		c0.2,0,0.5-0.1,0.9-0.2c0.5-0.2,0.8-0.2,1-0.2c0.3,0,0.5,0.1,0.7,0.2c0.2,0.1,0.3,0.3,0.3,0.6c0,0.4-0.3,0.7-0.8,1s-1,0.5-1.4,0.6
		l-0.8,0.2c-0.1,0-0.4,0.1-1,0.3c-0.6,0.2-1,0.2-1.3,0.2c-0.1,0-0.3-0.1-0.4-0.2c-0.1-0.1-0.2-0.2-0.2-0.4c0-0.6,0.5-1.8,1.5-3.7
		l-0.1,0.2l0.1-0.2c0-0.1-0.1-0.2-0.3-0.2c-0.1,0-0.2,0-0.4,0.1c-0.2,0.1-0.3,0.1-0.4,0.1c-0.4,0-0.6-0.2-0.6-0.7
		C90.4,3.1,90.6,2.8,91,2.7z M91.5,14.2c0.1-0.4,0.2-1,0.3-1.6l0.2-0.7c0.1-0.2,0.2-0.5,0.5-0.9c0.3-0.4,0.6-0.6,0.7-0.6
		c0.1,0,0.2,0.1,0.4,0.2s0.4,0.2,0.6,0.2c0.4,0,0.8,0.2,1.1,0.6c0.3,0.4,0.5,0.8,0.5,1.2c0,0.3-0.1,0.6-0.4,1
		c-0.2,0.3-0.3,0.5-0.3,0.7l0.1,0.1c0.2,0,0.6-0.1,1.2-0.3c0.7-0.2,1.2-0.3,1.6-0.3c0.4-0.1,0.8-0.1,1.2-0.1c0.4,0,0.6,0.1,0.9,0.3
		c0.2,0.2,0.3,0.4,0.3,0.8c0,0.5-0.5,0.8-1.4,0.9c-1.3,0.2-3.3,0.5-5.9,0.7c-0.1,0-0.3,0.1-0.5,0.1c-0.3,0.1-0.5,0.2-0.6,0.2
		c-0.3,0-0.5-0.1-0.6-0.3c-0.1-0.2-0.1-0.5-0.1-0.8C91.4,15.1,91.5,14.6,91.5,14.2z M93.9,12.3c-0.1-0.1-0.2-0.1-0.3-0.1
		c-0.2,0-0.3,0.2-0.4,0.5s-0.1,0.6-0.1,0.9c0,0.1,0,0.2,0.1,0.3c0.1,0,0.3-0.2,0.5-0.6c0.2-0.4,0.4-0.7,0.4-0.8
		C94.1,12.4,94,12.3,93.9,12.3z"/>
	<path d="M107.8,17.9c-0.1-0.1-0.1-0.6-0.1-1.6c0-1-0.1-1.8-0.1-2.3c0-0.3,0-0.6,0.1-0.9c0-0.4,0.1-0.7,0.1-0.8c0-0.1,0-0.2-0.1-0.2
		c-0.1,0-0.4,0.3-1,0.9c-0.7,0.7-1.3,1.2-1.8,1.6c-0.5,0.4-0.9,0.6-1.2,0.6c-0.1,0-0.2,0-0.3-0.1c-0.1-0.1-0.1-0.2-0.1-0.3
		c0-0.1,0.2-0.4,0.5-0.8s0.6-0.7,0.8-1c0.2-0.2,0.4-0.5,0.8-0.7c0.3-0.2,0.5-0.4,0.6-0.5c0.9-0.7,1.5-1.2,1.7-1.6
		c0-0.1-0.1-0.2-0.3-0.2c-0.3,0-0.6,0-0.9,0.1c-0.3,0.1-0.5,0.1-0.6,0.1c-0.7,0.2-1.2,0.3-1.5,0.3c-0.7,0-1-0.2-1-0.5
		c0-0.3,0.3-0.5,0.8-0.7c0.5-0.2,1.2-0.4,2.1-0.6c0.1,0,0.3-0.1,0.6-0.1c0.3-0.1,0.5-0.1,0.7-0.2s0.2-0.1,0.3-0.2
		c0.1-0.1,0.1-0.3,0.1-0.5s0-0.3,0-0.3V7.2c0-0.2-0.1-0.2-0.2-0.3c-0.1,0-0.3-0.1-0.6-0.1c-0.5,0-0.8-0.1-1.1-0.3
		c-0.2-0.2-0.4-0.5-0.4-1.1c0-0.4,0-1.2,0.1-2.2c0.1-1,0.2-1.6,0.3-1.8c0.3,0,0.5,0.1,0.7,0.4c0.7-0.5,1.2-0.9,1.6-1.1
		c0.4-0.2,1-0.3,1.6-0.3c0.8,0,1.4,0.2,1.7,0.6s0.5,1,0.5,1.8c0,0.5-0.1,1.1-0.4,1.7c-0.2,0.6-0.5,1.1-0.9,1.4
		c-0.1,0.1-0.1,0.1-0.3,0.2c-0.1,0.1-0.2,0.1-0.3,0.2c-0.2,0.1-0.4,0.2-0.6,0.4c-0.2,0.1-0.3,0.2-0.3,0.3l0,0.8c0.1,0,0.2,0,0.3,0
		c0.2,0,0.8-0.1,1.7-0.2c0.8-0.2,1.4-0.2,2-0.2c0.6,0,0.8,0.2,0.8,0.6c0,0.1-0.1,0.3-0.2,0.4c-0.2,0.2-0.8,0.4-2,0.7
		c-1.2,0.3-1.9,0.4-2.2,0.4c-0.2,0-0.4,0.1-0.5,0.3c-0.1,0.2-0.1,0.5-0.1,0.8c0,0.2,0,0.3,0,0.4s0.1,0.2,0.2,0.3
		c0.2,0.1,0.4,0.3,0.8,0.4c0.4,0.1,0.7,0.2,1.2,0.3s0.7,0.2,0.8,0.2c1.4,0.3,2.5,0.6,3.2,0.9c0.7,0.3,1.1,0.7,1.1,1.2
		c0,0.5-0.3,0.8-0.8,0.8c-0.2,0-0.4,0-0.6,0c-0.1,0-0.3-0.1-0.4-0.2c-1.1-0.5-2.1-1-3.1-1.3c-0.9-0.4-1.7-0.6-2.4-0.7l-0.1,0.1
		c0,0.7-0.1,1.6-0.2,2.9c-0.1,1.3-0.3,2-0.4,2.2c-0.1,0.1-0.1,0.1-0.2,0.1c-0.1,0-0.1,0-0.2,0C108,18.1,107.9,18,107.8,17.9z
		 M107.1,3.4c0,0,0.1,0.1,0.2,0.1c0.2,0,0.3-0.1,0.6-0.2s0.3-0.3,0.3-0.4c0-0.2-0.1-0.3-0.3-0.3c-0.2,0-0.4,0.1-0.6,0.2
		C107.1,2.9,107,3,107,3.2C107,3.3,107,3.3,107.1,3.4z M108,5.1c0-0.1,0-0.2-0.1-0.2s-0.1-0.1-0.2-0.1c-0.1,0-0.2,0-0.3,0.1
		c-0.1,0.1-0.2,0.1-0.2,0.2c0,0.1,0,0.2,0.1,0.2s0.2,0.1,0.2,0.1C107.8,5.4,108,5.3,108,5.1z M110.4,2.9c0-0.2,0-0.4-0.1-0.5
		c-0.1-0.1-0.2-0.2-0.5-0.2c-0.1,0-0.3,0-0.4,0.1c-0.1,0.1-0.2,0.2-0.2,0.3c0,0.1,0.1,0.2,0.4,0.3s0.5,0.1,0.7,0.2
		C110.4,3.1,110.4,3,110.4,2.9z M110.2,4.9c0.1-0.1,0.2-0.1,0.2-0.2s0-0.1-0.1-0.2c-0.1,0-0.1-0.1-0.2-0.1c-0.1,0-0.2,0-0.3,0.1
		c-0.1,0.1-0.2,0.1-0.2,0.2c0,0.1,0.1,0.2,0.4,0.2C110,5,110,4.9,110.2,4.9z"/>
	<path d="M123.1,7.2c0.2-0.3,0.5-0.5,0.8-0.5c0.4,0,0.7,0.1,0.9,0.4s0.3,0.6,0.3,1c0,0.4-0.1,0.7-0.2,1c-0.2,0.3-0.4,0.4-0.7,0.4
		c-0.3,0-0.6-0.2-0.9-0.5c-0.3-0.3-0.5-0.6-0.5-0.9C122.7,7.8,122.8,7.5,123.1,7.2z M123,13.2c0.2-0.3,0.4-0.4,0.7-0.4
		c0.4,0,0.7,0.2,1,0.5c0.2,0.3,0.3,0.7,0.3,1.2c0,0.4-0.1,0.6-0.3,0.9c-0.2,0.2-0.5,0.3-0.9,0.3s-0.6-0.2-0.9-0.5
		c-0.2-0.4-0.3-0.7-0.3-1.1C122.7,13.8,122.8,13.5,123,13.2z"/>
</g>
</svg>
