<?xml version="1.0" encoding="utf-8"?>
<!-- Generator: Adobe Illustrator 25.2.1, SVG Export Plug-In . SVG Version: 6.00 Build 0)  -->
<svg version="1.1" id="圖層_1" xmlns="http://www.w3.org/2000/svg" xmlns:xlink="http://www.w3.org/1999/xlink" x="0px" y="0px"
	 viewBox="0 0 235.2 26.1" style="enable-background:new 0 0 235.2 26.1;" xml:space="preserve">
<style type="text/css">
	.st0{enable-background:new    ;}
</style>
<g class="st0">
	<path d="M1.2,14C1.1,13.6,1,13.3,1,13.1C1,13,1,12.9,1,12.8c0.3-1.4,0.5-2.6,0.5-3.7c0-0.2,0-0.3-0.1-0.4c-0.1,0-0.2,0.1-0.4,0.2
		C0.9,9,0.7,9.1,0.6,9.1c-0.2,0-0.3,0-0.4-0.1C0.1,8.8,0,8.7,0,8.5c0-0.3,0.2-0.7,0.7-1.3c0.5-0.6,1-1.2,1.5-1.7s1-0.8,1.2-0.8
		c0.2,0,0.3,0.1,0.4,0.2s0.2,0.3,0.2,0.4c0,0.3-0.1,0.5-0.2,0.7C3.7,6.1,3.5,6.3,3.2,6.6C3,6.8,2.8,6.9,2.8,7
		C2.7,7.1,2.6,7.3,2.6,7.4c0,0.5,0.1,1.2,0.2,2.2C3,10.6,3,11.3,3,11.8c0,0.5-0.1,1.1-0.3,1.8c-0.2,0.7-0.5,1-1,1
		C1.6,14.6,1.4,14.4,1.2,14z M2.6,20.9c-0.1-0.1-0.2-0.3-0.2-0.6c0-0.7,0.2-1.4,0.7-2.1c0-0.1,0.3-0.4,0.7-1.1s0.8-1,1.1-1
		c0.2,0,0.3,0.1,0.5,0.3c0.1,0.2,0.2,0.4,0.2,0.6c0,0.1,0,0.2-0.1,0.3c0,0.1-0.1,0.2-0.2,0.4C5.2,18,5,18.4,4.7,19
		c-0.3,0.7-0.5,1.2-0.8,1.6c-0.2,0.4-0.5,0.5-0.8,0.5C3,21.1,2.8,21.1,2.6,20.9z M8.5,13.5c0-1.6,0.1-2.9,0.2-3.7
		c0.1-0.4,0.1-0.5,0.1-0.6c0-0.1,0-0.2-0.1-0.2c-0.1,0-0.1,0.1-0.2,0.3s-0.2,0.5-0.3,0.7c-0.3,0.9-0.7,1.6-1,2.2
		c-0.3,0.5-0.7,0.8-1.1,0.8c-0.3,0-0.4-0.1-0.6-0.3c-0.1-0.2-0.2-0.4-0.2-0.7s0.2-0.8,0.6-1.6C6.2,9.7,6.6,9,7.1,8.3s0.8-1,1.1-1
		c0.1,0,0.2,0.1,0.4,0.2c0.2,0.1,0.3,0.2,0.4,0.2l0.3,0c0.4,0,0.6,0.5,0.6,1.5c0,0.7,0,1.5,0.1,2.2c0,1,0.1,1.7,0.1,2.2
		c0,0.3-0.1,0.6-0.2,0.8c-0.1,0.2-0.3,0.3-0.6,0.3C8.7,14.7,8.5,14.3,8.5,13.5z M6.9,20.9c-0.6-0.5-0.8-1.3-0.8-2.2
		c0-0.4,0-0.9,0.1-1.4c0.1-0.5,0.3-0.8,0.5-0.8c0.2,0,0.4,0.1,0.5,0.3s0.1,0.5,0.2,0.9c0.1,0.5,0.1,0.8,0.2,1.1
		c0.1,0.3,0.3,0.5,0.5,0.7s0.7,0.3,1.2,0.3c0,0,0.1,0,0.2,0c0.1,0,0.1,0,0.1-0.1c0,0-0.1-0.2-0.4-0.5s-0.5-0.6-0.7-1
		c-0.2-0.3-0.3-0.6-0.3-0.9c0-0.2,0.1-0.5,0.2-0.7s0.3-0.3,0.5-0.3c0.3,0,0.5,0.1,0.6,0.2c0.1,0.1,0.3,0.4,0.4,0.6
		c0.1,0.2,0.3,0.5,0.7,0.9c0.4,0.4,0.7,0.6,0.8,0.6c0.1,0,0.2-0.1,0.3-0.2c0.1-0.1,0.3-0.2,0.4-0.2c0.1,0,0.3,0.1,0.4,0.2
		c0.1,0.1,0.2,0.2,0.2,0.4c0,0.4-0.2,0.9-0.5,1.3c-0.4,0.4-0.8,0.8-1.3,1.1c-0.5,0.3-1,0.4-1.4,0.4C8.3,21.7,7.5,21.4,6.9,20.9z
		 M12.9,5.4c-0.1,0.5-0.2,0.9-0.4,1.2S12,7.1,11.7,7.1c-0.2,0-0.3-0.1-0.4-0.3c-0.1-0.2-0.2-0.3-0.2-0.5c0-0.3,0.1-0.6,0.2-0.9
		c0.1-0.4,0.2-0.7,0.2-0.9c0-0.2-0.1-0.3-0.2-0.3c-0.3,0-0.7,0.1-1.3,0.4S8.9,5,8.8,5.2C8.7,5.3,8.6,5.4,8.4,5.7
		C8.2,5.9,8,6.1,7.8,6.3C7.5,6.4,7.3,6.5,7.1,6.5c-0.2,0-0.3,0-0.4-0.1S6.6,6.2,6.6,6c0-0.2,0.2-0.9,0.7-2.1S8,2,8.2,1.8
		c0.2-0.4,0.5-0.6,0.8-0.6c0.3,0,0.5,0.2,0.6,0.5c0.1,0.3,0.2,0.7,0.2,1l0,0.3c0,0.1,0,0.2,0.1,0.2c0.2,0,0.4,0,0.6-0.1
		s0.3-0.1,0.4-0.1c0.4-0.1,0.7-0.2,0.9-0.2c0.4,0,0.7,0.1,1,0.4C12.9,3.4,13,3.8,13,4.2C13,4.5,13,4.9,12.9,5.4z M16.6,12.8
		c-0.1,0.1-0.3,0.2-0.5,0.2c-0.1,0-0.3-0.1-0.5-0.3c-1.3-1.2-2.5-2.2-3.6-2.9c-0.1,0-0.2-0.1-0.4-0.2S11.2,9.3,11,9.2
		c-0.1-0.1-0.2-0.2-0.2-0.3c0-0.1,0-0.2,0.1-0.3c0.1-0.1,0.2-0.1,0.3-0.1c0.3,0,0.8,0.2,1.5,0.5c0.7,0.3,1.4,0.7,2.1,1.2
		s1.1,0.8,1.4,1.1c0.3,0.4,0.5,0.8,0.5,1.1C16.7,12.5,16.7,12.7,16.6,12.8z M11.5,15.2c-0.1,0.1-0.1,0.2-0.1,0.3
		c0,0.1,0.1,0.2,0.2,0.4s0.3,0.3,0.4,0.4c0.2,0.1,0.3,0.2,0.3,0.3c0.6,0.6,1,1.2,1.3,1.8c0.2,0.5,0.5,0.8,0.8,0.8
		c0.2,0,0.4-0.2,0.6-0.5c0.2-0.3,0.2-0.6,0.2-0.8c0-0.4-0.2-0.7-0.5-1c-0.3-0.3-0.6-0.5-1-0.7c-0.3-0.2-0.5-0.3-0.6-0.4
		c-0.1-0.1-0.3-0.2-0.6-0.4s-0.7-0.3-0.9-0.3C11.7,15.1,11.6,15.1,11.5,15.2z"/>
	<path d="M21.4,10.1C21.6,9.5,22,9,22.7,8.6c0.2-0.1,0.4-0.2,0.5-0.2c0.2,0,0.2,0.1,0.2,0.2c0,0.1,0,0.2-0.1,0.3S23.1,9.1,23,9.2
		c-0.2,0.2-0.3,0.4-0.4,0.6s-0.2,0.3-0.2,0.5l0.1,0.2c0.1,0,0.2-0.1,0.6-0.4c0.3-0.3,0.7-0.5,1-0.7S24.7,9,25,9c0.4,0,0.7,0.2,1,0.6
		c0.3,0.4,0.4,0.8,0.4,1.2c0,0.6-0.2,1.2-0.6,2s-0.9,1.4-1.5,1.9c-0.6,0.5-1.2,0.8-1.8,0.8c-0.5,0-0.9-0.3-1.1-1s-0.3-1.4-0.3-2.2
		C21.1,11.4,21.2,10.7,21.4,10.1z M22.4,4.4c0.6-0.1,1.3-0.3,2.2-0.5l1.8-0.4c0.6-0.1,1.1-0.2,1.7-0.2c0.6,0,1.3,0,2.1,0
		c0.2,0,0.3,0.1,0.4,0.2c0.1,0.1,0.2,0.2,0.2,0.4c0,0.2-0.1,0.4-0.3,0.5c-0.2,0.1-0.4,0.2-0.8,0.4c-0.4,0.2-0.7,0.3-0.7,0.4l0.1,0.2
		c0.1,0.2,0.1,0.4,0.1,0.6c0,0.2,0,0.4,0,0.5c0,0.7,0.2,1.9,0.4,3.4c0.3,1.7,0.4,3.1,0.4,4.1c0,2.6-0.6,4.8-1.8,6.7
		c-0.6,1-1.1,1.5-1.5,1.5c-0.2,0-0.3-0.1-0.4-0.3c-0.1-0.2-0.2-0.3-0.2-0.5c0.5-1.1,0.9-2.1,1.1-3c0.2-0.9,0.4-1.7,0.5-2.6
		c0.1-0.9,0.1-2,0.1-3.4c0-0.4,0-0.7,0-1c0-0.3,0-0.5-0.1-0.7c-0.1-0.7-0.1-1.3-0.1-1.7c0-0.9,0.1-1.8,0.3-2.6c0-0.1,0-0.2,0.1-0.3
		c0-0.2,0.1-0.3,0.1-0.4s0-0.2-0.1-0.2c-0.2,0-0.4,0.1-0.7,0.2c-0.3,0.1-0.5,0.2-0.7,0.2c-1.1,0.3-2,0.4-2.7,0.4
		c-0.5,0-1-0.1-1.6-0.2s-0.9-0.4-0.9-0.7C21.4,4.8,21.7,4.5,22.4,4.4z M23.7,13c0.1-0.1,0.3-0.4,0.5-1c0.2-0.6,0.3-1,0.3-1.1
		l-0.1-0.2c-0.2,0-0.4,0.1-0.6,0.4s-0.5,0.6-0.7,0.9s-0.3,0.6-0.3,0.7c0,0.1,0,0.1,0.1,0.2c0.1,0,0.2,0.1,0.3,0.1
		C23.5,13.1,23.6,13.1,23.7,13z"/>
	<path d="M35.1,15.1c0.1-0.2,0.3-0.4,0.5-0.6c0.2-0.2,0.3-0.3,0.3-0.4c0-0.5,0.1-1.2,0.3-2.2s0.5-1.9,0.9-2.8
		c0.4-0.8,0.8-1.2,1.2-1.2c0.2,0,0.3,0.1,0.4,0.3c0.1,0.2,0.1,0.4,0.1,0.7c0,0.6,0,1.1-0.1,1.6c-0.1,0.5-0.2,1-0.5,1.5
		c0,0,0,0.1-0.1,0.2c0,0.1-0.1,0.2-0.1,0.3l0.4-0.3c1.2-1,1.9-1.6,2.1-1.6c0.2,0,0.3,0.1,0.4,0.2s0.2,0.3,0.2,0.5
		c0,0.2-0.4,0.7-1.2,1.5c-0.8,0.8-1.7,1.5-2.6,2.2c-0.9,0.7-1.5,1.1-1.8,1.1c-0.2,0-0.4-0.1-0.5-0.2s-0.2-0.2-0.2-0.4
		S35,15.3,35.1,15.1z M46.7,9c0.3-0.5,0.6-1,0.8-1.6s0.4-1,0.4-1.2c0-0.5,0.1-0.9,0.3-1.1C48.4,5,48.5,5,48.6,5
		c0.6,0,0.9,0.5,0.9,1.6c0,0.8-0.2,1.6-0.7,2.5s-0.7,1.4-0.7,1.5c0,0.2,0.5,0.7,1.5,1.6c1,0.9,2,1.7,2.8,2.3
		c0.1,0.1,0.3,0.2,0.7,0.5c0.3,0.2,0.5,0.3,0.8,0.5s0.4,0.3,0.5,0.5c0.1,0.1,0.2,0.3,0.2,0.5c0,0.3-0.1,0.6-0.3,0.9
		c-0.2,0.3-0.5,0.5-0.8,0.5c-0.7,0-2.6-1.5-5.7-4.6c-0.2-0.2-0.4-0.4-0.6-0.6s-0.3-0.3-0.3-0.3c-0.1,0-0.3,0.1-0.6,0.4
		c-0.2,0.3-0.6,0.7-1,1.3c-0.7,1-1.4,1.8-1.9,2.4c-0.5,0.6-1,0.8-1.5,0.8c-0.2,0-0.4-0.1-0.5-0.2c-0.2-0.1-0.2-0.2-0.2-0.4
		c0-0.4,0.2-1,0.7-1.7s1.2-1.7,2-2.8c0.5-0.6,0.7-0.9,0.7-0.9c0-0.1,0-0.1-0.1-0.2c0,0-0.1-0.1-0.2-0.1c-0.4-0.2-0.8-0.4-1.2-0.8
		C43,9.9,42.6,9.5,42.3,9c-0.3-0.5-0.4-0.9-0.4-1.3c0-0.4,0.1-0.8,0.4-1.1c0.2-0.3,0.6-0.5,1-0.5c0.3,0,0.4,0.1,0.4,0.3
		c0,0.1,0,0.1-0.1,0.3c0,0.1-0.1,0.2-0.1,0.3c0,0.2,0.2,0.5,0.5,1c0.3,0.4,0.7,0.8,1.1,1.2s0.7,0.5,0.9,0.5S46.4,9.5,46.7,9z"/>
	<path d="M57.3,10.7c0.1-0.2,0.2-0.3,0.3-0.5c0.3-0.3,0.9-0.7,1.8-1.1s1.6-0.6,2.1-0.6c0.4,0,0.6,0.2,0.6,0.5c0,0.1,0,0.2-0.1,0.3
		c-0.1,0.1-0.1,0.2-0.2,0.2c-0.2,0.3-0.3,0.7-0.4,1.4c-0.1,0.6-0.2,1.5-0.3,2.6c-0.1,1.6-0.3,2.7-0.4,3.5c-0.2,0.8-0.5,1.2-0.9,1.2
		c-0.2,0-0.3-0.1-0.5-0.3s-0.2-0.4-0.2-0.5c0-0.6,0.1-1.2,0.2-1.9s0.3-1.4,0.5-2.3c0.1-0.2,0.1-0.5,0.2-0.8c0.1-0.3,0.1-0.6,0.2-1
		c0-0.2,0.1-0.3,0.1-0.4l-0.1,0c-0.1,0-0.2,0-0.4,0.1c-0.1,0.1-0.3,0.2-0.4,0.3c-0.2,0.2-0.5,0.3-0.7,0.4s-0.4,0.2-0.7,0.2
		c-0.2,0-0.4-0.1-0.5-0.2c-0.1-0.1-0.2-0.3-0.2-0.5S57.2,10.8,57.3,10.7z M58.1,5.8c0.5-0.4,1.2-0.7,1.8-1c0.7-0.3,1.2-0.4,1.5-0.4
		c0.2,0,0.4,0.1,0.6,0.2c0.2,0.1,0.3,0.3,0.3,0.5c0,0.2-0.1,0.4-0.3,0.5s-0.4,0.3-0.7,0.5c-0.2,0.1-0.4,0.3-0.8,0.6
		c-0.5,0.4-1,0.7-1.3,0.9c-0.3,0.2-0.6,0.3-0.9,0.3c-0.3,0-0.6-0.1-0.8-0.3c-0.2-0.2-0.3-0.5-0.3-0.8C57.3,6.5,57.6,6.2,58.1,5.8z
		 M67.7,15c0.1-0.2,0.1-0.3,0.1-0.3c0.1-0.2,0.1-0.4,0.1-0.5c0.1-0.6,0.1-1.4,0.2-2.2c0.1-0.9,0.1-1.7,0.2-2.3s0.2-1.2,0.4-1.7
		C68.8,7.7,69,7.4,69.3,7s0.6-0.5,0.8-0.5c0.1,0,0.2,0.1,0.3,0.2c0.1,0.1,0.1,0.2,0.1,0.3c0,0.2,0,0.3-0.1,0.5S70.3,7.9,70.3,8
		c-0.1,0.6-0.2,1.3-0.2,2.1c0,0.5,0,0.9,0.1,1.1c0.2,0,0.6-0.1,1-0.3c0.5-0.2,0.8-0.3,1.1-0.3c0.1,0,0.3,0.1,0.4,0.2
		s0.2,0.2,0.2,0.4c0,0.2-0.1,0.4-0.3,0.6s-0.6,0.4-1.1,0.6c-0.6,0.3-1,0.5-1.3,0.7s-0.4,0.5-0.4,0.8c0,0.2-0.1,0.6-0.3,1
		c-0.2,0.4-0.3,0.7-0.3,1c0,0.1,0,0.2,0.1,0.3c0.1,0.1,0.2,0.1,0.3,0.2c0.3,0.1,0.6,0.3,0.9,0.4s0.6,0.2,0.7,0.2
		c0.2,0,0.4,0.1,0.7,0.2l1.9,0.6c1.5,0.4,2.8,0.8,3.8,1.2c0.9,0.3,1.3,0.6,1.3,1.1c0,0.5-0.3,0.8-1,0.8c-0.7,0-1.8-0.2-3.3-0.6
		c-1.5-0.4-2.9-0.9-4.5-1.4c-1.5-0.5-2.6-1-3.4-1.4c-0.1,0-0.2-0.1-0.5-0.3c-0.3-0.2-0.6-0.3-0.8-0.4c-0.3-0.1-0.5-0.1-0.7-0.1
		c-0.1,0.1-0.2,0.2-0.3,0.5c-0.1,0.3-0.2,0.6-0.4,1c-0.3,0.9-0.6,1.6-0.8,2.1c-0.2,0.5-0.5,0.7-0.9,0.7c-0.2,0-0.3-0.1-0.4-0.2
		c-0.1-0.1-0.1-0.3-0.1-0.5c0-0.2,0-0.4,0.1-0.7c0.1-0.2,0.1-0.4,0.1-0.5l0.2-0.6c0-0.1,0.2-0.8,0.4-2c0.3-1.2,0.6-2.3,1.1-3.2
		c0.5-1,0.9-1.4,1.4-1.4c0.2,0,0.3,0,0.4,0.1c0.1,0.1,0.2,0.2,0.2,0.3c0,0.1-0.1,0.2-0.3,0.4s-0.3,0.3-0.4,0.3
		c-0.1,0.1-0.1,0.4-0.2,1s-0.2,0.9-0.2,1.1c0.9,0.4,1.8,0.6,2.5,0.6C67.6,15.3,67.6,15.2,67.7,15z M62.9,7c0.3-0.8,0.7-1.6,1.2-2.3
		c0.4-0.8,0.8-1.3,1-1.5c0.2-0.2,0.4-0.3,0.7-0.3c0.3,0,0.4,0.1,0.6,0.3c0.1,0.2,0.2,0.4,0.2,0.7c0,0.1,0,0.3-0.1,0.5
		c-0.1,0.2-0.2,0.3-0.3,0.5c-0.3,0.4-0.4,0.6-0.4,0.7v0L66,5.8c0.2,0.1,0.3,0.4,0.5,0.7c0.2,0.4,0.3,0.7,0.3,0.9
		c0,0.2-0.1,0.3-0.2,0.5c-0.1,0.2-0.3,0.3-0.4,0.3c-0.4,0-0.8-0.3-1.3-1c-0.1,0-0.3,0.2-0.5,0.6c-0.3,0.4-0.5,0.7-0.7,0.9
		s-0.4,0.3-0.7,0.3c-0.2,0-0.3,0-0.4-0.1c-0.1-0.1-0.2-0.2-0.2-0.4C62.4,8.3,62.5,7.8,62.9,7z M68.9,4.1c0.6-0.8,0.9-1.3,1.1-1.5
		c0.2-0.2,0.4-0.2,0.6-0.2c0.3,0,0.4,0.2,0.4,0.5c0,0.2-0.1,0.4-0.2,0.7S70.7,3.9,70.7,4c0.1,0,0.4-0.1,0.8-0.2
		c0.4-0.2,0.7-0.2,0.9-0.2c0.2,0,0.5,0.1,0.6,0.3c0.2,0.2,0.3,0.4,0.3,0.6c0,0.2,0,0.4-0.1,0.5c-0.4,0.1-0.7,0.2-0.8,0.3
		c-1.3,0.4-2.3,0.7-3,1.1c0,0-0.1,0-0.2,0.1S69,6.4,69,6.4c-0.2,0-0.4-0.1-0.6-0.3c-0.2-0.2-0.3-0.4-0.3-0.5S68.4,4.9,68.9,4.1z"/>
	<path d="M81.3,7.5c0.1-0.1,0.2-0.2,0.4-0.3C81.9,7.1,82.1,7,82.3,7s0.4-0.1,0.5-0.1c0.5-0.1,0.9-0.2,1.1-0.3c0.3-0.2,1-0.4,1.9-0.7
		c0.4-0.1,0.7-0.2,1-0.3c1.4-0.5,3.1-0.8,4.9-0.8c0.3,0,0.5,0,0.7,0.1c0.2,0.1,0.3,0.2,0.3,0.5c0,0.4-0.3,0.7-0.8,1
		c-0.6,0.3-1.3,0.6-2.3,0.9c-0.7,0.2-1.2,0.4-1.5,0.5S87.7,8,87.7,8.1c0,0.1,0.1,0.2,0.3,0.4c0.2,0.2,0.4,0.3,0.5,0.4
		c0.8,0.5,1.6,1.2,2.3,2c0.4,0.5,0.9,1,1.4,1.7c0.5,0.6,0.7,1.1,0.7,1.3c0,0.3-0.1,0.6-0.4,0.9c-0.1,0-0.1,0-0.3,0
		c-0.4,0-0.9-0.2-1.3-0.7s-1-1.1-1.6-1.8c-0.1-0.1-0.2-0.3-0.4-0.5c-0.2-0.3-0.4-0.5-0.5-0.6c-0.1-0.1-0.3-0.2-0.3-0.2
		c-0.2,0-0.3,0.2-0.3,0.7c0,4.1-0.4,7.1-1.2,8.9c-0.1,0.2-0.2,0.3-0.3,0.3s-0.2,0.1-0.4,0.1c-0.1,0-0.2,0-0.3-0.1s-0.1-0.1-0.2-0.2
		c-0.1-0.2-0.2-0.6-0.2-1.2c0-0.6-0.1-1.1-0.1-1.6c0-1.4,0.1-2.6,0.3-3.4c0.1-0.3,0.1-0.6,0.1-0.9c0-0.3,0-0.5,0-0.7l0.2-4.1
		c0-0.1,0-0.1,0-0.2c0-0.1,0-0.1,0-0.2c0-0.1-0.1-0.2-0.2-0.2c-0.3,0-0.6,0-0.9,0.1S84.1,8.5,84,8.6c-0.7,0.2-1.2,0.3-1.6,0.3
		c-0.3,0-0.6-0.1-0.9-0.2S81.2,8.3,81.2,8C81.2,7.8,81.2,7.6,81.3,7.5z"/>
	<path d="M98.5,4c0.1-0.1,0.2-0.1,0.4-0.1s0.3-0.1,0.4-0.1c0.4-0.2,0.7-0.3,0.9-0.4c0.6-0.3,1-0.4,1.4-0.6s0.8-0.2,1.2-0.2
		c0.2,0,0.3,0,0.4,0.1c0.1,0.1,0.1,0.2,0.1,0.3c0,0.1-0.1,0.2-0.2,0.3c-0.1,0.1-0.3,0.2-0.4,0.3c-0.5,0.4-0.7,0.6-0.8,0.8
		c-0.4,1-0.7,1.9-1,2.6c-0.2,0.7-0.4,1.2-0.4,1.6l0.1,0.1l0.1,0c0.1,0,0.3,0,0.5-0.1c0.2-0.1,0.4-0.1,0.5-0.1c0.5,0,0.8,0,1,0.1
		c0.2,0.1,0.4,0.4,0.5,0.7s0.2,0.8,0.2,1.1c0,0.5-0.2,1.4-0.6,2.6s-1,2.2-1.6,3.1c-0.6,0.9-1.2,1.4-1.8,1.4c-0.3,0-0.5-0.1-0.7-0.3
		c-0.2-0.2-0.3-0.5-0.3-0.7c0-0.2,0.2-0.5,0.7-1.1c0.3-0.5,0.5-0.8,0.7-1.1s0.2-0.5,0.2-0.7c0-0.1,0-0.1-0.1-0.1s-0.1-0.1-0.2-0.1
		c-0.2-0.2-0.4-0.4-0.5-0.5c-0.3-0.3-0.5-0.5-0.7-0.6c-0.1-0.1-0.3-0.1-0.5-0.1c-0.2,0-0.4-0.1-0.5-0.2c-0.2-0.1-0.3-0.3-0.3-0.5
		c0-0.1,0.3-0.7,0.9-1.7c0.7-1.1,1.3-2.1,1.8-3s0.7-1.6,0.7-2.1l0-0.1c-0.2,0-0.5,0-0.9,0.1s-0.7,0.1-0.9,0.1
		c-0.1,0-0.2-0.1-0.3-0.2c-0.1-0.1-0.2-0.2-0.2-0.3C98.2,4.2,98.3,4,98.5,4z M101.3,10.2c-0.1,0-0.2,0-0.4,0.1
		c-0.2,0.1-0.3,0.1-0.4,0.1c-0.6,0.3-0.9,0.5-1,0.8c0.1,0.2,0.3,0.4,0.6,0.6s0.5,0.4,0.5,0.4c0.1,0,0.3-0.2,0.5-0.7
		c0.2-0.5,0.3-0.8,0.3-1C101.4,10.4,101.4,10.3,101.3,10.2z M107.1,4.5c0-0.1,0-0.2,0.1-0.3c0.1-0.1,0.2-0.1,0.3-0.1
		c0.2,0,0.3,0.1,0.4,0.2c0.2,0.2,0.3,0.7,0.3,1.6s0.1,1.7,0.1,2.5c0,0.2,0,0.6-0.1,1c0,0.4-0.1,0.8-0.1,1c0,0.1,0,0.2,0.1,0.3
		c0,0.1,0.1,0.2,0.1,0.3c0,0.3-0.1,0.5-0.3,0.7c-0.2,0.2-0.4,0.3-0.7,0.3c-0.2,0-0.3-0.1-0.5-0.2s-0.3-0.3-0.3-0.4v-1
		c0-0.5,0-1.1,0.1-1.7c0.1-0.6,0.1-0.9,0.2-1.1c0.2-1.1,0.3-2,0.3-2.7V4.5z M109.7,2.3c0.2-0.2,0.4-0.3,0.5-0.3c0.7,0,1.2,1,1.4,3.1
		c0.2,2.1,0.4,4.1,0.4,5.9c0,1.2,0,2.2-0.1,3.1c0,0.9-0.1,1.7-0.3,2.6c-0.1,0.6-0.4,1.7-0.8,3.3c-0.4,1.6-0.7,2.5-0.8,2.7
		c-0.1,0.2-0.2,0.3-0.4,0.5c-0.2,0.1-0.3,0.2-0.5,0.2c-0.6,0-0.9-0.3-0.9-0.8c0-0.4,0-0.8,0.1-1.3c0.1-0.4,0.2-0.9,0.4-1.5
		c0.2-0.7,0.4-1.3,0.5-1.7c0.6-3.3,0.9-7.2,0.9-11.7c0-1.8-0.1-2.8-0.2-2.9c-0.1-0.1-0.2-0.2-0.4-0.4c-0.2-0.2-0.3-0.3-0.3-0.3
		C109.5,2.8,109.5,2.6,109.7,2.3z"/>
	<path d="M115.6,6c0.1-0.6,0.2-1.3,0.4-2l0.2-0.9c0.1-0.3,0.2-0.6,0.3-0.8c0.1-0.2,0.3-0.3,0.6-0.3c0.3,0,0.6,0.1,0.8,0.4
		c0.2,0.3,0.3,0.6,0.3,0.9l0,0.6c0,0.1,0,0.2,0.1,0.4c0.2,0,0.5,0,0.7-0.1c0.3,0,0.5-0.1,0.7-0.1c0.1,0,0.2,0,0.2,0.1
		c0.1,0.1,0.1,0.2,0.1,0.3c0,0.1-0.1,0.2-0.2,0.3c-0.1,0.1-0.3,0.2-0.5,0.3c-0.3,0.2-0.5,0.3-0.5,0.4s0.1,0.2,0.3,0.3
		s0.5,0.2,0.9,0.4c0.4,0.1,0.5,0.2,0.6,0.3c0.1,0.1,0.2,0.2,0.3,0.2c0.1,0,0.2,0,0.3-0.1s0.2-0.1,0.3-0.1c0.3,0,0.5,0.2,0.8,0.6
		s0.4,0.7,0.4,1c0,0.2,0,0.5-0.1,0.8c-0.1,0.3-0.2,0.4-0.4,0.4c-0.2,0-0.5-0.2-0.9-0.6c-0.2-0.2-0.3-0.3-0.4-0.4s-0.1-0.2-0.1-0.4
		s0-0.2-0.1-0.3c-0.6,0-1.1-0.1-1.7-0.4s-0.9-0.7-1.2-1.1c-0.1,0.1-0.2,0.2-0.3,0.4S117.1,7,117,7.4c-0.1,0.4-0.3,0.7-0.4,1
		s-0.3,0.3-0.5,0.3c-0.3,0-0.4-0.1-0.5-0.3s-0.1-0.4-0.1-0.7C115.5,7.2,115.5,6.6,115.6,6z M117,13.3c0.4-1.2,0.9-2.2,1.5-3.1
		s1-1.4,1.3-1.4c0.1,0,0.2,0.1,0.3,0.2c0.1,0.1,0.1,0.2,0.1,0.4c0,0.1-0.1,0.3-0.3,0.6c-0.3,0.5-0.5,1-0.5,1.3c0,0.1,0,0.2,0.1,0.3
		c0.2,0,0.4-0.2,0.7-0.4c0.3-0.2,0.5-0.3,0.6-0.4c1-0.6,1.8-1.1,2.6-1.5c0.7-0.4,1.4-0.5,2-0.5c0.7,0,1,0.4,1,1.3
		c0,0.2-0.1,0.5-0.2,1c-0.1,0.5-0.2,0.9-0.4,1.3c-0.2,0.4-0.3,0.6-0.5,0.6c-0.2,0-0.3,0-0.4-0.1c-0.1-0.1-0.2-0.2-0.2-0.4
		c0-0.1,0.1-0.4,0.2-0.8s0.2-0.8,0.2-1.1c0-0.1,0-0.2,0-0.3s-0.1-0.1-0.2-0.1c-0.3,0-1.2,0.4-2.9,1.3c-1.6,0.9-2.6,1.4-2.9,1.7
		c-0.2,0.2-0.4,0.6-0.7,1.3c-0.2,0.6-0.4,1-0.6,1.3c-0.2,0.3-0.5,0.5-0.8,0.5c-0.2,0-0.4-0.1-0.5-0.2s-0.2-0.3-0.2-0.5
		C116.3,15.2,116.5,14.4,117,13.3z M120.3,17.7c0.1-1.8,0.2-2.9,0.4-3.3c0.1-0.1,0.2-0.2,0.3-0.3c0.2-0.1,0.3-0.2,0.5-0.2
		c0.2,0,0.3,0,0.5-0.1s0.3-0.2,0.6-0.4c0.3-0.2,0.6-0.4,0.8-0.4c0.2-0.1,0.4-0.1,0.6-0.1c0.4,0,0.7,0.1,0.9,0.3
		c0.1,0.2,0.2,0.5,0.2,1c0,0.2,0,0.3,0,0.4c0,0.1,0,0.2-0.1,0.3c-0.1,0.3-0.1,0.5-0.1,0.7c0,0.1,0.1,0.2,0.2,0.3s0.2,0.3,0.2,0.5
		c0,0.7-0.9,1.1-2.6,1.4c-0.2,0-0.3,0.1-0.4,0.2c-0.1,0.1-0.1,0.2-0.1,0.4c0,0.3,0.1,0.5,0.2,0.7c0.2,0,0.5-0.1,0.9-0.3
		c0.1,0,0.2-0.1,0.5-0.2s0.6-0.1,0.8-0.1c0.6,0,0.9,0.4,0.9,1.1c0,0.2,0,0.4-0.1,0.6c-0.1,0.2-0.1,0.4-0.1,0.6
		c0.1,0.1,0.2,0.1,0.4,0.1c0.4,0,0.6,0,0.8,0l0.8,0c1.3,0,2,0.4,2,1.2c0,0.2,0,0.3-0.1,0.4c-0.2,0.3-1,0.5-2.3,0.7
		c-1.3,0.2-2.6,0.3-3.7,0.4c-0.2,0-0.4,0-0.6,0.1c-0.2,0-0.4,0.1-0.6,0.1c-0.1,0-0.2,0-0.4-0.1c-0.1-0.1-0.2-0.1-0.3-0.1
		c-0.4-0.2-0.7-0.4-0.8-0.6s-0.2-0.5-0.2-1C120.1,20.9,120.2,19.5,120.3,17.7z M123.4,19.9c-0.3,0-0.7,0.1-1.1,0.4s-0.6,0.5-0.6,0.8
		c0,0.2,0.1,0.3,0.4,0.3c0.3,0,0.6-0.1,1-0.4c0.3-0.3,0.5-0.6,0.5-0.9v0L123.4,19.9z M123.4,14.2c-0.2,0-0.4,0-0.5,0.1
		c-0.1,0.1-0.1,0.2-0.2,0.3s-0.1,0.3-0.2,0.4c-0.1,0.1-0.2,0.2-0.3,0.2s-0.2,0.1-0.3,0.2s-0.1,0.2-0.1,0.4c0,0.1,0,0.2,0.1,0.2
		c0.1,0.1,0.1,0.1,0.2,0.1c0.3,0,0.6-0.2,0.9-0.6s0.4-0.8,0.4-1.2C123.6,14.2,123.5,14.2,123.4,14.2z M124.6,1.1
		c0.1-0.1,0.3-0.2,0.5-0.3c0.4-0.3,0.7-0.4,1-0.4c0.2,0,0.3,0.1,0.4,0.2s0.2,0.3,0.2,0.4c0,0.2-0.1,0.3-0.2,0.5
		c-0.1,0.1-0.3,0.3-0.5,0.5c-0.1,0.1-0.2,0.2-0.3,0.3s-0.2,0.2-0.2,0.3s0.1,0.2,0.3,0.3c0.2,0.1,0.4,0.3,0.6,0.4
		c0.7,0.4,1.2,0.8,1.7,1.2s0.6,0.8,0.6,1.2c0,0.2-0.1,0.3-0.2,0.4c-0.1,0.1-0.3,0.2-0.4,0.2c-0.2,0-0.5-0.1-0.8-0.3
		C127,5.7,126.5,5.4,126,5c-0.3-0.2-0.5-0.4-0.8-0.5c-0.2-0.2-0.4-0.2-0.5-0.2c0,0-0.1,0.2-0.3,0.5s-0.4,0.6-0.6,0.9
		C123.6,5.9,123.3,6,123,6c-0.2,0-0.3-0.1-0.4-0.2s-0.2-0.2-0.2-0.4c0-0.1,0-0.3,0.1-0.4c0-0.2,0.1-0.3,0.1-0.3
		c0.1-0.4,0.2-1.1,0.2-2l0.1-0.9c0-0.3,0.1-0.6,0.2-0.9c0.1-0.3,0.3-0.4,0.5-0.4c0.1,0,0.2,0,0.2,0.1c0,0.1,0.1,0.2,0.1,0.4
		s0.1,0.3,0.2,0.3C124.3,1.2,124.4,1.2,124.6,1.1z"/>
	<path d="M152.1,20.2c-0.3,0.1-0.6,0.2-1,0.2c-0.8,0-2.1-0.1-3.7-0.3c-1.5-0.2-2.8-0.3-3.7-0.3c-1,0-2.5,0-4.5,0.1l-4.6,0
		c-0.5,0-0.9-0.1-1.2-0.2c-0.3-0.1-0.5-0.4-0.5-0.7c0-0.3,0.1-0.5,0.3-0.6c0.2-0.1,0.5-0.2,0.9-0.3c0.4-0.1,0.7-0.2,0.9-0.3
		c0.2-0.1,0.3-0.3,0.3-0.6c0-0.2,0-0.4-0.1-0.6c-0.1-0.2-0.1-0.4-0.3-0.7c-0.1-0.3-0.2-0.5-0.3-0.7c-0.1-0.2-0.1-0.4-0.1-0.6
		c0-0.3,0-0.5,0.1-0.6c0.1-0.2,0.2-0.2,0.4-0.2c0.2,0,0.5,0.2,0.9,0.7c0.3,0.4,0.6,0.9,0.9,1.5c0.3,0.5,0.4,0.9,0.4,1.2
		c0,0.1,0,0.2-0.1,0.3c0,0.2-0.1,0.3-0.1,0.4l0,0.1c0.2,0.1,0.8,0.1,2,0.2c1.1,0,2.1,0.1,2.8,0.1c1.1,0,2.8,0.1,5,0.3
		c1.1,0.1,2.2,0.2,3.2,0.2c0.1,0,0.4,0,0.7,0c0.3,0,0.6,0,0.9,0.1c0.5,0.2,0.7,0.4,0.7,0.9C152.4,19.9,152.3,20.1,152.1,20.2z
		 M134.8,10.8c-0.3-0.2-0.5-0.5-0.7-0.8c-0.2-0.3-0.3-0.5-0.3-0.7c0-0.2,0.1-0.4,0.2-0.5s0.3-0.2,0.5-0.2c0.1,0,0.3,0,0.4,0.1
		c0.1,0.1,0.2,0.2,0.2,0.3c0,0.1,0.1,0.3,0.4,0.6c0.2,0.2,0.4,0.5,0.5,0.6s0.2,0.4,0.2,0.5c0,0.2-0.1,0.3-0.2,0.3
		c-0.1,0.1-0.3,0.1-0.4,0.1S135.1,11.1,134.8,10.8z M143.6,7.6c0.6,0,1,0.1,1.3,0.3c0.3,0.2,0.5,0.6,0.6,1.2c0,0.2,0,0.4,0,0.8v0.9
		c0,1.4-0.1,2.8-0.3,4.2c-0.2,1.4-0.5,2-1.1,2c-0.1,0-0.2-0.1-0.4-0.2s-0.3-0.2-0.5-0.2c-0.1,0-0.3,0-0.6,0.1
		c-0.2,0-0.4,0.1-0.6,0.1c-0.3,0-0.6-0.1-0.8-0.2s-0.3-0.3-0.4-0.6c-0.2-0.6-0.3-1.3-0.3-2c0-0.8,0.1-2,0.4-3.8
		c0.3-1.7,0.5-2.9,0.8-3.4c0.1-0.1,0.1-0.2,0.1-0.2s0-0.1-0.1-0.1s-0.1,0-0.2,0c-0.2,0-0.5,0-0.9,0.1c-0.3,0.1-0.6,0.1-0.9,0.1
		c-1.2,0-1.7-0.2-1.7-0.7c0-0.2,0.1-0.4,0.4-0.5c0.3-0.1,0.6-0.2,1.1-0.2c0.5-0.1,0.8-0.1,0.9-0.2c0.1-0.1,0.2-0.2,0.2-0.4
		s0-0.4,0.1-0.8c0-0.5,0.1-1,0.2-1.2c0.1-0.3,0.4-0.4,0.7-0.4c0.4,0,0.7,0.2,0.7,0.5c0.1,0.3,0.1,0.7,0.1,1s0,0.6,0,0.8
		c0.1,0,0.2-0.1,0.4-0.2c0.1-0.2,0.3-0.4,0.4-0.7c0.2-0.4,0.4-0.6,0.5-0.8c0.1-0.2,0.2-0.2,0.4-0.2c0.2,0,0.4,0.1,0.5,0.2
		c0.1,0.1,0.2,0.3,0.2,0.5c0,0.1,0,0.3-0.1,0.5c-0.1,0.2-0.1,0.4-0.1,0.5c0.1,0,0.4,0,0.9,0.1c0.5,0,0.9,0.1,1.2,0.3
		s0.5,0.4,0.5,0.7c0,0.7-1.1,1-3.4,1c-0.3,0-0.6,0-0.7,0.1s-0.2,0.1-0.2,0.2c0,0.1,0,0.4,0,0.8C143.2,7.6,143.3,7.6,143.6,7.6z
		 M143.4,14.7c0.4-0.1,0.5-0.3,0.5-0.6c0-0.2-0.1-0.3-0.3-0.3c-0.1,0-0.2,0-0.4,0.1c-0.2,0-0.3,0.1-0.4,0.1c-0.6,0-0.9,0.3-0.9,0.8
		c0,0.1,0,0.3,0.1,0.4C142.6,14.9,143.1,14.8,143.4,14.7z M142.9,12.3c0.3,0.1,0.6,0.1,0.9,0.1c0.1,0,0.1,0,0.2-0.1
		c0-0.1,0.1-0.2,0.1-0.2c0-0.2,0-0.3-0.1-0.4c-0.1-0.1-0.3-0.1-0.5-0.1c-0.6,0-1,0.1-1,0.3C142.4,12.1,142.6,12.2,142.9,12.3z
		 M144,10c0-0.2-0.1-0.3-0.2-0.4c-0.1-0.1-0.3-0.2-0.4-0.2c-0.3,0.3-0.5,0.5-0.5,0.6c0,0.2,0.2,0.2,0.6,0.2
		C143.9,10.2,144,10.1,144,10z"/>
	<path d="M153.5,10.7c0.6-0.3,1.2-0.6,1.9-0.9c0.7-0.2,1.2-0.4,1.4-0.4c0.1,0,0.3,0.1,0.5,0.2c0.2,0.1,0.3,0.3,0.3,0.4
		c0,0.1-0.1,0.2-0.2,0.3s-0.2,0.2-0.4,0.3c-0.2,0.2-0.4,0.3-0.6,0.5c-0.1,0.2-0.2,0.4-0.2,0.6c0,0.3,0.1,0.4,0.3,0.4
		c0.1,0,0.3-0.1,0.6-0.2c0.3-0.1,0.5-0.1,0.6-0.1c0.2,0,0.3,0,0.4,0.1c0.1,0.1,0.2,0.2,0.2,0.3c0,0.2-0.1,0.4-0.3,0.5
		c-0.1,0.1-0.8,0.4-2.2,1s-2,0.8-2.2,0.8c-0.1,0-0.2,0-0.2-0.1s-0.1-0.2-0.1-0.3c0-0.2,0.1-0.3,0.2-0.4c0.1-0.1,0.3-0.2,0.6-0.4
		c0.3-0.2,0.5-0.4,0.7-0.5s0.2-0.4,0.2-0.6v-0.1l-0.1,0c-0.2,0-0.5,0.1-0.8,0.2c0,0-0.1,0.1-0.3,0.1c-0.2,0.1-0.3,0.1-0.5,0.1
		c-0.2,0-0.4-0.1-0.5-0.2c-0.2-0.2-0.2-0.3-0.2-0.5C152.6,11.3,152.9,11.1,153.5,10.7z M158.7,2.1c0.8,0,1.4,0.1,1.8,0.2
		c0.4,0.1,0.9,0.5,1.3,1c0.1,0.1,0.2,0.2,0.3,0.3s0.3,0.3,0.4,0.4s0.2,0.2,0.2,0.4c0,0.1-0.2,0.3-0.5,0.8c-0.6,0.7-0.9,1.2-0.9,1.4
		c0,0.1,0,0.2-0.1,0.3S161,7.1,161,7.2c-0.2,0.2-0.8,0.5-1.9,0.9s-1.8,0.7-2.1,0.7c-0.2,0-0.3-0.1-0.4-0.2c-0.1-0.1-0.2-0.2-0.2-0.4
		c0-0.3,0.2-0.5,0.5-0.7c0.3-0.2,0.8-0.4,1.4-0.6c0.6-0.2,1.1-0.4,1.4-0.5s0.5-0.3,0.6-0.6c-0.1,0-0.2-0.1-0.2-0.1
		c-0.3,0-0.9,0.1-1.7,0.3c-0.9,0.2-1.4,0.4-1.6,0.5c-0.1,0-0.1,0.1-0.2,0.2c-0.1,0.1-0.2,0.1-0.3,0.1c-0.2,0-0.5-0.1-0.7-0.3
		c-0.2-0.2-0.3-0.4-0.3-0.7c0-0.4,0.4-0.8,1.2-1.1c0.8-0.3,1.5-0.5,2.3-0.6c0,0,0.2,0,0.4,0c0.2,0,0.3-0.1,0.3-0.1
		c0-0.1-0.2-0.1-0.6-0.3c-0.4-0.1-0.7-0.3-1-0.4s-0.3-0.3-0.3-0.5C157.3,2.4,157.8,2.1,158.7,2.1z M163.4,7.5
		c0.2-0.1,0.3-0.1,0.4-0.1c0.4,0,0.7,0.2,1,0.6s0.5,0.8,0.5,1.2c0,0.6-0.1,1.1-0.4,1.5c-0.3,0.3-0.7,0.6-1.2,1
		c-0.3,0.2-0.6,0.4-0.7,0.5s-0.2,0.3-0.2,0.5c0,0.1,0,0.2,0.1,0.2c0.1,0,0.2,0,0.3,0l0.7,0c0.6,0,0.9,0.1,0.9,0.4
		c0,0.2-0.1,0.3-0.3,0.4c-0.2,0.1-0.4,0.3-0.8,0.4c-0.5,0.2-0.8,0.4-0.9,0.6c-0.1,0.2-0.1,0.5-0.1,1.2l0,2.2c0,0.5,0,1.2,0,2.2
		c0,0.5-0.1,1-0.2,1.3c-0.1,0.4-0.4,0.5-0.9,0.5c-0.3,0-0.5-0.1-0.5-0.4c0-0.1,0-0.2,0.1-0.4c0.1-0.2,0.1-0.5,0.2-1
		c0-0.5,0.1-0.9,0.1-1.2c0-0.3,0-0.6-0.1-0.9c-0.6-0.2-1.3-0.4-2-0.7c-0.7-0.3-1-0.7-1-1.1c0,0,0-0.1,0-0.2c0-0.1,0-0.1-0.1-0.1
		c-0.1,0-0.3,0.1-0.6,0.3s-0.5,0.3-0.6,0.3c-0.1,0-0.3-0.1-0.5-0.2s-0.3-0.3-0.3-0.4c0-0.2,0.2-0.5,0.6-0.8s1.1-0.6,1.9-1.1
		c1-0.5,1.7-0.9,2.2-1.2c0.5-0.3,0.7-0.6,0.7-0.9l0-0.1c-0.1-0.3-0.2-0.5-0.2-0.7c0-0.2-0.1-0.5-0.1-0.8c0-2,0.3-2.9,1-2.9
		c0.1,0,0.2,0,0.3,0c0.1,0,0.2,0,0.3,0S163.3,7.6,163.4,7.5z M161.3,16.4c0-0.1,0.1-0.2,0.1-0.4s0-0.2,0-0.2c0-0.2,0-0.3-0.1-0.4
		c-0.1,0.1-0.3,0.1-0.7,0.2c-0.2,0.1-0.4,0.1-0.6,0.2c-0.2,0.1-0.3,0.1-0.3,0.2l0,0.1c0.1,0.1,0.3,0.1,0.7,0.3
		c0.4,0.1,0.6,0.2,0.7,0.2C161.2,16.6,161.3,16.5,161.3,16.4z M163.6,8.4c-0.2,0-0.3,0.1-0.4,0.3c-0.1,0.2-0.1,0.4-0.1,0.5
		c0,0.2,0,0.3,0.1,0.5s0.1,0.3,0.2,0.3c0.1,0,0.2-0.1,0.3-0.4s0.1-0.5,0.1-0.7C163.8,8.6,163.7,8.4,163.6,8.4z"/>
	<path d="M172.9,6.5c0.3-0.2,0.8-0.5,1.4-0.8c0.6-0.3,1-0.5,1.2-0.7c0.1-0.1,0.2-0.2,0.2-0.4c0.1-0.2,0.1-0.3,0.1-0.3
		c0.1-0.3,0.2-0.5,0.3-0.6c0.1-0.1,0.2-0.2,0.4-0.2c0.3,0,0.4,0.2,0.4,0.5l0,0.5c0.1,0,0.4-0.1,0.9-0.1c0.4-0.1,0.9-0.1,1.2-0.1
		c0.2,0,0.4,0.1,0.6,0.4s0.3,0.5,0.3,0.8c0,0.4-0.2,0.7-0.5,0.9s-0.9,0.3-1.5,0.5c-0.5,0.1-0.8,0.2-1,0.3l0,1.5c0,0.4,0,0.9,0.1,1.7
		c0.1,0.8,0.1,1.4,0.1,1.7c0,0.7,0,1.5-0.1,2.4c-0.1,0.9-0.2,1.8-0.3,2.6c-0.1,1.1-0.2,1.8-0.3,2.3c-0.1,0.7-0.2,1.3-0.4,1.8
		s-0.4,0.8-0.8,0.8c-0.4,0-0.7-0.3-0.8-0.8c-0.2-0.5-0.3-1.1-0.3-1.6c0-0.4,0.1-0.6,0.3-0.6c0.1,0,0.1,0,0.2,0.1
		c0.1,0.1,0.1,0.1,0.2,0.1c0.1,0,0.1-0.1,0.2-0.2c0.1-0.4,0.2-1.1,0.3-2s0.1-1.8,0.1-2.5c0-0.2-0.1-0.3-0.2-0.4
		c-0.1,0-0.4,0.5-0.9,1.3c-0.7,1.3-1.4,2.3-2,3.1c-0.6,0.8-1.3,1.2-2.1,1.2c-0.2,0-0.4-0.1-0.7-0.3c-0.2-0.2-0.4-0.4-0.4-0.6
		c0-0.1,0.2-0.3,0.5-0.7c0.4-0.4,0.8-0.8,1.2-1.3c1.5-1.5,2.3-2.4,2.3-2.7c-0.1-0.1-0.3-0.2-0.4-0.3s-0.3-0.1-0.3-0.1
		c-0.3-0.2-0.6-0.3-0.7-0.5c-0.2-0.2-0.2-0.4-0.2-0.7c0-0.2,0.1-0.4,0.3-0.5c0.2-0.2,0.4-0.2,0.6-0.2c0.2,0,0.5,0.1,0.8,0.2
		s0.6,0.2,1,0.4c0.5,0.3,0.9,0.4,1.1,0.4c0.1,0,0.2-0.3,0.2-1c0-0.4,0-1,0.1-1.8c0-0.8,0.1-1.4,0.1-1.8s0-0.6-0.1-0.6
		c-0.2,0-0.6,0.1-1.1,0.2s-0.9,0.2-1,0.3c0,0-0.1,0-0.1,0.1c-0.1,0-0.2,0.1-0.3,0.1c-0.1,0-0.3,0-0.4-0.1c-0.1-0.1-0.2-0.2-0.2-0.3
		C172.5,7,172.6,6.7,172.9,6.5z M179.3,10.3c0.5-0.4,1-0.9,1.6-1.3c0.6-0.4,1-0.7,1.2-0.7c0.2-0.1,0.4-0.1,0.7-0.1
		c0.6,0,0.9,0.1,0.9,0.4c0,0.2,0,0.3-0.1,0.3s-0.1,0.1-0.3,0.2c-0.1,0.1-0.3,0.1-0.6,0.3c-0.3,0.1-0.5,0.3-0.8,0.5
		c-0.2,0.2-0.4,0.3-0.6,0.5c-0.5,0.3-0.9,0.6-1,0.9c0.2,0.3,0.6,0.7,1.2,1.2s1.3,1.1,1.9,1.7c1.8,1.6,3.1,2.8,4,3.7
		c0.9,0.9,1.4,1.6,1.4,2.1c0,0.2-0.1,0.4-0.2,0.6c-0.1,0.2-0.3,0.3-0.5,0.3c-0.6,0-1.4-0.5-2.4-1.6c-1-1-2.3-2.4-3.8-4.2
		c-0.4-0.5-0.8-1-1.2-1.4l-0.6-0.6c-0.5-0.5-0.9-0.9-1.2-1.2c-0.3-0.3-0.4-0.5-0.4-0.7S178.8,10.8,179.3,10.3z M181.8,4.3
		c0.1-0.2,0.1-0.4,0.1-0.5c0.1-0.4,0.2-0.8,0.2-1c0-0.5,0.1-1,0.2-1.3s0.4-0.5,0.8-0.5c0.1,0,0.2,0,0.3,0.1c0.1,0.1,0.1,0.2,0.1,0.3
		c0,0.2,0,0.4-0.1,0.7c0,0.1,0,0.2-0.1,0.3c0,0.1,0,0.2,0,0.4c0,0.7-0.1,1.4-0.2,2c-0.1,0.7-0.4,1-0.8,1c-0.2,0-0.4-0.1-0.5-0.3
		c-0.1-0.2-0.2-0.4-0.2-0.7C181.8,4.8,181.8,4.6,181.8,4.3z"/>
	<path d="M196.9,10c-0.8,0.4-1.7,0.8-2.6,1.2s-1.5,0.6-1.7,0.6c-0.2,0-0.3-0.1-0.3-0.3c0-0.2,0.1-0.4,0.3-0.6
		c0.2-0.2,0.5-0.4,0.8-0.6c0,0,0.1-0.1,0.3-0.2s0.2-0.2,0.2-0.3V9.7l-0.1-0.1c-0.3,0-0.7,0.1-1.2,0.4c-0.1,0-0.2,0.1-0.4,0.2
		c-0.2,0.1-0.3,0.1-0.5,0.1c-0.2,0-0.3-0.1-0.4-0.3c-0.1-0.2-0.1-0.3-0.1-0.5c0-0.3,0.1-0.6,0.3-0.7s0.6-0.3,1.1-0.4
		c0.6-0.2,1-0.4,1.3-0.6s0.5-0.6,0.5-1.1c0-0.1-0.1-0.2-0.2-0.2c-0.2,0-0.4,0.1-0.8,0.2c-0.3,0.1-0.6,0.2-0.8,0.2
		c-0.2,0-0.4-0.1-0.6-0.2c-0.2-0.1-0.3-0.3-0.3-0.5c0-0.3,0.1-0.5,0.4-0.7c0.2-0.2,0.6-0.3,1-0.5c0.3-0.1,0.5-0.2,0.6-0.2
		c0.1-0.1,0.2-0.1,0.2-0.2c0-0.1,0-0.3-0.1-0.5c-0.1-0.2-0.1-0.3-0.2-0.3s-0.3,0-0.5,0.1s-0.4,0.1-0.5,0.1c-0.2,0-0.4-0.1-0.5-0.2
		S192,3.6,192,3.4c0-0.2,0.1-0.4,0.4-0.5s0.6-0.2,0.9-0.3c0.3-0.1,0.5-0.1,0.7-0.2c0.1-0.1,0.1-0.3,0.2-0.5c0-0.3,0.1-0.5,0.2-0.6
		s0.3-0.2,0.6-0.2c0.3,0,0.4,0,0.5,0.1c0.1,0.1,0.2,0.2,0.3,0.3c0.1,0.1,0.2,0.2,0.3,0.2c0.1,0,0.2,0,0.5,0c0.3,0,0.5,0,0.7,0.1
		s0.3,0.2,0.3,0.4c0,0.3-0.6,0.6-1.7,1c-0.1,0.2-0.1,0.5-0.1,1c0.5-0.1,0.9-0.1,1.2-0.1c0.2,0,0.3,0,0.4,0.1s0.1,0.2,0.1,0.4
		c0,0.2-0.1,0.3-0.2,0.4c-0.2,0.1-0.4,0.2-0.7,0.3c-0.4,0.2-0.8,0.3-1,0.5c-0.2,0.2-0.4,0.5-0.4,0.9c0,0.2,0,0.3,0.1,0.4
		c0.1,0,0.2-0.1,0.4-0.2s0.3-0.2,0.4-0.2c0.2,0,0.4,0.1,0.5,0.2c0.1,0.1,0.2,0.3,0.2,0.5c0,0.3-0.1,0.5-0.2,0.7
		c-0.1,0.2-0.3,0.4-0.6,0.6c-0.4,0.3-0.6,0.5-0.6,0.7l0.1,0.1c0.2,0,0.5-0.1,1-0.4c0.2-0.1,0.4-0.2,0.6-0.3c0.2-0.1,0.4-0.1,0.6-0.1
		c0.1,0,0.2,0,0.2,0.1s0.1,0.1,0.1,0.2C198.1,9.3,197.7,9.6,196.9,10z M197.9,13.4c0.2-0.7,0.4-1.3,0.6-1.8s0.5-0.8,0.7-0.8
		c0.1,0,0.2,0,0.3,0.1l0,0.2c0,0.1,0,0.2-0.1,0.4c-0.1,0.2-0.1,0.3-0.1,0.4c0.1,0.1,0.2,0.1,0.4,0.1c0.1,0,0.2,0,0.4-0.1
		c0.2-0.1,0.3-0.1,0.4-0.1c0.2,0,0.4,0.1,0.8,0.4c0.3,0.3,0.5,0.5,0.5,0.6c0,0.1-0.1,0.2-0.2,0.3c-0.1,0.1-0.2,0.2-0.2,0.3
		c0,0.1,0,0.1,0.1,0.1c0.1,0,0.1,0.1,0.1,0.1c0.1,0.1,0.3,0.3,0.4,0.6c0.1,0.3,0.2,0.4,0.3,0.5c0.1,0,0.1,0,0.2,0s0.2,0,0.3,0
		c0.9,0,1.4,0.1,1.6,0.2c0.4,0.2,0.8,0.5,1.1,1.1s0.4,1.1,0.4,1.7c0,0.4-0.1,0.7-0.4,0.9s-0.6,0.3-1.1,0.3c-0.5,0-0.9-0.1-1.2-0.4
		s-0.5-0.6-0.7-1.1c-0.1-0.2-0.1-0.3-0.2-0.4c-0.1-0.1-0.1-0.2-0.2-0.2c-0.1,0.1-0.1,0.5-0.1,1.2c0,0.7,0,1.1,0,1.3
		c0,1.8-0.1,3.3-0.2,4.4s-0.3,1.9-0.6,2.2c-0.1,0.1-0.1,0.1-0.2,0.1c-0.1,0-0.2,0.1-0.3,0.1c-0.3,0-0.6-0.1-0.6-0.4
		c-0.1-0.3-0.1-0.6-0.1-1c0-1.4,0.1-3,0.3-4.7c0-0.3,0.1-0.6,0.1-0.7c0-0.1,0-0.3,0.1-0.6c0-0.3,0.1-0.5,0.1-0.8
		c0-0.1-0.1-0.2-0.2-0.2c-0.2,0-0.6,0.1-1.2,0.3c-0.6,0.2-1.1,0.4-1.6,0.7c-0.5,0.2-0.7,0.5-0.7,0.6c0,0.2,0.1,0.4,0.2,0.8
		c0.1,0.3,0.2,0.6,0.2,0.8c0,0.7-0.2,1-0.6,1c-0.2,0-0.4-0.1-0.5-0.2c-0.1-0.2-0.2-0.4-0.4-0.6c-0.1-0.3-0.2-0.4-0.3-0.5
		c-0.1-0.1-0.2-0.2-0.2-0.3c0-0.1-0.1-0.2-0.1-0.4c0-0.5,0.2-0.9,0.5-1.3c0.2-0.2,0.8-0.5,1.8-1.1c1-0.6,1.8-1.1,2.3-1.4
		c0.5-0.3,0.7-0.6,0.7-0.7c0-0.2-0.1-0.3-0.2-0.4c-0.3,0.1-0.7,0.3-1.2,0.5c-0.5,0.2-0.8,0.3-0.9,0.3c-0.4,0-0.6-0.3-0.6-0.9
		C197.6,14.5,197.7,14.1,197.9,13.4z M198.8,9.5c0.5-0.2,1.1-0.2,1.6-0.2c0.5,0,0.7,0.1,0.7,0.4c0,0.3-0.3,0.5-0.9,0.7
		c-0.6,0.2-1.2,0.2-1.6,0.2c-0.3,0-0.5-0.1-0.5-0.3C198,10,198.3,9.7,198.8,9.5z M199.4,12.8c-0.1,0-0.2,0-0.3,0.1s-0.2,0.2-0.2,0.2
		c0,0.1,0.1,0.1,0.2,0.1c0.1,0,0.2,0,0.3-0.1c0.1-0.1,0.2-0.1,0.2-0.2C199.6,12.9,199.6,12.8,199.4,12.8z M199.4,14.2
		c-0.2,0.2-0.3,0.3-0.4,0.4l0.1,0.1c0.1,0,0.3-0.1,0.5-0.2c0.2-0.1,0.3-0.3,0.4-0.4l-0.1-0.1C199.8,13.9,199.6,14,199.4,14.2z
		 M201.1,2.2c0.3-0.1,0.6-0.2,1.1-0.2c0.4,0,0.6-0.1,0.9-0.1c0.2-0.1,0.4-0.2,0.5-0.3c0.1-0.1,0.1-0.2,0.1-0.4s0-0.3,0.1-0.3
		c0.1-0.3,0.1-0.5,0.2-0.7s0.2-0.2,0.4-0.2c0.2,0,0.3,0.1,0.4,0.2c0.1,0.1,0.1,0.3,0.1,0.4c0,0,0,0.2-0.1,0.6c0.2,0,0.3,0,0.6-0.1
		s0.4,0,0.6,0c0.2,0,0.4,0.1,0.5,0.2c0.1,0.1,0.2,0.3,0.2,0.5c0,0.3-0.1,0.5-0.3,0.7c-0.2,0.2-0.5,0.4-0.8,0.5
		c-0.1,0.1-0.3,0.1-0.4,0.2c-0.1,0.1-0.2,0.1-0.2,0.2c0,0.1-0.1,0.2-0.1,0.4c0,0.4,0,0.8,0.1,1.2c0,0.5,0.1,0.8,0.1,0.9
		c0.1,0.8,0.1,1.5,0.1,2.2c0,0.5-0.1,1.1-0.2,1.8s-0.3,1.1-0.6,1.2c-0.1,0-0.3,0.1-0.4,0.1c-0.3,0-0.5-0.1-0.6-0.2
		c-0.1-0.2-0.1-0.4-0.1-0.7c0-0.2,0-0.4-0.1-0.8c0-0.3-0.1-0.6-0.1-0.8s0-0.5,0.1-0.8l0-0.8c0-0.2,0-0.3-0.1-0.4
		c0-0.1-0.3-0.2-0.8-0.3c-0.5-0.1-0.9-0.3-1.2-0.4c-0.3-0.1-0.4-0.3-0.4-0.5c0-0.4,0.4-0.6,1.2-0.6c0.1,0,0.3,0,0.4,0s0.2,0,0.3,0.1
		C203,5,203.2,5,203.3,5c0.2,0,0.3-0.2,0.3-0.5c0-0.3,0-0.5,0-0.5V3.7c-0.3,0-0.5,0.1-0.7,0.1c-0.6,0.1-1.1,0.1-1.3,0.1
		c-0.2,0-0.3-0.1-0.5-0.3c-0.2-0.2-0.3-0.4-0.3-0.5C200.7,2.6,200.8,2.3,201.1,2.2z M203.9,16.7c-0.2-0.2-0.3-0.3-0.5-0.3
		c-0.1,0-0.2,0-0.2,0.1c0,0.2,0.1,0.4,0.3,0.6c0.2,0.3,0.4,0.4,0.5,0.4c0.1,0,0.2-0.1,0.2-0.2C204.1,17.1,204.1,16.9,203.9,16.7z"/>
	<path d="M210.9,15c0.1-0.1,0.3-0.2,0.6-0.3c0,0,0.1-0.1,0.2-0.1s0.2-0.1,0.3-0.2c0,0,0-0.3,0.1-0.8c0-0.5,0.1-0.9,0.1-1.2
		c0.3-4,0.6-6.2,0.9-6.4c0.1-0.1,0.2-0.2,0.3-0.2c0.1,0,0.2-0.1,0.3-0.1s0.2,0,0.3-0.1c0.1-0.1,0.3-0.2,0.5-0.3
		c0.2-0.1,0.4-0.2,0.6-0.3s0.4-0.1,0.6-0.1c0.5,0,0.8,0.2,1,0.6s0.3,0.8,0.3,1.3c0,2.6-0.2,4.4-0.5,5.3c-0.1,0.2-0.1,0.3-0.1,0.4
		c0.3-0.1,0.7-0.2,1.2-0.4c0.3-0.1,0.5-0.2,0.8-0.3s0.5-0.1,0.7-0.1c0.2,0,0.3,0.1,0.5,0.3c0.2,0.2,0.2,0.3,0.2,0.5
		c0,0.1-0.1,0.3-0.2,0.4c-0.3,0.3-1.4,0.9-3.5,1.9c-2,1-3.3,1.6-3.8,1.7c-0.2,0.1-0.4,0.1-0.7,0.1c-0.3,0-0.5-0.1-0.6-0.2
		s-0.2-0.3-0.2-0.6C210.7,15.3,210.7,15.1,210.9,15z M214.3,13.3c0.4-0.1,0.6-0.3,0.7-0.5c0.1-0.2,0.2-0.5,0.2-1
		c0-0.2,0-0.4-0.1-0.5c-0.7,0-1.2,0.1-1.5,0.2c0,0.3-0.1,0.5-0.1,0.6c-0.1,0.5-0.1,0.9-0.1,1.1c0,0.2,0,0.3,0.1,0.4
		C213.7,13.5,214,13.4,214.3,13.3z M215.5,9c-0.1,0-0.3,0-0.4,0.1c-0.2,0.1-0.3,0.1-0.4,0.1c-0.4,0.1-0.6,0.3-0.8,0.5
		c-0.2,0.2-0.3,0.4-0.3,0.8c0,0.1,0.1,0.2,0.2,0.2c0.7-0.3,1.3-0.5,1.7-0.6c0-0.1,0.1-0.2,0.1-0.4s0.1-0.4,0.1-0.5V9.1L215.5,9z
		 M215.2,6.2c-0.3,0.1-0.6,0.3-0.7,0.5c-0.1,0.2-0.3,0.4-0.4,0.7c-0.1,0.3-0.2,0.6-0.4,0.8c0,0.1,0.1,0.1,0.2,0.1c0.1,0,0.2,0,0.3,0
		c0.1,0,0.2,0,0.2-0.1c0.2-0.1,0.3-0.1,0.5-0.1c0.3,0,0.5,0,0.6,0V7.6C215.6,6.7,215.5,6.3,215.2,6.2z M220.3,8.7
		c0.1-0.1,0.3-0.1,0.5-0.2c0.5-0.1,0.8-0.4,1-0.7c0.2-0.4,0.4-0.8,0.5-1.4c0.1-0.3,0.2-0.6,0.3-0.7c0.1-0.2,0.2-0.2,0.4-0.2
		c0.2,0,0.4,0.1,0.5,0.2s0.2,0.3,0.2,0.6c0,0.1,0,0.2,0,0.3s0,0.2,0,0.3c0,0.2,0.1,0.3,0.4,0.3c0.2,0,0.4-0.1,0.7-0.2
		c0.3-0.1,0.5-0.2,0.7-0.2c0.8,0,1.2,0.8,1.2,2.3c0,0.5-0.1,1.2-0.3,1.9c-0.2,0.8-0.5,1.4-0.7,1.9c-0.1,0.3-0.3,0.4-0.6,0.6
		c-0.3,0.1-0.6,0.2-0.9,0.2c-0.4,0-0.6-0.1-0.8-0.3c-0.1-0.2-0.2-0.4-0.3-0.8c-0.1-0.4-0.2-0.7-0.3-0.8c-0.1,0-0.2,0.1-0.2,0.2
		s-0.1,0.2-0.1,0.3c-0.2,0.6-0.6,1.5-1.2,2.8c-0.6,1.2-1.2,2.3-1.8,3.3c-0.7,1-1.2,1.4-1.7,1.4c-0.2,0-0.4-0.1-0.6-0.2
		c-0.2-0.2-0.3-0.3-0.3-0.6c0-0.1,0.1-0.4,0.4-0.9c0.3-0.5,0.5-1,0.7-1.4c0.2-0.4,0.4-0.7,0.5-0.9c0.8-1.4,1.4-2.6,1.9-3.5
		s0.7-1.5,0.7-1.8c0-0.1-0.1-0.2-0.2-0.4c-0.2-0.1-0.3-0.2-0.4-0.4s-0.2-0.3-0.2-0.6C220.1,8.9,220.2,8.8,220.3,8.7z M224.5,8.5
		c-0.4,0-0.6,0.2-0.8,0.5c-0.2,0.3-0.3,0.7-0.3,1.1c0,0.3,0.1,0.6,0.2,0.9c0.1,0.4,0.2,0.6,0.4,0.8c0.1,0,0.3-0.5,0.5-1.4
		c0.2-0.9,0.4-1.4,0.4-1.6C224.8,8.6,224.7,8.5,224.5,8.5z"/>
	<path d="M233.2,9.8c0.2-0.3,0.5-0.5,0.8-0.5c0.4,0,0.7,0.1,0.9,0.4s0.3,0.6,0.3,1c0,0.4-0.1,0.7-0.2,1c-0.2,0.3-0.4,0.4-0.7,0.4
		c-0.3,0-0.6-0.2-0.9-0.5c-0.3-0.3-0.5-0.6-0.5-0.9C232.9,10.4,233,10.1,233.2,9.8z M233.1,15.8c0.2-0.3,0.4-0.4,0.7-0.4
		c0.4,0,0.7,0.2,1,0.5c0.2,0.3,0.3,0.7,0.3,1.2c0,0.4-0.1,0.6-0.3,0.9c-0.2,0.2-0.5,0.3-0.9,0.3s-0.6-0.2-0.9-0.5
		c-0.2-0.4-0.3-0.7-0.3-1.1C232.9,16.4,233,16.1,233.1,15.8z"/>
</g>
</svg>
