<?xml version="1.0" encoding="utf-8"?>
<!-- Generator: Adobe Illustrator 25.2.3, SVG Export Plug-In . SVG Version: 6.00 Build 0)  -->
<svg version="1.1" id="Capa_1" xmlns="http://www.w3.org/2000/svg" xmlns:xlink="http://www.w3.org/1999/xlink" x="0px" y="0px"
	 viewBox="0 0 512 512" style="enable-background:new 0 0 512 512;" xml:space="preserve">
<style type="text/css">
	.st0{fill:#4A71BE;}
</style>
<g>
	<path class="st0" d="M234.6,46.9L99.8,129H15c-8.3,0-15,6.7-15,15v224c0,8.3,6.7,15,15,15h84.8l134.8,82.1
		c30,18.3,68.4-3.3,68.4-38.4V85.4C303,50.3,264.6,28.7,234.6,46.9L234.6,46.9z M30,159h59v194H30V159z M273,426.6
		c0,11.7-12.8,18.9-22.8,12.8L119,359.6V152.4l131.2-79.9c10-6.1,22.8,1.1,22.8,12.8V426.6z"/>
	<path class="st0" d="M345.7,217.1c-5.9,5.9-5.9,15.4,0,21.2c9.8,9.8,9.8,25.6,0,35.4c-5.9,5.9-5.9,15.4,0,21.2
		c5.9,5.9,15.4,5.9,21.2,0c21.4-21.4,21.4-56.3,0-77.8C361,211.3,351.5,211.3,345.7,217.1L345.7,217.1z"/>
	<path class="st0" d="M412.1,171.9c-5.9-5.9-15.4-5.9-21.2,0c-5.9,5.9-5.9,15.4,0,21.2c34.7,34.7,34.7,91.2,0,125.9
		c-5.9,5.9-5.9,15.4,0,21.2c5.9,5.9,15.4,5.9,21.2,0C458.5,293.7,458.5,218.3,412.1,171.9z"/>
	<path class="st0" d="M457.4,126.6c-5.9-5.9-15.4-5.9-21.2,0c-5.9,5.9-5.9,15.4,0,21.2c60.7,60.7,60.7,155.7,0,216.4
		c-5.9,5.9-5.9,15.4,0,21.2c5.9,5.9,15.4,5.9,21.2,0C530.2,312.6,530.2,199.5,457.4,126.6z"/>
</g>
</svg>
