<?xml version="1.0" encoding="utf-8"?>
<!-- Generator: Adobe Illustrator 25.2.1, SVG Export Plug-In . SVG Version: 6.00 Build 0)  -->
<svg version="1.1" id="圖層_1" xmlns="http://www.w3.org/2000/svg" xmlns:xlink="http://www.w3.org/1999/xlink" x="0px" y="0px"
	 viewBox="0 0 228.7 25.8" style="enable-background:new 0 0 228.7 25.8;" xml:space="preserve">
<style type="text/css">
	.st0{enable-background:new    ;}
</style>
<g class="st0">
	<path d="M0.7,8.4c0.2-0.1,0.5-0.2,0.9-0.2c0.1,0,0.2,0,0.4-0.1S2.2,8,2.3,8C2.6,7.8,2.8,7.5,3,6.9C3.1,6.5,3.2,6.2,3.4,6
		c0.1-0.2,0.3-0.3,0.6-0.3c0.1,0,0.2,0,0.2,0.1C4.2,5.9,4.3,6,4.3,6.1c0,0.1-0.1,0.2-0.2,0.5C4,6.8,4,7.1,4,7.2C4,7.5,4,7.6,4.2,7.6
		c0.2,0,0.5,0,0.8-0.1s0.6-0.1,0.8-0.1c0.1,0,0.2,0.1,0.4,0.2S6.4,7.9,6.4,8c0,0.2-0.1,0.4-0.3,0.5C5.9,8.7,5.6,8.8,5.2,9
		c-0.4,0.2-0.7,0.3-1,0.5S4,9.8,4,10.1c0,0.1,0,0.3,0.1,0.5c0,0.2,0.1,0.3,0.1,0.4c0.3,0,0.5-0.1,0.8-0.2c0.3-0.1,0.4-0.2,0.5-0.2
		c0.3-0.2,0.6-0.3,0.8-0.4C6.4,10,6.7,10,6.9,10c0.2,0,0.4,0.1,0.6,0.4c0.2,0.3,0.3,0.5,0.3,0.7c0,0.4-0.2,0.8-0.6,1
		C7,12.4,6.5,12.7,5.8,13c-0.5,0.2-0.9,0.4-1.1,0.6c-0.3,0.2-0.4,0.3-0.5,0.5c0,0.5-0.1,0.9-0.1,1.4c0,1.3-0.1,2.4-0.2,3.3
		S3.4,20.3,3,20.6c-0.1,0.1-0.2,0.2-0.4,0.4c-0.2,0.2-0.3,0.3-0.4,0.3c-0.3,0-0.6-0.2-1.1-0.7c-0.5-0.4-0.8-0.8-0.9-1.1
		C0.1,19.2,0,18.8,0,18.3C0,18.2,0.1,18,0.2,18s0.3-0.1,0.4-0.1c0.2,0,0.5,0.2,0.8,0.7c0,0,0.1,0.1,0.2,0.3c0.1,0.1,0.2,0.2,0.3,0.3
		C2,19,2.1,18.2,2.1,16.7c0-0.9-0.1-1.4-0.2-1.4c-0.1,0-0.2,0.1-0.4,0.3s-0.4,0.3-0.5,0.3c-0.2,0-0.3-0.1-0.4-0.3
		c-0.1-0.2-0.1-0.4-0.1-0.6c0-0.5,0.1-0.8,0.2-1.1s0.4-0.5,0.7-0.7c0.4-0.3,0.7-0.6,0.8-0.9c0.1-0.3,0.2-0.8,0.2-1.8
		c0-0.5-0.1-0.8-0.2-0.9C2,9.7,1.8,9.7,1.5,9.7c-0.4,0-0.6,0-0.8-0.1C0.5,9.5,0.4,9.2,0.4,8.9C0.4,8.6,0.5,8.5,0.7,8.4z M9.1,17.9
		c0.1-0.2,0.2-0.3,0.2-0.3c0.2-0.4,0.4-0.8,0.4-1.3c0.1-0.5,0.1-1.2,0.1-1.9l0.1-1.1c0-0.3,0.1-0.7,0.3-1.2c0.1-0.4,0.2-1,0.2-1.8
		c0-0.1,0-0.3,0-0.5c0-0.2,0-0.4,0.1-0.6c0-0.1,0-0.3,0.1-0.7c0-0.4,0.1-0.7,0.2-1C10.8,7.2,11,7,11.1,7c0.2,0,0.3,0.1,0.4,0.2
		c0.1,0.1,0.1,0.3,0.1,0.5c0,0.2,0,0.4,0.1,0.4s0.1,0.1,0.2,0.1c0.3,0,0.6-0.1,1-0.2c0.5-0.2,0.8-0.2,1-0.2c0.3,0,0.6,0.1,0.9,0.3
		c0.3,0.2,0.4,0.5,0.4,0.8c0,0.4-0.1,0.8-0.2,1.1c-0.2,0.3-0.2,0.6-0.2,0.8c0,0.2-0.2,0.4-0.5,0.7c-0.3,0.2-0.8,0.5-1.4,0.8
		c-0.3,0.2-0.6,0.3-0.8,0.5c-0.3,0.2-0.5,0.3-0.6,0.4c-0.1,0.1-0.1,0.6-0.2,1.5c0,0.9-0.1,1.5-0.1,2c0,0.2,0,0.3,0.1,0.4
		c0.9,0,1.8-0.1,2.8-0.3c1-0.1,1.5-0.2,1.7-0.3c1.1-0.2,2-0.3,2.8-0.4c0.7-0.1,1.5-0.1,2.3-0.1c0.5,0,0.8,0.1,1.1,0.2
		c0.3,0.1,0.4,0.4,0.4,0.8c0,0.5-0.2,0.9-0.6,1.1c-0.3,0.2-0.8,0.3-1.3,0.3c-0.5,0-0.8,0.1-1,0.1c-1.8,0.2-3.4,0.5-4.8,0.7
		c-0.5,0.1-1,0.1-1.5,0.2c-0.6,0-1.2,0.1-1.7,0.2c-0.1,0-0.2,0-0.3,0.1c-0.2,0-0.3,0.1-0.5,0.1c-0.3,0-0.7-0.1-1.1-0.4
		c-0.4-0.3-0.6-0.6-0.6-0.8C8.9,18.2,9,18.1,9.1,17.9z M10,5.2c0.6-0.4,1.2-0.7,1.9-1c0.7-0.3,1.2-0.4,1.5-0.4C13.8,3.8,14,4,14,4.3
		c0,0.2-0.3,0.5-0.8,0.9S12,6.1,11.4,6.5c-0.6,0.4-1,0.6-1.2,0.6c-0.2,0-0.5-0.1-0.7-0.3S9.2,6.5,9.2,6.2C9.2,5.9,9.5,5.6,10,5.2z
		 M13.2,9.3c-1.1,0-1.6,0.5-1.6,1.6c0,0.2,0,0.3,0.1,0.4c0.4-0.1,0.9-0.3,1.4-0.6c0.5-0.4,0.8-0.7,0.8-1.1
		C13.9,9.4,13.7,9.3,13.2,9.3z"/>
	<path d="M31.8,3.3c0.2,0,0.4-0.1,0.7-0.1c0.3,0,0.5-0.1,0.7-0.2s0.4-0.3,0.7-0.5c0.4-0.3,0.7-0.6,1.1-0.7c0.3-0.2,0.8-0.2,1.4-0.2
		c0.2,0,0.3,0,0.5,0.1c0.1,0,0.2,0.1,0.2,0.3c0,0.1-0.1,0.2-0.3,0.3c-0.2,0.1-0.3,0.2-0.4,0.3c-0.4,0.3-0.8,0.6-1,0.8
		s-0.4,0.4-0.4,0.6c0.3,0.4,0.6,0.8,0.8,1.3c0.2,0.5,0.3,0.9,0.3,1.3c0,0.2-0.1,0.3-0.2,0.5S35.3,7.3,35,7.6c-0.4,0.4-0.7,0.7-0.9,1
		c-0.2,0.3-0.3,0.6-0.3,0.9c0,0.1,0.2,0.3,0.7,0.7c0.5,0.4,0.8,0.5,0.9,0.5c0.2,0,0.7-0.1,1.6-0.2s1.3-0.2,1.4-0.3
		c0.1-0.1,0.2-0.3,0.3-0.7c0.1-0.4,0.2-0.8,0.2-1.1c0-0.1-0.1-0.2-0.3-0.2c-0.1,0-0.2,0-0.4,0.1c-0.2,0-0.3,0.1-0.4,0.1
		c-0.2,0-0.4,0-0.7-0.1C37,8.1,36.9,8,36.9,7.8V7.6c0.1-0.1,0.2-0.2,0.5-0.3c0.3-0.1,0.6-0.2,1-0.2c0.3-0.1,0.5-0.1,0.7-0.2
		s0.3-0.1,0.3-0.2c0-0.1,0-0.2-0.1-0.3S39.1,6.1,39,6.1c-0.3,0-0.7,0.1-1.1,0.4s-0.7,0.4-0.7,0.4c-0.2,0-0.3-0.1-0.4-0.2
		c-0.1-0.1-0.1-0.3-0.1-0.4c0-0.4,0.2-0.8,0.6-1c0.4-0.3,0.8-0.4,1.3-0.4c0.4,0,0.6-0.1,0.6-0.2c0-0.2-0.1-0.4-0.2-0.8
		c-0.2-0.4-0.2-0.6-0.2-0.8c0-0.1,0-0.3,0.1-0.4c0.1-0.1,0.2-0.2,0.3-0.2c0.7,0,1.2,0.5,1.4,1.5s0.4,2,0.4,3.1
		c0,0.5-0.1,1.2-0.4,2.1c-0.2,0.6-0.2,1-0.3,1.1c0.2,0.1,0.5,0.3,0.9,0.4c0.4,0.1,0.7,0.2,0.8,0.2c0.3,0.1,0.5,0.3,0.8,0.7
		c0.2,0.4,0.4,0.7,0.4,1c0,1-0.6,1.8-1.8,2.4c-0.4,0.2-0.8,0.3-1,0.3c-0.3,0-0.4-0.1-0.4-0.4c0-0.1,0.1-0.2,0.2-0.3s0.2-0.2,0.4-0.4
		c0.3-0.2,0.5-0.4,0.6-0.6c0.1-0.1,0.2-0.3,0.2-0.5c0-0.2-0.2-0.4-0.6-0.5s-0.7-0.2-1-0.2c-0.2,0-0.5,0.1-0.7,0.3s-0.5,0.3-0.6,0.3
		s-0.3-0.1-0.5-0.2c-0.2-0.1-0.3-0.2-0.4-0.2c-2.2,0-4.4,0.2-6.4,0.7c-2.1,0.5-3.8,1.3-5.1,2.4c-0.1,0.1-0.3,0.3-0.7,0.7
		c-0.4,0.4-0.7,0.6-0.8,0.6c-0.1,0-0.2-0.1-0.4-0.2c-0.1-0.1-0.2-0.2-0.2-0.3c0-0.2,0.6-1,1.9-2.3l0.6-0.7c-0.3-0.4-0.5-0.9-0.5-1.6
		c0-1.1,0.1-2.3,0.4-3.6s0.6-2.2,1.1-2.9c0,0,0.1-0.1,0.2-0.3c0.1-0.2,0.3-0.3,0.4-0.3c0.2,0,0.3,0.1,0.3,0.3c0,0.1,0,0.3-0.1,0.5
		C28,5.7,27.9,5.8,27.9,6l0,0.4c0.1,0,0.2,0,0.4,0c0.1,0,0.3,0,0.4,0c0.5,0,0.8,0.2,0.8,0.6c0,0.1-0.1,0.2-0.2,0.3S29,7.4,28.7,7.5
		c-0.3,0.1-0.5,0.1-0.6,0.2S27.9,7.8,27.9,8s0,0.2,0.1,0.2c0.8-0.4,1.4-0.6,1.8-0.6c0.2,0,0.6,0.1,1.3,0.4c0.5,0.2,0.7,0.2,0.8,0.2
		c0.1,0,0.4-0.2,0.9-0.7c0.1-0.1,0.2-0.2,0.5-0.5s0.5-0.4,0.6-0.5c0.2-0.1,0.3-0.2,0.4-0.3c0-0.1-0.2-0.3-0.3-0.5
		c-0.2-0.2-0.3-0.4-0.4-0.4c-0.1,0-0.2,0.1-0.5,0.4c-0.2,0.2-0.5,0.4-0.7,0.6c-0.2,0.1-0.4,0.2-0.7,0.2c-0.2,0-0.3-0.1-0.4-0.2
		c-0.1-0.2-0.1-0.3-0.1-0.5s0.1-0.4,0.2-0.6c0.1-0.2,0.2-0.3,0.2-0.4c-0.2-0.1-0.3-0.2-0.3-0.3c-0.1-0.1-0.1-0.2-0.1-0.3
		C31.1,3.6,31.3,3.4,31.8,3.3z M25,4.1c0.4-0.5,0.8-0.9,1.2-1.2c0.5-0.3,0.9-0.5,1.2-0.5c0.2,0,0.4,0.1,0.6,0.2s0.3,0.3,0.3,0.6
		c0,0.2-0.1,0.4-0.4,0.6s-0.6,0.5-1,0.8c-0.4,0.3-0.7,0.5-0.9,0.7s-0.3,0.4-0.3,0.5s0,0.3-0.1,0.4c-0.1,0.1-0.2,0.2-0.4,0.2
		c-0.2,0-0.4-0.1-0.6-0.4c-0.2-0.2-0.2-0.5-0.2-0.7C24.5,4.9,24.7,4.5,25,4.1z M32.3,13.7c0.2-0.2,0.4-0.3,0.6-0.3
		c0.4,0,0.7,0.2,1.1,0.7c0.4,0.5,0.6,0.9,0.6,1.3c0,0.3-0.1,0.6-0.2,0.9s-0.2,0.5-0.2,0.6c-0.3,0.6-0.4,1.1-0.4,1.4
		c0.3,0,0.7,0,1.2-0.1c0.5-0.1,1-0.2,1.4-0.3c1.2-0.3,2.2-0.4,2.8-0.4c0.8,0,1.5,0.1,2.1,0.3c0.7,0.2,1,0.6,1,1.2
		c0,0.2-0.1,0.4-0.2,0.6c-0.2,0.2-0.3,0.3-0.5,0.3c-0.1,0-0.5,0-1.1-0.1c-0.4-0.1-0.8-0.1-1.1-0.1c-0.7,0-1.6,0.1-2.6,0.2
		c-1,0.2-1.8,0.4-2.2,0.6c0,1.2-0.1,2-0.2,2.3c-0.2,0.5-0.6,1.2-1.1,1.8c-0.5,0.7-0.9,1-1.3,1c-0.2,0-0.4-0.1-0.6-0.2
		c-0.2-0.1-0.3-0.3-0.3-0.5c0-0.1,0.1-0.4,0.4-0.9c0.3-0.6,0.6-1.1,0.8-1.5c0.2-0.4,0.3-0.9,0.3-1.4h-0.4l-0.1,0
		c-0.6,0.2-1.1,0.3-1.4,0.3c-0.7,0.2-1.3,0.3-1.8,0.4c-0.5,0.1-0.9,0.3-1.4,0.5c-0.2,0.1-0.3,0.1-0.4,0.1c-0.1,0-0.2,0-0.2-0.1
		l-0.1-0.1c0-0.4,0.3-0.7,0.8-1.1c0.5-0.3,1.3-0.7,2.2-1.2c1.1-0.5,1.7-0.8,2-1.1c0-0.1-0.1-0.2-0.2-0.3s-0.1-0.3-0.2-0.4
		c0.3-0.4,0.6-0.8,0.9-1.3c0.3-0.5,0.4-0.9,0.4-1.2c0-0.2,0-0.4-0.1-0.5c-0.1-0.1-0.2-0.2-0.3-0.2c-0.1-0.1-0.2-0.1-0.3-0.2
		c-0.1-0.1-0.1-0.3-0.1-0.5C32.1,14.2,32.2,13.9,32.3,13.7z M31.1,8.9c-0.2-0.2-0.3-0.4-0.4-0.4c-0.1,0-0.2,0.1-0.5,0.3
		c-0.2,0.1-0.5,0.3-1.1,0.5s-1,0.4-1.3,0.5c0,0.1-0.1,0.4-0.2,0.9c-0.1,0.5-0.1,0.8-0.1,1h0.2c0.1,0,0.2-0.1,0.4-0.1
		c0.2-0.1,0.3-0.1,0.4-0.1c0.2,0,0.4,0.1,0.4,0.4c0,0.2-0.1,0.3-0.2,0.5c-0.1,0.2-0.2,0.3-0.2,0.3l0.1,0.1c1.4-0.5,2.3-0.9,2.5-1.1
		c0.1-0.2,0.1-0.4,0.1-0.8c0-0.4,0-0.8,0.1-1c0.1-0.2,0.2-0.4,0.2-0.5C31.4,9.3,31.3,9.1,31.1,8.9z M33.2,10.7
		c-0.1,0-0.1-0.1-0.2-0.1c-0.2,0-0.2,0.1-0.2,0.2c0,0.1,0,0.1,0.1,0.2s0.1,0.1,0.2,0.1c0.1,0,0.1,0,0.1-0.1s0.1-0.1,0.1-0.1
		C33.3,10.8,33.2,10.8,33.2,10.7z"/>
	<path d="M55.3,1.6c0.4,0,0.6,0.3,0.7,0.8s0.2,1.1,0.2,1.6c0,0.2,0,0.4-0.1,0.7C56.1,4.9,56,5.2,56,5.4c0.4,0,0.9-0.1,1.6-0.4
		c0.1,0,0.3-0.1,0.6-0.2c0.3-0.1,0.7-0.1,1-0.1c0.2,0,0.4,0.1,0.5,0.2c0.1,0.1,0.2,0.3,0.2,0.5c0,0.3-0.3,0.6-0.9,0.8
		c-0.6,0.3-1.2,0.5-1.9,0.7c-0.7,0.2-1.2,0.3-1.5,0.3c-0.3,0-0.8,0-1.4,0.1c-0.6,0.1-1,0.1-1.1,0.2c-0.2,0.1-0.4,0.3-0.5,0.6
		c-0.2,0.7-0.4,1.7-0.4,3c-0.1,0.9-0.2,1.6-0.2,2c-0.1,0.4-0.2,0.8-0.2,0.9c-0.2,1-0.3,1.6-0.3,1.8c-0.1,0.7-0.2,1.8-0.4,3.3
		c-0.2,1.5-0.4,2.3-0.6,2.5c-0.1,0.1-0.3,0.2-0.6,0.2c-0.3,0-0.6-0.2-0.7-0.5c-0.1-0.3-0.2-0.7-0.2-1.1c0-0.4,0-0.8,0.1-1.2
		c0.1-0.4,0.2-0.8,0.2-1.3c0.2-1.1,0.4-1.9,0.4-2.5l-0.1,0c-0.1,0-0.4,0-0.7,0.1c-0.2,0.1-0.5,0.1-0.7,0.1c-0.7,0-1-0.2-1-0.6
		c0-0.3,0.1-0.5,0.4-0.6c0.3-0.2,0.7-0.3,1.2-0.5c0.5-0.2,0.9-0.3,1.1-0.5c0.2-0.1,0.4-0.3,0.4-0.5c0-0.1,0-0.2,0.1-0.4
		s0.1-0.3,0.1-0.4c0-0.1-0.1-0.3-0.2-0.4c-0.1-0.1-0.2-0.2-0.4-0.2c-0.1,0-0.2,0-0.4,0.1c-0.2,0.1-0.3,0.1-0.4,0.1
		c-0.3,0-0.5-0.1-0.7-0.3s-0.3-0.5-0.3-0.8s0.1-0.5,0.3-0.6c0.2-0.1,0.5-0.2,0.8-0.2c0.2,0,0.4,0.1,0.7,0.2c0.3,0.1,0.6,0.2,0.7,0.2
		c0.1,0,0.3-0.3,0.5-0.8s0.3-0.9,0.3-1.1c0-0.1-0.1-0.2-0.2-0.3c-0.2-0.1-0.3-0.2-0.4-0.2c-0.1-0.1-0.1-0.2-0.1-0.3
		c0-0.3,0.2-0.5,0.6-0.7c0.4-0.2,1-0.4,1.7-0.6C53.4,6.1,53.7,6,54,5.9s0.4-0.2,0.5-0.3c0.1-0.2,0.2-0.5,0.2-0.9
		c0-0.2,0-0.6-0.1-1.1c-0.1-0.4-0.1-0.7-0.1-1.1C54.4,1.9,54.7,1.6,55.3,1.6z M54.6,10.8c0.2-0.1,0.4-0.2,0.6-0.2
		c0.2,0,0.3-0.1,0.4-0.1c0.3-0.1,0.9-0.3,1.6-0.6c0.7-0.3,1.3-0.5,1.7-0.6s0.9-0.2,1.4-0.2c0.4,0,0.7,0.1,0.7,0.4s-0.1,0.4-0.2,0.5
		c-0.1,0.1-0.3,0.3-0.6,0.4c-0.3,0.2-0.5,0.3-0.7,0.5c-0.2,0.2-0.2,0.4-0.2,0.8c0,0.3,0,0.5,0.1,0.8s0.1,0.5,0.2,0.6
		c0.2,0,0.5,0,0.8-0.1s0.6-0.1,0.8-0.1c0.4,0,0.6,0.2,0.6,0.6c0,0.3-0.2,0.5-0.6,0.9s-0.8,0.6-1.1,0.7c-0.1,0-0.2,0.1-0.4,0.1
		s-0.2,0.1-0.2,0.2c0,0.1,0,0.3-0.1,0.5c-0.1,0.4-0.2,0.8-0.4,1.1c0,0.1-0.1,0.1-0.1,0.3c-0.1,0.1-0.1,0.2-0.1,0.3s0.1,0.1,0.2,0.1
		c0.3,0,0.5,0,0.6,0c0.1,0,0.2,0,0.4,0s0.3,0,0.5,0c1.8,0.1,3.9,0.2,6.4,0.5s3.9,0.4,4.2,0.5c0.3,0.2,0.5,0.4,0.5,0.9
		c0,0.2,0,0.4-0.1,0.5c-0.1,0.2-0.5,0.4-1.1,0.5c-0.6,0.1-1.2,0.1-1.8,0.1c-1.3,0-3.3-0.1-5.9-0.2c-2.7-0.2-4.6-0.2-5.9-0.2
		c-0.4,0-1,0-1.8,0.1s-1.4,0.1-1.8,0.1c-0.2,0-0.4-0.1-0.6-0.3s-0.3-0.4-0.3-0.6s0.1-0.4,0.3-0.6s0.4-0.3,0.8-0.5
		c0.3-0.1,0.5-0.3,0.6-0.4c0.2-0.3,0.2-0.8,0.2-1.6c0-0.8,0.1-1.4,0.2-1.9c0.1-0.4,0.4-0.6,0.9-0.6c0.2,0,0.3,0.1,0.3,0.3
		c0,0.1,0,0.2-0.1,0.4c0,0.2-0.1,0.3-0.1,0.4c0,0.3,0.1,0.9,0.2,1.6s0.2,1.2,0.4,1.2c0.1,0,0.2,0.1,0.4,0.1c0.4,0,0.7,0,0.8-0.1
		l0-0.1c0-0.2,0-0.4-0.1-0.6C57,16.7,57,16.5,57,16.3c0-0.4,0.1-0.9,0.2-1.4c0.1-0.5,0.2-0.8,0.2-0.9c0.3-0.9,0.4-1.7,0.4-2.3
		c0-0.2-0.1-0.3-0.2-0.3c-0.3,0-0.6,0.1-1.1,0.2C56.1,12,55.8,12,55.5,12c-0.2,0-0.5-0.1-0.8-0.2c-0.3-0.1-0.4-0.3-0.4-0.5
		S54.4,10.9,54.6,10.8z"/>
	<path d="M72.6,20.6c0.5-0.9,1-1.8,1.6-2.5s1.1-1.1,1.4-1.1c0.1,0,0.2,0,0.2,0.1c0.1,0.1,0.1,0.1,0.1,0.2c0,0.2-0.1,0.3-0.2,0.5
		c-0.1,0.2-0.2,0.3-0.2,0.3c-0.3,0.3-0.7,1.2-1.4,2.6c-0.7,1.4-1.2,2.2-1.3,2.3c-0.1,0.1-0.3,0.1-0.4,0.1c-0.2,0-0.3-0.1-0.4-0.2
		s-0.1-0.3-0.1-0.4C71.9,22.2,72.2,21.5,72.6,20.6z M76.7,3.1C77.2,3,77.5,3,77.5,3c0.2,0,0.5,0.1,0.8,0.3c0.5,0.4,0.9,0.9,1,1.5
		c0.1,0.6,0.2,1.4,0.2,2.3l0,0.9c0.4,0.1,0.7,0.2,0.8,0.3c0.2,0.1,0.3,0.3,0.3,0.6s-0.4,0.8-1.2,1.6c-0.8,0.8-1.7,1.5-2.7,2.2
		c-1,0.7-1.5,1-1.8,1c-0.5,0-0.8-0.9-0.8-2.7c0-1.2,0.1-2.9,0.4-5.2c0-0.2,0.1-0.6,0.1-1.1c0-0.1,0-0.2,0-0.6s0.1-0.6,0.2-0.8
		c0.1-0.2,0.3-0.3,0.5-0.3c0.1,0,0.2,0,0.3,0.1c0.1,0,0.2,0.1,0.3,0.1C76.1,3.2,76.4,3.2,76.7,3.1z M77.9,8.4
		c-0.1-0.2-0.1-0.4-0.2-0.5c-0.7,0-1.2,0.2-1.5,0.6s-0.4,0.9-0.4,1.7c0,0.1,0,0.2,0.1,0.4c0.2,0,0.6-0.3,1.2-0.7
		C77.7,9.3,78,9,78,8.9C78,8.8,78,8.6,77.9,8.4z M77.5,5.2c-0.2-0.3-0.4-0.5-0.7-0.5c-0.3,0-0.5,0.1-0.6,0.4C76,5.3,76,5.6,76,5.8
		c0,0.1,0,0.3,0.1,0.6h0.9c0.4,0,0.7,0,0.9,0V6.2C77.8,5.8,77.7,5.5,77.5,5.2z M77.3,15.6c0.1-0.1,0.3-0.2,0.5-0.2
		c0.3,0,0.6,0.2,0.9,0.7s0.5,1,0.7,1.6s0.3,1.1,0.3,1.4c0,0.1-0.1,0.3-0.4,0.5c-0.2,0.2-0.4,0.3-0.6,0.3c-0.4,0-0.6-0.2-0.9-0.7
		c-0.2-0.5-0.4-1-0.5-1.6s-0.2-1.1-0.2-1.5C77.1,16,77.2,15.8,77.3,15.6z M81.7,16.2c0.1-0.1,0.3-0.2,0.4-0.2c0.2,0,0.7,0.3,1.4,1
		s1.3,1.3,1.9,2.1s0.9,1.2,0.9,1.5c0,0.3-0.1,0.5-0.4,0.7c-0.3,0.2-0.6,0.2-0.9,0.2c-0.3,0-0.8-0.3-1.3-0.9c-0.5-0.6-1-1.3-1.5-2.1
		s-0.7-1.3-0.7-1.7C81.6,16.5,81.6,16.3,81.7,16.2z M84.2,1.5C84.5,1.2,85,1,85.5,1c0.9,0,1.7,0.2,2.3,0.7c0.6,0.4,0.9,1.1,0.9,2
		c0,0.4-0.1,0.9-0.4,1.5c-0.2,0.6-0.6,1-1,1.4c-0.4,0.4-0.8,0.6-1.3,0.6c-0.2,0-0.4-0.1-0.5-0.2s-0.3-0.3-0.3-0.3
		c-0.1,0.1-0.3,0.3-0.5,0.6c-0.2,0.4-0.4,0.6-0.6,0.7c-0.1,0.1-0.3,0.2-0.5,0.2c-0.2,0-0.4-0.1-0.5-0.2c-0.1-0.2-0.2-0.4-0.2-0.6
		c0-0.3,0.1-0.6,0.2-0.9s0.3-0.7,0.5-1c0.2-0.3,0.3-0.5,0.3-0.6c0.4-0.7,0.6-1.1,0.6-1.3c0-0.1,0-0.1-0.1-0.2S84.2,3.4,84,3.3
		s-0.2-0.1-0.3-0.1c-0.1-0.1-0.1-0.3-0.1-0.6C83.6,2.1,83.8,1.7,84.2,1.5z M83.3,13.8c0-0.1,0-0.2,0.1-0.4c0-0.2,0-0.4,0-0.5
		c0.1-0.8,0.2-1.4,0.3-1.9c0.1-0.5,0.3-0.7,0.7-0.7c0.2,0,0.4,0,0.6-0.1c0.2-0.1,0.3-0.2,0.3-0.2c0.4-0.2,0.7-0.3,0.9-0.3
		c0.7,0,1.3,0.3,1.7,1c0.4,0.6,0.6,1.3,0.6,2.1c0,0.4-0.2,0.7-0.7,1s-0.8,0.5-1.2,0.5c-0.2,0-0.5,0-0.7-0.1
		c-0.2-0.1-0.4-0.2-0.5-0.2c-0.2,0.1-0.3,0.3-0.4,0.6c-0.1,0.3-0.2,0.4-0.3,0.6c-0.1,0.1-0.4,0.2-0.7,0.2c-0.3,0-0.5-0.1-0.6-0.3
		c-0.1-0.2-0.2-0.4-0.2-0.7C83.2,14.3,83.2,14.1,83.3,13.8z M85.5,11.5c-0.1,0.1-0.1,0.2-0.1,0.4c0,0.2,0,0.5,0.1,0.7
		s0.2,0.3,0.4,0.3c0.1,0,0.3,0,0.4-0.1c0.1-0.1,0.1-0.2,0.1-0.3s0-0.3-0.1-0.6c-0.1-0.2-0.2-0.4-0.3-0.5l-0.1-0.1
		C85.7,11.3,85.5,11.4,85.5,11.5z M86.5,3.3c-0.1,0-0.2,0.3-0.4,0.9c-0.1,0.6-0.2,1-0.2,1.2c0,0,0,0.1,0,0.2S86,5.7,86,5.7
		c0.2,0,0.4-0.2,0.5-0.7s0.2-0.8,0.2-1.1C86.8,3.6,86.7,3.4,86.5,3.3z M87,16.8c0.1-0.1,0.2-0.1,0.3-0.1c0.1,0,0.3,0.1,0.5,0.2
		c0.3,0.2,1.5,1.2,3.7,3.2c2.2,2,3.3,3,3.4,3.1c0.1,0.2,0.1,0.4,0.1,0.6c0,0.3-0.1,0.6-0.2,0.8s-0.3,0.3-0.6,0.3
		c-0.1,0-0.3,0-0.4-0.1c-0.6-0.2-1.2-0.6-1.7-1.1c-0.5-0.5-1.1-1.3-1.8-2.3l-0.8-1.1l-0.7-0.8c-0.2-0.2-0.5-0.6-1.1-1.2
		c-0.6-0.6-0.8-1-0.8-1.1C86.8,16.9,86.9,16.8,87,16.8z"/>
	<path d="M99.6,2.8c0.2-0.1,0.8-0.4,1.8-0.8c1-0.4,1.5-0.6,1.7-0.6c0.2,0,0.4,0.1,0.6,0.2c0.2,0.1,0.2,0.3,0.2,0.5
		c0,0.3-0.1,0.5-0.4,0.6s-0.7,0.3-1.2,0.4c-0.6,0.1-1,0.3-1.3,0.5c-0.3,0.2-0.5,0.4-0.5,0.8c0,0.2,0,0.4,0.1,0.7
		c0,0.2,0.1,0.4,0.2,0.4c0,0,0.1-0.1,0.2-0.2c0.3-0.3,0.6-0.5,1.1-0.7c0.4-0.2,0.8-0.3,1.2-0.3c0.4,0,0.6,0.2,0.9,0.5
		c0.2,0.3,0.3,0.6,0.3,1c0,0.5-0.2,1-0.5,1.6c0,0,0.1,0.1,0.2,0.3s0.2,0.3,0.2,0.5c0,0.1-0.1,0.2-0.2,0.4c-0.1,0.1-0.3,0.3-0.5,0.4
		c-0.1,0-0.2,0.1-0.3,0.2c-0.1,0.1-0.2,0.2-0.2,0.2l0.1,0.1h0.3c0.2,0,0.3,0,0.4,0.1c0.1,0.1,0.1,0.2,0.1,0.4c0,0.3-0.1,0.6-0.3,1
		c-0.2,0.3-0.4,0.7-0.8,1.1c-0.3,0.4-0.4,0.6-0.4,0.6l0.1,0h0c0.1-0.1,0.4-0.3,1-0.7c0.5-0.4,0.8-0.6,0.8-0.7c0-0.1,0.1-0.3,0.1-0.6
		c0-0.1,0-0.3,0-0.7c0-0.4,0.1-0.7,0.2-0.9c0.2-0.2,0.4-0.4,0.7-0.4c0.3,0,0.4,0.1,0.6,0.3s0.2,0.5,0.2,0.7c0,0.1,0,0.2-0.1,0.4
		s-0.1,0.3-0.1,0.4c0,0.1,0.1,0.2,0.3,0.3s0.4,0.1,0.5,0.2s0.2,0.2,0.2,0.4c0,0.2-0.1,0.4-0.2,0.5s-0.3,0.2-0.5,0.3
		c-0.2,0.1-0.4,0.2-0.5,0.3c-0.1,0.1-0.2,0.2-0.2,0.4c0,0.1,0.1,0.3,0.3,0.5c0.2,0.2,0.3,0.4,0.4,0.5c0,0-0.1,0.2-0.3,0.5
		s-0.3,0.7-0.3,1.1c0,0.3,0.1,0.6,0.3,0.9s0.3,0.5,0.3,0.6c0,0.2-0.1,0.5-0.4,0.7c-0.2,0.2-0.3,0.4-0.4,0.6s-0.1,0.4-0.1,0.8v0.2
		c0.2,0,0.4,0,0.7,0c0.1,0,0.3,0,0.5,0s0.4,0,0.6,0c0.5,0,0.8,0.1,1,0.2c0,0.1,0.1,0.3,0.1,0.5c0,0.2-0.1,0.3-0.2,0.4
		c-0.3,0.3-2.2,0.4-5.5,0.4c0,0.1-0.1,0.4-0.2,0.8c-0.1,0.4-0.2,0.8-0.4,1s-0.4,0.4-0.6,0.4c-0.6,0-1-0.5-1-1.5c0-0.5,0.1-1,0.2-1.6
		s0.2-0.9,0.2-1c0.3-1.1,0.4-1.9,0.4-2.6c0-0.2,0-0.4,0.1-0.6c0.1-0.3,0.2-0.5,0.2-0.6c0-0.1,0.1-0.4,0.1-0.8s0.1-0.8,0.1-1.1
		c-0.2,0.1-0.5,0.1-0.7,0.1c-0.3,0-0.5-0.1-0.6-0.2l0-0.2c0-0.2,0.2-0.4,0.5-0.9c0.3-0.4,0.6-0.9,1-1.3c0.6-0.7,0.9-1.1,1-1.3
		c-0.1,0-0.4,0.1-0.8,0.2c-0.4,0.2-0.8,0.3-1.1,0.3c0,0-0.1,0-0.2,0c-0.1,0-0.2,0-0.2,0.1s-0.1,0.2-0.2,0.6
		c-0.1,0.3-0.1,0.6-0.1,0.7c0,0.1,0,0.1,0,0.2c0,0,0,0.1,0,0.2c0,0,0,0.1-0.1,0.3c-0.1,0.3-0.3,1.1-0.5,2.4
		c-0.2,1.1-0.4,1.9-0.5,2.6c-0.2,0.6-0.3,1-0.5,1.2l-0.2,0c-0.2,0-0.3,0-0.4-0.1c0-0.3-0.1-0.5-0.1-0.7c0-1.3,0.1-2.7,0.3-4
		c0.2-1.3,0.5-3,0.9-4.9c0-0.2,0.1-0.5,0.2-1c0.3-0.8,0.4-1.5,0.4-2.1l0,0c-0.1,0.1-0.2,0.4-0.2,0.7l0.1-0.6c0.1-0.4,0.2-0.8,0.2-1
		c0-0.1-0.1-0.2-0.2-0.3c-0.2-0.1-0.2-0.3-0.2-0.5C99.1,3.2,99.3,3,99.6,2.8z M101.5,7.8c0.4-0.2,0.7-0.5,0.9-0.8s0.4-0.6,0.4-0.8
		c0-0.2-0.1-0.3-0.2-0.3c-0.3,0-0.7,0.1-1.1,0.4c-0.4,0.3-0.6,0.6-0.7,0.9c-0.1,0.2-0.1,0.4-0.2,0.6c-0.1,0.1-0.1,0.2-0.1,0.3
		l0.1,0.1C100.8,8.2,101.1,8.1,101.5,7.8z M103.4,19.6c0.2-0.1,0.3-0.2,0.3-0.4c0-0.1,0-0.1,0-0.2s-0.1-0.1-0.1-0.1
		c0,0-0.1,0-0.2,0.1c0,0-0.1,0.1-0.3,0.1c-0.2,0-0.3,0.1-0.4,0.1s-0.2,0.1-0.2,0.2c0,0.2,0.1,0.2,0.3,0.2
		C103,19.7,103.2,19.6,103.4,19.6z M103.1,12.9c-0.1-0.1-0.2-0.1-0.3-0.1s-0.1,0.1-0.1,0.2s0,0.3,0.1,0.6c0,0.3,0.1,0.4,0.1,0.6
		c0,0.4,0,0.6,0.1,0.6h0c0-0.1,0.2-0.2,0.5-0.2s0.5-0.1,0.6-0.1c0.3-0.1,0.5-0.3,0.6-0.6s0.1-0.6,0.2-1c-0.2,0-0.3,0-0.4,0
		c-0.1,0-0.2,0-0.3,0.1c-0.3,0.1-0.5,0.1-0.7,0.1C103.3,13,103.2,12.9,103.1,12.9z M102.9,15.1c-0.1,0.1-0.1,0.3-0.1,0.6v0.6
		c0,0.4,0,0.7,0.1,0.8l0.1,0c0.1,0,0.2,0,0.3-0.1s0.2-0.1,0.2-0.1c0.4-0.2,0.6-0.4,0.6-0.5c0.1-0.1,0.1-0.3,0.1-0.5
		c0-0.2,0-0.4,0.1-0.5C103.7,15.5,103.2,15.4,102.9,15.1z M109.5,2.7c0.4-0.2,0.9-0.3,1.5-0.4s1-0.2,1.2-0.2c1.1,0,1.6,0.2,1.6,0.6
		c0,0.3-0.1,0.5-0.4,0.6s-0.7,0.2-1.1,0.3c-0.5,0.1-0.8,0.2-0.9,0.3c-0.1,0.2-0.1,0.4-0.2,0.7c0,0.3-0.1,0.6-0.1,0.8
		c0,0.6,0.1,0.8,0.3,0.8c0.1,0,0.3-0.1,0.7-0.3s0.7-0.3,1-0.3c0.3,0,0.5,0.1,0.8,0.2s0.5,0.3,0.6,0.5c0.2,0.3,0.3,0.8,0.4,1.7
		C115,9,115,9.8,115,10.6c0,0.7,0,1.3,0,1.8s-0.1,1-0.2,1.5l0,0.1c0,0.1,0,0.3,0.1,0.5s0.2,0.3,0.2,0.4c0,0.1-0.2,0.4-0.6,1
		c-0.5,0.9-0.7,1.4-0.8,1.6c0.5,0.3,1.3,0.8,2.4,1.5s2.1,1.5,2.9,2.3s1.3,1.3,1.3,1.7c0,0.2-0.1,0.3-0.2,0.4s-0.3,0.2-0.4,0.2
		c-0.2,0-0.5-0.2-1-0.6c-0.5-0.4-1.2-1-2.2-1.9c-0.9-0.8-1.6-1.4-2.2-1.8c-0.5-0.4-0.9-0.6-1.1-0.6c-0.1,0-0.2,0.1-0.4,0.4
		c-0.2,0.3-0.4,0.6-0.6,0.9c-0.4,0.6-0.7,1.1-1,1.4c-0.2,0.3-0.5,0.5-0.7,0.5c-0.2,0-0.4-0.1-0.5-0.2s-0.2-0.3-0.2-0.5
		c0-0.3,0.2-0.7,0.5-1.2s0.7-1.1,1.3-1.8c0.6-0.9,1-1.4,1-1.5c0-0.1,0-0.1-0.1-0.2s-0.1-0.1-0.2-0.1c-0.3,0-0.6,0.1-1.1,0.3
		c-0.5,0.2-0.8,0.3-1.1,0.3c-0.2,0-0.4-0.1-0.7-0.3s-0.4-0.4-0.4-0.5c0-0.1,0-0.3,0.1-0.4c0.2-0.4,0.3-1.1,0.4-2.2s0.2-1.9,0.2-2.5
		c0-0.2,0-0.3-0.1-0.5s-0.1-0.3-0.1-0.4c-0.1-0.4-0.2-0.7-0.2-0.9c0-0.1,0-0.2,0-0.2c0.1-0.1,0.2-0.4,0.3-0.8s0.2-1,0.3-1.7
		c0.2-0.8,0.3-1.3,0.3-1.5c0,0,0.1-0.1,0.1-0.3s0.1-0.3,0.1-0.4S110.6,4,110.5,4c-0.1,0-0.3,0-0.5,0c-0.4,0-0.6-0.1-0.8-0.1
		s-0.3-0.2-0.3-0.5S109.1,2.9,109.5,2.7z M112.3,14.8c0.2-0.2,0.3-0.5,0.3-1c0-0.3,0-0.5-0.1-0.7s-0.3-0.2-0.5-0.2
		c-0.2,0-0.4,0-0.5,0.1c-0.1,0-0.1,0.3-0.2,0.8c-0.1,0.5-0.2,0.8-0.2,1c0,0.2,0.1,0.3,0.3,0.3C111.8,15.1,112.1,15,112.3,14.8z
		 M112.4,8.1c-0.1,0-0.3,0.1-0.6,0.4s-0.4,0.4-0.4,0.5s0.1,0.2,0.2,0.3s0.2,0.2,0.4,0.2c0.2,0,0.4-0.1,0.5-0.2s0.2-0.3,0.2-0.5
		C112.6,8.4,112.5,8.1,112.4,8.1z M112.5,11c0-0.1-0.1-0.2-0.2-0.2c-0.1,0-0.3,0.1-0.5,0.2c-0.2,0.2-0.3,0.3-0.3,0.5
		c0,0.1,0.1,0.2,0.2,0.3c0.1,0.1,0.2,0.1,0.3,0.1c0.2,0,0.3-0.1,0.4-0.2c0.1-0.2,0.2-0.3,0.2-0.5C112.6,11.3,112.6,11.2,112.5,11z"
		/>
	<path d="M124.8,5.7c0.2-0.1,0.4-0.2,0.6-0.2c0.3,0,0.7-0.1,1.4-0.2c0.6-0.1,1.1-0.2,1.3-0.4c0.2-0.1,0.3-0.3,0.4-0.5
		c0.1-0.2,0.2-0.6,0.3-1c0.1-0.5,0.3-0.9,0.4-1.1s0.3-0.3,0.5-0.3s0.3,0.1,0.3,0.2c0,0.3,0,0.6,0,0.7l0,0.8c0,0.2,0,0.4,0,0.5
		c0.8-0.1,1.4-0.1,1.6-0.1c0.7,0,1.2,0.1,1.5,0.3c0,0.5-0.2,0.8-0.5,1c-0.4,0.2-0.9,0.4-1.5,0.7c-0.1,0-0.2,0.1-0.3,0.1
		s-0.2,0.1-0.4,0.1c-0.2,0.1-0.4,0.2-0.5,0.4c-0.1,0.2-0.1,0.4-0.1,0.7c0,0.3-0.1,0.5-0.1,0.7c0,0-0.1,0.1-0.1,0.2
		c0,0.1-0.1,0.2-0.1,0.3l0.1,0c0.3,0,0.6-0.1,1-0.4s0.7-0.7,1.2-1.2c0.5-0.5,0.9-1,1.2-1.2s0.6-0.4,0.9-0.4c0.1,0,0.2,0,0.3,0.1
		l0.1,0.2c0,0.1-0.1,0.3-0.2,0.5s-0.3,0.4-0.5,0.5c0,0-0.2,0.2-0.4,0.4s-0.3,0.5-0.3,0.6l0.1,0.1c0.1,0,0.3,0,0.4-0.1
		c0.2,0,0.3-0.1,0.4-0.1c0.2,0,0.4,0.1,0.6,0.2s0.3,0.3,0.3,0.5c0,0.2-0.2,0.4-0.7,0.6c-0.5,0.2-1.1,0.5-1.9,0.9
		c-0.4,0.2-0.6,0.3-0.8,0.4c-0.2,0.1-1,1-2.5,2.6s-2.4,2.7-2.8,3.1c-0.1,0.1-0.9,1.2-2.5,3.1c-1.6,2-2.7,2.9-3.3,2.9
		c-0.2,0-0.4,0-0.5-0.1s-0.1-0.2-0.1-0.4c0-0.4,0.1-0.9,0.4-1.3s0.6-0.8,1-1.3c0,0,0.2-0.2,0.5-0.6c0.6-0.6,1.2-1.3,1.8-2
		s1.2-1.2,1.8-1.7c0.2-0.2,0.8-0.8,1.7-1.8s1.4-1.7,1.5-1.8l-0.1-0.1l-0.7,0c-0.3,0-0.6,0.1-0.7,0.1c-0.5,0-0.9,0-1.2-0.1
		s-0.5-0.3-0.5-0.7c0-0.3,0.1-0.5,0.3-0.6s0.5-0.2,0.9-0.2c0.4-0.1,0.8-0.1,1.1-0.2c0.3-0.1,0.5-0.3,0.7-0.6s0.3-0.8,0.3-1.5
		c0-0.2-0.1-0.3-0.3-0.3l-1,0c-0.4,0-0.8,0.1-1,0.1c-0.4,0-0.8,0-1-0.1c-0.3-0.1-0.4-0.3-0.4-0.6C124.6,6,124.7,5.9,124.8,5.7z
		 M131.3,14.5c0.4-0.2,0.7-0.3,1-0.4s0.5-0.1,0.8-0.1c1.2,0,1.8,1.8,1.8,5.5c0,2.9-0.4,4.3-1.2,4.3c-0.1,0-0.3-0.1-0.4-0.2
		c-0.1-0.1-0.2-0.2-0.2-0.3c-0.2,0-0.5,0-1,0.1s-0.8,0.1-1,0.1h0.1c-0.2,0-0.3,0-0.6,0.1s-0.5,0-0.8,0c-0.9,0-1.3-0.6-1.3-1.7
		c0-0.7,0-1.6,0.1-2.5l0.5-4.5c0-0.2,0.1-0.3,0.2-0.4s0.3-0.2,0.4-0.2c0.1,0,0.4,0.2,0.8,0.6C130.8,14.8,131,14.6,131.3,14.5z
		 M133.2,19.8c0-0.4-0.1-0.5-0.4-0.5c-0.4,0-1,0.1-1.6,0.3s-0.9,0.4-0.9,0.8c0,0.4,0,0.7,0.1,0.9s0.3,0.3,0.7,0.3
		c0.6,0,1.3-0.1,1.9-0.2C133.2,20.9,133.2,20.4,133.2,19.8z M132.9,16.3c-0.1-0.3-0.2-0.4-0.4-0.4c-0.3,0-0.6,0.1-1.1,0.3
		s-0.7,0.4-0.8,0.6c-0.1,0.1-0.1,0.4-0.1,0.7c0,0.3,0,0.5,0.1,0.6l0.1,0.1c0.4,0,0.8-0.1,1.4-0.3s0.9-0.4,0.9-0.7
		C133,16.9,133,16.6,132.9,16.3z"/>
	<path d="M175.5,6.3c0.6-0.2,1-0.3,1.1-0.3l0.9-0.2c1.1-0.3,2-0.5,2.7-0.7s1.5-0.2,2.2-0.2c0.8,0,1.5,0.2,2.1,0.5
		c0.6,0.3,0.9,0.8,0.9,1.6c0,0.4-0.1,0.7-0.2,1.1s-0.4,0.5-0.7,0.5c-0.2,0-0.3-0.1-0.4-0.2c-0.1-0.1-0.2-0.3-0.2-0.4
		c0-0.6-0.1-1-0.3-1.1s-0.5-0.2-0.8-0.2c-0.4,0-0.6,0-0.8,0c-0.5,0-0.9,0-1.1,0.1c-1.2,0.3-2.9,0.7-5,1.2c-1.2,0.3-2.1,0.5-2.5,0.6
		c-0.1,0.1-0.2,0.3-0.3,0.6S173,9.6,173,9.7c-0.3,1.1-0.7,1.9-1.1,2.6s-0.9,1-1.6,1c-0.2,0-0.4-0.1-0.5-0.3s-0.3-0.4-0.3-0.6
		c0-0.3,0.1-0.6,0.3-1s0.5-0.8,0.8-1.4c0-0.1,0.2-0.3,0.4-0.6c0.2-0.4,0.3-0.6,0.3-0.8c0-0.1,0-0.2-0.1-0.3s-0.1-0.2-0.1-0.3
		c0-0.1,0.2-0.4,0.6-0.7c0.4-0.4,0.6-0.7,0.6-0.7c0-0.1,0.1-0.1,0.1-0.2c0-0.1,0.1-0.2,0.2-0.2s0.2-0.1,0.4-0.1
		c0.1,0,0.3,0.1,0.5,0.3c0.2,0.2,0.3,0.3,0.5,0.3C174.5,6.6,174.9,6.5,175.5,6.3z M175.4,13c0.2-0.3,0.5-0.7,0.9-1.3
		c0.3-0.5,0.5-0.9,0.7-1.2s0.4-0.4,0.6-0.4c0.2,0,0.4,0.1,0.5,0.2c0.1,0.1,0.2,0.3,0.2,0.5c0,0.3-0.1,0.7-0.3,1.1
		c-0.2,0.4-0.3,0.8-0.3,1c0.7-0.1,1.2-0.2,1.5-0.4c0.2-0.1,0.4-0.3,0.8-0.6c0.4-0.4,0.7-0.6,0.9-0.6c0.5,0,0.7,0.2,0.7,0.5
		c0,0,0,0.1,0,0.1c0,0.1,0,0.1,0,0.1s0.1,0,0.1,0c0.3,0,0.8,0,1.6-0.1c0.7-0.1,1.2-0.1,1.5-0.1c0.4,0,1,0,1.7,0.1
		c0.7,0,1.1,0.1,1.2,0.2c0.1,0.2,0.2,0.4,0.2,0.7c0,0.1,0,0.3-0.1,0.5c-0.1,0.2-0.2,0.3-0.2,0.3c-0.8,0.3-2.4,0.6-4.8,0.7
		c-0.6,0-1.1,0.1-1.4,0.2c-0.4,0.1-0.6,0.4-0.9,0.7c-0.1,0.2-0.4,0.9-0.9,2.2s-0.7,1.9-0.7,2c0,0.2,0.1,0.5,0.3,0.8
		c0.2,0.3,0.6,0.8,1.1,1.5c0.4,0.5,0.7,0.9,0.9,1.2s0.3,0.5,0.3,0.7c0,0.2-0.1,0.3-0.4,0.3c-0.2,0-0.5-0.1-0.8-0.4s-0.8-0.6-1.4-1.2
		c-0.7-0.6-1.2-1-1.4-1.1l-1,0.8c-1.8,1.6-2.9,2.5-3.3,2.5c-0.2,0-0.3,0-0.4-0.1s-0.2-0.2-0.2-0.4c0-0.2,0.2-0.5,0.5-1
		c0.4-0.4,0.9-1,1.5-1.7c0.4-0.4,0.7-0.8,1.1-1.2s0.5-0.6,0.5-0.7c0-0.1-0.1-0.3-0.2-0.5s-0.2-0.4-0.3-0.5c-0.5-0.8-0.8-1.7-1-2.5
		c0-0.2-0.1-0.3-0.1-0.4c0-0.1-0.1-0.1-0.3-0.1c-0.1,0-0.2,0-0.3,0.1c-0.4,0.1-0.9,0.2-1.4,0.2s-1.1,0-1.8,0c-0.3,0-0.5-0.1-0.7-0.2
		s-0.2-0.3-0.2-0.6c0-0.3,0-0.5,0.1-0.6c0,0,0,0,0.1,0c0.5-0.2,1.2-0.3,2.1-0.4c0.1,0,0.4-0.1,0.8-0.1s0.8-0.1,1.1-0.2
		s0.6-0.2,0.8-0.3C175,13.5,175.2,13.3,175.4,13z M176.4,2c0.3-0.2,0.6-0.2,1-0.2c0.4,0,0.8,0,1.2,0.1s0.6,0.2,0.9,0.4
		c0.1,0.1,0.2,0.2,0.3,0.3s0.1,0.2,0.1,0.4c0,0.2-0.2,0.5-0.5,0.9c-0.3,0-0.5,0.1-0.6,0.1c-1.9,0-2.8-0.4-2.8-1.1
		C176,2.4,176.2,2.1,176.4,2z M178.9,15.1c-0.2,0-0.3-0.1-0.4-0.1c-0.3,0-0.7,0-1.1,0.1s-0.7,0.1-0.8,0.3l-0.1,0.2
		c0,0.3,0.1,0.7,0.4,1.1s0.5,0.8,0.8,1.1c0.2-0.2,0.4-0.6,0.8-1.2c0.3-0.7,0.5-1.1,0.5-1.3L178.9,15.1z"/>
	<path d="M191.3,6.4c0-0.4,0.1-0.9,0.4-1.3s0.5-0.8,0.9-1.2c0.3-0.3,0.6-0.4,0.9-0.5s0.8-0.2,1.3-0.3c0.7-0.1,1.3-0.3,1.6-0.4
		l0.1-0.1c0-0.1-0.1-0.2-0.3-0.2s-0.4-0.2-0.5-0.2s-0.2-0.2-0.2-0.4c0-0.4,0.1-0.7,0.2-0.9s0.4-0.3,0.9-0.5s0.9-0.2,1.2-0.2
		c0.4,0,0.7,0.1,1,0.2c0.3,0.1,0.5,0.4,0.5,0.7c0,0.4-0.1,0.6-0.4,0.7c-0.2,0.1-0.6,0.2-1.1,0.3c-0.3,0-0.4,0.1-0.6,0.1
		s-0.2,0.1-0.2,0.2c0.1,0.1,0.2,0.1,0.3,0.1c0.3,0,0.6,0,1-0.1c0.3-0.1,0.7-0.2,1-0.2c0.1,0,0.4-0.1,0.8-0.2s0.8-0.1,1.2-0.1
		c1,0,1.7,0.2,2.1,0.5s0.7,1,0.7,1.9c0,0.8-0.1,1.2-0.3,1.2c-0.4,0-0.7-0.1-0.9-0.2s-0.5-0.4-0.8-0.7c-0.2-0.1-0.3-0.3-0.4-0.4
		s-0.3-0.2-0.4-0.2c-0.3,0-0.7,0-1.1,0.1l-0.8,0.1c-1.1,0.1-1.9,0.2-2.7,0.4s-1.5,0.3-2.2,0.7s-1.2,0.8-1.4,1.3
		c-0.1,0.4-0.2,0.7-0.4,0.8s-0.4,0.3-0.7,0.3C191.5,7.6,191.3,7.2,191.3,6.4z M195.9,12.5c-0.4,0.2-0.9,0.3-1.4,0.4
		c-0.5,0.1-0.9,0.1-1.2,0.1c-0.5,0-0.7-0.1-0.7-0.4c0-0.2,0.1-0.3,0.3-0.5s0.3-0.3,0.3-0.4c0,0-0.1-0.1-0.4-0.3s-0.4-0.4-0.4-0.6
		c0-0.2,0-0.3,0.1-0.4s0.3-0.2,0.5-0.3c0.4-0.1,0.6-0.3,0.9-0.5s0.4-0.6,0.4-1.1c-0.1,0-0.2,0-0.4,0s-0.3,0-0.5,0
		c-0.6,0-0.9-0.2-0.9-0.5c0-0.3,0.2-0.6,0.7-0.8s1-0.4,1.6-0.6s1.1-0.2,1.3-0.2c0.3,0,0.5,0,0.7,0.1s0.3,0.2,0.3,0.4
		c0,0.4-0.1,0.7-0.2,0.8s-0.3,0.2-0.6,0.3c-0.2,0.1-0.4,0.1-0.5,0.2c-0.1,0.1-0.2,0.3-0.3,0.6c-0.1,0.3-0.1,0.5-0.2,0.6l0.1,0l0.4,0
		c0.3,0,0.4,0.1,0.4,0.4c0,0.1-0.1,0.3-0.3,0.5s-0.3,0.4-0.3,0.5c0,0.1,0.1,0.1,0.2,0.1s0.3,0.1,0.4,0.2s0.1,0.3,0.1,0.5
		C196.6,12.1,196.3,12.3,195.9,12.5z M203.9,25.3c-0.6-0.4-1.4-0.9-2.4-1.5c-0.7-0.5-1.2-0.8-1.6-1.1s-0.6-0.4-0.8-0.4
		c-0.1,0-0.3,0.1-0.5,0.3s-0.5,0.6-0.9,1.1c-0.5,0.7-0.9,1.2-1.2,1.5s-0.5,0.5-0.8,0.5c-0.2,0-0.4-0.1-0.5-0.2s-0.2-0.3-0.2-0.5
		c0-0.3,0.2-0.6,0.5-1.2s0.7-1,1-1.3c-0.4-0.2-0.7-0.4-0.9-0.8s-0.3-0.7-0.3-1.1s0-0.9,0-1.5c0-3.1,0.2-4.8,0.6-5.1
		c0.1-0.1,0.3-0.2,0.5-0.2c0.2,0,0.4,0.1,0.5,0.2s0.2,0.3,0.2,0.5c0.1,0.2,0.2,0.4,0.2,0.4s0.2,0,0.4,0s0.2,0,0.3,0
		c0.2-0.1,0.4-0.1,0.6-0.1c0.6,0,1,0.2,1.3,0.7c0.2,0.5,0.4,1,0.4,1.7c0,0.4,0,0.7,0,1s0,0.5-0.1,0.7c-0.1,0.7-0.1,1.3-0.1,1.7
		c0,0.3,0,0.6,0.1,0.7c0.3,0.2,0.7,0.4,1.4,0.6c0.4,0.2,1,0.5,1.7,0.8c0.7,0.4,1.3,0.8,1.8,1.3c0.5,0.5,0.8,0.9,0.8,1.3
		c0,0.2-0.1,0.3-0.2,0.4s-0.3,0.1-0.6,0.1C205,25.8,204.5,25.6,203.9,25.3z M198.2,16.9c0.3-0.1,0.5-0.1,0.6-0.2
		c0-0.1-0.1-0.3-0.2-0.4s-0.3-0.1-0.5-0.1c-0.5,0-0.9,0.1-0.9,0.3v0.1c0,0.2,0.1,0.4,0.3,0.4C197.7,17,197.9,17,198.2,16.9z
		 M197.6,19.1c0.2,0,0.4-0.1,0.8-0.3c0.4-0.2,0.5-0.4,0.5-0.5c0-0.3-0.1-0.5-0.3-0.5c-0.2,0-0.6,0.1-1.1,0.3
		c-0.1,0.2-0.1,0.4-0.1,0.6C197.4,19,197.5,19.1,197.6,19.1z M198.5,20.6c0.3-0.2,0.5-0.5,0.5-0.8c0-0.1,0-0.1-0.1-0.1
		s-0.2,0-0.4,0.1s-0.2,0.1-0.3,0.1c-0.3,0.1-0.5,0.2-0.6,0.3s-0.1,0.3-0.1,0.6v0.2C197.8,20.9,198.2,20.8,198.5,20.6z M200.9,12.7
		c-0.8,0.1-1.3,0.3-1.7,0.5c-0.1,0-0.1,0.1-0.2,0.2s-0.2,0.1-0.3,0.1c-0.3,0-0.4-0.3-0.4-1c0-0.5,0-1,0.1-1.3s0.2-0.5,0.6-0.5
		c0.2,0,0.3,0.1,0.5,0.3s0.3,0.4,0.4,0.6c0.3,0,0.5-0.1,0.7-0.2c0.2-0.1,0.3-0.3,0.3-0.5c0-0.3-0.1-0.7-0.3-1.1
		c-0.1,0-0.2,0.1-0.4,0.2s-0.3,0.1-0.4,0.1c-0.2,0-0.3,0-0.4-0.1s-0.2-0.2-0.2-0.4c0-0.1,0.1-0.3,0.3-0.4c0.2-0.2,0.4-0.3,0.7-0.5
		s0.4-0.3,0.4-0.3c0-0.1,0.1-0.2,0.1-0.4s0.1-0.3,0.2-0.4l0.3-0.1c0.1,0,0.2,0.1,0.3,0.2c0.1,0.1,0.2,0.2,0.2,0.2
		c0.1,0.1,0.2,0.1,0.5,0.1s0.4,0.1,0.4,0.1s0.1,0.2,0.1,0.5c0,0.1-0.1,0.2-0.3,0.3c-0.2,0.1-0.4,0.2-0.4,0.3c-0.1,0.1-0.1,0.4-0.1,1
		s-0.1,0.9-0.1,1c0.1,0.1,0.3,0.1,0.4,0.1c0.4,0,0.6-0.1,0.8-0.3s0.2-0.4,0.2-0.7c0-0.2,0.1-0.3,0.1-0.4c0-0.1,0.1-0.1,0.3-0.1
		c0.2,0,0.4,0.2,0.5,0.7s0.1,0.9,0.1,1.2c0,0.3,0,0.5-0.1,0.7s-0.2,0.3-0.5,0.3s-0.5-0.1-0.8-0.4C202.3,12.5,201.7,12.5,200.9,12.7z
		 M198.7,8.6c0-0.1-0.1-0.3-0.1-0.5c0-0.5,0.1-1,0.2-1.6c0.1-0.5,0.4-0.8,0.7-0.8c0.3,0,0.5,0.1,0.6,0.2c0.3-0.2,0.5-0.4,0.7-0.4
		s0.5-0.1,0.8-0.1c0.3,0,0.6,0.1,0.7,0.2s0.2,0.3,0.2,0.6c0,0.3-0.1,0.4-0.2,0.5c-0.2,0.1-0.4,0.1-0.7,0.1c-0.2,0-0.5,0.1-0.8,0.2
		s-0.5,0.2-0.6,0.2c-0.2,0.4-0.4,0.8-0.6,1s-0.4,0.4-0.6,0.4S198.7,8.7,198.7,8.6z"/>
	<path d="M212.9,5c0.3-0.6,0.7-1.1,1.1-1.6s0.9-0.6,1.4-0.6c0.7,0,1,0.3,1,1c0,0.2-0.1,0.4-0.2,0.5c-0.1,0.1-0.3,0.3-0.5,0.5
		s-0.4,0.3-0.5,0.5c-0.1,0.1-0.2,0.3-0.2,0.5c0,0.2,0.1,0.4,0.3,0.4c0.4,0,0.7-0.2,1.1-0.5s0.6-0.7,0.6-1c0-0.1-0.1-0.2-0.2-0.3
		s-0.2-0.2-0.2-0.3c0-0.3,0.3-0.5,0.9-0.6s1.2-0.1,1.7-0.1c1.3,0,2,0.3,2,0.8c0,0.4-0.4,0.6-1.1,0.6l-0.8,0
		c-0.2,0.3-0.5,0.7-0.8,1.2s-0.5,0.8-0.5,0.9c0,0.1,0.1,0.1,0.2,0.2s0.2,0.1,0.3,0.1l9.8,5.1c0.2,0.1,0.3,0.3,0.3,0.6
		c0,0.2-0.1,0.4-0.2,0.5c-0.2,0.1-0.4,0.2-0.6,0.2c-0.4,0-1.1-0.3-2.2-0.8s-2.6-1.4-4.5-2.5l-1.5-0.9c-0.5-0.3-1-0.5-1.6-0.7
		s-0.9-0.3-1.1-0.3l-0.3,0.4l0.1-0.1c-0.2,0.2-0.5,0.5-0.9,0.9c-0.3,0.4-0.7,0.9-1,1.3c-0.9,1.2-1.6,2.1-2.2,2.7
		c-0.6,0.6-1.1,0.9-1.7,0.9c-0.1,0-0.2,0-0.4-0.1s-0.2-0.2-0.2-0.3s0.2-0.4,0.5-0.9s0.7-1,1.2-1.5c0.9-1.1,1.6-2,2.1-2.7
		s0.7-1.2,0.7-1.5c0-0.1-0.1-0.3-0.2-0.4c-0.1-0.1-0.2-0.2-0.2-0.3c-0.3,0.3-0.5,0.5-0.7,0.6s-0.4,0.2-0.7,0.2c-0.6,0-0.8-0.3-0.8-1
		C212.4,6.2,212.6,5.6,212.9,5z M213.7,16.1c0-0.6,0-1.1,0.1-1.5s0.3-0.8,0.6-1.1c0.5-0.5,1.2-0.9,2.2-1.3s1.9-0.5,2.7-0.5
		c0.4,0,0.8,0.2,1.1,0.5s0.4,0.8,0.4,1.2c0,0.5-0.3,1.1-0.8,1.7c-0.5,0.6-1.1,1.1-1.9,1.5s-1.3,0.6-1.8,0.6c-0.1,0-0.2,0-0.4-0.1
		s-0.3-0.1-0.4-0.1c-0.2,0-0.2,0.3-0.2,0.9c0,0.6,0.1,1.1,0.2,1.4s0.3,0.5,0.6,0.7c0.3,0.1,0.8,0.2,1.4,0.2c0.5,0,1.3-0.1,2.3-0.2
		s1.9-0.3,2.7-0.5s1.4-0.5,1.6-0.9c0.1-0.2,0.2-0.4,0.2-0.7s0.1-0.5,0.1-0.6c0.1-0.7,0.2-1.2,0.3-1.6s0.4-0.6,0.8-0.6
		c0.6,0,1,0.9,1,2.8l0,1.1c0,0.7-0.1,1.1-0.3,1.4c-0.2,0.3-0.8,0.6-1.9,1.1s-1.9,0.7-2.3,0.7c-0.2,0-0.5,0-0.9,0
		c-2,0-3.7-0.2-5.2-0.7c-0.9-0.3-1.5-0.8-1.8-1.6c-0.3-0.8-0.4-1.8-0.4-3V16.1z M216.5,15.7c0.1-0.3,0.2-0.8,0.2-1.3
		c0-0.2,0-0.3-0.1-0.5s-0.1-0.2-0.3-0.2c-0.4,0-0.6,0.1-0.7,0.3c-0.1,0.2-0.2,0.5-0.2,0.8c0,0.2,0,0.5,0,0.8s0.1,0.5,0.1,0.6
		C216.1,16.2,216.4,16,216.5,15.7z M219.1,14.4c0.1-0.2,0.2-0.4,0.2-0.5c0-0.3-0.1-0.4-0.4-0.4c-0.4,0-0.5,0.3-0.5,0.8
		c0,0.1,0,0.2,0.1,0.3s0.1,0.2,0.3,0.2C218.8,14.7,219,14.6,219.1,14.4z"/>
</g>
</svg>
