<?xml version="1.0" encoding="utf-8"?>
<!-- Generator: Adobe Illustrator 25.2.1, SVG Export Plug-In . SVG Version: 6.00 Build 0)  -->
<svg version="1.1" id="圖層_1" xmlns="http://www.w3.org/2000/svg" xmlns:xlink="http://www.w3.org/1999/xlink" x="0px" y="0px"
	 viewBox="0 0 277.8 26.1" style="enable-background:new 0 0 277.8 26.1;" xml:space="preserve">
<style type="text/css">
	.st0{enable-background:new    ;}
</style>
<g class="st0">
	<path d="M0.3,18.2c0.2-0.9,0.5-1.8,0.8-2.5c0.3-0.8,0.7-1.1,1.1-1.1c0.4,0,0.6,0.1,0.6,0.4c0,0.2,0,0.4-0.1,0.6s-0.2,0.4-0.2,0.5
		c-0.1,0.3-0.2,0.8-0.3,1.6C2,19,1.8,20,1.7,20.7s-0.5,1.1-0.8,1.1c-0.3,0-0.5-0.2-0.6-0.5S0,20.6,0,20.3C0,19.9,0.1,19.2,0.3,18.2z
		 M2.3,5.5c0.1-1.6,0.3-2.7,0.5-3.3c0.2-0.4,0.5-0.7,0.9-0.7c0.3,0,0.4,0.1,0.6,0.2S4.5,2,4.6,2.2C4.7,2.4,4.8,2.5,5,2.5
		c0.1,0,0.3-0.1,0.6-0.2s0.5-0.2,0.6-0.3C6.5,2,7,1.9,7.6,1.7s1.2-0.2,1.5-0.2c0.8,0,1.4,0.3,1.8,0.8c0.4,0.5,0.6,1.2,0.6,2
		c0,1.6-0.5,3.1-1.5,4.6C10,9.1,10,9.2,10,9.3c0,0,0.1,0.1,0.2,0.3c0.1,0.1,0.2,0.3,0.2,0.4c0,0.3-0.4,0.6-1.1,1
		c-0.7,0.3-1.5,0.6-2.4,0.8s-1.5,0.4-1.9,0.4c-0.2,0-0.4,0-0.4-0.1c-0.1-0.1-0.1-0.2-0.1-0.4c0-0.2,0.1-0.4,0.2-0.5
		c0.1-0.1,0.4-0.2,0.6-0.4c0.4-0.1,0.6-0.3,0.7-0.4C6,10.2,6.1,10,6.1,9.8c0.1-0.2,0.1-0.3,0.1-0.4c0.1-0.4,0.2-0.8,0.2-1
		c0-0.1,0-0.2-0.1-0.3c-0.2,0-0.6,0.2-1,0.4C4.9,8.8,4.6,9,4.6,9.2v0.2c0,0.2,0,0.4-0.1,0.5s-0.2,0.2-0.4,0.2
		c-0.1,0.1-0.2,0.2-0.3,0.4s-0.2,0.3-0.3,0.4s-0.3,0.1-0.7,0.1c-0.3,0-0.5-0.2-0.6-0.5S2.1,10,2.1,9.5C2.1,8.4,2.2,7.1,2.3,5.5z
		 M4.1,14.7c0.2,0,0.4,0.1,0.6,0.2c0.2,0.1,0.4,0.4,0.8,0.7c0.5,0.5,0.9,0.9,1.3,1.1c0.4,0.3,0.9,0.4,1.4,0.4c0.5,0,1-0.1,1.4-0.3
		c0.4-0.2,0.8-0.4,1.3-0.7c0,0,0.1-0.1,0.3-0.2s0.3-0.2,0.4-0.2c0.2,0,0.4,0.1,0.6,0.3c0.2,0.2,0.3,0.4,0.3,0.6
		c0,0.5-0.2,0.9-0.6,1.4c-0.4,0.5-0.9,0.9-1.5,1.2c-0.6,0.3-1.1,0.5-1.6,0.5c-1,0-1.8-0.3-2.6-0.8c-0.4-0.3-0.7-0.6-0.9-0.8
		c-0.2-0.3-0.4-0.6-0.5-1.1c-0.3-0.6-0.5-1-0.8-1.4c-0.2-0.3-0.3-0.5-0.3-0.6C3.5,14.9,3.7,14.7,4.1,14.7z M6.7,3.8
		C6.4,3.8,5.9,4,5.4,4.2C4.9,4.4,4.6,4.7,4.5,5.1C4.4,5.4,4.3,5.9,4.3,6.6c0,0.2,0,0.3,0.1,0.3C4.4,7,4.5,7,4.7,7
		c0,0,0.3-0.1,0.8-0.4s0.8-0.5,0.8-0.5L6.9,4C6.8,3.9,6.8,3.8,6.7,3.8z M7,13.3c0.1-0.2,0.3-0.3,0.5-0.3c0.3,0,0.6,0.2,1,0.5
		c0.4,0.3,0.7,0.7,1,1.1s0.4,0.8,0.4,1.1c0,0.6-0.2,1-0.6,1c-0.2,0-0.5-0.2-0.9-0.6c-0.4-0.4-0.8-0.8-1.1-1.2
		c-0.3-0.4-0.5-0.7-0.5-0.9C6.8,13.7,6.9,13.5,7,13.3z M9.4,7.9C9.5,7.5,9.5,7.2,9.5,7c0-0.1,0-0.2-0.1-0.2C9.1,6.9,8.6,7.1,8.1,7.4
		c0,0.2-0.1,0.5-0.2,0.9C7.8,8.7,7.7,9.1,7.7,9.5l0.1,0.2c0.2,0,0.5,0,0.8-0.1c0.3-0.1,0.6-0.2,0.7-0.3l0.1-0.1c0-0.1,0-0.1-0.1-0.2
		c0-0.1-0.1-0.1-0.1-0.2C9.2,8.5,9.3,8.2,9.4,7.9z M9,3.5c-0.5,0-0.8,0-1.1,0.1L7.8,3.8c0,0.1,0,0.1,0,0.2c0,0.1,0,0.1,0,0.2
		s0,0.1-0.1,0.2c0,0.1-0.1,0.2-0.1,0.2c0,0.2,0.1,0.5,0.2,0.8c0.3,0,0.8-0.1,1.7-0.4c0-0.1,0-0.2,0.1-0.3s0-0.2,0-0.3
		C9.8,3.8,9.5,3.5,9,3.5z M11.8,12.3c0.1-0.1,0.2-0.1,0.3-0.1c0.6,0,1.4,0.3,2.3,0.9c1,0.6,1.8,1.4,2.5,2.2c0.7,0.8,1.1,1.6,1.1,2.2
		c0,0.4-0.1,0.6-0.2,0.9s-0.4,0.4-0.7,0.4c-0.3,0-0.7-0.3-1.2-0.9s-1.2-1.5-2.1-2.6c-0.6-0.8-1.1-1.4-1.4-1.8
		c-0.3-0.4-0.6-0.7-0.8-0.8l0-0.2C11.6,12.5,11.7,12.4,11.8,12.3z"/>
	<path d="M20.5,14.1c-0.2-0.2-0.3-0.4-0.3-0.6c0-0.3,0.2-0.8,0.5-1.3s0.8-1,1.2-1.4s0.9-0.8,1.2-0.9c0.4-0.2,0.9-0.4,1.5-0.6
		c0.1,0,0.4-0.1,0.8-0.3s0.8-0.3,1.1-0.5c0.1-0.1,0.3-0.3,0.4-0.7c0.2-0.4,0.2-0.7,0.2-0.8c-0.3-0.2-0.6-0.4-0.8-0.5
		c-0.2-0.2-0.3-0.4-0.3-0.7c0-0.4,0.3-0.6,1-0.6c0.2,0,0.4,0.1,0.6,0.2s0.3,0.2,0.4,0.2c0.1,0,0.2-0.1,0.2-0.3
		c0-0.2-0.1-0.4-0.2-0.7C28.1,4.1,27.9,4,27.8,4c-0.1,0-0.3,0.1-0.6,0.3c-0.3,0.2-0.4,0.3-0.5,0.3c-0.2,0-0.3,0-0.4-0.1
		c-0.1,0-0.1-0.1-0.1-0.3c0-0.2,0.1-0.4,0.2-0.5s0.3-0.3,0.4-0.5S27,3,27,3c0-0.1-0.1-0.3-0.4-0.5c-0.2-0.2-0.4-0.3-0.5-0.5
		c-0.1-0.1-0.2-0.3-0.2-0.5c0-0.3,0.2-0.4,0.7-0.4c0.3,0,0.5,0.1,0.8,0.3c0.3,0.2,0.5,0.3,0.5,0.3c0.1-0.1,0.4-0.3,0.7-0.5
		s0.6-0.4,0.8-0.4c0.2,0,0.3,0.2,0.3,0.5c0,0.3-0.1,0.5-0.2,0.7s-0.3,0.4-0.5,0.5c-0.2,0.2-0.3,0.3-0.3,0.3c0,0.4,0.1,0.8,0.2,0.9
		c0.2,0.2,0.4,0.3,0.7,0.4C30,4,30.2,4,30.3,4.1c0.1,0.1,0.2,0.2,0.2,0.5c0,0.5-0.2,1-0.7,1.6c0.4,0.6,1.1,0.9,2.1,0.9
		c0.3,0,0.6,0,0.7-0.1s0.2-0.3,0.2-0.6l0-0.4c-0.1,0-0.3,0-0.7,0S31.3,6,31.1,5.8c-0.2-0.1-0.3-0.4-0.3-0.7s0.1-0.6,0.4-0.7
		c0.2-0.1,0.6-0.2,1.1-0.2c0.4,0,0.6-0.1,0.7-0.1s0.2-0.2,0.2-0.3c0-0.1,0-0.2-0.1-0.2c-0.1-0.1-0.2-0.1-0.3-0.1
		c-0.1,0-0.3,0-0.6,0.1c-0.2,0.1-0.4,0.1-0.6,0.1c-0.2,0-0.4-0.1-0.6-0.2c-0.2-0.1-0.2-0.3-0.2-0.5c0-0.3,0.2-0.6,0.6-0.7
		c0.4-0.2,0.8-0.3,1.1-0.3c0.2,0,0.3-0.1,0.3-0.2c0,0-0.1-0.1-0.2-0.2c-0.1-0.1-0.2-0.3-0.2-0.5c0-0.3,0.1-0.5,0.3-0.6
		c0.2-0.2,0.4-0.2,0.7-0.2c0.6,0,1.1,0.3,1.2,0.9s0.3,1.3,0.3,2.2c0,1.3-0.1,2.4-0.3,3.3l0,0.1c0,0.1,0,0.1,0.1,0.1
		c0.3,0.1,0.5,0.2,0.8,0.2c0.3,0,0.4,0,0.5,0c0.4,0,0.7,0.1,1,0.2c0.3,0.1,0.5,0.4,0.8,0.7C37.9,8.1,38,8.4,38,8.5
		c0,0.5-0.1,1.1-0.4,1.6c-0.3,0.6-0.6,0.9-1.1,0.9c-0.2,0-0.3-0.1-0.4-0.2S36,10.6,36,10.4c0-0.2,0.1-0.4,0.2-0.8s0.2-0.6,0.2-0.8
		c0-0.2-0.1-0.3-0.2-0.4c-0.1-0.1-0.3-0.1-0.5-0.1c-1,0-1.9,0.1-2.9,0.3c-1,0.2-2,0.4-3.1,0.7l-1.1,0.3c-1.2,0.3-2.3,0.6-3.2,0.9
		s-1.5,0.7-1.8,1.1c-0.2,0.2-0.3,0.4-0.4,0.6c-0.4,0.6-0.8,1.1-1.1,1.5s-0.7,0.6-1,0.6C20.9,14.4,20.7,14.3,20.5,14.1z M21.9,7.5
		c-0.1-0.9-0.2-1.7-0.2-2.5c0-0.2,0-0.4,0-0.5s0-0.4,0-0.5c0-0.1-0.1-0.3-0.3-0.5c-0.2-0.2-0.3-0.3-0.3-0.5c0-0.3,0.1-0.5,0.4-0.7
		c0.3-0.2,0.6-0.4,1-0.6s0.7-0.2,0.9-0.2c0.2,0,0.3,0,0.5,0.1c0.2,0.1,0.3,0.2,0.3,0.4c0,0.1,0,0.2-0.1,0.3
		c-0.1,0.1-0.2,0.2-0.3,0.2c-0.1,0.1-0.3,0.2-0.4,0.3c-0.1,0.1-0.1,0.2-0.1,0.3s0,0.2,0.1,0.3c0.1,0.1,0.2,0.1,0.3,0.1
		c0.1,0,0.2,0,0.3,0s0.2,0,0.3,0c0.2,0,0.3,0,0.5,0.1c0.2,0.1,0.2,0.2,0.2,0.4c0,0.2,0,0.4-0.1,0.4c-0.1,0.1-0.3,0.2-0.5,0.2
		c-0.2,0.1-0.4,0.2-0.5,0.3c-0.1,0.1-0.2,0.3-0.2,0.5c0,0.1,0,0.2,0,0.3l0.1,0c0.1,0,0.3-0.1,0.5-0.2c0.2-0.1,0.5-0.2,0.6-0.2
		c0.2,0,0.3,0.1,0.5,0.2c0.1,0.1,0.2,0.3,0.2,0.5c0,0.3-0.1,0.6-0.4,0.8c-0.3,0.2-0.5,0.3-0.8,0.4S24,7.4,23.9,7.4
		c-0.1,0.1-0.3,0.3-0.4,0.6c-0.1,0.3-0.2,0.5-0.3,0.6c-0.1,0.2-0.3,0.3-0.6,0.3C22.3,8.9,22,8.4,21.9,7.5z M23.5,25.9
		c-0.1-0.1-0.2-0.3-0.2-0.5c0-0.2,0.1-0.5,0.4-0.8c0.3-0.3,0.7-0.9,1.3-1.7c0.6-0.7,1.1-1.4,1.5-1.8S27,20.2,27,20
		c0-0.1-0.1-0.2-0.2-0.2c-0.2,0-0.4-0.1-0.5-0.2c-0.1-0.1-0.2-0.3-0.2-0.6C26,18.6,26,18.1,26,17.4c0-2.3,0.2-4,0.6-5
		c0.2-0.4,0.6-0.9,1.3-1.4c0.7-0.5,1.3-0.7,1.8-0.7c0.6,0,1.1,0.2,1.4,0.6s0.5,0.9,0.5,1.3c0,0.5,0.1,1.1,0.1,1.9
		c0,1.1-0.1,2-0.2,2.7s-0.5,1.4-1,2c0.4,0.9,0.9,1.6,1.3,2s0.9,0.8,1.5,1c0.6,0.2,1.4,0.3,2.4,0.3c0.9,0,1.5,0,1.9-0.1
		c0.4-0.1,0.6-0.3,0.7-0.7c0.1-0.4,0.2-1,0.2-1.8c0-1.3-0.1-2.8-0.2-4.5l-0.1-2c0.2-0.3,0.4-0.4,0.7-0.4c0.2,0,0.3,0.1,0.5,0.4
		s0.4,1.5,0.7,3.6s0.4,3.5,0.4,4.1c0,1.4-0.4,2.3-1.3,2.9c-0.9,0.5-2,0.8-3.5,0.8c-0.9,0-1.9-0.1-2.9-0.3c-1-0.2-1.9-0.6-2.7-1.1
		s-1.1-1.2-1.1-2.1c0-0.2,0-0.4,0-0.5s0-0.4,0-0.5l-0.1-0.1c-0.1,0.1-0.1,0.2-0.2,0.3c0,0.1-0.2,0.4-0.5,1c-0.7,1.4-1.3,2.6-2,3.5
		s-1.4,1.3-2.2,1.3C23.8,26.1,23.6,26,23.5,25.9z M29.8,15.7c0-0.1,0-0.2-0.1-0.4c-0.1-0.1-0.2-0.2-0.2-0.2c-0.3,0-0.7,0.1-1,0.2
		c-0.4,0.1-0.6,0.3-0.6,0.5c0,0.2,0,0.3,0.1,0.3s0.2,0.1,0.3,0.1C29.3,16.3,29.8,16.1,29.8,15.7z M28.9,18c0.4-0.2,0.6-0.3,0.6-0.4
		c0-0.1-0.1-0.2-0.4-0.2c-0.3,0-0.6,0.1-0.8,0.2c-0.3,0.1-0.4,0.3-0.4,0.5c0,0.1,0.1,0.1,0.2,0.1C28.3,18.3,28.6,18.2,28.9,18z
		 M29.2,13.3c0.4-0.1,0.6-0.3,0.6-0.6c0-0.1,0-0.1-0.1-0.2c0-0.1-0.1-0.1-0.1-0.1c-0.2,0-0.5,0.1-0.9,0.3c-0.4,0.2-0.6,0.4-0.6,0.6
		l0,0.1l0.1,0.1C28.4,13.6,28.8,13.5,29.2,13.3z"/>
	<path d="M49.7,4.1c0.5-0.4,0.8-0.8,0.8-1.4c0-0.4,0.1-0.9,0.3-1.5s0.5-0.9,0.7-0.9c0.4,0,0.6,0.2,0.6,0.7c0,0.2,0,0.4,0,0.6
		c0,0.3,0,0.5,0,0.8c0,0.6,0.1,0.9,0.2,1.1c0.1,0,0.3,0.1,0.5,0.1c0.2,0,0.3,0.1,0.4,0.2c0.1,0.1,0.1,0.2,0.1,0.5s-0.1,0.4-0.2,0.5
		S52.8,4.9,52.6,5c0,0-0.1,0.1-0.3,0.1S52.1,5.3,52,5.5c-0.1,0.1-0.1,0.4-0.1,0.6c0,0.2-0.1,0.5-0.2,0.8c-0.1,0.4-0.2,0.7-0.2,0.9
		c0,0.2,0.1,0.3,0.2,0.3c0.4,0,1-0.1,1.8-0.4c0.3-0.1,0.6-0.2,0.9-0.3c0.3-0.1,0.6-0.1,0.9-0.1c0.3,0,0.5,0.1,0.8,0.2
		s0.4,0.3,0.4,0.5c0,0.4-0.3,0.8-1,1.1c-0.6,0.3-1.5,0.6-2.7,0.9c-1,0.3-1.6,0.4-1.8,0.6c-0.2,0.1-0.4,0.4-0.6,1
		c-0.2,0.5-0.4,1-0.4,1.4c0.2,0.1,0.4,0.1,0.8,0.1c0.6,0.1,1.3,0.3,2.2,0.8c0.8,0.4,1.5,0.8,2.1,1.2s1,0.6,1.2,0.7
		c1.9,1.1,4.5,2.5,7.9,4.2c0.4,0.2,0.6,0.3,0.8,0.5c0.2,0.2,0.3,0.4,0.3,0.7c0,0.3-0.1,0.5-0.4,0.6c-0.2,0.2-0.5,0.2-0.8,0.2
		c-0.9,0-1.9-0.3-3-0.8s-2.3-1.2-3.8-2.1c-0.6-0.4-1.5-1-2.6-1.8c-1.2-0.9-2.2-1.5-3-2.1c-0.8-0.5-1.6-0.9-2.3-1.1
		c-0.2,0.4-0.5,0.8-0.7,1.3c-0.9,1.6-1.6,2.9-2.3,3.9s-1.3,1.5-1.8,1.5c-0.2,0-0.4-0.1-0.6-0.2c-0.2-0.1-0.2-0.3-0.2-0.6
		c0-0.3,0.1-0.6,0.4-1.2c0.3-0.5,0.6-1.2,1-2c0.1-0.2,0.2-0.5,0.4-0.7c0.1-0.3,0.3-0.5,0.4-0.8c0.2-0.5,0.5-1.3,1-2.3
		c0.4-1,0.6-1.5,0.6-1.6c0-0.2,0-0.3-0.1-0.3s-0.2-0.1-0.3-0.1c-0.1,0-0.2,0-0.4,0.1c-0.2,0.1-0.3,0.1-0.4,0.1
		c-0.3,0-0.6-0.1-0.9-0.3c-0.3-0.2-0.4-0.4-0.4-0.7c0-0.1,0.1-0.3,0.2-0.5c0.1-0.2,0.2-0.4,0.2-0.5c0-0.1,0-0.2,0-0.3s0-0.2,0-0.3
		c0-0.2,0.1-0.5,0.3-0.9l0.2-0.6c0.1-0.3,0.1-0.8,0.2-1.4c0.2-1.3,0.4-2.3,0.5-3.1C46.6,2.3,46.9,2,47.2,2c0.3,0,0.5,0.1,0.5,0.4
		s0.1,0.5,0.1,0.9l0,0.7c0,0.3,0,0.6,0.1,0.7C48.6,4.6,49.2,4.4,49.7,4.1z M49.4,6c-0.3,0-0.6,0-1,0.1c-0.4,0.1-0.7,0.2-0.8,0.4
		c-0.1,0.2-0.4,0.6-0.7,1.3c-0.3,0.7-0.6,1.3-0.8,1.7c0,0.1,0.1,0.1,0.2,0.1c0.3,0,0.7-0.1,1.2-0.2c0.5-0.1,0.8-0.3,1-0.4
		c0.2-0.2,0.4-0.6,0.7-1.3s0.5-1.2,0.6-1.6C49.7,6,49.6,6,49.4,6z"/>
	<path d="M65.7,6.9c0.2-0.2,0.7-0.4,1.4-0.6c0.8-0.2,1.3-0.3,1.7-0.3s0.6,0,0.8,0.1c0.2,0.1,0.3,0.3,0.3,0.6c0,0.2,0,0.4-0.1,0.6
		c-0.1,0.1-0.6,0.3-1.6,0.6c-1,0.3-1.7,0.4-1.9,0.4c-0.2,0-0.4-0.1-0.5-0.3c-0.1-0.2-0.2-0.4-0.2-0.6C65.5,7.3,65.6,7.1,65.7,6.9z
		 M66.4,9.7c0.5-0.3,1.1-0.6,1.7-0.8c0.7-0.2,1.1-0.3,1.5-0.3c0.3,0,0.4,0,0.5,0.1s0.1,0.2,0.1,0.5c0,0.1,0,0.2-0.1,0.4
		c-0.1,0.1-0.7,0.5-1.8,1c-1.1,0.5-1.8,0.7-2,0.7c-0.2,0-0.3-0.1-0.4-0.2s-0.2-0.3-0.2-0.4C65.6,10.3,65.8,10,66.4,9.7z M69.8,11.8
		c0.4,0.1,0.5,0.3,0.5,0.5s-0.3,0.5-0.8,0.8c-0.5,0.3-1.1,0.6-1.7,0.9c-0.6,0.3-1.1,0.4-1.3,0.4c-0.2,0-0.3-0.1-0.5-0.2
		c-0.1-0.1-0.2-0.3-0.2-0.5c0-0.4,0.2-0.7,0.5-1c0.3-0.3,0.8-0.6,1.2-0.8c0.5-0.2,0.9-0.3,1.3-0.3C69.1,11.6,69.4,11.7,69.8,11.8z
		 M66.4,18.1c0.1-0.8,0.2-1.5,0.4-2.2c0.2-0.6,0.4-1,0.6-1c0.2,0,0.4,0,0.4,0.1s0.1,0.2,0.1,0.4c0,0.3,0,0.6,0,0.8
		c0.1,0,0.3,0,0.5-0.1s0.4,0,0.6,0c0.4,0,0.6,0.1,0.9,0.4c0.2,0.2,0.3,0.5,0.3,0.9c0,0.3-0.2,0.7-0.5,1.3c-0.3,0.6-0.7,1.1-1.2,1.5
		s-0.8,0.7-1.1,0.7c-0.3,0-0.5-0.1-0.7-0.4s-0.4-0.5-0.4-0.8C66.3,19.5,66.3,18.9,66.4,18.1z M67.9,2.6c0.2-0.2,0.3-0.3,0.5-0.3
		c0.4,0,0.6,0.2,0.7,0.6s0.2,0.8,0.2,1.3c0,0.9-0.2,1.3-0.6,1.3c-0.2,0-0.4-0.3-0.7-1s-0.4-1.1-0.4-1.4C67.6,2.9,67.7,2.8,67.9,2.6z
		 M68.6,18.4c0.2-0.5,0.3-0.8,0.3-0.9v-0.2l-0.1-0.1c-0.6,0-0.8,0.3-0.8,0.7c0,0.5,0.1,0.9,0.2,1.2C68.3,19.1,68.4,18.9,68.6,18.4z
		 M72.4,12.5c0.1-1.5,0.2-2.4,0.2-2.7L72.8,8l0.1-0.6c0.1-1,0.2-1.8,0.3-2.3c0-0.1,0.1-0.3,0.1-0.5c0-0.3,0.1-0.5,0.2-0.6
		c0.1-0.2,0.2-0.2,0.4-0.2c0.3,0,0.6,0,0.8-0.1s0.5-0.1,0.8-0.3c1.1-0.5,2.1-0.8,3.1-1.1s1.9-0.4,2.9-0.4c1.6,0,2.7,1,3.3,3
		s0.8,4.1,0.8,6.3c0,1,0,2.4,0.1,4.3c0,0.5,0,1.1,0.1,2c0,0.9,0,1.7,0,2.3c0,0.8-0.1,1.5-0.3,2.1c-0.2,0.6-0.6,0.9-1.2,0.9
		c-0.5,0-0.9-0.1-1.2-0.3s-0.5-0.6-0.5-1.1c0-0.2,0.1-0.4,0.3-0.7c0.3-0.4,0.5-1,0.5-1.6v-2.8v-1.3c0-1.8-0.1-3.2-0.3-4.1
		c-0.1-0.3-0.1-0.7-0.1-1c0-1,0-2-0.1-2.8s-0.2-1.6-0.5-2.4c-0.3-0.8-0.8-1.2-1.4-1.2c-0.3,0-0.8,0.1-1.4,0.2
		c-0.6,0.1-0.9,0.3-0.9,0.4c0.1,0.1,0.2,0.2,0.3,0.2c0.1,0,0.2,0.1,0.2,0.1c0,0.1,0.1,0.2,0.2,0.5c0.3,0,0.6,0,0.9-0.1
		c0.4,0,0.7-0.1,0.9-0.1c0.3,0,0.4,0,0.5,0.1s0.1,0.2,0.1,0.5c0,0.3-0.1,0.5-0.3,0.7c-0.2,0.1-0.5,0.3-0.9,0.4
		c-0.2,0.1-0.4,0.1-0.6,0.2c-0.2,0.1-0.3,0.2-0.4,0.2c-0.1,0.2-0.1,0.5-0.3,1s-0.2,0.8-0.2,1c0,0,0,0,0.1,0.1c0,0,0.1,0.1,0.1,0.1
		c0.3,0,0.6-0.1,0.9-0.2c0.4-0.1,0.7-0.2,0.9-0.2c0.2,0,0.3,0.1,0.4,0.2c0.1,0.1,0.1,0.3,0.1,0.4c0,0.3-0.3,0.6-1,0.9
		c-0.6,0.3-1.4,0.5-2.2,0.6C77.6,10.9,77,11,76.7,11c-0.5,0-0.8-0.1-0.8-0.3c0-0.1,0.1-0.3,0.2-0.4c0.1-0.2,0.2-0.2,0.2-0.3
		c0.3-0.3,0.5-0.6,0.7-0.9c0.2-0.3,0.2-0.6,0.2-0.9c0-0.1,0-0.2-0.1-0.3l-0.1,0c-0.2,0-0.5,0.1-0.9,0.2c-0.4,0.2-0.7,0.3-0.9,0.3
		c0,0-0.1,0-0.2-0.1C75,8.1,74.9,8,74.9,8c-0.2,0.1-0.3,0.7-0.4,1.7s-0.2,2.4-0.2,4.4c-0.1,1.9-0.2,3.3-0.2,4.2
		c-0.1,0.9-0.2,1.4-0.4,1.6c-0.1,0.1-0.3,0.2-0.5,0.2c-0.1,0-0.3,0-0.4-0.1s-0.3-0.2-0.4-0.3c-0.1-0.1-0.1-0.4-0.1-1.1s0-1.2,0-1.6
		C72.2,15.5,72.3,14.1,72.4,12.5z M76.5,4.6c-0.8,0.3-1.4,0.6-1.7,0.9v0l0,1.1c0,0.2,0,0.4,0.1,0.5c0.1,0,0.5-0.2,1.2-0.7
		c0.7-0.4,1.2-0.7,1.5-1c0.1-0.1,0.1-0.2,0.2-0.3c0.1-0.1,0.1-0.2,0.2-0.3c0.3-0.4,0.4-0.6,0.5-0.8C77.9,4.1,77.3,4.3,76.5,4.6z
		 M76.7,13.2c0.4-0.4,0.8-0.6,1.3-0.8c0.5-0.2,1-0.3,1.4-0.3c0.7,0,1.1,0.1,1.4,0.3c0.3,0.2,0.4,0.6,0.4,1.3c0,0.2,0,0.3,0,0.4
		c0,0.1,0,0.2-0.1,0.3c-0.1,0.3-0.1,0.5-0.1,0.7c0,0.1,0.1,0.2,0.2,0.2c0.2,0.1,0.3,0.1,0.4,0.2s0.2,0.2,0.2,0.3
		c0,0.4-0.2,0.7-0.7,0.9c-0.4,0.2-1.1,0.4-1.9,0.5c-0.6,0.1-1.1,0.2-1.3,0.3c-0.2,0.1-0.3,0.2-0.4,0.3s-0.1,0.3-0.2,0.3
		c-0.2,0.2-0.3,0.2-0.5,0.2c-0.2,0-0.4-0.1-0.5-0.3c-0.1-0.2-0.1-0.4-0.1-0.7c0-0.2,0-0.5,0.1-1c0.1-0.4,0.1-0.8,0.1-1
		c0-0.1-0.1-0.2-0.2-0.4c-0.1-0.2-0.2-0.4-0.2-0.7C76.2,14,76.4,13.6,76.7,13.2z M79.6,13.6c-0.1-0.1-0.2-0.1-0.2-0.1
		c-0.1,0-0.2,0-0.4,0.1s-0.3,0.1-0.3,0.1c-0.4,0.1-0.6,0.2-0.7,0.4s-0.1,0.3-0.2,0.6c0,0.3,0,0.5-0.1,0.6c0,0.2-0.1,0.3-0.1,0.3
		l0.1,0.2c0.6,0,1-0.2,1.4-0.6c0.4-0.4,0.5-0.8,0.5-1.4C79.7,13.7,79.7,13.6,79.6,13.6z"/>
	<path d="M96.9,0.6c0.4,0,0.6,0.3,0.7,0.8s0.2,1.1,0.2,1.6c0,0.2,0,0.4-0.1,0.7c-0.1,0.3-0.1,0.5-0.1,0.7c0.4,0,0.9-0.1,1.6-0.4
		c0.1,0,0.3-0.1,0.6-0.2c0.3-0.1,0.7-0.1,1-0.1c0.2,0,0.4,0.1,0.5,0.2c0.1,0.1,0.2,0.3,0.2,0.5c0,0.3-0.3,0.6-0.9,0.8
		c-0.6,0.3-1.2,0.5-1.9,0.7c-0.7,0.2-1.2,0.3-1.5,0.3c-0.3,0-0.8,0-1.4,0.1c-0.6,0.1-1,0.1-1.1,0.2c-0.2,0.1-0.4,0.3-0.5,0.6
		C94,8,93.9,9,93.8,10.3c-0.1,0.9-0.2,1.6-0.2,2c-0.1,0.4-0.2,0.8-0.2,0.9c-0.2,1-0.3,1.6-0.3,1.8c-0.1,0.7-0.2,1.8-0.4,3.3
		c-0.2,1.5-0.4,2.3-0.6,2.5c-0.1,0.1-0.3,0.2-0.6,0.2c-0.3,0-0.6-0.2-0.7-0.5c-0.1-0.3-0.2-0.7-0.2-1.1c0-0.4,0-0.8,0.1-1.2
		c0.1-0.4,0.2-0.8,0.2-1.3c0.2-1.1,0.4-1.9,0.4-2.5l-0.1,0c-0.1,0-0.4,0-0.7,0.1c-0.2,0.1-0.5,0.1-0.7,0.1c-0.7,0-1-0.2-1-0.6
		c0-0.3,0.1-0.5,0.4-0.6c0.3-0.2,0.7-0.3,1.2-0.5c0.5-0.2,0.9-0.3,1.1-0.5c0.2-0.1,0.4-0.3,0.4-0.5c0-0.1,0-0.2,0.1-0.4
		s0.1-0.3,0.1-0.4c0-0.1-0.1-0.3-0.2-0.4c-0.1-0.1-0.2-0.2-0.4-0.2c-0.1,0-0.2,0-0.4,0.1c-0.2,0.1-0.3,0.1-0.4,0.1
		c-0.3,0-0.5-0.1-0.7-0.3s-0.3-0.5-0.3-0.8S89.8,9.2,90,9c0.2-0.1,0.5-0.2,0.8-0.2c0.2,0,0.4,0.1,0.7,0.2c0.3,0.1,0.6,0.2,0.7,0.2
		c0.1,0,0.3-0.3,0.5-0.8s0.3-0.9,0.3-1.1C93.1,7.2,93,7,92.8,7c-0.2-0.1-0.3-0.2-0.4-0.2c-0.1-0.1-0.1-0.2-0.1-0.3
		c0-0.3,0.2-0.5,0.6-0.7c0.4-0.2,1-0.4,1.7-0.6C95,5.1,95.3,5,95.5,4.9s0.4-0.2,0.5-0.3c0.1-0.2,0.2-0.5,0.2-0.9
		c0-0.2,0-0.6-0.1-1.1C96,2.3,96,1.9,96,1.5C96,0.9,96.3,0.6,96.9,0.6z M96.1,9.8c0.2-0.1,0.4-0.2,0.6-0.2c0.2,0,0.3-0.1,0.4-0.1
		c0.3-0.1,0.9-0.3,1.6-0.6c0.7-0.3,1.3-0.5,1.7-0.6s0.9-0.2,1.4-0.2c0.4,0,0.7,0.1,0.7,0.4s-0.1,0.4-0.2,0.5
		c-0.1,0.1-0.3,0.3-0.6,0.4c-0.3,0.2-0.5,0.3-0.7,0.5c-0.2,0.2-0.2,0.4-0.2,0.8c0,0.3,0,0.5,0.1,0.8s0.1,0.5,0.2,0.6
		c0.2,0,0.5,0,0.8-0.1s0.6-0.1,0.8-0.1c0.4,0,0.6,0.2,0.6,0.6c0,0.3-0.2,0.5-0.6,0.9s-0.8,0.6-1.1,0.7c-0.1,0-0.2,0.1-0.4,0.1
		s-0.2,0.1-0.2,0.2c0,0.1,0,0.3-0.1,0.5c-0.1,0.4-0.2,0.8-0.4,1.1c0,0.1-0.1,0.1-0.1,0.3c-0.1,0.1-0.1,0.2-0.1,0.3s0.1,0.1,0.2,0.1
		c0.3,0,0.5,0,0.6,0c0.1,0,0.2,0,0.4,0s0.3,0,0.5,0c1.8,0.1,3.9,0.2,6.4,0.5s3.9,0.4,4.2,0.5c0.3,0.2,0.5,0.4,0.5,0.9
		c0,0.2,0,0.4-0.1,0.5c-0.1,0.2-0.5,0.4-1.1,0.5c-0.6,0.1-1.2,0.1-1.8,0.1c-1.3,0-3.3-0.1-5.9-0.2c-2.7-0.2-4.6-0.2-5.9-0.2
		c-0.4,0-1,0-1.8,0.1s-1.4,0.1-1.8,0.1c-0.2,0-0.4-0.1-0.6-0.3s-0.3-0.4-0.3-0.6s0.1-0.4,0.3-0.6s0.4-0.3,0.8-0.5
		c0.3-0.1,0.5-0.3,0.6-0.4c0.2-0.3,0.2-0.8,0.2-1.6c0-0.8,0.1-1.4,0.2-1.9c0.1-0.4,0.4-0.6,0.9-0.6c0.2,0,0.3,0.1,0.3,0.3
		c0,0.1,0,0.2-0.1,0.4c0,0.2-0.1,0.3-0.1,0.4c0,0.3,0.1,0.9,0.2,1.6s0.2,1.2,0.4,1.2c0.1,0,0.2,0.1,0.4,0.1c0.4,0,0.7,0,0.8-0.1
		l0-0.1c0-0.2,0-0.4-0.1-0.6c-0.1-0.3-0.1-0.5-0.1-0.6c0-0.4,0.1-0.9,0.2-1.4c0.1-0.5,0.2-0.8,0.2-0.9c0.3-0.9,0.4-1.7,0.4-2.3
		c0-0.2-0.1-0.3-0.2-0.3c-0.3,0-0.6,0.1-1.1,0.2C97.7,10.9,97.3,11,97,11c-0.2,0-0.5-0.1-0.8-0.2c-0.3-0.1-0.4-0.3-0.4-0.5
		S95.9,9.9,96.1,9.8z"/>
	<path d="M114.2,19.6c0.5-0.9,1-1.8,1.6-2.5s1.1-1.1,1.4-1.1c0.1,0,0.2,0,0.2,0.1c0.1,0.1,0.1,0.1,0.1,0.2c0,0.2-0.1,0.3-0.2,0.5
		c-0.1,0.2-0.2,0.3-0.2,0.3c-0.3,0.3-0.7,1.2-1.4,2.6c-0.7,1.4-1.2,2.2-1.3,2.3c-0.1,0.1-0.3,0.1-0.4,0.1c-0.2,0-0.3-0.1-0.4-0.2
		s-0.1-0.3-0.1-0.4C113.5,21.2,113.7,20.5,114.2,19.6z M118.3,2.1C118.8,2,119,2,119.1,2c0.2,0,0.5,0.1,0.8,0.3
		c0.5,0.4,0.9,0.9,1,1.5s0.2,1.4,0.2,2.3l0,0.9c0.4,0.1,0.7,0.2,0.8,0.3s0.3,0.3,0.3,0.6s-0.4,0.8-1.2,1.6c-0.8,0.8-1.7,1.5-2.7,2.2
		s-1.5,1-1.8,1c-0.5,0-0.8-0.9-0.8-2.7c0-1.2,0.1-2.9,0.4-5.2c0-0.2,0.1-0.6,0.1-1.1c0-0.1,0-0.2,0-0.6s0.1-0.6,0.2-0.8
		c0.1-0.2,0.3-0.3,0.5-0.3c0.1,0,0.2,0,0.3,0.1c0.1,0,0.2,0.1,0.3,0.1C117.7,2.2,117.9,2.2,118.3,2.1z M119.5,7.4
		c-0.1-0.2-0.1-0.4-0.2-0.5c-0.7,0-1.2,0.2-1.5,0.6s-0.4,0.9-0.4,1.7c0,0.1,0,0.2,0.1,0.4c0.2,0,0.6-0.3,1.2-0.7s0.9-0.8,0.9-0.9
		C119.6,7.7,119.6,7.6,119.5,7.4z M119.1,4.1c-0.2-0.3-0.4-0.5-0.7-0.5c-0.3,0-0.5,0.1-0.6,0.4c-0.2,0.3-0.2,0.5-0.2,0.8
		c0,0.1,0,0.3,0.1,0.6h0.9c0.4,0,0.7,0,0.9,0V5.2C119.4,4.8,119.3,4.5,119.1,4.1z M118.8,14.6c0.1-0.1,0.3-0.2,0.5-0.2
		c0.3,0,0.6,0.2,0.9,0.7s0.5,1,0.7,1.6s0.3,1.1,0.3,1.4c0,0.1-0.1,0.3-0.4,0.5c-0.2,0.2-0.4,0.3-0.6,0.3c-0.4,0-0.6-0.2-0.9-0.7
		c-0.2-0.5-0.4-1-0.5-1.6s-0.2-1.1-0.2-1.5C118.7,15,118.8,14.8,118.8,14.6z M123.3,15.2c0.1-0.1,0.3-0.2,0.4-0.2
		c0.2,0,0.7,0.3,1.4,1s1.3,1.3,1.9,2.1s0.9,1.2,0.9,1.5c0,0.3-0.1,0.5-0.4,0.7c-0.3,0.2-0.6,0.2-0.9,0.2c-0.3,0-0.8-0.3-1.3-0.9
		s-1-1.3-1.5-2.1s-0.7-1.3-0.7-1.7C123.1,15.5,123.2,15.3,123.3,15.2z M125.7,0.4c0.4-0.3,0.8-0.4,1.3-0.4c0.9,0,1.7,0.2,2.3,0.7
		s0.9,1.1,0.9,2c0,0.4-0.1,0.9-0.4,1.5c-0.2,0.6-0.6,1-1,1.4c-0.4,0.4-0.8,0.6-1.3,0.6c-0.2,0-0.4-0.1-0.5-0.2s-0.3-0.3-0.3-0.3
		c-0.1,0.1-0.3,0.3-0.5,0.6c-0.2,0.4-0.4,0.6-0.6,0.7s-0.3,0.2-0.5,0.2c-0.2,0-0.4-0.1-0.5-0.2c-0.1-0.2-0.2-0.4-0.2-0.6
		c0-0.3,0.1-0.6,0.2-0.9s0.3-0.7,0.5-1c0.2-0.3,0.3-0.5,0.3-0.6c0.4-0.7,0.6-1.1,0.6-1.3c0-0.1,0-0.1-0.1-0.2s-0.2-0.1-0.4-0.1
		s-0.2-0.1-0.3-0.1c-0.1-0.1-0.1-0.3-0.1-0.6C125.2,1.1,125.3,0.7,125.7,0.4z M124.9,12.8c0-0.1,0-0.2,0.1-0.4s0-0.4,0-0.5
		c0.1-0.8,0.2-1.4,0.3-1.9c0.1-0.5,0.3-0.7,0.7-0.7c0.2,0,0.4,0,0.6-0.1c0.2-0.1,0.3-0.2,0.3-0.2c0.4-0.2,0.7-0.3,0.9-0.3
		c0.7,0,1.3,0.3,1.7,1s0.6,1.3,0.6,2.1c0,0.4-0.2,0.7-0.7,1s-0.8,0.5-1.2,0.5c-0.2,0-0.5,0-0.7-0.1c-0.2-0.1-0.4-0.2-0.5-0.2
		c-0.2,0.1-0.3,0.3-0.4,0.6c-0.1,0.3-0.2,0.4-0.3,0.6c-0.1,0.1-0.4,0.2-0.7,0.2c-0.3,0-0.5-0.1-0.6-0.3s-0.2-0.4-0.2-0.7
		C124.7,13.3,124.8,13.1,124.9,12.8z M127,10.4c-0.1,0.1-0.1,0.2-0.1,0.4c0,0.2,0,0.5,0.1,0.7s0.2,0.3,0.4,0.3c0.1,0,0.3,0,0.4-0.1
		s0.1-0.2,0.1-0.3s0-0.3-0.1-0.6s-0.2-0.4-0.3-0.5l-0.1-0.1C127.2,10.3,127.1,10.3,127,10.4z M128.1,2.3c-0.1,0-0.2,0.3-0.4,0.9
		s-0.2,1-0.2,1.2c0,0,0,0.1,0,0.2s0.1,0.1,0.1,0.1c0.2,0,0.4-0.2,0.5-0.7s0.2-0.8,0.2-1.1C128.3,2.6,128.3,2.4,128.1,2.3z
		 M128.5,15.7c0.1-0.1,0.2-0.1,0.3-0.1c0.1,0,0.3,0.1,0.5,0.2c0.3,0.2,1.5,1.2,3.7,3.2c2.2,2,3.3,3,3.4,3.1c0.1,0.2,0.1,0.4,0.1,0.6
		c0,0.3-0.1,0.6-0.2,0.8s-0.3,0.3-0.6,0.3c-0.1,0-0.3,0-0.4-0.1c-0.6-0.2-1.2-0.6-1.7-1.1s-1.1-1.3-1.8-2.3l-0.8-1.1l-0.7-0.8
		c-0.2-0.2-0.5-0.6-1.1-1.2s-0.8-1-0.8-1.1C128.4,15.9,128.4,15.8,128.5,15.7z"/>
	<path d="M141.2,1.8c0.2-0.1,0.8-0.4,1.8-0.8s1.5-0.6,1.7-0.6c0.2,0,0.4,0.1,0.6,0.2c0.2,0.1,0.2,0.3,0.2,0.5c0,0.3-0.1,0.5-0.4,0.6
		s-0.7,0.3-1.2,0.4c-0.6,0.1-1,0.3-1.3,0.5c-0.3,0.2-0.5,0.4-0.5,0.8c0,0.2,0,0.4,0.1,0.7s0.1,0.4,0.2,0.4c0,0,0.1-0.1,0.2-0.2
		c0.3-0.3,0.6-0.5,1.1-0.7s0.8-0.3,1.2-0.3c0.4,0,0.6,0.2,0.9,0.5c0.2,0.3,0.3,0.6,0.3,1c0,0.5-0.2,1-0.5,1.6c0,0,0.1,0.1,0.2,0.3
		s0.2,0.3,0.2,0.5c0,0.1-0.1,0.2-0.2,0.4c-0.1,0.1-0.3,0.3-0.5,0.4c-0.1,0-0.2,0.1-0.3,0.2c-0.1,0.1-0.2,0.2-0.2,0.2l0.1,0.1h0.3
		c0.2,0,0.3,0,0.4,0.1s0.1,0.2,0.1,0.4c0,0.3-0.1,0.6-0.3,1s-0.4,0.7-0.8,1.1c-0.3,0.4-0.4,0.6-0.4,0.6l0.1,0h0
		c0.1-0.1,0.4-0.3,1-0.7c0.5-0.4,0.8-0.6,0.8-0.7c0-0.1,0.1-0.3,0.1-0.6c0-0.1,0-0.3,0-0.7c0-0.4,0.1-0.7,0.2-0.9s0.4-0.4,0.7-0.4
		c0.3,0,0.4,0.1,0.6,0.3s0.2,0.5,0.2,0.7c0,0.1,0,0.2-0.1,0.4s-0.1,0.3-0.1,0.4c0,0.1,0.1,0.2,0.3,0.3s0.4,0.1,0.5,0.2
		s0.2,0.2,0.2,0.4c0,0.2-0.1,0.4-0.2,0.5s-0.3,0.2-0.5,0.3c-0.2,0.1-0.4,0.2-0.5,0.3c-0.1,0.1-0.2,0.2-0.2,0.4
		c0,0.1,0.1,0.3,0.3,0.5c0.2,0.2,0.3,0.4,0.4,0.5c0,0-0.1,0.2-0.3,0.5s-0.3,0.7-0.3,1.1c0,0.3,0.1,0.6,0.3,0.9s0.3,0.5,0.3,0.6
		c0,0.2-0.1,0.5-0.4,0.7c-0.2,0.2-0.3,0.4-0.4,0.6s-0.1,0.4-0.1,0.8v0.2c0.2,0,0.4,0,0.7,0c0.1,0,0.3,0,0.5,0s0.4,0,0.6,0
		c0.5,0,0.8,0.1,1,0.2c0,0.1,0.1,0.3,0.1,0.5c0,0.2-0.1,0.3-0.2,0.4c-0.3,0.3-2.2,0.4-5.5,0.4c0,0.1-0.1,0.4-0.2,0.8
		c-0.1,0.4-0.2,0.8-0.4,1S143,22,142.8,22c-0.6,0-1-0.5-1-1.5c0-0.5,0.1-1,0.2-1.6s0.2-0.9,0.2-1c0.3-1.1,0.4-1.9,0.4-2.6
		c0-0.2,0-0.4,0.1-0.6s0.2-0.5,0.2-0.6c0-0.1,0.1-0.4,0.1-0.8s0.1-0.8,0.1-1.1c-0.2,0.1-0.5,0.1-0.7,0.1c-0.3,0-0.5-0.1-0.6-0.2
		l0-0.2c0-0.2,0.2-0.4,0.5-0.9s0.6-0.9,1-1.3c0.6-0.7,0.9-1.1,1-1.3c-0.1,0-0.4,0.1-0.8,0.2c-0.4,0.2-0.8,0.3-1.1,0.3
		c0,0-0.1,0-0.2,0s-0.2,0-0.2,0.1s-0.1,0.2-0.2,0.6c-0.1,0.3-0.1,0.6-0.1,0.7c0,0.1,0,0.1,0,0.2s0,0.1,0,0.2c0,0,0,0.1-0.1,0.3
		c-0.1,0.3-0.3,1.1-0.5,2.4c-0.2,1.1-0.4,1.9-0.5,2.6c-0.2,0.6-0.3,1-0.5,1.2l-0.2,0c-0.2,0-0.3,0-0.4-0.1c0-0.3-0.1-0.5-0.1-0.7
		c0-1.3,0.1-2.7,0.3-4s0.5-3,0.9-4.9c0-0.2,0.1-0.5,0.2-1c0.3-0.8,0.4-1.5,0.4-2.1l0,0c-0.1,0.1-0.2,0.4-0.2,0.7l0.1-0.6
		c0.1-0.4,0.2-0.8,0.2-1c0-0.1-0.1-0.2-0.2-0.3s-0.2-0.3-0.2-0.5C140.7,2.2,140.8,2,141.2,1.8z M143,6.8c0.4-0.2,0.7-0.5,0.9-0.8
		s0.4-0.6,0.4-0.8c0-0.2-0.1-0.3-0.2-0.3c-0.3,0-0.7,0.1-1.1,0.4s-0.6,0.6-0.7,0.9c-0.1,0.2-0.1,0.4-0.2,0.6C142,6.9,142,7,142,7.1
		l0.1,0.1C142.4,7.1,142.7,7,143,6.8z M145,18.5c0.2-0.1,0.3-0.2,0.3-0.4c0-0.1,0-0.1,0-0.2s-0.1-0.1-0.1-0.1c0,0-0.1,0-0.2,0.1
		c0,0-0.1,0.1-0.3,0.1c-0.2,0-0.3,0.1-0.4,0.1s-0.2,0.1-0.2,0.2c0,0.2,0.1,0.2,0.3,0.2S144.8,18.6,145,18.5z M144.6,11.8
		c-0.1-0.1-0.2-0.1-0.3-0.1s-0.1,0.1-0.1,0.2s0,0.3,0.1,0.6c0,0.3,0.1,0.4,0.1,0.6c0,0.4,0,0.6,0.1,0.6h0c0-0.1,0.2-0.2,0.5-0.2
		s0.5-0.1,0.6-0.1c0.3-0.1,0.5-0.3,0.6-0.6s0.1-0.6,0.2-1c-0.2,0-0.3,0-0.4,0c-0.1,0-0.2,0-0.3,0.1c-0.3,0.1-0.5,0.1-0.7,0.1
		C144.9,12,144.8,11.9,144.6,11.8z M144.5,14.1c-0.1,0.1-0.1,0.3-0.1,0.6v0.6c0,0.4,0,0.7,0.1,0.8l0.1,0c0.1,0,0.2,0,0.3-0.1
		s0.2-0.1,0.2-0.1c0.4-0.2,0.6-0.4,0.6-0.5s0.1-0.3,0.1-0.5s0-0.4,0.1-0.5C145.2,14.4,144.8,14.3,144.5,14.1z M151.1,1.7
		c0.4-0.2,0.9-0.3,1.5-0.4s1-0.2,1.2-0.2c1.1,0,1.6,0.2,1.6,0.6c0,0.3-0.1,0.5-0.4,0.6s-0.7,0.2-1.1,0.3c-0.5,0.1-0.8,0.2-0.9,0.3
		c-0.1,0.2-0.1,0.4-0.2,0.7c0,0.3-0.1,0.6-0.1,0.8c0,0.6,0.1,0.8,0.3,0.8c0.1,0,0.3-0.1,0.7-0.3s0.7-0.3,1-0.3
		c0.3,0,0.5,0.1,0.8,0.2s0.5,0.3,0.6,0.5c0.2,0.3,0.3,0.8,0.4,1.7c0.1,0.9,0.1,1.7,0.1,2.5c0,0.7,0,1.3,0,1.8s-0.1,1-0.2,1.5l0,0.1
		c0,0.1,0,0.3,0.1,0.5s0.2,0.3,0.2,0.4c0,0.1-0.2,0.4-0.6,1c-0.5,0.9-0.7,1.4-0.8,1.6c0.5,0.3,1.3,0.8,2.4,1.5s2.1,1.5,2.9,2.3
		s1.3,1.3,1.3,1.7c0,0.2-0.1,0.3-0.2,0.4s-0.3,0.2-0.4,0.2c-0.2,0-0.5-0.2-1-0.6c-0.5-0.4-1.2-1-2.2-1.9c-0.9-0.8-1.6-1.4-2.2-1.8
		c-0.5-0.4-0.9-0.6-1.1-0.6c-0.1,0-0.2,0.1-0.4,0.4c-0.2,0.3-0.4,0.6-0.6,0.9c-0.4,0.6-0.7,1.1-1,1.4c-0.2,0.3-0.5,0.5-0.7,0.5
		c-0.2,0-0.4-0.1-0.5-0.2s-0.2-0.3-0.2-0.5c0-0.3,0.2-0.7,0.5-1.2s0.7-1.1,1.3-1.8c0.6-0.9,1-1.4,1-1.5c0-0.1,0-0.1-0.1-0.2
		s-0.1-0.1-0.2-0.1c-0.3,0-0.6,0.1-1.1,0.3c-0.5,0.2-0.8,0.3-1.1,0.3c-0.2,0-0.4-0.1-0.7-0.3s-0.4-0.4-0.4-0.5c0-0.1,0-0.3,0.1-0.4
		c0.2-0.4,0.3-1.1,0.4-2.2s0.2-1.9,0.2-2.5c0-0.2,0-0.3-0.1-0.5s-0.1-0.3-0.1-0.4c-0.1-0.4-0.2-0.7-0.2-0.9c0-0.1,0-0.2,0-0.2
		c0.1-0.1,0.2-0.4,0.3-0.8s0.2-1,0.3-1.7c0.2-0.8,0.3-1.3,0.3-1.5c0,0,0.1-0.1,0.1-0.3s0.1-0.3,0.1-0.4S152.1,3,152,3
		c-0.1,0-0.3,0-0.5,0c-0.4,0-0.6-0.1-0.8-0.1s-0.3-0.2-0.3-0.5S150.7,1.8,151.1,1.7z M153.9,13.7c0.2-0.2,0.3-0.5,0.3-1
		c0-0.3,0-0.5-0.1-0.7s-0.3-0.2-0.5-0.2c-0.2,0-0.4,0-0.5,0.1c-0.1,0-0.1,0.3-0.2,0.8c-0.1,0.5-0.2,0.8-0.2,1c0,0.2,0.1,0.3,0.3,0.3
		C153.3,14,153.7,13.9,153.9,13.7z M153.9,7.1c-0.1,0-0.3,0.1-0.6,0.4S153,7.9,153,8s0.1,0.2,0.2,0.3s0.2,0.2,0.4,0.2
		c0.2,0,0.4-0.1,0.5-0.2s0.2-0.3,0.2-0.5C154.2,7.3,154.1,7.1,153.9,7.1z M154.1,10c0-0.1-0.1-0.2-0.2-0.2c-0.1,0-0.3,0.1-0.5,0.2
		c-0.2,0.2-0.3,0.3-0.3,0.5c0,0.1,0.1,0.2,0.2,0.3c0.1,0.1,0.2,0.1,0.3,0.1c0.2,0,0.3-0.1,0.4-0.2c0.1-0.2,0.2-0.3,0.2-0.5
		C154.2,10.2,154.2,10.1,154.1,10z"/>
	<path d="M166.4,4.7c0.2-0.1,0.4-0.2,0.6-0.2c0.3,0,0.7-0.1,1.4-0.2c0.6-0.1,1.1-0.2,1.3-0.4c0.2-0.1,0.3-0.3,0.4-0.5
		c0.1-0.2,0.2-0.6,0.3-1c0.1-0.5,0.3-0.9,0.4-1.1s0.3-0.3,0.5-0.3s0.3,0.1,0.3,0.2c0,0.3,0,0.6,0,0.7l0,0.8c0,0.2,0,0.4,0,0.5
		c0.8-0.1,1.4-0.1,1.6-0.1c0.7,0,1.2,0.1,1.5,0.3c0,0.5-0.2,0.8-0.5,1c-0.4,0.2-0.9,0.4-1.5,0.7c-0.1,0-0.2,0.1-0.3,0.1
		s-0.2,0.1-0.4,0.1c-0.2,0.1-0.4,0.2-0.5,0.4c-0.1,0.2-0.1,0.4-0.1,0.7c0,0.3-0.1,0.5-0.1,0.7c0,0-0.1,0.1-0.1,0.2
		c0,0.1-0.1,0.2-0.1,0.3l0.1,0c0.3,0,0.6-0.1,1-0.4s0.7-0.7,1.2-1.2c0.5-0.5,0.9-1,1.2-1.2s0.6-0.4,0.9-0.4c0.1,0,0.2,0,0.3,0.1
		l0.1,0.2c0,0.1-0.1,0.3-0.2,0.5s-0.3,0.4-0.5,0.5c0,0-0.2,0.2-0.4,0.4s-0.3,0.5-0.3,0.6l0.1,0.1c0.1,0,0.3,0,0.4-0.1
		c0.2,0,0.3-0.1,0.4-0.1c0.2,0,0.4,0.1,0.6,0.2s0.3,0.3,0.3,0.5c0,0.2-0.2,0.4-0.7,0.6c-0.5,0.2-1.1,0.5-1.9,0.9
		c-0.4,0.2-0.6,0.3-0.8,0.4c-0.2,0.1-1,1-2.5,2.6s-2.4,2.7-2.8,3.1c-0.1,0.1-0.9,1.2-2.5,3.1c-1.6,2-2.7,2.9-3.3,2.9
		c-0.2,0-0.4,0-0.5-0.1s-0.1-0.2-0.1-0.4c0-0.4,0.1-0.9,0.4-1.3s0.6-0.8,1-1.3c0,0,0.2-0.2,0.5-0.6c0.6-0.6,1.2-1.3,1.8-2
		s1.2-1.2,1.8-1.7c0.2-0.2,0.8-0.8,1.7-1.8s1.4-1.7,1.5-1.8l-0.1-0.1l-0.7,0c-0.3,0-0.6,0.1-0.7,0.1c-0.5,0-0.9,0-1.2-0.1
		s-0.5-0.3-0.5-0.7c0-0.3,0.1-0.5,0.3-0.6s0.5-0.2,0.9-0.2c0.4-0.1,0.8-0.1,1.1-0.2c0.3-0.1,0.5-0.3,0.7-0.6s0.3-0.8,0.3-1.5
		c0-0.2-0.1-0.3-0.3-0.3l-1,0c-0.4,0-0.8,0.1-1,0.1c-0.4,0-0.8,0-1-0.1c-0.3-0.1-0.4-0.3-0.4-0.6C166.1,5,166.2,4.8,166.4,4.7z
		 M172.9,13.5c0.4-0.2,0.7-0.3,1-0.4s0.5-0.1,0.8-0.1c1.2,0,1.8,1.8,1.8,5.5c0,2.9-0.4,4.3-1.2,4.3c-0.1,0-0.3-0.1-0.4-0.2
		c-0.1-0.1-0.2-0.2-0.2-0.3c-0.2,0-0.5,0-1,0.1s-0.8,0.1-1,0.1h0.1c-0.2,0-0.3,0-0.6,0.1s-0.5,0-0.8,0c-0.9,0-1.3-0.6-1.3-1.7
		c0-0.7,0-1.6,0.1-2.5l0.5-4.5c0-0.2,0.1-0.3,0.2-0.4s0.3-0.2,0.4-0.2c0.1,0,0.4,0.2,0.8,0.6C172.4,13.7,172.6,13.6,172.9,13.5z
		 M174.8,18.8c0-0.4-0.1-0.5-0.4-0.5c-0.4,0-1,0.1-1.6,0.3S172,19,172,19.3c0,0.4,0,0.7,0.1,0.9s0.3,0.3,0.7,0.3
		c0.6,0,1.3-0.1,1.9-0.2C174.8,19.9,174.8,19.4,174.8,18.8z M174.5,15.3c-0.1-0.3-0.2-0.4-0.4-0.4c-0.3,0-0.6,0.1-1.1,0.3
		s-0.7,0.4-0.8,0.6c-0.1,0.1-0.1,0.4-0.1,0.7c0,0.3,0,0.5,0.1,0.6l0.1,0.1c0.4,0,0.8-0.1,1.4-0.3s0.9-0.4,0.9-0.7
		C174.6,15.8,174.5,15.6,174.5,15.3z"/>
	<path d="M219,8.3c-0.1,0.2-0.1,0.6-0.2,1.1c0,0.1-0.1,0.2-0.1,0.5c0,0.3-0.1,0.5-0.1,0.6c0,0.1-0.1,0.2-0.2,0.2
		c-0.2,0.1-0.6,0.1-1,0.1c-0.4,0-0.6-0.1-0.8-0.2s-0.2-0.5-0.2-0.9c0-0.2,0-0.4,0.1-0.6s0.1-0.4,0.1-0.5c0.1-0.4,0.1-0.8,0.1-1.1
		V7.3l-0.2-0.1c-0.1,0-0.3,0.2-0.6,0.4s-0.7,0.5-1.1,0.9c-0.7,0.6-1.3,1.1-1.8,1.5s-0.8,0.5-1.1,0.5c-0.1,0-0.2,0-0.3-0.1
		c-0.1-0.1-0.1-0.2-0.1-0.3c0-0.2,0.2-0.6,0.6-1.1c0.4-0.5,1-1.1,1.7-1.8c0.1-0.1,0.3-0.3,0.6-0.6c0.3-0.3,0.5-0.5,0.7-0.7
		s0.2-0.3,0.2-0.4c-0.1,0-0.2-0.1-0.4-0.1s-0.5,0-0.9,0.1c-0.4,0-0.7,0.1-0.9,0.1c-0.3,0-0.5-0.1-0.7-0.3c-0.2-0.2-0.2-0.4-0.2-0.7
		c0-0.4,0.3-0.7,0.8-0.9c0.5-0.2,1.3-0.3,2.2-0.4c0.1,0,0.3,0,0.6-0.1c0.3,0,0.5-0.1,0.6-0.1c0.3-0.1,0.4-0.2,0.5-0.4
		s0.2-0.4,0.2-0.7c0.1-0.3,0.1-0.6,0.2-0.7s0.3-0.2,0.6-0.2c0.3,0,0.4,0.1,0.5,0.2s0.2,0.4,0.2,0.7c0,0.3,0.1,0.5,0.2,0.7
		c0.1,0.1,0.2,0.2,0.4,0.2s0.4,0.1,0.6,0.1c0.4,0,0.8,0.1,1,0.2c0.2,0.1,0.3,0.3,0.3,0.7c0,0.3-0.1,0.5-0.3,0.6s-0.5,0.2-0.8,0.2
		c-0.4,0.1-0.7,0.1-0.9,0.2S219,5.2,219,5.5c0,0.2,0,0.4,0.1,0.5c0,0.1,0.2,0.1,0.5,0.2s0.7,0.2,1.1,0.3c1.3,0.3,2.3,0.6,3.1,0.9
		c0.8,0.3,1.2,0.7,1.2,1.1c0,0.5-0.2,0.7-0.7,0.7c-0.4,0-1.1-0.1-1.9-0.3c-0.8-0.2-1.5-0.4-2-0.6c-0.1-0.1-0.4-0.2-0.7-0.3
		s-0.5-0.2-0.6-0.2C219.1,7.9,219,8.1,219,8.3z M217.2,11.2c0.5-0.2,1-0.2,1.5-0.2c0.3,0,0.6,0,0.8,0.1c0.2,0.1,0.3,0.3,0.3,0.6
		c0,0.7-0.1,1.2-0.2,1.7c-0.2,0.4-0.4,0.9-0.6,1.3c-0.2,0.3-0.3,0.5-0.3,0.6c0.1,0.1,0.3,0.3,0.6,0.5c0.2,0.2,0.4,0.4,0.6,0.5
		c1.1-0.1,2.2-0.2,3.4-0.2c0.6,0,1.2,0.1,1.8,0.3s0.8,0.5,0.8,1.1c0,0.4-0.3,0.6-0.9,0.8s-1.5,0.2-2.7,0.3c-0.5,0-0.9,0.1-1.3,0.1
		s-0.7,0.1-0.9,0.2c-0.1,0.1-0.3,0.3-0.4,0.7c-0.3,0.7-0.6,1.3-1,1.9c-0.4,0.5-0.9,1-1.7,1.4c-0.3,0.2-0.6,0.2-0.8,0.2
		c-0.3,0-0.4-0.2-0.4-0.5c0-0.2,0.1-0.4,0.2-0.6s0.4-0.6,0.7-1c0.3-0.5,0.6-0.8,0.7-1.1c0.2-0.3,0.2-0.5,0.2-0.7l0-0.1
		c-0.1-0.1-1-0.1-2.7-0.1h-1.2c-0.8,0-1.3,0-1.5-0.1c-0.3-0.3-0.4-0.5-0.4-0.8c0-0.3,0.2-0.4,0.7-0.5c0.5-0.1,1.1-0.2,2.1-0.3
		c0.7-0.1,1.2-0.1,1.6-0.2s0.6-0.2,0.7-0.3c0-0.1-0.1-0.1-0.2-0.2c-0.1,0-0.2-0.1-0.3-0.1s-0.1-0.1-0.1-0.2c0-0.1,0.1-0.3,0.2-0.5
		c0.1-0.2,0.3-0.4,0.6-0.8c0.4-0.5,0.7-0.9,0.9-1.2c0.2-0.3,0.3-0.6,0.3-1c0-0.2-0.1-0.3-0.2-0.3s-0.2,0.1-0.4,0.2s-0.3,0.2-0.4,0.2
		c-0.2,0-0.3-0.1-0.4-0.2s-0.1-0.4-0.1-0.6C216.4,11.6,216.7,11.3,217.2,11.2z"/>
	<path d="M229.3,16.4c0.1-0.4,0.1-0.8,0.1-0.9c0-0.5,0.1-1,0.2-1.4s0.3-0.6,0.5-0.6c0.3,0,0.5,0.5,0.5,1.5c0,0.7-0.1,1.5-0.2,2.3
		c-0.1,0.8-0.4,1.2-0.8,1.2c-0.4,0-0.5-0.3-0.5-0.8C229.1,17.5,229.2,17.1,229.3,16.4z M231.2,14.2c0.1-0.1,0.2-0.2,0.4-0.2
		c0.2,0,0.4,0.1,0.6,0.4c0.2,0.3,0.4,0.6,0.6,0.9c0.2,0.3,0.2,0.6,0.2,0.8s0,0.4-0.1,0.5s-0.2,0.2-0.4,0.2s-0.5-0.3-0.9-1
		s-0.6-1.1-0.6-1.3C231,14.4,231,14.3,231.2,14.2z M231.4,5.4c0.1-0.3,0.3-0.7,0.6-1.1c0-0.1,0.2-0.3,0.4-0.7s0.3-0.8,0.4-1.2
		c0-0.2,0.1-0.3,0.3-0.5c0.2-0.2,0.3-0.2,0.5-0.2c0.3,0,0.4,0.2,0.4,0.5c0,0.2-0.1,0.6-0.2,1.1c0,0.1-0.1,0.2-0.1,0.4
		s-0.1,0.4-0.1,0.6c0,0.2,0,0.3,0.1,0.3l0.6,0c0.3,0,0.4,0.1,0.6,0.2s0.2,0.3,0.2,0.7c0,0.3-0.1,0.6-0.2,0.8s-0.2,0.5-0.2,0.5
		c-0.2,0.4-0.3,0.7-0.4,1c0.1,0.1,0.4,0.2,0.7,0.3c0.3,0.1,0.5,0.2,0.6,0.3c0.1,0.1,0.2,0.4,0.2,0.8c0,0.3-0.1,0.7-0.2,1.1
		s-0.3,0.9-0.5,1.3c-0.2,0.4-0.5,0.6-0.7,0.6c-0.2,0-0.4-0.1-0.4-0.2c0-0.2,0.1-0.5,0.2-1c0-0.1,0.1-0.2,0.1-0.4s0.1-0.4,0.1-0.6
		c0-0.3-0.1-0.4-0.2-0.4c-0.2,0-0.4,0.1-0.8,0.2c-0.4,0.2-0.8,0.3-1,0.3c-0.5,0-0.7-0.3-0.7-1c0-0.2,0.1-0.4,0.2-0.6
		s0.3-0.5,0.5-0.8c0.4-0.5,0.6-0.8,0.6-1l-0.1-0.1c-0.1,0-0.2,0-0.4,0.1s-0.4,0.1-0.5,0.1c-0.3,0-0.4,0-0.5-0.1
		c-0.1-0.1-0.2-0.2-0.2-0.5C231.2,6,231.2,5.7,231.4,5.4z M234,13.2c0.3,0,0.7,0.1,1.2,0.3c0.6,0.2,1.1,0.4,1.5,0.7s0.7,0.5,0.7,0.8
		c0,0.2-0.1,0.3-0.2,0.4c-0.1,0.1-0.3,0.1-0.4,0.1c-0.2,0-0.6-0.1-1.2-0.3c-0.5-0.2-1-0.4-1.5-0.7s-0.6-0.5-0.6-0.8
		C233.6,13.4,233.7,13.2,234,13.2z M241.4,11.9c0-0.9,0.2-1.3,0.6-1.3c0.2,0,0.4,0.1,0.5,0.4c0.1,0.3,0.1,0.7,0.1,1.3
		c0,0.3,0,0.5,0.1,0.8s0.1,0.4,0.2,0.4c0.1,0.1,0.4,0.1,0.7,0.1c0.5,0,1.6,0.2,3.1,0.5s2.9,0.7,4.2,1.2c1.2,0.5,1.9,0.9,1.9,1.3
		c0,0.3-0.1,0.5-0.4,0.7s-0.6,0.2-0.9,0.2c-0.5,0-1.1-0.1-1.9-0.4s-1.8-0.7-3.1-1.2c-0.9-0.4-1.6-0.6-2.1-0.8s-0.9-0.3-1.1-0.3
		c-0.1,0-0.2,0-0.2,0.1s0,0.2,0,0.4c0,0.3,0,0.4,0,0.6c0.1,1.4,0.2,3.4,0.2,6.2c-0.3,0.4-0.6,0.6-0.8,0.6c-0.6,0-0.9-0.9-0.9-2.6
		l0-1.9c0-1,0-1.5-0.1-1.8l-0.1-0.1c-0.1,0.1-0.4,0.4-0.8,1c-0.5,0.8-1,1.4-1.4,1.8c-0.4,0.4-0.8,0.6-1.2,0.6
		c-0.2,0-0.3-0.1-0.5-0.2s-0.2-0.3-0.2-0.5c0-0.2,0.1-0.4,0.4-0.7s0.7-0.8,1.3-1.5c0.9-1,1.6-1.8,2-2.5c0.5-0.6,0.7-1.1,0.7-1.6
		L241.4,11.9z M239.9,4.2c0.5-0.8,1-1.5,1.6-2.2s1-1,1.2-1c0.2,0,0.3,0.1,0.4,0.2s0.1,0.3,0.1,0.4c0,0.3-0.1,0.6-0.4,1.1
		c-0.2,0.4-0.2,0.6-0.2,0.7l0.1,0c0.1,0,0.3-0.1,0.4-0.1c0.2-0.1,0.3-0.1,0.5-0.1c0.3,0,0.6,0.1,0.8,0.4s0.3,0.5,0.3,0.9
		s0,0.6-0.1,0.9s-0.3,0.6-0.5,1c-0.2,0.2-0.3,0.5-0.5,0.8c0.1,0,0.2,0,0.4,0c0.8,0,1.5,0.2,2.2,0.6c0.7,0.4,1,0.9,1,1.6
		c0,0.3-0.1,0.5-0.3,0.7c-0.2,0.2-0.4,0.4-0.6,0.4s-0.4-0.1-0.6-0.2c-0.2-0.2-0.4-0.4-0.7-0.7c0,0-0.1-0.1-0.2-0.3
		C244.5,9,244.4,9,244.3,9c-0.2,0-0.7,0.3-1.6,0.8c-1.2,0.8-2,1.1-2.4,1.1c-0.9,0-1.4-0.3-1.4-1c0-0.3,0.2-0.7,0.5-1.2
		s0.9-1,1.5-1.7c0.7-0.7,1.1-1.2,1.3-1.5c-0.2,0-0.4,0.1-0.7,0.4c-0.3,0.2-0.6,0.3-0.8,0.4s-0.5,0.1-0.8,0.1c-0.2,0-0.4-0.1-0.6-0.2
		s-0.2-0.3-0.2-0.5C239.2,5.5,239.4,5,239.9,4.2z"/>
	<path d="M254.3,16.4c0.1-0.4,0.1-0.8,0.1-0.9c0-0.5,0.1-1,0.2-1.4s0.3-0.6,0.5-0.6c0.3,0,0.5,0.5,0.5,1.5c0,0.7-0.1,1.5-0.2,2.3
		c-0.1,0.8-0.4,1.2-0.8,1.2c-0.4,0-0.5-0.3-0.5-0.8C254.1,17.5,254.2,17.1,254.3,16.4z M256.1,14.2c0.1-0.1,0.2-0.2,0.4-0.2
		c0.2,0,0.4,0.1,0.6,0.4c0.2,0.3,0.4,0.6,0.6,0.9c0.2,0.3,0.2,0.6,0.2,0.8s0,0.4-0.1,0.5s-0.2,0.2-0.4,0.2s-0.5-0.3-0.9-1
		s-0.6-1.1-0.6-1.3C256,14.4,256,14.3,256.1,14.2z M256.4,5.4c0.1-0.3,0.3-0.7,0.6-1.1c0-0.1,0.2-0.3,0.4-0.7s0.3-0.8,0.4-1.2
		c0-0.2,0.1-0.3,0.3-0.5c0.2-0.2,0.3-0.2,0.5-0.2c0.3,0,0.4,0.2,0.4,0.5c0,0.2-0.1,0.6-0.2,1.1c0,0.1-0.1,0.2-0.1,0.4
		s-0.1,0.4-0.1,0.6c0,0.2,0,0.3,0.1,0.3l0.6,0c0.3,0,0.4,0.1,0.6,0.2s0.2,0.3,0.2,0.7c0,0.3-0.1,0.6-0.2,0.8s-0.2,0.5-0.2,0.5
		c-0.2,0.4-0.3,0.7-0.4,1c0.1,0.1,0.4,0.2,0.7,0.3c0.3,0.1,0.5,0.2,0.6,0.3c0.1,0.1,0.2,0.4,0.2,0.8c0,0.3-0.1,0.7-0.2,1.1
		s-0.3,0.9-0.5,1.3c-0.2,0.4-0.5,0.6-0.7,0.6c-0.2,0-0.4-0.1-0.4-0.2c0-0.2,0.1-0.5,0.2-1c0-0.1,0.1-0.2,0.1-0.4s0.1-0.4,0.1-0.6
		c0-0.3-0.1-0.4-0.2-0.4c-0.2,0-0.4,0.1-0.8,0.2c-0.4,0.2-0.8,0.3-1,0.3c-0.5,0-0.7-0.3-0.7-1c0-0.2,0.1-0.4,0.2-0.6
		s0.3-0.5,0.5-0.8c0.4-0.5,0.6-0.8,0.6-1l-0.1-0.1c-0.1,0-0.2,0-0.4,0.1s-0.4,0.1-0.5,0.1c-0.3,0-0.4,0-0.5-0.1
		c-0.1-0.1-0.2-0.2-0.2-0.5C256.2,6,256.2,5.7,256.4,5.4z M259,13.2c0.3,0,0.7,0.1,1.2,0.3c0.6,0.2,1.1,0.4,1.5,0.7s0.7,0.5,0.7,0.8
		c0,0.2-0.1,0.3-0.2,0.4c-0.1,0.1-0.3,0.1-0.4,0.1c-0.2,0-0.6-0.1-1.2-0.3c-0.5-0.2-1-0.4-1.5-0.7s-0.6-0.5-0.6-0.8
		C258.6,13.4,258.7,13.2,259,13.2z M266.4,11.9c0-0.9,0.2-1.3,0.6-1.3c0.2,0,0.4,0.1,0.5,0.4c0.1,0.3,0.1,0.7,0.1,1.3
		c0,0.3,0,0.5,0.1,0.8s0.1,0.4,0.2,0.4c0.1,0.1,0.4,0.1,0.7,0.1c0.5,0,1.6,0.2,3.1,0.5s2.9,0.7,4.2,1.2c1.2,0.5,1.9,0.9,1.9,1.3
		c0,0.3-0.1,0.5-0.4,0.7s-0.6,0.2-0.9,0.2c-0.5,0-1.1-0.1-1.9-0.4s-1.8-0.7-3.1-1.2c-0.9-0.4-1.6-0.6-2.1-0.8s-0.9-0.3-1.1-0.3
		c-0.1,0-0.2,0-0.2,0.1s0,0.2,0,0.4c0,0.3,0,0.4,0,0.6c0.1,1.4,0.2,3.4,0.2,6.2c-0.3,0.4-0.6,0.6-0.8,0.6c-0.6,0-0.9-0.9-0.9-2.6
		l0-1.9c0-1,0-1.5-0.1-1.8l-0.1-0.1c-0.1,0.1-0.4,0.4-0.8,1c-0.5,0.8-1,1.4-1.4,1.8c-0.4,0.4-0.8,0.6-1.2,0.6
		c-0.2,0-0.3-0.1-0.5-0.2s-0.2-0.3-0.2-0.5c0-0.2,0.1-0.4,0.4-0.7s0.7-0.8,1.3-1.5c0.9-1,1.6-1.8,2-2.5c0.5-0.6,0.7-1.1,0.7-1.6
		L266.4,11.9z M264.9,4.2c0.5-0.8,1-1.5,1.6-2.2s1-1,1.2-1c0.2,0,0.3,0.1,0.4,0.2s0.1,0.3,0.1,0.4c0,0.3-0.1,0.6-0.4,1.1
		c-0.2,0.4-0.2,0.6-0.2,0.7l0.1,0c0.1,0,0.3-0.1,0.4-0.1c0.2-0.1,0.3-0.1,0.5-0.1c0.3,0,0.6,0.1,0.8,0.4s0.3,0.5,0.3,0.9
		s0,0.6-0.1,0.9s-0.3,0.6-0.5,1c-0.2,0.2-0.3,0.5-0.5,0.8c0.1,0,0.2,0,0.4,0c0.8,0,1.5,0.2,2.2,0.6c0.7,0.4,1,0.9,1,1.6
		c0,0.3-0.1,0.5-0.3,0.7c-0.2,0.2-0.4,0.4-0.6,0.4s-0.4-0.1-0.6-0.2c-0.2-0.2-0.4-0.4-0.7-0.7c0,0-0.1-0.1-0.2-0.3
		C269.5,9,269.4,9,269.3,9c-0.2,0-0.7,0.3-1.6,0.8c-1.2,0.8-2,1.1-2.4,1.1c-0.9,0-1.4-0.3-1.4-1c0-0.3,0.2-0.7,0.5-1.2
		s0.9-1,1.5-1.7c0.7-0.7,1.1-1.2,1.3-1.5c-0.2,0-0.4,0.1-0.7,0.4c-0.3,0.2-0.6,0.3-0.8,0.4s-0.5,0.1-0.8,0.1c-0.2,0-0.4-0.1-0.6-0.2
		s-0.2-0.3-0.2-0.5C264.1,5.5,264.4,5,264.9,4.2z"/>
</g>
</svg>
