<?xml version="1.0" encoding="utf-8"?>
<!-- Generator: Adobe Illustrator 25.2.1, SVG Export Plug-In . SVG Version: 6.00 Build 0)  -->
<svg version="1.1" id="圖層_1" xmlns="http://www.w3.org/2000/svg" xmlns:xlink="http://www.w3.org/1999/xlink" x="0px" y="0px"
	 viewBox="0 0 209.3 30.3" style="enable-background:new 0 0 209.3 30.3;" xml:space="preserve">
<style type="text/css">
	.st0{enable-background:new    ;}
</style>
<g class="st0">
	<path d="M15.4,27.2c-1-0.4-2.2-1-3.7-1.7c-1.4-0.7-2.4-1.1-3-1.4c-0.6-0.3-1.1-0.4-1.3-0.4c-0.3,0-0.6,0.3-1.1,0.8
		c-0.4,0.4-0.7,0.6-1,0.8c-0.3,0.2-0.6,0.3-0.9,0.3c-0.5,0-0.9-0.1-1-0.3s-0.2-0.5-0.3-0.9c0-0.4-0.1-0.8-0.3-1
		c-0.1-0.2-0.2-0.3-0.2-0.4s-0.1-0.2-0.1-0.4c0-0.4,0.2-1,0.6-1.6s0.9-1.3,1.6-2.2c0.5-0.6,0.8-1,0.8-1.1s0-0.1-0.1-0.2
		C5.2,17.2,5,17,4.9,16.7c-0.1-0.3-0.1-0.6-0.2-1c0,0,0-0.2,0-0.4c0-0.2-0.1-0.3-0.1-0.4c-0.1,0.2-0.3,0.5-0.5,1
		c-0.2,0.5-0.4,0.9-0.5,1.2c-0.2,0.3-0.3,0.4-0.6,0.4c-0.3,0-0.4-0.2-0.4-0.5c0-0.6,0.1-1.1,0.4-1.7c0.2-0.5,0.6-1.2,1.1-2
		c0.3-0.7,0.6-1.2,0.7-1.5l-0.1-0.1c-0.2,0-0.5,0.2-1,0.4s-0.8,0.4-0.9,0.5C2.6,12.8,2.3,13.3,2,14c-0.3,0.6-0.5,1.1-0.7,1.4
		s-0.4,0.4-0.7,0.4c-0.2,0-0.4,0-0.5-0.1S0,15.4,0,15.2c0-0.3,0.2-0.9,0.7-1.8s1-1.7,1.6-2.4c0.6-0.7,1-1.1,1.3-1.1
		c0.2,0,0.4,0.2,0.4,0.7v0.1l0.4-0.1C4.3,9.9,4.5,8.8,4.7,7.3C4.9,6,5,5,5.1,4.3c0-0.3,0.1-0.7,0.3-1.1c0.2-0.4,0.2-0.8,0.3-1
		c-0.2,0-0.4,0-0.6,0s-0.4,0-0.6,0C4.3,2.3,4,2.2,3.9,2.1C3.7,2,3.6,1.9,3.6,1.6c0-0.2,0.1-0.3,0.2-0.4C3.9,1.1,4,1.1,4.3,1
		c0.4-0.1,1-0.2,1.8-0.4C7.3,0.2,8.2,0,8.9,0C9.3,0,9.7,0,10,0.1s0.4,0.3,0.4,0.6c0,0.2-0.1,0.3-0.3,0.4s-0.5,0.2-1,0.3
		s-1,0.3-1.2,0.4C7.6,2.1,7.4,2.3,7.4,2.7v0.1l0.1,0.1c0.1,0,0.2,0,0.4-0.1c0.2,0,0.3-0.1,0.4-0.1C9.2,2.7,9.7,3,10,3.6
		S10.4,5,10.4,6c0,0.7-0.1,1.6-0.3,2.9c0,0.2-0.1,0.4-0.1,0.7c0.4,0,0.7-0.1,0.9-0.1c0.6,0,1.1,0.1,1.4,0.4c0.3,0.3,0.5,0.7,0.5,1.4
		c0,0.4-0.1,0.9-0.2,1.3c-0.2,0.4-0.4,0.6-0.8,0.6c-0.2,0-0.3-0.1-0.4-0.2s-0.1-0.3-0.1-0.5c0-0.1,0-0.3,0.1-0.5s0.1-0.4,0.1-0.5
		c0-0.3-0.2-0.4-0.7-0.4c-0.4,0-0.9,0-1.3,0.1c-0.5,0.1-0.8,0.1-1,0.1c-0.5,0.1-0.9,0.1-1.2,0.1s-0.5,0.1-0.6,0.1s-0.2,0.1-0.3,0.2
		c-0.1,0.1-0.2,0.2-0.3,0.4c0,0-0.1,0.1-0.1,0.2c-0.3,0.2-0.3,0.3-0.3,0.4v0.1C5.8,13,5.8,13.4,5.9,14c0.1,0.7,0.2,1.2,0.3,1.6
		c0.1,0.3,0.3,0.5,0.5,0.6c0.1,0,0.2-0.1,0.4-0.2c0.1-0.1,0.2-0.2,0.2-0.3c0-0.1-0.1-0.2-0.2-0.4c-0.2-0.2-0.3-0.4-0.4-0.6
		S6.6,14.3,6.6,14s0.1-0.6,0.3-1s0.5-0.5,0.7-0.5s0.3,0.1,0.4,0.2s0.2,0.2,0.2,0.4c0,0.1,0,0.2-0.1,0.4S8,13.8,8,13.9
		c0,0.2,0.1,0.3,0.2,0.4c0.1,0.1,0.3,0.2,0.5,0.2c0.2,0.1,0.4,0.1,0.5,0.2c0.1,0.1,0.2,0.2,0.2,0.4c0,0.2-0.1,0.5-0.3,0.7
		c-0.2,0.3-0.3,0.5-0.4,0.8c-0.2,0.3-0.3,0.6-0.5,0.8c-0.1,0.2-0.3,0.4-0.6,0.5s-0.5,0.4-0.9,0.8s-0.5,0.7-0.5,0.8
		c0,0,0,0.1,0.1,0.1l0.1,0.1c0.2,0,0.5-0.1,0.8-0.2c0.4-0.1,0.7-0.2,0.8-0.2c0.3,0,0.5,0.1,0.7,0.3C8.9,19.8,9,20,9,20.3
		c0,0.1-0.1,0.4-0.2,0.7c0,0.1,0,0.2-0.1,0.3c0,0.1-0.1,0.2-0.1,0.3c0,0,0,0.1,0.1,0.2c0.4,0.3,1.5,0.8,3.4,1.5c2,0.8,3.5,1.4,4.6,2
		c1.1,0.5,1.6,1.1,1.6,1.7c0,0.2-0.1,0.4-0.3,0.6c-0.2,0.2-0.5,0.2-0.7,0.2C17.1,27.8,16.4,27.6,15.4,27.2z M4.1,23.8
		c0,0.1,0.1,0.1,0.2,0.1c0.2,0,0.5-0.2,0.9-0.5c0.4-0.4,0.6-0.6,0.7-0.6c0,0-0.2-0.2-0.4-0.4c-0.2-0.2-0.3-0.3-0.4-0.3
		c-0.1,0-0.3,0.2-0.6,0.7C4.2,23.3,4,23.6,4,23.7C4,23.7,4,23.8,4.1,23.8z M7.5,20.9c0.2-0.2,0.3-0.4,0.3-0.5c0,0,0-0.1-0.1-0.1
		l-0.1-0.1c-0.1,0-0.3,0.1-0.8,0.2c-0.4,0.1-0.8,0.3-1,0.4c0,0.1,0.4,0.3,1.1,0.5C7.1,21.3,7.3,21.1,7.5,20.9z M7.5,9.9
		c0.6-0.2,0.8-0.3,0.8-0.5c0-0.1,0-0.1-0.1-0.2S8.1,9.1,8,9.1c-0.4,0-0.8,0.1-1.2,0.2S6.1,9.6,6.1,9.9c0,0.2,0.1,0.2,0.2,0.2
		C6.5,10.1,6.9,10,7.5,9.9z M7.9,8.1C8.3,8,8.5,7.7,8.5,7.4S8.2,7,7.7,7C7.3,7,7,7.1,6.7,7.2S6.3,7.6,6.3,8c0,0.1,0,0.2,0.1,0.2
		s0.2,0.1,0.3,0.1C7.1,8.3,7.5,8.2,7.9,8.1z M7.2,5.8c0.4,0,0.8,0,1.2-0.1s0.5-0.3,0.5-0.6c0-0.3-0.1-0.4-0.2-0.5
		C8.5,4.5,8.3,4.5,8.1,4.5C7.7,4.5,7.3,4.6,7,4.7S6.4,5.1,6.4,5.5l0.1,0.2C6.6,5.7,6.9,5.8,7.2,5.8z M11.7,16
		c-0.4-0.2-0.7-0.5-1-0.8c-0.3-0.3-0.5-0.6-0.5-0.8c0-0.5,0.2-0.8,0.5-0.8c0.1,0,0.4,0.2,0.8,0.5c0.3,0.2,0.5,0.4,0.6,0.4
		c0.4,0.2,0.6,0.3,0.8,0.5c0.2,0.2,0.3,0.4,0.3,0.7c0,0.2-0.1,0.3-0.2,0.5c-0.1,0.1-0.2,0.2-0.4,0.2C12.4,16.3,12.1,16.2,11.7,16z"
		/>
	<path d="M24.8,8.4c-0.1,0-0.2,0.1-0.2,0.2c0,0.1-0.1,0.3-0.1,0.6s-0.1,0.6-0.1,0.8c-0.1,0.2-0.2,0.3-0.4,0.3
		c-0.2,0-0.4-0.1-0.5-0.2s-0.2-0.4-0.2-0.7s-0.1-0.5-0.2-0.5c0,0-0.2,0.1-0.4,0.3s-0.4,0.4-0.6,0.5s-0.4,0.2-0.6,0.2s-0.3,0-0.5-0.1
		s-0.2-0.2-0.2-0.4s0.1-0.4,0.4-0.8c0.3-0.4,0.5-0.8,0.8-1.1s0.6-0.8,0.8-1.1C23,6,23.2,5.8,23.2,5.7c0-0.2-0.1-0.3-0.3-0.3
		s-0.4-0.3-0.6-0.3h-0.6c-0.4,0-0.6-0.2-0.6-0.5s0.2-0.5,0.5-0.6c0.4-0.1,0.7-0.2,1.2-0.2c0.2,0,0.5-0.2,0.8-0.5
		C23.8,3.1,24,3,24.1,2.9c0.1-0.1,0.3-0.1,0.4-0.1s0.2,0,0.3,0.1V3c0,0.1,0,0.1-0.1,0.2s0,0.3,0,0.4c0,0.2,0.2,0.3,0.6,0.3
		c0.1,0,0.2,0,0.5,0c0.2,0,0.4,0,0.6,0.1s0.2,0.2,0.2,0.4c0,0.2-0.1,0.4-0.3,0.5s-0.5,0.2-0.9,0.3c-0.2,0-0.3,0.1-0.5,0.1
		c-0.1,0-0.2,0.1-0.2,0.2s0,0.2,0.1,0.3c0.1,0.1,0.1,0.3,0.1,0.4c0,0.2-0.1,0.3-0.2,0.5c0,0,0,0.2,0,0.3c0,0.2,0.2,0.3,0.7,0.4
		c0.3,0,0.6,0.1,0.7,0.2c0.2,0.1,0.2,0.2,0.2,0.4c0,0.2-0.1,0.4-0.2,0.4c-0.2,0.1-0.4,0.1-0.6,0.1L24.8,8.4z M21.4,15.4
		c0-0.3,0.1-0.8,0.3-1.4c0.2-0.5,0.2-0.9,0.3-1.1c0-0.4,0.1-0.7,0.1-0.8c0-0.2,0.1-0.3,0.3-0.4s0.4-0.2,0.7-0.2c0.2,0,0.4,0,0.7,0.1
		c0.3,0,0.6,0.1,0.7,0.1c0.4,0,1.1-0.1,2.1-0.2c0.9-0.1,1.6-0.2,2.1-0.2s1.4,0,2.5-0.1c0.3,0,0.6,0,1-0.1c0.4,0,0.9,0,1.5,0
		c0.3,0,0.6,0,0.7,0h0.7c0.1,0,0.2,0,0.4,0.1c0.2,0,0.3,0.1,0.4,0.1c0.1,0,0.2-0.2,0.2-0.7c0-0.7,0-1-0.1-1s-0.2,0.1-0.4,0.2
		C35.4,10,35.2,10,35,10s-0.3-0.1-0.5-0.2c-0.2-0.2-0.2-0.3-0.2-0.5s0.1-0.4,0.2-0.7c0.2-0.2,0.4-0.6,0.8-1c0.3-0.4,0.6-0.7,0.7-1
		s0.3-0.5,0.3-0.7c0-0.1-0.1-0.2-0.2-0.3c-0.1-0.1-0.3-0.1-0.5-0.1c-0.3-0.1-0.6-0.1-0.7-0.2c-0.2-0.1-0.2-0.3-0.2-0.6
		c0-0.3,0.1-0.5,0.3-0.6s0.5-0.3,0.8-0.4s0.6-0.3,0.8-0.4C36.7,3.2,36.8,3.1,37,3c0.1-0.1,0.3-0.1,0.4-0.1c0.1,0,0.2,0,0.2,0.1
		c0.1,0,0.1,0.1,0.2,0.1c0.1,0.1,0.4,0.1,0.8,0.2c0.3,0,0.6,0.1,0.7,0.1c0.2,0.1,0.2,0.2,0.2,0.5s-0.1,0.5-0.3,0.7s-0.5-0.1-0.9,0.1
		C38,4.9,37.8,5,37.8,5.1s0.1,0.2,0.2,0.4c0.2,0.2,0.2,0.4,0.2,0.5c0,0,0,0.1,0,0.2s0,0.1,0,0.2c0.1,0,0.5,0.1,1.3,0.2
		S41,7,41.6,7.2c0.6,0.3,0.9,0.6,0.9,1c0,0.6-0.3,0.9-0.9,0.9c-0.2,0-0.6-0.2-1.5-0.7c-0.6-0.3-1.1-0.6-1.5-0.8S38,7.3,37.7,7.3
		c-0.1,0-0.2,0.4-0.2,1.1c0,0.1,0,0.4-0.1,0.7s-0.1,0.5-0.1,0.7c0,0.8,0.6,1.2,1.9,1.2c0.1,0,0.3,0,0.4,0c0.1,0,0.3,0,0.4,0
		c0.3,0,0.6,0.3,0.7,0.9c0.1,0.6,0.2,1.2,0.2,1.8c0,0.4-0.1,0.8-0.3,1.2c-0.2,0.4-0.5,0.7-0.8,0.7c-0.5,0-0.7-0.5-0.7-1.4
		c0-0.1,0-0.2,0-0.4s0-0.3,0-0.6c0-0.5-0.1-0.8-0.3-0.8s-0.3,0-0.5,0c-0.1,0-0.2,0-0.3,0.1c-0.9,0.1-2.4,0.2-4.2,0.2
		c-2,0-3.8,0.1-5.6,0.4c-0.2,0-0.5,0.1-0.8,0.1c-1.1,0.2-2,0.3-2.5,0.3c-0.2,0-0.4,0-0.8-0.1c-0.4,0-0.6-0.1-0.8-0.1h-0.1
		c-0.1,0.1-0.1,0.3-0.2,0.7s-0.2,0.8-0.3,1c-0.2,0.2-0.5,0.4-1,0.4C21.6,15.7,21.4,15.6,21.4,15.4z M28.6,21.6
		c-1.7,0.2-3.2,0.2-4.5,0.2c-0.6,0-1-0.1-1.2-0.4s-0.3-0.7-0.3-1.3c0-0.4,0-1-0.1-1.7s-0.1-1.3-0.1-1.7c0-0.2,0.1-0.4,0.2-0.5
		s0.3-0.2,0.5-0.2s0.4,0.1,0.5,0.2c0.2,0.1,0.2,0.2,0.2,0.4c0,0,0,0.1,0,0.2s0,0.2,0.1,0.2s0.2-0.1,0.3-0.3c0.1-0.2,0.3-0.3,0.4-0.3
		c0.3,0,0.4,0.1,0.5,0.3c0.1,0.2,0.2,0.4,0.2,0.8s0.1,0.5,0.2,0.5s0.3-0.1,0.4-0.3s0.3-0.4,0.3-0.5s0-0.2-0.1-0.3
		c-0.1-0.1-0.2-0.2-0.2-0.2c-0.4-0.4-0.5-0.7-0.5-0.9c0-0.1,0-0.2,0.1-0.3s0.2-0.1,0.3-0.1c0.1,0,0.2,0.1,0.3,0.2s0.2,0.3,0.3,0.3
		l0.1-0.1c0-0.1-0.1-0.3-0.3-0.5c-0.2-0.3-0.3-0.5-0.3-0.7c0-0.1,0.1-0.2,0.3-0.2c0.2,0,0.4-0.1,0.5-0.1c0.3,0,0.5,0,0.6,0.1
		s0.2,0.2,0.3,0.3c0.1,0.2,0.2,0.3,0.4,0.4c0.1,0,0.2-0.1,0.3-0.1c0.1-0.1,0.3-0.1,0.4-0.1c0.2,0,0.4,0.2,0.4,0.5
		c0.1,0.3,0.3,0.5,0.4,0.6c0.2,0.1,0.4,0.3,0.5,0.4c0.1,0.2,0.2,0.3,0.3,0.4c0.1-0.1,0.2-0.4,0.2-0.7c0-0.2,0.1-0.4,0.1-0.5
		s0.2-0.2,0.4-0.2c0.3,0,0.4,0.1,0.5,0.3c0.1,0.2,0.1,0.4,0.1,0.7c0,1.4-0.1,2.4-0.3,3.2c0,0.1-0.1,0.2-0.2,0.4
		C31,20.1,31,20.3,31,20.4s0,0.2,0.1,0.3c0.1,0.1,0.1,0.3,0.1,0.4C31.1,21.2,30.3,21.5,28.6,21.6z M24.7,20.6c0.1,0,0.3-0.1,0.4-0.1
		s0.4,0,0.7,0c0.3,0,0.6-0.1,0.7-0.2c0.2-0.1,0.2-0.4,0.2-0.7c0-0.4-0.1-0.6-0.2-0.6s-0.3,0.1-0.6,0.2c-0.3,0.1-0.5,0.2-0.6,0.2
		c-0.3,0-0.5-0.1-0.6-0.2c-0.2-0.2-0.3-0.4-0.5-0.7s-0.2-0.4-0.3-0.4l-0.1,0.1c0,0.2,0,0.3,0,0.5s0,0.3,0,0.5v0.7
		c0,0.6,0.1,0.9,0.4,0.9C24.4,20.7,24.6,20.7,24.7,20.6z M24.7,27.8c-0.4-0.3-0.6-0.9-0.6-1.7c0-0.8,0.1-1.7,0.3-2.4
		s0.5-1.2,1.1-1.2c0.4,0,0.7,0.1,0.9,0.2c0.1,0.1,0.2,0.2,0.2,0.4s0.1,0.3,0.2,0.4c0.2,0,0.3,0,0.4-0.1c0.1,0,0.2-0.1,0.3-0.1
		c0.4-0.1,0.7-0.2,1-0.2s0.5,0.2,0.5,0.6c0,0.2-0.2,0.5-0.5,0.7s-0.8,0.5-1.4,0.8c-0.4,0.2-0.6,0.3-0.8,0.4
		c-0.2,0.1-0.3,0.2-0.3,0.3s0.1,0.2,0.2,0.2s0.2,0.1,0.3,0.1c0.4,0,0.9-0.1,1.6-0.4s1.2-0.4,1.7-0.4c0.7,0,1,0.2,1,0.5
		c0,0.4-0.3,0.8-0.8,1.1c-0.5,0.4-1.2,0.7-1.9,0.9s-1.2,0.3-1.6,0.3C25.7,28.2,25.1,28.1,24.7,27.8z M27.5,9.7
		c-0.1-0.2-0.2-0.5-0.2-0.8s0.1-0.7,0.2-0.9c0.2-0.2,0.4-0.4,0.8-0.4c0.1,0,0.2,0,0.3,0.1c0,0.1,0.1,0.2,0.2,0.4
		c0.1,0.2,0.1,0.3,0.2,0.3l0.1,0.1c0.3,0,0.5-0.1,0.5-0.3s0.1-0.4,0.2-0.7c0-0.2,0-0.4,0.1-0.6C30,6.6,30,6.4,30,6.2l-0.1-0.1
		c-0.1,0-0.2,0-0.3,0s-0.2,0-0.3,0c-0.3,0-0.4-0.2-0.4-0.5c0-0.2,0-0.3,0.1-0.4s0.3-0.2,0.5-0.4c0.2-0.1,0.4-0.3,0.5-0.4
		s0.2-0.3,0.2-0.5S30.1,3.6,30,3.6c-0.2,0-0.3,0-0.4,0.1S29.5,3.9,29.5,4c0,0.2-0.1,0.3-0.2,0.4s-0.2,0.1-0.5,0.1
		c-0.4,0-0.7-0.3-0.8-0.8s-0.3-1-0.3-1.5c0-0.3,0.1-0.5,0.2-0.7c0.2-0.2,0.4-0.3,0.7-0.3c0.2,0,0.4,0.1,0.6,0.2
		c0.1,0.1,0.3,0.3,0.4,0.5c0.1,0.1,0.2,0.2,0.3,0.3s0.2,0.1,0.3,0.1c0.2,0,0.4,0,0.8-0.1c0.3-0.1,0.6-0.1,0.7-0.1
		c0.8,0,1.1,0.3,1.1,0.8c0,0.2-0.1,0.3-0.2,0.4S32.2,3.4,32,3.5c-0.3,0.1-0.4,0.1-0.4,0.2C31.6,3.9,31.7,4,32,4s0.4,0,0.5,0.1
		c0.1,0,0.2,0.2,0.2,0.4c0,0.2-0.1,0.4-0.2,0.5S32.2,5.2,32,5.3c-0.2,0.1-0.4,0.2-0.5,0.3c-0.1,0.1-0.1,0.2-0.1,0.4
		c0,0.2,0,0.5-0.1,0.8c-0.1,0.5-0.1,0.7-0.1,0.8c0,0.3,0.3,0.5,1,0.5c0.3,0,0.5-0.1,0.6-0.2s0.1-0.3,0.2-0.6s0.1-0.4,0.2-0.5
		c0.3,0.2,0.5,0.3,0.5,0.5c0.1,0.2,0.1,0.6,0.1,1.1s-0.2,0.8-0.5,0.8c-0.1,0-0.2,0-0.3,0s-0.2,0-0.3,0c-0.6,0-1.4,0.1-2.3,0.4
		c-0.1,0-0.4,0.1-0.9,0.2S28.5,10,28,10C27.9,10,27.6,9.9,27.5,9.7z M30,19.9c-0.1-0.1-0.5-0.3-1.1-0.7c-0.7-0.5-1.2-0.8-1.6-1
		c0,0.1,0.1,0.3,0.2,0.5s0.2,0.4,0.2,0.6c0,0.1,0,0.3,0.1,0.5c0,0.2,0.1,0.3,0.2,0.4s0.3,0.1,0.6,0.1h0.5C29.7,20.2,30,20.1,30,19.9
		z M28.9,17c0-0.1-0.1-0.2-0.1-0.4s-0.1-0.2-0.1-0.2c-0.3,0.3-0.4,0.4-0.4,0.5l0.5,0.3C28.8,17.3,28.9,17.2,28.9,17z M34.6,28.8
		c-0.3-0.2-0.4-0.4-0.4-0.7c0-0.4,0.3-0.7,0.8-1.1c1.1-0.7,2.1-1.6,3-2.8c0.9-1.1,1.5-2.3,1.8-3.5l-0.1-0.1c-0.4,0-0.8,0.1-1.1,0.4
		c-0.3,0.2-0.6,0.6-1,1c-0.3,0.3-0.5,0.6-0.7,0.7c-0.2,0.2-0.4,0.2-0.6,0.2c-0.2,0-0.4-0.1-0.6-0.2c-0.2-0.1-0.3-0.3-0.3-0.6
		c0-0.4,0.1-0.9,0.4-1.5c0.3-0.6,0.6-1.2,1-2c0.3-0.5,0.4-0.8,0.4-0.8c0-0.1,0-0.1-0.1-0.1c-0.2,0-0.5,0.2-1,0.6s-1,0.6-1.2,0.6
		s-0.3-0.1-0.4-0.2c-0.1-0.2-0.1-0.3-0.1-0.5c0-0.3,0.2-0.8,0.5-1.4c0.3-0.7,0.7-1.3,1.1-1.9s0.7-0.8,1-0.8c0.2,0,0.4,0.1,0.5,0.2
		c0.1,0.2,0.2,0.3,0.2,0.5s0,0.4-0.1,0.6s-0.2,0.4-0.4,0.7c-0.2,0.3-0.4,0.6-0.4,0.8l0,0c0.1,0,0.3,0,0.4-0.1c0.1,0,0.2-0.1,0.3-0.1
		c0.3-0.1,0.5-0.1,0.7-0.1s0.4,0.1,0.5,0.3c0.1,0.2,0.2,0.5,0.2,0.7c0,0.4-0.2,1.1-0.6,1.9c-0.2,0.5-0.4,0.9-0.4,1.1l0.1,0.1
		c0.9-0.5,1.5-0.8,1.9-0.8c0.3,0,0.5,0.1,0.6,0.4s0.1,0.6,0.1,1c0,0.8-0.2,1.9-0.7,3.1s-1.1,2.3-1.9,3.3c-0.8,0.9-1.6,1.4-2.5,1.4
		C35.2,29.1,34.9,29,34.6,28.8z"/>
	<path d="M53.7,3.3c0.4,0,0.6,0.3,0.7,0.8s0.2,1.1,0.2,1.6c0,0.2,0,0.4-0.1,0.7c-0.1,0.3-0.1,0.5-0.1,0.7c0.4,0,0.9-0.1,1.6-0.4
		c0.1,0,0.3-0.1,0.6-0.2s0.7-0.1,1-0.1c0.2,0,0.4,0.1,0.5,0.2s0.2,0.3,0.2,0.5c0,0.3-0.3,0.6-0.9,0.8c-0.6,0.3-1.2,0.5-1.9,0.7
		S54.3,8.9,54,8.9s-0.8,0-1.4,0.1c-0.6,0.1-1,0.1-1.1,0.2c-0.2,0.1-0.4,0.3-0.5,0.6c-0.2,0.7-0.4,1.7-0.4,3c-0.1,0.9-0.2,1.6-0.2,2
		c-0.1,0.4-0.2,0.8-0.2,0.9c-0.2,1-0.3,1.6-0.3,1.8c-0.1,0.7-0.2,1.8-0.4,3.3s-0.4,2.3-0.6,2.5c-0.1,0.1-0.3,0.2-0.6,0.2
		s-0.6-0.2-0.7-0.5c-0.1-0.3-0.2-0.7-0.2-1.1s0-0.8,0.1-1.2c0.1-0.4,0.2-0.8,0.2-1.3c0.2-1.1,0.4-1.9,0.4-2.5H48
		c-0.1,0-0.4,0-0.7,0.1c-0.2,0.1-0.5,0.1-0.7,0.1c-0.7,0-1-0.2-1-0.6c0-0.3,0.1-0.5,0.4-0.6c0.3-0.2,0.7-0.3,1.2-0.5
		s0.9-0.3,1.1-0.5c0.2-0.1,0.4-0.3,0.4-0.5c0-0.1,0-0.2,0.1-0.4s0.1-0.3,0.1-0.4c0-0.1-0.1-0.3-0.2-0.4c-0.1-0.1-0.2-0.2-0.4-0.2
		c-0.1,0-0.2,0-0.4,0.1s-0.3,0.1-0.4,0.1c-0.3,0-0.5-0.1-0.7-0.3s-0.3-0.5-0.3-0.8s0.1-0.5,0.3-0.6s0.5-0.2,0.8-0.2
		c0.2,0,0.4,0.1,0.7,0.2c0.3,0.1,0.6,0.2,0.7,0.2c0.1,0,0.3-0.3,0.5-0.8s0.3-0.9,0.3-1.1c0-0.1-0.1-0.2-0.2-0.3
		c-0.2-0.1-0.3-0.2-0.4-0.2c-0.1-0.1-0.1-0.2-0.1-0.3c0-0.3,0.2-0.5,0.6-0.7c0.4-0.2,1-0.4,1.7-0.6c0.3-0.1,0.6-0.2,0.9-0.3
		s0.4-0.2,0.5-0.3C52.9,6.9,53,6.6,53,6.2c0-0.2,0-0.6-0.1-1.1c-0.1-0.4-0.1-0.7-0.1-1.1C52.9,3.6,53.2,3.3,53.7,3.3z M53,12.5
		c0.2-0.1,0.4-0.2,0.6-0.2c0.2,0,0.3-0.1,0.4-0.1c0.3-0.1,0.9-0.3,1.6-0.6c0.7-0.3,1.3-0.5,1.7-0.6s0.9-0.2,1.4-0.2
		c0.4,0,0.7,0.1,0.7,0.4s-0.1,0.4-0.2,0.5c-0.1,0.1-0.3,0.3-0.6,0.4c-0.3,0.2-0.5,0.3-0.7,0.5s-0.2,0.4-0.2,0.8c0,0.3,0,0.5,0.1,0.8
		s0.1,0.5,0.2,0.6c0.2,0,0.5,0,0.8-0.1s0.6-0.1,0.8-0.1c0.4,0,0.6,0.2,0.6,0.6c0,0.3-0.2,0.5-0.6,0.9s-0.8,0.6-1.1,0.7
		c-0.1,0-0.2,0.1-0.4,0.1s-0.2,0.1-0.2,0.2s0,0.3-0.1,0.5c-0.1,0.4-0.2,0.8-0.4,1.1c0,0.1-0.1,0.1-0.1,0.3c-0.1,0.1-0.1,0.2-0.1,0.3
		s0.1,0.1,0.2,0.1c0.3,0,0.5,0,0.6,0s0.2,0,0.4,0s0.3,0,0.5,0c1.8,0.1,3.9,0.2,6.4,0.5c2.5,0.3,3.9,0.4,4.2,0.5
		c0.3,0.2,0.5,0.4,0.5,0.9c0,0.2,0,0.4-0.1,0.5c-0.1,0.2-0.5,0.4-1.1,0.5s-1.2,0.1-1.8,0.1c-1.3,0-3.3-0.1-5.9-0.2
		C58.4,22,56.5,22,55.2,22c-0.4,0-1,0-1.8,0.1s-1.4,0.1-1.8,0.1c-0.2,0-0.4-0.1-0.6-0.3s-0.3-0.4-0.3-0.6s0.1-0.4,0.3-0.6
		s0.4-0.3,0.8-0.5c0.3-0.1,0.5-0.3,0.6-0.4c0.2-0.3,0.2-0.8,0.2-1.6c0-0.8,0.1-1.4,0.2-1.9c0.1-0.4,0.4-0.6,0.9-0.6
		c0.2,0,0.3,0.1,0.3,0.3c0,0.1,0,0.2-0.1,0.4c0,0.2-0.1,0.3-0.1,0.4c0,0.3,0.1,0.9,0.2,1.6s0.2,1.2,0.4,1.2c0.1,0,0.2,0.1,0.4,0.1
		c0.4,0,0.7,0,0.8-0.1v-0.1c0-0.2,0-0.4-0.1-0.6c-0.1-0.3-0.1-0.5-0.1-0.6c0-0.4,0.1-0.9,0.2-1.4c0.1-0.5,0.2-0.8,0.2-0.9
		c0.3-0.9,0.4-1.7,0.4-2.3c0-0.2-0.1-0.3-0.2-0.3c-0.3,0-0.6,0.1-1.1,0.2c-0.4,0.2-0.8,0.3-1.1,0.3c-0.2,0-0.5-0.1-0.8-0.2
		c-0.3-0.1-0.4-0.3-0.4-0.5S52.8,12.6,53,12.5z"/>
	<path d="M79.3,7.1c0.5-0.1,1-0.2,1.4-0.3c0.5-0.1,0.9-0.2,1.2-0.2c0.4-0.1,0.6-0.2,0.7-0.2s0.2-0.1,0.5-0.1
		c0.1-0.1,0.4-0.2,0.6-0.2c0.3,0,0.5,0,0.7,0.1s0.3,0.2,0.3,0.5c0,0.2-0.1,0.3-0.2,0.4c-0.2,0.2-1.3,0.6-3.2,1.2
		c-2,0.6-3.2,0.9-3.6,0.9c-0.2,0-0.3,0-0.4,0S77.1,9.3,77,9.4c0,0,0,0.2-0.1,0.6s-0.1,0.7-0.1,0.9c0,0.7-0.1,1.2-0.1,1.5
		c0,0.3,0,0.6,0,0.8c0,0.1,0,0.3,0.1,0.5s0.1,0.3,0.1,0.4c0,0.1,0,0.2-0.1,0.3c0,0.1-0.1,0.1-0.1,0.2l-0.1,0.1
		c-0.3,0.3-0.5,0.8-0.7,1.5s-0.5,1.6-0.8,2.7c-0.3,1.2-0.6,2.1-0.8,2.8c-0.3,0.7-0.5,1.2-0.8,1.4c-0.1,0.1-0.2,0.1-0.3,0.1
		c-0.2,0-0.3-0.1-0.4-0.2s-0.2-0.3-0.2-0.5c0-0.4,0.1-1,0.3-1.8c0.2-0.8,0.5-1.8,0.9-2.9c0.1-0.4,0.2-0.6,0.2-0.8v-0.1
		c-0.2,0-0.6,0.1-1.1,0.4c-0.4,0.2-0.8,0.3-1,0.4c-0.3,0.1-0.6,0.1-0.8,0.1c-0.9,0-1.3-0.3-1.3-0.9c0-0.4,0.1-0.7,0.4-0.8
		s0.6-0.3,1.2-0.4c0.3-0.1,0.6-0.1,0.8-0.3c0.1-0.1,0.4-0.2,0.8-0.5s0.9-0.5,1.2-0.8s0.5-0.5,0.5-0.7c0-0.1-0.1-0.2-0.4-0.2
		c-0.2-0.1-0.5-0.1-0.8-0.2c-0.7-0.1-1.2-0.2-1.5-0.4c-0.4-0.1-0.5-0.4-0.5-0.6c0-0.3,0.1-0.4,0.3-0.6c0.2-0.1,0.4-0.2,0.7-0.2
		c0.8,0,1.6,0.2,2.3,0.6c0.1,0,0.2-0.5,0.2-1.6c0-0.9,0.1-1.6,0.2-2.2c0.1-0.6,0.2-0.9,0.4-1c0.2-0.1,0.4-0.1,0.6-0.1H77
		c0.4,0,0.7,0.1,0.8,0.1C78.3,7.3,78.8,7.2,79.3,7.1z M79.9,10.2c0.4-0.1,1-0.2,1.7-0.4c0.4-0.1,0.8-0.2,1.2-0.3
		c0.4-0.1,0.8-0.1,1.2-0.1c0.2,0,0.5,0.1,0.8,0.2s0.4,0.3,0.4,0.5s-0.1,0.4-0.4,0.6s-0.7,0.4-1.1,0.6v0.9c0,0.2,0,0.4,0.1,0.5
		l0.2,0.1c0.1,0,0.3,0,0.6-0.1s0.6-0.1,1-0.1c1,0,1.8,0.2,2.3,0.6c0.5,0.4,0.8,0.9,0.9,1.5c0.1,0.6,0.2,1.5,0.2,2.6
		c0,1.2-0.2,2.5-0.5,3.8S87.6,23,86.7,23s-1.4-0.5-1.4-1.4c0-0.1,0.1-0.2,0.2-0.3c0.1,0,0.3-0.1,0.5-0.1s0.3-0.1,0.4-0.1
		c0.1-0.3,0.2-0.5,0.2-0.7s-0.2-0.3-0.5-0.5c-0.3-0.1-0.9-0.7-2-1.7c-0.8-0.7-1.2-1-1.2-1c-0.1,0-0.1,0.1-0.2,0.2
		c-0.1,0.4-0.3,0.8-0.4,1.2c-0.2,0.6-0.3,1.1-0.6,1.4c-0.2,0.3-0.6,0.6-1.3,0.9c-0.2,0.1-0.3,0.2-0.4,0.3c-0.1,0.2-0.1,0.5-0.1,0.8
		c0,0.5-0.1,0.9-0.2,1.1s-0.3,0.4-0.6,0.4c-0.4,0-0.7-0.2-0.8-0.6c-0.2-0.4-0.2-0.9-0.2-1.4c0-0.7,0.1-1.7,0.3-3s0.4-2.5,0.8-3.6
		s0.8-1.6,1.4-1.6c0.2,0,0.4,0.1,0.4,0.2c0.1,0.1,0.1,0.3,0.1,0.6c0.1-0.1,0.3-0.3,0.6-0.5c0.3-0.3,0.6-0.5,0.8-0.7s0.3-0.5,0.3-0.8
		c-0.3,0.2-0.7,0.4-1.3,0.5c-0.5,0.1-1.1,0.2-1.6,0.2c-0.4,0-0.7-0.1-1-0.3s-0.4-0.5-0.4-0.9C78.4,10.7,78.9,10.3,79.9,10.2z
		 M79,4.1C79.2,4,79.4,4,79.7,4c0.3,0,0.5,0.1,0.8,0.4c0.2,0.3,0.4,0.6,0.4,0.9c0,0.2,0,0.4-0.1,0.5S80.6,6,80.4,6
		c-0.3,0-0.6-0.1-1-0.4c-0.5-0.4-0.7-0.7-0.7-1S78.8,4.2,79,4.1z M80.8,16.7c0.3-0.4,0.4-0.7,0.4-0.9l-0.1-0.1
		c-0.3,0-0.6,0.1-0.7,0.4s-0.2,0.6-0.2,0.9l0.1,0.3C80.3,17.4,80.5,17.2,80.8,16.7z M86.8,15.5c0-0.5-0.1-0.7-0.2-0.8
		s-0.3-0.1-0.4-0.1c-0.2,0-0.5,0-0.8,0.1s-0.5,0.1-0.7,0.2c-0.2,0-0.6,0.1-1,0.2s-0.6,0.2-0.6,0.2c0,0.1,0.1,0.1,0.3,0.2
		s0.3,0.2,0.4,0.2c0.4,0.2,0.9,0.4,1.4,0.8s0.9,0.6,1.2,0.8c0.1,0.1,0.1,0.1,0.2,0.1s0.2-0.1,0.2-0.3c0-0.2,0.1-0.4,0.1-0.6
		C86.9,16.3,86.8,16,86.8,15.5z"/>
	<path d="M106,3.6c0.1,0.1,0.1,0.3,0.1,0.4c0,0.2-0.2,0.4-0.7,0.8s-1,0.7-1.6,1s-1,0.6-1.2,0.6c-0.1,0-0.6,0.2-1.4,0.5
		s-1.3,0.5-1.5,0.7c-0.3,0.2-0.6,1-1.1,2.3s-0.7,2.3-0.8,2.8c0.1,0.2,0.3,0.4,0.4,0.4c0.9-0.6,1.8-1.1,2.9-1.6s2-0.7,2.7-0.7
		c0.4,0,0.7,0.1,0.9,0.4c0.2,0.3,0.3,0.6,0.3,1c0,0.3-0.2,0.6-0.5,1.2s-0.9,1.3-1.6,2.3l-0.6,0.8c1.5,1.9,3.2,3.5,5.2,5
		c0.7,0.5,1.3,1,2,1.4c0.9,0.6,1.6,1.1,2,1.4c0.8,0.6,1.3,1.1,1.3,1.4c0,0.1-0.1,0.3-0.3,0.6s-0.4,0.4-0.5,0.4c-0.4,0-1-0.3-1.9-0.9
		s-2.1-1.5-3.5-2.5c-1.1-0.8-2-1.5-2.8-2.2s-1.5-1.4-2.1-2.1c-0.4-0.4-0.6-0.7-0.7-0.7s-0.5,0.4-1.1,1.1c-0.7,0.8-1.3,1.4-1.8,1.8
		c-0.5,0.5-0.9,0.7-1.1,0.7c-0.3,0-0.5,0-0.6-0.1s-0.2-0.2-0.2-0.5s0.2-0.7,0.5-1.2s0.8-1.1,1.5-1.9c0.3-0.4,0.6-0.7,0.8-1
		s0.4-0.5,0.4-0.7s-0.3-0.6-0.8-1.3s-0.9-1-1-1c-0.2,0-0.4,0.4-0.6,1.3c-0.1,0.4-0.3,0.9-0.6,1.5c-0.2,0.5-0.4,1-0.5,1.3
		c0,0.1-0.1,0.4-0.2,0.9s-0.3,0.8-0.4,1.2c-0.2,0.3-0.4,0.5-0.7,0.5c-0.3,0-0.5-0.1-0.7-0.2s-0.3-0.3-0.3-0.6c0-0.6,0.3-1.7,0.8-3.4
		c0.5-1.6,0.9-2.8,1.3-3.6c0.3-0.7,0.6-1.6,1.1-2.8s0.7-1.9,0.7-2.2V8c-0.1,0-0.3,0-0.6,0c-1.1,0-1.8,0.1-2.1,0.3l-0.1,0.1
		c0,0.1,0.1,0.1,0.1,0.3c0,0.1,0.1,0.2,0.1,0.3c0,0.2-0.1,0.2-0.4,0.2c-0.2,0-0.4-0.2-0.7-0.6c-0.3-0.4-0.4-0.7-0.4-0.9
		c0-0.4,0.3-0.8,0.9-1c0.6-0.3,1.4-0.5,2.4-0.7c0.8-0.2,1.2-0.3,1.4-0.4c0.1-0.2,0.1-0.5,0.2-0.9c0-0.5,0.1-0.9,0.2-1.1
		c0.1-0.3,0.4-0.4,0.8-0.4c0.2,0,0.4,0.1,0.5,0.2c0.2,0.1,0.2,0.3,0.2,0.5c0,0.1-0.1,0.3-0.2,0.5s-0.2,0.4-0.2,0.5
		c0,0.2,0,0.3,0.1,0.3s0.2-0.1,0.4-0.2c0.4-0.2,1.3-0.5,2.8-1c1.5-0.4,2.4-0.7,2.8-0.7C105.8,3.4,105.9,3.5,106,3.6z M99.1,14
		c0.1,0,0.3,0.2,0.7,0.5c0.4,0.3,0.6,0.4,0.7,0.4c0.2,0,0.5-0.3,0.9-0.8s0.7-0.9,0.8-1.1l-0.1-0.1C101,13.1,100,13.5,99.1,14z"/>
	<path d="M149.2,19.3c0.1,0,0.2,0,0.2,0c0.5,0.1,1.1,0.3,1.6,0.5s0.9,0.3,1,0.4c0.6,0.2,1,0.4,1.3,0.5l1.4,0.4
		c0.2,0.1,0.6,0.2,1.2,0.4c0.6,0.2,1.2,0.4,1.7,0.7s1,0.4,1.4,0.7c0.2,0.1,0.4,0.3,0.6,0.5s0.3,0.4,0.3,0.6c0,0.3-0.1,0.5-0.4,0.7
		S159,25,158.7,25s-0.6-0.1-0.9-0.2s-0.5-0.2-0.6-0.3c-2.4-1.2-4.4-2.1-6.1-2.7s-3.3-1-4.7-1h-0.2c-0.3,0-0.5,0-0.6,0.1
		s-0.2,0.3-0.3,0.8c-0.2,0.7-0.3,1.3-0.6,1.7s-0.6,0.7-1,0.7c-0.1,0-0.3-0.1-0.4-0.2c-0.1-0.1-0.2-0.3-0.2-0.4s0-0.4,0.1-0.6
		s0.1-0.5,0.1-0.6s0-0.2-0.1-0.3s-0.2-0.1-0.3-0.2s-0.2-0.2-0.2-0.3c0-0.2,0.1-0.4,0.2-0.6s0.3-0.5,0.5-0.7s0.3-0.5,0.4-0.7
		c0.1-0.2,0.1-0.5,0.2-0.9c0.1-1,0.4-2,0.8-3.2s0.9-1.8,1.4-1.8c0.3,0,0.4,0.1,0.4,0.4c0,0.1,0,0.2-0.1,0.3
		c-0.3,0.4-0.5,0.9-0.6,1.5s-0.1,1.2-0.1,2c0,0.4,0,0.7,0.1,0.9s0.2,0.3,0.4,0.4s0.5,0.1,1,0.1c0.2,0,0.3-0.1,0.4-0.3
		s0.1-0.4,0.1-0.6v-1.9c0-0.8,0-1.6,0.1-2.2c0-0.6,0.2-1.2,0.3-1.8c0-0.1,0.1-0.2,0.1-0.2c0-0.1,0-0.2-0.1-0.3
		c-0.2,0-0.5,0.1-0.8,0.2c-0.4,0.2-0.8,0.3-1.1,0.3c-0.2,0-0.4-0.1-0.6-0.2s-0.3-0.3-0.3-0.6s0.1-0.5,0.2-0.7s0.4-0.3,0.7-0.4
		c0.3-0.2,0.6-0.3,0.8-0.5s0.3-0.5,0.3-0.9c0-0.3-0.1-0.5-0.2-0.6c-0.2-0.1-0.4-0.1-0.8-0.1c-0.4,0-0.6-0.1-0.8-0.2
		s-0.3-0.3-0.3-0.6s0.1-0.4,0.3-0.5s0.5-0.1,0.9-0.1c0.1,0,0.2,0,0.4,0s0.4-0.1,0.5-0.1c0.1-0.1,0.2-0.1,0.2-0.3s0.1-0.3,0.1-0.5
		c0.1-0.3,0.1-0.5,0.3-0.7s0.4-0.2,0.7-0.2s0.5,0.1,0.7,0.2s0.3,0.3,0.3,0.6c0,0.1,0,0.1-0.1,0.3s-0.1,0.2-0.1,0.3
		c0,0.1,0.2,0.1,0.6,0.1c0.5,0,0.8,0.1,1.1,0.3c0.2,0.2,0.4,0.4,0.4,0.9c0,0.3-0.1,0.5-0.3,0.6s-0.5,0.2-0.9,0.2
		c-0.4,0.1-0.6,0.1-0.8,0.2c-0.2,0.1-0.3,0.2-0.3,0.5c0,0.1,0,0.2,0.1,0.3s0.2,0.1,0.4,0.1c0.3,0,0.4,0.1,0.6,0.2s0.2,0.2,0.2,0.4
		c0,0.1,0,0.2-0.1,0.3s-0.1,0.1-0.1,0.2c-0.2,0.3-0.3,0.8-0.4,1.7s-0.1,1.6-0.1,2.1c0,0.1,0,0.2,0.1,0.3c0.2-0.1,0.5-0.3,0.8-0.7
		c0.3-0.3,0.5-0.5,0.6-0.6c0.2-0.1,0.4-0.2,0.6-0.2c0.2,0,0.3,0.1,0.5,0.2s0.2,0.3,0.2,0.4c0,0.2-0.1,0.5-0.4,0.8s-0.7,0.8-1.3,1.4
		c-0.1,0.1-0.3,0.3-0.6,0.6s-0.6,0.6-0.7,0.8c-0.1,0.1-0.2,0.4-0.2,0.7c0,0.1,0,0.2-0.1,0.3s-0.1,0.3-0.1,0.4
		C149.3,19.1,149.2,19.2,149.2,19.3c0,0.1-0.1,0.2-0.1,0.3S149.1,19.3,149.2,19.3z M154.8,4.2c0.4,0,0.7,0.4,0.8,1.2
		c0.1,0.4,0.2,0.8,0.3,1.2c0.2,0.8,0.4,1.4,0.4,1.7c0,0.2-0.1,0.4-0.2,0.5c-0.2,0.1-0.3,0.2-0.5,0.2c-0.5,0-0.9-0.3-1.1-1
		s-0.3-1.3-0.3-1.9C154,4.9,154.2,4.2,154.8,4.2z M155.8,21.3c-0.2-0.1-0.3-0.2-0.4-0.2c-0.1-0.1-0.1-0.8-0.2-2.3s-0.1-2.6-0.1-3.4
		c0-0.7,0-1.3,0.1-1.8s0.2-1,0.4-1.4l0.2-0.7c0.2-0.6,0.4-1.1,0.5-1.5s0.3-0.5,0.5-0.5c0.1,0,0.2,0,0.2,0.1s0.1,0.2,0.1,0.5
		s0.1,0.4,0.3,0.4c0.3-0.2,0.9-0.4,1.7-0.6s1.3-0.3,1.7-0.3c0.2,0,0.4,0.1,0.6,0.2c0.2,0.1,0.3,0.2,0.5,0.4c0.3,0.4,0.4,1.9,0.4,4.7
		v0.9c0,1.4,0,2.7-0.1,3.9c-0.1,1.2-0.2,2-0.5,2.4s-0.7,0.6-1.1,0.6c-0.2,0-0.5-0.1-0.7-0.2s-0.4-0.3-0.4-0.5c0-0.1,0.1-0.3,0.3-0.6
		c0.2-0.3,0.3-0.5,0.3-0.6c0.2-0.9,0.3-2.1,0.3-3.6c0-0.3,0-0.4-0.1-0.6l-0.1-0.1c-0.9,0.4-1.5,0.6-2,0.7c-0.7,0.2-1,0.5-1,0.9
		c0,0.2,0,0.6-0.1,1.2s-0.2,1.1-0.4,1.6s-0.3,0.7-0.5,0.7C156.1,21.4,155.9,21.3,155.8,21.3z M157,3.6c0.1-0.3,0.3-0.4,0.6-0.4
		c0.5,0,0.8,0.2,1,0.6s0.3,1,0.3,1.7c0,0.4,0,0.7,0.1,0.9s0.1,0.3,0.2,0.4c0.1,0,0.2-0.1,0.4-0.3c0.1-0.2,0.3-0.5,0.5-0.9
		c0.3-0.5,0.5-1,0.7-1.2c0.2-0.3,0.4-0.4,0.6-0.4s0.4,0.1,0.6,0.2s0.2,0.3,0.2,0.5c0,0.4-0.2,0.9-0.5,1.6s-0.8,1.3-1.2,1.8
		s-0.9,0.8-1.3,0.8c-0.2,0-0.4-0.1-0.5-0.3s-0.5-0.5-0.5-0.5c-0.5,0-0.9-0.4-1.1-1.2c-0.2-0.8-0.3-1.6-0.3-2.3
		C156.8,4.2,156.9,3.8,157,3.6z M160.3,13.5c-0.1,0-0.2-0.1-0.3-0.1c-0.3,0-0.5,0-0.8,0.1s-0.5,0.1-0.6,0.1
		c-0.3,0.1-0.5,0.1-0.8,0.2c-0.1,0.4-0.2,0.9-0.2,1.5c0,0.2,0,0.2,0.1,0.2s0.7-0.3,1.8-0.8l0.6-0.3c0.3-0.1,0.4-0.3,0.4-0.7
		C160.4,13.6,160.4,13.5,160.3,13.5z M160.3,11c-0.1-0.1-0.2-0.1-0.4-0.1s-0.6,0.1-1,0.3s-0.8,0.3-0.8,0.5c0,0.1,0.1,0.1,0.3,0.1
		c0.1,0,0.2,0,0.3,0s0.2,0,0.3,0s0.2,0,0.5,0.1s0.4,0.1,0.5,0.1c0.2,0,0.3,0,0.4-0.1c0.1-0.1,0.2-0.2,0.2-0.4
		C160.5,11.1,160.4,11.1,160.3,11z"/>
	<path d="M168.4,5c0.1-0.2,0.3-0.2,0.5-0.2c0.4,0,0.6,0.2,0.7,0.6s0.2,0.8,0.2,1.2c0,0.2,0,0.4-0.1,0.6c-0.1,0.2-0.1,0.4-0.2,0.4
		c0,0.1,0.1,0.1,0.2,0.1h0.4l0.2,0.1l0.1,0.1c0,0.1,0.1,0.2,0.1,0.2c0,0.2-0.2,0.4-0.7,0.6c-0.5,0.2-1,0.4-1.6,0.5s-1,0.2-1.2,0.2
		c-0.1,0-0.3-0.1-0.4-0.2s-0.2-0.3-0.2-0.4c0-0.3,0.1-0.4,0.4-0.6s0.6-0.2,1.1-0.4c0.4-0.1,0.6-0.1,0.8-0.2s0.2-0.2,0.2-0.3
		c0-0.2,0-0.4-0.1-0.6s-0.2-0.3-0.2-0.3c-0.2-0.3-0.3-0.6-0.3-0.8S168.2,5.2,168.4,5z M167.5,17c0.1-0.1,0.1-0.3,0.3-0.4
		s0.2-0.2,0.3-0.2c0.3,0,0.4,0.2,0.4,0.6v0.5c0.7,0,1.2,0.1,1.6,0.2c0.4,0.1,0.5,0.5,0.5,1.1c0,0.4-0.1,0.8-0.3,1.3
		c-0.2,0.4-0.4,0.6-0.6,0.8s-0.5,0.4-0.8,0.6c-0.5,0.3-0.9,0.6-1.1,0.8c-0.2,0.2-0.4,0.4-0.6,0.4c-0.3,0-0.4-0.2-0.5-0.6
		s-0.1-0.8-0.1-1.2C166.6,19.3,166.9,18.1,167.5,17z M167.5,13.8c0.4-0.2,0.9-0.3,1.4-0.4s0.9-0.2,1.1-0.2c0.6,0,1,0.2,1,0.5
		s-0.3,0.6-1,0.8s-1.3,0.3-1.8,0.3c-0.3,0-0.5,0-0.8-0.1s-0.4-0.2-0.4-0.3C166.9,14.2,167.1,14,167.5,13.8z M167.4,10.7
		c0.2-0.1,0.5-0.2,0.9-0.3c0.3,0,0.5-0.1,0.7-0.1l1.1-0.3c0.3,0.3,0.5,0.5,0.6,0.6c0.1,0.2,0.2,0.4,0.2,0.6c0,0.3-0.3,0.5-0.9,0.7
		s-1.3,0.2-1.7,0.2c-0.3,0-0.5,0-0.7-0.1s-0.4-0.2-0.6-0.5C167.1,11.1,167.2,10.8,167.4,10.7z M168.6,18.7c-0.3,0-0.4,0.1-0.5,0.4
		S168,19.7,168,20s0,0.5,0.1,0.5c0.2,0,0.5-0.2,0.9-0.5c0.4-0.4,0.5-0.6,0.5-0.8C169.5,18.9,169.2,18.7,168.6,18.7z M172.5,14.3
		c0.2-0.2,0.4-0.3,0.5-0.3c0.3,0,0.7-0.1,1.2-0.2s0.9-0.2,1.2-0.2c0.4,0,0.7,0.1,0.9,0.2s0.5,0.4,0.8,0.7c-0.1,0.7-0.2,1.3-0.3,1.8
		s-0.4,0.9-0.8,1.3c-0.6,0.7-1.3,1.4-2.1,2c-0.8,0.7-1.4,1-1.8,1c-0.1,0-0.2-0.1-0.4-0.3s-0.2-0.3-0.2-0.5c0-0.3,0.2-0.6,0.5-1
		s0.9-0.9,1.6-1.6c0.4-0.3,0.7-0.6,0.9-0.9s0.4-0.5,0.4-0.6c-0.1-0.1-0.3-0.1-0.5-0.1s-0.4,0-0.8,0.1c-0.4,0-0.7,0.1-0.8,0.1
		s-0.3-0.1-0.4-0.3s-0.2-0.4-0.2-0.5C172.2,14.7,172.3,14.5,172.5,14.3z M176,10c0.4-0.3,1-0.6,1.5-0.8s1-0.4,1.2-0.4
		c0.4,0,0.7,0.2,0.9,0.6c0.1,0.2,0.2,1,0.2,2.3s0.1,2.5,0.1,3.6c0,1.3,0,3-0.1,5.1s-0.2,3.3-0.4,3.7c-0.1,0.2-0.2,0.5-0.4,0.7
		s-0.4,0.3-0.6,0.3c-0.1,0-0.3-0.1-0.4-0.2c-0.1-0.1-0.2-1.7-0.3-4.7s-0.1-5.1-0.1-6.1c0-0.2,0-0.6,0.1-1.1c0-0.5,0.1-0.8,0.1-1.1
		c0-0.5-0.1-0.7-0.3-0.7c-0.1,0-0.3,0.1-0.6,0.3c-0.4,0.2-0.6,0.4-0.8,0.4s-0.3-0.1-0.5-0.3s-0.2-0.4-0.2-0.6
		C175.3,10.6,175.6,10.3,176,10z M177.2,6c0.6-0.2,1.2-0.4,1.7-0.4c0.2,0,0.4,0.1,0.6,0.2c0.2,0.1,0.3,0.3,0.3,0.5
		c0,0.1-0.2,0.3-0.5,0.5s-0.7,0.4-1.2,0.6s-0.7,0.2-0.9,0.2s-0.4,0-0.6-0.1s-0.3-0.2-0.3-0.5C176.4,6.6,176.7,6.2,177.2,6z
		 M182.1,12.2c0.4-0.6,0.9-1.1,1.5-1.6s1-0.7,1.3-0.8s0.6-0.1,0.9-0.1c0.3,0,0.5,0.1,0.7,0.2s0.3,0.3,0.3,0.5c0,0.1-0.5,0.5-1.4,1.2
		c-0.4,0.3-0.8,0.7-1.2,1s-0.6,0.5-0.6,0.6s0.2,0.3,0.7,0.8s1.1,1,1.7,1.6c1.8,1.7,3.2,3.1,4.2,4.1s1.5,1.7,1.5,2s-0.1,0.6-0.3,0.9
		s-0.4,0.5-0.7,0.5c-0.5,0-1.5-0.7-3-2.2c-1.5-1.4-2.9-3-4.3-4.6s-2.1-2.6-2.1-2.9C181.4,13.2,181.6,12.8,182.1,12.2z"/>
	<path d="M195.5,10c1.1-0.7,2.5-1.2,4.1-1.7s3.1-0.6,4.5-0.6c0.6,0,1,0.1,1.2,0.3c0,0.1,0.1,0.2,0.1,0.3c0,0.3-0.1,0.4-0.3,0.5
		s-0.5,0.1-0.8,0.1s-0.5,0-0.6,0.1s-0.2,0.1-0.2,0.2c0,0.2,0.2,0.4,0.4,0.8h0.4c0.1,0,0.4,0,0.9,0s0.9,0.1,1.2,0.2s0.5,0.5,0.5,0.8
		c0,0.2-0.1,0.4-0.4,0.4s-0.7,0.1-1.3,0.2c-0.9,0-1.4,0.2-1.5,0.4s-0.3,0.4-0.4,0.7c-0.2,0.4-0.4,0.8-0.6,1
		c-0.2,0.2-0.4,0.4-0.7,0.4h-0.1c0,0-0.1,0-0.1,0.1s0,0.2,0,0.4c0,0.5,0,1,0.1,1.3s0.2,0.5,0.5,0.5c0.4,0,0.8,0.1,1.2,0.4
		s0.5,0.6,0.5,1s-0.1,0.6-0.3,0.7s-0.5,0.2-0.9,0.2c-0.2,0-0.4,0-0.5,0.1s-0.2,0.1-0.2,0.2s0,0.2,0.1,0.3s0.2,0.1,0.3,0.1
		c0.4,0,1-0.1,1.8-0.3c0.8-0.2,1.4-0.3,1.8-0.3c0.3,0,0.7,0.1,1.2,0.2s0.9,0.3,1.3,0.5s0.6,0.5,0.6,0.8c0,0.4-0.2,0.6-0.6,0.7
		s-0.9,0.2-1.3,0.2c-1.1,0-1.9,0-2.6,0.1c-0.7,0-1.4,0.2-2.1,0.4c-0.2,0.1-0.4,0.1-0.5,0.2s-0.1,0.2-0.1,0.5v0.7c0,0.2,0,0.4,0,0.7
		c0,0.7-0.1,1.4-0.2,2.1c-0.1,0.7-0.3,1.6-0.5,2.6l-0.1,0.6c0,0.1,0,0.3-0.1,0.5s-0.1,0.4-0.2,0.5c-0.1,0.1-0.3,0.2-0.6,0.2h-0.2
		c-0.2,0-0.3-0.1-0.3-0.3c0-0.2-0.1-0.4-0.1-0.6s0-0.3,0-0.4l-0.1-1.4c0-0.3,0-0.8-0.1-1.6s-0.1-1.5-0.1-2.1v-0.7
		c0-0.5-0.1-0.8-0.3-0.8c-0.4,0-1,0.1-1.6,0.3l-0.7,0.2c-0.7,0.2-1.7,0.3-3,0.3c-0.4,0-0.8-0.1-1-0.2c-0.3-0.1-0.4-0.3-0.4-0.7
		c0-0.4,0.3-0.6,0.8-0.8c0.5-0.2,1.2-0.3,1.9-0.4l0.7-0.1l3.3-0.9c0.1,0,0.2-0.1,0.2-0.3s0.1-0.3,0.1-0.4c0-0.4-0.3-0.5-0.8-0.5
		c-0.2,0-0.3,0-0.4,0s-0.2,0-0.3,0.1c-0.3,0.1-0.6,0.1-0.7,0.1c-0.7,0-1.1-0.3-1.1-0.9c0-0.2,0.2-0.4,0.5-0.5s0.9-0.3,1.6-0.5
		c0.1,0,0.3-0.1,0.6-0.2s0.6-0.2,0.7-0.3v-0.9c0-0.8,0.1-1.4,0.1-1.8c0-0.7-0.1-1.1-0.4-1.1c-0.2,0-0.4,0.1-0.6,0.2
		c-0.2,0.1-0.4,0.2-0.4,0.4c0,0.1,0,0.2,0.1,0.4s0.1,0.3,0.1,0.4c0,0.2,0,0.4-0.1,0.5S198.2,15,198,15c-0.3,0-0.6-0.1-0.7-0.2
		s-0.3-0.3-0.5-0.5c-0.1-0.2-0.2-0.3-0.2-0.3c-0.1,0-0.3,0.1-0.6,0.2s-0.5,0.2-0.8,0.4c-0.5,0.3-0.9,0.4-1.3,0.6s-0.7,0.2-1,0.2
		c-0.2,0-0.4-0.1-0.5-0.3c-0.1-0.2-0.2-0.4-0.2-0.6c0-0.5,0.2-0.9,0.6-1.1s1-0.5,1.8-0.8s1.3-0.5,1.6-0.7l0.5-1.2v-0.1h-0.1
		c-0.3,0-0.8,0.2-1.3,0.5s-0.9,0.5-0.9,0.5c-0.2,0-0.2-0.1-0.2-0.4C194.5,10.8,194.8,10.4,195.5,10z M199.6,3.4
		c0.1,0,0.2-0.1,0.4-0.1s0.3-0.1,0.5-0.1c0.3-0.1,0.6-0.2,0.7-0.4c0.1-0.2,0.2-0.4,0.3-0.6s0.2-0.3,0.2-0.4s0.2-0.1,0.5-0.1
		c0.1,0,0.2,0.1,0.3,0.2c0,0.1,0.1,0.3,0.1,0.5c0,0.2,0,0.4,0.1,0.4s0.3,0,0.6,0s0.7,0,1.1,0c1.6,0,2.3,0.2,2.3,0.7
		c0,0.3-0.2,0.6-0.6,0.7s-1.1,0.2-1.9,0.3c-1,0.1-1.5,0.2-1.7,0.4c-0.1,0.1-0.2,0.4-0.4,1c-0.1,0.6-0.3,1-0.4,1.3
		c-0.1,0.3-0.3,0.4-0.6,0.4s-0.4-0.2-0.4-0.6c0-0.1,0-0.4,0.1-0.7c0-0.3,0.1-0.5,0.1-0.6c0-0.3-0.1-0.4-0.3-0.4
		c-0.1,0-0.5,0.1-1.2,0.3c-0.7,0.2-1,0.3-1.1,0.4c0,0.1,0,0.3,0,0.7s-0.1,0.7-0.2,1c-0.1,0.3-0.4,0.4-0.6,0.4c-0.4,0-0.6-0.3-0.6-1
		V6.4c-0.2,0-0.5,0-0.7,0.1s-0.4,0.1-0.5,0.1c-0.5,0.2-1,0.2-1.3,0.2c-0.2,0-0.4,0-0.6-0.1s-0.2-0.2-0.2-0.3c0-0.2,0.2-0.5,0.6-0.7
		s0.9-0.5,1.5-0.7c0.1,0,0.2-0.1,0.4-0.2s0.3-0.2,0.4-0.2c0.1-0.1,0.1-0.2,0.1-0.4c0,0,0-0.2,0-0.4s0-0.4,0.1-0.5s0.2-0.2,0.4-0.2
		c0.1,0,0.3,0,0.4,0.1c0.1,0.1,0.2,0.2,0.4,0.4c0.2,0.2,0.3,0.3,0.4,0.3C198.5,3.8,199,3.7,199.6,3.4z M199.4,9.8h-0.1
		c-0.1,0-0.2,0-0.4,0.1s-0.4,0.1-0.6,0.2c-0.2,0.1-0.3,0.1-0.3,0.2s0,0.4,0,0.7c0,0.1,0.1,0.2,0.2,0.2c0.4,0,0.6-0.1,0.9-0.3
		s0.4-0.5,0.4-0.8C199.4,10,199.4,9.9,199.4,9.8z M202.1,9.5c-0.1-0.1-0.2-0.2-0.4-0.2s-0.3,0.1-0.5,0.2S201,9.7,201,9.9
		s0.1,0.4,0.2,0.6h0.1h0.1c0.1-0.1,0.2-0.1,0.4-0.2c0.2,0,0.3-0.1,0.4-0.1s0.1-0.2,0.1-0.3C202.3,9.7,202.2,9.6,202.1,9.5z
		 M202,12.1c-0.1,0-0.3,0.1-0.4,0.2s-0.2,0.3-0.2,0.5c0,0.1,0,0.2,0.1,0.2c0.1,0.1,0.1,0.1,0.2,0.1c0.1,0,0.3-0.1,0.4-0.2
		s0.2-0.3,0.2-0.5C202.4,12.2,202.3,12.1,202,12.1z"/>
</g>
</svg>
